<svg xmlns="http://www.w3.org/2000/svg" width="18" height="19" viewBox="0 0 18 19">
  <g id="bx-user" transform="translate(-3 -2)">
    <circle id="Ellipse_11155" data-name="Ellipse 11155" cx="3" cy="3" r="3" transform="translate(9 4)" fill="none"/>
    <path id="Path_122745" data-name="Path 122745" d="M12,2a5,5,0,1,0,5,5A5.006,5.006,0,0,0,12,2Zm0,8a3,3,0,1,1,3-3A3,3,0,0,1,12,10Zm9,11V20a7.009,7.009,0,0,0-7-7H10a7.008,7.008,0,0,0-7,7v1H5V20a5.006,5.006,0,0,1,5-5h4a5.006,5.006,0,0,1,5,5v1Z" fill="#00846c"/>
  </g>
</svg>
