<svg xmlns="http://www.w3.org/2000/svg" width="36" height="36" viewBox="0 0 36 36">
  <g id="comm-det" transform="translate(-217 -461.652)">
    <g id="Photo" transform="translate(217 461.652)">
      <rect id="base" width="36" height="36" rx="18" fill="#00ab7a" opacity="0.2"/>
      <path id="phone-flip" d="M.634,11.786l3.626-1.555a1.039,1.039,0,0,1,1.218.3l1.473,1.8A11.692,11.692,0,0,0,12.283,7l-1.8-1.472a1.047,1.047,0,0,1-.3-1.219L11.739.683a1.048,1.048,0,0,1,1.2-.605L16.3.854a1.039,1.039,0,0,1,.809,1.018,15.306,15.306,0,0,1-15.29,15.29,1.038,1.038,0,0,1-1.018-.809L.029,12.984A1.052,1.052,0,0,1,.634,11.786Z" transform="translate(9.442 9.394)" fill="#00846c"/>
    </g>
  </g>
</svg>
