<svg xmlns="http://www.w3.org/2000/svg" width="466.891" height="82.809" viewBox="0 0 466.891 82.809">
  <g id="Recapcha" transform="translate(-1108.078 -1096)">
    <g id="Group_55530" data-name="Group 55530" transform="translate(1108.078 1096)">
      <path id="Path_122419" data-name="Path 122419" d="M506.533,114.233H45.482c-1.365,0-2.482-.789-2.482-1.753V34.053c0-.964,1.117-1.753,2.482-1.753H506.533c1.365,0,2.482.789,2.482,1.753V112.48C509.015,113.444,507.9,114.233,506.533,114.233Z" transform="translate(-42.562 -31.862)" fill="#f9f9fa"/>
      <path id="Path_122420" data-name="Path 122420" d="M506.291,31.8H45.6c-1.736,0-3.1.964-3.1,2.191v78.428c0,1.227,1.364,2.191,3.1,2.191H506.291c1.736,0,3.1-.964,3.1-2.191V33.991C509.391,32.764,508.027,31.8,506.291,31.8Zm1.86,80.618c0,.7-.868,1.314-1.86,1.314H45.6c-.992,0-1.86-.613-1.86-1.314V33.991c0-.7.868-1.314,1.86-1.314H506.291c.992,0,1.86.613,1.86,1.314Z" transform="translate(-42.5 -31.8)" fill="#d3d3d3"/>
      <path id="Path_122421" data-name="Path 122421" d="M382.894,53.622A16.2,16.2,0,0,0,370.1,47.4v7.974a8.027,8.027,0,0,1,7.01,4.031l-4.644,4.644h14.371V49.678Z" transform="translate(53.941 -33.73)" fill="#1c3aa9"/>
      <path id="Path_122422" data-name="Path 122422" d="M375.26,70.019a8.212,8.212,0,0,1-7.01,4.031,8,8,0,0,1-6.747-3.593l4.557-4.557H351.6V80.271l4.119-4.119a16.156,16.156,0,0,0,25.062-.175Z" transform="translate(56.229 -36.019)" fill="#b3b3b3"/>
      <path id="Path_122423" data-name="Path 122423" d="M353.44,47.488l3.856,3.856a16.025,16.025,0,0,0-5.7,12.268h7.974a8.137,8.137,0,0,1,3.417-6.66l4.82,4.82V47.4l-14.371.088Z" transform="translate(56.229 -33.73)" fill="#4388f2"/>
      <g id="Group_55527" data-name="Group 55527" transform="translate(395.123 53.454)">
        <path id="Path_122424" data-name="Path 122424" d="M337.188,97.515a11.76,11.76,0,0,0-.088-1.84h.964v1.139h.088a1.764,1.764,0,0,1,1.665-1.314h.263v1.052h-.351a1.588,1.588,0,0,0-1.49,1.4c0,.175-.088.351-.088.526v3.155H337.1V97.515h.088Z" transform="translate(-337.1 -93.134)" fill="#b3b3b3"/>
        <path id="Path_122425" data-name="Path 122425" d="M342.152,98.842a1.908,1.908,0,0,0,2.015,2.1,6.586,6.586,0,0,0,1.665-.263l.175.789a4.856,4.856,0,0,1-2.015.351,2.738,2.738,0,0,1-2.892-2.979c0-1.753,1.052-3.242,2.8-3.242a2.506,2.506,0,0,1,2.454,2.8v.526l-4.206-.088Zm3.155-.7c0-.7-.263-1.753-1.49-1.753a1.8,1.8,0,0,0-1.665,1.753Z" transform="translate(-337.595 -93.146)" fill="#b3b3b3"/>
        <path id="Path_122426" data-name="Path 122426" d="M354.409,101.037a5.548,5.548,0,0,1-2.191.351,3.887,3.887,0,0,1-4.119-4.206,4.117,4.117,0,0,1,4.294-4.381,5.2,5.2,0,0,1,1.928.351l-.263.876a4.279,4.279,0,0,0-1.665-.351,3.087,3.087,0,0,0-3.242,3.418,3,3,0,0,0,3.155,3.33,5.185,5.185,0,0,0,1.753-.351Z" transform="translate(-338.461 -92.8)" fill="#b3b3b3"/>
        <path id="Path_122427" data-name="Path 122427" d="M358.115,98.708l-.876,2.629H356.1l2.8-8.237h1.314l2.8,8.237h-1.139l-.876-2.629Zm2.716-.789-.789-2.366a13.521,13.521,0,0,1-.438-1.49h0a9.572,9.572,0,0,1-.438,1.49l-.789,2.366Z" transform="translate(-339.451 -92.837)" fill="#b3b3b3"/>
        <path id="Path_122428" data-name="Path 122428" d="M365.388,93.175A12.305,12.305,0,0,1,367.4,93a3.213,3.213,0,0,1,2.278.7,2.174,2.174,0,0,1,.7,1.753,2.639,2.639,0,0,1-.613,1.753,3.327,3.327,0,0,1-2.541.876,2.7,2.7,0,0,1-.876-.088v3.33H365.3V93.175h.088Zm1.139,3.943a2.7,2.7,0,0,0,.876.088c1.314,0,2.1-.613,2.1-1.753,0-1.052-.789-1.577-1.928-1.577a2.725,2.725,0,0,0-.964.088v3.155h-.088Z" transform="translate(-340.589 -92.825)" fill="#b3b3b3"/>
        <path id="Path_122429" data-name="Path 122429" d="M374.341,93.976H371.8V93.1h6.134v.876h-2.541v7.361h-1.052V93.976Z" transform="translate(-341.393 -92.837)" fill="#b3b3b3"/>
        <path id="Path_122430" data-name="Path 122430" d="M385.109,101.037a5.548,5.548,0,0,1-2.191.351,3.887,3.887,0,0,1-4.119-4.206,4.117,4.117,0,0,1,4.294-4.381,5.2,5.2,0,0,1,1.928.351l-.263.876a4.279,4.279,0,0,0-1.665-.351,3.087,3.087,0,0,0-3.242,3.418,3,3,0,0,0,3.155,3.33,5.185,5.185,0,0,0,1.753-.351Z" transform="translate(-342.259 -92.8)" fill="#b3b3b3"/>
        <path id="Path_122431" data-name="Path 122431" d="M388.652,93.1v3.418h4.031V93.1h1.052v8.237h-1.052V97.481h-4.031v3.856H387.6V93.1Z" transform="translate(-343.347 -92.837)" fill="#b3b3b3"/>
        <path id="Path_122432" data-name="Path 122432" d="M397.928,98.708l-.876,2.629H396l2.8-8.237h1.314l2.8,8.237h-1.139l-.876-2.629Zm2.716-.789-.789-2.366a13.507,13.507,0,0,1-.438-1.49h0a9.576,9.576,0,0,1-.438,1.49l-.789,2.366Z" transform="translate(-344.387 -92.837)" fill="#b3b3b3"/>
      </g>
      <g id="Group_55528" data-name="Group 55528" transform="translate(393.721 69.227)">
        <path id="Path_122433" data-name="Path 122433" d="M335.5,110.888a9.04,9.04,0,0,1,1.665-.088,2.565,2.565,0,0,1,1.84.526,1.906,1.906,0,0,1,.613,1.4,1.85,1.85,0,0,1-.526,1.4,2.589,2.589,0,0,1-2.015.7,1.708,1.708,0,0,1-.7-.088v2.629H335.5v-6.485Zm.789,3.242a1.709,1.709,0,0,0,.7.088c1.052,0,1.665-.526,1.665-1.4s-.613-1.314-1.577-1.314a1.73,1.73,0,0,0-.789.088Z" transform="translate(-335.5 -110.8)" fill="#b3b3b3"/>
        <path id="Path_122434" data-name="Path 122434" d="M341.2,114.477v-1.49h.789v.964h0A1.4,1.4,0,0,1,343.3,112.9h.263v.789H343.3a1.158,1.158,0,0,0-1.139,1.139v2.979h-.876v-3.33H341.2Z" transform="translate(-336.205 -111.06)" fill="#b3b3b3"/>
        <path id="Path_122435" data-name="Path 122435" d="M345.952,111.423a.505.505,0,0,1-.526.526.526.526,0,0,1,0-1.052C345.689,110.81,345.952,111.073,345.952,111.423Zm-.964,6.046v-4.732h.876v4.732Z" transform="translate(-336.663 -110.81)" fill="#b3b3b3"/>
        <path id="Path_122436" data-name="Path 122436" d="M347.864,113l.964,2.716a6.454,6.454,0,0,1,.35,1.227h0a10.631,10.631,0,0,1,.438-1.227L350.58,113h.876l-1.84,4.732h-.876L346.9,113Z" transform="translate(-336.91 -111.072)" fill="#b3b3b3"/>
        <path id="Path_122437" data-name="Path 122437" d="M355.567,117.695l-.088-.613h0a1.868,1.868,0,0,1-1.49.7,1.405,1.405,0,0,1-1.49-1.4c0-1.139,1.052-1.753,2.892-1.753v-.088a1,1,0,0,0-1.052-1.139,2.852,2.852,0,0,0-1.227.351l-.175-.613a3.026,3.026,0,0,1,1.577-.438c1.49,0,1.84.964,1.84,1.928v1.753a4.63,4.63,0,0,0,.088,1.139h-.876v.175Zm-.175-2.366c-.964,0-2.015.175-2.015,1.052a.735.735,0,0,0,.789.789,1.086,1.086,0,0,0,1.139-.789c0-.088.088-.175.088-.263Z" transform="translate(-337.603 -111.035)" fill="#b3b3b3"/>
        <path id="Path_122438" data-name="Path 122438" d="M361.768,117.532a3.906,3.906,0,0,1-1.4.263A2.278,2.278,0,0,1,358,115.341a2.392,2.392,0,0,1,2.541-2.541,2.321,2.321,0,0,1,1.227.263l-.175.7a2.13,2.13,0,0,0-.964-.263,1.66,1.66,0,0,0-1.665,1.84,1.589,1.589,0,0,0,1.665,1.753,1.685,1.685,0,0,0,1.052-.263Z" transform="translate(-338.284 -111.047)" fill="#b3b3b3"/>
        <path id="Path_122439" data-name="Path 122439" d="M363.852,113l1.052,2.8a5.387,5.387,0,0,1,.263.964h0c.088-.263.175-.613.263-.964l.964-2.8h.876l-1.314,3.418a6.768,6.768,0,0,1-1.665,2.979,2.246,2.246,0,0,1-1.052.526l-.175-.7a2.43,2.43,0,0,0,.789-.438,2.122,2.122,0,0,0,.7-.964.306.306,0,0,1,.088-.175c0-.088,0-.088-.088-.263L362.8,113Z" transform="translate(-338.877 -111.072)" fill="#b3b3b3"/>
        <path id="Path_122440" data-name="Path 122440" d="M373.254,115v.613H370.8V115Z" transform="translate(-339.867 -111.32)" fill="#b3b3b3"/>
        <path id="Path_122441" data-name="Path 122441" d="M377.915,111.6H375.9v-.7h4.907v.7h-2.015v5.871h-.876V111.6Z" transform="translate(-340.498 -110.812)" fill="#b3b3b3"/>
        <path id="Path_122442" data-name="Path 122442" d="M381.889,115.529a1.561,1.561,0,0,0,1.665,1.665,2.682,2.682,0,0,0,1.314-.263l.175.613a3.167,3.167,0,0,1-1.577.263,2.208,2.208,0,0,1-2.366-2.366,2.332,2.332,0,0,1,2.278-2.541c1.577,0,1.928,1.4,1.928,2.278v.438l-3.418-.088Zm2.541-.613a1.274,1.274,0,0,0-1.227-1.4c-.876,0-1.227.789-1.314,1.4Z" transform="translate(-341.141 -111.06)" fill="#b3b3b3"/>
        <path id="Path_122443" data-name="Path 122443" d="M387.1,114.477v-1.49h.789v.964h0A1.4,1.4,0,0,1,389.2,112.9h.263v.789H389.2a1.158,1.158,0,0,0-1.139,1.139v2.979h-.876v-3.33H387.1Z" transform="translate(-341.884 -111.06)" fill="#b3b3b3"/>
        <path id="Path_122444" data-name="Path 122444" d="M390.775,114.3v-1.314h.789v.789h0a1.653,1.653,0,0,1,1.49-.876,1.316,1.316,0,0,1,1.314.964h0a3.811,3.811,0,0,1,.526-.613,1.879,1.879,0,0,1,1.052-.351c.613,0,1.577.438,1.577,2.1v2.8h-.876v-2.716c0-.876-.351-1.49-1.052-1.49a1.132,1.132,0,0,0-1.052.789,3.8,3.8,0,0,0-.088.438v2.979h-.876v-2.892c0-.789-.351-1.314-.964-1.314a1.127,1.127,0,0,0-1.052.876.657.657,0,0,0-.088.438v2.892H390.6V114.3h.175Z" transform="translate(-342.317 -111.06)" fill="#b3b3b3"/>
        <path id="Path_122445" data-name="Path 122445" d="M400.088,116.843a2.192,2.192,0,0,0,1.139.351c.613,0,.964-.351.964-.7,0-.438-.263-.613-.876-.876-.876-.263-1.227-.789-1.227-1.314,0-.789.613-1.4,1.665-1.4a3.108,3.108,0,0,1,1.139.263l-.175.613a2.131,2.131,0,0,0-.964-.263c-.526,0-.789.263-.789.613s.263.613.876.789c.789.351,1.227.7,1.227,1.4,0,.876-.613,1.4-1.753,1.4a2.112,2.112,0,0,1-1.314-.351Z" transform="translate(-343.479 -111.06)" fill="#b3b3b3"/>
      </g>
      <g id="Group_55529" data-name="Group 55529" transform="translate(59.724 35.051)">
        <path id="Path_122446" data-name="Path 122446" d="M112.314,72.4V82.828H111V72.4Z" transform="translate(-111 -71.874)" fill="#4c4a4b"/>
        <path id="Path_122447" data-name="Path 122447" d="M116.666,72.2a16.763,16.763,0,0,1-1.49,3.68l-.876.088a20.625,20.625,0,0,0,.876-3.68Z" transform="translate(-111.408 -71.849)" fill="#4c4a4b"/>
        <path id="Path_122448" data-name="Path 122448" d="M117.988,77.791a14.217,14.217,0,0,0-.088-2.015h1.227L119.214,77h.088a2.68,2.68,0,0,1,2.366-1.4,2.108,2.108,0,0,1,2.1,1.49h0a3.125,3.125,0,0,1,.876-.964,2.527,2.527,0,0,1,1.665-.526c.964,0,2.454.613,2.454,3.242v4.381h-1.314V78.93c0-1.4-.526-2.278-1.665-2.278a1.8,1.8,0,0,0-1.665,1.928v4.644h-1.314V78.755c0-1.227-.526-2.1-1.577-2.1a1.783,1.783,0,0,0-1.665,1.4,1.708,1.708,0,0,0-.088.7v4.557h-1.49Z" transform="translate(-111.854 -72.27)" fill="#4c4a4b"/>
        <path id="Path_122449" data-name="Path 122449" d="M136.475,77.791a14.214,14.214,0,0,0-.088-2.015h1.227L137.7,77h0a2.721,2.721,0,0,1,2.454-1.4c1.052,0,2.629.613,2.629,3.155v4.469h-1.4V78.93c0-1.227-.438-2.191-1.753-2.191a1.973,1.973,0,0,0-1.84,1.4,1.491,1.491,0,0,0-.088.613v4.557h-1.4V77.791h.175Z" transform="translate(-114.13 -72.27)" fill="#4c4a4b"/>
        <path id="Path_122450" data-name="Path 122450" d="M153.061,79.456a3.626,3.626,0,0,1-3.768,3.943,3.572,3.572,0,0,1-3.593-3.856,3.687,3.687,0,1,1,7.361-.088Zm-5.959.088c0,1.665.964,2.892,2.278,2.892s2.278-1.227,2.278-2.892c0-1.314-.613-2.892-2.278-2.892S147.1,78.054,147.1,79.543Z" transform="translate(-115.293 -72.27)" fill="#4c4a4b"/>
        <path id="Path_122451" data-name="Path 122451" d="M157.554,73.3v2.191h1.928v1.052h-1.928v4.031c0,.964.263,1.49,1.052,1.49.351,0,.613-.088.789-.088l.088,1.052a4.062,4.062,0,0,1-1.227.175,1.805,1.805,0,0,1-1.49-.613,2.978,2.978,0,0,1-.526-1.928V76.542H155.1V75.491h1.139v-1.84Z" transform="translate(-116.456 -71.986)" fill="#4c4a4b"/>
        <path id="Path_122452" data-name="Path 122452" d="M169.732,83.2l-.088-.964h-.088a2.767,2.767,0,0,1-2.278,1.139A2.139,2.139,0,0,1,165,81.184c0-1.84,1.577-2.8,4.557-2.8V78.2a1.551,1.551,0,0,0-1.665-1.753,3.533,3.533,0,0,0-1.928.526l-.351-.876a4.275,4.275,0,0,1,2.454-.7c2.278,0,2.892,1.577,2.892,3.067v2.8a12.34,12.34,0,0,0,.088,1.84l-1.314.088Zm-.175-3.768c-1.49,0-3.155.263-3.155,1.665a1.24,1.24,0,0,0,1.314,1.314,1.972,1.972,0,0,0,1.84-1.227.79.79,0,0,0,.088-.438l-.088-1.314Z" transform="translate(-117.68 -72.245)" fill="#4c4a4b"/>
        <path id="Path_122453" data-name="Path 122453" d="M177.988,78.041a19.821,19.821,0,0,0-.088-2.366h1.227l.088,1.49h.088a2.212,2.212,0,0,1,2.1-1.665c.175,0,.263,0,.35.088V76.9c-.175,0-.263-.088-.438-.088a1.891,1.891,0,0,0-1.84,1.753c0,.175-.088.438-.088.613v4.031h-1.4Z" transform="translate(-119.276 -72.258)" fill="#4c4a4b"/>
        <path id="Path_122454" data-name="Path 122454" d="M190.261,79.456a3.626,3.626,0,0,1-3.768,3.943,3.572,3.572,0,0,1-3.593-3.856,3.687,3.687,0,1,1,7.361-.088Zm-5.959.088c0,1.665.964,2.892,2.278,2.892s2.278-1.227,2.278-2.892c0-1.314-.613-2.892-2.278-2.892S184.3,78.054,184.3,79.543Z" transform="translate(-119.895 -72.27)" fill="#4c4a4b"/>
        <path id="Path_122455" data-name="Path 122455" d="M193.2,82.754c0-.526.088-1.314.088-1.928V71.8H194.6v4.732h0a2.651,2.651,0,0,1,2.541-1.4c1.84,0,3.155,1.577,3.155,3.856,0,2.716-1.665,4.031-3.33,4.031a2.857,2.857,0,0,1-2.541-1.4h-.088l-.088,1.227H193.2Zm1.4-2.979a1.111,1.111,0,0,0,.088.526,2.056,2.056,0,0,0,2.015,1.577c1.4,0,2.278-1.139,2.278-2.892,0-1.49-.789-2.8-2.191-2.8a2.139,2.139,0,0,0-2.1,1.665c0,.175-.088.351-.088.526v1.4Z" transform="translate(-121.169 -71.8)" fill="#4c4a4b"/>
        <path id="Path_122456" data-name="Path 122456" d="M210.061,79.456a3.626,3.626,0,0,1-3.768,3.943,3.572,3.572,0,0,1-3.593-3.856,3.687,3.687,0,1,1,7.361-.088Zm-5.959.088c0,1.665.964,2.892,2.278,2.892s2.278-1.227,2.278-2.892c0-1.314-.613-2.892-2.278-2.892S204.1,78.054,204.1,79.543Z" transform="translate(-122.344 -72.27)" fill="#4c4a4b"/>
        <path id="Path_122457" data-name="Path 122457" d="M214.554,73.3v2.191h1.928v1.052h-1.928v4.031c0,.964.263,1.49,1.052,1.49.351,0,.613-.088.789-.088l.088,1.052a4.062,4.062,0,0,1-1.227.175,1.805,1.805,0,0,1-1.49-.613,2.978,2.978,0,0,1-.526-1.928V76.542H212.1V75.491h1.139v-1.84Z" transform="translate(-123.507 -71.986)" fill="#4c4a4b"/>
      </g>
      <path id="Path_122458" data-name="Path 122458" d="M85.5,89.868H62.367A3.1,3.1,0,0,1,59.3,86.8V63.667A3.1,3.1,0,0,1,62.367,60.6H85.5a3.1,3.1,0,0,1,3.067,3.067V86.8A3.048,3.048,0,0,1,85.5,89.868Z" transform="translate(-44.578 -35.363)" fill="#fff"/>
      <path id="Path_122459" data-name="Path 122459" d="M85.377,59.6H62.243A4.043,4.043,0,0,0,58.3,63.543V86.677a4.043,4.043,0,0,0,3.943,3.943H85.377a3.821,3.821,0,0,0,3.943-3.943V63.543A4.043,4.043,0,0,0,85.377,59.6Zm2.191,27.077a2.169,2.169,0,0,1-2.191,2.191H62.243a2.169,2.169,0,0,1-2.191-2.191V63.543a2.169,2.169,0,0,1,2.191-2.191H85.377a2.169,2.169,0,0,1,2.191,2.191Z" transform="translate(-44.455 -35.239)" fill="#b3b3b3"/>
    </g>
  </g>
</svg>
