<svg xmlns="http://www.w3.org/2000/svg" width="36.373" height="36.382" viewBox="0 0 36.373 36.382">
  <g id="service-goal" transform="translate(-216.736 -461.405)">
    <g id="Photo" transform="translate(217 461.652)">
      <rect id="base" width="36" height="36" rx="18" fill="#00ab7a" opacity="0"/>
      <g id="goals-icon" transform="translate(0.193 0.21)">
        <line id="Line_183" data-name="Line 183" x1="8.983" y2="8.985" transform="translate(15.635 10.843)" fill="none" stroke="#00846c" stroke-linecap="round" stroke-linejoin="round" stroke-width="2"/>
        <g id="Group_55995" data-name="Group 55995" transform="translate(0.543 0.543)">
          <g id="Group_55997" data-name="Group 55997">
            <path id="Path_122961" data-name="Path 122961" d="M29.432,31.487a4.579,4.579,0,1,1-2.869-2.84" transform="translate(-10.012 -13.705)" fill="none" stroke="#00846c" stroke-linecap="round" stroke-linejoin="round" stroke-width="2"/>
            <path id="Path_122962" data-name="Path 122962" d="M28.647,22.882a9.835,9.835,0,1,1-2.642-2.661" transform="translate(-5.381 -9.073)" fill="none" stroke="#00846c" stroke-linecap="round" stroke-linejoin="round" stroke-width="2"/>
            <path id="Path_122963" data-name="Path 122963" d="M51.619.75V5.465h4.714L50.75,11.05H46.036V6.334Z" transform="translate(-21.961 -0.75)" fill="none" stroke="#00846c" stroke-linecap="round" stroke-linejoin="round" stroke-width="2"/>
            <path id="Path_122964" data-name="Path 122964" d="M29.148,16.591a15.09,15.09,0,1,1-6.287-6.236" transform="translate(-0.75 -4.44)" fill="none" stroke="#00846c" stroke-linecap="round" stroke-linejoin="round" stroke-width="2"/>
          </g>
        </g>
      </g>
    </g>
  </g>
</svg>
