<svg xmlns="http://www.w3.org/2000/svg" width="40" height="40" viewBox="0 0 40 40">
  <g id="swevice-step" transform="translate(-215 -459.652)">
    <g id="Photo" transform="translate(217 461.652)">
      <rect id="base" width="40" height="40" rx="20" transform="translate(-2 -2)" fill="#00ab7a" opacity="0.2"/>
      <g id="Steps-icon" transform="translate(5.308 7.589)">
        <g id="Group_56331" data-name="Group 56331">
          <path id="Path_125001" data-name="Path 125001" d="M-11876.812,3713.553h0v-9.2l-5.282,2.3,5.282,2.351" transform="translate(11895.604 -3706.585)" fill="none" stroke="#00846c" stroke-linecap="round" stroke-linejoin="round" stroke-width="1.5"/>
          <path id="Path_125002" data-name="Path 125002" d="M-12135.627,3811.975h19.859s3.335.229,3.335-3.054-3.335-3.054-3.335-3.054h-18.34s-3.707.05-3.707-3.394,3.707-3.394,3.707-3.394h15.532" transform="translate(12137.816 -3791.539)" fill="none" stroke="#00846c" stroke-linecap="round" stroke-linejoin="round" stroke-width="1.5"/>
        </g>
        <g id="Group_56330" data-name="Group 56330" transform="translate(0.578 5.151)">
          <ellipse id="Ellipse_11266" data-name="Ellipse 11266" cx="2.376" cy="2.376" rx="2.376" ry="2.376" transform="translate(0 13.146)" fill="#00846c"/>
          <ellipse id="Ellipse_11264" data-name="Ellipse 11264" cx="2.376" cy="2.376" rx="2.376" ry="2.376" transform="translate(16.476 13.146)" fill="#00846c"/>
          <ellipse id="Ellipse_11265" data-name="Ellipse 11265" cx="2.376" cy="2.376" rx="2.376" ry="2.376" transform="translate(10.277 7.043)" fill="#00846c"/>
          <ellipse id="Ellipse_11267" data-name="Ellipse 11267" cx="2.376" cy="2.376" rx="2.376" ry="2.376" transform="translate(1.635 0)" fill="#00846c"/>
          <ellipse id="Ellipse_11263" data-name="Ellipse 11263" cx="1.944" cy="1.944" rx="1.944" ry="1.944" transform="translate(16.476 0.864)" fill="#00846c"/>
        </g>
      </g>
    </g>
  </g>
</svg>
