<svg xmlns="http://www.w3.org/2000/svg" width="19.66" height="14.507" viewBox="0 0 19.66 14.507">
  <path id="twitter" d="M14.523-10.783A7.131,7.131,0,0,0,16.187-12.5a6.651,6.651,0,0,1-1.91.514,3.308,3.308,0,0,0,1.458-1.828,6.531,6.531,0,0,1-2.105.8,3.31,3.31,0,0,0-2.424-1.048,3.316,3.316,0,0,0-3.317,3.317,3.745,3.745,0,0,0,.082.76,9.43,9.43,0,0,1-6.84-3.471A3.292,3.292,0,0,0,.678-11.78,3.315,3.315,0,0,0,2.157-9.017a3.341,3.341,0,0,1-1.5-.421V-9.4a3.318,3.318,0,0,0,2.66,3.256,3.508,3.508,0,0,1-.873.113,4.181,4.181,0,0,1-.627-.051,3.323,3.323,0,0,0,3.1,2.3A6.644,6.644,0,0,1,.8-2.361,6.866,6.866,0,0,1,0-2.4,9.375,9.375,0,0,0,5.094-.913a9.374,9.374,0,0,0,9.439-9.439C14.533-10.5,14.533-10.64,14.523-10.783Z" transform="translate(2.079 14.92)" fill="#1c614e" stroke="rgba(0,0,0,0)" stroke-miterlimit="10" stroke-width="1"/>
</svg>
