<svg xmlns="http://www.w3.org/2000/svg" width="71" height="73" viewBox="0 0 71 73">
  <g id="icon4" transform="translate(1.001 1)">
    <rect id="base" width="69" height="71" rx="6" transform="translate(-0.001 0)" fill="none" stroke="#c48145" stroke-miterlimit="10" stroke-width="2"/>
    <path id="Path_124928" data-name="Path 124928" d="M973.867,118.445l-9.954,8.311L951.4,115.427l9.945-8.8M935.038,132l-4.148,2.81a1.6,1.6,0,0,1-2.092-2.394l10.635-9.981a17.781,17.781,0,0,1,8.26-4.379l5.292-1.191m8.774,7.943c-2.371,4.82-8.539,6.516-13.965,5.216l-1.123-.269-8.917,3.4a2,2,0,1,1-1.429-3.734l12.77-4.871m-10.4,8.438a5.155,5.155,0,1,1-6.861,1.238m10.271,11.165H929.589m21.627,4.546H920.483m0,5.683V142.558a1.717,1.717,0,0,1,1.718-1.716h5.112m17.074,0H949.5a1.717,1.717,0,0,1,1.719,1.716v13.059" transform="translate(-912.212 -95.622)" fill="none" stroke="#c48145" stroke-miterlimit="10" stroke-width="2"/>
  </g>
</svg>
