<svg xmlns="http://www.w3.org/2000/svg" width="71" height="73" viewBox="0 0 71 73">
  <g id="icon3" transform="translate(1.001 1)">
    <rect id="base" width="69" height="71" rx="6" transform="translate(-0.001 0)" fill="none" stroke="#c48145" stroke-miterlimit="10" stroke-width="2"/>
    <g id="Group_56285" data-name="Group 56285" transform="translate(19866.691 4953.837)">
      <line id="Line_210" data-name="Line 210" y2="44.048" transform="translate(-19832.193 -4939.898)" fill="none" stroke="#c48145" stroke-linecap="round" stroke-linejoin="round" stroke-width="2"/>
      <path id="Path_123021" data-name="Path 123021" d="M635.54,134.52l-22.733-6.394-22.733,6.394" transform="translate(-20445 -5055)" fill="none" stroke="#c48145" stroke-linecap="round" stroke-linejoin="round" stroke-width="2"/>
      <path id="Path_123022" data-name="Path 123022" d="M635.54,128.126l-22.733-6.394-22.733,6.394" transform="translate(-20445 -5055)" fill="none" stroke="#c48145" stroke-linecap="round" stroke-linejoin="round" stroke-width="2"/>
      <line id="Line_211" data-name="Line 211" x2="52.842" transform="translate(-19858.613 -4895.85)" fill="none" stroke="#c48145" stroke-linecap="round" stroke-linejoin="round" stroke-width="2"/>
      <path id="Path_123023" data-name="Path 123023" d="M635.454,157.891V120.546l-22.647-6.37-22.646,6.37v37.345" transform="translate(-20445 -5055)" fill="none" stroke="#c48145" stroke-linecap="round" stroke-linejoin="round" stroke-width="2"/>
      <path id="Path_123024" data-name="Path 123024" d="M590.074,144.389s2.452,6.593,11.367,6.593,11.366-6.593,11.366-6.593,4.1,6.593,11.367,6.593,11.366-6.593,11.366-6.593" transform="translate(-20445 -5055)" fill="none" stroke="#c48145" stroke-linecap="round" stroke-linejoin="round" stroke-width="2"/>
    </g>
  </g>
</svg>
