<svg xmlns="http://www.w3.org/2000/svg" width="71" height="73" viewBox="0 0 71 73">
  <g id="icon10" transform="translate(1 1)">
    <rect id="base" width="69" height="71" rx="6" fill="none" stroke="#c48145" stroke-miterlimit="10" stroke-width="2"/>
    <g id="Group_56288" data-name="Group 56288" transform="translate(19639.945 4745.885)">
      <path id="Path_123345" data-name="Path 123345" d="M828.276,338.848h-5.764a6.919,6.919,0,0,1,0-13.838h38.044" transform="translate(-20445.25 -5055)" fill="none" stroke="#c48145" stroke-linecap="round" stroke-linejoin="round" stroke-width="2"/>
      <line id="Line_461" data-name="Line 461" y2="6.92" transform="translate(-19619.279 -4701.16)" fill="none" stroke="#c48145" stroke-linecap="round" stroke-linejoin="round" stroke-width="2"/>
      <line id="Line_462" data-name="Line 462" y2="6.92" transform="translate(-19623.889 -4701.16)" fill="none" stroke="#c48145" stroke-linecap="round" stroke-linejoin="round" stroke-width="2"/>
      <line id="Line_463" data-name="Line 463" y2="4.613" transform="translate(-19613.514 -4712.691)" fill="none" stroke="#c48145" stroke-linecap="round" stroke-linejoin="round" stroke-width="2"/>
      <path id="Path_123346" data-name="Path 123346" d="M865.568,348.6a1.153,1.153,0,1,1-1.153-1.154A1.153,1.153,0,0,1,865.568,348.6Z" transform="translate(-20453.719 -5058.987)" fill="none" stroke="#c48145" stroke-linecap="round" stroke-linejoin="round" stroke-width="2"/>
      <line id="Line_464" data-name="Line 464" y2="13.838" transform="translate(-19589.305 -4704.619)" fill="none" stroke="#c48145" stroke-linecap="round" stroke-linejoin="round" stroke-width="2"/>
      <path id="Rectangle_14011" data-name="Rectangle 14011" d="M2.8,0H47.921a2.8,2.8,0,0,1,2.8,2.8v8.229a2.805,2.805,0,0,1-2.805,2.805H2.8a2.8,2.8,0,0,1-2.8-2.8V2.8A2.8,2.8,0,0,1,2.8,0Z" transform="translate(-19630.807 -4704.619)" fill="none" stroke="#c48145" stroke-linecap="round" stroke-linejoin="round" stroke-width="2"/>
      <path id="Path_123347" data-name="Path 123347" d="M852.35,341.839H830.519a2.306,2.306,0,0,0-2.306,2.307v6.92a2.306,2.306,0,0,0,2.306,2.307h33.432a2.307,2.307,0,0,0,2.306-2.307v-6.92a2.307,2.307,0,0,0-2.306-2.307h-6.917" transform="translate(-20447.492 -5057.991)" fill="none" stroke="#c48145" stroke-linecap="round" stroke-linejoin="round" stroke-width="2"/>
      <line id="Line_465" data-name="Line 465" y2="13.838" transform="translate(-19587 -4729.99)" fill="none" stroke="#c48145" stroke-linecap="round" stroke-linejoin="round" stroke-width="2"/>
      <line id="Line_466" data-name="Line 466" x1="33.432" transform="translate(-19620.432 -4723.07)" fill="none" stroke="#c48145" stroke-linecap="round" stroke-linejoin="round" stroke-width="2"/>
    </g>
  </g>
</svg>
