<svg xmlns="http://www.w3.org/2000/svg" width="71" height="73" viewBox="0 0 71 73">
  <g id="icon9" transform="translate(1 1)">
    <rect id="base" width="69" height="71" rx="6" fill="none" stroke="#c48145" stroke-miterlimit="10" stroke-width="2"/>
    <path id="Path_124931" data-name="Path 124931" d="M498.982,539.248v9.232m-3.248,35.758v-2.167m-20.57,2.167v-2.167m9.744-4.335v6.5m-7.579-16.253H491.4m7.579-28.737-14.075-4.855-14.075,4.855,14.075,5.03Zm-22.736,2.73V546.8s1.579,3.811,8.661,3.811,8.661-3.811,8.661-3.811v-4.825M466.5,584.238v-6.453a9.675,9.675,0,0,1,9.545-9.8H477.4l7.506,9.752m3.248-3.705,4.258-6.047h1.354a9.676,9.676,0,0,1,9.546,9.8v6.453M476.246,546.8v6.01c0,5.833,4.794,10.836,8.661,10.836s8.661-5,8.661-10.836" transform="translate(-451.716 -523.999)" fill="none" stroke="#c48145" stroke-miterlimit="10" stroke-width="2"/>
  </g>
</svg>
