<svg xmlns="http://www.w3.org/2000/svg" width="71" height="73" viewBox="0 0 71 73">
  <g id="icon6" transform="translate(1 1)">
    <rect id="base" width="69" height="71" rx="6" transform="translate(0 0)" fill="none" stroke="#c48145" stroke-miterlimit="10" stroke-width="2"/>
    <path id="Path_124930" data-name="Path 124930" d="M602.477,561.249c4.384-1.878,4.864-5.843,5.341-9.737a10.658,10.658,0,0,0-.678-6.3,7.827,7.827,0,0,0-4.5-3.62,10.305,10.305,0,0,0-6.539,0,7.827,7.827,0,0,0-4.5,3.62,10.659,10.659,0,0,0-.678,6.3c.477,3.895.958,7.86,5.341,9.737m-10.551,6.227,7.186-2.151c.809,1.617,3.236,3.235,6.471,3.235s5.662-1.617,6.471-3.235l6.5,2.073m-7.663-7.518c-.022.51-.456,3.826,1.179,5.445m-12-5.635c.023.548.662,4.017-.956,5.635m7.619,12.72,13.792-5.983a3.235,3.235,0,1,1,2.476,5.978L602.494,584.9a8.093,8.093,0,0,1-3.156.64H586.174a3.228,3.228,0,0,0-1.64.447l-3.812,2.241m8.943-9.967,9.7-.005a3.232,3.232,0,1,0,0-6.464H586.775a7.279,7.279,0,0,0-3.66.987l-8.837,5.14m4.063,13.283,3.236-1.617-8.092-12.935-4.85,2.421" transform="translate(-559.208 -530.634)" fill="none" stroke="#c48145" stroke-miterlimit="10" stroke-width="2"/>
  </g>
</svg>
