<svg xmlns="http://www.w3.org/2000/svg" width="71" height="73" viewBox="0 0 71 73">
  <g id="iconMan" transform="translate(1.501 1)">
    <rect id="base" width="69" height="71" rx="6" transform="translate(-0.501 0)" fill="none" stroke="#c48145" stroke-miterlimit="10" stroke-width="2"/>
    <path id="Path_124927" data-name="Path 124927" d="M717.881,448.85a4.546,4.546,0,0,0,4.743-4.741v-2.371a4.742,4.742,0,0,0-9.484,0v2.371A4.545,4.545,0,0,0,717.881,448.85Zm0,21.338v16.6m-5.927-27.266v27.266m11.855,0V459.519m-11.855,11.855a5,5,0,0,1-4.742-4.741v-8.3c0-3.915,6.551-5.927,10.669-5.927m5.929,18.967a5,5,0,0,0,4.741-4.741v-8.3c0-3.915-6.551-5.927-10.67-5.927m-22.545.612c-1.255-1.884-1.67-4.629-.37-8.66,4.891,1.578,7.17,6.179,5.288,12.015m-6.107,6.741c-1.857-1.29-3.252-3.685-3.532-7.9,5.128-.341,8.945,3.092,9.353,9.21m7.246,15.24c-2.857,1.774-6.607,2.073-11.1-2.628,3.152-3.011,7.321-3.335,11.1-.66m-11.382-3.815c-1.752-.72-3.072-2.388-4.658-5.258,4.258-2.5,8.92-1.011,11.951,4.316m37.3-18.6c1.255-1.884,1.67-4.629.369-8.66-4.89,1.578-7.17,6.179-5.287,12.015m6.107,6.741c1.857-1.29,3.252-3.685,3.532-7.9-5.128-.341-8.945,3.092-9.353,9.21m-7.242,15.242c2.856,1.772,6.6,2.069,11.095-2.63-3.152-3.011-7.321-3.335-11.1-.659m11.384-3.816c1.751-.72,3.071-2.388,4.657-5.258-4.258-2.5-8.921-1.011-11.951,4.316" transform="translate(-684.114 -426.39)" fill="none" stroke="#c48145" stroke-miterlimit="10" stroke-width="2.126"/>
  </g>
</svg>
