<svg xmlns="http://www.w3.org/2000/svg" width="71.693" height="94.749" viewBox="0 0 71.693 94.749">
  <g id="Activities-icon" transform="translate(-7.045 -5609.971)">
    <g id="Path_318" data-name="Path 318" transform="translate(-3305.785 5609.981)" fill="none">
      <path d="M3366.232,10.572C3353.185,5.727,3348.677-.01,3348.677-.01s-4.509,5.737-17.555,10.582c-9.317,3.462-18.292,9.529-18.292,26.456V57.7c0,16.928,8.975,23,18.292,26.456,13.046,4.847,17.555,10.582,17.555,10.582s4.509-5.736,17.556-10.582c9.316-3.46,18.291-9.528,18.291-26.456V37.028c0-16.927-8.975-22.994-18.291-26.456Z" stroke="none"/>
      <path d="M 3348.676513671875 4.1986083984375 C 3348.095703125 4.701866149902344 3347.398681640625 5.267112731933594 3346.575439453125 5.876113891601562 C 3342.688720703125 8.750869750976562 3337.8408203125 11.27713012695312 3332.166748046875 13.38457489013672 C 3329.705810546875 14.29892730712891 3327.65673828125 15.26676177978516 3325.90185546875 16.34337615966797 C 3323.841796875 17.60725402832031 3322.166748046875 19.02523803710938 3320.78076171875 20.6783447265625 C 3317.44921875 24.65202331542969 3315.829833984375 30.00005340576172 3315.829833984375 37.02804946899414 L 3315.829833984375 57.70111465454102 C 3315.829833984375 64.72971343994141 3317.449462890625 70.07807922363281 3320.781005859375 74.0518798828125 C 3322.1669921875 75.70501708984375 3323.842041015625 77.12289428710938 3325.90185546875 78.38655853271484 C 3327.65673828125 79.46306610107422 3329.705810546875 80.43058776855469 3332.16650390625 81.34452819824219 C 3337.841064453125 83.45259094238281 3342.688720703125 85.97895812988281 3346.5751953125 88.85343933105469 C 3347.398681640625 89.46237182617188 3348.095703125 90.02766418457031 3348.676513671875 90.53085327148438 C 3349.25732421875 90.02765655517578 3349.954345703125 89.46234893798828 3350.77783203125 88.85340881347656 C 3354.66455078125 85.97892761230469 3359.5126953125 83.45256042480469 3365.1875 81.34446716308594 C 3367.647705078125 80.43061828613281 3369.69677734375 79.46308135986328 3371.451416015625 78.38660430908203 C 3373.51123046875 77.1229248046875 3375.186279296875 75.70503234863281 3376.572021484375 74.05191040039062 C 3379.903564453125 70.07804870605469 3381.523193359375 64.72966766357422 3381.523193359375 57.70111465454102 L 3381.523193359375 37.02804946899414 C 3381.523193359375 30.00017547607422 3379.903564453125 24.65213012695312 3376.572021484375 20.67832946777344 C 3375.186279296875 19.02522277832031 3373.51123046875 17.60722351074219 3371.451171875 16.34331512451172 C 3369.696533203125 15.26673126220703 3367.647705078125 14.29889678955078 3365.187744140625 13.38474273681641 C 3359.5126953125 11.27716064453125 3354.66455078125 8.75091552734375 3350.77783203125 5.876144409179688 C 3349.954345703125 5.267135620117188 3349.25732421875 4.701881408691406 3348.676513671875 4.1986083984375 M 3348.676513671875 -0.0099945068359375 C 3348.676513671875 -0.0099945068359375 3353.18505859375 5.727035522460938 3366.232177734375 10.57241821289062 C 3375.5478515625 14.03433990478516 3384.523193359375 20.10131072998047 3384.523193359375 37.02804946899414 L 3384.523193359375 57.70111465454102 C 3384.523193359375 74.62906646728516 3375.5478515625 80.69643402099609 3366.232177734375 84.15673065185547 C 3353.18505859375 89.00334167480469 3348.676513671875 94.73914337158203 3348.676513671875 94.73914337158203 C 3348.676513671875 94.73914337158203 3344.167724609375 89.00334167480469 3331.121826171875 84.15673065185547 C 3321.80517578125 80.69644927978516 3312.829833984375 74.62906646728516 3312.829833984375 57.70111465454102 L 3312.829833984375 37.02804946899414 C 3312.829833984375 20.10131072998047 3321.8046875 14.03436279296875 3331.121826171875 10.57241821289062 C 3344.167724609375 5.727035522460938 3348.676513671875 -0.0099945068359375 3348.676513671875 -0.0099945068359375 Z" stroke="none" fill="#00846c"/>
    </g>
    <g id="Group_56755" data-name="Group 56755" transform="translate(20343.754 10256.308)">
      <path id="Path_123261" data-name="Path 123261" d="M164.941,448.748a4.934,4.934,0,1,1-4.933-4.936A4.935,4.935,0,0,1,164.941,448.748Z" transform="translate(-20451.295 -5057.354)" fill="none" stroke="#00846c" stroke-linecap="round" stroke-linejoin="round" stroke-width="2.13"/>
      <path id="Path_123262" data-name="Path 123262" d="M163.4,458.835a13.28,13.28,0,0,0,1.983-1.025l2.519,2.173,3.959-3.98-2.184-2.509a13.389,13.389,0,0,0,1.677-4.088l3.32-.246-.014-5.615-3.321-.229a13.389,13.389,0,0,0-1.7-4.079l2.172-2.52-3.979-3.96-2.507,2.185a13.381,13.381,0,0,0-4.087-1.678l-.246-3.321-5.613.014-.229,3.323a13.379,13.379,0,0,0-4.077,1.7l-2.519-2.173-3.959,3.98,2.184,2.509a13.319,13.319,0,0,0-1.014,1.989" transform="translate(-20449.516 -5055)" fill="none" stroke="#00846c" stroke-linecap="round" stroke-linejoin="round" stroke-width="2.13"/>
      <path id="Path_123263" data-name="Path 123263" d="M130.762,458.8a4.483,4.483,0,1,1,5.935,5.726" transform="translate(-20447.168 -5059.407)" fill="none" stroke="#00846c" stroke-linecap="round" stroke-linejoin="round" stroke-width="2.13"/>
      <path id="Path_123264" data-name="Path 123264" d="M147.461,455.8l-2.978-.205a11.991,11.991,0,0,0-1.522-3.657l1.947-2.259-3.568-3.551-2.248,1.959a12.009,12.009,0,0,0-3.664-1.5l-.22-2.978-5.033.013-.205,2.979a12,12,0,0,0-3.656,1.523l-2.258-1.948-3.549,3.568,1.959,2.25a12.011,12.011,0,0,0-1.5,3.665l-2.976.22.012,5.035,2.978.205" transform="translate(-20445 -5057.32)" fill="none" stroke="#00846c" stroke-linecap="round" stroke-linejoin="round" stroke-width="2.13"/>
      <line id="Line_391" data-name="Line 391" y1="7.241" x2="2.61" transform="translate(-20318.129 -4580.107)" fill="none" stroke="#00846c" stroke-linecap="round" stroke-linejoin="round" stroke-width="2.13"/>
      <path id="Path_123265" data-name="Path 123265" d="M117.984,490.252l3.065-8.844c.786-2.218,1.711-3.637,5.3-3.637h12.476s-.8,4.2-4.669,4.67l-7.745.943" transform="translate(-20445 -5063.119)" fill="none" stroke="#00846c" stroke-linecap="round" stroke-linejoin="round" stroke-width="2.13"/>
      <path id="Path_123266" data-name="Path 123266" d="M131.9,468.077a3.97,3.97,0,1,1-3.97-3.971A3.97,3.97,0,0,1,131.9,468.077Z" transform="translate(-20446.014 -5060.799)" fill="none" stroke="#00846c" stroke-linecap="round" stroke-linejoin="round" stroke-width="2.13"/>
      <line id="Line_392" data-name="Line 392" x1="2.255" y1="11.279" transform="translate(-20297.607 -4584.146)" fill="none" stroke="#00846c" stroke-linecap="round" stroke-linejoin="round" stroke-width="2.13"/>
      <path id="Path_123267" data-name="Path 123267" d="M164.064,488.079l-2.651-12.373c-.438-2.048-1.886-3.086-4.155-3.511l-6.8-1.135-6.746-6.092s-2.237,3.823.239,6.164l4.866,4.816,7.438,2.275" transform="translate(-20449.209 -5060.945)" fill="none" stroke="#00846c" stroke-linecap="round" stroke-linejoin="round" stroke-width="2.13"/>
      <circle id="Ellipse_11169" data-name="Ellipse 11169" cx="3.969" cy="3.969" r="3.969" transform="translate(-20296.488 -4600.096)" fill="none" stroke="#00846c" stroke-linecap="round" stroke-linejoin="round" stroke-width="2.13"/>
    </g>
  </g>
</svg>
