<svg id="AppleStore" xmlns="http://www.w3.org/2000/svg" width="25.427" height="31.363" viewBox="0 0 25.427 31.363">
  <g id="Group_48672" data-name="Group 48672">
    <path id="Path_616" data-name="Path 616" d="M73.779,141.746a.655.655,0,0,0-.461-.289,4.465,4.465,0,0,1-.764-8.715.64.64,0,0,0,.352-.96A7.624,7.624,0,0,0,67.4,128a10.9,10.9,0,0,0-3.422.723,8.364,8.364,0,0,1-2.458.565,8.364,8.364,0,0,1-2.458-.565A10.9,10.9,0,0,0,55.643,128c-2.44,0-7.187,3.409-7.187,9.659,0,5.94,4.4,13.523,7.841,13.523a8.44,8.44,0,0,0,3.79-.86,2.63,2.63,0,0,1,2.875,0,8.439,8.439,0,0,0,3.79.86c2.731,0,5.814-4.621,7.105-8.9A.637.637,0,0,0,73.779,141.746Z" transform="translate(-48.456 -119.819)" fill="#b4ddc0"/>
    <path id="Path_617" data-name="Path 617" d="M241.137,8.18a7.507,7.507,0,0,0,7.5-7.5A.682.682,0,0,0,247.954,0a7.507,7.507,0,0,0-7.5,7.5A.682.682,0,0,0,241.137,8.18Z" transform="translate(-228.921 0)" fill="#b4ddc0"/>
  </g>
</svg>
