<svg xmlns="http://www.w3.org/2000/svg" xmlns:xlink="http://www.w3.org/1999/xlink" width="119.031" height="530.996" viewBox="0 0 119.031 530.996">
  <defs>
    <clipPath id="clip-path">
      <rect id="Rectangle_14030" data-name="Rectangle 14030" width="530.996" height="119.031" transform="translate(4)" fill="none"/>
    </clipPath>
  </defs>
  <g id="ArtShape-colored" transform="translate(113.693 -4) rotate(90)">
    <g id="Group_56109" data-name="Group 56109" transform="translate(0 -5.338)" clip-path="url(#clip-path)">
      <path id="Path_124367" data-name="Path 124367" d="M8.089,4.85A42.319,42.319,0,0,0,17.815,0a40.7,40.7,0,0,0,9.746,4.85c5.247,1.949,8.089,4.4,8.089,11.735V28.143c0-7.338-2.842-9.785-8.089-11.735a40.657,40.657,0,0,1-9.746-4.85,42.27,42.27,0,0,1-9.726,4.85C2.843,18.358,0,20.8,0,28.143V16.585C0,9.246,2.843,6.8,8.089,4.85" transform="translate(281.446 -0.001) rotate(90)" fill="#afdedf"/>
      <path id="Path_124368" data-name="Path 124368" d="M27.561,23.291a42.367,42.367,0,0,0-9.726,4.85,40.747,40.747,0,0,0-9.746-4.85C2.842,21.342,0,18.9,0,11.557V0C0,7.338,2.842,9.785,8.089,11.735a40.657,40.657,0,0,1,9.746,4.85,42.221,42.221,0,0,1,9.726-4.85C32.806,9.785,35.649,7.338,35.649,0V11.557c0,7.34-2.843,9.785-8.089,11.735" transform="translate(245.796 41.054) rotate(90)" fill="#d2cd6e"/>
      <path id="Path_124369" data-name="Path 124369" d="M8.089,4.85A42.318,42.318,0,0,0,17.815,0a40.7,40.7,0,0,0,9.746,4.85c5.247,1.949,8.089,4.4,8.089,11.735V28.143c0-7.338-2.842-9.785-8.089-11.735a40.658,40.658,0,0,1-9.746-4.85,42.27,42.27,0,0,1-9.726,4.85C2.843,18.358,0,20.8,0,28.143V16.585C0,9.246,2.843,6.8,8.089,4.85" transform="translate(352.746 0) rotate(90)" fill="#d2cd6e"/>
      <path id="Path_124386" data-name="Path 124386" d="M8.089,4.85A42.319,42.319,0,0,0,17.815,0a40.7,40.7,0,0,0,9.746,4.85c5.247,1.949,8.089,4.4,8.089,11.735V28.143c0-7.338-2.842-9.785-8.089-11.735a40.658,40.658,0,0,1-9.746-4.85,42.27,42.27,0,0,1-9.726,4.85C2.843,18.358,0,20.8,0,28.143V16.585C0,9.246,2.843,6.8,8.089,4.85" transform="translate(424.046 -0.001) rotate(90)" fill="#ffe074"/>
      <path id="Path_124387" data-name="Path 124387" d="M27.561,4.85A42.319,42.319,0,0,1,17.835,0,40.7,40.7,0,0,1,8.089,4.85C2.842,6.8,0,9.246,0,16.585V28.143C0,20.8,2.842,18.358,8.089,16.409a40.658,40.658,0,0,0,9.746-4.85,42.271,42.271,0,0,0,9.726,4.85c5.246,1.949,8.089,4.4,8.089,11.735V16.585c0-7.338-2.843-9.785-8.089-11.735" transform="translate(495.347 0.001) rotate(90)" fill="#99d1bd"/>
      <path id="Path_124385" data-name="Path 124385" d="M8.089,23.293a42.32,42.32,0,0,1,9.726,4.85,40.7,40.7,0,0,1,9.746-4.85c5.247-1.949,8.089-4.4,8.089-11.735V0c0,7.338-2.842,9.785-8.089,11.734a40.659,40.659,0,0,0-9.746,4.85,42.272,42.272,0,0,0-9.726-4.85C2.843,9.785,0,7.338,0,0V11.558C0,18.9,2.843,21.343,8.089,23.293" transform="translate(324.603 117.557) rotate(-90)" fill="#f4c173"/>
      <path id="Path_124370" data-name="Path 124370" d="M27.561,23.291a42.366,42.366,0,0,0-9.726,4.85,40.748,40.748,0,0,0-9.746-4.85C2.842,21.342,0,18.9,0,11.557V0C0,7.338,2.842,9.785,8.089,11.735a40.658,40.658,0,0,1,9.746,4.85,42.22,42.22,0,0,1,9.726-4.85C32.806,9.785,35.649,7.338,35.649,0V11.557c0,7.34-2.843,9.785-8.089,11.735" transform="translate(317.096 41.054) rotate(90)" fill="#afdedf"/>
      <path id="Path_124388" data-name="Path 124388" d="M27.561,23.291a42.366,42.366,0,0,0-9.726,4.85,40.748,40.748,0,0,0-9.746-4.85C2.842,21.342,0,18.9,0,11.557V0C0,7.338,2.842,9.785,8.089,11.735a40.658,40.658,0,0,1,9.746,4.85,42.22,42.22,0,0,1,9.726-4.85C32.806,9.785,35.649,7.338,35.649,0V11.557c0,7.34-2.843,9.785-8.089,11.735" transform="translate(530.996 41.054) rotate(90)" fill="#afdedf"/>
      <path id="Path_124371" data-name="Path 124371" d="M27.561,23.291a42.366,42.366,0,0,0-9.726,4.85,40.746,40.746,0,0,0-9.746-4.85C2.842,21.342,0,18.9,0,11.557V0C0,7.338,2.842,9.785,8.089,11.735a40.656,40.656,0,0,1,9.746,4.85,42.221,42.221,0,0,1,9.726-4.85C32.806,9.785,35.649,7.338,35.649,0V11.557c0,7.34-2.843,9.785-8.089,11.735" transform="translate(388.396 41.054) rotate(90)" fill="#3c9963"/>
      <path id="Path_124372" data-name="Path 124372" d="M27.561,23.291a42.366,42.366,0,0,0-9.726,4.85,40.748,40.748,0,0,0-9.746-4.85C2.842,21.342,0,18.9,0,11.557V0C0,7.338,2.842,9.785,8.089,11.735a40.658,40.658,0,0,1,9.746,4.85,42.221,42.221,0,0,1,9.726-4.85C32.806,9.785,35.65,7.338,35.65,0V11.557c0,7.34-2.843,9.785-8.089,11.735" transform="translate(459.696 41.054) rotate(90)" fill="#99d1bd"/>
      <path id="Path_124373" data-name="Path 124373" d="M8.089,4.85A42.319,42.319,0,0,0,17.815,0a40.7,40.7,0,0,0,9.746,4.85c5.247,1.949,8.089,4.4,8.089,11.735V28.143c0-7.338-2.842-9.785-8.089-11.735a40.657,40.657,0,0,1-9.746-4.85,42.27,42.27,0,0,1-9.726,4.85C2.843,18.358,0,20.8,0,28.143V16.585C0,9.246,2.843,6.8,8.089,4.85" transform="translate(210.147 -0.001) rotate(90)" fill="#3c9963"/>
      <path id="Path_124374" data-name="Path 124374" d="M27.561,23.291a42.367,42.367,0,0,0-9.726,4.85,40.747,40.747,0,0,0-9.746-4.85C2.842,21.342,0,18.9,0,11.557V0C0,7.338,2.842,9.785,8.089,11.735a40.657,40.657,0,0,1,9.746,4.85,42.221,42.221,0,0,1,9.726-4.85C32.806,9.785,35.649,7.338,35.649,0V11.557c0,7.34-2.843,9.785-8.089,11.735" transform="translate(174.496 41.054) rotate(90)" fill="#ffe074"/>
      <path id="Path_124375" data-name="Path 124375" d="M8.089,4.85A42.319,42.319,0,0,0,17.815,0a40.7,40.7,0,0,0,9.746,4.85c5.247,1.949,8.089,4.4,8.089,11.735V28.143c0-7.338-2.842-9.785-8.089-11.735a40.657,40.657,0,0,1-9.746-4.85,42.27,42.27,0,0,1-9.726,4.85C2.843,18.358,0,20.8,0,28.143V16.585C0,9.246,2.843,6.8,8.089,4.85" transform="translate(138.847 -0.001) rotate(90)" fill="#99d1bd"/>
      <path id="Path_124376" data-name="Path 124376" d="M27.561,23.291a42.366,42.366,0,0,0-9.726,4.85,40.747,40.747,0,0,0-9.746-4.85C2.842,21.342,0,18.9,0,11.557V0C0,7.338,2.842,9.785,8.089,11.735a40.657,40.657,0,0,1,9.746,4.85,42.221,42.221,0,0,1,9.726-4.85C32.806,9.785,35.649,7.338,35.649,0V11.557c0,7.34-2.843,9.785-8.089,11.735" transform="translate(103.196 41.054) rotate(90)" fill="#f4c173"/>
      <path id="Path_124377" data-name="Path 124377" d="M8.089,4.85A42.319,42.319,0,0,0,17.816,0a40.7,40.7,0,0,0,9.746,4.85c5.247,1.949,8.089,4.4,8.089,11.735V28.143c0-7.338-2.842-9.785-8.089-11.735a40.658,40.658,0,0,1-9.746-4.85,42.271,42.271,0,0,1-9.726,4.85C2.843,18.358,0,20.8,0,28.143V16.585C0,9.246,2.843,6.8,8.089,4.85" transform="translate(67.547 0) rotate(90)" fill="#7f9486" opacity="0"/>
      <path id="Path_124378" data-name="Path 124378" d="M27.561,23.291a42.366,42.366,0,0,0-9.726,4.85,40.747,40.747,0,0,0-9.746-4.85C2.842,21.342,0,18.9,0,11.557V0C0,7.338,2.842,9.785,8.089,11.735a40.657,40.657,0,0,1,9.746,4.85,42.221,42.221,0,0,1,9.726-4.85C32.806,9.785,35.649,7.338,35.649,0V11.557c0,7.34-2.843,9.785-8.089,11.735" transform="translate(31.896 41.054) rotate(90)" fill="#df8e42"/>
      <path id="Path_124379" data-name="Path 124379" d="M8.089,23.291a42.416,42.416,0,0,1,9.726,4.85,40.793,40.793,0,0,1,9.746-4.85c5.247-1.948,8.089-4.395,8.089-11.733V0c0,7.338-2.842,9.785-8.089,11.735a40.706,40.706,0,0,0-9.746,4.849,42.266,42.266,0,0,0-9.726-4.849C2.843,9.785,0,7.338,0,0V11.558C0,18.9,2.843,21.344,8.089,23.291" transform="translate(253.303 117.597) rotate(-90)" fill="#d2cd6e"/>
      <path id="Path_124380" data-name="Path 124380" d="M8.089,23.291a42.415,42.415,0,0,1,9.726,4.85,40.794,40.794,0,0,1,9.746-4.85c5.247-1.948,8.089-4.395,8.089-11.733V0c0,7.338-2.842,9.785-8.089,11.735a40.706,40.706,0,0,0-9.746,4.849,42.265,42.265,0,0,0-9.726-4.849C2.843,9.785,0,7.338,0,0V11.558C0,18.9,2.843,21.344,8.089,23.291" transform="translate(395.902 117.556) rotate(-90)" fill="#df8e42"/>
      <path id="Path_124381" data-name="Path 124381" d="M8.089,23.291a42.415,42.415,0,0,1,9.726,4.85,40.792,40.792,0,0,1,9.745-4.85c5.247-1.948,8.089-4.395,8.089-11.733V0c0,7.338-2.842,9.785-8.089,11.735a40.7,40.7,0,0,0-9.745,4.849,42.265,42.265,0,0,0-9.726-4.849C2.843,9.785,0,7.338,0,0V11.558C0,18.9,2.843,21.344,8.089,23.291" transform="translate(467.206 117.597) rotate(-90)" fill="#7f9486" opacity="0"/>
      <path id="Path_124382" data-name="Path 124382" d="M8.089,23.291a42.416,42.416,0,0,1,9.726,4.85,40.793,40.793,0,0,1,9.746-4.85c5.247-1.948,8.089-4.395,8.089-11.733V0c0,7.338-2.842,9.785-8.089,11.735a40.705,40.705,0,0,0-9.746,4.849,42.266,42.266,0,0,0-9.726-4.849C2.843,9.785,0,7.338,0,0V11.558C0,18.9,2.843,21.344,8.089,23.291" transform="translate(182.005 117.597) rotate(-90)" fill="#df8e42"/>
      <path id="Path_124383" data-name="Path 124383" d="M8.089,23.291a42.416,42.416,0,0,1,9.726,4.85,40.793,40.793,0,0,1,9.746-4.85c5.247-1.948,8.089-4.395,8.089-11.733V0c0,7.338-2.842,9.785-8.089,11.735a40.706,40.706,0,0,0-9.746,4.849,42.266,42.266,0,0,0-9.726-4.849C2.843,9.785,0,7.338,0,0V11.558C0,18.9,2.843,21.344,8.089,23.291" transform="translate(110.704 117.597) rotate(-90)" fill="#f4c173"/>
      <path id="Path_124384" data-name="Path 124384" d="M8.089,23.291a42.417,42.417,0,0,1,9.726,4.85,40.793,40.793,0,0,1,9.746-4.85c5.247-1.948,8.089-4.395,8.089-11.733V0c0,7.338-2.842,9.785-8.089,11.735a40.706,40.706,0,0,0-9.746,4.849,42.267,42.267,0,0,0-9.726-4.849C2.843,9.785,0,7.338,0,0V11.558C0,18.9,2.843,21.344,8.089,23.291" transform="translate(39.405 117.597) rotate(-90)" fill="#ffe074"/>
    </g>
  </g>
</svg>
