<svg id="awqaaf-main-slider-2" data-name="awqaaf-main-slider" xmlns="http://www.w3.org/2000/svg" xmlns:xlink="http://www.w3.org/1999/xlink" width="198.5" height="144.274" viewBox="0 0 198.5 144.274">
  <defs>
    <clipPath id="clip-path">
      <rect id="awqaaf-main-slider" width="198.5" height="144.274" fill="none"/>
    </clipPath>
  </defs>
  <g id="Group_56105" data-name="Group 56105" transform="translate(0 0)" clip-path="url(#clip-path)">
    <path id="Path_124341" data-name="Path 124341" d="M28.014,17.357a4.928,4.928,0,0,0,3.512-1.327A4.594,4.594,0,0,0,32.9,12.646a4.7,4.7,0,0,0-1.371-3.47,4.936,4.936,0,0,0-3.512-1.327,4.624,4.624,0,0,0-3.341,1.327,4.789,4.789,0,0,0-1.371,3.47,4.61,4.61,0,0,0,4.712,4.711" transform="translate(16.098 5.422)" fill="#fff"/>
    <path id="Path_124342" data-name="Path 124342" d="M67.916,17.357a4.924,4.924,0,0,0,3.51-1.327A4.594,4.594,0,0,0,72.8,12.646a4.7,4.7,0,0,0-1.371-3.47,4.932,4.932,0,0,0-3.51-1.327,4.624,4.624,0,0,0-3.341,1.327,4.782,4.782,0,0,0-1.371,3.47,4.61,4.61,0,0,0,4.712,4.711" transform="translate(43.665 5.422)" fill="#fff"/>
    <path id="Path_124343" data-name="Path 124343" d="M73.947,17.357a4.938,4.938,0,0,0,3.514-1.327,4.607,4.607,0,0,0,1.371-3.383,4.712,4.712,0,0,0-1.371-3.47,4.945,4.945,0,0,0-3.514-1.327,4.624,4.624,0,0,0-3.341,1.327,4.782,4.782,0,0,0-1.371,3.47,4.61,4.61,0,0,0,4.712,4.711" transform="translate(47.832 5.422)" fill="#fff"/>
    <path id="Path_124344" data-name="Path 124344" d="M111.141,55.826H94.476V45.509q0-6.171,3.9-9.6a12.66,12.66,0,0,1,2.658-1.726,19.276,19.276,0,0,1,4.711-1.593l5.4-1.135Zm9.142-38.1c-1.26.781-5.529,2.935-17.453,5.511a23.222,23.222,0,0,0-11.822,6.124q-6.13,6.123-6.124,15.933V65.041a.333.333,0,0,0,.333.335h25.966a9.493,9.493,0,0,1-9.494,9.494H85.92a.243.243,0,0,0-.225.335l3.6,8.806a.718.718,0,0,0,.671.451l11.768-.022a19.039,19.039,0,0,0,19-19.039V17.986a.3.3,0,0,0-.453-.26" transform="translate(58.643 12.215)" fill="#fff"/>
    <path id="Path_124345" data-name="Path 124345" d="M94.966,62.624H78.3V52.307q0-6.171,3.9-9.6a12.6,12.6,0,0,1,2.656-1.726,19.348,19.348,0,0,1,4.707-1.593l5.4-1.135Zm9.141-38.1c-1.26.783-5.531,2.935-17.453,5.511a23.222,23.222,0,0,0-11.822,6.124q-6.125,6.123-6.124,15.933V62.624H51.993V8.091a.249.249,0,0,0-.335-.233l-9.055,3.3a.25.25,0,0,0-.162.233v60.5a.286.286,0,0,0,.286.284h61.54a.291.291,0,0,0,.293-.289v-47.1a.3.3,0,0,0-.453-.26" transform="translate(29.321 5.417)" fill="#fff"/>
    <path id="Path_124346" data-name="Path 124346" d="M52.545,55.826H35.882V45.509q0-6.171,3.9-9.6a12.544,12.544,0,0,1,2.66-1.726,19.263,19.263,0,0,1,4.706-1.593l5.4-1.135Zm9.142-38.1c-1.26.783-5.532,2.935-17.45,5.511a23.214,23.214,0,0,0-11.824,6.124q-6.128,6.123-6.126,15.933V55.826H17.862A8.981,8.981,0,0,1,13.238,53.9Q9.679,51.074,9.682,45.29V27.445a.227.227,0,0,0-.289-.216L.166,29.807A.225.225,0,0,0,0,30.024V46.875q0,8.951,5.74,14.09a16.672,16.672,0,0,0,9.807,4.411H61.858a.284.284,0,0,0,.282-.284V17.986a.3.3,0,0,0-.453-.26" transform="translate(0 12.215)" fill="#fff"/>
    <path id="Path_124347" data-name="Path 124347" d="M120.965,9.166l-9.055,3.3a.248.248,0,0,0-.162.233V70.981a.29.29,0,0,0,.289.291h8.97a.292.292,0,0,0,.291-.291V9.4a.248.248,0,0,0-.333-.235" transform="translate(77.202 6.321)" fill="#fff"/>
    <path id="Path_124348" data-name="Path 124348" d="M112.019,12.426l9.151-3.51a.2.2,0,0,0,.129-.186V5.143a.2.2,0,0,0-.274-.188l-9.148,3.51a.2.2,0,0,0-.13.189v3.583a.2.2,0,0,0,.272.188" transform="translate(77.201 3.413)" fill="#fff"/>
    <path id="Path_124349" data-name="Path 124349" d="M121.3.122V3.771a.474.474,0,0,1-.2.386,13.376,13.376,0,0,1-3.458,1.733c-3.23.883-2.616,4.645-.438,3.989,2.112-.636-3.713,4.07-3.624,4.009a11.846,11.846,0,0,0,.215-1.72,4.9,4.9,0,0,1-2.046-3.591c0-2.183,1.184-4.562,5.275-5.915A7.547,7.547,0,0,0,121.079.053a.12.12,0,0,1,.22.069" transform="translate(77.201 -0.001)" fill="#fff"/>
    <path id="Path_124350" data-name="Path 124350" d="M28.842,97.515l-2.492-7.051H10.355L7.807,97.515H1.546L12.937,69.173c.962-2.391,2.624-4.1,5.556-5.7a9.167,9.167,0,0,0,2.225-1.728L35.1,97.515ZM11.532,86.689H25.11L18.351,68.218Z" transform="translate(1.068 42.654)" fill="#fff"/>
    <path id="Path_124351" data-name="Path 124351" d="M54.682,96.883,46.491,69.939,38.3,96.883H32.922L24.852,68.15a4.324,4.324,0,0,1,4.163-5.492L35.9,91.5l7.472-25.725a4.326,4.326,0,0,1,4.153-3.118h1.187L57.086,91.5l6.09-25.522a4.325,4.325,0,0,1,4.207-3.321h2.288L60.059,96.883Z" transform="translate(17.056 43.287)" fill="#fff"/>
    <path id="Path_124352" data-name="Path 124352" d="M103.43,96.883V71.527a8.868,8.868,0,0,1,8.867-8.869h13.642a4.62,4.62,0,0,1-4.553,3.877H109.211V77.906H123.34v3.879H109.211v15.1Z" transform="translate(71.455 43.287)" fill="#fff"/>
    <path id="Path_124353" data-name="Path 124353" d="M70.289,98.357a20.873,20.873,0,0,1-6.873-.971,10.541,10.541,0,0,1-4.482-3.028,9.13,9.13,0,0,1-1.924-3.6A21.53,21.53,0,0,1,56.4,85.1V76.7a20.885,20.885,0,0,1,.714-6.057,9.043,9.043,0,0,1,2.333-3.8,11.475,11.475,0,0,1,4.391-2.57,21.445,21.445,0,0,1,6.451-.829c8.3,0,12.137-1.334,13.887-2.431V85.1a20.893,20.893,0,0,1-.714,6.057,9.035,9.035,0,0,1-2.333,3.8,11.49,11.49,0,0,1-4.364,2.572,21.409,21.409,0,0,1-6.476.829m0-30.736c-3.087,0-5.287.922-6.533,2.743-1.058,1.559-1.573,3.924-1.573,7.239v6.96c0,3.82.7,6.425,2.139,7.967,1.246,1.334,3.255,2.012,5.967,2.012,3.086,0,5.286-.922,6.533-2.741,1.057-1.559,1.571-3.926,1.571-7.239V69.687a4.83,4.83,0,0,1,.7-2.545,12.316,12.316,0,0,1-2.939.479Z" transform="translate(38.964 42.154)" fill="#fff"/>
    <path id="Path_124354" data-name="Path 124354" d="M105.532,97.515l-2.492-7.051H87.045L84.5,97.515H78.236L89.627,69.173c.96-2.391,2.623-4.1,5.558-5.7a9.221,9.221,0,0,0,2.223-1.728l14.377,35.773ZM88.222,86.689H101.8L95.041,68.218Z" transform="translate(54.05 42.654)" fill="#fff"/>
    <rect id="Rectangle_14027" data-name="Rectangle 14027" width="3.836" height="14.71" transform="translate(109.514 133.873) rotate(-45)" fill="#fff"/>
  </g>
</svg>
