<svg xmlns="http://www.w3.org/2000/svg" width="208.536" height="53.825" viewBox="0 0 208.536 53.825">
  <g id="bg-shape-1" transform="translate(5425.538 2500.295)" opacity="0.15">
    <g id="Group_56094" data-name="Group 56094" transform="translate(-5425.539 -2500.295)">
      <path id="Path_124281" data-name="Path 124281" d="M971.139,4.053A35.364,35.364,0,0,1,963.011,0a34.015,34.015,0,0,1-8.144,4.053c-4.385,1.628-6.76,3.674-6.76,9.806v9.658c0-6.132,2.375-8.177,6.76-9.806a33.981,33.981,0,0,0,8.144-4.053,35.364,35.364,0,0,0,8.128,4.053c4.384,1.629,6.76,3.674,6.76,9.806V13.859c0-6.132-2.376-8.178-6.76-9.806" transform="translate(-918.314)" fill="#fff"/>
      <path id="Path_124282" data-name="Path 124282" d="M938.443,57.115a35.367,35.367,0,0,0-8.128,4.053,34.015,34.015,0,0,0-8.144-4.053c-4.385-1.628-6.76-3.674-6.76-9.806V37.651c0,6.132,2.375,8.177,6.76,9.806a33.981,33.981,0,0,1,8.144,4.053,35.366,35.366,0,0,1,8.128-4.053c4.384-1.629,6.76-3.674,6.76-9.806v9.658c0,6.132-2.376,8.178-6.76,9.806" transform="translate(-915.41 -7.344)" fill="#fff"/>
      <path id="Path_124283" data-name="Path 124283" d="M1036.53,4.053A35.364,35.364,0,0,1,1028.4,0a34.014,34.014,0,0,1-8.144,4.053c-4.385,1.628-6.76,3.674-6.76,9.806v9.658c0-6.132,2.375-8.177,6.76-9.806a33.98,33.98,0,0,0,8.144-4.053,35.364,35.364,0,0,0,8.128,4.053c4.384,1.629,6.759,3.674,6.759,9.806V13.859c0-6.132-2.375-8.178-6.759-9.806" transform="translate(-924.122)" fill="#fff"/>
      <path id="Path_124288" data-name="Path 124288" d="M1036.53,4.053A35.364,35.364,0,0,1,1028.4,0a34.014,34.014,0,0,1-8.144,4.053c-4.385,1.628-6.76,3.674-6.76,9.806v9.658c0-6.132,2.375-8.177,6.76-9.806a33.98,33.98,0,0,0,8.144-4.053,35.364,35.364,0,0,0,8.128,4.053c4.384,1.629,6.759,3.674,6.759,9.806V13.859c0-6.132-2.375-8.178-6.759-9.806" transform="translate(-864.542)" fill="#fff"/>
      <path id="Path_124284" data-name="Path 124284" d="M1003.835,57.115a35.361,35.361,0,0,0-8.128,4.053,34.018,34.018,0,0,0-8.144-4.053c-4.385-1.628-6.76-3.674-6.76-9.806V37.651c0,6.132,2.375,8.177,6.76,9.806a33.983,33.983,0,0,1,8.144,4.053,35.361,35.361,0,0,1,8.128-4.053c4.384-1.629,6.76-3.674,6.76-9.806v9.658c0,6.132-2.376,8.178-6.76,9.806" transform="translate(-921.219 -7.344)" fill="#fff"/>
      <path id="Path_124285" data-name="Path 124285" d="M1069.226,57.115a35.366,35.366,0,0,0-8.127,4.053,34.018,34.018,0,0,0-8.144-4.053c-4.385-1.628-6.76-3.674-6.76-9.806V37.651c0,6.132,2.376,8.177,6.76,9.806a33.984,33.984,0,0,1,8.144,4.053,35.366,35.366,0,0,1,8.127-4.053c4.384-1.629,6.759-3.674,6.759-9.806v9.658c0,6.132-2.375,8.178-6.759,9.806" transform="translate(-927.028 -7.344)" fill="#fff"/>
      <path id="Path_124289" data-name="Path 124289" d="M1069.226,57.115a35.366,35.366,0,0,0-8.127,4.053,34.018,34.018,0,0,0-8.144-4.053c-4.385-1.628-6.76-3.674-6.76-9.806V37.651c0,6.132,2.376,8.177,6.76,9.806a33.984,33.984,0,0,1,8.144,4.053,35.366,35.366,0,0,1,8.127-4.053c4.384-1.629,6.759-3.674,6.759-9.806v9.658c0,6.132-2.375,8.178-6.759,9.806" transform="translate(-867.448 -7.344)" fill="#fff"/>
    </g>
  </g>
</svg>
