<svg xmlns="http://www.w3.org/2000/svg" width="16" height="16" viewBox="0 0 16 16">
  <path id="brightnessmode" d="M8,4.122A3.878,3.878,0,1,0,11.878,8,3.882,3.882,0,0,0,8,4.122Zm0,6.365A2.487,2.487,0,1,1,10.487,8,2.486,2.486,0,0,1,8,10.487ZM7.3,2.139V.7A.7.7,0,0,1,8.7.7V2.139a.7.7,0,0,1-1.391,0ZM16,8a.7.7,0,0,1-.7.7H13.861a.7.7,0,0,1,0-1.391H15.3A.7.7,0,0,1,16,8ZM8.7,13.861V15.3a.7.7,0,0,1-1.391,0V13.861a.7.7,0,0,1,1.391,0ZM2.139,8.7H.7A.7.7,0,0,1,.7,7.3H2.139a.7.7,0,0,1,0,1.391Zm9.513-4.348a.693.693,0,0,1,0-.991l1.009-1.009a.7.7,0,0,1,.991.991L12.643,4.348a.687.687,0,0,1-.487.209A.726.726,0,0,1,11.652,4.348Zm2,8.33a.695.695,0,1,1-.974.991l-1.026-1.026a.7.7,0,0,1,.991-.991Zm-9.3-1.026a.693.693,0,0,1,0,.991L3.339,13.652a.695.695,0,0,1-.974-.991l1.009-1.009A.7.7,0,0,1,4.348,11.652Zm-2-8.33a.7.7,0,0,1,.991-.991L4.348,3.339a.695.695,0,1,1-.974.991Z" fill="#0c592e"/>
</svg>
