<svg xmlns="http://www.w3.org/2000/svg" width="57.597" height="76.119" viewBox="0 0 57.597 76.119">
  <g id="btn-icon2" transform="translate(0)">
    <path id="Path_318" data-name="Path 318" d="M3355.732,8.492c-10.481-3.893-14.1-8.5-14.1-8.5s-3.623,4.609-14.1,8.5c-7.485,2.781-14.7,7.655-14.7,21.254V46.354c0,13.6,7.211,18.474,14.7,21.254,10.481,3.894,14.1,8.5,14.1,8.5s3.622-4.608,14.1-8.5c7.484-2.78,14.695-7.654,14.695-21.254V29.745c0-13.6-7.21-18.473-14.695-21.254Z" transform="translate(-3312.83 0.01)" fill="#d6bd81"/>
    <path id="Path_612" data-name="Path 612" d="M3349.475,7.252c-8.953-3.325-12.046-7.262-12.046-7.262s-3.095,3.937-12.048,7.262c-6.392,2.376-12.551,6.539-12.551,18.154V39.592c0,11.616,6.159,15.78,12.551,18.154,8.953,3.326,12.048,7.262,12.048,7.262s3.093-3.936,12.046-7.262c6.392-2.374,12.551-6.538,12.551-18.154V25.406c0-11.615-6.159-15.779-12.551-18.154Z" transform="translate(-3308.628 5.788)" fill="#fff"/>
    <path id="PenPalette" d="M127.156,33.331a1.114,1.114,0,0,1,.8.331,1.091,1.091,0,0,1,.34.813,1.188,1.188,0,0,1-.3.787,6.7,6.7,0,0,1-1.233,1.117,8.227,8.227,0,0,1-1.484.831,8.615,8.615,0,0,1-1.627.518,7.89,7.89,0,0,1-1.645.179,7.757,7.757,0,0,1-3.271-.688,8.859,8.859,0,0,1-2.717-1.957,6.65,6.65,0,0,0-1.948-1.421,5.429,5.429,0,0,0-2.36-.509,5.523,5.523,0,0,0-2.351.509,6.319,6.319,0,0,0-1.957,1.421l-.17.161-.411.4-.527.527-.545.536-.447.447-.223.232a1.138,1.138,0,1,1-1.609-1.609q.965-.965,1.823-1.859a13.633,13.633,0,0,1,1.788-1.573,8.141,8.141,0,0,1,2.038-1.081,7.591,7.591,0,0,1,2.592-.4,7.757,7.757,0,0,1,3.271.688,8.858,8.858,0,0,1,2.717,1.957,6.65,6.65,0,0,0,1.949,1.421,5.429,5.429,0,0,0,2.36.509,5.14,5.14,0,0,0,2.36-.509,8.187,8.187,0,0,0,1.948-1.421,1.613,1.613,0,0,1,.384-.268A1.054,1.054,0,0,1,127.156,33.331Zm-10.8-28.147a1.133,1.133,0,0,1,.411.411,1.093,1.093,0,0,1,.161.572.972.972,0,0,1-.036.268,2.1,2.1,0,0,1-.089.25L104.169,31.98a1.023,1.023,0,0,1-.5.5l-3.093,1.555a2.72,2.72,0,0,1-1.233.286h-.17L99,34.3l-.84,1.68a1.106,1.106,0,0,1-.42.456,1.125,1.125,0,0,1-.6.17A1.16,1.16,0,0,1,96,35.466a1.545,1.545,0,0,1,.125-.536q.125-.322.295-.67t.349-.652a5.65,5.65,0,0,0,.268-.5,2.8,2.8,0,0,1-.465-1.555V28.6a1.076,1.076,0,0,1,.125-.518l10.3-20.593-1.162-.572L101.6,15.391a1.106,1.106,0,0,1-.42.456,1.125,1.125,0,0,1-.6.17,1.16,1.16,0,0,1-1.144-1.144,1.31,1.31,0,0,1,.125-.518L103.83,5.81a2.333,2.333,0,0,1,.769-.9,1.943,1.943,0,0,1,1.126-.331,2.468,2.468,0,0,1,1.189.3q.563.3,1.1.572l1.269-2.538a1.029,1.029,0,0,1,.42-.465,1.172,1.172,0,0,1,.6-.161.966.966,0,0,1,.393.072q.215-.429.42-.849a4.529,4.529,0,0,1,.465-.76,2,2,0,0,1,.635-.545A1.956,1.956,0,0,1,113.161,0a2.342,2.342,0,0,1,1.09.268l1.68.84a2.364,2.364,0,0,1,.9.76A1.933,1.933,0,0,1,117.165,3a2.4,2.4,0,0,1-.277,1.135Q116.611,4.666,116.361,5.184ZM112.75,3.379l1.555.769.518-1.037-1.555-.769Zm1.5,3.307-3.432-1.716L98.86,28.87v2.681a.488.488,0,0,0,.483.483,1.063,1.063,0,0,0,.295-.089q.223-.089.518-.232t.626-.313q.331-.17.635-.331l.536-.286q.232-.125.34-.179Z" transform="translate(-83.761 19.334)" fill="#00846c"/>
  </g>
</svg>
