<svg xmlns="http://www.w3.org/2000/svg" width="57.6" height="76.124" viewBox="0 0 57.6 76.124">
  <g id="btn-icon1" transform="translate(-0.001 0)">
    <g id="bg">
      <path id="Path_318" data-name="Path 318" d="M3355.735,8.492c-10.482-3.893-14.1-8.5-14.1-8.5s-3.623,4.609-14.1,8.5c-7.486,2.781-14.7,7.656-14.7,21.255V46.356c0,13.6,7.211,18.475,14.7,21.255,10.481,3.894,14.1,8.5,14.1,8.5s3.622-4.608,14.1-8.5c7.485-2.78,14.7-7.655,14.7-21.255V29.747c0-13.6-7.211-18.474-14.7-21.255Z" transform="translate(-3312.83 0.01)" fill="#d6bd81"/>
      <path id="Path_612" data-name="Path 612" d="M3349.478,7.252C3340.524,3.927,3337.43-.01,3337.43-.01s-3.094,3.937-12.048,7.262c-6.393,2.376-12.552,6.539-12.552,18.155V39.594c0,11.617,6.159,15.781,12.552,18.155,8.953,3.326,12.048,7.262,12.048,7.262s3.094-3.936,12.047-7.262c6.392-2.375,12.552-6.538,12.552-18.155V25.407c0-11.616-6.16-15.779-12.552-18.155Z" transform="translate(-3308.628 5.789)" fill="#fff"/>
    </g>
    <path id="Case" d="M903.443,1866.684h-7.026v-2.342a2.342,2.342,0,0,0-2.342-2.342h-9.367a2.342,2.342,0,0,0-2.342,2.342v2.342h-7.025a2.342,2.342,0,0,0-2.342,2.342v19.515a2.342,2.342,0,0,0,2.342,2.342h28.1a2.342,2.342,0,0,0,2.342-2.342v-19.515A2.342,2.342,0,0,0,903.443,1866.684Zm-18.734-2.342h9.367v2.342h-9.367Zm18.734,4.684v5.862a1.142,1.142,0,0,0-.524.117,48.521,48.521,0,0,1-9.787,3.325,2.341,2.341,0,0,0-2.179-1.5h-3.122a2.342,2.342,0,0,0-2.2,1.577,43.44,43.44,0,0,1-9.861-3.4,1.083,1.083,0,0,0-.426-.117v-5.862Zm-12.49,10.148v2.342h-3.122v-2.342Zm-15.612,9.367v-11.092a46.313,46.313,0,0,0,10.148,3.341v.726a2.342,2.342,0,0,0,2.342,2.342h3.122a2.342,2.342,0,0,0,2.342-2.342v-.843a41.058,41.058,0,0,0,10.148-3.411v11.279Z" transform="translate(-860.592 -1838.379)" fill="#00846c" fill-rule="evenodd"/>
  </g>
</svg>
