<svg xmlns="http://www.w3.org/2000/svg" width="27.764" height="20.72" viewBox="0 0 27.764 20.72">
  <path id="bxs-quote-alt-start" d="M23.394,16.487a6.191,6.191,0,0,0,.9-.09,4.958,4.958,0,0,1-.352.941,5.831,5.831,0,0,1-.649,1.168,6.9,6.9,0,0,1-.832,1.02,9.409,9.409,0,0,1-.958.836,5.881,5.881,0,0,1-.988.641,5.253,5.253,0,0,1-.9.484l-.746.307-.656.273.671,2.682.826-.2c.264-.066.587-.144.954-.237a7.508,7.508,0,0,0,1.221-.432,8.6,8.6,0,0,0,1.423-.645,13,13,0,0,0,1.51-.958,10.762,10.762,0,0,0,1.453-1.308,9.7,9.7,0,0,0,1.258-1.608,11.242,11.242,0,0,0,.972-1.8,15.331,15.331,0,0,0,.648-1.849,16.707,16.707,0,0,0,.531-3.373,17.24,17.24,0,0,0-.039-2.418c-.021-.282-.06-.556-.087-.746l-.035-.233-.036.008a6.228,6.228,0,1,0-6.09,7.532Zm-15.225,0a6.191,6.191,0,0,0,.9-.09,4.959,4.959,0,0,1-.352.941,5.831,5.831,0,0,1-.649,1.168,6.9,6.9,0,0,1-.832,1.02,9.409,9.409,0,0,1-.958.836A5.881,5.881,0,0,1,5.291,21a5.253,5.253,0,0,1-.9.484l-.746.307-.656.273L3.66,24.75l.826-.2c.264-.066.587-.144.954-.237a7.508,7.508,0,0,0,1.221-.432,8.66,8.66,0,0,0,1.423-.646,13,13,0,0,0,1.51-.958,10.844,10.844,0,0,0,1.453-1.307,9.7,9.7,0,0,0,1.258-1.608,11.241,11.241,0,0,0,.972-1.8,15.332,15.332,0,0,0,.648-1.849,16.707,16.707,0,0,0,.531-3.373,17.24,17.24,0,0,0-.039-2.418c-.021-.282-.06-.556-.087-.746L14.3,8.947l-.036.008a6.228,6.228,0,1,0-6.09,7.532Z" transform="translate(-1.941 -4.03)" fill="#00ab7a"/>
</svg>
