<svg xmlns="http://www.w3.org/2000/svg" width="27.763" height="20.72" viewBox="0 0 27.763 20.72">
  <path id="bxs-quote-alt-end" d="M8.251,12.293a6.191,6.191,0,0,0-.9.09,4.959,4.959,0,0,1,.352-.941,5.831,5.831,0,0,1,.649-1.168,6.9,6.9,0,0,1,.832-1.02,9.409,9.409,0,0,1,.958-.836,5.881,5.881,0,0,1,.988-.641,5.253,5.253,0,0,1,.9-.484l.746-.307.656-.273L12.76,4.03l-.826.2c-.264.066-.587.144-.954.237A7.508,7.508,0,0,0,9.759,4.9a8.6,8.6,0,0,0-1.423.645,13,13,0,0,0-1.51.958A10.762,10.762,0,0,0,5.373,7.808,9.7,9.7,0,0,0,4.115,9.417a11.242,11.242,0,0,0-.972,1.8A15.332,15.332,0,0,0,2.5,13.064a16.707,16.707,0,0,0-.531,3.373A17.24,17.24,0,0,0,2,18.855c.021.282.06.556.087.746l.035.233.036-.008a6.228,6.228,0,1,0,6.09-7.532Zm15.224,0a6.19,6.19,0,0,0-.9.09,4.959,4.959,0,0,1,.352-.941,5.831,5.831,0,0,1,.649-1.168,6.9,6.9,0,0,1,.832-1.02,9.409,9.409,0,0,1,.958-.836,5.881,5.881,0,0,1,.988-.641,5.253,5.253,0,0,1,.9-.484L28,6.985l.656-.273L27.984,4.03l-.826.2c-.264.066-.587.144-.954.237a7.508,7.508,0,0,0-1.221.432,8.66,8.66,0,0,0-1.423.646,13,13,0,0,0-1.51.958A10.844,10.844,0,0,0,20.6,7.808,9.7,9.7,0,0,0,19.34,9.417a11.241,11.241,0,0,0-.972,1.8,15.332,15.332,0,0,0-.648,1.849,16.707,16.707,0,0,0-.531,3.373,17.24,17.24,0,0,0,.039,2.418c.021.282.06.556.087.746l.035.233.036-.008a6.228,6.228,0,1,0,6.09-7.532Z" transform="translate(-1.941 -4.03)" fill="#00ab7a"/>
</svg>
