<svg xmlns="http://www.w3.org/2000/svg" width="71.693" height="94.749" viewBox="0 0 71.693 94.749">
  <g id="clients-icon" transform="translate(-7.045 -5609.971)">
    <g id="Path_318" data-name="Path 318" transform="translate(-3305.785 5609.981)" fill="none">
      <path d="M3366.232,10.572C3353.185,5.727,3348.677-.01,3348.677-.01s-4.509,5.737-17.555,10.582c-9.317,3.462-18.292,9.529-18.292,26.456V57.7c0,16.928,8.975,23,18.292,26.456,13.046,4.847,17.555,10.582,17.555,10.582s4.509-5.736,17.556-10.582c9.316-3.46,18.291-9.528,18.291-26.456V37.028c0-16.927-8.975-22.994-18.291-26.456Z" stroke="none"/>
      <path d="M 3348.676513671875 4.1986083984375 C 3348.095703125 4.701866149902344 3347.398681640625 5.267112731933594 3346.575439453125 5.876113891601562 C 3342.688720703125 8.750869750976562 3337.8408203125 11.27713012695312 3332.166748046875 13.38457489013672 C 3329.705810546875 14.29892730712891 3327.65673828125 15.26676177978516 3325.90185546875 16.34337615966797 C 3323.841796875 17.60725402832031 3322.166748046875 19.02523803710938 3320.78076171875 20.6783447265625 C 3317.44921875 24.65202331542969 3315.829833984375 30.00005340576172 3315.829833984375 37.02804946899414 L 3315.829833984375 57.70111465454102 C 3315.829833984375 64.72971343994141 3317.449462890625 70.07807922363281 3320.781005859375 74.0518798828125 C 3322.1669921875 75.70501708984375 3323.842041015625 77.12289428710938 3325.90185546875 78.38655853271484 C 3327.65673828125 79.46306610107422 3329.705810546875 80.43058776855469 3332.16650390625 81.34452819824219 C 3337.841064453125 83.45259094238281 3342.688720703125 85.97895812988281 3346.5751953125 88.85343933105469 C 3347.398681640625 89.46237182617188 3348.095703125 90.02766418457031 3348.676513671875 90.53085327148438 C 3349.25732421875 90.02765655517578 3349.954345703125 89.46234893798828 3350.77783203125 88.85340881347656 C 3354.66455078125 85.97892761230469 3359.5126953125 83.45256042480469 3365.1875 81.34446716308594 C 3367.647705078125 80.43061828613281 3369.69677734375 79.46308135986328 3371.451416015625 78.38660430908203 C 3373.51123046875 77.1229248046875 3375.186279296875 75.70503234863281 3376.572021484375 74.05191040039062 C 3379.903564453125 70.07804870605469 3381.523193359375 64.72966766357422 3381.523193359375 57.70111465454102 L 3381.523193359375 37.02804946899414 C 3381.523193359375 30.00017547607422 3379.903564453125 24.65213012695312 3376.572021484375 20.67832946777344 C 3375.186279296875 19.02522277832031 3373.51123046875 17.60722351074219 3371.451171875 16.34331512451172 C 3369.696533203125 15.26673126220703 3367.647705078125 14.29889678955078 3365.187744140625 13.38474273681641 C 3359.5126953125 11.27716064453125 3354.66455078125 8.75091552734375 3350.77783203125 5.876144409179688 C 3349.954345703125 5.267135620117188 3349.25732421875 4.701881408691406 3348.676513671875 4.1986083984375 M 3348.676513671875 -0.0099945068359375 C 3348.676513671875 -0.0099945068359375 3353.18505859375 5.727035522460938 3366.232177734375 10.57241821289062 C 3375.5478515625 14.03433990478516 3384.523193359375 20.10131072998047 3384.523193359375 37.02804946899414 L 3384.523193359375 57.70111465454102 C 3384.523193359375 74.62906646728516 3375.5478515625 80.69643402099609 3366.232177734375 84.15673065185547 C 3353.18505859375 89.00334167480469 3348.676513671875 94.73914337158203 3348.676513671875 94.73914337158203 C 3348.676513671875 94.73914337158203 3344.167724609375 89.00334167480469 3331.121826171875 84.15673065185547 C 3321.80517578125 80.69644927978516 3312.829833984375 74.62906646728516 3312.829833984375 57.70111465454102 L 3312.829833984375 37.02804946899414 C 3312.829833984375 20.10131072998047 3321.8046875 14.03436279296875 3331.121826171875 10.57241821289062 C 3344.167724609375 5.727035522460938 3348.676513671875 -0.0099945068359375 3348.676513671875 -0.0099945068359375 Z" stroke="none" fill="#00846c"/>
    </g>
    <g id="Group_56756" data-name="Group 56756" transform="translate(19416.094 10574.657)">
      <path id="Path_122969" data-name="Path 122969" d="M1095,117.695l-7.447,2.838,8.568,21.383,8.048-3.234" transform="translate(-20448.521 -5055)" fill="none" stroke="#00846c" stroke-linecap="round" stroke-linejoin="round" stroke-width="2.13"/>
      <path id="Path_122970" data-name="Path 122970" d="M1056.061,117.695l6.373,4.448-12.879,19.1-6.608-5.182" transform="translate(-20445 -5055)" fill="none" stroke="#00846c" stroke-linecap="round" stroke-linejoin="round" stroke-width="2.13"/>
      <path id="Path_122971" data-name="Path 122971" d="M1071.383,158.688l2.083-2.86a2.548,2.548,0,1,0-4.118-3l-2.083,2.86a2.548,2.548,0,1,0,4.118,3Z" transform="translate(-20446.881 -5057.691)" fill="none" stroke="#00846c" stroke-linecap="round" stroke-linejoin="round" stroke-width="2.13"/>
      <path id="Path_122972" data-name="Path 122972" d="M1066.912,155.266l3.472-4.767a2.548,2.548,0,1,0-4.118-3l-3.472,4.767a2.548,2.548,0,1,0,4.118,3Z" transform="translate(-20446.529 -5057.271)" fill="none" stroke="#00846c" stroke-linecap="round" stroke-linejoin="round" stroke-width="2.13"/>
      <path id="Path_122973" data-name="Path 122973" d="M1062.441,151.84l4.889-6.713a2.548,2.548,0,1,0-4.118-3l-4.889,6.713a2.548,2.548,0,1,0,4.118,3Z" transform="translate(-20446.176 -5056.846)" fill="none" stroke="#00846c" stroke-linecap="round" stroke-linejoin="round" stroke-width="2.13"/>
      <path id="Path_122974" data-name="Path 122974" d="M1057.97,148.749l3.472-4.767a2.548,2.548,0,1,0-4.118-3l-3.472,4.768a2.548,2.548,0,1,0,4.118,3Z" transform="translate(-20445.822 -5056.756)" fill="none" stroke="#00846c" stroke-linecap="round" stroke-linejoin="round" stroke-width="2.13"/>
      <path id="Path_122975" data-name="Path 122975" d="M1085.7,121.213a13.237,13.237,0,0,0-6.52.856l-2.065.828-12.436,4.986a5.1,5.1,0,0,0,6.625,2.835l4.067-1.6,2.328,3.76a6.881,6.881,0,0,0,9.483,2.19" transform="translate(-20446.717 -5055.27)" fill="none" stroke="#00846c" stroke-linecap="round" stroke-linejoin="round" stroke-width="2.13"/>
      <path id="Path_122976" data-name="Path 122976" d="M1073.041,157.256l1.942,1.31a2.494,2.494,0,0,0,3.463-.673l.059-.087a2.5,2.5,0,0,0-.673-3.464l-6.214-4.167" transform="translate(-20447.264 -5057.565)" fill="none" stroke="#00846c" stroke-linecap="round" stroke-linejoin="round" stroke-width="2.13"/>
      <path id="Path_122977" data-name="Path 122977" d="M1073.371,144.753l10.465,7.063a2.5,2.5,0,0,1,.674,3.464l-.06.087a2.5,2.5,0,0,1-3.464.673l-9.369-6.3" transform="translate(-20447.264 -5057.137)" fill="none" stroke="#00846c" stroke-linecap="round" stroke-linejoin="round" stroke-width="2.13"/>
      <path id="Path_122978" data-name="Path 122978" d="M1076.457,140.206l11.275,7.61a2.5,2.5,0,0,1,.674,3.465l-.06.087a2.5,2.5,0,0,1-3.464.673l-11.352-7.661" transform="translate(-20447.414 -5056.777)" fill="none" stroke="#00846c" stroke-linecap="round" stroke-linejoin="round" stroke-width="2.13"/>
      <path id="Path_122979" data-name="Path 122979" d="M1050.521,142.665a12.641,12.641,0,0,0,2.724,3.682" transform="translate(-20445.598 -5056.972)" fill="none" stroke="#00846c" stroke-linecap="round" stroke-linejoin="round" stroke-width="2.13"/>
      <path id="Path_122980" data-name="Path 122980" d="M1089.373,147.428a2.488,2.488,0,0,0,1.849-1.09l.059-.087a2.5,2.5,0,0,0-.673-3.465l-5.519-5.192" transform="translate(-20448.326 -5056.571)" fill="none" stroke="#00846c" stroke-linecap="round" stroke-linejoin="round" stroke-width="2.13"/>
      <path id="Path_122981" data-name="Path 122981" d="M1071,125.456l-.652-.439a13.2,13.2,0,0,0-6.423-2.225" transform="translate(-20446.656 -5055.402)" fill="none" stroke="#00846c" stroke-linecap="round" stroke-linejoin="round" stroke-width="2.13"/>
      <path id="Path_122982" data-name="Path 122982" d="M1096.235,143.561a12.689,12.689,0,0,1-5.2,3.852" transform="translate(-20448.797 -5057.042)" fill="none" stroke="#00846c" stroke-linecap="round" stroke-linejoin="round" stroke-width="2.13"/>
    </g>
  </g>
</svg>
