<svg id="File-banner" xmlns="http://www.w3.org/2000/svg" xmlns:xlink="http://www.w3.org/1999/xlink" width="419" height="373" viewBox="0 0 419 373">
  <defs>
    <clipPath id="clip-path">
      <rect id="Rectangle_13984" data-name="Rectangle 13984" width="121.083" height="88.006" fill="#fff"/>
    </clipPath>
  </defs>
  <rect id="Rectangle_13985" data-name="Rectangle 13985" width="419" height="373" fill="#e3ece6"/>
  <path id="Path_122847" data-name="Path 122847" d="M0,209.494c10.92-78.6,55.633-111.819,118.521-135.18C180.2,51.412,230.961,24.173,247.472,0h.008V209.494Z" transform="translate(158.52 163.506)" fill="#a1dfc3"/>
  <path id="Path_124438" data-name="Path 124438" d="M0,209.494c10.92-78.6,55.633-111.819,118.521-135.18C180.2,51.412,230.961,24.173,247.472,0h.008V209.494Z" transform="translate(165.52 163.506)" fill="#78cfa8"/>
  <path id="Path_124437" data-name="Path 124437" d="M0,209.494c10.92-78.6,55.633-111.819,118.521-135.18C180.2,51.412,230.961,24.173,247.472,0h.008V209.494Z" transform="translate(171.52 163.506)" fill="#3aa877"/>
  <g id="Group_55952" data-name="Group 55952" transform="translate(258.426 266.377)">
    <g id="Group_55951" data-name="Group 55951" clip-path="url(#clip-path)">
      <path id="Path_122848" data-name="Path 122848" d="M31.035,15.285a3.009,3.009,0,0,0,2.142-.81,2.806,2.806,0,0,0,.837-2.064,2.871,2.871,0,0,0-.837-2.117,3.012,3.012,0,0,0-2.142-.809A2.819,2.819,0,0,0,29,10.3a2.922,2.922,0,0,0-.836,2.117,2.813,2.813,0,0,0,2.874,2.874" transform="translate(-4.127 -1.39)" fill="#fff"/>
      <path id="Path_122849" data-name="Path 122849" d="M79.257,15.285a3,3,0,0,0,2.14-.81,2.8,2.8,0,0,0,.837-2.064A2.868,2.868,0,0,0,81.4,10.3a3.007,3.007,0,0,0-2.14-.809,2.819,2.819,0,0,0-2.038.809,2.919,2.919,0,0,0-.837,2.117,2.814,2.814,0,0,0,2.875,2.874" transform="translate(-11.193 -1.39)" fill="#fff"/>
      <path id="Path_122850" data-name="Path 122850" d="M86.545,15.285a3.013,3.013,0,0,0,2.143-.81,2.809,2.809,0,0,0,.836-2.064,2.874,2.874,0,0,0-.836-2.117,3.016,3.016,0,0,0-2.143-.809,2.819,2.819,0,0,0-2.038.809,2.922,2.922,0,0,0-.836,2.117,2.813,2.813,0,0,0,2.874,2.874" transform="translate(-12.261 -1.39)" fill="#fff"/>
      <path id="Path_122851" data-name="Path 122851" d="M118.6,44.636H108.433V38.342a7.386,7.386,0,0,1,2.379-5.853,7.728,7.728,0,0,1,1.621-1.052,11.692,11.692,0,0,1,2.874-.971l3.293-.693ZM124.175,21.4c-.768.477-3.372,1.79-10.646,3.361a14.174,14.174,0,0,0-7.212,3.736,13.142,13.142,0,0,0-3.736,9.719V50.257a.2.2,0,0,0,.2.2h15.839a5.79,5.79,0,0,1-5.791,5.791h-9.619a.149.149,0,0,0-.137.2l2.2,5.372a.438.438,0,0,0,.41.275l7.178-.013a11.614,11.614,0,0,0,11.59-11.614V21.554a.183.183,0,0,0-.277-.159" transform="translate(-15.033 -3.131)" fill="#fff"/>
      <path id="Path_122852" data-name="Path 122852" d="M83.329,42.893H73.164V36.6a7.383,7.383,0,0,1,2.379-5.853,7.706,7.706,0,0,1,1.621-1.052,11.721,11.721,0,0,1,2.871-.971l3.294-.693Zm5.576-23.241c-.768.477-3.374,1.79-10.646,3.361a14.174,14.174,0,0,0-7.212,3.736,13.146,13.146,0,0,0-3.736,9.719v6.425H57.116V9.629a.152.152,0,0,0-.2-.143L51.389,11.5a.153.153,0,0,0-.1.143V48.545a.175.175,0,0,0,.175.174H89a.178.178,0,0,0,.178-.177V19.812a.183.183,0,0,0-.277-.159" transform="translate(-7.516 -1.389)" fill="#fff"/>
      <path id="Path_122853" data-name="Path 122853" d="M32.052,44.636H21.888V38.342a7.383,7.383,0,0,1,2.379-5.853,7.692,7.692,0,0,1,1.622-1.052,11.673,11.673,0,0,1,2.871-.971l3.293-.693ZM37.629,21.4c-.768.477-3.375,1.79-10.644,3.361a14.169,14.169,0,0,0-7.213,3.736,13.143,13.143,0,0,0-3.736,9.719v6.425H10.9A5.48,5.48,0,0,1,8.075,43.46a6.3,6.3,0,0,1-2.169-5.251V27.323a.138.138,0,0,0-.176-.131L.1,28.765A.137.137,0,0,0,0,28.9V39.175a10.944,10.944,0,0,0,3.5,8.6,10.171,10.171,0,0,0,5.983,2.691H37.733a.174.174,0,0,0,.172-.174V21.554a.183.183,0,0,0-.277-.159" transform="translate(0 -3.131)" fill="#fff"/>
      <path id="Path_122854" data-name="Path 122854" d="M140.67,11.068l-5.523,2.011a.151.151,0,0,0-.1.143V48.774a.178.178,0,0,0,.177.178H140.7a.178.178,0,0,0,.178-.178V11.212a.153.153,0,0,0-.2-.143" transform="translate(-19.79 -1.621)" fill="#fff"/>
      <path id="Path_122855" data-name="Path 122855" d="M135.212,10.537,140.794,8.4a.119.119,0,0,0,.079-.114V6.095a.123.123,0,0,0-.166-.114l-5.581,2.14a.124.124,0,0,0-.079.116v2.186a.123.123,0,0,0,.166.114" transform="translate(-19.79 -0.875)" fill="#fff"/>
      <path id="Path_122856" data-name="Path 122856" d="M140.872.074V2.3a.289.289,0,0,1-.124.236,8.137,8.137,0,0,1-2.11,1.057c-1.97.539-1.6,2.833-.267,2.433,1.289-.388-2.265,2.483-2.21,2.445a7.276,7.276,0,0,0,.131-1.049,2.985,2.985,0,0,1-1.249-2.19c0-1.332.721-2.784,3.218-3.608A4.594,4.594,0,0,0,140.738.032a.074.074,0,0,1,.134.043" transform="translate(-19.79 0)" fill="#fff"/>
      <path id="Path_122857" data-name="Path 122857" d="M18.518,96.436,17,92.136H7.242l-1.554,4.3H1.869L8.817,79.149a6.769,6.769,0,0,1,3.39-3.48,5.6,5.6,0,0,0,1.357-1.054l8.77,21.821ZM7.96,89.832h8.283L12.12,78.565Z" transform="translate(-0.274 -10.934)" fill="#fff"/>
      <path id="Path_122858" data-name="Path 122858" d="M48.132,96.6l-5-16.436-5,16.436H34.859L29.936,79.072a2.637,2.637,0,0,1,2.538-3.35l4.2,17.593,4.557-15.692a2.638,2.638,0,0,1,2.533-1.9h.724L49.6,93.315l3.715-15.568a2.637,2.637,0,0,1,2.565-2.025h1.4L51.411,96.6Z" transform="translate(-4.372 -11.096)" fill="#fff"/>
      <path id="Path_122859" data-name="Path 122859" d="M125,96.6V81.132a5.41,5.41,0,0,1,5.408-5.41h8.321a2.817,2.817,0,0,1-2.777,2.364h-7.426v6.937h8.618v2.366h-8.618V96.6Z" transform="translate(-18.317 -11.096)" fill="#fff"/>
      <path id="Path_122860" data-name="Path 122860" d="M76.631,96.516a12.738,12.738,0,0,1-4.192-.591A6.44,6.44,0,0,1,69.7,94.077a5.565,5.565,0,0,1-1.174-2.194,13.119,13.119,0,0,1-.371-3.451V83.306a12.751,12.751,0,0,1,.435-3.695A5.515,5.515,0,0,1,70.018,77.3,7.017,7.017,0,0,1,72.7,75.729a13.071,13.071,0,0,1,3.934-.506c5.063,0,7.4-.813,8.471-1.482V88.432a12.73,12.73,0,0,1-.435,3.695,5.5,5.5,0,0,1-1.424,2.315,7.009,7.009,0,0,1-2.662,1.569,13.05,13.05,0,0,1-3.95.505m0-18.749c-1.884,0-3.225.562-3.986,1.673a7.913,7.913,0,0,0-.958,4.415V88.1c0,2.33.426,3.92,1.3,4.86a4.8,4.8,0,0,0,3.64,1.227c1.883,0,3.224-.562,3.985-1.671a7.925,7.925,0,0,0,.959-4.416V79.028A2.955,2.955,0,0,1,82,77.476a7.512,7.512,0,0,1-1.791.292Z" transform="translate(-9.988 -10.806)" fill="#fff"/>
      <path id="Path_122861" data-name="Path 122861" d="M111.2,96.436l-1.52-4.3H99.921l-1.554,4.3H94.548L101.5,79.149a6.765,6.765,0,0,1,3.39-3.48,5.616,5.616,0,0,0,1.357-1.054l8.77,21.821Zm-10.558-6.6h8.283L104.8,78.565Z" transform="translate(-13.855 -10.934)" fill="#fff"/>
      <rect id="Rectangle_13983" data-name="Rectangle 13983" width="2.34" height="8.973" transform="translate(66.801 81.663) rotate(-45.015)" fill="#fff"/>
    </g>
  </g>
  <g id="Group_56125" data-name="Group 56125" transform="translate(53 -19)">
    <g id="Group_55983" data-name="Group 55983" transform="translate(-270 -489)">
      <g id="Group_55982" data-name="Group 55982" transform="translate(-7 8)">
        <text id="الملف_التعريفي" data-name="الملف التعريفي" transform="translate(309 558)" fill="#0c592e" font-size="25" font-family="URWDINArabic-Regular, URW DIN Arabic"><tspan x="-80.562" y="26">الملف التعريفي</tspan></text>
        <text id="لهيئة_الأوقاف" data-name="لهيئة الأوقاف" transform="translate(288 598)" fill="#0c592e" font-size="35" font-family="URWDINArabic-Bold, URW DIN Arabic" font-weight="700"><tspan x="-109.76" y="36">لهيئة الأوقاف</tspan></text>
      </g>
    </g>
  </g>
  <g id="Group_56141" data-name="Group 56141" transform="translate(0 3)">
    <rect id="Rectangle_14039" data-name="Rectangle 14039" width="63" height="63" rx="16" transform="translate(182 160.506)" fill="#dcb853"/>
    <g id="Group_56140" data-name="Group 56140" transform="translate(200 177.506)">
      <g id="download" transform="translate(0 0)">
        <path id="Path_122404" data-name="Path 122404" d="M29.872,15v5.971a2.986,2.986,0,0,1-2.986,2.986H5.986A2.986,2.986,0,0,1,3,20.971V15" transform="translate(-3 2.915)" fill="none" stroke="#fff" stroke-linecap="round" stroke-linejoin="round" stroke-width="2"/>
        <path id="Path_122405" data-name="Path 122405" d="M7,10l7.464,7.464L21.929,10" transform="translate(-1.028 0.45)" fill="none" stroke="#fff" stroke-linecap="round" stroke-linejoin="round" stroke-width="2"/>
        <line id="Line_92" data-name="Line 92" y1="18.014" transform="translate(13.661)" fill="none" stroke="#fff" stroke-linecap="round" stroke-linejoin="round" stroke-width="2"/>
      </g>
    </g>
  </g>
</svg>
