<svg xmlns="http://www.w3.org/2000/svg" width="17.524" height="17.526" viewBox="0 0 17.524 17.526">
  <path id="flag" d="M11.506,2.737c-1.681,0-3.193-1.1-5.541-1.1A7.593,7.593,0,0,0,3.2,2.161a1.643,1.643,0,1,0-2.38.9V16.975a.547.547,0,0,0,.547.548h.548a.547.547,0,0,0,.548-.547V13.143a9.419,9.419,0,0,1,4.375-.974c1.681,0,3.193,1.1,5.541,1.1a7.952,7.952,0,0,0,4.4-1.369,1.641,1.641,0,0,0,.743-1.375V3.284a1.642,1.642,0,0,0-2.29-1.51,9.789,9.789,0,0,1-3.728.964Zm4.375,7.788a6.437,6.437,0,0,1-3.5,1.1c-2.051,0-3.491-1.1-5.541-1.1a11.74,11.74,0,0,0-4.375.822V4.381a6.438,6.438,0,0,1,3.5-1.1c2.051,0,3.491,1.1,5.541,1.1a11.7,11.7,0,0,0,4.375-1.1Z" transform="translate(0.001 0.002)" fill="#7e8c76"/>
</svg>
