<svg id="footer-Logo" xmlns="http://www.w3.org/2000/svg" width="180.084" height="85.559" viewBox="0 0 180.084 85.559">
  <g id="art">
    <path id="base" d="M171.724,9.2c-7.635-2.835-13.918-6.207-15.96-9.2h0c-2.046,2.992-8.326,6.364-15.96,9.2-9,3.342-14.991,8.313-14.991,21.709V54.652c0,13.4,5.992,18.366,14.991,21.708,7.635,2.835,13.914,6.207,15.96,9.2h0c2.041-2.992,8.325-6.364,15.96-9.2,9-3.342,14.991-8.313,14.991-21.708V30.908c0-13.4-5.992-18.367-14.991-21.709" transform="translate(-6.631)" fill="#fff"/>
    <path id="border" d="M156.071,78.78c-3.215-2.377-7.908-4.719-14.036-7-7.553-2.812-11.651-6.344-11.651-16.936V31.52c0-10.592,4.1-14.123,11.651-16.936,6.128-2.281,10.822-4.623,14.036-7,3.935,2.89,9.447,5.3,14.007,7,7.556,2.813,11.651,6.344,11.651,16.936V54.845c0,10.592-4.1,14.124-11.651,16.936C165.518,73.479,160.006,75.891,156.071,78.78Z" transform="translate(-6.926 -0.402)" fill="none" stroke="#d6bd81" stroke-miterlimit="10" stroke-width="2"/>
    <g id="inner">
      <path id="Path_124700" data-name="Path 124700" d="M172.114,64.155a.98.98,0,0,0-.44-.088v0a1,1,0,0,0-.262.043l-.056.022a1.1,1.1,0,0,0-.163.072l-.007,0h0a1.079,1.079,0,0,0-.1.08c-.029.014-.052.028-.052.028s-.014.021-.022.029a.293.293,0,0,0-.041.033l0,.016a.91.91,0,0,0-.174.219,1.824,1.824,0,0,1-1.035.149,10.681,10.681,0,0,1-3.407-.907q-.616-.251-1.273-.567c-.008.024-.832.832-1.058,1.092a2.25,2.25,0,0,0-.547.935l.388.191a15.022,15.022,0,0,0,6.051,1.769,4.65,4.65,0,0,0,1.072-.116,2.323,2.323,0,0,0,1.68-1.239,1.3,1.3,0,0,0-.559-1.759" transform="translate(-8.686 -3.361)" fill="#d6bd81"/>
      <path id="Path_124701" data-name="Path 124701" d="M149.388,63.283q-.655.317-1.273.568a10.71,10.71,0,0,1-3.406.907,1.821,1.821,0,0,1-1.036-.15,1.006,1.006,0,0,0-.174-.219l0-.015c-.011-.015-.026-.02-.041-.033s-.014-.022-.022-.03-.023-.014-.052-.028-.07-.06-.1-.08h0l-.008,0a1.063,1.063,0,0,0-.163-.072c-.019-.007-.037-.017-.056-.022a.979.979,0,0,0-.262-.044v0a.989.989,0,0,0-.44.087,1.3,1.3,0,0,0-.562,1.759,2.348,2.348,0,0,0,1.684,1.24,4.739,4.739,0,0,0,1.076.115A14.978,14.978,0,0,0,150.6,65.5c.1-.045.388-.19.388-.19a2.213,2.213,0,0,0-.543-.936c-.225-.26-1.05-1.067-1.058-1.092" transform="translate(-7.525 -3.361)" fill="#d6bd81"/>
      <path id="Path_124702" data-name="Path 124702" d="M179.374,48.215l-.048-.02c-.089-.026-.447-.144-.773-.245a9.055,9.055,0,0,0-2.715-.364c-.329,0-.669.012-1.01.034a17.57,17.57,0,0,0-5.755,1.446,36.432,36.432,0,0,0-7.49,4.723c-1.95,1.472-3.721,2.888-5.386,4.131-1.667-1.243-3.443-2.659-5.389-4.131a36.433,36.433,0,0,0-7.49-4.723,17.57,17.57,0,0,0-5.755-1.446c-.341-.022-.681-.034-1.01-.034a9.055,9.055,0,0,0-2.715.364c-.326.1-.685.22-.773.245-.019.008-.033.014-.052.02a.055.055,0,0,0,.026.105,22.911,22.911,0,0,1,7.538,2.044,32.24,32.24,0,0,1,5.626,3.271,35.206,35.206,0,0,1,3.074,2.289q2.419,2,4.624,3.628c-.145.1-.293.2-.437.29-1.2.779-2.338,1.447-3.392,2-1.284-1.386-1.065-2.282-1.065-2.282a.862.862,0,0,0-.951-.133c-.77.621.01,1.56,1,2.543.081.08.561.562.565.559a10.953,10.953,0,0,1,1.014,1.155c.014.014.08.134.1.169a2.135,2.135,0,0,1-.033,2.354c.629.722,1,.4,1,.4.717-.434.6-1.562.007-2.643a51.655,51.655,0,0,0,4.494-2.783,51.213,51.213,0,0,0,4.491,2.783c-.592,1.08-.71,2.209,0,2.643,0,0,.373.321,1-.4a2.135,2.135,0,0,1-.033-2.354c.019-.034.085-.154.1-.169a10.957,10.957,0,0,1,1.014-1.155s.484-.478.565-.559c.984-.983,1.765-1.922,1-2.543a.862.862,0,0,0-.951.133s.215.9-1.065,2.282c-1.054-.554-2.189-1.221-3.392-2-.144-.092-.292-.193-.437-.29q2.2-1.628,4.62-3.628a35.828,35.828,0,0,1,3.077-2.289,32.24,32.24,0,0,1,5.626-3.271,22.911,22.911,0,0,1,7.538-2.044.054.054,0,0,0,.022-.105" transform="translate(-7.064 -2.527)" fill="#d6bd81"/>
      <path id="Path_124703" data-name="Path 124703" d="M161.3,25.189a.059.059,0,0,1,.011-.118h.008a10.192,10.192,0,0,1,6.628,2.211.068.068,0,0,0,.107-.075,7.5,7.5,0,0,0-7.1-4.316c-.223,0-.44.013-.655.033a.06.06,0,0,1-.047-.108,6.3,6.3,0,0,1,3.243-1.1.059.059,0,0,0,.03-.109,5.639,5.639,0,0,0-2.844-.755,5.487,5.487,0,0,0-2.918.84l-.1-.041a6.438,6.438,0,0,0-.654-1.746c-.019-.036-.056-.1-.089-.154a.064.064,0,0,0-.056-.031.07.07,0,0,0-.059.031c-.033.054-.07.118-.089.154a6.437,6.437,0,0,0-.654,1.746l-.1.041a5.487,5.487,0,0,0-2.918-.84,5.637,5.637,0,0,0-2.844.755.059.059,0,0,0,.029.109,6.3,6.3,0,0,1,3.244,1.1.06.06,0,0,1-.048.108c-.214-.02-.433-.03-.654-.033a7.5,7.5,0,0,0-7.1,4.316.068.068,0,0,0,.107.075,10.192,10.192,0,0,1,6.628-2.211h.008a.059.059,0,0,1,.011.118c-3.481.7-6.214,3.008-6.942,5.965a.069.069,0,0,0,.115.066,13.836,13.836,0,0,1,5.452-3.162.065.065,0,0,1,.062.11,10.222,10.222,0,0,0-3.487,7.434c0,.1,0,.21,0,.316,0,.062.1.092.129.037a13.692,13.692,0,0,1,3.832-4.607.067.067,0,0,1,.1.077,12.377,12.377,0,0,0-.758,4.151,12.66,12.66,0,0,0,.466,3.546.067.067,0,0,0,.13-.006,15.737,15.737,0,0,1,2.932-6.333c.041-.056.141-.014.122.051a10.2,10.2,0,0,0-.251,6.626.07.07,0,0,0,.133-.017c.037-.6,1.99-6.231,2.4-6.231s2.361,5.631,2.4,6.231a.07.07,0,0,0,.133.017,10.2,10.2,0,0,0-.251-6.626c-.019-.065.081-.107.122-.051a15.738,15.738,0,0,1,2.932,6.333.067.067,0,0,0,.13.006,12.66,12.66,0,0,0,.466-3.546,12.4,12.4,0,0,0-.758-4.151.069.069,0,0,1,.108-.077,13.768,13.768,0,0,1,3.828,4.607c.026.055.129.026.129-.037,0-.106,0-.212,0-.316a10.222,10.222,0,0,0-3.487-7.434.066.066,0,0,1,.066-.11,13.848,13.848,0,0,1,5.448,3.162.069.069,0,0,0,.115-.066c-.729-2.957-3.462-5.262-6.942-5.965" transform="translate(-7.729 -1.047)" fill="#d6bd81"/>
      <path id="Path_124704" data-name="Path 124704" d="M157.406,29.946h0s-1.668,14.025-1.668,19.77,1.668,6.068,1.668,6.068,1.661-.323,1.661-6.068-1.661-19.77-1.661-19.77" transform="translate(-8.273 -1.592)" fill="#d6bd81"/>
    </g>
  </g>
  <g id="Txt">
    <path id="Path_124694" data-name="Path 124694" d="M23,16.568a2.445,2.445,0,0,0,1.742-.66,2.278,2.278,0,0,0,.681-1.68,2.333,2.333,0,0,0-.681-1.722A2.448,2.448,0,0,0,23,11.847a2.306,2.306,0,0,0-1.661.659,2.379,2.379,0,0,0-.681,1.722,2.278,2.278,0,0,0,.681,1.68,2.3,2.3,0,0,0,1.661.66" transform="translate(-1.098 -0.629)" fill="#fff"/>
    <path id="Path_124695" data-name="Path 124695" d="M58.377,16.568a2.445,2.445,0,0,0,1.742-.66,2.278,2.278,0,0,0,.681-1.68,2.333,2.333,0,0,0-.681-1.722,2.448,2.448,0,0,0-1.742-.659,2.306,2.306,0,0,0-1.661.659,2.391,2.391,0,0,0-.677,1.722,2.285,2.285,0,0,0,2.338,2.34" transform="translate(-2.977 -0.629)" fill="#fff"/>
    <path id="Path_124696" data-name="Path 124696" d="M63.725,16.568a2.445,2.445,0,0,0,1.742-.66,2.278,2.278,0,0,0,.681-1.68,2.333,2.333,0,0,0-.681-1.722,2.448,2.448,0,0,0-1.742-.659,2.293,2.293,0,0,0-1.661.659,2.379,2.379,0,0,0-.681,1.722,2.291,2.291,0,0,0,2.342,2.34" transform="translate(-3.262 -0.629)" fill="#fff"/>
    <path id="Path_124697" data-name="Path 124697" d="M92.831,20.587c-.625.389-2.744,1.457-8.662,2.736A11.528,11.528,0,0,0,78.3,26.364a10.686,10.686,0,0,0-3.04,7.91v9.8a.164.164,0,0,0,.163.167H88.314A4.714,4.714,0,0,1,83.6,48.957H75.772a.12.12,0,0,0-.111.167L77.448,53.5a.358.358,0,0,0,.332.224l5.844-.011a9.452,9.452,0,0,0,9.432-9.452V20.716a.149.149,0,0,0-.225-.13M88.293,39.5H80.019V34.38a6.007,6.007,0,0,1,1.938-4.764,6.123,6.123,0,0,1,1.316-.857,9.6,9.6,0,0,1,2.342-.791l2.678-.563Z" transform="translate(-3.998 -1.092)" fill="#fff"/>
    <path id="Path_124705" data-name="Path 124705" d="M68.243,20.123c-.625.389-2.744,1.457-8.666,2.736A11.559,11.559,0,0,0,53.707,25.9a10.716,10.716,0,0,0-3.04,7.91v5.229h-8.3V11.965a.123.123,0,0,0-.167-.116L37.71,13.486a.125.125,0,0,0-.081.116V43.639a.141.141,0,0,0,.14.142H68.325a.146.146,0,0,0,.144-.144V20.253a.149.149,0,0,0-.225-.13M63.7,39.039H55.431V33.916a6.007,6.007,0,0,1,1.938-4.764,6.254,6.254,0,0,1,1.32-.857,9.548,9.548,0,0,1,2.334-.791l2.682-.563Z" transform="translate(-2 -0.629)" fill="#fff"/>
    <path id="Path_124706" data-name="Path 124706" d="M30.629,20.587c-.629.389-2.748,1.457-8.663,2.736a11.526,11.526,0,0,0-5.873,3.041,10.7,10.7,0,0,0-3.04,7.91V39.5H8.869a4.447,4.447,0,0,1-2.292-.957,5.118,5.118,0,0,1-1.769-4.273v-8.86a.112.112,0,0,0-.144-.107L.085,26.585A.112.112,0,0,0,0,26.693v8.366a8.906,8.906,0,0,0,2.852,6.995A8.285,8.285,0,0,0,7.72,44.244H30.711a.139.139,0,0,0,.14-.142V20.716a.147.147,0,0,0-.222-.13M26.087,39.5h-8.27V34.38a6,6,0,0,1,1.934-4.764,6.254,6.254,0,0,1,1.32-.857,9.522,9.522,0,0,1,2.338-.791l2.678-.563Z" transform="translate(0 -1.092)" fill="#fff"/>
    <path id="Path_124707" data-name="Path 124707" d="M103.65,13.01l-4.495,1.636a.119.119,0,0,0-.08.116V43.7a.142.142,0,0,0,.144.144h4.452a.146.146,0,0,0,.145-.144V13.126a.125.125,0,0,0-.166-.116" transform="translate(-5.264 -0.691)" fill="#fff"/>
    <path id="Path_124708" data-name="Path 124708" d="M99.208,12.986l4.542-1.742a.1.1,0,0,0,.066-.093V9.37a.1.1,0,0,0-.136-.094l-4.542,1.742a.1.1,0,0,0-.063.094v1.779a.1.1,0,0,0,.134.094" transform="translate(-5.264 -0.492)" fill="#fff"/>
    <path id="Path_124709" data-name="Path 124709" d="M103.816,4.95V6.761a.24.24,0,0,1-.1.192,6.581,6.581,0,0,1-1.717.86c-1.6.438-1.3,2.307-.218,1.98,1.05-.315-1.843,2.022-1.8,1.991a5.622,5.622,0,0,0,.107-.855,2.427,2.427,0,0,1-1.013-1.782c0-1.084.584-2.265,2.619-2.936a3.741,3.741,0,0,0,2.012-1.3.061.061,0,0,1,.111.035" transform="translate(-5.264 -0.26)" fill="#fff"/>
    <path id="Path_124710" data-name="Path 124710" d="M6.332,72.012h6.743l-3.359-9.17Zm8.592,5.375-1.236-3.5H5.747l-1.265,3.5H1.371L7.03,63.317a5.494,5.494,0,0,1,2.755-2.832,4.5,4.5,0,0,0,1.106-.858L18.03,77.388Z" transform="translate(-0.072 -3.168)" fill="#fff"/>
    <path id="Path_124711" data-name="Path 124711" d="M36.782,77.431,32.713,64.053,28.648,77.431h-2.67L21.971,63.166a2.146,2.146,0,0,1,2.064-2.727l3.417,14.32,3.71-12.771a2.147,2.147,0,0,1,2.064-1.548h.588l4.162,14.32L41,62.088a2.146,2.146,0,0,1,2.09-1.649h1.135L39.448,77.431Z" transform="translate(-1.162 -3.211)" fill="#fff"/>
    <path id="Path_124712" data-name="Path 124712" d="M91.59,77.431V64.842a4.4,4.4,0,0,1,4.4-4.4h6.773a2.291,2.291,0,0,1-2.26,1.924H94.46v5.646h7.016v1.925H94.46v7.5Z" transform="translate(-4.865 -3.211)" fill="#fff"/>
    <path id="Path_124713" data-name="Path 124713" d="M56.9,62.264a3.67,3.67,0,0,0-3.244,1.361,6.455,6.455,0,0,0-.78,3.594v3.455c0,1.9.347,3.19,1.061,3.955a3.9,3.9,0,0,0,2.963,1,3.67,3.67,0,0,0,3.244-1.362,6.452,6.452,0,0,0,.78-3.593V63.289a2.4,2.4,0,0,1,.348-1.263,6.1,6.1,0,0,1-1.461.238Zm0,15.259a10.37,10.37,0,0,1-3.411-.481,5.234,5.234,0,0,1-2.226-1.5,4.486,4.486,0,0,1-.954-1.786,10.718,10.718,0,0,1-.3-2.808V66.772a10.31,10.31,0,0,1,.355-3.007,4.446,4.446,0,0,1,1.157-1.885A5.714,5.714,0,0,1,53.695,60.6a10.653,10.653,0,0,1,3.2-.412c4.124,0,6.025-.662,6.894-1.207V70.944a10.323,10.323,0,0,1-.355,3.007,4.463,4.463,0,0,1-1.157,1.884,5.688,5.688,0,0,1-2.167,1.276,10.616,10.616,0,0,1-3.215.411" transform="translate(-2.656 -3.133)" fill="#fff"/>
    <path id="Path_124714" data-name="Path 124714" d="M74.32,72.012h6.743l-3.355-9.17Zm8.6,5.375-1.239-3.5h-7.94l-1.265,3.5H69.363l5.656-14.071a5.506,5.506,0,0,1,2.759-2.832,4.542,4.542,0,0,0,1.1-.858l7.138,17.761Z" transform="translate(-3.686 -3.168)" fill="#fff"/>
    <rect id="Rectangle_14086" data-name="Rectangle 14086" width="1.906" height="7.303" transform="matrix(0.707, -0.707, 0.707, 0.707, 54.371, 71.094)" fill="#fff"/>
  </g>
</svg>
