<svg xmlns="http://www.w3.org/2000/svg" width="179.919" height="85.48" viewBox="0 0 179.919 85.48">
  <g id="footer-Logo" transform="translate(-137.297)">
    <g id="Group_55943" data-name="Group 55943" transform="translate(137.297)">
      <g id="Group_55945" data-name="Group 55945" transform="translate(0)">
        <g id="Group_55991" data-name="Group 55991" transform="translate(0 4.624)">
          <path id="Path_122794" data-name="Path 122794" d="M154.989,13.521a2.445,2.445,0,0,0,1.743-.659,2.279,2.279,0,0,0,.68-1.678,2.335,2.335,0,0,0-.68-1.721,2.449,2.449,0,0,0-1.743-.658,2.292,2.292,0,0,0-1.657.658,2.378,2.378,0,0,0-.68,1.721,2.288,2.288,0,0,0,2.337,2.337" transform="translate(-133.109 -2.221)" fill="#fff"/>
          <path id="Path_122795" data-name="Path 122795" d="M181.28,13.521a2.442,2.442,0,0,0,1.741-.659,2.279,2.279,0,0,0,.68-1.678,2.335,2.335,0,0,0-.68-1.721A2.446,2.446,0,0,0,181.28,8.8a2.291,2.291,0,0,0-1.657.658,2.372,2.372,0,0,0-.68,1.721,2.288,2.288,0,0,0,2.337,2.337" transform="translate(-125.935 -2.221)" fill="#fff"/>
          <path id="Path_122796" data-name="Path 122796" d="M185.254,13.521A2.447,2.447,0,0,0,187,12.862a2.284,2.284,0,0,0,.68-1.678A2.34,2.34,0,0,0,187,9.463a2.451,2.451,0,0,0-1.743-.658,2.292,2.292,0,0,0-1.657.658,2.373,2.373,0,0,0-.68,1.721,2.288,2.288,0,0,0,2.337,2.337" transform="translate(-124.849 -2.221)" fill="#fff"/>
          <path id="Path_122797" data-name="Path 122797" d="M206.251,34.2h-8.266V29.086a6,6,0,0,1,1.935-4.759,6.242,6.242,0,0,1,1.317-.857,9.545,9.545,0,0,1,2.337-.789l2.677-.563Zm4.535-18.9c-.625.388-2.742,1.456-8.657,2.733a11.521,11.521,0,0,0-5.864,3.038,10.682,10.682,0,0,0-3.037,7.9v9.795a.165.165,0,0,0,.164.167h12.88a4.708,4.708,0,0,1-4.71,4.708h-7.821a.121.121,0,0,0-.112.167l1.786,4.367a.358.358,0,0,0,.333.224l5.837-.011a9.442,9.442,0,0,0,9.423-9.443V15.434a.148.148,0,0,0-.224-.129" transform="translate(-122.037 -0.454)" fill="#fff"/>
          <path id="Path_122798" data-name="Path 122798" d="M191.315,35.973h-8.266V30.855a6,6,0,0,1,1.934-4.759,6.253,6.253,0,0,1,1.319-.857,9.564,9.564,0,0,1,2.334-.789l2.679-.563Zm4.534-18.9c-.625.388-2.743,1.456-8.657,2.733a11.521,11.521,0,0,0-5.864,3.038,10.683,10.683,0,0,0-3.038,7.9v5.224H170V8.923a.124.124,0,0,0-.165-.116l-4.491,1.636a.122.122,0,0,0-.081.116V40.568a.143.143,0,0,0,.141.143h30.526a.145.145,0,0,0,.145-.144V17.2a.149.149,0,0,0-.225-.129" transform="translate(-129.668 -2.223)" fill="#fff"/>
          <path id="Path_122799" data-name="Path 122799" d="M163.36,34.2H155.1V29.086a6,6,0,0,1,1.932-4.759,6.254,6.254,0,0,1,1.319-.857,9.528,9.528,0,0,1,2.337-.789l2.676-.563Zm4.537-18.9c-.626.388-2.746,1.456-8.657,2.733a11.525,11.525,0,0,0-5.865,3.038,10.687,10.687,0,0,0-3.037,7.9V34.2h-4.18a4.461,4.461,0,0,1-2.294-.957,5.123,5.123,0,0,1-1.764-4.269V20.126a.112.112,0,0,0-.143-.107L137.379,21.3a.111.111,0,0,0-.081.107v8.359a8.893,8.893,0,0,0,2.847,6.988,8.272,8.272,0,0,0,4.864,2.189h22.97a.142.142,0,0,0,.141-.143V15.434a.148.148,0,0,0-.224-.129" transform="translate(-137.298 -0.454)" fill="#fff"/>
          <path id="Path_122800" data-name="Path 122800" d="M215.5,9.671,211.008,11.3a.125.125,0,0,0-.081.116V40.332a.145.145,0,0,0,.144.144h4.45a.145.145,0,0,0,.144-.144V9.786a.123.123,0,0,0-.164-.116" transform="translate(-117.207 -1.988)" fill="#fff"/>
          <path id="Path_122801" data-name="Path 122801" d="M211.062,10.6,215.6,8.861a.1.1,0,0,0,.064-.093V6.989a.1.1,0,0,0-.135-.093l-4.538,1.741a.1.1,0,0,0-.065.094v1.777a.1.1,0,0,0,.135.093" transform="translate(-117.207 -2.744)" fill="#fff"/>
          <path id="Path_122802" data-name="Path 122802" d="M215.666,3.694V5.5a.237.237,0,0,1-.1.191,6.635,6.635,0,0,1-1.716.86c-1.6.438-1.3,2.3-.216,1.978,1.048-.316-1.842,2.019-1.8,1.988a5.914,5.914,0,0,0,.107-.853,2.427,2.427,0,0,1-1.016-1.781c0-1.083.587-2.264,2.617-2.935a3.743,3.743,0,0,0,2.014-1.293.059.059,0,0,1,.108.034" transform="translate(-117.207 -3.633)" fill="#fff"/>
          <path id="Path_122803" data-name="Path 122803" d="M151.855,62.059l-1.236-3.5h-7.933l-1.265,3.5h-3.1L143.966,48a5.51,5.51,0,0,1,2.757-2.83,4.569,4.569,0,0,0,1.1-.857l7.132,17.744Zm-8.586-5.37H150l-3.353-9.162Z" transform="translate(-137.021 7.468)" fill="#fff"/>
          <path id="Path_122804" data-name="Path 122804" d="M168.442,61.894l-4.063-13.365-4.063,13.365H157.65l-4-14.251a2.144,2.144,0,0,1,2.065-2.725l3.414,14.307,3.705-12.761a2.148,2.148,0,0,1,2.06-1.547h.589l4.156,14.307,3.021-12.66a2.147,2.147,0,0,1,2.086-1.647h1.135l-4.768,16.976Z" transform="translate(-132.859 7.632)" fill="#fff"/>
          <path id="Path_122805" data-name="Path 122805" d="M205.367,61.894V49.317a4.4,4.4,0,0,1,4.4-4.4h6.767a2.291,2.291,0,0,1-2.258,1.923h-6.039v5.64h7.007v1.925h-7.007v7.488Z" transform="translate(-118.725 7.632)" fill="#fff"/>
          <path id="Path_122806" data-name="Path 122806" d="M181.349,62.358a10.348,10.348,0,0,1-3.409-.481,5.217,5.217,0,0,1-2.224-1.5,4.516,4.516,0,0,1-.955-1.785,10.645,10.645,0,0,1-.3-2.805V51.617a10.34,10.34,0,0,1,.354-3,4.47,4.47,0,0,1,1.157-1.883,5.71,5.71,0,0,1,2.178-1.275,10.672,10.672,0,0,1,3.2-.411c4.116,0,6.019-.662,6.888-1.205V55.785a10.339,10.339,0,0,1-.354,3,4.492,4.492,0,0,1-1.157,1.884,5.718,5.718,0,0,1-2.165,1.275,10.624,10.624,0,0,1-3.211.41m0-15.245a3.662,3.662,0,0,0-3.241,1.359,6.436,6.436,0,0,0-.78,3.591v3.452c0,1.9.348,3.187,1.062,3.952a3.9,3.9,0,0,0,2.959,1,3.663,3.663,0,0,0,3.241-1.359,6.448,6.448,0,0,0,.779-3.591V48.138a2.394,2.394,0,0,1,.347-1.261,6.132,6.132,0,0,1-1.457.237Z" transform="translate(-127.157 7.339)" fill="#fff"/>
          <path id="Path_122807" data-name="Path 122807" d="M202.386,62.059l-1.236-3.5h-7.933l-1.265,3.5h-3.1L194.5,48a5.506,5.506,0,0,1,2.757-2.83,4.594,4.594,0,0,0,1.1-.857l7.131,17.744Zm-8.586-5.37h6.735l-3.353-9.162Z" transform="translate(-123.231 7.468)" fill="#fff"/>
          <rect id="Rectangle_13982" data-name="Rectangle 13982" width="1.903" height="7.296" transform="translate(54.32 66.406) rotate(-45)" fill="#fff"/>
        </g>
        <path id="Path_122808" data-name="Path 122808" d="M276.928,9.19c-7.627-2.832-13.9-6.2-15.948-9.19h0c-2.042,2.989-8.321,6.358-15.948,9.19-8.989,3.34-14.978,8.305-14.978,21.688V54.6c0,13.383,5.989,18.348,14.978,21.688,7.627,2.832,13.906,6.2,15.948,9.19h0c2.043-2.99,8.321-6.358,15.948-9.19,8.989-3.34,14.978-8.305,14.978-21.688V30.879c0-13.383-5.989-18.348-14.978-21.688" transform="translate(-111.987)" fill="#fff"/>
        <path id="Path_122809" data-name="Path 122809" d="M260.078,78.631l-.221-.163c-3.292-2.425-8.147-4.837-14.431-7.166-4.53-1.68-7.258-3.428-9.123-5.844-2.165-2.8-3.173-6.606-3.173-11.965V29.446c0-5.359,1.008-9.161,3.173-11.965,1.865-2.416,4.594-4.164,9.123-5.844,6.28-2.327,11.135-4.738,14.431-7.166l.221-.163.221.162a61.665,61.665,0,0,0,14.4,7.168c4.53,1.68,7.258,3.427,9.124,5.843,2.165,2.8,3.174,6.606,3.174,11.965V53.494c0,5.359-1.008,9.161-3.174,11.965-1.865,2.416-4.594,4.164-9.124,5.844-4.263,1.581-10.223,4.108-14.4,7.167Zm0-73.4a62.125,62.125,0,0,1-14.393,7.1c-7.659,2.841-11.809,6.409-11.809,17.109V53.494c0,10.7,4.15,14.268,11.809,17.109a62.187,62.187,0,0,1,14.393,7.1c4.235-3.038,10.129-5.534,14.362-7.1,7.66-2.841,11.811-6.409,11.811-17.109V29.446c0-10.7-4.151-14.267-11.811-17.107A62.442,62.442,0,0,1,260.079,5.233Z" transform="translate(-111.072 1.269)" fill="#dcb853" stroke="#dcb853" stroke-width="0.705"/>
        <path id="Path_122810" data-name="Path 122810" d="M267.421,47.9a.978.978,0,0,0-.44-.088l0,0a1,1,0,0,0-.26.042c-.019.006-.037.015-.055.022a.98.98,0,0,0-.162.073l-.008,0h0a.919.919,0,0,0-.1.079.454.454,0,0,0-.052.028c-.009.009-.014.022-.023.031a.339.339,0,0,0-.042.033l0,.015a.932.932,0,0,0-.172.219,1.84,1.84,0,0,1-1.034.149,10.68,10.68,0,0,1-3.406-.906q-.611-.252-1.273-.568c-.006.024-.829.831-1.054,1.091a2.2,2.2,0,0,0-.546.934l.388.191a15,15,0,0,0,6.042,1.767A4.7,4.7,0,0,0,266.3,50.9a2.335,2.335,0,0,0,1.679-1.238,1.3,1.3,0,0,0-.56-1.758" transform="translate(-104.144 12.834)" fill="#d9a93d"/>
        <path id="Path_122811" data-name="Path 122811" d="M250.3,47.032q-.659.317-1.273.568a10.675,10.675,0,0,1-3.4.906,1.836,1.836,0,0,1-1.034-.149.972.972,0,0,0-.173-.219l.005-.015a.483.483,0,0,0-.042-.033c-.01-.009-.015-.022-.024-.031a.51.51,0,0,0-.051-.028c-.036-.027-.069-.06-.1-.08h0l-.008,0a.835.835,0,0,0-.162-.071c-.019-.008-.036-.017-.055-.023a.989.989,0,0,0-.26-.042v0a.978.978,0,0,0-.44.088,1.3,1.3,0,0,0-.561,1.757,2.33,2.33,0,0,0,1.68,1.24,4.69,4.69,0,0,0,1.074.115,15.01,15.01,0,0,0,6.041-1.767c.1-.046.388-.191.388-.191a2.215,2.215,0,0,0-.545-.934c-.225-.26-1.048-1.067-1.055-1.091" transform="translate(-108.568 12.834)" fill="#d9a93d"/>
        <path id="Path_122812" data-name="Path 122812" d="M282.48,35.994l-.05-.019c-.088-.027-.447-.144-.771-.246a9.046,9.046,0,0,0-2.714-.363c-.33,0-.667.011-1.008.033a17.559,17.559,0,0,0-5.751,1.446,36.392,36.392,0,0,0-7.482,4.717c-1.946,1.471-3.719,2.886-5.383,4.127-1.664-1.241-3.437-2.655-5.383-4.127a36.421,36.421,0,0,0-7.481-4.717,17.573,17.573,0,0,0-5.751-1.446c-.341-.022-.678-.033-1.009-.033a9.057,9.057,0,0,0-2.714.363c-.323.1-.684.219-.771.246l-.05.019a.054.054,0,0,0,.025.1,22.848,22.848,0,0,1,7.528,2.043,32.023,32.023,0,0,1,5.621,3.267,35.271,35.271,0,0,1,3.074,2.286q2.415,2,4.617,3.625c-.145.1-.292.2-.434.29q-1.8,1.167-3.391,2c-1.279-1.385-1.064-2.28-1.064-2.28a.858.858,0,0,0-.948-.132c-.769.621.009,1.559.994,2.542.08.08.559.56.565.558a11.143,11.143,0,0,1,1.012,1.154,1.552,1.552,0,0,1,.1.168,2.134,2.134,0,0,1-.034,2.352c.633.72,1,.4,1,.4.715-.433.6-1.562.006-2.641a51.3,51.3,0,0,0,4.488-2.78,51.462,51.462,0,0,0,4.488,2.78c-.591,1.079-.708,2.208.006,2.641,0,0,.369.321,1-.4a2.133,2.133,0,0,1-.036-2.352,1.542,1.542,0,0,1,.1-.168,11.013,11.013,0,0,1,1.011-1.154c.006,0,.485-.477.565-.558.985-.983,1.764-1.921.994-2.542a.858.858,0,0,0-.948.132s.215.895-1.064,2.28c-1.055-.554-2.188-1.221-3.39-2-.144-.093-.29-.193-.434-.29q2.2-1.627,4.614-3.625a35.668,35.668,0,0,1,3.075-2.286,32.067,32.067,0,0,1,5.62-3.267,22.864,22.864,0,0,1,7.53-2.043.054.054,0,0,0,.024-.1" transform="translate(-110.329 9.65)" fill="#dcb853"/>
        <path id="Path_122813" data-name="Path 122813" d="M261.22,20.12a.059.059,0,0,1,.012-.118h.006a10.17,10.17,0,0,1,6.623,2.21.067.067,0,0,0,.106-.075,7.485,7.485,0,0,0-7.092-4.312c-.22,0-.439.014-.657.033a.06.06,0,0,1-.046-.108,6.282,6.282,0,0,1,3.238-1.095.06.06,0,0,0,.032-.111,5.636,5.636,0,0,0-2.842-.752,5.454,5.454,0,0,0-2.914.839l-.1-.042a6.415,6.415,0,0,0-.653-1.744c-.018-.036-.056-.1-.089-.154a.067.067,0,0,0-.057-.032.066.066,0,0,0-.057.032l-.09.154a6.5,6.5,0,0,0-.65,1.744l-.1.042a5.463,5.463,0,0,0-2.916-.839,5.62,5.62,0,0,0-2.84.752.06.06,0,0,0,.028.111,6.275,6.275,0,0,1,3.239,1.095.06.06,0,0,1-.045.108c-.216-.019-.435-.031-.657-.033a7.485,7.485,0,0,0-7.092,4.312.067.067,0,0,0,.106.075A10.168,10.168,0,0,1,252.338,20h0a.06.06,0,0,1,.014.118c-3.479.7-6.208,3.005-6.937,5.961a.068.068,0,0,0,.113.065,13.85,13.85,0,0,1,5.447-3.158.065.065,0,0,1,.064.109,10.216,10.216,0,0,0-3.484,7.426c0,.106,0,.211,0,.317,0,.062.1.092.129.037a13.683,13.683,0,0,1,3.828-4.6.068.068,0,0,1,.106.076,12.336,12.336,0,0,0-.759,4.147,12.764,12.764,0,0,0,.466,3.542.065.065,0,0,0,.127-.005,15.776,15.776,0,0,1,2.933-6.327c.041-.056.139-.014.121.051a10.212,10.212,0,0,0-.252,6.62.069.069,0,0,0,.131-.018c.041-.6,1.992-6.224,2.4-6.224s2.357,5.625,2.4,6.224a.069.069,0,0,0,.131.018,10.2,10.2,0,0,0-.252-6.62.068.068,0,0,1,.121-.051,15.708,15.708,0,0,1,2.933,6.327.066.066,0,0,0,.129.005,12.67,12.67,0,0,0,.465-3.542,12.335,12.335,0,0,0-.757-4.147.068.068,0,0,1,.106-.076,13.745,13.745,0,0,1,3.829,4.6c.025.055.126.025.126-.037.005-.106.005-.211,0-.317a10.207,10.207,0,0,0-3.484-7.426.065.065,0,0,1,.064-.109,13.845,13.845,0,0,1,5.448,3.158.069.069,0,0,0,.115-.065c-.732-2.956-3.461-5.258-6.938-5.961" transform="translate(-107.795 4)" fill="#dcb853"/>
        <path id="Path_122814" data-name="Path 122814" d="M254.706,22.256h0s-1.662,14.012-1.662,19.751,1.662,6.063,1.662,6.063,1.662-.323,1.662-6.063-1.662-19.751-1.662-19.751" transform="translate(-105.713 6.073)" fill="#dcb853"/>
      </g>
    </g>
  </g>
</svg>
