<svg xmlns="http://www.w3.org/2000/svg" xmlns:xlink="http://www.w3.org/1999/xlink" width="675" height="529" viewBox="0 0 675 529">
  <defs>
    <clipPath id="clip-path">
      <rect id="Rectangle_14212" data-name="Rectangle 14212" width="549.71" height="421.645" fill="none"/>
    </clipPath>
    <linearGradient id="linear-gradient" x1="0.357" y1="0.399" x2="0.386" y2="0.666" gradientUnits="objectBoundingBox">
      <stop offset="0" stop-color="#ffc05c"/>
      <stop offset="1" stop-color="#ff3857"/>
    </linearGradient>
    <linearGradient id="linear-gradient-2" x1="0.368" y1="0.286" x2="0.5" y2="1" gradientUnits="objectBoundingBox">
      <stop offset="0" stop-color="#4cc0ad"/>
      <stop offset="1" stop-color="#1c614e"/>
    </linearGradient>
    <linearGradient id="linear-gradient-3" x1="-2.633" y1="5.485" x2="-2.631" y2="5.485" gradientUnits="objectBoundingBox">
      <stop offset="0" stop-color="#8fd6ff"/>
      <stop offset="1" stop-color="#bfebfe"/>
    </linearGradient>
    <linearGradient id="linear-gradient-4" x1="-2.625" y1="6.043" x2="-2.623" y2="6.043" xlink:href="#linear-gradient-3"/>
    <clipPath id="clip-path-4">
      <rect id="Rectangle_14229" data-name="Rectangle 14229" width="136.433" height="161.429" fill="none"/>
    </clipPath>
    <clipPath id="clip-path-5">
      <path id="Path_126315" data-name="Path 126315" d="M359.522,969.632H248.02a12.465,12.465,0,0,1-12.465-12.465v-136.5A12.465,12.465,0,0,1,248.02,808.2h111.5a12.465,12.465,0,0,1,12.465,12.466v136.5a12.465,12.465,0,0,1-12.465,12.465" transform="translate(-235.555 -808.204)" fill="none"/>
    </clipPath>
    <linearGradient id="linear-gradient-5" x1="0.5" x2="0.5" y2="1" gradientUnits="objectBoundingBox">
      <stop offset="0" stop-color="#00846c"/>
      <stop offset="1" stop-color="#1c614e"/>
    </linearGradient>
    <clipPath id="clip-path-6">
      <rect id="Rectangle_14230" data-name="Rectangle 14230" width="39.771" height="39.772" fill="none"/>
    </clipPath>
    <clipPath id="clip-path-7">
      <rect id="Rectangle_14240" data-name="Rectangle 14240" width="4.488" height="24.948" fill="none"/>
    </clipPath>
    <linearGradient id="linear-gradient-6" x1="-25.789" y1="8.451" x2="-25.739" y2="8.451" gradientUnits="objectBoundingBox">
      <stop offset="0" stop-color="#d5e4ff"/>
      <stop offset="1" stop-color="#edfffe"/>
    </linearGradient>
    <clipPath id="clip-path-8">
      <rect id="Rectangle_14242" data-name="Rectangle 14242" width="4.488" height="31.599" fill="none"/>
    </clipPath>
    <linearGradient id="linear-gradient-7" x1="-27.545" y1="6.883" x2="-27.494" y2="6.883" xlink:href="#linear-gradient-6"/>
    <clipPath id="clip-path-9">
      <rect id="Rectangle_14244" data-name="Rectangle 14244" width="4.488" height="28.12" fill="none"/>
    </clipPath>
    <linearGradient id="linear-gradient-8" x1="-29.387" y1="7.61" x2="-29.337" y2="7.61" xlink:href="#linear-gradient-6"/>
    <clipPath id="clip-path-10">
      <rect id="Rectangle_14246" data-name="Rectangle 14246" width="4.488" height="20.041" fill="none"/>
    </clipPath>
    <linearGradient id="linear-gradient-9" x1="-31.281" y1="10.275" x2="-31.23" y2="10.275" xlink:href="#linear-gradient-6"/>
    <clipPath id="clip-path-12">
      <rect id="Rectangle_14253" data-name="Rectangle 14253" width="4.488" height="16.738" fill="none"/>
    </clipPath>
    <linearGradient id="linear-gradient-10" x1="-33.206" y1="12.106" x2="-33.155" y2="12.106" xlink:href="#linear-gradient-6"/>
    <clipPath id="clip-path-13">
      <rect id="Rectangle_14255" data-name="Rectangle 14255" width="4.488" height="29.048" fill="none"/>
    </clipPath>
    <linearGradient id="linear-gradient-11" x1="-34.963" y1="7.399" x2="-34.912" y2="7.399" xlink:href="#linear-gradient-6"/>
    <clipPath id="clip-path-14">
      <rect id="Rectangle_14257" data-name="Rectangle 14257" width="4.488" height="23.72" fill="none"/>
    </clipPath>
    <linearGradient id="linear-gradient-12" x1="-36.807" y1="8.837" x2="-36.757" y2="8.837" xlink:href="#linear-gradient-6"/>
    <clipPath id="clip-path-15">
      <rect id="Rectangle_14259" data-name="Rectangle 14259" width="4.488" height="36.645" fill="none"/>
    </clipPath>
    <linearGradient id="linear-gradient-13" x1="-38.698" y1="6.073" x2="-38.648" y2="6.073" xlink:href="#linear-gradient-6"/>
  </defs>
  <g id="Governance" transform="translate(-240 -1117)">
    <rect id="Rectangle_11319" data-name="Rectangle 11319" width="675" height="529" transform="translate(240 1117)" fill="none"/>
    <ellipse id="Ellipse_11299" data-name="Ellipse 11299" cx="297.873" cy="40.754" rx="297.873" ry="40.754" transform="translate(275.158 1551.136) rotate(-0.162)" fill="#f1f1f1"/>
    <g id="Group_56663" data-name="Group 56663" transform="translate(298.29 1175.402)">
      <rect id="Rectangle_14193" data-name="Rectangle 14193" width="1.128" height="132.321" transform="translate(213.8 200.66)" fill="#e0e0e0"/>
      <rect id="Rectangle_14194" data-name="Rectangle 14194" width="1.128" height="132.321" transform="translate(294.022 200.66)" fill="#e0e0e0"/>
      <rect id="Rectangle_14195" data-name="Rectangle 14195" width="1.128" height="132.321" transform="translate(374.245 200.66)" fill="#e0e0e0"/>
      <rect id="Rectangle_14196" data-name="Rectangle 14196" width="19.215" height="3.449" transform="translate(134.142 184.355)" fill="#d9d9d9"/>
      <rect id="Rectangle_14197" data-name="Rectangle 14197" width="27.256" height="3.449" transform="translate(134.142 190.731)" fill="#d9d9d9"/>
      <rect id="Rectangle_14198" data-name="Rectangle 14198" width="22.559" height="3.449" transform="translate(213.5 184.355)" fill="#d9d9d9"/>
      <rect id="Rectangle_14199" data-name="Rectangle 14199" width="14.424" height="3.449" transform="translate(213.5 190.731)" fill="#d9d9d9"/>
      <rect id="Rectangle_14200" data-name="Rectangle 14200" width="13.979" height="3.449" transform="translate(295.151 184.355)" fill="#d9d9d9"/>
      <rect id="Rectangle_14201" data-name="Rectangle 14201" width="16.293" height="3.449" transform="translate(295.151 190.731)" fill="#d9d9d9"/>
      <rect id="Rectangle_14202" data-name="Rectangle 14202" width="20.363" height="3.449" transform="translate(375.373 184.355)" fill="#d9d9d9"/>
      <rect id="Rectangle_14203" data-name="Rectangle 14203" width="16.293" height="3.449" transform="translate(375.373 190.731)" fill="#d9d9d9"/>
      <rect id="Rectangle_14204" data-name="Rectangle 14204" width="12.763" height="4.599" transform="translate(214.364 340.82)" fill="#b8b8b8"/>
      <rect id="Rectangle_14205" data-name="Rectangle 14205" width="12.763" height="4.599" transform="translate(295.151 340.82)" fill="#b8b8b8"/>
      <rect id="Rectangle_14206" data-name="Rectangle 14206" width="12.764" height="4.599" transform="translate(375.373 340.82)" fill="#b8b8b8"/>
      <rect id="Rectangle_14207" data-name="Rectangle 14207" width="12.763" height="4.599" transform="translate(455.595 340.82)" fill="#b8b8b8"/>
      <g id="Group_56674" data-name="Group 56674">
        <g id="Group_56673" data-name="Group 56673" clip-path="url(#clip-path)">
          <g id="Group_56667" data-name="Group 56667" transform="translate(134.142 234.966)" opacity="0.43">
            <g id="Group_56666" data-name="Group 56666" transform="translate(0 0)">
              <path id="Path_126365" data-name="Path 126365" d="M881.743,1089.8c-25.022,0-46.773-12.092-69.449-24.7-27.994-15.561-56.942-31.652-95.51-27.246-24.628,2.814-40.087,14.025-53.725,23.917-12.349,8.957-24.024,16.833-39.837,17.505-25.555,1.087-34.42-11.1-34.568-11.84v-7.819c.032.135,5.611,13.81,34.541,13.648,14.247-.08,24.762-7.707,36.937-16.537,14.149-10.262,30.186-21.893,56.105-24.854,40.114-4.583,69.771,11.9,98.451,27.844,30.01,16.681,58.646,32.324,94.855,18.752v6.429a73.921,73.921,0,0,1-27.8,4.9" transform="translate(-588.654 -1031.1)" fill="url(#linear-gradient)"/>
            </g>
          </g>
          <g id="Group_56672" data-name="Group 56672" transform="translate(134.142 217.051)" opacity="0.22">
            <g id="Group_56671" data-name="Group 56671" transform="translate(0 0)">
              <path id="Path_126366" data-name="Path 126366" d="M731.549,1027.6c-18.469,0-33.118-13.884-47.459-27.476-10.874-10.306-22.156-20.843-35.178-26.04-39.743-15.862-60.076,13.1-60.258,13.357v-8.811c.215-.3,3.842-5.566,14.335-10.592,9.553-4.576,25.581-8.227,47.69.369,14.007,5.446,25.639,16.471,36.889,27.132,22.82,21.628,42.529,40.305,76.756,11.049,25.923-22.159,50.36-43.275,74.4-50.99,23.517-7.545,48.035-2.021,70.985,23.633l-.169,8c-48.75-54.735-90.26-20.057-141.954,24.131-13.693,11.7-25.491,16.236-36.04,16.237" transform="translate(-588.654 -952.485)" fill="url(#linear-gradient-2)"/>
            </g>
          </g>
        </g>
      </g>
      <g id="Group_56676" data-name="Group 56676" transform="translate(336.854 112.732)">
        <path id="Path_126287" data-name="Path 126287" d="M1479.124,551.02l-.911-1.068,15.106-12.87h9.174l20.816-17.733,13.019,11.091h9.6l4.852,4.134,15.076-12.844h7.652l31.725-27.028.91,1.069-32.119,27.363h-7.652l-15.593,13.284-5.369-4.574h-9.6l-12.5-10.651-20.3,17.293h-9.174Z" transform="translate(-1478.214 -494.702)" fill="url(#linear-gradient-3)"/>
      </g>
      <g id="Group_56678" data-name="Group 56678" transform="translate(334.726 97.656)">
        <path id="Path_126288" data-name="Path 126288" d="M1474.1,482.162h-5.221v-1.4h4.639l7.84-7.839,5.7,5.7L1500.671,465l4.188,4.188,13.805-13.806,8.273,8.273h9.432l14.558-14.558h12.556l9.282-9.282h11.362l11.274-11.273.993.993-11.685,11.684h-11.362l-9.281,9.282H1551.51l-14.558,14.559h-10.6l-7.692-7.691-13.805,13.806-4.188-4.188L1487.055,480.6l-5.7-5.7Z" transform="translate(-1468.876 -428.544)" fill="url(#linear-gradient-4)"/>
      </g>
      <g id="Group_56680" data-name="Group 56680" transform="matrix(0.995, -0.105, 0.105, 0.995, 131.503, 49.44)">
        <path id="Path_126363" data-name="Path 126363" d="M60.635,206.821A114.449,114.449,0,0,1,126.471,61.706q1.629-.639,3.289-1.236A114.45,114.45,0,0,1,276.11,129.6q1.29,3.61,2.335,7.245a114.45,114.45,0,0,1-217.81,69.98M147.722,1.267c-.017,0-.038,0-.055.008l-.03-.008A167.713,167.713,0,0,0,106.8,11.7c-.025.009-.051.021-.077.03A168.29,168.29,0,1,0,255.3,312.416l7.069,9.818,33.314-23.99-8.042-11.168A168.486,168.486,0,0,0,330.21,122.184l-.025-.09A168.4,168.4,0,0,0,236.951,14.651h0a166.282,166.282,0,0,0-24.893-8.839,167.647,167.647,0,0,0-64.333-4.545" transform="translate(0 0)" fill="#e6f1e9"/>
      </g>
      <g id="Group_56682" data-name="Group 56682">
        <g id="Group_56681" data-name="Group 56681" clip-path="url(#clip-path)">
          <path id="Path_126290" data-name="Path 126290" d="M1746.523,197.11l-33.174,9.452-51.741,14.747q-1.042-3.636-2.334-7.245a114.1,114.1,0,0,0-61.07-65.887l21.907-49.058h0l2.3-5.163,11.773-26.367a202.845,202.845,0,0,1,112.33,129.521" transform="translate(-1234.007 -52.187)" fill="#c48145"/>
          <path id="Path_126291" data-name="Path 126291" d="M1391.988,132.028l-2.3,5.163-21.911,49.058a114.205,114.205,0,0,0-60.72-9.107l-6.6-53.334-.69-5.593a174.456,174.456,0,0,1,92.224,13.814" transform="translate(-1003.575 -90.259)" fill="#00846c"/>
          <path id="Path_126292" data-name="Path 126292" d="M1150.558,145.765A114.813,114.813,0,0,0,1126,151.634q-1.661.594-3.288,1.236l-19.671-50-5.955-15.135a183.633,183.633,0,0,1,44.845-11.471l.034.009,1.308,10.568.69,5.593Z" transform="translate(-847.081 -58.882)" fill="#1c614e"/>
        </g>
      </g>
      <g id="Group_56684" data-name="Group 56684" transform="matrix(0.995, -0.105, 0.105, 0.995, 417.551, 314.88)">
        <path id="Path_126293" data-name="Path 126293" d="M21.62,15.886,0,31.455,46.1,95.478h66.336L54.674,15.265,43.685,0Z" fill="#e6f1e9"/>
      </g>
      <g id="Group_56699" data-name="Group 56699">
        <g id="Group_56698" data-name="Group 56698" clip-path="url(#clip-path)">
          <rect id="Rectangle_14218" data-name="Rectangle 14218" width="18.108" height="1.27" transform="translate(483.833 306.591)" fill="#fff"/>
          <rect id="Rectangle_14219" data-name="Rectangle 14219" width="18.108" height="5.337" transform="translate(483.833 308.983)" fill="#fff"/>
          <rect id="Rectangle_14220" data-name="Rectangle 14220" width="10.683" height="0.797" transform="translate(475.326 316.114)" fill="#fff"/>
          <rect id="Rectangle_14221" data-name="Rectangle 14221" width="10.683" height="2.16" transform="translate(475.326 317.26)" fill="#fff"/>
          <rect id="Rectangle_14222" data-name="Rectangle 14222" width="0.797" height="14.953" transform="translate(504.915 299.749)" fill="#fff"/>
          <g id="Group_56723" data-name="Group 56723" transform="translate(439.992 219.786)">
            <path id="Path_126367" data-name="Path 126367" d="M2161.062,1309.853s-3.166,22.992-4.458,30.765c-1.511,9.088-2.024,16.6-2.446,21.3-.53,5.916-1.548,37.024-1.918,38.754s8.281.868,8.281.868,6.277-40.339,7.856-46.639c1.47-5.867,5.515-30.054,6.856-28.452s9.767,29.9,10.76,34.528,10.575,40.853,10.575,40.853,7.162,1.539,8.984.089c0,0-6.25-33.281-6.883-41.956-.241-3.306-2.2-39.414-7.791-54.042-2.955-7.731-29.817,3.932-29.817,3.932" transform="translate(-2130.139 -1210.719)" fill="#3c4145"/>
            <path id="Path_126294" data-name="Path 126294" d="M2061.371,1197.589l73.6-4.732.4,43.026h-66.229Z" transform="translate(-2059.987 -1125.463)" fill="#c5c6cf"/>
            <path id="Path_126295" data-name="Path 126295" d="M2075.356,1193.58l70.41-.724.4,43.026h-66.229Z" transform="translate(-2070.785 -1125.463)" fill="#e2e3ed"/>
            <path id="Path_126297" data-name="Path 126297" d="M2055.444,897.543l2.154,10.014c-.663-.815-1.826-2.118-2.2-1.731-.539.553,1.259,3.285,1.567,4.461a25.793,25.793,0,0,0,1.118,3.756l.814,1.639,3.6-1.472s-.168-7.139-.3-8.746c-.22-2.613-5.249-8.275-5.736-8.334-.88-.106-1.008.413-1.008.413" transform="translate(-2055.295 -897.117)" fill="#eea987"/>
            <path id="Path_126298" data-name="Path 126298" d="M2356,1730.685a16.755,16.755,0,0,0,1.866,3.41c.854.968,4.125,2.7,4.142,5.573.019,3.117-5.512,2.252-7.676,2.138s-2.327-1.78-3.239-3.544-1.828-1.466-2-2.89a18.132,18.132,0,0,1,.7-4.61Z" transform="translate(-2282.129 -1540.732)" fill="#292c47"/>
            <path id="Path_126299" data-name="Path 126299" d="M2117.451,1731.244s-3.013,3.165-6.073,3.827-5.2,1.509-5.223,3.325,8.8,3.013,12.306,1.182c5.225-2.732,5.756-1.909,6.335-3.274s-.7-5.018-.658-5.452c.046-.537-6.688.393-6.688.393" transform="translate(-2094.566 -1540.732)" fill="#292c47"/>
            <path id="Path_126301" data-name="Path 126301" d="M2155.31,1089.214s-8.376,1.732-9.37,2.612c-1.079.937-2.982,10.11-3.095,12.666a98.6,98.6,0,0,0,2.089,17.2c1.079,3.975-11.7,112.083-12.184,115.347,0,0,45.651,2.158,62.233,0,0,0-19.183-104.251-18.52-109.7.85-6.978,2.9-23.056,2.9-23.056s-2.215-10.825-3.692-12.074-11.74-3.282-11.74-3.282Z" transform="translate(-2115.1 -1045.224)" fill="#d1daed"/>
            <path id="Path_126302" data-name="Path 126302" d="M2214.844,974.892s-10.075-3.728-9.445,9.661,2.991,14.75,9.619,12.88,7.183-10.32,8.046-14.385-4.925-7.571-8.22-8.156" transform="translate(-2171.172 -956.8)" fill="#eea886"/>
            <path id="Path_126303" data-name="Path 126303" d="M2227.256,1050.091s4.5,5.918,9.539-.726a35.61,35.61,0,0,1,1.32-10.424c1.542-5.034-10.55,6.712-10.55,6.712.127.09.152.593.079,1.294a14.231,14.231,0,0,1-.388,2.081c-.441,1.683.4-.289,0,1.063" transform="translate(-2187.968 -1005.654)" fill="#eea886"/>
            <path id="Path_126304" data-name="Path 126304" d="M2220.738,980.162s.029-3.577-1.458-3.906-2.254,1.739-2.254,1.739l-1.2-.065s1.07-3.624-.347-4.455-9.9-.1-10.966-1.321.479-8.468,2.794-9.179,8.636-2.154,12.651,1.421c0,0,3.6.023,3.589,4.333-.005,2.847-1.6,9.494-2.811,11.434" transform="translate(-2170.246 -947.274)" fill="#163342"/>
            <path id="Path_126305" data-name="Path 126305" d="M2227.7,1067.724c7.81-1.313,8.977-5.754,8.994-5.823-3.036,3.915-8.606,3.743-8.606,3.743a14.2,14.2,0,0,1-.388,2.081" transform="translate(-2188.416 -1024.35)" fill="#a77860"/>
            <path id="Path_126306" data-name="Path 126306" d="M2260.188,1015.078c.445-1.18,2.958-1.031,2.7.839s-2.334,4.751-3.168,4.211-.146-3.423.468-5.05" transform="translate(-2212.838 -987.614)" fill="#eea886"/>
            <path id="Path_126307" data-name="Path 126307" d="M2067.652,990.328c-1.964-3.822-6.281-18.584-6.281-18.584l6.111-1.278s3.251,7.428,4.8,12.569a42.008,42.008,0,0,0,1.991,5.36c.225.4,10.635,8.279,11.769,8.859s5.493,2.089,7.578,4.207a5.136,5.136,0,0,1,1.07,5.014c-4.42,5.685-12.584-1.707-12.584-1.707s-11.7-9.084-14.451-14.441" transform="translate(-2059.987 -953.751)" fill="#d1daed"/>
            <path id="Path_126308" data-name="Path 126308" d="M2133.655,1105.588s9.645,10.533,9.977,14.436c.238,2.786,1.975-8.377,1.975-8.377Z" transform="translate(-2115.799 -1058.082)" fill="#d1daed"/>
            <rect id="Rectangle_14227" data-name="Rectangle 14227" width="72.195" height="45.489" transform="translate(9.157 64.93)" fill="#c48145"/>
            <path id="Path_126309" data-name="Path 126309" d="M2331.2,1357.44a4.1,4.1,0,0,0,.314-1.273s-.113-.793-.159-1.362a3.794,3.794,0,0,1-.017-.44,7.525,7.525,0,0,0-.038-2.4c-.235-1.04-1.437-4.634-1.437-4.634l-3.244.482-2.819-.382s-2.1,6.132-1.994,7.128a2.689,2.689,0,0,0,.046.281,9.583,9.583,0,0,0,.791,1.81c.053.157.679,1.679,1.148,1.825a1.607,1.607,0,0,0,1.548-.217,3.848,3.848,0,0,0,2.113-.032,2.389,2.389,0,0,0,2.07-.4s1.241.224,1.678-.381" transform="translate(-2261.069 -1244.735)" fill="#efaa88"/>
            <path id="Path_126310" data-name="Path 126310" d="M2295.093,1100.9c-1.1.425-2.262,3.082-1.4,8.294a22.464,22.464,0,0,0,3.517,9.287c.742,1.307,5.329,10.019,5.312,11.307-.044,3.356.034,12.215-.072,12.893-.181,1.158-.929,14.506-.929,14.506l7.085,1.715s1.4-15.052,2.028-19.6a48.277,48.277,0,0,0,.169-11.823c-.608-4.814-4.1-15.454-4.563-16.3s-3.888-13.09-11.15-10.278" transform="translate(-2239.137 -1054.142)" fill="#d1daed"/>
            <path id="Path_126311" data-name="Path 126311" d="M2254.586,1082.113l-.343-2.161-4.808,3.772v16.952h1.417l.109-15.244Z" transform="translate(-2205.195 -1038.287)" fill="#d1daed"/>
            <path id="Path_126312" data-name="Path 126312" d="M2226.2,1083.743l.44-2.5,4.854,3.477v16.953h-1.578l-.122-14.886Z" transform="translate(-2187.255 -1039.288)" fill="#c6cfe0"/>
            <path id="Path_126313" data-name="Path 126313" d="M2244.383,1126.419a.995.995,0,1,0,.995-1,.995.995,0,0,0-.995,1" transform="translate(-2201.294 -1073.397)" fill="#b4becc"/>
            <path id="Path_126314" data-name="Path 126314" d="M2244.383,1155.341a.995.995,0,1,0,.995-1,.995.995,0,0,0-.995,1" transform="translate(-2201.294 -1095.729)" fill="#b4becc"/>
          </g>
          <g id="Group_56689" data-name="Group 56689" transform="translate(53.678 184.172)" style="mix-blend-mode: hard-light;isolation: isolate">
            <g id="Group_56688" data-name="Group 56688">
              <g id="Group_56687" data-name="Group 56687" clip-path="url(#clip-path-4)">
                <g id="Group_56686" data-name="Group 56686" transform="translate(0 0.001)">
                  <g id="Group_56685" data-name="Group 56685" clip-path="url(#clip-path-5)">
                    <rect id="Rectangle_14228" data-name="Rectangle 14228" width="136.433" height="161.428" transform="translate(0 0)" fill="url(#linear-gradient-5)"/>
                  </g>
                </g>
              </g>
            </g>
          </g>
          <g id="Group_56692" data-name="Group 56692" transform="translate(63.892 195.99)" opacity="0.76">
            <g id="Group_56691" data-name="Group 56691">
              <g id="Group_56690" data-name="Group 56690" clip-path="url(#clip-path-6)">
                <path id="Path_126316" data-name="Path 126316" d="M318.982,873.251a19.88,19.88,0,1,0-37.438,13.389c.15.421.314.835.489,1.239a19.88,19.88,0,0,0,36.948-14.628m-13.7,20.729a14.888,14.888,0,0,1-18.686-8.086q-.2-.455-.368-.93a14.9,14.9,0,1,1,19.054,9.016" transform="translate(-280.377 -860.06)" fill="#fff"/>
              </g>
            </g>
          </g>
          <path id="Path_126318" data-name="Path 126318" d="M366.992,1102.811l20.84,1.176,16.612-22.914-1.123-.814-16.167,22.3-20.758-1.171-23.8,27.142-24.918-5.4-24.621,23.231.952,1.009,24.089-22.729,25,5.417Z" transform="translate(-226.274 -834.09)" fill="#fff"/>
          <path id="Path_126319" data-name="Path 126319" d="M502.633,1282.126a3.7,3.7,0,1,1-4.4-2.833,3.7,3.7,0,0,1,4.4,2.833" transform="translate(-382.445 -987.704)" fill="#fff"/>
          <path id="Path_126320" data-name="Path 126320" d="M607.252,1163.81a3.7,3.7,0,1,1-4.4-2.833,3.7,3.7,0,0,1,4.4,2.833" transform="translate(-463.224 -896.35)" fill="#fff"/>
          <path id="Path_126321" data-name="Path 126321" d="M697.679,1167.43a3.7,3.7,0,1,1-4.4-2.832,3.7,3.7,0,0,1,4.4,2.832" transform="translate(-533.044 -899.145)" fill="#fff"/>
          <path id="Path_126322" data-name="Path 126322" d="M393.012,1259.894a3.7,3.7,0,1,1-4.4-2.832,3.7,3.7,0,0,1,4.4,2.832" transform="translate(-297.805 -970.538)" fill="#fff"/>
          <rect id="Rectangle_14233" data-name="Rectangle 14233" width="15.143" height="2.916" transform="translate(87.892 303.888)" fill="#fff"/>
          <rect id="Rectangle_14234" data-name="Rectangle 14234" width="15.143" height="2.916" transform="translate(98.424 273.964)" fill="#fff"/>
          <rect id="Rectangle_14235" data-name="Rectangle 14235" width="15.143" height="2.916" transform="translate(129.836 294.817)" fill="#fff"/>
          <rect id="Rectangle_14236" data-name="Rectangle 14236" width="15.143" height="2.916" transform="translate(143.418 253.865)" fill="#fff"/>
          <rect id="Rectangle_14237" data-name="Rectangle 14237" width="15.143" height="2.916" transform="translate(165.412 278.266)" fill="#fff"/>
        </g>
      </g>
      <g id="Group_56701" data-name="Group 56701" transform="translate(115.745 210.813)">
        <g id="Group_56700" data-name="Group 56700" clip-path="url(#clip-path-7)">
          <rect id="Rectangle_14239" data-name="Rectangle 14239" width="4.488" height="24.948" fill="url(#linear-gradient-6)"/>
        </g>
      </g>
      <g id="Group_56703" data-name="Group 56703" transform="translate(123.624 204.162)">
        <g id="Group_56702" data-name="Group 56702" clip-path="url(#clip-path-8)">
          <rect id="Rectangle_14241" data-name="Rectangle 14241" width="4.488" height="31.599" transform="translate(0 0)" fill="url(#linear-gradient-7)"/>
        </g>
      </g>
      <g id="Group_56705" data-name="Group 56705" transform="translate(131.893 207.642)">
        <g id="Group_56704" data-name="Group 56704" clip-path="url(#clip-path-9)">
          <rect id="Rectangle_14243" data-name="Rectangle 14243" width="4.488" height="28.12" transform="translate(0)" fill="url(#linear-gradient-8)"/>
        </g>
      </g>
      <g id="Group_56707" data-name="Group 56707" transform="translate(140.389 215.72)">
        <g id="Group_56706" data-name="Group 56706" clip-path="url(#clip-path-10)">
          <rect id="Rectangle_14245" data-name="Rectangle 14245" width="4.488" height="20.041" transform="translate(0 0)" fill="url(#linear-gradient-9)"/>
        </g>
      </g>
      <g id="Group_56709" data-name="Group 56709">
        <g id="Group_56708" data-name="Group 56708" clip-path="url(#clip-path)">
          <rect id="Rectangle_14247" data-name="Rectangle 14247" width="4.488" height="15.823" transform="translate(115.745 219.939)" fill="#00846c"/>
          <rect id="Rectangle_14248" data-name="Rectangle 14248" width="4.488" height="20.041" transform="translate(123.624 215.721)" fill="#00846c"/>
          <rect id="Rectangle_14249" data-name="Rectangle 14249" width="4.488" height="17.834" transform="translate(131.893 217.927)" fill="#00846c"/>
          <rect id="Rectangle_14250" data-name="Rectangle 14250" width="4.488" height="12.474" transform="translate(140.389 223.288)" fill="#00846c"/>
        </g>
      </g>
      <g id="Group_56711" data-name="Group 56711" transform="translate(149.037 219.023)">
        <g id="Group_56710" data-name="Group 56710" clip-path="url(#clip-path-12)">
          <rect id="Rectangle_14252" data-name="Rectangle 14252" width="4.488" height="16.738" transform="translate(0)" fill="url(#linear-gradient-10)"/>
        </g>
      </g>
      <g id="Group_56713" data-name="Group 56713" transform="translate(156.917 206.713)">
        <g id="Group_56712" data-name="Group 56712" clip-path="url(#clip-path-13)">
          <rect id="Rectangle_14254" data-name="Rectangle 14254" width="4.488" height="29.048" fill="url(#linear-gradient-11)"/>
        </g>
      </g>
      <g id="Group_56715" data-name="Group 56715" transform="translate(165.186 212.041)">
        <g id="Group_56714" data-name="Group 56714" clip-path="url(#clip-path-14)">
          <rect id="Rectangle_14256" data-name="Rectangle 14256" width="4.488" height="23.72" fill="url(#linear-gradient-12)"/>
        </g>
      </g>
      <g id="Group_56717" data-name="Group 56717" transform="translate(173.682 199.116)">
        <g id="Group_56716" data-name="Group 56716" clip-path="url(#clip-path-15)">
          <rect id="Rectangle_14258" data-name="Rectangle 14258" width="4.488" height="36.645" transform="translate(0 0)" fill="url(#linear-gradient-13)"/>
        </g>
      </g>
      <g id="Group_56719" data-name="Group 56719">
        <g id="Group_56718" data-name="Group 56718" clip-path="url(#clip-path)">
          <rect id="Rectangle_14260" data-name="Rectangle 14260" width="4.488" height="8.917" transform="translate(149.037 226.844)" fill="#d6bd81"/>
          <rect id="Rectangle_14261" data-name="Rectangle 14261" width="4.488" height="13.29" transform="translate(156.917 222.471)" fill="#d6bd81"/>
          <rect id="Rectangle_14262" data-name="Rectangle 14262" width="4.488" height="11.86" transform="translate(165.186 223.901)" fill="#d6bd81"/>
          <rect id="Rectangle_14263" data-name="Rectangle 14263" width="4.488" height="27.235" transform="translate(173.682 208.527)" fill="#d6bd81"/>
          <path id="Path_126323" data-name="Path 126323" d="M149.7,1323.019a6.054,6.054,0,0,1,.784,2.074,9.949,9.949,0,0,0,.958,2.45,23.321,23.321,0,0,1,1.164,4.083,18.837,18.837,0,0,0-.549,2.734c.093.591.431,1.763-.1,1.841s-1.133-.883-1.133-.883a.78.78,0,0,1-.4.753,1.316,1.316,0,0,1-1.336.048s-.322.6-.727.679a1.646,1.646,0,0,1-1.329-.18,1.607,1.607,0,0,1-1.009.324,1.325,1.325,0,0,1-1.12-.7s-1,.2-1.288-.264a4.475,4.475,0,0,1-.359-1.385,16.129,16.129,0,0,1,1.266-6.979,6.185,6.185,0,0,0-.33-5.422Z" transform="translate(-110.582 -1020.896)" fill="#eea886"/>
          <path id="Path_126324" data-name="Path 126324" d="M150.785,1361.132s.089-3.42-.811-4.148-1,.506-1,.506.122-1.22-.861-1.385-1.025,1.285-1.025,1.285a.951.951,0,0,0-1.195-.747c-1.034.194-.788,1.394-.788,1.394s-.987-1.177-1.627-.046a5.039,5.039,0,0,0-.039,4.164s.3.517,1.288.264a1.358,1.358,0,0,0,2.129.372s1.507.829,2.056-.5a1.247,1.247,0,0,0,1.876-1.158" transform="translate(-110.401 -1047.067)" fill="#db9c7c"/>
          <path id="Path_126325" data-name="Path 126325" d="M161.886,1082.5s-5.855,19.516-7.834,26.715c-.621,2.258-2.122,23.819-2.387,24.687s-7.692,2.058-7.692,2.058.9-26.973.984-28.444,8.195-31.591,10.554-32.666c1.767-.805,2.7-.139,4.927,1.514,3.125,2.321,1.449,6.137,1.449,6.137" transform="translate(-111.165 -829.648)" fill="#ebedf7"/>
          <path id="Path_126326" data-name="Path 126326" d="M507.719,959.393a3.5,3.5,0,0,1-.345,1.062s-.439.523-.728.914a3.3,3.3,0,0,0-.21.311,6.4,6.4,0,0,1-1.107,1.721c-.638.647-3.124,2.706-3.124,2.706l-2.13-1.808-2.212-.991s1.238-5.382,1.763-6.055a2.2,2.2,0,0,1,.16-.183,8.13,8.13,0,0,1,1.386-.954c.108-.09,1.246-.909,1.651-.8a1.369,1.369,0,0,1,1.022.853,3.277,3.277,0,0,1,1.514.974,2.036,2.036,0,0,1,1.317,1.223s1,.4,1.043,1.03" transform="translate(-384.41 -737.61)" fill="#efaa88"/>
          <path id="Path_126327" data-name="Path 126327" d="M348.579,1115.977l1.513-.56s-1.887-4.429-2.71-4.321a20.518,20.518,0,0,0-2.133.437Z" transform="translate(-266.574 -857.899)" fill="#ead8cf"/>
          <path id="Path_126328" data-name="Path 126328" d="M328.6,1115.739c-.194-.144-3.216-5.943-3.216-5.943l-6.458.878,3.489,6.868Z" transform="translate(-246.25 -856.897)" fill="#da9b5b"/>
          <path id="Path_126329" data-name="Path 126329" d="M177.969,1692.7s-.534,3.705-.6,4.261-5.938-.327-5.938-.327l-.475-4.411s6.279-.046,7.013.477" transform="translate(-131.999 -1306.601)" fill="#424773"/>
          <path id="Path_126330" data-name="Path 126330" d="M174.322,1710.1a15.845,15.845,0,0,0,3.659,3.205c1.8.973,4.626,1.358,5.69,2.366.768.727,2.8,3.857-4.675,3.794s-11.075.442-11.875-.758,1.158-8.858,1.158-8.858,1.77.637,6.043.251" transform="translate(-128.889 -1320.213)" fill="#292c47"/>
          <path id="Path_126331" data-name="Path 126331" d="M362.568,1692.7s-.534,3.705-.6,4.261-5.938-.327-5.938-.327l-.475-4.411s6.28-.046,7.013.477" transform="translate(-274.531 -1306.601)" fill="#424773"/>
          <path id="Path_126332" data-name="Path 126332" d="M358.92,1710.1a15.845,15.845,0,0,0,3.659,3.205c1.8.973,8.42,1.772,9.484,2.78.768.727,2.045,3.654-8.469,3.38-7.47-.195-11.075.442-11.875-.758s1.159-8.858,1.159-8.858,1.667.68,6.043.251" transform="translate(-271.421 -1320.213)" fill="#292c47"/>
          <path id="Path_126333" data-name="Path 126333" d="M179.721,1276.564s-5.516,8.764-5.1,16.687-2,16.572-2.829,24.848c-.924,9.227-4.7,31.069-4.842,36.005s.587,20.694.587,20.694l7.568.173s6.356-38.186,8-42.083,9.81-31.674,10.084-34.792-13.466-21.534-13.466-21.534" transform="translate(-128.889 -985.662)" fill="#292c47"/>
          <path id="Path_126334" data-name="Path 126334" d="M242.7,1272.634s4.157,21.714,4.706,26.563.915,23.466,1.189,26.5,2.563,39.568,3.292,44.161h-9.676s-7.427-26.627-7.427-39.225-5.738-27.389-9.442-35.7-12.182-8.509-14.459-23.931c0,0,28.733-3.255,31.816,1.636" transform="translate(-162.828 -980.545)" fill="#292c47"/>
          <path id="Path_126335" data-name="Path 126335" d="M247.761,950.9s7.4-2.766,10.819,2.871,3.085,16.921-.647,18.308-9.339.662-11.249-2.865-3.636-8.626-3.553-12.033,2.687-5.3,4.631-6.281" transform="translate(-187.723 -733.687)" fill="#eea886"/>
          <path id="Path_126336" data-name="Path 126336" d="M264.275,1023.459a6.4,6.4,0,0,0,.2,2.984c.509.985-9.593,1.01-9.593,1.01a66.587,66.587,0,0,0-2.375-9.882c-1.555-4.526,11.767,5.888,11.767,5.888" transform="translate(-194.87 -784.808)" fill="#eea886"/>
          <path id="Path_126337" data-name="Path 126337" d="M243.275,963.56s.7,1.15,3.543.7,6.318-4.233,7.507-4.649,1.2-1.114,1.2-1.114l.744,1.087,1.262.08s-1.151-3.387.585-4.768-1.8-10.964-10.93-7.773c0,0-7.01,1.932-6.756,5.919s1.276,8.529,2.844,10.514" transform="translate(-185.637 -730.797)" fill="#353a3d"/>
          <path id="Path_126338" data-name="Path 126338" d="M269.644,1047.383s-.032-2.434-.885-2.667-9.414-1.3-10.461-.766v2.836s2.017,1.606,11.346.6" transform="translate(-199.437 -805.942)" fill="#f2f4f9"/>
          <path id="Path_126339" data-name="Path 126339" d="M296.848,987.947c-.16-.669-1.86-2.58-2.511-.534s.984,4.8,1.9,4.563,1.02-2.334.615-4.029" transform="translate(-227.148 -761.692)" fill="#eea886"/>
          <path id="Path_126340" data-name="Path 126340" d="M457.139,1157.4a.02.02,0,0,0-.014,0c.059.025.067.028.014,0" transform="translate(-352.956 -893.65)" fill="#323657"/>
          <path id="Path_126341" data-name="Path 126341" d="M197.838,1006.051c-5.87-.774-14.16-2.849-14.16-2.849l-11.346-.462s-10.413,2.292-14.514,4.144c-.389.176-.391,9.29-1.458,11.68l3.4,7.173s1.964,14.209,2.372,20.528c.054.833-2.061,9.788-3.84,22.225-4.414,30.865-11.33,82.836-11.33,82.836s19.22.052,26.963.906,32.435-.321,32.557-1.235-12.65-110.617-12.821-112.334c-.263-2.634.908-16.631.908-16.631,1.788-1.387,17.486-8.674,21.768-12.471,1.146-1.016,5.983-5.727,7.359-7.353,4.869-5.758,8.861-10.7,9.347-11.762.552-.606-5.291-3.782-5.821-3.958-.464-.155-7.046,8.374-9.58,11.118a71.03,71.03,0,0,1-5.825,4.639s-10.306,4.018-13.978,3.807" transform="translate(-113.472 -761.685)" fill="#ebedf7"/>
          <path id="Path_126342" data-name="Path 126342" d="M239.7,956.118s-9.441.739-.29,14.884Z" transform="translate(-181.767 -738.238)" fill="#353a3d"/>
          <g id="Group_56722" data-name="Group 56722" transform="translate(238.397 334.482)">
            <path id="Path_126343" data-name="Path 126343" d="M1070.249,1469.955h69.279l-21.834,67.054,2.042.665,22.75-69.866h-73.8l-22.534,69.2,2.042.665Z" transform="translate(-1046.156 -1467.807)" fill="#7e8c76"/>
            <path id="Path_126344" data-name="Path 126344" d="M1171.35,1537.009l-21.834-67.054h69.278l22.051,67.719,2.042-.665-22.534-69.2h-73.795l22.75,69.866Z" transform="translate(-1123.678 -1467.807)" fill="#7e8c76"/>
            <rect id="Rectangle_14264" data-name="Rectangle 14264" width="84.795" height="2.148" transform="translate(17.647 21.115)" fill="#7e8c76"/>
            <rect id="Rectangle_14265" data-name="Rectangle 14265" width="101.45" height="2.148" transform="translate(8.912 44.43)" fill="#7e8c76"/>
          </g>
          <path id="Path_126345" data-name="Path 126345" d="M1245.232,748.032s1.727-3.022-1.012-11.122a8.163,8.163,0,0,0-14.732-2.1c-2.914,5.019-1.93,8.136,2.361,13.8s11.6,2.015,13.384-.576" transform="translate(-948.027 -564.439)" fill="#eea886"/>
          <path id="Path_126346" data-name="Path 126346" d="M1190.563,1415.741s-.453,3.327-.51,3.826-5.047-.294-5.047-.294l-.4-3.96s5.338-.041,5.962.428" transform="translate(-914.655 -1092.792)" fill="#eea886"/>
          <path id="Path_126347" data-name="Path 126347" d="M1187.461,1431.367a13.764,13.764,0,0,0,3.111,2.878c1.529.874,3.933,1.22,4.837,2.124.653.653,2.378,3.463-3.974,3.407s-9.414.4-10.095-.681.985-7.953.985-7.953a17.509,17.509,0,0,0,5.137.225" transform="translate(-912.011 -1105.015)" fill="#152b3d"/>
          <path id="Path_126348" data-name="Path 126348" d="M1342.2,1415.741s-.454,3.327-.51,3.826-5.048-.294-5.048-.294l-.4-3.96s5.338-.041,5.962.428" transform="translate(-1031.74 -1092.792)" fill="#eea886"/>
          <path id="Path_126349" data-name="Path 126349" d="M1339.1,1431.367a13.773,13.773,0,0,0,3.111,2.878c1.529.874,7.157,1.591,8.062,2.5.653.653,1.738,3.281-7.2,3.035-6.35-.175-9.414.4-10.095-.681s.985-7.953.985-7.953a26.349,26.349,0,0,0,5.137.225" transform="translate(-1029.096 -1105.015)" fill="#152b3d"/>
          <path id="Path_126350" data-name="Path 126350" d="M1190.343,1053.723s-2.559,7.952-2.222,14.8-1.323,14.352-2,21.51c-.757,7.981-3.853,26.874-3.965,31.142s.481,17.9.481,17.9l6.2.149s5.205-33.029,6.553-36.4,8.034-27.4,8.258-30.093-13.3-19.015-13.3-19.015" transform="translate(-912.755 -813.601)" fill="#ffc05c"/>
          <path id="Path_126351" data-name="Path 126351" d="M1243.832,1044.373s3.762,21.025,4.211,25.219.749,20.3.974,22.918,1.5,34.3,2.7,38.2H1244.8s-7.1-23.031-7.1-33.928-4.7-23.689-7.733-30.879-9.976-7.36-11.841-20.7c0,0,23.173-5.059,25.7-.828" transform="translate(-940.547 -805.079)" fill="#ffc05c"/>
          <path id="Path_126352" data-name="Path 126352" d="M1255.99,806.64a6.007,6.007,0,0,0,0,3.888c.78,1.619-9.96.648-9.96.648a11.55,11.55,0,0,0-.917-6.1c-1.4-2.753,10.877,1.563,10.877,1.563" transform="translate(-961.292 -620.908)" fill="#eea886"/>
          <path id="Path_126353" data-name="Path 126353" d="M1215.95,1052.65s3.862,3.967,26.541-.618l-.346-1.942-25.781.97Z" transform="translate(-938.86 -810.796)" fill="#ffc05c"/>
          <path id="Path_126354" data-name="Path 126354" d="M1179.437,740.838s3.967.4,5.1.621,8.762-1.364,10.326-1.526,8.238-4.734,8.454-5.274,4.059-10.273,4.276-12.377,3.744-1.018,3.442.432c-.566,2.713-1.293,9.3-1.691,11.207-.43,2.061-1.583,6.729-2.231,7.3a46.532,46.532,0,0,1-12.539,7.088,50.04,50.04,0,0,0-10.31,4.8h-28.99S1144,737,1143.755,734.568s7.876-18.569,9.5-20.593,3.961.661,3.961.661-4.851,14.233-5.5,16.257,5.643,10.915,7.37,10.942,6.161-.54,8.131-.621a13.791,13.791,0,0,0,4.047-.944Z" transform="translate(-883.113 -550.692)" fill="#eea886"/>
          <path id="Path_126355" data-name="Path 126355" d="M1410.653,704.111s.793-3.752-.162-4.829c-.543-.613-1.849-2.237-1.968-2.475s-1.521-1.044-1.521-1.431,1.372-.865,2.565.238,1.938,1.342,2.415,1.222,1.163-4.085,1.222-5.069.439-3.578,1.055-3.4.585,1.312.585,1.312.715-1.968,1.193-1.58.417,1.342.417,1.342.895-1.1,1.133-.3a2.785,2.785,0,0,1,0,1.521s.924-.507.984.745a19.054,19.054,0,0,1-.925,6.232c-.656,1.312-3.112,4.744-3.4,6.084s-3.59.385-3.59.385" transform="translate(-1086.376 -531.257)" fill="#eea886"/>
          <path id="Path_126356" data-name="Path 126356" d="M1187.954,672.515s2.7-4.534,3.614-4.938a15.437,15.437,0,0,0,3.346-1.444c1.133-.809,2.631-1.484,2.55-1.754s-1.416-.162-2.847.459-2.057.321-2.192,0a8.365,8.365,0,0,1,1.194-3.149c.432-.54,3.508-3.634,3-4.093s-2.51,1.241-2.833,1.592c0,0,1.592-3.346.971-3.508s-1.781,1.025-1.781,1.025.135-2.86-2.941,1.781c0,0,.647-1.538-.3-1.026s-1.862,3.4-2.159,4.857-1.643,6.1-2.791,7.219,3.17,2.982,3.17,2.982" transform="translate(-914.646 -506.25)" fill="#eea886"/>
          <path id="Path_126357" data-name="Path 126357" d="M1191.08,741.874a9.363,9.363,0,0,0-3.873,6.407c-.324,4.047,1.639,15.127,1.653,17.407.021,3.542,8.329,100.269,8.491,101.4s-44.457,2.194-47.927-.5c0,0,7.892-97.518,7.487-101.727s-.868-17.069-1.516-18.445c-.588-1.25-10.795-17.322-12.728-21.283-.492-1.007,9.1-24.142,9.306-24.334,1.12-1.049,5.292,2.757,7.756,2.688,0,0-8.94,17.688-8.564,18.284,1.757,2.779,7.278,9.713,8.52,9.912,1.509.243,10.759-1.453,10.76-1.466s1.01,1.375,6.377-.244c0,0,6.391.721,7.431.854,1.141.146,14.161-4.576,16.793-5.512.274-.1,4.614-14.053,4.614-14.053l5.052,2.126-2.738,14.093-1.569,4.454Z" transform="translate(-882.263 -540.963)" fill="#254380"/>
          <path id="Path_126358" data-name="Path 126358" d="M1422.478,742.106s3.29.482,4.6,1.664c0,0-.311.753-.615,1.344a14.261,14.261,0,0,0-4.327-1.713s.03-.981.344-1.3" transform="translate(-1098.06 -572.995)" fill="#e55353"/>
          <path id="Path_126359" data-name="Path 126359" d="M1430.047,742.654a1.16,1.16,0,1,1-1.52-.618,1.16,1.16,0,0,1,1.52.618" transform="translate(-1102.448 -572.871)" fill="#353a3d"/>
          <path id="Path_126360" data-name="Path 126360" d="M1230.03,746.274a12.261,12.261,0,0,0,4.443-.918c3.022-1.043,3.248-6.328,3.9-5.7a1.91,1.91,0,0,0,3.1-.36s-1.475-1.943-.792-2.878a7.246,7.246,0,0,1,1.8-1.618s-2.126-10.245-11.8-5.578c-11.333,5.469-.648,17.054-.648,17.054" transform="translate(-946.209 -562.105)" fill="#353a3d"/>
          <path id="Path_126361" data-name="Path 126361" d="M1258.535,822.323l-.341-2.115a55.147,55.147,0,0,0-9.542.518l-.355,2.528s4.313,2.794,10.238-.932" transform="translate(-963.836 -633.284)" fill="#254380"/>
          <path id="Path_126362" data-name="Path 126362" d="M1276.766,770.724c-.561-.932-2.635-1.561-2.878,1.079-.189,2.046,3.706,4.281,3.742,2.375a5.759,5.759,0,0,0-.863-3.454" transform="translate(-983.59 -594.47)" fill="#eea886"/>
        </g>
      </g>
      <rect id="Rectangle_14267" data-name="Rectangle 14267" width="136.433" height="11.959" rx="5.98" transform="translate(53.678 160.548)" fill="#cbddd6"/>
    </g>
  </g>
</svg>
