<svg xmlns="http://www.w3.org/2000/svg" width="82" height="82" viewBox="0 0 82 82">
  <g id="govIcon1" transform="translate(-1507 -1458)">
    <circle id="Ellipse_11171" data-name="Ellipse 11171" cx="41" cy="41" r="41" transform="translate(1507 1458)" fill="#4cc0ad" opacity="0.15"/>
    <g id="Group_60250" data-name="Group 60250" transform="translate(21733.758 6102.058)">
      <path id="Path_123272" data-name="Path 123272" d="M290.48,472.958v-5.684h3.788l-6.273-11.368-6.037,11.368h3.788v14.209" transform="translate(-20458.412 -5062.966)" fill="none" stroke="#1c614e" stroke-linecap="round" stroke-linejoin="round" stroke-width="2"/>
      <path id="Path_123273" data-name="Path 123273" d="M279.551,449.836V441.31h3.788l-6.273-11.368-6.037,11.368h3.788v24.63" transform="translate(-20455.059 -5055)" fill="none" stroke="#1c614e" stroke-linecap="round" stroke-linejoin="round" stroke-width="2"/>
      <path id="Path_123274" data-name="Path 123274" d="M258.329,466.125a3.994,3.994,0,0,0,3.788-3.789v-7.579c0-3.129-1.894-5.684-6.629-5.684H251.7c-4.735,0-6.629,2.554-6.629,5.684v10.421" transform="translate(-20447.094 -5060.87)" fill="none" stroke="#1c614e" stroke-linecap="round" stroke-linejoin="round" stroke-width="2"/>
      <rect id="Rectangle_14009" data-name="Rectangle 14009" width="10.417" height="8.526" transform="translate(-20206.758 -4595.691)" fill="none" stroke="#1c614e" stroke-linecap="round" stroke-linejoin="round" stroke-width="2"/>
      <line id="Line_399" data-name="Line 399" y2="12.315" transform="translate(-20192.555 -4595.691)" fill="none" stroke="#1c614e" stroke-linecap="round" stroke-linejoin="round" stroke-width="2"/>
      <line id="Line_400" data-name="Line 400" y2="3.789" transform="translate(-20198.236 -4587.165)" fill="none" stroke="#1c614e" stroke-linecap="round" stroke-linejoin="round" stroke-width="2"/>
      <line id="Line_401" data-name="Line 401" y2="21.788" transform="translate(-20188.766 -4605.165)" fill="none" stroke="#1c614e" stroke-linecap="round" stroke-linejoin="round" stroke-width="2"/>
      <line id="Line_402" data-name="Line 402" y2="9.473" transform="translate(-20198.236 -4605.165)" fill="none" stroke="#1c614e" stroke-linecap="round" stroke-linejoin="round" stroke-width="2"/>
      <path id="Path_123275" data-name="Path 123275" d="M255.691,440.781a3.631,3.631,0,0,0,3.788-3.789V435.1a3.788,3.788,0,1,0-7.575,0v1.895A3.631,3.631,0,0,0,255.691,440.781Z" transform="translate(-20449.191 -5055.419)" fill="none" stroke="#1c614e" stroke-linecap="round" stroke-linejoin="round" stroke-width="2"/>
    </g>
  </g>
</svg>
