<svg xmlns="http://www.w3.org/2000/svg" width="82" height="82" viewBox="0 0 82 82">
  <g id="govIcon4" transform="translate(-1507 -1458)">
    <circle id="Ellipse_11171" data-name="Ellipse 11171" cx="41" cy="41" r="41" transform="translate(1507 1458)" fill="#4cc0ad" opacity="0.15"/>
    <g id="Group_60255" data-name="Group 60255" transform="translate(21494.703 5997.666)">
      <path id="Path_123304" data-name="Path 123304" d="M514.9,534.8l4.323-2.5,2.5,4.324c.624,1.082-.317,3.066-1.995,4.035l-1.081.625" transform="translate(-20453.154 -5055.222)" fill="none" stroke="#1c614e" stroke-linecap="round" stroke-linejoin="round" stroke-width="2"/>
      <path id="Path_123305" data-name="Path 123305" d="M516.731,559.807l5.162-2.981-1.872-3.244c-1.247-2.162-4.419-.163-5.114-1.371l-1.248-2.162c-1.361-2.358,3.083-4.646,1.827-6.822l-6.864-11.893-6.485,3.746-6.486,3.745s6.379,11.053,6.865,11.893c1.256,2.177,5.459-.529,6.819,1.828l.907,1.57" transform="translate(-20448.744 -5055)" fill="none" stroke="#1c614e" stroke-linecap="round" stroke-linejoin="round" stroke-width="2"/>
      <path id="Path_123306" data-name="Path 123306" d="M496.8,545.257l-4.324,2.5,2.5,4.325c.624,1.081,2.813,1.258,4.49.289l1.081-.624" transform="translate(-20448.018 -5058.188)" fill="none" stroke="#1c614e" stroke-linecap="round" stroke-linejoin="round" stroke-width="2"/>
      <path id="Path_123307" data-name="Path 123307" d="M497.2,571.731a3.585,3.585,0,0,0,3.686-3.793v-1.9a3.688,3.688,0,1,0-7.372,0v1.9A3.585,3.585,0,0,0,497.2,571.731Z" transform="translate(-20448.254 -5062.08)" fill="none" stroke="#1c614e" stroke-linecap="round" stroke-linejoin="round" stroke-width="2"/>
      <path id="Path_123308" data-name="Path 123308" d="M488.186,588.162V581.84l-6.2-2.537a3.15,3.15,0,0,1-1.85-2.086c-.224-.819-.5-2.88-.733-3.683a6.4,6.4,0,0,1,3.143-6.444l1.589,6.52a1.055,1.055,0,0,0,.736.722l4.366,1.187h8.327a3.161,3.161,0,0,0,1.982-.7l3.784-3.048a2.1,2.1,0,0,0,.476-.541l3.825-6.249a5.265,5.265,0,0,1,1.847,5.957l-2.437,4.291a5.276,5.276,0,0,1-1.177,1.42l-5.385,4.558a2.108,2.108,0,0,0-.746,1.609v5.344" transform="translate(-20445 -5062.706)" fill="none" stroke="#1c614e" stroke-linecap="round" stroke-linejoin="round" stroke-width="2"/>
    </g>
  </g>
</svg>
