<svg xmlns="http://www.w3.org/2000/svg" width="16" height="16" viewBox="0 0 16 16">
  <path id="graymode" d="M10,5a.969.969,0,0,1,.078-.391,1.018,1.018,0,0,1,.531-.531,1.016,1.016,0,0,1,.781,0,1.018,1.018,0,0,1,.531.531,1.016,1.016,0,0,1,0,.781,1.018,1.018,0,0,1-.531.531,1.016,1.016,0,0,1-.781,0,1.018,1.018,0,0,1-.531-.531A.969.969,0,0,1,10,5ZM8.469,14.977A4.4,4.4,0,0,0,9.2,15.9q-.3.047-.6.074T8,16a1.946,1.946,0,0,1-.777-.156,2.015,2.015,0,0,1-1.066-1.066A1.946,1.946,0,0,1,6,14a2.805,2.805,0,0,1,.156-.957,3.625,3.625,0,0,1,.453-.855,1.971,1.971,0,0,0,.3-.559A2,2,0,0,0,7,11a1.946,1.946,0,0,0-.156-.777A2.015,2.015,0,0,0,5.777,9.156,1.946,1.946,0,0,0,5,9a2,2,0,0,0-.629.094,1.971,1.971,0,0,0-.559.3,3.625,3.625,0,0,1-.855.453A2.805,2.805,0,0,1,2,10a1.946,1.946,0,0,1-.777-.156A2.015,2.015,0,0,1,.156,8.777,1.946,1.946,0,0,1,0,8,7.922,7.922,0,0,1,1.094,3.965,8.151,8.151,0,0,1,3.965,1.094a7.969,7.969,0,0,1,8.07,0,8.151,8.151,0,0,1,2.871,2.871A7.922,7.922,0,0,1,16,8q0,.3-.027.6t-.074.6a4.4,4.4,0,0,0-.922-.727l.016-.234L15,8a6.861,6.861,0,0,0-.25-1.855A7.029,7.029,0,0,0,9.855,1.25a7.011,7.011,0,0,0-3.711,0A7.029,7.029,0,0,0,1.25,6.145,6.861,6.861,0,0,0,1,8a.969.969,0,0,0,.078.391,1.018,1.018,0,0,0,.531.531A.969.969,0,0,0,2,9a2,2,0,0,0,.629-.094,1.971,1.971,0,0,0,.559-.3,3.625,3.625,0,0,1,.855-.453A2.805,2.805,0,0,1,5,8a2.924,2.924,0,0,1,1.164.234,3.012,3.012,0,0,1,1.6,1.6A2.924,2.924,0,0,1,8,11v.035l-.008.035-.016.055q-.039.133-.07.273l-.063.281q-.016.1-.023.207a1.369,1.369,0,0,1-.031.207,1.14,1.14,0,0,1-.117.273q-.078.133-.164.266l-.117.18a1.971,1.971,0,0,0-.3.559A2,2,0,0,0,7,14a.969.969,0,0,0,.078.391,1.018,1.018,0,0,0,.531.531A.969.969,0,0,0,8,15q.117,0,.234-.008ZM3,6a.969.969,0,0,1,.078-.391,1.018,1.018,0,0,1,.531-.531,1.016,1.016,0,0,1,.781,0,1.018,1.018,0,0,1,.531.531,1.016,1.016,0,0,1,0,.781,1.018,1.018,0,0,1-.531.531,1.016,1.016,0,0,1-.781,0,1.018,1.018,0,0,1-.531-.531A.969.969,0,0,1,3,6ZM6,4a.969.969,0,0,1,.078-.391,1.018,1.018,0,0,1,.531-.531,1.016,1.016,0,0,1,.781,0,1.018,1.018,0,0,1,.531.531,1.016,1.016,0,0,1,0,.781,1.018,1.018,0,0,1-.531.531,1.016,1.016,0,0,1-.781,0,1.018,1.018,0,0,1-.531-.531A.969.969,0,0,1,6,4Zm6.5,5a3.376,3.376,0,0,1,1.363.277,3.528,3.528,0,0,1,1.859,1.859,3.489,3.489,0,0,1,0,2.727,3.528,3.528,0,0,1-1.859,1.859,3.489,3.489,0,0,1-2.727,0,3.528,3.528,0,0,1-1.859-1.859,3.489,3.489,0,0,1,0-2.727,3.528,3.528,0,0,1,1.859-1.859A3.376,3.376,0,0,1,12.5,9Zm0,6a2.488,2.488,0,0,0,.719-.105,2.441,2.441,0,0,0,.656-.309l-3.461-3.461a2.441,2.441,0,0,0-.309.656A2.488,2.488,0,0,0,10,12.5a2.449,2.449,0,0,0,.2.973A2.489,2.489,0,0,0,11.527,14.8,2.449,2.449,0,0,0,12.5,15Zm2.086-1.125a2.441,2.441,0,0,0,.309-.656A2.488,2.488,0,0,0,15,12.5a2.38,2.38,0,0,0-.2-.969A2.56,2.56,0,0,0,13.469,10.2,2.38,2.38,0,0,0,12.5,10a2.488,2.488,0,0,0-.719.105,2.441,2.441,0,0,0-.656.309Z" fill="#0c592e"/>
</svg>
