<svg xmlns="http://www.w3.org/2000/svg" width="21.958" height="21.958" viewBox="0 0 21.958 21.958">
  <path id="ic_picture_as_pdf_48px" d="M27.534,4H11.815A2.619,2.619,0,0,0,9.2,6.62V22.338a2.619,2.619,0,0,0,2.62,2.62H27.534a2.619,2.619,0,0,0,2.62-2.62V6.62A2.619,2.619,0,0,0,27.534,4ZM16.4,13.824a1.962,1.962,0,0,1-1.965,1.965h-1.31v2.62H11.16V10.549h3.275A1.962,1.962,0,0,1,16.4,12.514Zm6.549,2.62a1.962,1.962,0,0,1-1.965,1.965H17.71V10.549h3.275a1.962,1.962,0,0,1,1.965,1.965Zm5.24-3.93H26.224v1.31h1.965v1.965H26.224v2.62H24.259V10.549h3.93Zm-15.064,1.31h1.31v-1.31h-1.31Zm6.549,2.62h1.31v-3.93h-1.31Z" transform="translate(-8.695 -3.5)" fill="#c44545" stroke="rgba(0,0,0,0)" stroke-miterlimit="10" stroke-width="1"/>
</svg>
