<svg xmlns="http://www.w3.org/2000/svg" width="21.437" height="21.437" viewBox="0 0 21.437 21.437">
  <path id="image-picture" d="M381.16,118.882a1.278,1.278,0,0,1-1.277,1.277h-3.3l-4.706-4.768,5.452-5.452,3.832,3.832v5.11Zm-16.605,1.277a1.278,1.278,0,0,1-1.277-1.277v-.6l5.074-4.545,6.422,6.422Zm2.555-16.605a2.555,2.555,0,1,1-2.555,2.555,2.555,2.555,0,0,1,2.555-2.555ZM379.882,101H364.555A2.555,2.555,0,0,0,362,103.555v15.328a2.555,2.555,0,0,0,2.555,2.555h15.328a2.555,2.555,0,0,0,2.555-2.555V103.555A2.555,2.555,0,0,0,379.882,101Zm-12.773,6.387a1.277,1.277,0,1,0-1.277-1.277,1.278,1.278,0,0,0,1.277,1.277Z" transform="translate(-361.5 -100.5)" fill="#1c614e" stroke="rgba(0,0,0,0)" stroke-miterlimit="10" stroke-width="1" fill-rule="evenodd"/>
</svg>
