<svg xmlns="http://www.w3.org/2000/svg" width="19.184" height="19.184" viewBox="0 0 19.184 19.184">
  <g id="insta-white" transform="translate(-1430.189 -835.322)">
    <path id="Path_124579" data-name="Path 124579" d="M31.879,1.7A5.747,5.747,0,0,0,27.8,0H20.165a5.8,5.8,0,0,0-5.773,5.773v7.638a5.792,5.792,0,0,0,5.773,5.773H27.8a5.792,5.792,0,0,0,5.773-5.773V5.773a5.745,5.745,0,0,0-1.7-4.075M27.967,13.577a5.629,5.629,0,1,1,1.653-3.985,5.617,5.617,0,0,1-1.653,3.985m2.21-8.2A1.327,1.327,0,1,1,31.5,4.052a1.326,1.326,0,0,1-1.326,1.326" transform="translate(1415.797 835.322)" fill="#fff"/>
    <path id="Path_124580" data-name="Path 124580" d="M20.868,2.889A3.577,3.577,0,1,0,23.4,3.937a3.574,3.574,0,0,0-2.534-1.048" transform="translate(1418.719 838.441)" fill="#fff"/>
  </g>
</svg>
