<svg xmlns="http://www.w3.org/2000/svg" width="219.655" height="240.443" viewBox="0 0 219.655 240.443">
  <g id="leaf" transform="translate(19971.915 4743.544)">
    <path id="Path_123301" data-name="Path 123301" d="M483.463,403.549c9.3-13.463,29.639-21.03,40.136-4.648,2.335,3.65,6.186,4.648,11.334,4.648,11.161,0,18.783-9.307,26.346-16.6,16.991-16.382,43.936-25.487,66.306-14.3" transform="translate(-20422.525 -4908.736)" fill="none" stroke="#3aa877" stroke-linecap="round" stroke-linejoin="round" stroke-width="3"/>
    <path id="Path_123302" data-name="Path 123302" d="M500.288,510.54c30.994-1.237,88.955-33.476,122.813-67.429l-30.164-11.268s29.966-7.468,51.635-15.464c31.707-49.674,39.174-102.462,39.174-102.462S582.965,301.1,526.66,369.2c-3.837,15.938-1.355,23.405-1.355,23.405l-15.369-4.986c-24.158,26.39-32.136,63.222-32.081,90.368" transform="translate(-20437.506 -5055)" fill="none" stroke="#3aa877" stroke-linecap="round" stroke-linejoin="round" stroke-width="3"/>
    <path id="Path_123303" data-name="Path 123303" d="M644.909,320.919S540.678,364.256,475.051,518.247" transform="translate(-20444.998 -5033.733)" fill="none" stroke="#3aa877" stroke-linecap="round" stroke-linejoin="round" stroke-width="3"/>
  </g>
</svg>
