<svg xmlns="http://www.w3.org/2000/svg" width="47.635" height="62.748" viewBox="0 0 47.635 62.748">
  <path id="life-icon1" d="M506.657,540.395v11.413m-4.016,44.208v-2.679m-25.431,2.679v-2.679m12.046-5.359v8.038m-9.37-20.094h17.4m9.37-35.527-17.4-6-17.4,6,17.4,6.219Zm-28.109,3.376v5.966s1.952,4.712,10.708,4.712,10.708-4.712,10.708-4.712v-5.966M466.5,596.016v-7.978a11.961,11.961,0,0,1,11.8-12.116h1.674l9.279,12.056m4.015-4.581,5.264-7.476h1.674a11.962,11.962,0,0,1,11.8,12.116v7.978m-33.463-46.28v7.431c0,7.211,5.926,13.4,10.708,13.4s10.708-6.185,10.708-13.4" transform="translate(-465.439 -533.269)" fill="none" stroke="#c48145" stroke-miterlimit="10" stroke-width="2.126"/>
</svg>
