<svg xmlns="http://www.w3.org/2000/svg" width="17.685" height="17.685" viewBox="0 0 17.685 17.685">
  <path id="linkedin-white" d="M44.09.36H29.6a1.6,1.6,0,0,0-1.6,1.6V16.446a1.6,1.6,0,0,0,1.6,1.6H44.09a1.6,1.6,0,0,0,1.6-1.6V1.961a1.6,1.6,0,0,0-1.6-1.6M33.478,15.631a.465.465,0,0,1-.466.466H31.031a.465.465,0,0,1-.466-.466V7.324a.465.465,0,0,1,.466-.466h1.981a.465.465,0,0,1,.466.466ZM32.02,6.075A1.882,1.882,0,1,1,33.9,4.191,1.881,1.881,0,0,1,32.02,6.075m11.814,9.594a.428.428,0,0,1-.428.428H41.279a.428.428,0,0,1-.428-.428v-3.9c0-.582.17-2.549-1.52-2.549-1.31,0-1.576,1.347-1.63,1.95v4.494a.427.427,0,0,1-.426.428H35.217a.428.428,0,0,1-.428-.428V7.287a.428.428,0,0,1,.428-.428h2.058a.427.427,0,0,1,.426.428V8.01a2.925,2.925,0,0,1,2.746-1.291c3.405,0,3.386,3.181,3.386,4.929Z" transform="translate(-28.006 -0.36)" fill="#fff"/>
</svg>
