<svg xmlns="http://www.w3.org/2000/svg" width="169.874" height="80.708" viewBox="0 0 169.874 80.708">
  <g id="Logo" transform="translate(-137.298)">
    <g id="Group_55943" data-name="Group 55943" transform="translate(137.298)">
      <g id="Group_55945" data-name="Group 55945">
        <path id="Path_122794" data-name="Path 122794" d="M154.859,13.258a2.308,2.308,0,0,0,1.645-.623,2.152,2.152,0,0,0,.642-1.584,2.2,2.2,0,0,0-.642-1.625,2.312,2.312,0,0,0-1.645-.621,2.164,2.164,0,0,0-1.565.621,2.245,2.245,0,0,0-.642,1.625,2.16,2.16,0,0,0,2.207,2.207" transform="translate(-134.199 1.777)" fill="#0c592e"/>
        <path id="Path_122795" data-name="Path 122795" d="M181.15,13.258a2.305,2.305,0,0,0,1.644-.623,2.151,2.151,0,0,0,.642-1.584,2.2,2.2,0,0,0-.642-1.625A2.309,2.309,0,0,0,181.15,8.8a2.164,2.164,0,0,0-1.565.621,2.24,2.24,0,0,0-.642,1.625,2.16,2.16,0,0,0,2.207,2.207" transform="translate(-128.894 1.777)" fill="#0c592e"/>
        <path id="Path_122796" data-name="Path 122796" d="M185.124,13.258a2.31,2.31,0,0,0,1.645-.623,2.156,2.156,0,0,0,.642-1.584,2.209,2.209,0,0,0-.642-1.625,2.314,2.314,0,0,0-1.645-.621,2.164,2.164,0,0,0-1.565.621,2.24,2.24,0,0,0-.642,1.625,2.16,2.16,0,0,0,2.207,2.207" transform="translate(-128.092 1.777)" fill="#0c592e"/>
        <path id="Path_122797" data-name="Path 122797" d="M205.524,33.148h-7.8V28.315a5.666,5.666,0,0,1,1.827-4.494,5.894,5.894,0,0,1,1.244-.809A9.013,9.013,0,0,1,203,22.268l2.527-.531ZM209.806,15.3c-.59.367-2.589,1.375-8.174,2.58a10.878,10.878,0,0,0-5.537,2.869,10.086,10.086,0,0,0-2.868,7.462v9.248a.156.156,0,0,0,.155.157h12.161a4.446,4.446,0,0,1-4.447,4.446h-7.384a.114.114,0,0,0-.106.157l1.686,4.123a.338.338,0,0,0,.315.212l5.512-.011a8.915,8.915,0,0,0,8.9-8.916V15.426a.139.139,0,0,0-.212-.121" transform="translate(-126.011 3.084)" fill="#0c592e"/>
        <path id="Path_122798" data-name="Path 122798" d="M189.861,34.456h-7.8V29.624a5.665,5.665,0,0,1,1.826-4.494,5.9,5.9,0,0,1,1.245-.809,9.03,9.03,0,0,1,2.2-.745l2.53-.531Zm4.281-17.843c-.59.367-2.59,1.375-8.174,2.58a10.878,10.878,0,0,0-5.537,2.869,10.087,10.087,0,0,0-2.869,7.462v4.932h-7.827V8.916a.117.117,0,0,0-.156-.109l-4.24,1.544a.115.115,0,0,0-.077.109V38.795a.135.135,0,0,0,.133.135h28.822a.137.137,0,0,0,.137-.136V16.734a.14.14,0,0,0-.213-.121" transform="translate(-131.655 1.776)" fill="#0c592e"/>
        <path id="Path_122799" data-name="Path 122799" d="M161.905,33.148h-7.8V28.315a5.664,5.664,0,0,1,1.824-4.494,5.9,5.9,0,0,1,1.245-.809,9,9,0,0,1,2.207-.745l2.526-.531ZM166.188,15.3c-.591.367-2.592,1.375-8.174,2.58a10.882,10.882,0,0,0-5.538,2.869,10.091,10.091,0,0,0-2.868,7.462v4.932h-3.947a4.212,4.212,0,0,1-2.166-.9,4.837,4.837,0,0,1-1.666-4.031V19.856a.106.106,0,0,0-.135-.1l-4.322,1.208a.105.105,0,0,0-.077.1v7.892a8.4,8.4,0,0,0,2.688,6.6,7.81,7.81,0,0,0,4.592,2.067h21.688a.134.134,0,0,0,.133-.135V15.426a.14.14,0,0,0-.211-.121" transform="translate(-137.298 3.084)" fill="#0c592e"/>
        <path id="Path_122800" data-name="Path 122800" d="M215.245,9.67,211,11.213a.118.118,0,0,0-.077.109v27.3a.137.137,0,0,0,.136.136h4.2a.136.136,0,0,0,.136-.136V9.78a.116.116,0,0,0-.155-.109" transform="translate(-122.439 1.95)" fill="#0c592e"/>
        <path id="Path_122801" data-name="Path 122801" d="M211.054,10.395,215.34,8.75a.093.093,0,0,0,.06-.088V6.984a.094.094,0,0,0-.127-.088L210.988,8.54a.092.092,0,0,0-.061.089v1.678a.094.094,0,0,0,.127.088" transform="translate(-122.439 1.39)" fill="#0c592e"/>
        <path id="Path_122802" data-name="Path 122802" d="M215.4,3.691V5.4a.223.223,0,0,1-.095.18,6.265,6.265,0,0,1-1.62.812c-1.512.413-1.225,2.175-.2,1.868.989-.3-1.739,1.906-1.7,1.877a5.585,5.585,0,0,0,.1-.805,2.292,2.292,0,0,1-.959-1.681c0-1.023.554-2.138,2.471-2.771a3.534,3.534,0,0,0,1.9-1.221.056.056,0,0,1,.1.032" transform="translate(-122.439 0.733)" fill="#0c592e"/>
        <path id="Path_122803" data-name="Path 122803" d="M151.1,61.068l-1.167-3.3h-7.49l-1.195,3.3h-2.931L143.651,47.8a5.2,5.2,0,0,1,2.6-2.672,4.314,4.314,0,0,0,1.042-.809l6.734,16.753ZM142.993,56h6.359l-3.166-8.651Z" transform="translate(-137.092 8.943)" fill="#0c592e"/>
        <path id="Path_122804" data-name="Path 122804" d="M167.612,60.947l-3.836-12.619-3.836,12.619h-2.518l-3.78-13.455a2.025,2.025,0,0,1,1.949-2.573l3.223,13.508,3.5-12.048a2.028,2.028,0,0,1,1.945-1.46h.556l3.924,13.508,2.852-11.953a2.027,2.027,0,0,1,1.97-1.555h1.072l-4.5,16.029Z" transform="translate(-134.015 9.065)" fill="#0c592e"/>
        <path id="Path_122805" data-name="Path 122805" d="M205.367,60.947V49.071a4.154,4.154,0,0,1,4.152-4.153h6.389a2.163,2.163,0,0,1-2.132,1.816h-5.7v5.325h6.616v1.817h-6.616v7.07Z" transform="translate(-123.561 9.065)" fill="#0c592e"/>
        <path id="Path_122806" data-name="Path 122806" d="M180.964,61.324a9.771,9.771,0,0,1-3.218-.454,4.926,4.926,0,0,1-2.1-1.418,4.264,4.264,0,0,1-.9-1.685,10.051,10.051,0,0,1-.285-2.649V51.182a9.762,9.762,0,0,1,.334-2.836,4.22,4.22,0,0,1,1.092-1.777,5.392,5.392,0,0,1,2.056-1.2,10.076,10.076,0,0,1,3.021-.388c3.887,0,5.683-.625,6.5-1.138v11.28a9.762,9.762,0,0,1-.334,2.836,4.241,4.241,0,0,1-1.092,1.779,5.4,5.4,0,0,1-2.044,1.2,10.031,10.031,0,0,1-3.032.387m0-14.394a3.457,3.457,0,0,0-3.06,1.284,6.076,6.076,0,0,0-.737,3.39v3.259a5.4,5.4,0,0,0,1,3.732,3.681,3.681,0,0,0,2.794.942,3.459,3.459,0,0,0,3.06-1.284,6.088,6.088,0,0,0,.736-3.39V47.9a2.26,2.26,0,0,1,.328-1.191,5.79,5.79,0,0,1-1.376.224Z" transform="translate(-129.798 8.847)" fill="#0c592e"/>
        <path id="Path_122807" data-name="Path 122807" d="M201.631,61.068l-1.167-3.3h-7.49l-1.195,3.3h-2.931L194.182,47.8a5.2,5.2,0,0,1,2.6-2.672,4.337,4.337,0,0,0,1.042-.809l6.733,16.753ZM193.524,56h6.359l-3.166-8.651Z" transform="translate(-126.895 8.943)" fill="#0c592e"/>
        <rect id="Rectangle_13982" data-name="Rectangle 13982" width="1.796" height="6.889" transform="translate(51.288 67.064) rotate(-45)" fill="#0c592e"/>
        <path id="Path_122808" data-name="Path 122808" d="M274.311,8.677C267.11,6,261.182,2.822,259.253,0h0c-1.928,2.822-7.856,6-15.058,8.677-8.487,3.154-14.142,7.842-14.142,20.478v22.4c0,12.636,5.655,17.324,14.142,20.478,7.2,2.674,13.13,5.854,15.058,8.677h0c1.929-2.823,7.856-6,15.057-8.677,8.487-3.154,14.142-7.842,14.142-20.478v-22.4c0-12.636-5.654-17.324-14.142-20.478" transform="translate(-118.579)" fill="#0c592e"/>
        <path id="Path_122809" data-name="Path 122809" d="M258.574,74.482l-.208-.154a57.091,57.091,0,0,0-13.625-6.766c-4.277-1.586-6.853-3.237-8.614-5.518-2.044-2.647-3-6.237-3-11.3v-22.7c0-5.06.952-8.649,3-11.3,1.761-2.281,4.337-3.931,8.614-5.518a57.037,57.037,0,0,0,13.625-6.766l.208-.154.209.153a58.223,58.223,0,0,0,13.6,6.768c4.277,1.586,6.853,3.236,8.615,5.517,2.044,2.647,3,6.237,3,11.3v22.7c0,5.06-.952,8.649-3,11.3-1.761,2.281-4.338,3.931-8.615,5.518-4.025,1.493-9.652,3.878-13.6,6.767Zm0-69.3a58.657,58.657,0,0,1-13.59,6.708c-7.231,2.682-11.15,6.051-11.15,16.154v22.7c0,10.1,3.919,13.471,11.15,16.154a58.714,58.714,0,0,1,13.589,6.708A61.617,61.617,0,0,1,272.136,66.9c7.232-2.683,11.151-6.052,11.151-16.154v-22.7c0-10.1-3.919-13.471-11.151-16.152A58.955,58.955,0,0,1,258.575,5.182Z" transform="translate(-117.887 0.958)" fill="#dcb853"/>
        <path id="Path_122810" data-name="Path 122810" d="M266.939,47.855a.923.923,0,0,0-.416-.083l0,0a.94.94,0,0,0-.245.04c-.018.006-.035.014-.052.02a.927.927,0,0,0-.153.069l-.007,0h0a.863.863,0,0,0-.1.075.429.429,0,0,0-.049.026c-.008.008-.013.02-.022.029a.321.321,0,0,0-.04.031l0,.014a.88.88,0,0,0-.162.207,1.737,1.737,0,0,1-.976.141,10.084,10.084,0,0,1-3.216-.856q-.577-.238-1.2-.536c-.006.023-.782.785-1,1.03a2.08,2.08,0,0,0-.516.882l.367.18a14.162,14.162,0,0,0,5.705,1.668,4.436,4.436,0,0,0,1.014-.108,2.2,2.2,0,0,0,1.585-1.169,1.227,1.227,0,0,0-.529-1.66" transform="translate(-112.778 9.492)" fill="#d9a93d"/>
        <path id="Path_122811" data-name="Path 122811" d="M249.869,47.032q-.622.3-1.2.536a10.079,10.079,0,0,1-3.215.856,1.734,1.734,0,0,1-.976-.141.918.918,0,0,0-.163-.207l0-.014a.455.455,0,0,0-.04-.031c-.01-.008-.014-.02-.023-.029a.481.481,0,0,0-.048-.026c-.034-.025-.065-.056-.1-.076h0l-.007,0a.79.79,0,0,0-.153-.067c-.018-.007-.034-.016-.052-.022a.934.934,0,0,0-.245-.04v0a.923.923,0,0,0-.416.083,1.225,1.225,0,0,0-.53,1.659,2.2,2.2,0,0,0,1.586,1.171,4.428,4.428,0,0,0,1.014.108,14.172,14.172,0,0,0,5.7-1.668c.09-.043.367-.18.367-.18a2.091,2.091,0,0,0-.514-.882c-.213-.245-.989-1.007-1-1.03" transform="translate(-116.051 9.492)" fill="#d9a93d"/>
        <path id="Path_122812" data-name="Path 122812" d="M279.892,35.958l-.047-.018c-.083-.025-.422-.136-.728-.232a8.541,8.541,0,0,0-2.562-.343c-.311,0-.63.011-.952.031a16.578,16.578,0,0,0-5.43,1.365,34.36,34.36,0,0,0-7.064,4.454c-1.838,1.389-3.512,2.725-5.082,3.9-1.571-1.172-3.245-2.507-5.082-3.9a34.387,34.387,0,0,0-7.063-4.454,16.592,16.592,0,0,0-5.43-1.365c-.322-.02-.641-.031-.953-.031a8.552,8.552,0,0,0-2.562.343c-.305.1-.645.207-.728.232l-.047.018a.051.051,0,0,0,.024.1,21.572,21.572,0,0,1,7.108,1.929,30.235,30.235,0,0,1,5.307,3.085,33.293,33.293,0,0,1,2.9,2.158q2.28,1.887,4.359,3.423c-.137.091-.275.186-.41.274q-1.7,1.1-3.2,1.887c-1.208-1.308-1-2.152-1-2.152a.811.811,0,0,0-.9-.125c-.726.586.008,1.472.939,2.4.076.076.528.529.534.526a10.517,10.517,0,0,1,.955,1.09,1.463,1.463,0,0,1,.094.159,2.015,2.015,0,0,1-.032,2.221c.6.68.945.377.945.377.675-.409.564-1.475.006-2.494a48.433,48.433,0,0,0,4.238-2.625,48.593,48.593,0,0,0,4.238,2.625c-.558,1.019-.668,2.085.006,2.494,0,0,.349.3.946-.377a2.014,2.014,0,0,1-.034-2.221,1.454,1.454,0,0,1,.095-.159,10.4,10.4,0,0,1,.954-1.09c.006,0,.458-.451.534-.526.93-.928,1.666-1.814.939-2.4a.811.811,0,0,0-.9.125s.2.845-1,2.152q-1.495-.784-3.2-1.887c-.136-.088-.274-.183-.41-.274q2.077-1.536,4.357-3.423a33.688,33.688,0,0,1,2.9-2.158,30.276,30.276,0,0,1,5.306-3.085,21.588,21.588,0,0,1,7.11-1.929.051.051,0,0,0,.023-.1" transform="translate(-117.353 7.137)" fill="#dcb853"/>
        <path id="Path_122813" data-name="Path 122813" d="M260.338,19.815a.056.056,0,0,1,.011-.112h.006a9.6,9.6,0,0,1,6.253,2.086.063.063,0,0,0,.1-.071,7.067,7.067,0,0,0-6.7-4.072c-.208,0-.415.013-.62.031a.057.057,0,0,1-.043-.1,5.931,5.931,0,0,1,3.057-1.034.057.057,0,0,0,.03-.1,5.321,5.321,0,0,0-2.684-.71A5.15,5.15,0,0,0,257,16.52l-.093-.04a6.058,6.058,0,0,0-.617-1.646c-.017-.034-.053-.095-.084-.145a.063.063,0,0,0-.054-.03.062.062,0,0,0-.054.03l-.085.145a6.132,6.132,0,0,0-.614,1.646l-.093.04a5.158,5.158,0,0,0-2.753-.792,5.306,5.306,0,0,0-2.681.71.057.057,0,0,0,.026.1,5.924,5.924,0,0,1,3.059,1.034.056.056,0,0,1-.042.1c-.2-.018-.411-.029-.62-.031a7.067,7.067,0,0,0-6.7,4.072.063.063,0,0,0,.1.071,9.6,9.6,0,0,1,6.253-2.086h0a.056.056,0,0,1,.013.112c-3.285.663-5.861,2.837-6.55,5.628a.065.065,0,0,0,.107.061,13.077,13.077,0,0,1,5.143-2.982.061.061,0,0,1,.06.1,9.646,9.646,0,0,0-3.289,7.011c0,.1,0,.2,0,.3,0,.059.1.087.121.035a12.919,12.919,0,0,1,3.614-4.345.064.064,0,0,1,.1.072,11.648,11.648,0,0,0-.716,3.916,12.052,12.052,0,0,0,.44,3.345.062.062,0,0,0,.12,0,14.9,14.9,0,0,1,2.769-5.974c.038-.053.131-.013.114.048a9.642,9.642,0,0,0-.238,6.251.065.065,0,0,0,.124-.017c.038-.566,1.881-5.877,2.265-5.877s2.226,5.311,2.264,5.877a.065.065,0,0,0,.124.017,9.634,9.634,0,0,0-.238-6.251.064.064,0,0,1,.114-.048,14.831,14.831,0,0,1,2.769,5.974.062.062,0,0,0,.121,0,11.961,11.961,0,0,0,.439-3.345,11.647,11.647,0,0,0-.715-3.916.064.064,0,0,1,.1-.072,12.977,12.977,0,0,1,3.615,4.345c.024.052.119.024.119-.035,0-.1,0-.2,0-.3a9.637,9.637,0,0,0-3.289-7.011.062.062,0,0,1,.06-.1,13.072,13.072,0,0,1,5.144,2.982.066.066,0,0,0,.108-.061c-.691-2.791-3.268-4.965-6.551-5.628" transform="translate(-115.478 2.958)" fill="#dcb853"/>
        <path id="Path_122814" data-name="Path 122814" d="M254.614,22.256h0s-1.57,13.23-1.57,18.649,1.57,5.724,1.57,5.724,1.57-.305,1.57-5.724-1.57-18.649-1.57-18.649" transform="translate(-113.939 4.492)" fill="#dcb853"/>
      </g>
    </g>
  </g>
</svg>
