<svg xmlns="http://www.w3.org/2000/svg" width="20.071" height="15.985" viewBox="0 0 20.071 15.985">
  <path id="mail" d="M48.687,80h-14.3A2.386,2.386,0,0,0,32,82.384V92.6a2.386,2.386,0,0,0,2.384,2.384h14.3A2.386,2.386,0,0,0,51.071,92.6V82.384A2.386,2.386,0,0,0,48.687,80Zm-.6,3.943-6.13,4.768a.681.681,0,0,1-.836,0l-6.13-4.768a.681.681,0,1,1,.836-1.075l5.712,4.443,5.712-4.443a.681.681,0,1,1,.836,1.075Z" transform="translate(-31.5 -79.5)" fill="#00ab7a" stroke="rgba(0,0,0,0)" stroke-miterlimit="10" stroke-width="1"/>
</svg>
