<svg xmlns="http://www.w3.org/2000/svg" xmlns:xlink="http://www.w3.org/1999/xlink" width="327.417" height="108.746" viewBox="0 0 327.417 108.746">
  <defs>
    <clipPath id="clip-path">
      <rect id="Rectangle_14057" data-name="Rectangle 14057" width="212.391" height="34.651" fill="#fff"/>
    </clipPath>
  </defs>
  <g id="markz-ryada" transform="translate(-185.494 -120.288)">
    <g id="_232d6aff" data-name="#232d6aff" transform="translate(185.494 145.395)">
      <path id="Path_124497" data-name="Path 124497" d="M-269.981-13.658l-3.157,10.366h-1.586l-2.469-8.126-2.394,8.126h-1.541L-284.3-13.568l1.347-.2,2.648,8.777,2.454-8.671h1.362l2.559,8.671,2.574-8.671Zm9.576,10.4-1.017-2.512h-5.252l-.973,2.406h-1.436l4.249-10.275,1.586-.2,4.234,10.366Zm-5.79-3.692h4.294l-2.155-5.312Zm19.227-1.559a4.993,4.993,0,0,1-1.9,4.177L-247.807-3l-1,.742-1.137-1.422a6.042,6.042,0,0,1-2.409.469,5.23,5.23,0,0,1-3.928-1.5,5.221,5.221,0,0,1-1.459-3.8,5.228,5.228,0,0,1,1.459-3.791,5.216,5.216,0,0,1,3.928-1.506,5.216,5.216,0,0,1,3.928,1.506A5.228,5.228,0,0,1-246.969-8.513Zm-5.386,4.131a4.277,4.277,0,0,0,1.646-.3l-1.406-1.952.808-.59,1.631,1.907a4.034,4.034,0,0,0,1.287-3.193,4.206,4.206,0,0,0-1.077-3,3.768,3.768,0,0,0-2.888-1.15,3.768,3.768,0,0,0-2.888,1.15,4.206,4.206,0,0,0-1.077,3,4.179,4.179,0,0,0,1.077,2.989A3.781,3.781,0,0,0-252.355-4.382Zm7.825,1.014v-10.29h7.017v1.2h-5.626v3.632h5.117l.209,1.2h-5.327v4.267Zm17.566-10.29a4,4,0,0,1,2.805.923,3.143,3.143,0,0,1,1.01,2.436,3.161,3.161,0,0,1-1.01,2.452,4,4,0,0,1-2.805.923h-2.858v3.556h-1.391v-10.29Zm-.045,5.539a2.647,2.647,0,0,0,1.751-.56,1.986,1.986,0,0,0,.673-1.619,1.964,1.964,0,0,0-.673-1.612,2.671,2.671,0,0,0-1.751-.552h-2.813V-8.12Zm7.332,4.752h-1.391v-10.2l1.391-.2Zm11.768-1.347a5.23,5.23,0,0,1-3.928,1.5,5.23,5.23,0,0,1-3.928-1.5,5.221,5.221,0,0,1-1.459-3.8,5.228,5.228,0,0,1,1.459-3.791,5.216,5.216,0,0,1,3.928-1.506A5.216,5.216,0,0,1-207.91-12.3a5.228,5.228,0,0,1,1.459,3.791A5.221,5.221,0,0,1-207.91-4.715Zm-3.928-7.9a3.794,3.794,0,0,0-2.888,1.135A4.131,4.131,0,0,0-215.8-8.513a4.125,4.125,0,0,0,1.077,2.974,3.807,3.807,0,0,0,2.888,1.127,3.8,3.8,0,0,0,2.9-1.127,4.142,4.142,0,0,0,1.07-2.974,4.148,4.148,0,0,0-1.07-2.966A3.788,3.788,0,0,0-211.837-12.614Zm9.1,1.074v8.172h-1.272v-10.29h1.377l6.12,8.126v-8.036l1.287-.2v10.4h-1.377Zm10.519,8.172v-10.29h7.062v1.2h-5.671v3.238h5.177l.195,1.18h-5.371v3.481h5.82v1.2Zm9.7,0v-10.29h7.062v1.2h-5.671v3.238h5.177l.195,1.18h-5.372v3.481h5.82v1.2Zm16.713.151-3.127-4.116h-2.5v3.965h-1.391v-10.29h4.354a3.92,3.92,0,0,1,2.663.8,2.956,2.956,0,0,1,.913,2.346,2.98,2.98,0,0,1-.673,2.02,3.047,3.047,0,0,1-1.9.976l3.127,4.1Zm-5.626-5.312h2.783q2.334,0,2.334-1.982,0-1.952-2.334-1.952h-2.783Zm10.474,5.16h-1.391v-10.2l1.391-.2Zm4.294-8.172v8.172h-1.272v-10.29h1.377l6.12,8.126v-8.036l1.287-.2v10.4h-1.377Zm17.282,3.163,1.347-.2v4.616a7.749,7.749,0,0,1-3.531.742,5.021,5.021,0,0,1-3.726-1.43,5.242,5.242,0,0,1-1.421-3.866A5.242,5.242,0,0,1-145.3-12.38a5.021,5.021,0,0,1,3.726-1.43,6.391,6.391,0,0,1,3.426.923l-.194,1.241a5.462,5.462,0,0,0-3.172-.968,3.6,3.6,0,0,0-2.746,1.1,4.2,4.2,0,0,0-1.04,3,4.2,4.2,0,0,0,1.04,3,3.6,3.6,0,0,0,2.746,1.1,5.312,5.312,0,0,0,2.125-.378Zm16.055,4.237a6.441,6.441,0,0,1-3.426.923,5.179,5.179,0,0,1-3.785-1.438,5.158,5.158,0,0,1-1.466-3.859,5.144,5.144,0,0,1,1.474-3.859A5.263,5.263,0,0,1-126.7-13.81a6.392,6.392,0,0,1,3.426.923l-.254,1.241a5.462,5.462,0,0,0-3.172-.968,3.748,3.748,0,0,0-2.82,1.1,4.124,4.124,0,0,0-1.07,3,4.141,4.141,0,0,0,1.062,3,3.686,3.686,0,0,0,2.783,1.1,5.763,5.763,0,0,0,3.411-1.014Zm2.409.772v-10.29h7.062v1.2h-5.671v3.238h5.177l.194,1.18h-5.371v3.481h5.82v1.2Zm10.967-8.172v8.172h-1.272v-10.29h1.377l6.12,8.126v-8.036l1.287-.2v10.4h-1.377Zm12.987,8.172v-9.095H-100.5v-1.2h8.469l-.195,1.2h-3.337v9.095Zm6.883,0v-10.29h7.062v1.2H-88.7v3.238h5.177l.195,1.18H-88.7v3.481h5.82v1.2Zm16.713.151L-76.5-7.333H-79v3.965h-1.391v-10.29h4.354a3.92,3.92,0,0,1,2.663.8,2.956,2.956,0,0,1,.913,2.346,2.98,2.98,0,0,1-.673,2.02,3.047,3.047,0,0,1-1.9.976l3.127,4.1ZM-79-8.528h2.783q2.334,0,2.334-1.982,0-1.952-2.334-1.952H-79Z" transform="translate(284.3 58.32)" fill="#fff"/>
      <g id="Group_56142" data-name="Group 56142">
        <rect id="Rectangle_14056" data-name="Rectangle 14056" width="3.079" height="3.079" transform="translate(10.523 32.461) rotate(-44.763)" fill="#fff"/>
        <path id="Path_124478" data-name="Path 124478" d="M2.222,13.982l2.151,2.182,2.195-2.182L4.373,11.8Z" transform="translate(3.481 18.488)" fill="#fff"/>
        <path id="Path_124479" data-name="Path 124479" d="M9.745,2.209,11.9,4.36l2.2-2.151L11.9.012Z" transform="translate(15.268 0.018)" fill="#fff"/>
        <path id="Path_124480" data-name="Path 124480" d="M18.548,0,16.366,2.2l2.182,2.182L20.742,2.2Z" transform="translate(25.642)" fill="#fff"/>
        <path id="Path_124481" data-name="Path 124481" d="M16.675,0,14.48,2.2l2.195,2.182L18.856,2.2Z" transform="translate(22.687)" fill="#fff"/>
        <g id="Group_56143" data-name="Group 56143">
          <g id="Group_56142-2" data-name="Group 56142" clip-path="url(#clip-path)">
            <path id="Path_124482" data-name="Path 124482" d="M47.331,6.125A8.725,8.725,0,0,0,45.362,3.26,3.2,3.2,0,0,0,42.714,2.4a4.072,4.072,0,0,0-1.638.708,6.432,6.432,0,0,0-1.625,1.7,9.894,9.894,0,0,0-1.2,2.616,9.873,9.873,0,0,0-.436,3.475,1.473,1.473,0,0,0,.287.706,1.828,1.828,0,0,0,1.127.842,8.179,8.179,0,0,0,2.556.362,19.918,19.918,0,0,0,4.466-.616c.21.993.357,1.763.436,2.315H33.75a29.933,29.933,0,0,0-.6-4.618A18.533,18.533,0,0,0,31.81,5.9a8,8,0,0,0-1.969-2.708,3.2,3.2,0,0,0-2.556-.767,3.949,3.949,0,0,0-1.625.706,6.4,6.4,0,0,0-1.64,1.7,9.889,9.889,0,0,0-1.2,2.616,10.791,10.791,0,0,0-.393,3.475,1.522,1.522,0,0,0,.272.706,1.868,1.868,0,0,0,1.111.842,8.093,8.093,0,0,0,2.556.362,20.257,20.257,0,0,0,4.469-.616q.331,1.548.434,2.284H20.7a17.365,17.365,0,0,1-3.067-.254,13.655,13.655,0,0,1-2.405-.647,8.272,8.272,0,0,1-1.912-1.04A12.625,12.625,0,0,1,11.7,11.15v2.331a1.827,1.827,0,0,0,.167.767,1.719,1.719,0,0,0,.331.616,1.879,1.879,0,0,0,.375.406.759.759,0,0,0,.272.21,10.529,10.529,0,0,0,3.64,1.789,9.375,9.375,0,0,1-1.383,1.5,11.941,11.941,0,0,1-1.91,1.309A15.154,15.154,0,0,1,10.845,21a11.218,11.218,0,0,1-2.675.331,5.3,5.3,0,0,1-3.206-.986,5.411,5.411,0,0,1-1.938-2.608,7.392,7.392,0,0,1-.28-3.67A9.633,9.633,0,0,1,4.59,9.885L3.237,8.591A13.441,13.441,0,0,0,2,10.278a15.425,15.425,0,0,0-1.037,2.03,11.649,11.649,0,0,0-.721,2.315A10.235,10.235,0,0,0,0,17.059a9.538,9.538,0,0,0,.465,2.618,7.575,7.575,0,0,0,1.414,2.587A7.832,7.832,0,0,0,4.438,24.2a8.637,8.637,0,0,0,3.881.767,11.4,11.4,0,0,0,4.256-.737,11.1,11.1,0,0,0,3.1-1.851,10.96,10.96,0,0,0,2.107-2.377,9.154,9.154,0,0,0,1.1-2.3c.141.018.313.026.467.038v.082H49.123a26.9,26.9,0,0,0,.09-2.708,30.587,30.587,0,0,0-.557-4.813,21.932,21.932,0,0,0-1.324-4.181m-4,3.445a8.211,8.211,0,0,1-1.581.031,3.676,3.676,0,0,1-1.037-.18,1.551,1.551,0,0,1-.675-.377c-.062-.021-.041-.226.059-.616A4.771,4.771,0,0,1,40.624,7.3a4.674,4.674,0,0,1,.857-1.083,1.639,1.639,0,0,1,1.2-.5q1.532,0,2.736,3.55a16.451,16.451,0,0,1-2.089.3M27.9,9.6a8.471,8.471,0,0,1-1.563.031,3.859,3.859,0,0,1-1.055-.182,1.683,1.683,0,0,1-.675-.375c-.062-.021-.041-.226.059-.616a5.93,5.93,0,0,1,.526-1.129,5.453,5.453,0,0,1,.857-1.083,1.637,1.637,0,0,1,1.2-.5q1.548,0,2.782,3.55a18.77,18.77,0,0,1-2.136.3" transform="translate(0 3.711)" fill="#fff"/>
            <path id="Path_124483" data-name="Path 124483" d="M35.487,17.1h-5.6a18.435,18.435,0,0,0-.557-3.2A12.081,12.081,0,0,0,28.3,11.165a6.83,6.83,0,0,0-1.473-1.881,3.007,3.007,0,0,0-1.881-.675,2.863,2.863,0,0,0-2.1.916A8.108,8.108,0,0,0,21.3,11.84,13.425,13.425,0,0,0,20.04,17.4l.031.647a1.444,1.444,0,0,0,.826,1.235,6.071,6.071,0,0,0,1.851.706,9.606,9.606,0,0,0,2.315.347c.472.041,1.188.08,2.151.121a12.349,12.349,0,0,1-5.264,6.812l3.445,2.885a22.186,22.186,0,0,0,3.4-5.141,14.89,14.89,0,0,0,1.1-4.587h8.768V.708L35.487,2.651Zm-9.777-.09a12.224,12.224,0,0,1-1.789-.226,6.364,6.364,0,0,1-1.355-.362c-.349-.169-.526-.385-.526-.644a3.689,3.689,0,0,1,.182-.963,5.607,5.607,0,0,1,.526-1.145,3.932,3.932,0,0,1,.767-.947,1.455,1.455,0,0,1,1.022-.406,1.72,1.72,0,0,1,1.052.375,3.655,3.655,0,0,1,.919.978,6.678,6.678,0,0,1,.706,1.52,10.522,10.522,0,0,1,.406,1.91q-.993,0-1.91-.09" transform="translate(31.398 1.109)" fill="#fff"/>
            <path id="Path_124484" data-name="Path 124484" d="M28.536,20.444l3.2-1.971V.7l-3.2,1.969Z" transform="translate(44.709 1.093)" fill="#fff"/>
            <path id="Path_124485" data-name="Path 124485" d="M39.486,3.254,37.319,1.072,35.14,3.254l2.179,2.195Z" transform="translate(55.056 1.679)" fill="#fff"/>
            <path id="Path_124486" data-name="Path 124486" d="M37.6,3.254,35.448,1.072,33.253,3.254l2.195,2.195Z" transform="translate(52.1 1.679)" fill="#fff"/>
            <path id="Path_124487" data-name="Path 124487" d="M42.218,5.963a11.2,11.2,0,0,0-1.671-1.579q-.585-.466-1.607-1.145a50.717,50.717,0,0,0-3.85,5.144,16.193,16.193,0,0,0-1.476,2.662,8.414,8.414,0,0,0-.616,2,4.021,4.021,0,0,0,.031,1.473A5.556,5.556,0,0,0,33.4,15.6a1.985,1.985,0,0,0,.708.706,3.149,3.149,0,0,0,.947.421A5.809,5.809,0,0,0,36.2,16.9c.272.021.693.028,1.263.028a5.888,5.888,0,0,0,2.708-.644,7.7,7.7,0,0,0,2.1-1.671,7.95,7.95,0,0,0,1.355-2.179,6.533,6.533,0,0,0,.449-2.287,5.312,5.312,0,0,0-.511-2.272,9.023,9.023,0,0,0-1.353-1.91M40.172,12.7a4.46,4.46,0,0,1-1.774.526,4.3,4.3,0,0,1-1.7-.151,1.911,1.911,0,0,1-1.081-.737,1.416,1.416,0,0,1-.092-1.052,4.692,4.692,0,0,1,.557-1.322q.439-.708.919-1.383c.231-.313.57-.734,1.022-1.265q.963.739,1.453,1.181A13.351,13.351,0,0,1,40.639,9.76a6.151,6.151,0,0,1,.991,1.617A3.325,3.325,0,0,1,40.172,12.7" transform="translate(51.617 5.076)" fill="#fff"/>
            <path id="Path_124488" data-name="Path 124488" d="M48.746,8.424a15.526,15.526,0,0,0-1.64-3.052q-1.2-1.625-1.82-2.408l-2,3.429q.828.828,1.609,1.745.708.87,1.263,1.638a7.873,7.873,0,0,1,.88,1.722,8.346,8.346,0,0,1,.413,2.069H40.458a1.3,1.3,0,0,1-1.255-.542,1.677,1.677,0,0,1-.067-1.309,10.369,10.369,0,0,0-.783,1.761,3.749,3.749,0,0,0-.149,1.653,2,2,0,0,0,.706,1.263,2.721,2.721,0,0,0,1.789.5h8.963a14.851,14.851,0,0,0,.128-4.648,17.137,17.137,0,0,0-1.045-3.819" transform="translate(59.797 4.645)" fill="#fff"/>
            <path id="Path_124489" data-name="Path 124489" d="M46.454,11.58l2.151,2.195,2.179-2.195L48.605,9.4Z" transform="translate(72.782 14.724)" fill="#fff"/>
            <path id="Path_124490" data-name="Path 124490" d="M56.237,11.808c.08.141.347.611.8,1.414l.706,1.263a13.561,13.561,0,0,1,.585,1.232,14.593,14.593,0,0,1,.467,1.386H46.9V.709L43.724,2.678V20.424h17.13a21.269,21.269,0,0,0,.254-3.2,19.055,19.055,0,0,0-2.284-8.406Z" transform="translate(68.504 1.111)" fill="#fff"/>
            <path id="Path_124491" data-name="Path 124491" d="M48.335,11.58l2.151,2.195,2.195-2.195L50.486,9.4Z" transform="translate(75.729 14.724)" fill="#fff"/>
            <path id="Path_124492" data-name="Path 124492" d="M65.158,17.1H58.932a23.319,23.319,0,0,0-2.616-8.468L53.865,11.9q.647.978.975,1.563.647,1.205.767,1.52c.252.57.457,1.083.619,1.532a15.207,15.207,0,0,1,.434,1.73,22.728,22.728,0,0,1-.616,2.482A14.644,14.644,0,0,1,54.992,23.1,14.118,14.118,0,0,1,53.339,25.3a12.832,12.832,0,0,1-2.408,1.971l3.414,2.888a22.825,22.825,0,0,0,2.03-2.677,20.044,20.044,0,0,0,1.368-2.5,15.882,15.882,0,0,0,.8-2.346,15.546,15.546,0,0,0,.359-2.21h9.43V.709l-3.173,1.94Z" transform="translate(79.796 1.111)" fill="#fff"/>
            <path id="Path_124493" data-name="Path 124493" d="M58.952,20.444l3.2-1.971V.7l-3.2,1.969Z" transform="translate(92.363 1.093)" fill="#fff"/>
            <path id="Path_124494" data-name="Path 124494" d="M67.5,3.758,65.351,1.576,63.172,3.758l2.179,2.166Z" transform="translate(98.974 2.469)" fill="#fff"/>
            <path id="Path_124495" data-name="Path 124495" d="M86.6,13.059A10.951,10.951,0,0,0,83.128,10.5,16.025,16.025,0,0,0,77.79,9.15L84.9,4.681q1.79-1.113,2.377-.09V1.914A1.217,1.217,0,0,0,86.514.6a2.543,2.543,0,0,0-2.061.547L77.459,5.51c-.329.228-.621.436-.87.616a4.427,4.427,0,0,0-.767.737,3.6,3.6,0,0,0-.526.993,3.711,3.711,0,0,0-.21,1.322v3.175q1.02,0,2.346.118a11.444,11.444,0,0,1,5.015,1.512,6.245,6.245,0,0,1,2.518,3.393H71.039a23.36,23.36,0,0,0-2.618-8.468L65.97,12.171q.647.978.978,1.566c.431.8.685,1.306.767,1.517q.373.859.616,1.535a15.117,15.117,0,0,1,.436,1.73A23.508,23.508,0,0,1,68.152,21,14.741,14.741,0,0,1,67.1,23.377a13.956,13.956,0,0,1-1.653,2.195,12.749,12.749,0,0,1-2.408,1.971l3.414,2.888a22.752,22.752,0,0,0,2.03-2.677,20.273,20.273,0,0,0,1.371-2.5,15.949,15.949,0,0,0,.8-2.346,15.571,15.571,0,0,0,.362-2.21H89.1a14.31,14.31,0,0,0-.588-4.153,9.062,9.062,0,0,0-1.91-3.488" transform="translate(98.761 0.837)" fill="#fff"/>
            <path id="Path_124496" data-name="Path 124496" d="M97.283,11.89a16.762,16.762,0,0,0-.421-1.792q-.316-.916-.739-1.835A7.356,7.356,0,0,0,95.1,6.654a5.478,5.478,0,0,0-1.353-1.142,3.43,3.43,0,0,0-1.671-.421,2.7,2.7,0,0,0-1.743.647A5.624,5.624,0,0,0,89.01,7.452a10.394,10.394,0,0,0-.932,2.315,18.341,18.341,0,0,0-.467,2.5H81.385A23.318,23.318,0,0,0,78.769,3.8L76.318,7.062q.647.978.978,1.563.647,1.205.765,1.52c.252.57.457,1.083.619,1.532a15.809,15.809,0,0,1,.436,1.73,23.286,23.286,0,0,1-.619,2.482,14.645,14.645,0,0,1-1.052,2.377,14.116,14.116,0,0,1-1.653,2.195,12.831,12.831,0,0,1-2.408,1.971L76.8,25.319a22.826,22.826,0,0,0,2.03-2.677,20.043,20.043,0,0,0,1.368-2.5,15.59,15.59,0,0,0,.8-2.346,15.938,15.938,0,0,0,.362-2.21h8.226A9.672,9.672,0,0,1,93,16.146a6.68,6.68,0,0,1,2.713,2,6.246,6.246,0,0,0,.857-1.324,6.731,6.731,0,0,0,.842-3.352,9.1,9.1,0,0,0-.133-1.579m-7.2.375h-.331a10.629,10.629,0,0,1,1.212-2.587A1.98,1.98,0,0,1,92.273,8.8a1.508,1.508,0,0,1,.95.226,3.559,3.559,0,0,1,.963.919,7.145,7.145,0,0,1,.737,1.579,7.223,7.223,0,0,1,.21,2.3,7.733,7.733,0,0,0-5.054-1.563" transform="translate(114.974 5.949)" fill="#fff"/>
          </g>
        </g>
      </g>
    </g>
    <g id="Group_56144" data-name="Group 56144" transform="translate(417.863 120.288)">
      <ellipse id="Ellipse_11190" data-name="Ellipse 11190" cx="3.147" cy="1.289" rx="3.147" ry="1.289" transform="matrix(0.998, 0.07, -0.07, 0.998, 63.875, 0)" fill="#fff"/>
      <ellipse id="Ellipse_11189" data-name="Ellipse 11189" cx="2.259" cy="1.426" rx="2.259" ry="1.426" transform="matrix(0.998, -0.07, 0.07, 0.998, 54.247, 0.685)" fill="#fff"/>
      <ellipse id="Ellipse_11191" data-name="Ellipse 11191" cx="2.493" cy="1.305" rx="2.493" ry="1.305" transform="translate(75.058 0.931) rotate(20)" fill="#fff"/>
      <ellipse id="Ellipse_11176" data-name="Ellipse 11176" cx="6.289" cy="3.003" rx="6.289" ry="3.003" transform="matrix(0.891, -0.454, 0.454, 0.891, 39.595, 6.641)" fill="#fff"/>
      <ellipse id="Ellipse_11194" data-name="Ellipse 11194" cx="2.391" cy="1.475" rx="2.391" ry="1.475" transform="matrix(0.978, 0.208, -0.208, 0.978, 69.902, 3.546)" fill="#fff"/>
      <ellipse id="Ellipse_11192" data-name="Ellipse 11192" cx="2.682" cy="1.979" rx="2.682" ry="1.979" transform="translate(83.403 5.092) rotate(25)" fill="#fff"/>
      <ellipse id="Ellipse_11181" data-name="Ellipse 11181" cx="4.761" cy="1.933" rx="4.761" ry="1.933" transform="matrix(0.809, -0.588, 0.588, 0.809, 26.108, 12.935)" fill="#fff"/>
      <ellipse id="Ellipse_11193" data-name="Ellipse 11193" cx="3.507" cy="2.318" rx="3.507" ry="2.318" transform="translate(73.92 8.726) rotate(25)" fill="#fff"/>
      <ellipse id="Ellipse_11188" data-name="Ellipse 11188" cx="3.836" cy="2.79" rx="3.836" ry="2.79" transform="translate(48.969 13.265) rotate(-20)" fill="#fff"/>
      <ellipse id="Ellipse_11195" data-name="Ellipse 11195" cx="3.237" cy="2.192" rx="3.237" ry="2.192" transform="matrix(0.974, -0.225, 0.225, 0.974, 61.506, 13.915)" fill="#fff"/>
      <ellipse id="Ellipse_11196" data-name="Ellipse 11196" cx="5.081" cy="3.671" rx="5.081" ry="3.671" transform="matrix(0.777, 0.629, -0.629, 0.777, 87.152, 11.788)" fill="#fff"/>
      <ellipse id="Ellipse_11184" data-name="Ellipse 11184" cx="4.066" cy="1.649" rx="4.066" ry="1.649" transform="matrix(-0.656, 0.755, -0.755, -0.656, 25.536, 17.094)" fill="#fff"/>
      <ellipse id="Ellipse_11187" data-name="Ellipse 11187" cx="3.971" cy="2.298" rx="3.971" ry="2.298" transform="translate(38.698 17.931) rotate(-25)" fill="#fff"/>
      <ellipse id="Ellipse_11182" data-name="Ellipse 11182" cx="3.404" cy="2.01" rx="3.404" ry="2.01" transform="translate(35.727 19.461) rotate(135)" fill="#fff"/>
      <ellipse id="Ellipse_11198" data-name="Ellipse 11198" cx="4.314" cy="3.82" rx="4.314" ry="3.82" transform="matrix(0.883, 0.469, -0.469, 0.883, 69.259, 17.571)" fill="#fff"/>
      <ellipse id="Ellipse_11183" data-name="Ellipse 11183" cx="1.584" cy="3.544" rx="1.584" ry="3.544" transform="translate(24.876 19.456) rotate(39)" fill="#fff"/>
      <ellipse id="Ellipse_11177" data-name="Ellipse 11177" cx="7.051" cy="6.281" rx="7.051" ry="6.281" transform="matrix(0.839, -0.545, 0.545, 0.839, 44.071, 25.494)" fill="#fff"/>
      <ellipse id="Ellipse_11197" data-name="Ellipse 11197" cx="4.2" cy="3.13" rx="4.2" ry="3.13" transform="matrix(0.891, 0.454, -0.454, 0.891, 80.776, 21.668)" fill="#fff"/>
      <path id="Path_124457" data-name="Path 124457" d="M539.283,152.542c2.17-.28,4.466,1.876,4.1,4-.616,3.579-3.914,6.462-7.6,7.075-2.249.25-4.7-1.453-4.308-3.791C532.07,156.129,535.542,153.246,539.283,152.542Z" transform="translate(-502.545 -128.131)" fill="#fff"/>
      <ellipse id="Ellipse_11185" data-name="Ellipse 11185" cx="1.399" cy="3.378" rx="1.399" ry="3.378" transform="translate(15.947 24.761) rotate(40)" fill="#fff"/>
      <ellipse id="Ellipse_11186" data-name="Ellipse 11186" cx="3.155" cy="4.223" rx="3.155" ry="4.223" transform="matrix(0.788, 0.616, -0.616, 0.788, 21.984, 26.958)" fill="#fff"/>
      <ellipse id="Ellipse_11204" data-name="Ellipse 11204" cx="1.223" cy="3.45" rx="1.223" ry="3.45" transform="matrix(0.914, 0.407, -0.407, 0.914, 9.442, 31.018)" fill="#fff"/>
      <ellipse id="Ellipse_11219" data-name="Ellipse 11219" cx="3.518" cy="3.515" rx="3.518" ry="3.515" transform="translate(77.759 34.035)" fill="#fff"/>
      <ellipse id="Ellipse_11203" data-name="Ellipse 11203" cx="1.244" cy="2.977" rx="1.244" ry="2.977" transform="translate(14.828 35.373) rotate(31)" fill="#fff"/>
      <ellipse id="Ellipse_11215" data-name="Ellipse 11215" cx="2.766" cy="2.546" rx="2.766" ry="2.546" transform="translate(45.286 38.773) rotate(-31)" fill="#fff"/>
      <ellipse id="Ellipse_11201" data-name="Ellipse 11201" cx="3.236" cy="5.138" rx="3.236" ry="5.138" transform="matrix(0.934, 0.358, -0.358, 0.934, 24.382, 36.872)" fill="#fff"/>
      <ellipse id="Ellipse_11200" data-name="Ellipse 11200" cx="2.853" cy="3.764" rx="2.853" ry="3.764" transform="translate(38.237 37.149) rotate(48)" fill="#fff"/>
      <ellipse id="Ellipse_11220" data-name="Ellipse 11220" cx="3.368" cy="3.428" rx="3.368" ry="3.428" transform="translate(87.68 39.445)" fill="#fff"/>
      <ellipse id="Ellipse_11205" data-name="Ellipse 11205" cx="1.435" cy="3.38" rx="1.435" ry="3.38" transform="translate(8.135 40.009) rotate(20)" fill="#fff"/>
      <ellipse id="Ellipse_11208" data-name="Ellipse 11208" cx="3.086" cy="5.459" rx="3.086" ry="5.459" transform="matrix(0.966, 0.259, -0.259, 0.966, 13.627, 41.787)" fill="#fff"/>
      <ellipse id="Ellipse_11218" data-name="Ellipse 11218" cx="3.926" cy="4.037" rx="3.926" ry="4.037" transform="translate(76.002 44.5)" fill="#fff"/>
      <ellipse id="Ellipse_11248" data-name="Ellipse 11248" cx="1.174" cy="3.679" rx="1.174" ry="3.679" transform="translate(2.341 45.815) rotate(13)" fill="#fff"/>
      <ellipse id="Ellipse_11214" data-name="Ellipse 11214" cx="3.439" cy="3.942" rx="3.439" ry="3.942" transform="translate(51.886 45.982) rotate(50)" fill="#fff"/>
      <ellipse id="Ellipse_11207" data-name="Ellipse 11207" cx="3.205" cy="8.368" rx="3.205" ry="8.368" transform="translate(4.017 50.099)" fill="#fff"/>
      <ellipse id="Ellipse_11209" data-name="Ellipse 11209" cx="2.357" cy="3.446" rx="2.357" ry="3.446" transform="translate(22.322 51.151)" fill="#fff"/>
      <ellipse id="Ellipse_11216" data-name="Ellipse 11216" cx="3.997" cy="4.179" rx="3.997" ry="4.179" transform="translate(59.423 55.249)" fill="#fff"/>
      <ellipse id="Ellipse_11211" data-name="Ellipse 11211" cx="2.795" cy="3.964" rx="2.795" ry="3.964" transform="translate(12.499 56.909)" fill="#fff"/>
      <ellipse id="Ellipse_11222" data-name="Ellipse 11222" cx="3.474" cy="3.902" rx="3.474" ry="3.902" transform="translate(73.288 56.659)" fill="#fff"/>
      <ellipse id="Ellipse_11225" data-name="Ellipse 11225" cx="4.98" cy="5.283" rx="4.98" ry="5.283" transform="translate(42.998 59.428)" fill="#fff"/>
      <ellipse id="Ellipse_11245" data-name="Ellipse 11245" cx="2.907" cy="3.623" rx="2.907" ry="3.623" transform="translate(20.766 61.214)" fill="#fff"/>
      <ellipse id="Ellipse_11249" data-name="Ellipse 11249" cx="0.803" cy="3.851" rx="0.803" ry="3.851" transform="matrix(0.999, 0.035, -0.035, 0.999, 0.269, 62.58)" fill="#fff"/>
      <ellipse id="Ellipse_11226" data-name="Ellipse 11226" cx="3.072" cy="3.454" rx="3.072" ry="3.454" transform="translate(32.339 63.03)" fill="#fff"/>
      <ellipse id="Ellipse_11224" data-name="Ellipse 11224" cx="3.904" cy="4.313" rx="3.904" ry="4.313" transform="translate(54.168 68.636)" fill="#fff"/>
      <ellipse id="Ellipse_11247" data-name="Ellipse 11247" cx="1.237" cy="3.562" rx="1.237" ry="3.562" transform="translate(2.966 70.171) rotate(-7)" fill="#fff"/>
      <ellipse id="Ellipse_11233" data-name="Ellipse 11233" cx="2.649" cy="2.846" rx="2.649" ry="2.846" transform="translate(68.174 70.103)" fill="#fff"/>
      <ellipse id="Ellipse_11243" data-name="Ellipse 11243" cx="3.603" cy="4.907" rx="3.603" ry="4.907" transform="matrix(0.951, -0.309, 0.309, 0.951, 24.242, 71.782)" fill="#fff"/>
      <ellipse id="Ellipse_11244" data-name="Ellipse 11244" cx="2.328" cy="4.226" rx="2.328" ry="4.226" transform="matrix(0.966, -0.259, 0.259, 0.966, 16.355, 72.904)" fill="#fff"/>
      <ellipse id="Ellipse_11237" data-name="Ellipse 11237" cx="5.708" cy="6.795" rx="5.708" ry="6.795" transform="matrix(0.914, -0.407, 0.407, 0.914, 36.206, 76.368)" fill="#fff"/>
      <ellipse id="Ellipse_11246" data-name="Ellipse 11246" cx="2.145" cy="5.045" rx="2.145" ry="5.045" transform="translate(6.153 79.075) rotate(-17)" fill="#fff"/>
      <ellipse id="Ellipse_11250" data-name="Ellipse 11250" cx="1.423" cy="6.09" rx="1.423" ry="6.09" transform="matrix(0.966, -0.259, 0.259, 0.966, 0.776, 79.519)" fill="#fff"/>
      <ellipse id="Ellipse_11251" data-name="Ellipse 11251" cx="1.045" cy="2.877" rx="1.045" ry="2.877" transform="translate(6.678 89.608) rotate(-25)" fill="#fff"/>
      <ellipse id="Ellipse_11234" data-name="Ellipse 11234" cx="5.755" cy="6.256" rx="5.755" ry="6.256" transform="translate(57.001 81.371)" fill="#fff"/>
      <ellipse id="Ellipse_11254" data-name="Ellipse 11254" cx="2.944" cy="6.393" rx="2.944" ry="6.393" transform="translate(14.753 84.404) rotate(-31)" fill="#fff"/>
      <ellipse id="Ellipse_11252" data-name="Ellipse 11252" cx="2.125" cy="5.273" rx="2.125" ry="5.273" transform="translate(11.113 91.555) rotate(-30)" fill="#fff"/>
      <ellipse id="Ellipse_11242" data-name="Ellipse 11242" cx="4.285" cy="6.318" rx="4.285" ry="6.318" transform="matrix(0.788, -0.616, 0.616, 0.788, 33.978, 92.903)" fill="#fff"/>
      <ellipse id="Ellipse_11235" data-name="Ellipse 11235" cx="2.832" cy="3.549" rx="2.832" ry="3.549" transform="matrix(0.839, -0.545, 0.545, 0.839, 47.441, 94.359)" fill="#fff"/>
      <ellipse id="Ellipse_11239" data-name="Ellipse 11239" cx="3.327" cy="5.778" rx="3.327" ry="5.778" transform="matrix(0.809, -0.588, 0.588, 0.809, 26.809, 98.734)" fill="#fff"/>
      <ellipse id="Ellipse_11253" data-name="Ellipse 11253" cx="1.03" cy="4.064" rx="1.03" ry="4.064" transform="matrix(0.788, -0.616, 0.616, 0.788, 14.203, 102.341)" fill="#fff"/>
      <g id="_cb9f36ff" data-name="#cb9f36ff" transform="translate(9.385 3.018)">
        <ellipse id="Ellipse_11178" data-name="Ellipse 11178" cx="5.936" cy="3.728" rx="5.936" ry="3.728" transform="translate(46.302 0) rotate(1)" fill="#fff"/>
        <ellipse id="Ellipse_11179" data-name="Ellipse 11179" cx="3.011" cy="1.687" rx="3.011" ry="1.687" transform="matrix(0.899, -0.438, 0.438, 0.899, 24.335, 9.831)" fill="#fff"/>
        <ellipse id="Ellipse_11232" data-name="Ellipse 11232" cx="7.867" cy="7.717" rx="7.867" ry="7.717" transform="translate(48.785 29.143)" fill="#fff"/>
        <ellipse id="Ellipse_11213" data-name="Ellipse 11213" cx="5.292" cy="5.76" rx="5.292" ry="5.76" transform="translate(22.428 44.734)" fill="#fff"/>
        <ellipse id="Ellipse_11231" data-name="Ellipse 11231" cx="2.924" cy="3.39" rx="2.924" ry="3.39" transform="translate(76.213 51.635)" fill="#fff"/>
        <ellipse id="Ellipse_11228" data-name="Ellipse 11228" cx="2.836" cy="5.508" rx="2.836" ry="5.508" transform="translate(0 63.598)" fill="#fff"/>
        <ellipse id="Ellipse_11229" data-name="Ellipse 11229" cx="2.262" cy="3.984" rx="2.262" ry="3.984" transform="translate(16.973 82.595) rotate(-36)" fill="#fff"/>
        <ellipse id="Ellipse_11255" data-name="Ellipse 11255" cx="2.365" cy="4.237" rx="2.365" ry="4.237" transform="matrix(0.719, -0.695, 0.695, 0.719, 10.674, 98.692)" fill="#fff"/>
      </g>
    </g>
  </g>
</svg>
