<svg xmlns="http://www.w3.org/2000/svg" xmlns:xlink="http://www.w3.org/1999/xlink" width="346.703" height="115.151" viewBox="0 0 346.703 115.151">
  <defs>
    <clipPath id="clip-path">
      <rect id="Rectangle_14057" data-name="Rectangle 14057" width="224.901" height="36.692" fill="#232d6a"/>
    </clipPath>
  </defs>
  <g id="markz-ryadanew" transform="translate(-185.494 -120.288)">
    <g id="_232d6aff" data-name="#232d6aff" transform="translate(185.494 146.874)">
      <path id="Path_124497" data-name="Path 124497" d="M-269.138-13.648l-3.343,10.977h-1.679l-2.614-8.6-2.535,8.6h-1.632l-3.359-10.88,1.426-.208,2.8,9.294,2.6-9.182h1.442l2.709,9.182,2.725-9.182ZM-259-2.639l-1.077-2.66h-5.561l-1.03,2.548h-1.521l4.5-10.88,1.679-.208,4.484,10.977Zm-6.132-3.91h4.547l-2.282-5.624ZM-244.77-8.2a5.287,5.287,0,0,1-2.012,4.423l1.125,1.41-1.062.785-1.2-1.506a6.4,6.4,0,0,1-2.551.5,5.538,5.538,0,0,1-4.159-1.586A5.529,5.529,0,0,1-256.177-8.2a5.536,5.536,0,0,1,1.545-4.014,5.523,5.523,0,0,1,4.159-1.594,5.523,5.523,0,0,1,4.159,1.594A5.536,5.536,0,0,1-244.77-8.2Zm-5.7,4.375a4.529,4.529,0,0,0,1.743-.32l-1.489-2.067.856-.625,1.727,2.019A4.271,4.271,0,0,0-246.275-8.2a4.454,4.454,0,0,0-1.141-3.173,3.99,3.99,0,0,0-3.058-1.218,3.99,3.99,0,0,0-3.058,1.218A4.454,4.454,0,0,0-254.672-8.2a4.425,4.425,0,0,0,1.141,3.165A4,4,0,0,0-250.474-3.825Zm8.286,1.074v-10.9h7.431v1.266h-5.957v3.846h5.419l.222,1.266h-5.64v4.519Zm18.6-10.9a4.24,4.24,0,0,1,2.971.977,3.329,3.329,0,0,1,1.069,2.58,3.348,3.348,0,0,1-1.069,2.6,4.24,4.24,0,0,1-2.971.977h-3.026v3.766h-1.473v-10.9Zm-.048,5.865a2.8,2.8,0,0,0,1.854-.593,2.1,2.1,0,0,0,.713-1.715,2.08,2.08,0,0,0-.713-1.707,2.828,2.828,0,0,0-1.854-.585h-2.979v4.6Zm7.763,5.032h-1.473v-10.8l1.473-.208Zm12.461-1.426a5.538,5.538,0,0,1-4.159,1.586,5.538,5.538,0,0,1-4.159-1.586A5.529,5.529,0,0,1-213.273-8.2a5.536,5.536,0,0,1,1.545-4.014,5.523,5.523,0,0,1,4.159-1.594,5.523,5.523,0,0,1,4.159,1.594A5.536,5.536,0,0,1-201.865-8.2,5.529,5.529,0,0,1-203.41-4.177Zm-4.159-8.365a4.017,4.017,0,0,0-3.058,1.2A4.374,4.374,0,0,0-211.767-8.2a4.368,4.368,0,0,0,1.141,3.149,4.031,4.031,0,0,0,3.058,1.194A4.026,4.026,0,0,0-204.5-5.051,4.386,4.386,0,0,0-203.37-8.2,4.392,4.392,0,0,0-204.5-11.34,4.011,4.011,0,0,0-207.569-12.542Zm9.633,1.138v8.653h-1.347v-10.9h1.458l6.48,8.6v-8.509l1.363-.208V-2.751h-1.458ZM-186.8-2.751v-10.9h7.478v1.266h-6v3.429h5.482l.206,1.25h-5.688v3.686h6.163v1.266Zm10.267,0v-10.9h7.478v1.266h-6v3.429h5.482l.206,1.25h-5.688v3.686h6.163v1.266Zm17.7.16-3.311-4.359h-2.646v4.2h-1.473v-10.9h4.611a4.151,4.151,0,0,1,2.82.849,3.13,3.13,0,0,1,.966,2.484,3.156,3.156,0,0,1-.713,2.139,3.227,3.227,0,0,1-2.012,1.034l3.311,4.343Zm-5.957-5.624h2.947q2.472,0,2.472-2.1,0-2.067-2.472-2.067h-2.947ZM-153.7-2.751h-1.473v-10.8l1.473-.208Zm4.547-8.653v8.653H-150.5v-10.9h1.458l6.48,8.6v-8.509l1.363-.208V-2.751h-1.458Zm18.3,3.349,1.426-.208v4.887a8.206,8.206,0,0,1-3.739.785,5.317,5.317,0,0,1-3.945-1.514A5.551,5.551,0,0,1-138.617-8.2a5.551,5.551,0,0,1,1.505-4.094,5.317,5.317,0,0,1,3.945-1.514,6.768,6.768,0,0,1,3.628.977l-.206,1.314a5.784,5.784,0,0,0-3.359-1.026,3.806,3.806,0,0,0-2.907,1.17,4.442,4.442,0,0,0-1.1,3.173,4.442,4.442,0,0,0,1.1,3.173,3.806,3.806,0,0,0,2.907,1.17,5.625,5.625,0,0,0,2.25-.4Zm17,4.487a6.82,6.82,0,0,1-3.628.977,5.484,5.484,0,0,1-4.008-1.522A5.462,5.462,0,0,1-123.043-8.2a5.447,5.447,0,0,1,1.561-4.086,5.573,5.573,0,0,1,4.064-1.522,6.768,6.768,0,0,1,3.628.977l-.269,1.314a5.784,5.784,0,0,0-3.359-1.026,3.968,3.968,0,0,0-2.987,1.17A4.367,4.367,0,0,0-121.538-8.2a4.385,4.385,0,0,0,1.125,3.173,3.9,3.9,0,0,0,2.947,1.17,6.1,6.1,0,0,0,3.612-1.074Zm2.551.817v-10.9h7.478v1.266h-6v3.429h5.482l.206,1.25h-5.688v3.686h6.163v1.266ZM-99.689-11.4v8.653h-1.347v-10.9h1.458l6.48,8.6v-8.509l1.363-.208V-2.751h-1.458Zm13.752,8.653v-9.631h-3.739v-1.266h8.968l-.206,1.266h-3.533v9.631Zm7.288,0v-10.9h7.478v1.266h-6v3.429h5.482l.206,1.25h-5.688v3.686h6.163v1.266Zm17.7.16L-64.262-6.95h-2.646v4.2h-1.473v-10.9h4.611a4.151,4.151,0,0,1,2.82.849,3.13,3.13,0,0,1,.966,2.484A3.156,3.156,0,0,1-60.7-8.175,3.227,3.227,0,0,1-62.71-7.142L-59.4-2.8Zm-5.957-5.624h2.947q2.472,0,2.472-2.1,0-2.067-2.472-2.067h-2.947Z" transform="translate(284.3 60.94)" fill="#232d6a"/>
      <g id="Group_56142" data-name="Group 56142">
        <rect id="Rectangle_14056" data-name="Rectangle 14056" width="3.26" height="3.26" transform="translate(11.142 34.373) rotate(-44.763)" fill="#232d6a"/>
        <path id="Path_124478" data-name="Path 124478" d="M2.222,14.111,4.5,16.421l2.324-2.31L4.5,11.8Z" transform="translate(3.817 20.272)" fill="#232d6a"/>
        <path id="Path_124479" data-name="Path 124479" d="M9.745,2.338l2.278,2.278,2.327-2.278L12.023.012Z" transform="translate(16.742 0.02)" fill="#232d6a"/>
        <path id="Path_124480" data-name="Path 124480" d="M18.676,0l-2.31,2.327,2.31,2.31L21,2.327Z" transform="translate(28.116)" fill="#232d6a"/>
        <path id="Path_124481" data-name="Path 124481" d="M16.8,0,14.48,2.327,16.8,4.637l2.31-2.31Z" transform="translate(24.876)" fill="#232d6a"/>
        <g id="Group_56143" data-name="Group 56143">
          <g id="Group_56142-2" data-name="Group 56142" clip-path="url(#clip-path)">
            <path id="Path_124482" data-name="Path 124482" d="M50.119,6.346a9.239,9.239,0,0,0-2.085-3.033,3.39,3.39,0,0,0-2.8-.916,4.312,4.312,0,0,0-1.734.75,6.811,6.811,0,0,0-1.72,1.8A10.477,10.477,0,0,0,40.5,7.716a10.454,10.454,0,0,0-.462,3.68,1.56,1.56,0,0,0,.3.747,1.936,1.936,0,0,0,1.193.891,8.661,8.661,0,0,0,2.707.383,21.091,21.091,0,0,0,4.729-.652c.223,1.052.378,1.867.462,2.452h-13.7a31.7,31.7,0,0,0-.636-4.89,19.625,19.625,0,0,0-1.419-4.218A8.465,8.465,0,0,0,31.6,3.242a3.387,3.387,0,0,0-2.707-.813,4.181,4.181,0,0,0-1.72.747,6.78,6.78,0,0,0-1.737,1.8,10.472,10.472,0,0,0-1.272,2.77,11.426,11.426,0,0,0-.416,3.68,1.612,1.612,0,0,0,.288.747,1.979,1.979,0,0,0,1.177.891,8.569,8.569,0,0,0,2.707.383,21.451,21.451,0,0,0,4.732-.652q.351,1.639.459,2.419h-11.2a18.388,18.388,0,0,1-3.248-.269,14.459,14.459,0,0,1-2.547-.685,8.759,8.759,0,0,1-2.025-1.1,13.369,13.369,0,0,1-1.7-1.495v2.468a1.935,1.935,0,0,0,.177.813,1.821,1.821,0,0,0,.351.652,1.99,1.99,0,0,0,.4.429.8.8,0,0,0,.288.223,11.149,11.149,0,0,0,3.854,1.894,9.928,9.928,0,0,1-1.465,1.593,12.644,12.644,0,0,1-2.022,1.386,16.046,16.046,0,0,1-2.487.97,11.879,11.879,0,0,1-2.832.351A5.614,5.614,0,0,1,5.257,21.4,5.729,5.729,0,0,1,3.2,18.642a7.828,7.828,0,0,1-.3-3.887A10.2,10.2,0,0,1,4.86,10.328L3.428,8.958A14.232,14.232,0,0,0,2.12,10.744a16.334,16.334,0,0,0-1.1,2.15,12.335,12.335,0,0,0-.764,2.452A10.838,10.838,0,0,0,0,17.924,10.1,10.1,0,0,0,.5,20.7a8.021,8.021,0,0,0,1.5,2.74A8.293,8.293,0,0,0,4.7,25.488a9.145,9.145,0,0,0,4.11.813,12.072,12.072,0,0,0,4.506-.78,11.755,11.755,0,0,0,3.281-1.96,11.605,11.605,0,0,0,2.231-2.517,9.693,9.693,0,0,0,1.161-2.435c.149.019.332.027.495.041v.087H52.016a28.485,28.485,0,0,0,.1-2.867,32.389,32.389,0,0,0-.59-5.1,23.223,23.223,0,0,0-1.4-4.428M45.885,9.993a8.7,8.7,0,0,1-1.674.033,3.892,3.892,0,0,1-1.1-.19,1.642,1.642,0,0,1-.715-.4c-.065-.022-.043-.239.063-.652a5.052,5.052,0,0,1,.557-1.193,4.949,4.949,0,0,1,.908-1.147A1.736,1.736,0,0,1,45.2,5.917q1.623,0,2.9,3.759a17.419,17.419,0,0,1-2.212.318m-16.34.033a8.97,8.97,0,0,1-1.655.033,4.086,4.086,0,0,1-1.117-.193,1.782,1.782,0,0,1-.715-.4c-.065-.022-.043-.239.063-.652a6.28,6.28,0,0,1,.557-1.2,5.775,5.775,0,0,1,.908-1.147,1.733,1.733,0,0,1,1.275-.525q1.639,0,2.946,3.759a19.875,19.875,0,0,1-2.261.318" transform="translate(0 4.069)" fill="#232d6a"/>
            <path id="Path_124483" data-name="Path 124483" d="M36.4,18.07H30.471a19.521,19.521,0,0,0-.59-3.392,12.792,12.792,0,0,0-1.1-2.9,7.232,7.232,0,0,0-1.56-1.992,3.184,3.184,0,0,0-1.992-.715,3.032,3.032,0,0,0-2.229.97A8.586,8.586,0,0,0,21.377,12.5a14.215,14.215,0,0,0-1.337,5.892l.033.685a1.529,1.529,0,0,0,.875,1.307,6.429,6.429,0,0,0,1.96.747,10.171,10.171,0,0,0,2.452.367c.5.043,1.258.084,2.278.128a13.076,13.076,0,0,1-5.574,7.213l3.647,3.055a23.493,23.493,0,0,0,3.6-5.444,15.767,15.767,0,0,0,1.163-4.857h9.284V.708L36.4,2.765Zm-10.353-.1a12.944,12.944,0,0,1-1.894-.239,6.738,6.738,0,0,1-1.435-.383c-.37-.179-.557-.408-.557-.682a3.906,3.906,0,0,1,.193-1.019,5.937,5.937,0,0,1,.557-1.212,4.164,4.164,0,0,1,.813-1,1.541,1.541,0,0,1,1.082-.429,1.822,1.822,0,0,1,1.114.4,3.87,3.87,0,0,1,.973,1.036,7.071,7.071,0,0,1,.747,1.609,11.142,11.142,0,0,1,.429,2.022q-1.052,0-2.022-.1" transform="translate(34.427 1.216)" fill="#232d6a"/>
            <path id="Path_124484" data-name="Path 124484" d="M28.536,21.607l3.392-2.087V.7L28.536,2.782Z" transform="translate(49.023 1.198)" fill="#232d6a"/>
            <path id="Path_124485" data-name="Path 124485" d="M39.742,3.382l-2.294-2.31L35.14,3.382l2.308,2.324Z" transform="translate(60.369 1.841)" fill="#232d6a"/>
            <path id="Path_124486" data-name="Path 124486" d="M37.855,3.382l-2.278-2.31-2.324,2.31,2.324,2.324Z" transform="translate(57.127 1.841)" fill="#232d6a"/>
            <path id="Path_124487" data-name="Path 124487" d="M42.764,6.124a11.864,11.864,0,0,0-1.769-1.672q-.62-.493-1.7-1.212a53.7,53.7,0,0,0-4.077,5.447,17.146,17.146,0,0,0-1.563,2.818A8.91,8.91,0,0,0,33,13.625a4.258,4.258,0,0,0,.033,1.56,5.883,5.883,0,0,0,.4,1.147,2.1,2.1,0,0,0,.75.747,3.334,3.334,0,0,0,1,.446,6.151,6.151,0,0,0,1.209.177c.288.022.734.03,1.337.03A6.235,6.235,0,0,0,40.6,17.05a8.156,8.156,0,0,0,2.229-1.769,8.418,8.418,0,0,0,1.435-2.308,6.918,6.918,0,0,0,.476-2.422A5.625,5.625,0,0,0,44.2,8.146a9.554,9.554,0,0,0-1.432-2.022M40.6,13.258a4.723,4.723,0,0,1-1.878.557,4.551,4.551,0,0,1-1.8-.16,2.023,2.023,0,0,1-1.144-.78,1.5,1.5,0,0,1-.1-1.114,4.968,4.968,0,0,1,.59-1.4q.465-.75.973-1.465c.245-.332.6-.777,1.082-1.34q1.019.783,1.538,1.25a14.136,14.136,0,0,1,1.234,1.337,6.513,6.513,0,0,1,1.049,1.712,3.521,3.521,0,0,1-1.544,1.4" transform="translate(56.598 5.566)" fill="#232d6a"/>
            <path id="Path_124488" data-name="Path 124488" d="M49.369,8.746a16.441,16.441,0,0,0-1.737-3.232q-1.272-1.72-1.927-2.549L43.588,6.6q.877.877,1.7,1.848.75.921,1.337,1.734A8.337,8.337,0,0,1,47.562,12,8.837,8.837,0,0,1,48,14.193H40.593a1.373,1.373,0,0,1-1.329-.573,1.776,1.776,0,0,1-.071-1.386,10.98,10.98,0,0,0-.829,1.865,3.97,3.97,0,0,0-.158,1.75,2.117,2.117,0,0,0,.747,1.337,2.881,2.881,0,0,0,1.894.527h9.491a15.726,15.726,0,0,0,.136-4.922,18.147,18.147,0,0,0-1.106-4.044" transform="translate(65.567 5.094)" fill="#232d6a"/>
            <path id="Path_124489" data-name="Path 124489" d="M46.454,11.708l2.278,2.324,2.308-2.324L48.732,9.4Z" transform="translate(79.805 16.145)" fill="#232d6a"/>
            <path id="Path_124490" data-name="Path 124490" d="M56.974,12.461c.084.149.367.647.845,1.5l.747,1.337a14.357,14.357,0,0,1,.62,1.3,15.453,15.453,0,0,1,.495,1.468h-12.6V.709L43.724,2.794V21.585H61.863a22.521,22.521,0,0,0,.269-3.392,20.178,20.178,0,0,0-2.419-8.9Z" transform="translate(75.115 1.218)" fill="#232d6a"/>
            <path id="Path_124491" data-name="Path 124491" d="M48.335,11.708l2.278,2.324,2.324-2.324L50.613,9.4Z" transform="translate(83.037 16.145)" fill="#232d6a"/>
            <path id="Path_124492" data-name="Path 124492" d="M66,18.068H59.4A24.692,24.692,0,0,0,56.633,9.1l-2.6,3.457q.685,1.036,1.033,1.655.685,1.276.813,1.609c.266.6.484,1.147.655,1.623A16.1,16.1,0,0,1,57,19.278a24.07,24.07,0,0,1-.652,2.628,15.507,15.507,0,0,1-1.114,2.517,14.949,14.949,0,0,1-1.75,2.324,13.588,13.588,0,0,1-2.549,2.087l3.615,3.058a24.17,24.17,0,0,0,2.15-2.835,21.223,21.223,0,0,0,1.449-2.645,16.817,16.817,0,0,0,.845-2.484,16.459,16.459,0,0,0,.381-2.34h9.986V.709L66,2.764Z" transform="translate(87.496 1.218)" fill="#232d6a"/>
            <path id="Path_124493" data-name="Path 124493" d="M58.952,21.607l3.392-2.087V.7L58.952,2.782Z" transform="translate(101.276 1.198)" fill="#232d6a"/>
            <path id="Path_124494" data-name="Path 124494" d="M67.757,3.886l-2.278-2.31-2.308,2.31L65.479,6.18Z" transform="translate(108.525 2.707)" fill="#232d6a"/>
            <path id="Path_124495" data-name="Path 124495" d="M87.992,13.8a11.6,11.6,0,0,0-3.68-2.707,16.969,16.969,0,0,0-5.653-1.432l7.534-4.732q1.9-1.178,2.517-.1V2A1.289,1.289,0,0,0,87.9.6a2.693,2.693,0,0,0-2.183.579L78.308,5.8c-.348.242-.658.462-.921.652a4.688,4.688,0,0,0-.813.78,3.807,3.807,0,0,0-.557,1.052,3.929,3.929,0,0,0-.223,1.4v3.362q1.08,0,2.484.125a12.119,12.119,0,0,1,5.311,1.6,6.613,6.613,0,0,1,2.666,3.593H71.511A24.736,24.736,0,0,0,68.738,9.4l-2.6,3.454q.685,1.036,1.036,1.658c.457.848.726,1.383.813,1.606q.4.909.652,1.625a16.005,16.005,0,0,1,.462,1.832,24.888,24.888,0,0,1-.652,2.628,15.61,15.61,0,0,1-1.117,2.517,14.779,14.779,0,0,1-1.75,2.324,13.5,13.5,0,0,1-2.549,2.087l3.615,3.058a24.094,24.094,0,0,0,2.15-2.835,21.468,21.468,0,0,0,1.451-2.645,16.888,16.888,0,0,0,.843-2.484,16.485,16.485,0,0,0,.383-2.34H90.637a15.152,15.152,0,0,0-.622-4.4A9.6,9.6,0,0,0,87.992,13.8" transform="translate(108.292 0.918)" fill="#232d6a"/>
            <path id="Path_124496" data-name="Path 124496" d="M98.691,12.367a17.742,17.742,0,0,0-.446-1.9q-.334-.97-.783-1.943a7.789,7.789,0,0,0-1.082-1.7,5.8,5.8,0,0,0-1.432-1.209,3.632,3.632,0,0,0-1.769-.446,2.864,2.864,0,0,0-1.845.685,5.955,5.955,0,0,0-1.4,1.816,11.009,11.009,0,0,0-.987,2.452,19.424,19.424,0,0,0-.495,2.645H81.856A24.692,24.692,0,0,0,79.086,3.8l-2.6,3.457q.685,1.036,1.035,1.655.685,1.276.81,1.609c.266.6.484,1.147.655,1.623a16.742,16.742,0,0,1,.462,1.832A24.666,24.666,0,0,1,78.8,16.6a15.508,15.508,0,0,1-1.114,2.517,14.949,14.949,0,0,1-1.75,2.324,13.587,13.587,0,0,1-2.549,2.087L77,26.587a24.17,24.17,0,0,0,2.15-2.835A21.224,21.224,0,0,0,80.6,21.108a16.5,16.5,0,0,0,.845-2.484,16.872,16.872,0,0,0,.383-2.34h8.711a10.241,10.241,0,0,1,3.623.59,7.074,7.074,0,0,1,2.873,2.117,6.614,6.614,0,0,0,.908-1.4,7.127,7.127,0,0,0,.891-3.55,9.633,9.633,0,0,0-.141-1.672m-7.629.4h-.351a11.254,11.254,0,0,1,1.283-2.74A2.1,2.1,0,0,1,93.385,9.1a1.6,1.6,0,0,1,1.006.239,3.769,3.769,0,0,1,1.019.973,7.566,7.566,0,0,1,.78,1.672,7.648,7.648,0,0,1,.223,2.435,8.189,8.189,0,0,0-5.352-1.655" transform="translate(126.069 6.523)" fill="#232d6a"/>
          </g>
        </g>
      </g>
    </g>
    <g id="Group_56144" data-name="Group 56144" transform="translate(431.55 120.288)">
      <ellipse id="Ellipse_11190" data-name="Ellipse 11190" cx="3.333" cy="1.364" rx="3.333" ry="1.364" transform="matrix(0.998, 0.07, -0.07, 0.998, 67.638, 0)" fill="#232d6a"/>
      <ellipse id="Ellipse_11189" data-name="Ellipse 11189" cx="2.392" cy="1.51" rx="2.392" ry="1.51" transform="matrix(0.998, -0.07, 0.07, 0.998, 57.443, 0.725)" fill="#232d6a"/>
      <ellipse id="Ellipse_11191" data-name="Ellipse 11191" cx="2.64" cy="1.382" rx="2.64" ry="1.382" transform="translate(79.479 0.986) rotate(20)" fill="#232d6a"/>
      <ellipse id="Ellipse_11176" data-name="Ellipse 11176" cx="6.659" cy="3.18" rx="6.659" ry="3.18" transform="matrix(0.891, -0.454, 0.454, 0.891, 41.927, 7.032)" fill="#232d6a"/>
      <ellipse id="Ellipse_11194" data-name="Ellipse 11194" cx="2.532" cy="1.562" rx="2.532" ry="1.562" transform="matrix(0.978, 0.208, -0.208, 0.978, 74.019, 3.755)" fill="#232d6a"/>
      <ellipse id="Ellipse_11192" data-name="Ellipse 11192" cx="2.84" cy="2.096" rx="2.84" ry="2.096" transform="translate(88.316 5.391) rotate(25)" fill="#232d6a"/>
      <ellipse id="Ellipse_11181" data-name="Ellipse 11181" cx="5.041" cy="2.047" rx="5.041" ry="2.047" transform="matrix(0.809, -0.588, 0.588, 0.809, 27.646, 13.697)" fill="#232d6a"/>
      <ellipse id="Ellipse_11193" data-name="Ellipse 11193" cx="3.714" cy="2.454" rx="3.714" ry="2.454" transform="translate(78.274 9.24) rotate(25)" fill="#232d6a"/>
      <ellipse id="Ellipse_11188" data-name="Ellipse 11188" cx="4.062" cy="2.955" rx="4.062" ry="2.955" transform="translate(51.853 14.046) rotate(-20)" fill="#232d6a"/>
      <ellipse id="Ellipse_11195" data-name="Ellipse 11195" cx="3.428" cy="2.322" rx="3.428" ry="2.322" transform="matrix(0.974, -0.225, 0.225, 0.974, 65.129, 14.735)" fill="#232d6a"/>
      <ellipse id="Ellipse_11196" data-name="Ellipse 11196" cx="5.38" cy="3.887" rx="5.38" ry="3.887" transform="matrix(0.777, 0.629, -0.629, 0.777, 92.286, 12.483)" fill="#232d6a"/>
      <ellipse id="Ellipse_11184" data-name="Ellipse 11184" cx="4.305" cy="1.746" rx="4.305" ry="1.746" transform="matrix(-0.656, 0.755, -0.755, -0.656, 27.041, 18.101)" fill="#232d6a"/>
      <ellipse id="Ellipse_11187" data-name="Ellipse 11187" cx="4.204" cy="2.434" rx="4.204" ry="2.434" transform="translate(40.977 18.987) rotate(-25)" fill="#232d6a"/>
      <ellipse id="Ellipse_11182" data-name="Ellipse 11182" cx="3.604" cy="2.129" rx="3.604" ry="2.129" transform="translate(37.832 20.607) rotate(135)" fill="#232d6a"/>
      <ellipse id="Ellipse_11198" data-name="Ellipse 11198" cx="4.568" cy="4.045" rx="4.568" ry="4.045" transform="matrix(0.883, 0.469, -0.469, 0.883, 73.339, 18.606)" fill="#232d6a"/>
      <ellipse id="Ellipse_11183" data-name="Ellipse 11183" cx="1.678" cy="3.753" rx="1.678" ry="3.753" transform="translate(26.341 20.602) rotate(39)" fill="#232d6a"/>
      <ellipse id="Ellipse_11177" data-name="Ellipse 11177" cx="7.467" cy="6.651" rx="7.467" ry="6.651" transform="matrix(0.839, -0.545, 0.545, 0.839, 46.667, 26.996)" fill="#232d6a"/>
      <ellipse id="Ellipse_11197" data-name="Ellipse 11197" cx="4.448" cy="3.315" rx="4.448" ry="3.315" transform="matrix(0.891, 0.454, -0.454, 0.891, 85.533, 22.944)" fill="#232d6a"/>
      <path id="Path_124457" data-name="Path 124457" d="M539.745,152.544c2.3-.3,4.729,1.987,4.345,4.23-.652,3.79-4.144,6.842-8.046,7.491-2.382.264-4.98-1.538-4.562-4.014C532.108,156.341,535.784,153.289,539.745,152.544Z" transform="translate(-500.843 -126.695)" fill="#232d6a"/>
      <ellipse id="Ellipse_11185" data-name="Ellipse 11185" cx="1.482" cy="3.577" rx="1.482" ry="3.577" transform="translate(16.886 26.219) rotate(40)" fill="#232d6a"/>
      <ellipse id="Ellipse_11186" data-name="Ellipse 11186" cx="3.34" cy="4.472" rx="3.34" ry="4.472" transform="matrix(0.788, 0.616, -0.616, 0.788, 23.279, 28.546)" fill="#232d6a"/>
      <ellipse id="Ellipse_11204" data-name="Ellipse 11204" cx="1.295" cy="3.654" rx="1.295" ry="3.654" transform="matrix(0.914, 0.407, -0.407, 0.914, 9.998, 32.845)" fill="#232d6a"/>
      <ellipse id="Ellipse_11219" data-name="Ellipse 11219" cx="3.726" cy="3.722" rx="3.726" ry="3.722" transform="translate(82.34 36.04)" fill="#232d6a"/>
      <ellipse id="Ellipse_11203" data-name="Ellipse 11203" cx="1.317" cy="3.153" rx="1.317" ry="3.153" transform="translate(15.702 37.456) rotate(31)" fill="#232d6a"/>
      <ellipse id="Ellipse_11215" data-name="Ellipse 11215" cx="2.928" cy="2.696" rx="2.928" ry="2.696" transform="translate(47.953 41.056) rotate(-31)" fill="#232d6a"/>
      <ellipse id="Ellipse_11201" data-name="Ellipse 11201" cx="3.426" cy="5.441" rx="3.426" ry="5.441" transform="matrix(0.934, 0.358, -0.358, 0.934, 25.818, 39.043)" fill="#232d6a"/>
      <ellipse id="Ellipse_11200" data-name="Ellipse 11200" cx="3.021" cy="3.985" rx="3.021" ry="3.985" transform="translate(40.489 39.337) rotate(48)" fill="#232d6a"/>
      <ellipse id="Ellipse_11220" data-name="Ellipse 11220" cx="3.567" cy="3.629" rx="3.567" ry="3.629" transform="translate(92.844 41.769)" fill="#232d6a"/>
      <ellipse id="Ellipse_11205" data-name="Ellipse 11205" cx="1.52" cy="3.58" rx="1.52" ry="3.58" transform="translate(8.614 42.366) rotate(20)" fill="#232d6a"/>
      <ellipse id="Ellipse_11208" data-name="Ellipse 11208" cx="3.268" cy="5.781" rx="3.268" ry="5.781" transform="matrix(0.966, 0.259, -0.259, 0.966, 14.429, 44.249)" fill="#232d6a"/>
      <ellipse id="Ellipse_11218" data-name="Ellipse 11218" cx="4.157" cy="4.274" rx="4.157" ry="4.274" transform="translate(80.479 47.121)" fill="#232d6a"/>
      <ellipse id="Ellipse_11248" data-name="Ellipse 11248" cx="1.243" cy="3.895" rx="1.243" ry="3.895" transform="translate(2.479 48.513) rotate(13)" fill="#232d6a"/>
      <ellipse id="Ellipse_11214" data-name="Ellipse 11214" cx="3.642" cy="4.174" rx="3.642" ry="4.174" transform="translate(54.942 48.691) rotate(50)" fill="#232d6a"/>
      <ellipse id="Ellipse_11207" data-name="Ellipse 11207" cx="3.394" cy="8.861" rx="3.394" ry="8.861" transform="translate(4.253 53.05)" fill="#232d6a"/>
      <ellipse id="Ellipse_11209" data-name="Ellipse 11209" cx="2.495" cy="3.65" rx="2.495" ry="3.65" transform="translate(23.637 54.163)" fill="#232d6a"/>
      <ellipse id="Ellipse_11216" data-name="Ellipse 11216" cx="4.233" cy="4.425" rx="4.233" ry="4.425" transform="translate(62.923 58.503)" fill="#232d6a"/>
      <ellipse id="Ellipse_11211" data-name="Ellipse 11211" cx="2.959" cy="4.198" rx="2.959" ry="4.198" transform="translate(13.235 60.261)" fill="#232d6a"/>
      <ellipse id="Ellipse_11222" data-name="Ellipse 11222" cx="3.679" cy="4.132" rx="3.679" ry="4.132" transform="translate(77.604 59.996)" fill="#232d6a"/>
      <ellipse id="Ellipse_11225" data-name="Ellipse 11225" cx="5.274" cy="5.594" rx="5.274" ry="5.594" transform="translate(45.531 62.929)" fill="#232d6a"/>
      <ellipse id="Ellipse_11245" data-name="Ellipse 11245" cx="3.078" cy="3.836" rx="3.078" ry="3.836" transform="translate(21.989 64.819)" fill="#232d6a"/>
      <ellipse id="Ellipse_11249" data-name="Ellipse 11249" cx="0.85" cy="4.078" rx="0.85" ry="4.078" transform="matrix(0.999, 0.035, -0.035, 0.999, 0.285, 66.267)" fill="#232d6a"/>
      <ellipse id="Ellipse_11226" data-name="Ellipse 11226" cx="3.253" cy="3.658" rx="3.253" ry="3.658" transform="translate(34.244 66.742)" fill="#232d6a"/>
      <ellipse id="Ellipse_11224" data-name="Ellipse 11224" cx="4.134" cy="4.567" rx="4.134" ry="4.567" transform="translate(57.358 72.679)" fill="#232d6a"/>
      <ellipse id="Ellipse_11247" data-name="Ellipse 11247" cx="1.31" cy="3.772" rx="1.31" ry="3.772" transform="translate(3.141 74.304) rotate(-7)" fill="#232d6a"/>
      <ellipse id="Ellipse_11233" data-name="Ellipse 11233" cx="2.805" cy="3.014" rx="2.805" ry="3.014" transform="translate(72.19 74.233)" fill="#232d6a"/>
      <ellipse id="Ellipse_11243" data-name="Ellipse 11243" cx="3.815" cy="5.196" rx="3.815" ry="5.196" transform="matrix(0.951, -0.309, 0.309, 0.951, 25.67, 76.01)" fill="#232d6a"/>
      <ellipse id="Ellipse_11244" data-name="Ellipse 11244" cx="2.465" cy="4.475" rx="2.465" ry="4.475" transform="matrix(0.966, -0.259, 0.259, 0.966, 17.318, 77.198)" fill="#232d6a"/>
      <ellipse id="Ellipse_11237" data-name="Ellipse 11237" cx="6.045" cy="7.195" rx="6.045" ry="7.195" transform="matrix(0.914, -0.407, 0.407, 0.914, 38.339, 80.867)" fill="#232d6a"/>
      <ellipse id="Ellipse_11246" data-name="Ellipse 11246" cx="2.271" cy="5.343" rx="2.271" ry="5.343" transform="translate(6.516 83.733) rotate(-17)" fill="#232d6a"/>
      <ellipse id="Ellipse_11250" data-name="Ellipse 11250" cx="1.507" cy="6.449" rx="1.507" ry="6.449" transform="matrix(0.966, -0.259, 0.259, 0.966, 0.821, 84.202)" fill="#232d6a"/>
      <ellipse id="Ellipse_11251" data-name="Ellipse 11251" cx="1.107" cy="3.047" rx="1.107" ry="3.047" transform="translate(7.071 94.887) rotate(-25)" fill="#232d6a"/>
      <ellipse id="Ellipse_11234" data-name="Ellipse 11234" cx="6.094" cy="6.624" rx="6.094" ry="6.624" transform="translate(60.358 86.164)" fill="#232d6a"/>
      <ellipse id="Ellipse_11254" data-name="Ellipse 11254" cx="3.117" cy="6.77" rx="3.117" ry="6.77" transform="translate(15.622 89.375) rotate(-31)" fill="#232d6a"/>
      <ellipse id="Ellipse_11252" data-name="Ellipse 11252" cx="2.25" cy="5.584" rx="2.25" ry="5.584" transform="translate(11.768 96.948) rotate(-30)" fill="#232d6a"/>
      <ellipse id="Ellipse_11242" data-name="Ellipse 11242" cx="4.537" cy="6.691" rx="4.537" ry="6.691" transform="matrix(0.788, -0.616, 0.616, 0.788, 35.979, 98.375)" fill="#232d6a"/>
      <ellipse id="Ellipse_11235" data-name="Ellipse 11235" cx="2.999" cy="3.758" rx="2.999" ry="3.758" transform="matrix(0.839, -0.545, 0.545, 0.839, 50.235, 99.917)" fill="#232d6a"/>
      <ellipse id="Ellipse_11239" data-name="Ellipse 11239" cx="3.522" cy="6.118" rx="3.522" ry="6.118" transform="matrix(0.809, -0.588, 0.588, 0.809, 28.388, 104.55)" fill="#232d6a"/>
      <ellipse id="Ellipse_11253" data-name="Ellipse 11253" cx="1.091" cy="4.303" rx="1.091" ry="4.303" transform="matrix(0.788, -0.616, 0.616, 0.788, 15.04, 108.369)" fill="#232d6a"/>
      <g id="_cb9f36ff" data-name="#cb9f36ff" transform="translate(9.938 3.196)">
        <ellipse id="Ellipse_11178" data-name="Ellipse 11178" cx="6.285" cy="3.947" rx="6.285" ry="3.947" transform="translate(49.03 0) rotate(1)" fill="#cb9f36"/>
        <ellipse id="Ellipse_11179" data-name="Ellipse 11179" cx="3.189" cy="1.787" rx="3.189" ry="1.787" transform="matrix(0.899, -0.438, 0.438, 0.899, 25.768, 10.41)" fill="#cb9f36"/>
        <ellipse id="Ellipse_11232" data-name="Ellipse 11232" cx="8.33" cy="8.171" rx="8.33" ry="8.171" transform="translate(51.659 30.859)" fill="#cb9f36"/>
        <ellipse id="Ellipse_11213" data-name="Ellipse 11213" cx="5.603" cy="6.099" rx="5.603" ry="6.099" transform="translate(23.75 47.369)" fill="#cb9f36"/>
        <ellipse id="Ellipse_11231" data-name="Ellipse 11231" cx="3.097" cy="3.589" rx="3.097" ry="3.589" transform="translate(80.703 54.677)" fill="#cb9f36"/>
        <ellipse id="Ellipse_11228" data-name="Ellipse 11228" cx="3.003" cy="5.833" rx="3.003" ry="5.833" transform="translate(0 67.344)" fill="#cb9f36"/>
        <ellipse id="Ellipse_11229" data-name="Ellipse 11229" cx="2.396" cy="4.218" rx="2.396" ry="4.218" transform="translate(17.973 87.46) rotate(-36)" fill="#cb9f36"/>
        <ellipse id="Ellipse_11255" data-name="Ellipse 11255" cx="2.504" cy="4.487" rx="2.504" ry="4.487" transform="matrix(0.719, -0.695, 0.695, 0.719, 11.302, 104.506)" fill="#cb9f36"/>
      </g>
    </g>
  </g>
</svg>
