<svg xmlns="http://www.w3.org/2000/svg" width="18.922" height="20.802" viewBox="0 0 18.922 20.802">
  <g id="moon" transform="translate(4687.741 1889.76)">
    <path id="moon-2" data-name="moon" d="M33.536,20.8a10.384,10.384,0,0,0,8.079-3.851,1.951,1.951,0,0,0-1.879-3.145,5.411,5.411,0,0,1-3.691-10.02,1.952,1.952,0,0,0-.61-3.613,10.4,10.4,0,1,0-1.9,20.628Zm0-18.851a8.5,8.5,0,0,1,1.545.141A7.361,7.361,0,0,0,40.1,15.722,8.451,8.451,0,1,1,33.536,1.95Z" transform="translate(-4710.876 -1889.76)" fill="#0c592e"/>
  </g>
</svg>
