<svg xmlns="http://www.w3.org/2000/svg" width="100" height="100" viewBox="0 0 100 100">
  <g id="numbers-icon1" transform="translate(22530.523 -35.873)">
    <rect id="base" width="100" height="100" transform="translate(-22530.523 35.873)" fill="none"/>
    <g id="Group_56135" data-name="Group 56135" transform="translate(-0.299 0.478)">
      <g id="Group_56117" data-name="Group 56117" transform="translate(-22519.225 73.123)">
        <path id="Path_124415" data-name="Path 124415" d="M-22496,109.376l31.322-12.677V72.4l-22.113,10.564-9.209-6.205Z" transform="translate(22534.127 -55.148)" fill="none" stroke="#fff" stroke-linecap="round" stroke-linejoin="round" stroke-width="2"/>
        <path id="Path_124416" data-name="Path 124416" d="M-22484.795,76.468l-6.709,7.758-22.461-11.4V94.938l29.373,14.168" transform="translate(22522.604 -54.877)" fill="none" stroke="#fff" stroke-linecap="round" stroke-linejoin="round" stroke-width="2"/>
        <path id="Path_124417" data-name="Path 124417" d="M-22509.895,77.761l-9.328-4.981,9.328-7.114,28.334,14.168,30.061-14.168,9.68,7.114-8.035,4.03" transform="translate(22519.223 -59.47)" fill="none" stroke="#fff" stroke-linecap="round" stroke-linejoin="round" stroke-width="2"/>
        <path id="Path_124418" data-name="Path 124418" d="M-22483.947,61.923l10.135,5.6" transform="translate(22541.299 -61.532)" fill="none" stroke="#fff" stroke-linecap="round" stroke-width="2"/>
        <path id="Path_124419" data-name="Path 124419" d="M-22513.389,67.89l10.611-5.99" transform="translate(22522.973 -61.9)" fill="none" stroke="#fff" stroke-linecap="round" stroke-width="2"/>
      </g>
      <path id="Path_122809" data-name="Path 122809" d="M248.517,46.745l-.126-.093a34.523,34.523,0,0,0-8.239-4.092c-2.586-.959-4.144-1.957-5.209-3.337-1.236-1.6-1.812-3.772-1.812-6.832V18.662c0-3.06.576-5.231,1.812-6.832,1.065-1.38,2.623-2.377,5.209-3.337A34.491,34.491,0,0,0,248.391,4.4l.126-.093.126.092a35.21,35.21,0,0,0,8.223,4.093c2.586.959,4.144,1.957,5.21,3.336,1.236,1.6,1.812,3.772,1.812,6.831v13.73c0,3.06-.576,5.23-1.812,6.832-1.065,1.379-2.623,2.377-5.21,3.337a36.309,36.309,0,0,0-8.223,4.092Zm0-41.909A35.471,35.471,0,0,1,240.3,8.893c-4.373,1.622-6.743,3.659-6.743,9.769v13.73c0,6.109,2.37,8.147,6.743,9.769a35.506,35.506,0,0,1,8.218,4.056,37.263,37.263,0,0,1,8.2-4.056c4.374-1.622,6.744-3.66,6.744-9.769V18.662c0-6.109-2.37-8.146-6.744-9.768A35.653,35.653,0,0,1,248.518,4.837Z" transform="translate(-22729.031 40.086)" fill="none" stroke="#fff" stroke-width="2"/>
      <g id="Group_56116" data-name="Group 56116" transform="translate(-22493.77 51.863)">
        <path id="Path_124420" data-name="Path 124420" d="M263.721,47.53a.558.558,0,0,0-.251-.05v0a.568.568,0,0,0-.148.024l-.031.012a.565.565,0,0,0-.092.041l0,0h0a.522.522,0,0,0-.058.045.247.247,0,0,0-.03.016c-.005.005-.008.012-.013.017a.188.188,0,0,0-.024.019l0,.009a.534.534,0,0,0-.1.125,1.05,1.05,0,0,1-.59.085,6.1,6.1,0,0,1-1.945-.517q-.349-.144-.727-.324c0,.014-.473.475-.6.623a1.258,1.258,0,0,0-.312.533l.222.109a8.564,8.564,0,0,0,3.45,1.009,2.684,2.684,0,0,0,.613-.065,1.333,1.333,0,0,0,.959-.707.742.742,0,0,0-.32-1" transform="translate(-242.319 -23.503)" fill="#fff"/>
        <path id="Path_124421" data-name="Path 124421" d="M246.988,47.032q-.376.181-.727.324a6.1,6.1,0,0,1-1.944.517,1.048,1.048,0,0,1-.59-.085.555.555,0,0,0-.1-.125l0-.009a.27.27,0,0,0-.024-.019c-.006-.005-.009-.012-.014-.017a.292.292,0,0,0-.029-.016c-.02-.015-.039-.034-.059-.046h0a.479.479,0,0,0-.092-.041l-.031-.013a.563.563,0,0,0-.148-.024v0a.559.559,0,0,0-.252.05.741.741,0,0,0-.321,1,1.331,1.331,0,0,0,.959.708,2.678,2.678,0,0,0,.613.065A8.57,8.57,0,0,0,247.68,48.3l.222-.109a1.265,1.265,0,0,0-.311-.533c-.129-.148-.6-.609-.6-.623" transform="translate(-237.886 -23.503)" fill="#fff"/>
        <path id="Path_124422" data-name="Path 124422" d="M262.594,35.724l-.028-.011-.44-.14a5.165,5.165,0,0,0-1.549-.207c-.188,0-.381.007-.576.019a10.025,10.025,0,0,0-3.284.826,20.779,20.779,0,0,0-4.272,2.693c-1.111.84-2.124,1.648-3.074,2.356-.95-.709-1.962-1.516-3.074-2.356a20.8,20.8,0,0,0-4.271-2.693,10.035,10.035,0,0,0-3.284-.826c-.195-.012-.387-.019-.576-.019a5.171,5.171,0,0,0-1.549.207l-.44.14-.028.011a.031.031,0,0,0,.015.06,13.045,13.045,0,0,1,4.3,1.166,18.285,18.285,0,0,1,3.209,1.866,20.138,20.138,0,0,1,1.755,1.305q1.379,1.141,2.636,2.07c-.083.055-.166.113-.248.166q-1.03.666-1.936,1.141c-.73-.791-.608-1.3-.608-1.3a.49.49,0,0,0-.541-.076c-.439.355.005.89.568,1.451.046.046.319.32.323.318a6.364,6.364,0,0,1,.578.659.881.881,0,0,1,.057.1,1.218,1.218,0,0,1-.02,1.343c.361.411.571.228.571.228.408-.247.341-.892,0-1.508a29.278,29.278,0,0,0,2.563-1.587,29.383,29.383,0,0,0,2.563,1.587c-.337.616-.4,1.261,0,1.508,0,0,.211.183.572-.228a1.218,1.218,0,0,1-.02-1.343.876.876,0,0,1,.057-.1,6.3,6.3,0,0,1,.577-.659s.277-.273.323-.318c.563-.561,1.007-1.1.568-1.451a.49.49,0,0,0-.541.076s.123.511-.608,1.3c-.6-.316-1.249-.7-1.935-1.141-.082-.053-.166-.11-.248-.166q1.256-.929,2.635-2.07a20.379,20.379,0,0,1,1.756-1.305,18.3,18.3,0,0,1,3.209-1.866,13.054,13.054,0,0,1,4.3-1.166.031.031,0,0,0,.014-.06" transform="translate(-236.128 -20.316)" fill="#fff"/>
        <path id="Path_124423" data-name="Path 124423" d="M254.44,17.777a.034.034,0,0,1,.007-.068h0a5.807,5.807,0,0,1,3.781,1.262.038.038,0,0,0,.06-.043,4.274,4.274,0,0,0-4.05-2.462c-.126,0-.251.008-.375.019a.034.034,0,0,1-.026-.062,3.587,3.587,0,0,1,1.849-.625.034.034,0,0,0,.018-.063,3.218,3.218,0,0,0-1.623-.43,3.114,3.114,0,0,0-1.664.479l-.056-.024a3.665,3.665,0,0,0-.373-1c-.01-.02-.032-.057-.051-.088a.038.038,0,0,0-.033-.018.038.038,0,0,0-.033.018l-.052.088a3.71,3.71,0,0,0-.371,1l-.056.024a3.119,3.119,0,0,0-1.665-.479,3.209,3.209,0,0,0-1.621.43.034.034,0,0,0,.016.063,3.583,3.583,0,0,1,1.85.625.034.034,0,0,1-.025.062c-.124-.011-.249-.017-.375-.019a4.274,4.274,0,0,0-4.05,2.462.038.038,0,0,0,.06.043,5.806,5.806,0,0,1,3.781-1.262h0a.034.034,0,0,1,.008.068,4.913,4.913,0,0,0-3.961,3.4.039.039,0,0,0,.065.037,7.908,7.908,0,0,1,3.11-1.8.037.037,0,0,1,.036.063,5.834,5.834,0,0,0-1.989,4.24c0,.06,0,.121,0,.181,0,.036.059.052.073.021a7.813,7.813,0,0,1,2.185-2.627.039.039,0,0,1,.06.044,7.042,7.042,0,0,0-.433,2.368,7.287,7.287,0,0,0,.266,2.023.037.037,0,0,0,.073,0,9.008,9.008,0,0,1,1.675-3.613c.023-.032.079-.008.069.029a5.831,5.831,0,0,0-.144,3.78.04.04,0,0,0,.075-.01,15.211,15.211,0,0,1,1.37-3.554,15.208,15.208,0,0,1,1.369,3.554.04.04,0,0,0,.075.01,5.826,5.826,0,0,0-.144-3.78.039.039,0,0,1,.069-.029,8.968,8.968,0,0,1,1.675,3.613.038.038,0,0,0,.073,0,7.23,7.23,0,0,0,.265-2.023,7.044,7.044,0,0,0-.432-2.368.039.039,0,0,1,.06-.044,7.848,7.848,0,0,1,2.186,2.627c.015.031.072.015.072-.021,0-.06,0-.121,0-.181a5.828,5.828,0,0,0-1.989-4.24.037.037,0,0,1,.036-.062,7.905,7.905,0,0,1,3.111,1.8.04.04,0,0,0,.065-.037,4.917,4.917,0,0,0-3.962-3.4" transform="translate(-238.664 -14.658)" fill="#fff"/>
        <path id="Path_124424" data-name="Path 124424" d="M253.993,22.256h0s-.949,8-.949,11.277.949,3.462.949,3.462.949-.185.949-3.462-.949-11.277-.949-11.277" transform="translate(-240.746 -16.734)" fill="#fff"/>
      </g>
    </g>
  </g>
</svg>
