<svg xmlns="http://www.w3.org/2000/svg" width="100" height="100" viewBox="0 0 100 100">
  <g id="numbers-icon4" transform="translate(5.797 23.258)">
    <rect id="base" width="100" height="100" transform="translate(-5.797 -23.258)" fill="none"/>
    <path id="Path_124910" data-name="Path 124910" d="M1175.6,18.219h13.344m-3.152-5.719h-6.842a.992.992,0,0,1-.931-.648l-3.5-9.453a.992.992,0,0,1,.931-1.337h13.839a.993.993,0,0,1,.932,1.337l-3.5,9.453A.992.992,0,0,1,1185.793,12.5Zm-23.536,32.407V40.254a16.315,16.315,0,0,1,16.316-16.315h7.4a16.315,16.315,0,0,1,16.315,16.315V56.346m-66.72-4.91,11.186-5.618L1161.5,74.883l-12.583,6.245M1195,57.985l16.831-3.962a3.092,3.092,0,0,1,2.121,5.761l-26.053,10.7a34.278,34.278,0,0,1-17.908,2.218l-10.359-1.492m-11.1-22.2c9.415-5.125,20.679-3.718,29.448,2.287l1.815,1.244h11.174a3.813,3.813,0,0,1,0,7.626h-19.181" transform="translate(-1131.865 -14.822)" fill="none" stroke="#fff" stroke-linecap="round" stroke-linejoin="round" stroke-width="2"/>
  </g>
</svg>
