<svg xmlns="http://www.w3.org/2000/svg" width="100" height="100" viewBox="0 0 100 100">
  <g id="numbers-icon4" transform="translate(5.797 23.258)">
    <rect id="base" width="100" height="100" transform="translate(-5.797 -23.258)" fill="none"/>
    <g id="Group_56138" data-name="Group 56138" transform="translate(19297.57 4934.145)">
      <path id="Path_122983" data-name="Path 122983" d="M1187.688,146.292a.318.318,0,1,1-.318-.318A.318.318,0,0,1,1187.688,146.292Z" transform="translate(-20433.797 -5042.804)" fill="none" stroke="#fff" stroke-linecap="round" stroke-linejoin="round" stroke-width="2"/>
      <path id="Path_122984" data-name="Path 122984" d="M1184.422,146.292a.318.318,0,1,1-.318-.318A.317.317,0,0,1,1184.422,146.292Z" transform="translate(-20434.891 -5042.804)" fill="none" stroke="#fff" stroke-linecap="round" stroke-linejoin="round" stroke-width="2"/>
      <path id="Path_122985" data-name="Path 122985" d="M1193.938,138.011a18.745,18.745,0,0,1,2.741,4,7.394,7.394,0,0,1,.665,4.728,6.88,6.88,0,0,1-3.421,4.3,11.691,11.691,0,0,1-5.438,1.326" transform="translate(-20433.316 -5045.474)" fill="none" stroke="#fff" stroke-linecap="round" stroke-linejoin="round" stroke-width="2"/>
      <path id="Path_122986" data-name="Path 122986" d="M1180.277,131.052c.027,2.191.318,12.569,1.156,14.61a3.757,3.757,0,0,0,3.437,2.227h6.366c1.009-1.321,2.542-3.3,2.2-4.931a5.863,5.863,0,0,0-2.89-3.876" transform="translate(-20436.068 -5047.807)" fill="none" stroke="#fff" stroke-linecap="round" stroke-linejoin="round" stroke-width="2"/>
      <path id="Path_122987" data-name="Path 122987" d="M1171.967,142.043a3.809,3.809,0,0,0-.766,6.975,6.4,6.4,0,0,0,3.042.637,7.466,7.466,0,0,0,3.494-.624,5.851,5.851,0,0,0,2.879-3.952,11.656,11.656,0,0,0-.124-5.007c-.343-1.648-.864-3.254-1.2-4.906a10.906,10.906,0,0,1-.184-4.053,5.4,5.4,0,0,1,1.995-3.446" transform="translate(-20439.764 -5048.941)" fill="none" stroke="#fff" stroke-linecap="round" stroke-linejoin="round" stroke-width="2"/>
      <path id="Path_122988" data-name="Path 122988" d="M1219.7,145.734a29.94,29.94,0,1,1-29.939-29.949A29.943,29.943,0,0,1,1219.7,145.734Z" transform="translate(-20442.926 -5052.925)" fill="none" stroke="#fff" stroke-linecap="round" stroke-linejoin="round" stroke-width="2"/>
      <ellipse id="Ellipse_11167" data-name="Ellipse 11167" cx="38.2" cy="38.211" rx="38.2" ry="38.211" transform="translate(-19291.367 -4945.403)" fill="none" stroke="#fff" stroke-linecap="round" stroke-linejoin="round" stroke-width="2"/>
    </g>
  </g>
</svg>
