<svg xmlns="http://www.w3.org/2000/svg" width="17.017" height="17.017" viewBox="0 0 17.017 17.017">
  <path id="phone-flip" d="M.593,11.024,3.984,9.57a.971.971,0,0,1,1.139.281L6.5,11.533a10.933,10.933,0,0,0,4.984-4.984L9.8,5.172a.979.979,0,0,1-.28-1.14L10.977.641A.98.98,0,0,1,12.1.076L15.245.8A.971.971,0,0,1,16,1.754a14.312,14.312,0,0,1-14.3,14.3.971.971,0,0,1-.952-.757l-.727-3.15A.983.983,0,0,1,.593,11.024Z" transform="translate(0.515 0.466)" fill="#96a78c" stroke="rgba(0,0,0,0)" stroke-miterlimit="10" stroke-width="1"/>
</svg>
