<svg xmlns="http://www.w3.org/2000/svg" width="75.666" height="100" viewBox="0 0 75.666 100">
  <g id="pilling3" transform="translate(-1395 -2035.734)">
    <g id="Path_126370" data-name="Path 126370" transform="translate(-1917.831 2035.744)" fill="none">
      <path d="M3369.192,11.159C3355.421,6.045,3350.663-.01,3350.663-.01s-4.759,6.055-18.528,11.169c-9.833,3.654-19.305,10.057-19.305,27.922V60.9c0,17.866,9.472,24.27,19.305,27.922,13.769,5.115,18.528,11.169,18.528,11.169s4.758-6.054,18.529-11.169c9.832-3.652,19.3-10.056,19.3-27.922V39.081c0-17.865-9.473-24.268-19.3-27.922Z" stroke="none"/>
      <path d="M 3350.663330078125 4.211662292480469 C 3350.032470703125 4.763236999511719 3349.2646484375 5.38970947265625 3348.346923828125 6.068649291992188 C 3344.25732421875 9.093429565429688 3339.154541015625 11.75223541259766 3333.1806640625 13.97103118896484 C 3330.5732421875 14.93984985351562 3328.40087890625 15.96592712402344 3326.53955078125 17.10792541503906 C 3324.35009765625 18.45135498046875 3322.56884765625 19.95932769775391 3321.094482421875 21.71800231933594 C 3317.55224609375 25.94304656982422 3315.830322265625 31.62239837646484 3315.830322265625 39.08060073852539 L 3315.830322265625 60.89929580688477 C 3315.830322265625 68.35812377929688 3317.55224609375 74.03784942626953 3321.094482421875 78.26301574707031 C 3322.569091796875 80.021728515625 3324.35009765625 81.52960205078125 3326.539794921875 82.872802734375 C 3328.401123046875 84.01467895507812 3330.5732421875 85.04045104980469 3333.180419921875 86.00881958007812 C 3339.15478515625 88.22827911376953 3344.25732421875 90.88716888427734 3348.3466796875 93.91166687011719 C 3349.2646484375 94.59053802490234 3350.032470703125 95.21704864501953 3350.663330078125 95.76853942871094 C 3351.2939453125 95.21702575683594 3352.061767578125 94.59054565429688 3352.979736328125 93.91165161132812 C 3357.0693359375 90.88713836669922 3362.17236328125 88.22823333740234 3368.147216796875 86.00877380371094 C 3370.754150390625 85.04046630859375 3372.926025390625 84.01469421386719 3374.787109375 82.87284851074219 C 3376.9765625 81.52961730957031 3378.757568359375 80.02174377441406 3380.232177734375 78.26304626464844 C 3383.7744140625 74.03777313232422 3385.496337890625 68.35804748535156 3385.496337890625 60.89929580688477 L 3385.496337890625 39.08058547973633 C 3385.496337890625 31.62255859375 3383.7744140625 25.94319915771484 3380.232177734375 21.71800231933594 C 3378.757568359375 19.95932769775391 3376.9765625 18.45133972167969 3374.787109375 17.10787963867188 C 3372.926025390625 15.96591186523438 3370.75390625 14.93983459472656 3368.1474609375 13.97121429443359 C 3362.17236328125 11.75226593017578 3357.0693359375 9.093460083007812 3352.979736328125 6.06866455078125 C 3352.061767578125 5.389701843261719 3351.2939453125 4.763259887695312 3350.663330078125 4.211662292480469 M 3350.663330078125 -0.0099945068359375 C 3350.663330078125 -0.0099945068359375 3355.42138671875 6.044967651367188 3369.19189453125 11.15888214111328 L 3369.19189453125 11.15886688232422 C 3379.023681640625 14.81264495849609 3388.496337890625 21.21583557128906 3388.496337890625 39.08058547973633 L 3388.496337890625 60.89929580688477 C 3388.496337890625 78.76535797119141 3379.023681640625 85.16896820068359 3369.19189453125 88.82101440429688 C 3355.42138671875 93.93621826171875 3350.663330078125 99.98987579345703 3350.663330078125 99.98987579345703 C 3350.663330078125 99.98987579345703 3345.904541015625 93.93621826171875 3332.1357421875 88.82101440429688 C 3322.302734375 85.16898345947266 3312.830322265625 78.76535797119141 3312.830322265625 60.89929580688477 L 3312.830322265625 39.08060073852539 C 3312.830322265625 21.21583557128906 3322.30224609375 14.81264495849609 3332.1357421875 11.15888214111328 C 3345.904541015625 6.044967651367188 3350.663330078125 -0.0099945068359375 3350.663330078125 -0.0099945068359375 Z" stroke="none" fill="#d6bd81"/>
    </g>
    <path id="Path_126372" data-name="Path 126372" d="M1064.436,254.883v7.339m-6.279-9.435,11.511-14.678m-1.046,14.678h0a3.145,3.145,0,1,1,3.139-3.146A3.143,3.143,0,0,1,1068.622,252.787Zm-9.419-14.678a3.145,3.145,0,1,0,3.14,3.145A3.142,3.142,0,0,0,1059.2,238.109Zm-15.7,6.29V256.98m5.234,1.049v2.1m0-6.29v2.1m15.7-19.919v-4.194h7.325l-14.651-18.871-14.652,18.871h6.28v19.919" transform="translate(376.025 1848.043)" fill="none" stroke="#d6bd81" stroke-miterlimit="10" stroke-width="2.126"/>
  </g>
</svg>
