<svg xmlns="http://www.w3.org/2000/svg" width="75.666" height="100" viewBox="0 0 75.666 100">
  <g id="pilling2" transform="translate(-1395 -2035.867)">
    <g id="Path_126370" data-name="Path 126370" transform="translate(-1917.83 2035.877)" fill="none">
      <path d="M3369.192,11.159C3355.421,6.045,3350.663-.01,3350.663-.01s-4.759,6.055-18.528,11.169c-9.833,3.654-19.306,10.057-19.306,27.922V60.9c0,17.866,9.473,24.27,19.306,27.922,13.769,5.115,18.528,11.169,18.528,11.169s4.758-6.054,18.529-11.169c9.832-3.652,19.3-10.056,19.3-27.922V39.081c0-17.865-9.473-24.268-19.3-27.922Z" stroke="none"/>
      <path d="M 3350.6630859375 4.211669921875 C 3350.0322265625 4.76324462890625 3349.264404296875 5.389724731445312 3348.3466796875 6.06866455078125 C 3344.257080078125 9.093452453613281 3339.154296875 11.75225067138672 3333.180419921875 13.97103881835938 C 3330.572998046875 14.93986511230469 3328.40087890625 15.96597290039062 3326.53955078125 17.10795593261719 C 3324.349853515625 18.45140838623047 3322.568603515625 19.95937347412109 3321.09423828125 21.71806335449219 C 3317.5517578125 25.94316101074219 3315.829833984375 31.62251281738281 3315.829833984375 39.08066558837891 L 3315.829833984375 60.89940643310547 C 3315.829833984375 68.35823822021484 3317.5517578125 74.03795623779297 3321.09423828125 78.26316070556641 C 3322.568603515625 80.02186584472656 3324.349853515625 81.52973937988281 3326.539306640625 82.87294006347656 C 3328.40087890625 84.01483917236328 3330.572998046875 85.04060363769531 3333.18017578125 86.00897216796875 C 3339.154541015625 88.22843933105469 3344.257080078125 90.88734436035156 3348.346435546875 93.91183471679688 C 3349.264404296875 94.59071350097656 3350.0322265625 95.21723175048828 3350.6630859375 95.76872253417969 C 3351.293701171875 95.21720886230469 3352.0615234375 94.59072875976562 3352.9794921875 93.91183471679688 C 3357.069091796875 90.88731384277344 3362.172119140625 88.2283935546875 3368.14697265625 86.00892639160156 C 3370.75390625 85.04061889648438 3372.92578125 84.01485443115234 3374.786865234375 82.87300109863281 C 3376.976318359375 81.52976989746094 3378.75732421875 80.02189636230469 3380.23193359375 78.26319122314453 C 3383.774169921875 74.03791046142578 3385.49609375 68.35817718505859 3385.49609375 60.89940643310547 L 3385.49609375 39.08066558837891 C 3385.49609375 31.62260437011719 3383.774169921875 25.9432373046875 3380.23193359375 21.718017578125 C 3378.75732421875 19.95934295654297 3376.976318359375 18.45136260986328 3374.786865234375 17.10789489746094 C 3372.92578125 15.96592712402344 3370.753662109375 14.93984985351562 3368.147216796875 13.97123718261719 C 3362.172119140625 11.75228118896484 3357.069091796875 9.093482971191406 3352.9794921875 6.06866455078125 C 3352.0615234375 5.389701843261719 3351.2939453125 4.763267517089844 3350.6630859375 4.211669921875 M 3350.6630859375 -0.0099945068359375 C 3350.6630859375 -0.0099945068359375 3355.421142578125 6.044990539550781 3369.191650390625 11.15889739990234 L 3369.191650390625 11.15888214111328 C 3379.0234375 14.81266784667969 3388.49609375 21.21586608886719 3388.49609375 39.08066558837891 L 3388.49609375 60.89940643310547 C 3388.49609375 78.76551055908203 3379.0234375 85.16912841796875 3369.191650390625 88.82117462158203 C 3355.421142578125 93.93638610839844 3350.6630859375 99.99006652832031 3350.6630859375 99.99006652832031 C 3350.6630859375 99.99006652832031 3345.904296875 93.93638610839844 3332.135498046875 88.82117462158203 C 3322.302490234375 85.16914367675781 3312.829833984375 78.76551055908203 3312.829833984375 60.89940643310547 L 3312.829833984375 39.08066558837891 C 3312.829833984375 21.21586608886719 3322.30224609375 14.81268310546875 3332.135498046875 11.15889739990234 C 3345.904296875 6.044990539550781 3350.6630859375 -0.0099945068359375 3350.6630859375 -0.0099945068359375 Z" stroke="none" fill="#00846c"/>
    </g>
    <path id="Path_126371" data-name="Path 126371" d="M1183.113,354.144A1.83,1.83,0,0,0,1184.92,356a1.707,1.707,0,0,0,1.651-1.853v-8.525a3.85,3.85,0,0,0-3.841-3.86h-7.952a2.665,2.665,0,0,1-1.889-.787l-.813-.817-3.794-3.812a1.82,1.82,0,0,0-2.581-.027,1.716,1.716,0,0,0,.136,2.483l1.226,1.232,1.092,1.1,1.459,1.467,2.59,2.6a4.461,4.461,0,0,1,1.3,3.149v20.574a1.844,1.844,0,0,0,1.784,2,1.976,1.976,0,0,0,1.951-2V358.764a1.07,1.07,0,1,1,2.14,0v10.157a1.976,1.976,0,0,0,1.951,2,1.844,1.844,0,0,0,1.784-2V346.2m-4.8-7.015a4.154,4.154,0,1,1,4.135-4.154A4.144,4.144,0,0,1,1178.308,339.184Zm-27.941,11.708V345.62h3.442l-6.009-6.135-6.009,6.135h3.441v8.324m16.58-10.448V332.47h5.562l-8.492-9.3-8.493,9.3h5.563v18.268m12.729,16.972V351.568m-12.322,16.141V358.8m-11.19,8.914v-4.883m23.512,8.1h-7.1V346.428h7.1v2.705m-12.322,21.789h-5.969V353.655h5.969v2.937m-11.19,14.33h-5.4V357.044h5.4v2.929" transform="translate(269.897 1738.77)" fill="none" stroke="#00846c" stroke-miterlimit="10" stroke-width="2.126"/>
  </g>
</svg>
