<svg xmlns="http://www.w3.org/2000/svg" width="75.666" height="100" viewBox="0 0 75.666 100">
  <g id="pilling1" transform="translate(-1395 -2036)">
    <path id="Path_126369" data-name="Path 126369" d="M728.67,370.181l-1.15,6.39,6.222-2.819,6.221,2.819-1.15-6.39,4.995-5.081-6.932-.7-3.134-6.39-1.6,3.258m-30.833,8.911,1.15,6.39-6.222-2.819-6.222,2.819,1.15-6.39-4.995-5.081,6.932-.7,3.135-6.39,1.6,3.258m17.184-7.025,4.282,8.984,9.469.982-6.823,7.143,1.57,8.984-8.5-3.963-8.5,3.963,1.57-8.984-6.824-7.143,9.47-.982Zm8.74,3.492v-1.256c0-3.442,5.65-5.023,8.771-5.023s8.77,1.551,8.77,4.993v1.286m-8.77-6.279a5.142,5.142,0,0,1-5.012-5.381v-1.795a5.024,5.024,0,1,1,10.024,0v1.795A5.141,5.141,0,0,1,732.533,351.458Zm-43.855,6.279v-1.256c0-3.442,5.65-5.023,8.771-5.023s8.77,1.551,8.77,4.993v1.286m-8.77-6.279a5.142,5.142,0,0,1-5.012-5.381v-1.795a5.025,5.025,0,1,1,10.024,0v1.795A5.142,5.142,0,0,1,697.449,351.458Zm8.77-1.256v-1.256c0-3.442,5.65-5.023,8.771-5.023s8.771,1.551,8.771,4.993V350.2m-8.771-6.279a5.142,5.142,0,0,1-5.011-5.381v-1.795a5.025,5.025,0,1,1,10.024,0v1.795A5.142,5.142,0,0,1,714.99,343.924Z" transform="translate(718.15 1730.723)" fill="none" stroke="#c48145" stroke-miterlimit="10" stroke-width="2.126"/>
    <g id="Path_126370" data-name="Path 126370" transform="translate(-1917.83 2036.01)" fill="none">
      <path d="M3369.191,11.159C3355.421,6.045,3350.663-.01,3350.663-.01s-4.759,6.055-18.527,11.169c-9.834,3.654-19.306,10.057-19.306,27.922V60.9c0,17.866,9.472,24.27,19.306,27.922,13.769,5.115,18.527,11.169,18.527,11.169s4.758-6.054,18.529-11.169c9.832-3.652,19.3-10.056,19.3-27.922V39.081c0-17.865-9.472-24.268-19.3-27.922Z" stroke="none"/>
      <path d="M 3350.662841796875 4.211647033691406 C 3350.031982421875 4.763214111328125 3349.264404296875 5.389701843261719 3348.346435546875 6.068649291992188 C 3344.257080078125 9.093429565429688 3339.154296875 11.75223541259766 3333.180419921875 13.97104644775391 C 3330.572998046875 14.93986511230469 3328.400634765625 15.96595764160156 3326.539306640625 17.10795593261719 C 3324.349609375 18.45138549804688 3322.568359375 19.95935821533203 3321.093994140625 21.71804809570312 C 3317.5517578125 25.94307708740234 3315.829833984375 31.62244415283203 3315.829833984375 39.08066177368164 L 3315.829833984375 60.89938735961914 C 3315.829833984375 68.35824584960938 3317.5517578125 74.03797149658203 3321.09423828125 78.26312255859375 C 3322.568603515625 80.0218505859375 3324.349853515625 81.52972412109375 3326.539306640625 82.8729248046875 C 3328.400634765625 84.01480102539062 3330.572998046875 85.04058837890625 3333.18017578125 86.00895690917969 C 3339.154296875 88.22841644287109 3344.257080078125 90.88732147216797 3348.34619140625 93.91181945800781 C 3349.26416015625 94.59069061279297 3350.031982421875 95.21721649169922 3350.662841796875 95.76870727539062 C 3351.293701171875 95.21719360351562 3352.0615234375 94.59067535400391 3352.9794921875 93.91178894042969 C 3357.06884765625 90.88727569580078 3362.171875 88.22837066650391 3368.146728515625 86.00888061523438 C 3370.753662109375 85.04058837890625 3372.925537109375 84.01481628417969 3374.786865234375 82.87295532226562 C 3376.976318359375 81.52973937988281 3378.75732421875 80.02186584472656 3380.231689453125 78.26316833496094 C 3383.77392578125 74.03792572021484 3385.495849609375 68.35818481445312 3385.495849609375 60.89938735961914 L 3385.495849609375 39.08064651489258 C 3385.495849609375 31.62257385253906 3383.77392578125 25.94319915771484 3380.231689453125 21.718017578125 C 3378.75732421875 19.95934295654297 3376.97607421875 18.45135498046875 3374.78662109375 17.10789489746094 C 3372.925537109375 15.9659423828125 3370.75341796875 14.93984985351562 3368.14697265625 13.97121429443359 C 3362.172119140625 11.75228118896484 3357.06884765625 9.093475341796875 3352.979248046875 6.068679809570312 C 3352.061279296875 5.389724731445312 3351.293701171875 4.763236999511719 3350.662841796875 4.211647033691406 M 3350.662841796875 -0.01000213623046875 C 3350.662841796875 -0.01000213623046875 3355.421142578125 6.04498291015625 3369.19140625 11.15889739990234 L 3369.19140625 11.15888214111328 C 3379.0234375 14.81267547607422 3388.495849609375 21.21586608886719 3388.495849609375 39.08064651489258 L 3388.495849609375 60.89938735961914 C 3388.495849609375 78.76548004150391 3379.0234375 85.16909790039062 3369.19140625 88.82113647460938 C 3355.421142578125 93.93635559082031 3350.662841796875 99.99003601074219 3350.662841796875 99.99003601074219 C 3350.662841796875 99.99003601074219 3345.904052734375 93.93635559082031 3332.135498046875 88.82115173339844 C 3322.30224609375 85.16911315917969 3312.829833984375 78.76548004150391 3312.829833984375 60.89938735961914 L 3312.829833984375 39.08066177368164 C 3312.829833984375 21.21586608886719 3322.3017578125 14.81267547607422 3332.135498046875 11.15889739990234 C 3345.904052734375 6.04498291015625 3350.662841796875 -0.01000213623046875 3350.662841796875 -0.01000213623046875 Z" stroke="none" fill="#c48145"/>
    </g>
  </g>
</svg>
