<svg xmlns="http://www.w3.org/2000/svg" width="71.693" height="94.749" viewBox="0 0 71.693 94.749">
  <g id="rule-icon" transform="translate(-7.045 -5609.971)">
    <g id="Path_318" data-name="Path 318" transform="translate(-3305.785 5609.981)" fill="none">
      <path d="M3366.232,10.572C3353.185,5.727,3348.677-.01,3348.677-.01s-4.509,5.737-17.555,10.582c-9.317,3.462-18.292,9.529-18.292,26.456V57.7c0,16.928,8.975,23,18.292,26.456,13.046,4.847,17.555,10.582,17.555,10.582s4.509-5.736,17.556-10.582c9.316-3.46,18.291-9.528,18.291-26.456V37.028c0-16.927-8.975-22.994-18.291-26.456Z" stroke="none"/>
      <path d="M 3348.676513671875 4.1986083984375 C 3348.095703125 4.701866149902344 3347.398681640625 5.267112731933594 3346.575439453125 5.876113891601562 C 3342.688720703125 8.750869750976562 3337.8408203125 11.27713012695312 3332.166748046875 13.38457489013672 C 3329.705810546875 14.29892730712891 3327.65673828125 15.26676177978516 3325.90185546875 16.34337615966797 C 3323.841796875 17.60725402832031 3322.166748046875 19.02523803710938 3320.78076171875 20.6783447265625 C 3317.44921875 24.65202331542969 3315.829833984375 30.00005340576172 3315.829833984375 37.02804946899414 L 3315.829833984375 57.70111465454102 C 3315.829833984375 64.72971343994141 3317.449462890625 70.07807922363281 3320.781005859375 74.0518798828125 C 3322.1669921875 75.70501708984375 3323.842041015625 77.12289428710938 3325.90185546875 78.38655853271484 C 3327.65673828125 79.46306610107422 3329.705810546875 80.43058776855469 3332.16650390625 81.34452819824219 C 3337.841064453125 83.45259094238281 3342.688720703125 85.97895812988281 3346.5751953125 88.85343933105469 C 3347.398681640625 89.46237182617188 3348.095703125 90.02766418457031 3348.676513671875 90.53085327148438 C 3349.25732421875 90.02765655517578 3349.954345703125 89.46234893798828 3350.77783203125 88.85340881347656 C 3354.66455078125 85.97892761230469 3359.5126953125 83.45256042480469 3365.1875 81.34446716308594 C 3367.647705078125 80.43061828613281 3369.69677734375 79.46308135986328 3371.451416015625 78.38660430908203 C 3373.51123046875 77.1229248046875 3375.186279296875 75.70503234863281 3376.572021484375 74.05191040039062 C 3379.903564453125 70.07804870605469 3381.523193359375 64.72966766357422 3381.523193359375 57.70111465454102 L 3381.523193359375 37.02804946899414 C 3381.523193359375 30.00017547607422 3379.903564453125 24.65213012695312 3376.572021484375 20.67832946777344 C 3375.186279296875 19.02522277832031 3373.51123046875 17.60722351074219 3371.451171875 16.34331512451172 C 3369.696533203125 15.26673126220703 3367.647705078125 14.29889678955078 3365.187744140625 13.38474273681641 C 3359.5126953125 11.27716064453125 3354.66455078125 8.75091552734375 3350.77783203125 5.876144409179688 C 3349.954345703125 5.267135620117188 3349.25732421875 4.701881408691406 3348.676513671875 4.1986083984375 M 3348.676513671875 -0.0099945068359375 C 3348.676513671875 -0.0099945068359375 3353.18505859375 5.727035522460938 3366.232177734375 10.57241821289062 C 3375.5478515625 14.03433990478516 3384.523193359375 20.10131072998047 3384.523193359375 37.02804946899414 L 3384.523193359375 57.70111465454102 C 3384.523193359375 74.62906646728516 3375.5478515625 80.69643402099609 3366.232177734375 84.15673065185547 C 3353.18505859375 89.00334167480469 3348.676513671875 94.73914337158203 3348.676513671875 94.73914337158203 C 3348.676513671875 94.73914337158203 3344.167724609375 89.00334167480469 3331.121826171875 84.15673065185547 C 3321.80517578125 80.69644927978516 3312.829833984375 74.62906646728516 3312.829833984375 57.70111465454102 L 3312.829833984375 37.02804946899414 C 3312.829833984375 20.10131072998047 3321.8046875 14.03436279296875 3331.121826171875 10.57241821289062 C 3344.167724609375 5.727035522460938 3348.676513671875 -0.0099945068359375 3348.676513671875 -0.0099945068359375 Z" stroke="none" fill="#00846c"/>
    </g>
    <g id="Group_56754" data-name="Group 56754" transform="translate(18.718 5628.819)">
      <path id="Path_123156" data-name="Path 123156" d="M952.161,557.8h-6.2a1.24,1.24,0,0,1-1.24-1.24v-8.683c0-1.373-1.311-1.134-1.685-.573a3.81,3.81,0,0,1-3.136,1.813c-2.435,0-4.343-2.54-3.746-5.395a4.106,4.106,0,0,1,2.692-3.127,3.674,3.674,0,0,1,4.19,1.653c.375.561,1.685.8,1.685-.573V533a1.24,1.24,0,0,1,1.24-1.241H957.12c1.372,0,1.133,1.311.573,1.685a3.679,3.679,0,0,0-1.652,4.194,4.1,4.1,0,0,0,3.124,2.692c2.854.6,5.393-1.311,5.393-3.747a3.815,3.815,0,0,0-1.813-3.138c-.56-.374-.8-1.685.573-1.685h11.157a1.241,1.241,0,0,1,1.24,1.241v8.682c0,1.373,1.31,1.133,1.684.573a3.676,3.676,0,0,1,4.191-1.653,4.106,4.106,0,0,1,2.692,3.127c.6,2.854-1.311,5.395-3.746,5.395a3.813,3.813,0,0,1-3.137-1.813c-.374-.561-1.684-.8-1.684.573v8.683a1.24,1.24,0,0,1-1.24,1.24h-9.917" transform="translate(-936.047 -531.759)" fill="none" stroke="#00846c" stroke-linecap="round" stroke-linejoin="round" stroke-width="2.13"/>
      <line id="Line_324" data-name="Line 324" y2="3.721" transform="translate(34.708 35.968)" fill="none" stroke="#00846c" stroke-linecap="round" stroke-linejoin="round" stroke-width="2.13"/>
      <line id="Line_325" data-name="Line 325" y2="4.961" transform="translate(29.751 33.488)" fill="none" stroke="#00846c" stroke-linecap="round" stroke-linejoin="round" stroke-width="2.13"/>
      <path id="Path_123157" data-name="Path 123157" d="M961.848,571.114V557.471a2.479,2.479,0,1,0-4.958,0v18.6a1.893,1.893,0,0,1-2.9-.34l-1.995-3.094c-1.984-2.734-5.021-1.2-5.021,0,0,0,3.761,8.792,4.3,9.636.866,1.355,5.618,6.887,5.618,7.947v.735" transform="translate(-937.056 -533.907)" fill="none" stroke="#00846c" stroke-linecap="round" stroke-linejoin="round" stroke-width="2.13"/>
      <path id="Path_123158" data-name="Path 123158" d="M963.363,567.29h2.48a3.34,3.34,0,0,1,2.479,1.241H970.8a2.6,2.6,0,0,1,2.479,2.48h2.479a2.6,2.6,0,0,1,2.48,2.48V586.4c0,2.51-2.48,4.025-2.48,5.7" transform="translate(-938.572 -535.043)" fill="none" stroke="#00846c" stroke-linecap="round" stroke-linejoin="round" stroke-width="2.13"/>
    </g>
  </g>
</svg>
