<svg xmlns="http://www.w3.org/2000/svg" width="54.445" height="45.296" viewBox="0 0 54.445 45.296">
  <g id="saudi-icon7" transform="translate(3.974 -8.554)">
    <path id="Path_129881" data-name="Path 129881" d="M929.305,254.877H912.864V220.084a2.229,2.229,0,0,1,2.229-2.229h43.088a2.228,2.228,0,0,1,2.229,2.229v34.793h-16.4l-.967.456a6.265,6.265,0,0,1-2.67.6h-7.428a6.265,6.265,0,0,1-2.67-.6Zm26.235-5.489H917.772M934.335,228.5a6.085,6.085,0,0,0-6.087-6.084V228.5Zm-3.729,4.259a6.62,6.62,0,1,1-6.619-6.616v6.616Zm11.446,3.917v12.711m-5.4-9.145v9.145m-5.395-6.177v6.177m-5.4-4.928v4.928m21.581-19.318v19.318m5.4-14.62v14.62m-32.372-4.928v4.928m39.94,5.489h2.469v2.276a3.406,3.406,0,0,1-1.572,2.871l-.927.592a3.406,3.406,0,0,1-1.835.536H914.769a3.411,3.411,0,0,1-1.836-.536l-.926-.592a3.407,3.407,0,0,1-1.572-2.871v-2.276h2.43" transform="translate(-913.408 -208.301)" fill="none" stroke="#1c614e" stroke-miterlimit="10" stroke-width="2"/>
  </g>
</svg>
