<svg xmlns="http://www.w3.org/2000/svg" width="49.576" height="47.315" viewBox="0 0 49.576 47.315">
  <g id="saudi-icon4" transform="translate(20209.266 4741.64)">
    <line id="Line_393" data-name="Line 393" x2="7.207" transform="translate(-20201.061 -4710.773)" fill="none" stroke="#1c614e" stroke-miterlimit="10" stroke-width="2"/>
    <line id="Line_394" data-name="Line 394" x2="3.089" transform="translate(-20201.061 -4704.594)" fill="none" stroke="#1c614e" stroke-miterlimit="10" stroke-width="2"/>
    <line id="Line_395" data-name="Line 395" x2="3.089" transform="translate(-20193.854 -4716.952)" fill="none" stroke="#1c614e" stroke-miterlimit="10" stroke-width="2"/>
    <line id="Line_396" data-name="Line 396" x2="3.089" transform="translate(-20201.061 -4716.952)" fill="none" stroke="#1c614e" stroke-miterlimit="10" stroke-width="2"/>
    <line id="Line_397" data-name="Line 397" x2="15.443" transform="translate(-20201.061 -4723.132)" fill="none" stroke="#1c614e" stroke-miterlimit="10" stroke-width="2"/>
    <line id="Line_398" data-name="Line 398" x1="4.743" y1="4.76" transform="translate(-20168.367 -4733.024)" fill="none" stroke="#1c614e" stroke-miterlimit="10" stroke-width="2"/>
    <path id="Path_123268" data-name="Path 123268" d="M262.643,351.986l-3.479,8.159,8.222-3.4" transform="translate(-20450.957 -5064.996)" fill="none" stroke="#1c614e" stroke-miterlimit="10" stroke-width="2"/>
    <path id="Path_123269" data-name="Path 123269" d="M289.488,321.788l1.057,1.062a2.62,2.62,0,0,1,0,3.7l-21.9,21.972-1.832-1.837L263.9,343.76l21.9-21.972A2.6,2.6,0,0,1,289.488,321.788Z" transform="translate(-20452.217 -5056.77)" fill="none" stroke="#1c614e" stroke-miterlimit="10" stroke-width="2"/>
    <path id="Path_123270" data-name="Path 123270" d="M242.341,327.179h6.177a1.029,1.029,0,0,0,1.03-1.03V319.97" transform="translate(-20446.49 -5056.49)" fill="none" stroke="#1c614e" stroke-miterlimit="10" stroke-width="2"/>
    <path id="Path_123271" data-name="Path 123271" d="M270.707,343.2v14.418a2.059,2.059,0,0,1-2.059,2.06H238.564a1.811,1.811,0,0,1-1.83-1.791V326a2.186,2.186,0,0,1,.681-1.831l9.592-9.236a2.059,2.059,0,0,1,1.428-.576h20.443a1.811,1.811,0,0,1,1.83,1.791v5.418" transform="translate(-20445 -5055)" fill="none" stroke="#1c614e" stroke-miterlimit="10" stroke-width="2"/>
  </g>
</svg>
