<svg xmlns="http://www.w3.org/2000/svg" width="50.18" height="47.023" viewBox="0 0 50.18 47.023">
  <g id="saudi-icon9" transform="translate(1.999 -10.815)">
    <path id="Path_129883" data-name="Path 129883" d="M163.77,244.541l-14.729-9.634,1.337,17.365,3.992-4.208,5.393,9.339,1.88-1.084,1.88-1.085-5.394-9.339Zm-19.286-17.586h8.12m-8.12-5.075h8.12m-26.391,10.149h8.121m-8.121-5.074h8.121m-8.121-5.075h8.121m5.075-6.089v24.359m6.09,2.03h-1.363a4.063,4.063,0,0,0-2.871,1.189l-1.856,1.856-1.856-1.856a4.06,4.06,0,0,0-2.871-1.189H122.153a1.015,1.015,0,0,1-1.015-1.015v-27.4a1.014,1.014,0,0,1,1.015-1.015h12.529c1.077,0,4.727,3.045,4.727,3.045s3.65-3.045,4.727-3.045h12.529a1.015,1.015,0,0,1,1.015,1.015v21.314m3.045-19.284h1.015v22.329m-15.853,8.119h-.955a2.03,2.03,0,0,0-1.926,1.388l-.09.269a2.03,2.03,0,0,1-1.926,1.388h-3.164a2.03,2.03,0,0,1-1.926-1.388l-.09-.269a2.03,2.03,0,0,0-1.926-1.388H118.092a1.015,1.015,0,0,1-1.015-1.015V215.79h1.015" transform="translate(-118.076 -200.93)" fill="none" stroke="#1c614e" stroke-miterlimit="10" stroke-width="2"/>
  </g>
</svg>
