<svg xmlns="http://www.w3.org/2000/svg" width="54.552" height="47.978" viewBox="0 0 54.552 47.978">
  <g id="saudi-icon11" transform="translate(2.865 -5.154)">
    <g id="Group_60301" data-name="Group 60301" transform="translate(-1.865 6.154)">
      <g id="Group_60299" data-name="Group 60299" transform="translate(0 0)">
        <g id="Group_60298" data-name="Group 60298" transform="translate(0 0)">
          <line id="Line_222" data-name="Line 222" x1="6.468" transform="translate(1.431 26.567)" fill="none" stroke="#1c614e" stroke-linecap="round" stroke-linejoin="round" stroke-width="2"/>
          <path id="Path_123065" data-name="Path 123065" d="M618.5,13.578V8.491h6.468v5.087" transform="translate(-599.327 -3.771)" fill="none" stroke="#1c614e" stroke-linecap="round" stroke-linejoin="round" stroke-width="2"/>
          <path id="Path_123066" data-name="Path 123066" d="M611.294,67.151v-6.47h6.468v6.47" transform="translate(-596.926 -21.173)" fill="none" stroke="#1c614e" stroke-linecap="round" stroke-linejoin="round" stroke-width="2"/>
          <line id="Line_223" data-name="Line 223" y2="3.235" transform="translate(12.355 15.466)" fill="none" stroke="#1c614e" stroke-linecap="round" stroke-linejoin="round" stroke-width="2"/>
          <line id="Line_224" data-name="Line 224" y2="3.235" transform="translate(17.604 15.466)" fill="none" stroke="#1c614e" stroke-linecap="round" stroke-linejoin="round" stroke-width="2"/>
          <line id="Line_225" data-name="Line 225" y2="3.235" transform="translate(22.85 15.466)" fill="none" stroke="#1c614e" stroke-linecap="round" stroke-linejoin="round" stroke-width="2"/>
          <line id="Line_226" data-name="Line 226" y2="3.235" transform="translate(12.355 22.393)" fill="none" stroke="#1c614e" stroke-linecap="round" stroke-linejoin="round" stroke-width="2"/>
          <line id="Line_227" data-name="Line 227" y2="3.235" transform="translate(17.604 22.393)" fill="none" stroke="#1c614e" stroke-linecap="round" stroke-linejoin="round" stroke-width="2"/>
          <line id="Line_228" data-name="Line 228" y2="3.235" transform="translate(22.85 22.393)" fill="none" stroke="#1c614e" stroke-linecap="round" stroke-linejoin="round" stroke-width="2"/>
          <line id="Line_229" data-name="Line 229" y2="3.235" transform="translate(12.355 29.32)" fill="none" stroke="#1c614e" stroke-linecap="round" stroke-linejoin="round" stroke-width="2"/>
          <line id="Line_230" data-name="Line 230" y2="3.235" transform="translate(17.604 29.32)" fill="none" stroke="#1c614e" stroke-linecap="round" stroke-linejoin="round" stroke-width="2"/>
          <line id="Line_231" data-name="Line 231" y2="3.235" transform="translate(3.666 39.507)" fill="none" stroke="#1c614e" stroke-linecap="round" stroke-linejoin="round" stroke-width="2"/>
          <line id="Line_232" data-name="Line 232" y2="3.235" transform="translate(3.666 30.644)" fill="none" stroke="#1c614e" stroke-linecap="round" stroke-linejoin="round" stroke-width="2"/>
          <line id="Line_1544" data-name="Line 1544" y2="12" transform="translate(0 33.476)" fill="none" stroke="#1c614e" stroke-linecap="round" stroke-linejoin="round" stroke-width="2"/>
          <line id="Line_233" data-name="Line 233" y2="3.235" transform="translate(22.85 29.32)" fill="none" stroke="#1c614e" stroke-linecap="round" stroke-linejoin="round" stroke-width="2"/>
          <line id="Line_234" data-name="Line 234" y2="4.388" transform="translate(24.07)" fill="none" stroke="#1c614e" stroke-linecap="round" stroke-linejoin="round" stroke-width="2"/>
          <path id="Path_123067" data-name="Path 123067" d="M620.994,52.5V16.747l-19.4.09V52.5" transform="translate(-593.69 -6.524)" fill="none" stroke="#1c614e" stroke-linecap="round" stroke-linejoin="round" stroke-width="2"/>
        </g>
      </g>
      <path id="Path_129884" data-name="Path 129884" d="M1056.771,240.257v4.779m-4.089-6.144,7.5-9.558m-.681,9.558h0a2.048,2.048,0,1,1,2.045-2.049A2.047,2.047,0,0,1,1059.5,238.892Zm-6.134-9.558a2.048,2.048,0,1,0,2.045,2.048A2.047,2.047,0,0,0,1053.362,229.334Zm-10.223,4.1v8.193m3.408.683v1.365m0-4.1v1.366m10.223-12.972v-2.731h4.77L1052,212.948l-9.542,12.29h4.09v12.972" transform="translate(-1010.031 -199.06)" fill="none" stroke="#1c614e" stroke-miterlimit="10" stroke-width="2"/>
    </g>
  </g>
</svg>
