<svg xmlns="http://www.w3.org/2000/svg" width="47.186" height="47.56" viewBox="0 0 47.186 47.56">
  <g id="saudi-icon10" transform="translate(1.326 -5.086)">
    <g id="Group_60297" data-name="Group 60297" transform="translate(19514.027 4951.312)">
      <path id="Path_122965" data-name="Path 122965" d="M948.4,137.428v-2.654a9.3,9.3,0,0,1,9.3-9.306h4.219a9.3,9.3,0,0,1,9.3,9.306v9.177" transform="translate(-20448.086 -5057.646)" fill="none" stroke="#1c614e" stroke-miterlimit="10" stroke-width="2"/>
      <path id="Path_122966" data-name="Path 122966" d="M930.1,143.682l6.378-3.2,8.405,16.576-7.174,3.562" transform="translate(-20445 -5060.177)" fill="none" stroke="#1c614e" stroke-miterlimit="10" stroke-width="2"/>
      <path id="Path_122967" data-name="Path 122967" d="M966.764,148.357l9.6-2.261a1.764,1.764,0,0,1,1.209,3.286l-14.854,6.1a19.543,19.543,0,0,1-10.21,1.265L946.6,155.9" transform="translate(-20447.783 -5061.117)" fill="none" stroke="#1c614e" stroke-miterlimit="10" stroke-width="2"/>
      <path id="Path_122968" data-name="Path 122968" d="M938.985,142.3c5.368-2.921,11.791-2.119,16.79,1.3l1.035.71h6.372a2.174,2.174,0,0,1,0,4.349H952.246" transform="translate(-20446.498 -5060.182)" fill="none" stroke="#1c614e" stroke-miterlimit="10" stroke-width="2"/>
      <line id="Line_212" data-name="Line 212" x2="7.609" transform="translate(-19492.08 -4935.441)" fill="none" stroke="#1c614e" stroke-miterlimit="10" stroke-width="2"/>
      <path id="Path_123039" data-name="Path 123039" d="M963.228,116.3h-3.9a.565.565,0,0,1-.53-.369l-2-5.392a.566.566,0,0,1,.531-.762h7.89a.566.566,0,0,1,.531.762l-2,5.392A.564.564,0,0,1,963.228,116.3Z" transform="translate(-20449.496 -5055)" fill="none" stroke="#1c614e" stroke-miterlimit="10" stroke-width="2"/>
    </g>
  </g>
</svg>
