<svg xmlns="http://www.w3.org/2000/svg" width="48.41" height="44.837" viewBox="0 0 48.41 44.837">
  <g id="saudi-icon12" transform="translate(2.642 -8.93)">
    <path id="Path_129885" data-name="Path 129885" d="M619.2,219.263V214h-5.261m-41.271,26.771,4.261-4.258m3.476-3.476,8.823-8.819m4,.069,5.89,5.887m3.938,0,6.707-6.72m3.918-3.927L619.2,214m-47.1,42.837h48.274m-5.85-35.369a2.792,2.792,0,1,1-2.792-2.791A2.792,2.792,0,0,1,614.526,221.472Zm-10.638,10.683a2.791,2.791,0,1,1-2.79-2.791A2.79,2.79,0,0,1,603.888,232.155Zm-9.832-9.836a2.792,2.792,0,1,1-2.791-2.79A2.791,2.791,0,0,1,594.056,222.319Zm-12.931,12.454a2.459,2.459,0,1,1-2.46-2.458A2.458,2.458,0,0,1,581.125,234.773Zm11.821,22.069H587V238.622a1,1,0,0,1,1-1h3.945a1,1,0,0,1,1,1Zm22.617,0h-5.941V236.694a1,1,0,0,1,1-1h3.946a1,1,0,0,1,1,1Zm-11.308,0h-5.943V245.867a1,1,0,0,1,1-1h3.945a1,1,0,0,1,1,1Zm-22.618,0h-5.942v-9.008a1,1,0,0,1,1-1h3.945a1,1,0,0,1,1,1Z" transform="translate(-574.607 -204.074)" fill="none" stroke="#1c614e" stroke-miterlimit="10" stroke-width="2"/>
  </g>
</svg>
