<svg xmlns="http://www.w3.org/2000/svg" width="47.55" height="47.573" viewBox="0 0 47.55 47.573">
  <g id="saudi-icon5" transform="translate(20328.288 4626.058)">
    <path id="Path_123261" data-name="Path 123261" d="M163.636,448.1a4.282,4.282,0,1,1-4.281-4.283A4.282,4.282,0,0,1,163.636,448.1Z" transform="translate(-20455.365 -5058.876)" fill="none" stroke="#1c614e" stroke-linecap="round" stroke-linejoin="round" stroke-width="2"/>
    <path id="Path_123262" data-name="Path 123262" d="M160.915,455.016a11.524,11.524,0,0,0,1.721-.89l2.186,1.886,3.435-3.454-1.9-2.177a11.619,11.619,0,0,0,1.455-3.548l2.881-.213-.012-4.873-2.882-.2a11.62,11.62,0,0,0-1.474-3.54l1.885-2.187-3.453-3.437-2.176,1.9a11.613,11.613,0,0,0-3.546-1.456l-.213-2.882-4.871.012-.2,2.884a11.611,11.611,0,0,0-3.538,1.474l-2.186-1.886L144.6,435.88l1.9,2.177a11.557,11.557,0,0,0-.88,1.726" transform="translate(-20452.438 -5055)" fill="none" stroke="#1c614e" stroke-linecap="round" stroke-linejoin="round" stroke-width="2"/>
    <path id="Path_123263" data-name="Path 123263" d="M130.762,458.414a3.891,3.891,0,1,1,5.15,4.969" transform="translate(-20448.57 -5062.257)" fill="none" stroke="#1c614e" stroke-linecap="round" stroke-linejoin="round" stroke-width="2"/>
    <path id="Path_123264" data-name="Path 123264" d="M143.565,454.191l-2.585-.178a10.405,10.405,0,0,0-1.321-3.174l1.69-1.961-3.1-3.082-1.951,1.7a10.421,10.421,0,0,0-3.18-1.306l-.191-2.585-4.368.012-.178,2.585a10.411,10.411,0,0,0-3.173,1.321l-1.96-1.69-3.08,3.1,1.7,1.953a10.423,10.423,0,0,0-1.3,3.18l-2.583.191.011,4.369,2.585.178" transform="translate(-20445 -5058.819)" fill="none" stroke="#1c614e" stroke-linecap="round" stroke-linejoin="round" stroke-width="2"/>
    <line id="Line_391" data-name="Line 391" y1="6.284" x2="2.265" transform="translate(-20319.303 -4586.048)" fill="none" stroke="#1c614e" stroke-linecap="round" stroke-linejoin="round" stroke-width="2"/>
    <path id="Path_123265" data-name="Path 123265" d="M117.984,488.6l2.66-7.675c.682-1.925,1.485-3.156,4.6-3.156h10.827s-.691,3.644-4.051,4.053l-6.722.818" transform="translate(-20445 -5068.368)" fill="none" stroke="#1c614e" stroke-linecap="round" stroke-linejoin="round" stroke-width="2"/>
    <path id="Path_123266" data-name="Path 123266" d="M130.855,467.552a3.445,3.445,0,1,1-3.446-3.446A3.446,3.446,0,0,1,130.855,467.552Z" transform="translate(-20446.672 -5064.548)" fill="none" stroke="#1c614e" stroke-linecap="round" stroke-linejoin="round" stroke-width="2"/>
    <line id="Line_392" data-name="Line 392" x1="1.957" y1="9.788" transform="translate(-20301.494 -4589.553)" fill="none" stroke="#1c614e" stroke-linecap="round" stroke-linejoin="round" stroke-width="2"/>
    <path id="Path_123267" data-name="Path 123267" d="M161.251,485.024l-2.3-10.738c-.38-1.778-1.637-2.678-3.605-3.047l-5.905-.985-5.854-5.287s-1.941,3.318.208,5.349l4.223,4.18,6.455,1.974" transform="translate(-20451.93 -5064.789)" fill="none" stroke="#1c614e" stroke-linecap="round" stroke-linejoin="round" stroke-width="2"/>
    <circle id="Ellipse_11169" data-name="Ellipse 11169" cx="3.445" cy="3.445" r="3.445" transform="translate(-20300.521 -4603.395)" fill="none" stroke="#1c614e" stroke-linecap="round" stroke-linejoin="round" stroke-width="2"/>
  </g>
</svg>
