<svg xmlns="http://www.w3.org/2000/svg" width="50.968" height="49.582" viewBox="0 0 50.968 49.582">
  <g id="saudi-icon8" transform="translate(2.878 -3.307)">
    <path id="Path_129882" data-name="Path 129882" d="M1185.117,353.748a1.86,1.86,0,0,0,1.89,1.829,1.726,1.726,0,0,0,1.727-1.829v-8.416a3.919,3.919,0,0,0-4.019-3.81h-8.32a2.875,2.875,0,0,1-1.976-.777l-.851-.807-3.969-3.763a1.984,1.984,0,0,0-2.7-.026,1.63,1.63,0,0,0,.142,2.451l1.283,1.216,1.142,1.083,1.527,1.448,2.71,2.569a4.281,4.281,0,0,1,1.36,3.109v20.311a1.864,1.864,0,0,0,1.866,1.975,2.009,2.009,0,0,0,2.041-1.975V358.308a1.121,1.121,0,0,1,2.239,0v10.027a2.009,2.009,0,0,0,2.041,1.975,1.864,1.864,0,0,0,1.866-1.975V345.9m-5.027-6.925a4.107,4.107,0,1,1,4.326-4.1A4.218,4.218,0,0,1,1180.09,338.979Zm-29.233,11.558v-5.2h3.6l-6.287-6.057-6.287,6.057h3.6v8.217m17.346-10.315V332.351h5.819l-8.885-9.184-8.885,9.184h5.82v18.034m13.317,16.754V351.2m-12.891,15.934v-8.8m-11.707,8.8v-4.82m24.6,7.992h-7.428V346.13h7.428V348.8m-12.891,21.51h-6.245V353.265h6.245v2.9m-11.707,14.147h-5.653v-13.7h5.653V359.5" transform="translate(-1141.645 -318.422)" fill="none" stroke="#1c614e" stroke-miterlimit="10" stroke-width="2"/>
  </g>
</svg>
