<svg xmlns="http://www.w3.org/2000/svg" width="52" height="51" viewBox="0 0 52 51">
  <g id="saudi-icon1" transform="translate(4.041 -5.928)">
    <path id="Path_128901" data-name="Path 128901" d="M26.063,128.922V158.76m14.516-33.871H30.9c-1.613,0-3.226-2.419-4.839-.806-1.613-1.613-3.225.806-4.839.806H16.386m29.032,0h5.645v-1.613a3.225,3.225,0,0,0-3.225-3.225h-12.9a10.406,10.406,0,0,1-5.088-1.355,7.811,7.811,0,0,0-3.783-1.065m14.516,46.775V163.6a4.839,4.839,0,0,0-4.839-4.839H16.386a4.839,4.839,0,0,0-4.839,4.839v.807ZM30.1,144.244H45.418m5.645,0a10.484,10.484,0,0,1-20.968,0l10.484-19.355Zm-50,0H16.386m5.645,0a10.484,10.484,0,0,1-20.968,0l10.484-19.355ZM11.547,124.889H1.063v-1.613a3.226,3.226,0,0,1,3.225-3.225h12.9a10.411,10.411,0,0,0,5.089-1.355,7.807,7.807,0,0,1,3.782-1.065m0,0v-3.225" transform="translate(-4.104 -108.478)" fill="none" stroke="#1c614e" stroke-miterlimit="10" stroke-width="2"/>
  </g>
</svg>
