<svg xmlns="http://www.w3.org/2000/svg" width="40.595" height="55.805" viewBox="0 0 40.595 55.805">
  <g id="saudi-icon" transform="translate(-2.594 -3.734)">
    <g id="Group_56132" data-name="Group 56132" transform="translate(3.594 4.975)">
      <path id="Path_124431" data-name="Path 124431" d="M22.9,58.3A44.047,44.047,0,0,0,12.35,53.056C6.672,50.95,3.594,48.3,3.594,40.373V22.9c0-7.932,3.078-10.578,8.757-12.684A44.056,44.056,0,0,0,22.9,4.975a45.862,45.862,0,0,0,10.53,5.242c5.679,2.106,8.757,4.752,8.757,12.684V40.373c0,7.932-3.078,10.578-8.758,12.684A45.873,45.873,0,0,0,22.9,58.3Z" transform="translate(-3.594 -4.975)" fill="none" stroke="#0c592e" stroke-miterlimit="10" stroke-width="2"/>
      <g id="Group_56133" data-name="Group 56133" transform="translate(2.447 9.165)">
        <path id="Path_124432" data-name="Path 124432" d="M36.388,49.923a.721.721,0,0,0-.32-.064v0a.715.715,0,0,0-.189.031c-.014,0-.026.011-.04.016a.783.783,0,0,0-.118.052l-.005,0h0c-.025.015-.049.039-.074.058a.37.37,0,0,0-.037.02c-.007.006-.011.016-.018.022s-.02.013-.031.024l0,.011a.743.743,0,0,0-.125.16,1.326,1.326,0,0,1-.751.108,7.75,7.75,0,0,1-2.473-.658c-.3-.121-.606-.259-.926-.412-.005.018-.6.6-.766.793a1.608,1.608,0,0,0-.4.679l.282.139a10.9,10.9,0,0,0,4.389,1.283,3.4,3.4,0,0,0,.78-.083,1.692,1.692,0,0,0,1.22-.9.943.943,0,0,0-.407-1.277" transform="translate(-9.16 -19.35)" fill="#0c592e"/>
        <path id="Path_124433" data-name="Path 124433" d="M18.737,49.289q-.479.23-.925.412a7.8,7.8,0,0,1-2.473.659,1.327,1.327,0,0,1-.751-.109.677.677,0,0,0-.126-.159l0-.011c-.01-.011-.02-.014-.031-.025s-.011-.015-.017-.021-.016-.01-.037-.02a.863.863,0,0,0-.075-.058h0l-.005,0a.739.739,0,0,0-.117-.052c-.014,0-.026-.011-.04-.016a.715.715,0,0,0-.189-.031l0,0a.708.708,0,0,0-.319.064.943.943,0,0,0-.408,1.277,1.7,1.7,0,0,0,1.22.9,3.453,3.453,0,0,0,.781.083A10.889,10.889,0,0,0,19.617,50.9c.07-.033.282-.138.282-.138a1.615,1.615,0,0,0-.4-.679c-.164-.189-.762-.775-.767-.792" transform="translate(-7.162 -19.35)" fill="#0c592e"/>
        <path id="Path_124434" data-name="Path 124434" d="M40.043,37.519l-.036-.014c-.064-.019-.325-.1-.56-.178a6.571,6.571,0,0,0-1.971-.264c-.24,0-.485.009-.733.025a12.752,12.752,0,0,0-4.178,1.05,26.477,26.477,0,0,0-5.435,3.427c-1.415,1.069-2.7,2.1-3.911,3-1.209-.9-2.5-1.93-3.911-3a26.477,26.477,0,0,0-5.435-3.427,12.752,12.752,0,0,0-4.178-1.05c-.248-.016-.493-.025-.733-.025a6.571,6.571,0,0,0-1.971.264c-.236.074-.5.16-.56.178l-.036.014a.039.039,0,0,0,.018.076,16.617,16.617,0,0,1,5.47,1.484,23.294,23.294,0,0,1,4.084,2.374A25.81,25.81,0,0,1,18.2,43.115q1.755,1.451,3.354,2.633c-.105.07-.211.144-.315.211q-1.31.847-2.464,1.452C17.843,46.405,18,45.755,18,45.755a.624.624,0,0,0-.689-.1c-.559.45.007,1.132.723,1.846.058.058.406.408.41.405a7.923,7.923,0,0,1,.735.838,1.376,1.376,0,0,1,.072.123,1.551,1.551,0,0,1-.025,1.709c.459.523.726.29.726.29.52-.315.434-1.135.005-1.918a37.616,37.616,0,0,0,3.261-2.02,37.488,37.488,0,0,0,3.261,2.02c-.431.784-.515,1.6,0,1.918,0,0,.268.233.728-.29a1.55,1.55,0,0,1-.026-1.709,1.375,1.375,0,0,1,.072-.123,8.137,8.137,0,0,1,.734-.838c.005,0,.353-.347.411-.405.716-.714,1.281-1.4.723-1.846a.625.625,0,0,0-.69.1s.156.65-.773,1.656c-.766-.4-1.589-.888-2.463-1.452-.1-.067-.21-.141-.315-.211q1.6-1.181,3.353-2.633a25.819,25.819,0,0,1,2.233-1.662,23.321,23.321,0,0,1,4.083-2.374A16.63,16.63,0,0,1,40.025,37.6a.039.039,0,0,0,.018-.076" transform="translate(-6.367 -17.913)" fill="#0c592e"/>
        <path id="Path_124435" data-name="Path 124435" d="M27.581,19.329a.044.044,0,0,1,.01-.086h0a7.393,7.393,0,0,1,4.812,1.606.048.048,0,0,0,.076-.055,5.436,5.436,0,0,0-5.152-3.133c-.161,0-.319.011-.477.025a.044.044,0,0,1-.034-.079,4.568,4.568,0,0,1,2.353-.8.043.043,0,0,0,.022-.079,4.092,4.092,0,0,0-2.065-.548,3.983,3.983,0,0,0-2.118.61l-.071-.03a4.705,4.705,0,0,0-.474-1.267c-.014-.026-.041-.072-.065-.112a.049.049,0,0,0-.083,0c-.024.04-.051.086-.065.112a4.674,4.674,0,0,0-.473,1.267l-.071.03a3.978,3.978,0,0,0-2.118-.61,4.088,4.088,0,0,0-2.064.548.043.043,0,0,0,.022.079,4.565,4.565,0,0,1,2.353.8.044.044,0,0,1-.034.079c-.157-.014-.316-.022-.477-.025a5.436,5.436,0,0,0-5.152,3.133.048.048,0,0,0,.076.055,7.393,7.393,0,0,1,4.812-1.606h0a.044.044,0,0,1,.01.086,6.255,6.255,0,0,0-5.04,4.33.05.05,0,0,0,.083.048,10.054,10.054,0,0,1,3.959-2.294.047.047,0,0,1,.046.079,7.421,7.421,0,0,0-2.533,5.4c0,.077,0,.154,0,.23,0,.046.073.067.093.026A9.951,9.951,0,0,1,20.531,23.8a.049.049,0,0,1,.076.056,9,9,0,0,0-.552,3.013,9.3,9.3,0,0,0,.339,2.574.048.048,0,0,0,.094,0,11.446,11.446,0,0,1,2.129-4.6c.03-.041.1-.011.088.036a7.413,7.413,0,0,0-.183,4.81.05.05,0,0,0,.1-.012c.029-.436,1.446-4.523,1.743-4.523s1.714,4.087,1.743,4.523a.05.05,0,0,0,.1.012,7.413,7.413,0,0,0-.183-4.81c-.012-.047.058-.078.088-.036a11.422,11.422,0,0,1,2.129,4.6.049.049,0,0,0,.094,0,9.3,9.3,0,0,0,.338-2.574,9,9,0,0,0-.551-3.013.049.049,0,0,1,.077-.056,9.969,9.969,0,0,1,2.781,3.343c.019.041.092.019.093-.026,0-.077,0-.154,0-.23a7.426,7.426,0,0,0-2.531-5.4.047.047,0,0,1,.046-.079,10.059,10.059,0,0,1,3.957,2.294.05.05,0,0,0,.083-.048,6.255,6.255,0,0,0-5.04-4.33" transform="translate(-7.512 -15.361)" fill="#0c592e"/>
        <path id="Path_124436" data-name="Path 124436" d="M25.3,23.324h0s-1.208,10.18-1.208,14.35,1.208,4.4,1.208,4.4,1.207-.235,1.207-4.4S25.3,23.324,25.3,23.324" transform="translate(-8.452 -16.297)" fill="#0c592e"/>
      </g>
    </g>
  </g>
</svg>
