<svg xmlns="http://www.w3.org/2000/svg" width="50.969" height="51.285" viewBox="0 0 50.969 51.285">
  <g id="saudi-icon6" transform="translate(5.04 -5.273)">
    <g id="Group_60296" data-name="Group 60296" transform="translate(19398.105 4630.654)">
      <path id="Path_123194" data-name="Path 123194" d="M1076.708,473.52l13.641-5.927a3.189,3.189,0,0,1,2.44,5.892l-14.073,6.766a7.967,7.967,0,0,1-3.11.632H1063.2a4.78,4.78,0,0,0-2.628.787l-3.17,2.087" transform="translate(-20447.943 -5062.214)" fill="none" stroke="#1c614e" stroke-miterlimit="10" stroke-width="2"/>
      <path id="Path_123195" data-name="Path 123195" d="M1064.579,473.7h9.562a3.189,3.189,0,0,0,0-6.377h-12.895a4.783,4.783,0,0,0-2.652.8l-8.784,5.859" transform="translate(-20446.453 -5062.209)" fill="none" stroke="#1c614e" stroke-miterlimit="10" stroke-width="2"/>
      <path id="Path_123196" data-name="Path 123196" d="M1042.41,476.467l4.777-3.183,7.968,12.756-3.98,2.386" transform="translate(-20445 -5063.379)" fill="none" stroke="#1c614e" stroke-miterlimit="10" stroke-width="2"/>
      <path id="Path_123197" data-name="Path 123197" d="M1086.146,437.568a22.725,22.725,0,0,1,4.82,14.346,24.837,24.837,0,0,1-.624,5.58" transform="translate(-20453.59 -5056.365)" fill="none" stroke="#1c614e" stroke-miterlimit="10" stroke-width="2"/>
      <path id="Path_123198" data-name="Path 123198" d="M1070.864,437.568a22.725,22.725,0,0,0-4.82,14.346,24.837,24.837,0,0,0,.624,5.581" transform="translate(-20449.643 -5056.365)" fill="none" stroke="#1c614e" stroke-miterlimit="10" stroke-width="2"/>
      <line id="Line_331" data-name="Line 331" x2="30.278" transform="translate(-19388.25 -4604.451)" fill="none" stroke="#1c614e" stroke-miterlimit="10" stroke-width="2"/>
      <line id="Line_332" data-name="Line 332" y2="20.727" transform="translate(-19373.111 -4619.597)" fill="none" stroke="#1c614e" stroke-miterlimit="10" stroke-width="2"/>
      <path id="Path_123199" data-name="Path 123199" d="M1065.268,442.125a76.68,76.68,0,0,0,22.221,0" transform="translate(-20449.49 -5057.26)" fill="none" stroke="#1c614e" stroke-miterlimit="10" stroke-width="2"/>
      <path id="Path_123200" data-name="Path 123200" d="M1057.032,457.725a19.123,19.123,0,1,1,35.121-.8" transform="translate(-20447.531 -5055)" fill="none" stroke="#1c614e" stroke-miterlimit="10" stroke-width="2"/>
    </g>
  </g>
</svg>
