<svg xmlns="http://www.w3.org/2000/svg" width="62.86" height="62.86" viewBox="0 0 62.86 62.86">
  <g id="serv6" transform="translate(19177.789 4524.606)">
    <rect id="base" width="62.86" height="62.86" transform="translate(-19177.789 -4524.606)" fill="none"/>
    <g id="Group_56159" data-name="Group 56159" transform="translate(1261.988 328.166)">
      <path id="Path_123234" data-name="Path 123234" d="M54.646,224.56h3.8v5.066l10.126-8.865L58.444,211.9v5.065H45.786" transform="translate(-20447.805 -5055.401)" fill="none" stroke="#00ab7a" stroke-linecap="round" stroke-linejoin="round" stroke-width="2"/>
      <path id="Path_123235" data-name="Path 123235" d="M44.12,245.059h7.594v5.066L61.84,241.26,51.714,232.4v5.066H40.322" transform="translate(-20447.404 -5056.904)" fill="none" stroke="#00ab7a" stroke-linecap="round" stroke-linejoin="round" stroke-width="2"/>
      <rect id="Rectangle_14003" data-name="Rectangle 14003" width="13.923" height="11.397" transform="translate(-20437.459 -4810.578)" fill="none" stroke="#00ab7a" stroke-linecap="round" stroke-linejoin="round" stroke-width="2"/>
      <line id="Line_363" data-name="Line 363" y2="16.463" transform="translate(-20418.473 -4810.578)" fill="none" stroke="#00ab7a" stroke-linecap="round" stroke-linejoin="round" stroke-width="2"/>
      <line id="Line_364" data-name="Line 364" y2="5.065" transform="translate(-20426.066 -4799.181)" fill="none" stroke="#00ab7a" stroke-linecap="round" stroke-linejoin="round" stroke-width="2"/>
      <line id="Line_365" data-name="Line 365" y2="12.664" transform="translate(-20426.066 -4823.242)" fill="none" stroke="#00ab7a" stroke-linecap="round" stroke-linejoin="round" stroke-width="2"/>
      <path id="Path_123236" data-name="Path 123236" d="M27.629,219.094a4.854,4.854,0,0,0,5.062-5.065V211.5a4.854,4.854,0,0,0-5.062-5.066,4.854,4.854,0,0,0-5.063,5.066v2.533A4.854,4.854,0,0,0,27.629,219.094Z" transform="translate(-20446.102 -5055)" fill="none" stroke="#00ab7a" stroke-linecap="round" stroke-linejoin="round" stroke-width="2"/>
      <path id="Path_123237" data-name="Path 123237" d="M33.357,262.187V230.528h6.328c5.063,0,7.6-3.522,7.6-6.332H23.231c-6.328,0-8.86,3.415-8.86,7.6v13.931" transform="translate(-20445.5 -5056.303)" fill="none" stroke="#00ab7a" stroke-linecap="round" stroke-linejoin="round" stroke-width="2"/>
    </g>
  </g>
</svg>
