<svg xmlns="http://www.w3.org/2000/svg" width="62.86" height="62.86" viewBox="0 0 62.86 62.86">
  <g id="serv3" transform="translate(-2.273 -2)">
    <rect id="base" width="62.86" height="62.86" transform="translate(2.273 2)" fill="none"/>
    <g id="Group_56154" data-name="Group 56154" transform="translate(2.805 2.53)">
      <path id="Path_124533" data-name="Path 124533" d="M19.327,8.373c.52.722,4.926,6.6,5.186,7.239a4.568,4.568,0,0,1,.4,1.763,3.923,3.923,0,0,1-.607,2.052,9.83,9.83,0,0,1-1.618,2.052l-2.2,2.283a1.547,1.547,0,0,0-.462,1.156,2.624,2.624,0,0,0,.087.665c.087.231.173.4.231.578a23.982,23.982,0,0,0,2.688,3.7c1.3,1.5,2.688,3.034,4.19,4.566,1.561,1.532,3.063,2.948,4.6,4.248a22.18,22.18,0,0,0,3.728,2.659c.144.058.318.144.52.231a2,2,0,0,0,.722.116,1.59,1.59,0,0,0,1.185-.491l2.2-2.167A8.867,8.867,0,0,1,42.257,37.4a3.848,3.848,0,0,1,2.052-.607,4.612,4.612,0,0,1,1.763.376A11.178,11.178,0,0,1,48.1,38.3l9.566,6.791a4.384,4.384,0,0,1,1.589,1.85,5.929,5.929,0,0,1,.462,2.254,7.356,7.356,0,0,1-.722,3.15,11.924,11.924,0,0,1-1.965,2.948,13.029,13.029,0,0,1-4.74,3.41,14.513,14.513,0,0,1-5.635,1.1,24.084,24.084,0,0,1-9.421-2.11,50.761,50.761,0,0,1-9.942-5.722,83.088,83.088,0,0,1-9.479-8.092,82.116,82.116,0,0,1-8.063-9.45,51.523,51.523,0,0,1-5.664-9.855A24.341,24.341,0,0,1,2,15.12,14.95,14.95,0,0,1,3.04,9.543,13.3,13.3,0,0,1,6.364,4.717,8.468,8.468,0,0,1,12.375,2a5.431,5.431,0,0,1,2.341.52,4.711,4.711,0,0,1,1.936,1.618" fill="none" stroke="#00ab7a" stroke-linecap="round" stroke-linejoin="round" stroke-miterlimit="10" stroke-width="2"/>
      <path id="Path_124534" data-name="Path 124534" d="M25.115,15.615c0-1.734-1.358-4.393-3.381-6.56C19.884,7.061,17.428,5.5,15,5.5" transform="translate(26.569 4.615)" fill="none" stroke="#00ab7a" stroke-linecap="round" stroke-linejoin="round" stroke-width="2"/>
      <path id="Path_124537" data-name="Path 124537" d="M20.631,11.131a6.379,6.379,0,0,0-1.882-3.652A5.5,5.5,0,0,0,15,5.5" transform="translate(24.569 11.857)" fill="none" stroke="#00ab7a" stroke-linecap="round" stroke-linejoin="round" stroke-width="2"/>
      <path id="Path_124535" data-name="Path 124535" d="M20.809,2.838A20.31,20.31,0,0,0,15,2" transform="translate(24.569)" fill="none" stroke="#00ab7a" stroke-linecap="round" stroke-linejoin="round" stroke-width="2"/>
      <path id="Path_124536" data-name="Path 124536" d="M27.632,19.83A20.19,20.19,0,0,0,19.02,3.27" transform="translate(32.166 2.4)" fill="none" stroke="#00ab7a" stroke-linecap="round" stroke-linejoin="round" stroke-width="2"/>
    </g>
  </g>
</svg>
