<svg xmlns="http://www.w3.org/2000/svg" width="62.86" height="63.285" viewBox="0 0 62.86 63.285">
  <g id="serv4" transform="translate(19178 4523.241)">
    <rect id="base" width="62.86" height="62.86" transform="translate(-19178 -4523.241)" fill="none"/>
    <g id="Group_56156" data-name="Group 56156" transform="translate(784 -302.241)">
      <g id="Group_56118" data-name="Group 56118" transform="translate(-19953.043 -4212.805)">
        <line id="Line_298" data-name="Line 298" x1="0.168" y1="0.168" transform="translate(38.106 37.971)" fill="none" stroke="#00ab7a" stroke-linecap="round" stroke-linejoin="round" stroke-width="2"/>
        <line id="Line_299" data-name="Line 299" x1="0.168" y1="0.168" transform="translate(35.703 35.567)" fill="none" stroke="#00ab7a" stroke-linecap="round" stroke-linejoin="round" stroke-width="2"/>
        <line id="Line_300" data-name="Line 300" x1="0.537" y1="0.537" transform="translate(44.25 27.218)" fill="none" stroke="#00ab7a" stroke-linecap="round" stroke-linejoin="round" stroke-width="2"/>
        <line id="Line_301" data-name="Line 301" x1="0.537" y1="0.537" transform="translate(47.149 30.118)" fill="none" stroke="#00ab7a" stroke-linecap="round" stroke-linejoin="round" stroke-width="2"/>
        <line id="Line_302" data-name="Line 302" y1="0.537" x2="0.537" transform="translate(47.149 27.218)" fill="none" stroke="#00ab7a" stroke-linecap="round" stroke-linejoin="round" stroke-width="2"/>
        <line id="Line_303" data-name="Line 303" y1="0.537" x2="0.537" transform="translate(44.25 30.118)" fill="none" stroke="#00ab7a" stroke-linecap="round" stroke-linejoin="round" stroke-width="2"/>
        <line id="Line_304" data-name="Line 304" x2="12.692" transform="translate(23.787 44.243)" fill="none" stroke="#00ab7a" stroke-linecap="round" stroke-linejoin="round" stroke-width="2"/>
        <line id="Line_305" data-name="Line 305" x2="23.356" transform="translate(18.866 49.166)" fill="none" stroke="#00ab7a" stroke-linecap="round" stroke-linejoin="round" stroke-width="2"/>
        <line id="Line_306" data-name="Line 306" x2="48.783" transform="translate(0 54.09)" fill="none" stroke="#00ab7a" stroke-linecap="round" stroke-linejoin="round" stroke-width="2"/>
        <line id="Line_307" data-name="Line 307" x2="11.653" y2="11.659" transform="translate(32.097 5.037)" fill="none" stroke="#00ab7a" stroke-linecap="round" stroke-linejoin="round" stroke-width="2"/>
        <line id="Line_308" data-name="Line 308" y1="17.85" x2="17.841" transform="translate(17.299 17.367)" fill="none" stroke="#00ab7a" stroke-linecap="round" stroke-linejoin="round" stroke-width="2"/>
        <line id="Line_309" data-name="Line 309" x2="7.601" y2="7.606" transform="translate(0.95 40.377)" fill="none" stroke="#00ab7a" stroke-linecap="round" stroke-linejoin="round" stroke-width="2"/>
        <line id="Line_310" data-name="Line 310" x2="11.653" y2="11.658" transform="translate(5.16 31.987)" fill="none" stroke="#00ab7a" stroke-linecap="round" stroke-linejoin="round" stroke-width="2"/>
        <path id="Path_123140" data-name="Path 123140" d="M865.778,437.786a4.837,4.837,0,0,1,1.423,3.439" transform="translate(-821.796 -432.981)" fill="none" stroke="#00ab7a" stroke-linecap="round" stroke-linejoin="round" stroke-width="2"/>
        <path id="Path_123141" data-name="Path 123141" d="M827.123,461.849l-4.269,4.272a9.09,9.09,0,0,0-2.607,5.447l-1.112,10.289,10.089-1.4a9.082,9.082,0,0,0,5.177-2.575l31.1-31.122A8.241,8.241,0,1,0,853.853,435.1l-5.826,5.829" transform="translate(-819.135 -432.69)" fill="none" stroke="#00ab7a" stroke-linecap="round" stroke-linejoin="round" stroke-width="2"/>
        <line id="Line_469" data-name="Line 469" x1="0.168" y2="0.168" transform="translate(38.196 35.567)" fill="none" stroke="#00ab7a" stroke-linecap="round" stroke-linejoin="round" stroke-width="2"/>
        <line id="Line_470" data-name="Line 470" x1="0.168" y2="0.168" transform="translate(35.793 37.971)" fill="none" stroke="#00ab7a" stroke-linecap="round" stroke-linejoin="round" stroke-width="2"/>
      </g>
      <g id="Group_56119" data-name="Group 56119" transform="translate(-19956 -4221)">
        <g id="Union_15" data-name="Union 15" transform="translate(0 0)" fill="none">
          <path d="M4.957,25.054a14.251,14.251,0,1,1,18.589,0l-9.3,11.287Z" stroke="none"/>
          <path d="M 14.25080299377441 33.19387817382812 L 22.11149406433105 23.64897918701172 L 22.24123382568359 23.53722953796387 C 24.94869422912598 21.20516014099121 26.50150489807129 17.82036972045898 26.50150489807129 14.25075054168701 C 26.50150489807129 10.97842025756836 25.22721481323242 7.901969909667969 22.91337394714355 5.588129997253418 C 20.59953498840332 3.274290084838867 17.52309417724609 2 14.25075435638428 2 C 10.97841453552246 2 7.901974201202393 3.274290084838867 5.588134288787842 5.588129997253418 C 3.274294376373291 7.901969909667969 2.000004291534424 10.97842025756836 2.000004291534424 14.25075054168701 C 2.000004291534424 17.82126045227051 3.553464412689209 21.20661926269531 6.26207447052002 23.53878974914551 L 6.392004489898682 23.65065956115723 L 14.25080299377441 33.19387817382812 M 14.25075435638428 36.34000015258789 L 4.957104206085205 25.05438995361328 C 1.921874403953552 22.44099044799805 4.35638412454864e-06 18.57033920288086 4.35638412454864e-06 14.25075054168701 C 4.35638412454864e-06 6.380199909210205 6.380194187164307 7.629394360719743e-08 14.25075435638428 7.629394360719743e-08 C 22.12131500244141 7.629394360719743e-08 28.50150489807129 6.380199909210205 28.50150489807129 14.25075054168701 C 28.50150489807129 18.56937026977539 26.58054351806641 22.43921089172363 23.54648399353027 25.05258941650391 L 14.25075435638428 36.34000015258789 Z" stroke="none" fill="#00ab7a"/>
        </g>
        <g id="Ellipse_11173" data-name="Ellipse 11173" transform="translate(7.758 7.578)" fill="none" stroke="#00ab7a" stroke-width="2">
          <circle cx="6.711" cy="6.711" r="6.711" stroke="none"/>
          <circle cx="6.711" cy="6.711" r="5.711" fill="none"/>
        </g>
      </g>
    </g>
  </g>
</svg>
