<svg xmlns="http://www.w3.org/2000/svg" width="66.775" height="63.441" viewBox="0 0 66.775 63.441">
  <g id="serv2" transform="translate(19296.754 4623.5)">
    <path id="Path_123217" data-name="Path 123217" d="M1190.543,476.683l17.718-7.691a4.158,4.158,0,0,1,3.181,7.683l-18.361,8.823a10.378,10.378,0,0,1-4.053.824h-16.912a4.153,4.153,0,0,0-2.107.574l-4.9,2.88" transform="translate(-20445 -5055)" fill="none" stroke="#00ab7a" stroke-linecap="round" stroke-linejoin="round" stroke-width="2"/>
    <path id="Path_123218" data-name="Path 123218" d="M1176.6,476.966l12.457-.007a4.155,4.155,0,0,0,0-8.31h-16.169a9.348,9.348,0,0,0-4.7,1.269l-11.352,6.607" transform="translate(-20445 -5055)" fill="none" stroke="#00ab7a" stroke-linecap="round" stroke-linejoin="round" stroke-width="2"/>
    <path id="Path_123219" data-name="Path 123219" d="M1162.055,493.6l4.156-2.079-10.395-16.626-6.229,3.111" transform="translate(-20445 -5055)" fill="none" stroke="#00ab7a" stroke-linecap="round" stroke-linejoin="round" stroke-width="2"/>
    <g id="Group_56151" data-name="Group 56151" transform="translate(-3.99 -390)">
      <path id="Path_124528" data-name="Path 124528" d="M-19571.111-4074.931v20.319a18.957,18.957,0,0,0,13.979,5.737,18.446,18.446,0,0,0,13.836-5.737v-20.319s-2.2-5.537-13.836-5.537S-19571.111-4074.931-19571.111-4074.931Z" transform="translate(288 -152.032)" fill="none" stroke="#00ab7a" stroke-width="2"/>
      <path id="Path_124529" data-name="Path 124529" d="M-19571.111-4071.593s4.471,6.3,14.3,6.3,13.443-6.3,13.443-6.3" transform="translate(288 -155.314)" fill="none" stroke="#00ab7a" stroke-width="2"/>
      <path id="Path_124530" data-name="Path 124530" d="M-19571.111-4071.593s4.471,6.3,14.3,6.3,13.443-6.3,13.443-6.3" transform="translate(288 -150.314)" fill="none" stroke="#00ab7a" stroke-width="2"/>
      <path id="Path_124531" data-name="Path 124531" d="M-19571.111-4071.593s4.471,6.3,14.3,6.3,13.443-6.3,13.443-6.3" transform="translate(288 -145.314)" fill="none" stroke="#00ab7a" stroke-width="2"/>
      <path id="Path_124532" data-name="Path 124532" d="M-19571.111-4071.593s4.471,6.3,14.3,6.3,13.443-6.3,13.443-6.3" transform="translate(288 -140.314)" fill="none" stroke="#00ab7a" stroke-width="2"/>
    </g>
    <g id="Group_56152" data-name="Group 56152" transform="translate(23.824 -390)">
      <path id="Path_124528-2" data-name="Path 124528" d="M-19571.111-4065.931v11.319a18.957,18.957,0,0,0,13.979,5.737,18.446,18.446,0,0,0,13.836-5.737v-11.319s-2.2-5.537-13.836-5.537S-19571.111-4065.931-19571.111-4065.931Z" transform="translate(288 -152.032)" fill="none" stroke="#00ab7a" stroke-width="2"/>
      <path id="Path_124531-2" data-name="Path 124531" d="M-19571.111-4071.593s4.471,6.3,14.3,6.3,13.443-6.3,13.443-6.3" transform="translate(288 -145.314)" fill="none" stroke="#00ab7a" stroke-width="2"/>
      <path id="Path_124532-2" data-name="Path 124532" d="M-19571.111-4071.593s4.471,6.3,14.3,6.3,13.443-6.3,13.443-6.3" transform="translate(288 -140.314)" fill="none" stroke="#00ab7a" stroke-width="2"/>
    </g>
  </g>
</svg>
