<svg xmlns="http://www.w3.org/2000/svg" width="62.86" height="63.901" viewBox="0 0 62.86 63.901">
  <g id="serv9" transform="translate(19177.789 4524.282)">
    <rect id="base" width="62.86" height="62.86" transform="translate(-19177.789 -4523.241)" fill="none"/>
    <g id="Group_56171" data-name="Group 56171" transform="translate(453.604 326.759)">
      <path id="Path_123339" data-name="Path 123339" d="M863.262,240.021h4.206V211.972h-4.206" transform="translate(-20445 -5055)" fill="none" stroke="#00ab7a" stroke-linecap="round" stroke-linejoin="round" stroke-width="2"/>
      <path id="Path_123340" data-name="Path 123340" d="M857.654,211.972H822.6v28.049h4.206" transform="translate(-20445 -5055)" fill="none" stroke="#00ab7a" stroke-linecap="round" stroke-linejoin="round" stroke-width="2"/>
      <path id="Path_123341" data-name="Path 123341" d="M826.811,247.033H818.4a2.8,2.8,0,0,1-2.8-2.805V207.764a2.8,2.8,0,0,1,2.8-2.805h53.275a2.805,2.805,0,0,1,2.8,2.805v36.464a2.805,2.805,0,0,1-2.8,2.805h-8.412" transform="translate(-20445 -5055)" fill="none" stroke="#00ab7a" stroke-linecap="round" stroke-linejoin="round" stroke-width="2"/>
      <path id="Path_123342" data-name="Path 123342" d="M850.644,242.826a5.608,5.608,0,1,1-5.608-5.61A5.608,5.608,0,0,1,850.644,242.826Z" transform="translate(-20445 -5055)" fill="none" stroke="#00ab7a" stroke-linecap="round" stroke-linejoin="round" stroke-width="2"/>
      <path id="Path_123343" data-name="Path 123343" d="M857.654,242.826c0,1.347-1.5,2.43-1.878,3.646-.391,1.259.2,3.054-.531,4.1s-2.559,1.023-3.573,1.794-1.53,2.588-2.735,3c-1.164.394-2.611-.746-3.9-.746s-2.736,1.14-3.9.746c-1.206-.409-1.732-2.234-2.736-3s-2.834-.735-3.572-1.794-.14-2.843-.532-4.1c-.377-1.215-1.877-2.3-1.877-3.645s1.5-2.431,1.877-3.646c.392-1.26-.2-3.054.532-4.1s2.559-1.023,3.573-1.794,1.529-2.587,2.735-3c1.164-.4,2.611.745,3.9.745s2.737-1.14,3.9-.745c1.206.409,1.731,2.233,2.735,3s2.835.734,3.573,1.793.14,2.843.531,4.1C856.154,240.4,857.654,241.478,857.654,242.826Z" transform="translate(-20445 -5055)" fill="none" stroke="#00ab7a" stroke-linecap="round" stroke-linejoin="round" stroke-width="2"/>
      <path id="Path_123344" data-name="Path 123344" d="M850.644,253.6v13.064l-5.608-5.259-5.608,5.259V253.6" transform="translate(-20445 -5055)" fill="none" stroke="#00ab7a" stroke-linecap="round" stroke-linejoin="round" stroke-width="2"/>
      <line id="Line_459" data-name="Line 459" x2="14.954" transform="translate(-19607.441 -4830.406)" fill="none" stroke="#00ab7a" stroke-linecap="round" stroke-linejoin="round" stroke-width="2"/>
      <line id="Line_460" data-name="Line 460" x2="22.431" transform="translate(-19611.18 -4836.016)" fill="none" stroke="#00ab7a" stroke-linecap="round" stroke-linejoin="round" stroke-width="2"/>
    </g>
  </g>
</svg>
