<svg xmlns="http://www.w3.org/2000/svg" width="65.347" height="62.86" viewBox="0 0 65.347 62.86">
  <g id="serv5" transform="translate(19179.405 4523.241)">
    <rect id="base" width="62.86" height="62.86" transform="translate(-19178 -4523.241)" fill="none"/>
    <g id="Group_56157" data-name="Group 56157" transform="translate(224.052 424.064)">
      <path id="Path_122969" data-name="Path 122969" d="M1095.635,117.695l-8.085,3.081,9.3,23.216,8.738-3.511" transform="translate(-20445 -5055)" fill="none" stroke="#00ab7a" stroke-linecap="round" stroke-linejoin="round" stroke-width="2"/>
      <path id="Path_122970" data-name="Path 122970" d="M1057.185,117.695l6.92,4.829-13.983,20.734-7.174-5.626" transform="translate(-20445 -5055)" fill="none" stroke="#00ab7a" stroke-linecap="round" stroke-linejoin="round" stroke-width="2"/>
      <path id="Path_122971" data-name="Path 122971" d="M1071.778,159.28l2.262-3.1a2.766,2.766,0,1,0-4.471-3.258l-2.262,3.1a2.766,2.766,0,1,0,4.471,3.258Z" transform="translate(-20445 -5055)" fill="none" stroke="#00ab7a" stroke-linecap="round" stroke-linejoin="round" stroke-width="2"/>
      <path id="Path_122972" data-name="Path 122972" d="M1067.307,156.022l3.77-5.176a2.766,2.766,0,1,0-4.471-3.259l-3.77,5.176a2.766,2.766,0,1,0,4.471,3.259Z" transform="translate(-20445 -5055)" fill="none" stroke="#00ab7a" stroke-linecap="round" stroke-linejoin="round" stroke-width="2"/>
      <path id="Path_122973" data-name="Path 122973" d="M1062.836,152.763l5.308-7.288a2.766,2.766,0,1,0-4.471-3.258l-5.308,7.288a2.766,2.766,0,1,0,4.471,3.258Z" transform="translate(-20445 -5055)" fill="none" stroke="#00ab7a" stroke-linecap="round" stroke-linejoin="round" stroke-width="2"/>
      <path id="Path_122974" data-name="Path 122974" d="M1058.365,149.505l3.77-5.176a2.766,2.766,0,1,0-4.471-3.259l-3.77,5.177a2.766,2.766,0,1,0,4.471,3.258Z" transform="translate(-20445 -5055)" fill="none" stroke="#00ab7a" stroke-linecap="round" stroke-linejoin="round" stroke-width="2"/>
      <path id="Path_122975" data-name="Path 122975" d="M1087.5,121.221a14.372,14.372,0,0,0-7.079.929l-2.242.9-13.5,5.413a5.531,5.531,0,0,0,7.193,3.078l4.415-1.738,2.528,4.082a7.472,7.472,0,0,0,10.3,2.378" transform="translate(-20445 -5055)" fill="none" stroke="#00ab7a" stroke-linecap="round" stroke-linejoin="round" stroke-width="2"/>
      <path id="Path_122976" data-name="Path 122976" d="M1073.163,157.863l2.108,1.422a2.707,2.707,0,0,0,3.76-.731l.064-.1a2.709,2.709,0,0,0-.731-3.761l-6.747-4.524" transform="translate(-20445 -5055)" fill="none" stroke="#00ab7a" stroke-linecap="round" stroke-linejoin="round" stroke-width="2"/>
      <path id="Path_122977" data-name="Path 122977" d="M1073.521,144.753l11.362,7.669a2.711,2.711,0,0,1,.732,3.761l-.065.1a2.709,2.709,0,0,1-3.761.731l-10.172-6.835" transform="translate(-20445 -5055)" fill="none" stroke="#00ab7a" stroke-linecap="round" stroke-linejoin="round" stroke-width="2"/>
      <path id="Path_122978" data-name="Path 122978" d="M1076.708,140.206l12.242,8.262a2.712,2.712,0,0,1,.732,3.762l-.065.1a2.71,2.71,0,0,1-3.761.731l-12.325-8.318" transform="translate(-20445 -5055)" fill="none" stroke="#00ab7a" stroke-linecap="round" stroke-linejoin="round" stroke-width="2"/>
      <path id="Path_122979" data-name="Path 122979" d="M1050.521,142.665a13.725,13.725,0,0,0,2.958,4" transform="translate(-20445 -5055)" fill="none" stroke="#00ab7a" stroke-linecap="round" stroke-linejoin="round" stroke-width="2"/>
      <path id="Path_122980" data-name="Path 122980" d="M1089.74,148.271a2.7,2.7,0,0,0,2.008-1.183l.064-.1a2.71,2.71,0,0,0-.731-3.762l-5.992-5.637" transform="translate(-20445 -5055)" fill="none" stroke="#00ab7a" stroke-linecap="round" stroke-linejoin="round" stroke-width="2"/>
      <path id="Path_122981" data-name="Path 122981" d="M1071.606,125.684l-.708-.477a14.335,14.335,0,0,0-6.974-2.416" transform="translate(-20445 -5055)" fill="none" stroke="#00ab7a" stroke-linecap="round" stroke-linejoin="round" stroke-width="2"/>
      <path id="Path_122982" data-name="Path 122982" d="M1096.681,143.561a13.777,13.777,0,0,1-5.647,4.182" transform="translate(-20445 -5055)" fill="none" stroke="#00ab7a" stroke-linecap="round" stroke-linejoin="round" stroke-width="2"/>
    </g>
  </g>
</svg>
