<svg xmlns="http://www.w3.org/2000/svg" xmlns:xlink="http://www.w3.org/1999/xlink" width="265.557" height="88.2" viewBox="0 0 265.557 88.2">
  <defs>
    <clipPath id="clip-path">
      <rect id="Rectangle_14057" data-name="Rectangle 14057" width="172.263" height="28.104" fill="#232d6a"/>
    </clipPath>
  </defs>
  <g id="sites-ryada" transform="translate(-185.494 -120.288)">
    <g id="_232d6aff" data-name="#232d6aff" transform="translate(185.494 140.652)">
      <path id="Path_124497" data-name="Path 124497" d="M-272.686-13.693l-2.561,8.407h-1.286l-2-6.591-1.942,6.591h-1.25l-2.573-8.334,1.092-.16,2.148,7.119,1.99-7.033h1.1l2.075,7.033,2.087-7.033Zm7.767,8.432-.825-2.037H-270l-.789,1.952h-1.165l3.446-8.334,1.286-.16,3.434,8.407Zm-4.7-2.995h3.483l-1.747-4.308Zm15.594-1.264a4.05,4.05,0,0,1-1.541,3.388l.862,1.08-.813.6-.922-1.154a4.9,4.9,0,0,1-1.954.38,4.242,4.242,0,0,1-3.186-1.215,4.235,4.235,0,0,1-1.183-3.081,4.24,4.24,0,0,1,1.183-3.075,4.23,4.23,0,0,1,3.186-1.221,4.23,4.23,0,0,1,3.186,1.221A4.24,4.24,0,0,1-254.022-9.52Zm-4.369,3.351a3.469,3.469,0,0,0,1.335-.245L-258.2-8l.655-.479,1.323,1.546a3.271,3.271,0,0,0,1.044-2.59,3.411,3.411,0,0,0-.874-2.43,3.056,3.056,0,0,0-2.342-.933,3.056,3.056,0,0,0-2.342.933,3.411,3.411,0,0,0-.874,2.43,3.389,3.389,0,0,0,.874,2.424A3.066,3.066,0,0,0-258.391-6.169Zm6.347.822v-8.346h5.692v.97h-4.563v2.946h4.15l.17.97h-4.32v3.461Zm14.247-8.346a3.248,3.248,0,0,1,2.275.749,2.549,2.549,0,0,1,.819,1.976,2.564,2.564,0,0,1-.819,1.988,3.248,3.248,0,0,1-2.275.749h-2.318v2.884h-1.129v-8.346Zm-.036,4.492a2.147,2.147,0,0,0,1.42-.454,1.611,1.611,0,0,0,.546-1.313,1.593,1.593,0,0,0-.546-1.307,2.167,2.167,0,0,0-1.42-.448h-2.281V-9.2Zm5.946,3.854h-1.129v-8.272l1.129-.16Zm9.545-1.092a4.242,4.242,0,0,1-3.186,1.215,4.242,4.242,0,0,1-3.186-1.215A4.235,4.235,0,0,1-229.9-9.52a4.24,4.24,0,0,1,1.183-3.075,4.23,4.23,0,0,1,3.186-1.221,4.23,4.23,0,0,1,3.186,1.221,4.24,4.24,0,0,1,1.183,3.075A4.235,4.235,0,0,1-222.342-6.439Zm-3.186-6.407a3.077,3.077,0,0,0-2.342.921,3.351,3.351,0,0,0-.874,2.406,3.346,3.346,0,0,0,.874,2.412,3.088,3.088,0,0,0,2.342.914,3.083,3.083,0,0,0,2.348-.914,3.359,3.359,0,0,0,.868-2.412,3.364,3.364,0,0,0-.868-2.406A3.073,3.073,0,0,0-225.528-12.846Zm7.378.871v6.628h-1.032v-8.346h1.116L-213.1-7.1v-6.517l1.044-.16v8.432h-1.116Zm8.531,6.628v-8.346h5.728v.97h-4.6V-10.1h4.2l.158.957h-4.357v2.823h4.721v.97Zm7.864,0v-8.346h5.728v.97h-4.6V-10.1h4.2l.158.957h-4.357v2.823h4.721v.97Zm13.555.123-2.536-3.338h-2.027v3.216h-1.129v-8.346h3.531a3.179,3.179,0,0,1,2.16.651,2.4,2.4,0,0,1,.74,1.9A2.417,2.417,0,0,1-188-9.5a2.472,2.472,0,0,1-1.541.792l2.536,3.326Zm-4.563-4.308h2.257q1.893,0,1.893-1.608,0-1.583-1.893-1.583h-2.257Zm8.495,4.185H-185.4v-8.272l1.129-.16Zm3.483-6.628v6.628h-1.032v-8.346h1.116l4.963,6.591v-6.517l1.044-.16v8.432h-1.116Zm14.016,2.565,1.092-.16v3.743a6.285,6.285,0,0,1-2.864.6,4.073,4.073,0,0,1-3.022-1.16,4.252,4.252,0,0,1-1.153-3.136,4.252,4.252,0,0,1,1.153-3.136,4.073,4.073,0,0,1,3.022-1.16,5.184,5.184,0,0,1,2.779.749l-.158,1.006a4.43,4.43,0,0,0-2.573-.786,2.915,2.915,0,0,0-2.227.9,3.4,3.4,0,0,0-.843,2.43,3.4,3.4,0,0,0,.843,2.43,2.915,2.915,0,0,0,2.227.9,4.308,4.308,0,0,0,1.723-.307Zm13.021,3.437a5.224,5.224,0,0,1-2.779.749A4.2,4.2,0,0,1-159.6-6.39a4.183,4.183,0,0,1-1.189-3.13,4.172,4.172,0,0,1,1.2-3.13,4.269,4.269,0,0,1,3.113-1.166,5.184,5.184,0,0,1,2.779.749l-.206,1.006a4.43,4.43,0,0,0-2.573-.786,3.04,3.04,0,0,0-2.288.9,3.345,3.345,0,0,0-.868,2.43,3.359,3.359,0,0,0,.862,2.43,2.989,2.989,0,0,0,2.257.9,4.674,4.674,0,0,0,2.767-.822Zm1.954.626v-8.346h5.728v.97h-4.6V-10.1h4.2l.158.957h-4.357v2.823h4.721v.97Zm8.9-6.628v6.628h-1.032v-8.346h1.116l4.963,6.591v-6.517l1.044-.16v8.432h-1.116Zm10.534,6.628v-7.376h-2.864v-.97h6.869l-.158.97h-2.706v7.376Zm5.582,0v-8.346h5.728v.97h-4.6V-10.1h4.2l.158.957h-4.357v2.823h4.721v.97Zm13.555.123-2.536-3.338h-2.027v3.216h-1.129v-8.346h3.531a3.179,3.179,0,0,1,2.16.651,2.4,2.4,0,0,1,.74,1.9,2.417,2.417,0,0,1-.546,1.639,2.472,2.472,0,0,1-1.541.792l2.536,3.326Zm-4.563-4.308h2.257q1.893,0,1.893-1.608,0-1.583-1.893-1.583h-2.257Z" transform="translate(284.3 49.916)" fill="#232d6a"/>
      <g id="Group_56142" data-name="Group 56142">
        <rect id="Rectangle_14056" data-name="Rectangle 14056" width="2.497" height="2.497" transform="translate(8.535 26.328) rotate(-44.763)" fill="#232d6a"/>
        <path id="Path_124478" data-name="Path 124478" d="M2.222,13.57l1.745,1.77,1.78-1.77L3.967,11.8Z" transform="translate(2.404 12.766)" fill="#232d6a"/>
        <path id="Path_124479" data-name="Path 124479" d="M9.745,1.794,11.49,3.538l1.782-1.745L11.49.012Z" transform="translate(10.542 0.013)" fill="#232d6a"/>
        <path id="Path_124480" data-name="Path 124480" d="M18.136,0l-1.77,1.782,1.77,1.77,1.78-1.77Z" transform="translate(17.705)" fill="#232d6a"/>
        <path id="Path_124481" data-name="Path 124481" d="M16.26,0,14.48,1.782l1.78,1.77,1.77-1.77Z" transform="translate(15.665)" fill="#232d6a"/>
        <g id="Group_56143" data-name="Group 56143">
          <g id="Group_56142-2" data-name="Group 56142" clip-path="url(#clip-path)">
            <path id="Path_124482" data-name="Path 124482" d="M38.389,5.415a7.077,7.077,0,0,0-1.6-2.323,2.6,2.6,0,0,0-2.148-.7,3.3,3.3,0,0,0-1.328.575A5.217,5.217,0,0,0,32,4.343a8.025,8.025,0,0,0-.976,2.121,8.007,8.007,0,0,0-.354,2.819,1.2,1.2,0,0,0,.233.572,1.483,1.483,0,0,0,.914.683,6.634,6.634,0,0,0,2.073.294,16.154,16.154,0,0,0,3.622-.5c.171.806.289,1.43.354,1.878H27.374a24.279,24.279,0,0,0-.487-3.745A15.032,15.032,0,0,0,25.8,5.234a6.484,6.484,0,0,0-1.6-2.2,2.594,2.594,0,0,0-2.073-.622,3.2,3.2,0,0,0-1.318.572,5.193,5.193,0,0,0-1.33,1.38,8.021,8.021,0,0,0-.974,2.121,8.752,8.752,0,0,0-.319,2.819,1.235,1.235,0,0,0,.221.572,1.515,1.515,0,0,0,.9.683,6.564,6.564,0,0,0,2.073.294,16.43,16.43,0,0,0,3.624-.5q.269,1.255.352,1.853H16.786A14.084,14.084,0,0,1,14.3,12a11.075,11.075,0,0,1-1.951-.525,6.709,6.709,0,0,1-1.551-.843A10.24,10.24,0,0,1,9.491,9.491v1.89A1.482,1.482,0,0,0,9.626,12a1.4,1.4,0,0,0,.269.5,1.524,1.524,0,0,0,.3.329A.616.616,0,0,0,10.42,13a8.54,8.54,0,0,0,2.952,1.451,7.6,7.6,0,0,1-1.122,1.22A9.685,9.685,0,0,1,10.7,16.736a12.29,12.29,0,0,1-1.9.743,9.1,9.1,0,0,1-2.169.269,4.3,4.3,0,0,1-2.6-.8,4.388,4.388,0,0,1-1.572-2.115,6,6,0,0,1-.227-2.977A7.813,7.813,0,0,1,3.723,8.465l-1.1-1.049a10.9,10.9,0,0,0-1,1.368A12.511,12.511,0,0,0,.783,10.43,9.448,9.448,0,0,0,.2,12.308,8.3,8.3,0,0,0,0,14.284a7.736,7.736,0,0,0,.377,2.123,6.144,6.144,0,0,0,1.147,2.1A6.352,6.352,0,0,0,3.6,20.077a7,7,0,0,0,3.148.622,9.246,9.246,0,0,0,3.452-.6,9,9,0,0,0,2.513-1.5,8.889,8.889,0,0,0,1.709-1.928,7.424,7.424,0,0,0,.889-1.865c.114.015.254.021.379.031v.067H39.842a21.817,21.817,0,0,0,.073-2.2,24.808,24.808,0,0,0-.452-3.9,17.788,17.788,0,0,0-1.074-3.391M35.145,8.209a6.66,6.66,0,0,1-1.282.025,2.981,2.981,0,0,1-.841-.146,1.258,1.258,0,0,1-.548-.306c-.05-.017-.033-.183.048-.5a3.87,3.87,0,0,1,.427-.914,3.791,3.791,0,0,1,.7-.879,1.329,1.329,0,0,1,.976-.4q1.243,0,2.219,2.879a13.343,13.343,0,0,1-1.695.244m-12.516.025a6.87,6.87,0,0,1-1.268.025,3.13,3.13,0,0,1-.856-.148,1.365,1.365,0,0,1-.548-.3c-.05-.017-.033-.183.048-.5a4.81,4.81,0,0,1,.427-.916,4.423,4.423,0,0,1,.7-.879,1.328,1.328,0,0,1,.976-.4q1.255,0,2.257,2.879a15.224,15.224,0,0,1-1.732.244" transform="translate(0 2.562)" fill="#232d6a"/>
            <path id="Path_124483" data-name="Path 124483" d="M32.568,14.007H28.03a14.952,14.952,0,0,0-.452-2.6,9.8,9.8,0,0,0-.841-2.219,5.539,5.539,0,0,0-1.195-1.526,2.439,2.439,0,0,0-1.526-.548,2.322,2.322,0,0,0-1.707.743,6.577,6.577,0,0,0-1.245,1.878A10.888,10.888,0,0,0,20.04,14.25l.025.525a1.171,1.171,0,0,0,.67,1,4.924,4.924,0,0,0,1.5.572,7.791,7.791,0,0,0,1.878.281c.383.033.964.065,1.745.1a10.016,10.016,0,0,1-4.27,5.525l2.794,2.34a17.994,17.994,0,0,0,2.756-4.17,12.077,12.077,0,0,0,.891-3.72h7.111V.708L32.568,2.284Zm-7.93-.073a9.914,9.914,0,0,1-1.451-.183,5.161,5.161,0,0,1-1.1-.294c-.283-.137-.427-.312-.427-.523a2.992,2.992,0,0,1,.148-.781,4.547,4.547,0,0,1,.427-.928,3.189,3.189,0,0,1,.622-.768,1.18,1.18,0,0,1,.829-.329,1.4,1.4,0,0,1,.854.3,2.965,2.965,0,0,1,.745.793,5.416,5.416,0,0,1,.572,1.232,8.534,8.534,0,0,1,.329,1.549q-.806,0-1.549-.073" transform="translate(21.679 0.766)" fill="#232d6a"/>
            <path id="Path_124484" data-name="Path 124484" d="M28.536,16.713l2.6-1.6V.7l-2.6,1.6Z" transform="translate(30.871 0.755)" fill="#232d6a"/>
            <path id="Path_124485" data-name="Path 124485" d="M38.665,2.841l-1.757-1.77L35.14,2.841l1.767,1.78Z" transform="translate(38.015 1.16)" fill="#232d6a"/>
            <path id="Path_124486" data-name="Path 124486" d="M36.778,2.841l-1.745-1.77-1.78,1.77,1.78,1.78Z" transform="translate(35.974 1.16)" fill="#232d6a"/>
            <path id="Path_124487" data-name="Path 124487" d="M40.466,5.449a9.087,9.087,0,0,0-1.355-1.28q-.475-.378-1.3-.928a41.135,41.135,0,0,0-3.123,4.172,13.133,13.133,0,0,0-1.2,2.159,6.825,6.825,0,0,0-.5,1.624,3.261,3.261,0,0,0,.025,1.195,4.506,4.506,0,0,0,.3.879,1.61,1.61,0,0,0,.575.572,2.554,2.554,0,0,0,.768.341,4.712,4.712,0,0,0,.926.135c.221.017.562.023,1.024.023a4.775,4.775,0,0,0,2.2-.523,6.247,6.247,0,0,0,1.707-1.355,6.448,6.448,0,0,0,1.1-1.767,5.3,5.3,0,0,0,.364-1.855A4.309,4.309,0,0,0,41.563,7a7.318,7.318,0,0,0-1.1-1.549m-1.659,5.465a3.617,3.617,0,0,1-1.439.427,3.486,3.486,0,0,1-1.38-.123,1.55,1.55,0,0,1-.876-.6,1.148,1.148,0,0,1-.075-.854,3.806,3.806,0,0,1,.452-1.072q.356-.575.745-1.122c.187-.254.462-.6.829-1.026q.781.6,1.178.958a10.827,10.827,0,0,1,.945,1.024,4.989,4.989,0,0,1,.8,1.312,2.7,2.7,0,0,1-1.182,1.074" transform="translate(35.64 3.505)" fill="#232d6a"/>
            <path id="Path_124488" data-name="Path 124488" d="M46.747,7.393a12.593,12.593,0,0,0-1.33-2.475Q44.442,3.6,43.941,2.965L42.319,5.746q.671.671,1.305,1.416.575.706,1.024,1.328a6.386,6.386,0,0,1,.714,1.4,6.769,6.769,0,0,1,.335,1.678H40.025a1.051,1.051,0,0,1-1.018-.439,1.36,1.36,0,0,1-.054-1.062,8.41,8.41,0,0,0-.635,1.428,3.041,3.041,0,0,0-.121,1.341,1.621,1.621,0,0,0,.573,1.024,2.207,2.207,0,0,0,1.451.4h7.27a12.046,12.046,0,0,0,.1-3.77,13.9,13.9,0,0,0-.847-3.1" transform="translate(41.288 3.208)" fill="#232d6a"/>
            <path id="Path_124489" data-name="Path 124489" d="M46.454,11.168l1.745,1.78,1.767-1.78L48.2,9.4Z" transform="translate(50.254 10.167)" fill="#232d6a"/>
            <path id="Path_124490" data-name="Path 124490" d="M53.873,9.711c.065.114.281.5.647,1.147l.573,1.024a11,11,0,0,1,.475,1,11.839,11.839,0,0,1,.379,1.124H46.3V.709l-2.573,1.6V16.7H57.618a17.25,17.25,0,0,0,.206-2.6,15.455,15.455,0,0,0-1.853-6.818Z" transform="translate(47.301 0.767)" fill="#232d6a"/>
            <path id="Path_124491" data-name="Path 124491" d="M48.335,11.168l1.745,1.78,1.78-1.78L50.08,9.4Z" transform="translate(52.289 10.167)" fill="#232d6a"/>
            <path id="Path_124492" data-name="Path 124492" d="M62.47,14.005H57.42A18.913,18.913,0,0,0,55.3,7.138L53.31,9.786q.525.793.791,1.268.525.977.622,1.232c.2.462.371.879.5,1.243a12.335,12.335,0,0,1,.352,1.4,18.437,18.437,0,0,1-.5,2.013,11.878,11.878,0,0,1-.854,1.928,11.45,11.45,0,0,1-1.341,1.78,10.407,10.407,0,0,1-1.953,1.6L53.7,24.594a18.513,18.513,0,0,0,1.647-2.171,16.256,16.256,0,0,0,1.11-2.026,12.881,12.881,0,0,0,.647-1.9,12.608,12.608,0,0,0,.291-1.792h7.649V.709L62.47,2.283Z" transform="translate(55.097 0.767)" fill="#232d6a"/>
            <path id="Path_124493" data-name="Path 124493" d="M58.952,16.713l2.6-1.6V.7l-2.6,1.6Z" transform="translate(63.775 0.755)" fill="#232d6a"/>
            <path id="Path_124494" data-name="Path 124494" d="M66.684,3.345l-1.745-1.77-1.767,1.77L64.939,5.1Z" transform="translate(68.339 1.705)" fill="#232d6a"/>
            <path id="Path_124495" data-name="Path 124495" d="M82.151,10.693a8.882,8.882,0,0,0-2.819-2.073A13,13,0,0,0,75,7.522L80.773,3.9Q82.225,3,82.7,3.825V1.653A.987.987,0,0,0,82.078.588a2.063,2.063,0,0,0-1.672.443L74.734,4.57c-.266.185-.5.354-.706.5a3.591,3.591,0,0,0-.622.6,2.916,2.916,0,0,0-.427.806,3.009,3.009,0,0,0-.171,1.072V10.12q.827,0,1.9.1a9.282,9.282,0,0,1,4.068,1.226,5.065,5.065,0,0,1,2.042,2.752H69.527A18.947,18.947,0,0,0,67.4,7.326L65.415,9.972q.525.793.793,1.27c.35.65.556,1.06.622,1.23q.3.7.5,1.245a12.259,12.259,0,0,1,.354,1.4,19.056,19.056,0,0,1-.5,2.013,11.956,11.956,0,0,1-.856,1.928,11.319,11.319,0,0,1-1.341,1.78,10.341,10.341,0,0,1-1.953,1.6L65.8,24.782a18.455,18.455,0,0,0,1.647-2.171,16.448,16.448,0,0,0,1.112-2.026,12.934,12.934,0,0,0,.645-1.9A12.625,12.625,0,0,0,69.5,16.89H84.177a11.606,11.606,0,0,0-.477-3.368,7.35,7.35,0,0,0-1.549-2.829" transform="translate(68.192 0.578)" fill="#232d6a"/>
            <path id="Path_124496" data-name="Path 124496" d="M92.768,10.361a13.6,13.6,0,0,0-.341-1.453q-.256-.743-.6-1.488A5.966,5.966,0,0,0,91,6.114a4.444,4.444,0,0,0-1.1-.926,2.782,2.782,0,0,0-1.355-.341,2.193,2.193,0,0,0-1.414.525,4.561,4.561,0,0,0-1.074,1.391A8.432,8.432,0,0,0,85.3,8.639a14.88,14.88,0,0,0-.379,2.026h-5.05A18.913,18.913,0,0,0,77.752,3.8L75.763,6.445q.525.793.793,1.268.525.977.62,1.232c.2.462.371.879.5,1.243a12.822,12.822,0,0,1,.354,1.4,18.89,18.89,0,0,1-.5,2.013,11.878,11.878,0,0,1-.854,1.928,11.45,11.45,0,0,1-1.341,1.78,10.407,10.407,0,0,1-1.953,1.6l2.769,2.342A18.513,18.513,0,0,0,77.8,19.082a16.258,16.258,0,0,0,1.11-2.026,12.643,12.643,0,0,0,.647-1.9,12.925,12.925,0,0,0,.294-1.792h6.672a7.844,7.844,0,0,1,2.775.452,5.418,5.418,0,0,1,2.2,1.622,5.066,5.066,0,0,0,.7-1.074,5.459,5.459,0,0,0,.683-2.719,7.38,7.38,0,0,0-.108-1.28m-5.844.3h-.269a8.621,8.621,0,0,1,.983-2.1A1.606,1.606,0,0,1,88.7,7.859a1.223,1.223,0,0,1,.77.183,2.887,2.887,0,0,1,.781.745,5.8,5.8,0,0,1,.6,1.28,5.859,5.859,0,0,1,.171,1.865,6.272,6.272,0,0,0-4.1-1.268" transform="translate(79.387 4.108)" fill="#232d6a"/>
          </g>
        </g>
      </g>
    </g>
    <g id="Group_56144" data-name="Group 56144" transform="translate(373.96 120.288)">
      <ellipse id="Ellipse_11190" data-name="Ellipse 11190" cx="2.553" cy="1.045" rx="2.553" ry="1.045" transform="matrix(0.998, 0.07, -0.07, 0.998, 51.807, 0)" fill="#232d6a"/>
      <ellipse id="Ellipse_11189" data-name="Ellipse 11189" cx="1.832" cy="1.157" rx="1.832" ry="1.157" transform="matrix(0.998, -0.07, 0.07, 0.998, 43.998, 0.555)" fill="#232d6a"/>
      <ellipse id="Ellipse_11191" data-name="Ellipse 11191" cx="2.022" cy="1.058" rx="2.022" ry="1.058" transform="translate(60.877 0.755) rotate(20)" fill="#232d6a"/>
      <ellipse id="Ellipse_11176" data-name="Ellipse 11176" cx="5.1" cy="2.436" rx="5.1" ry="2.436" transform="matrix(0.891, -0.454, 0.454, 0.891, 32.114, 5.386)" fill="#232d6a"/>
      <ellipse id="Ellipse_11194" data-name="Ellipse 11194" cx="1.939" cy="1.197" rx="1.939" ry="1.197" transform="matrix(0.978, 0.208, -0.208, 0.978, 56.695, 2.876)" fill="#232d6a"/>
      <ellipse id="Ellipse_11192" data-name="Ellipse 11192" cx="2.175" cy="1.605" rx="2.175" ry="1.605" transform="translate(67.645 4.13) rotate(25)" fill="#232d6a"/>
      <ellipse id="Ellipse_11181" data-name="Ellipse 11181" cx="3.861" cy="1.568" rx="3.861" ry="1.568" transform="matrix(0.809, -0.588, 0.588, 0.809, 21.176, 10.491)" fill="#232d6a"/>
      <ellipse id="Ellipse_11193" data-name="Ellipse 11193" cx="2.844" cy="1.88" rx="2.844" ry="1.88" transform="translate(59.954 7.078) rotate(25)" fill="#232d6a"/>
      <ellipse id="Ellipse_11188" data-name="Ellipse 11188" cx="3.111" cy="2.263" rx="3.111" ry="2.263" transform="translate(39.717 10.759) rotate(-20)" fill="#232d6a"/>
      <ellipse id="Ellipse_11195" data-name="Ellipse 11195" cx="2.626" cy="1.778" rx="2.626" ry="1.778" transform="matrix(0.974, -0.225, 0.225, 0.974, 49.886, 11.286)" fill="#232d6a"/>
      <ellipse id="Ellipse_11196" data-name="Ellipse 11196" cx="4.121" cy="2.977" rx="4.121" ry="2.977" transform="matrix(0.777, 0.629, -0.629, 0.777, 70.686, 9.561)" fill="#232d6a"/>
      <ellipse id="Ellipse_11184" data-name="Ellipse 11184" cx="3.298" cy="1.337" rx="3.298" ry="1.337" transform="matrix(-0.656, 0.755, -0.755, -0.656, 20.712, 13.864)" fill="#232d6a"/>
      <ellipse id="Ellipse_11187" data-name="Ellipse 11187" cx="3.22" cy="1.864" rx="3.22" ry="1.864" transform="translate(31.387 14.543) rotate(-25)" fill="#232d6a"/>
      <ellipse id="Ellipse_11182" data-name="Ellipse 11182" cx="2.761" cy="1.63" rx="2.761" ry="1.63" transform="translate(28.977 15.784) rotate(135)" fill="#232d6a"/>
      <ellipse id="Ellipse_11198" data-name="Ellipse 11198" cx="3.499" cy="3.098" rx="3.499" ry="3.098" transform="matrix(0.883, 0.469, -0.469, 0.883, 56.174, 14.251)" fill="#232d6a"/>
      <ellipse id="Ellipse_11183" data-name="Ellipse 11183" cx="1.285" cy="2.874" rx="1.285" ry="2.874" transform="translate(20.176 15.78) rotate(39)" fill="#232d6a"/>
      <ellipse id="Ellipse_11177" data-name="Ellipse 11177" cx="5.719" cy="5.094" rx="5.719" ry="5.094" transform="matrix(0.839, -0.545, 0.545, 0.839, 35.745, 20.678)" fill="#232d6a"/>
      <ellipse id="Ellipse_11197" data-name="Ellipse 11197" cx="3.407" cy="2.539" rx="3.407" ry="2.539" transform="matrix(0.891, 0.454, -0.454, 0.891, 65.514, 17.574)" fill="#232d6a"/>
      <path id="Path_124457" data-name="Path 124457" d="M537.8,152.537a3.073,3.073,0,0,1,3.328,3.24,7.484,7.484,0,0,1-6.163,5.738c-1.824.2-3.814-1.178-3.494-3.075C531.951,155.446,534.767,153.108,537.8,152.537Z" transform="translate(-508.003 -132.739)" fill="#232d6a"/>
      <ellipse id="Ellipse_11185" data-name="Ellipse 11185" cx="1.135" cy="2.74" rx="1.135" ry="2.74" transform="translate(12.934 20.083) rotate(40)" fill="#232d6a"/>
      <ellipse id="Ellipse_11186" data-name="Ellipse 11186" cx="2.559" cy="3.425" rx="2.559" ry="3.425" transform="matrix(0.788, 0.616, -0.616, 0.788, 17.83, 21.865)" fill="#232d6a"/>
      <ellipse id="Ellipse_11204" data-name="Ellipse 11204" cx="0.992" cy="2.799" rx="0.992" ry="2.799" transform="matrix(0.914, 0.407, -0.407, 0.914, 7.658, 25.157)" fill="#232d6a"/>
      <ellipse id="Ellipse_11219" data-name="Ellipse 11219" cx="2.854" cy="2.851" rx="2.854" ry="2.851" transform="translate(63.068 27.605)" fill="#232d6a"/>
      <ellipse id="Ellipse_11203" data-name="Ellipse 11203" cx="1.009" cy="2.415" rx="1.009" ry="2.415" transform="translate(12.027 28.69) rotate(31)" fill="#232d6a"/>
      <ellipse id="Ellipse_11215" data-name="Ellipse 11215" cx="2.243" cy="2.065" rx="2.243" ry="2.065" transform="translate(36.73 31.447) rotate(-31)" fill="#232d6a"/>
      <ellipse id="Ellipse_11201" data-name="Ellipse 11201" cx="2.624" cy="4.168" rx="2.624" ry="4.168" transform="matrix(0.934, 0.358, -0.358, 0.934, 19.776, 29.905)" fill="#232d6a"/>
      <ellipse id="Ellipse_11200" data-name="Ellipse 11200" cx="2.314" cy="3.053" rx="2.314" ry="3.053" transform="translate(31.013 30.13) rotate(48)" fill="#232d6a"/>
      <ellipse id="Ellipse_11220" data-name="Ellipse 11220" cx="2.732" cy="2.78" rx="2.732" ry="2.78" transform="translate(71.114 31.993)" fill="#232d6a"/>
      <ellipse id="Ellipse_11205" data-name="Ellipse 11205" cx="1.164" cy="2.742" rx="1.164" ry="2.742" transform="translate(6.598 32.45) rotate(20)" fill="#232d6a"/>
      <ellipse id="Ellipse_11208" data-name="Ellipse 11208" cx="2.503" cy="4.428" rx="2.503" ry="4.428" transform="matrix(0.966, 0.259, -0.259, 0.966, 11.052, 33.892)" fill="#232d6a"/>
      <ellipse id="Ellipse_11218" data-name="Ellipse 11218" cx="3.184" cy="3.274" rx="3.184" ry="3.274" transform="translate(61.643 36.092)" fill="#232d6a"/>
      <ellipse id="Ellipse_11248" data-name="Ellipse 11248" cx="0.952" cy="2.984" rx="0.952" ry="2.984" transform="translate(1.898 37.159) rotate(13)" fill="#232d6a"/>
      <ellipse id="Ellipse_11214" data-name="Ellipse 11214" cx="2.789" cy="3.197" rx="2.789" ry="3.197" transform="translate(42.083 37.295) rotate(50)" fill="#232d6a"/>
      <ellipse id="Ellipse_11207" data-name="Ellipse 11207" cx="2.6" cy="6.787" rx="2.6" ry="6.787" transform="translate(3.258 40.633)" fill="#232d6a"/>
      <ellipse id="Ellipse_11209" data-name="Ellipse 11209" cx="1.911" cy="2.795" rx="1.911" ry="2.795" transform="translate(18.105 41.486)" fill="#232d6a"/>
      <ellipse id="Ellipse_11216" data-name="Ellipse 11216" cx="3.242" cy="3.389" rx="3.242" ry="3.389" transform="translate(48.196 44.811)" fill="#232d6a"/>
      <ellipse id="Ellipse_11211" data-name="Ellipse 11211" cx="2.267" cy="3.215" rx="2.267" ry="3.215" transform="translate(10.138 46.157)" fill="#232d6a"/>
      <ellipse id="Ellipse_11222" data-name="Ellipse 11222" cx="2.818" cy="3.165" rx="2.818" ry="3.165" transform="translate(59.441 45.954)" fill="#232d6a"/>
      <ellipse id="Ellipse_11225" data-name="Ellipse 11225" cx="4.039" cy="4.285" rx="4.039" ry="4.285" transform="translate(34.874 48.2)" fill="#232d6a"/>
      <ellipse id="Ellipse_11245" data-name="Ellipse 11245" cx="2.358" cy="2.939" rx="2.358" ry="2.939" transform="translate(16.843 49.648)" fill="#232d6a"/>
      <ellipse id="Ellipse_11249" data-name="Ellipse 11249" cx="0.651" cy="3.124" rx="0.651" ry="3.124" transform="matrix(0.999, 0.035, -0.035, 0.999, 0.218, 50.757)" fill="#232d6a"/>
      <ellipse id="Ellipse_11226" data-name="Ellipse 11226" cx="2.492" cy="2.801" rx="2.492" ry="2.801" transform="translate(26.229 51.121)" fill="#232d6a"/>
      <ellipse id="Ellipse_11224" data-name="Ellipse 11224" cx="3.167" cy="3.498" rx="3.167" ry="3.498" transform="translate(43.934 55.669)" fill="#232d6a"/>
      <ellipse id="Ellipse_11247" data-name="Ellipse 11247" cx="1.004" cy="2.889" rx="1.004" ry="2.889" transform="translate(2.405 56.913) rotate(-7)" fill="#232d6a"/>
      <ellipse id="Ellipse_11233" data-name="Ellipse 11233" cx="2.149" cy="2.308" rx="2.149" ry="2.308" transform="translate(55.294 56.858)" fill="#232d6a"/>
      <ellipse id="Ellipse_11243" data-name="Ellipse 11243" cx="2.922" cy="3.98" rx="2.922" ry="3.98" transform="matrix(0.951, -0.309, 0.309, 0.951, 19.662, 58.22)" fill="#232d6a"/>
      <ellipse id="Ellipse_11244" data-name="Ellipse 11244" cx="1.888" cy="3.427" rx="1.888" ry="3.427" transform="matrix(0.966, -0.259, 0.259, 0.966, 13.265, 59.13)" fill="#232d6a"/>
      <ellipse id="Ellipse_11237" data-name="Ellipse 11237" cx="4.63" cy="5.511" rx="4.63" ry="5.511" transform="matrix(0.914, -0.407, 0.407, 0.914, 29.366, 61.94)" fill="#232d6a"/>
      <ellipse id="Ellipse_11246" data-name="Ellipse 11246" cx="1.74" cy="4.092" rx="1.74" ry="4.092" transform="translate(4.991 64.135) rotate(-17)" fill="#232d6a"/>
      <ellipse id="Ellipse_11250" data-name="Ellipse 11250" cx="1.155" cy="4.94" rx="1.155" ry="4.94" transform="matrix(0.966, -0.259, 0.259, 0.966, 0.629, 64.495)" fill="#232d6a"/>
      <ellipse id="Ellipse_11251" data-name="Ellipse 11251" cx="0.848" cy="2.334" rx="0.848" ry="2.334" transform="translate(5.416 72.678) rotate(-25)" fill="#232d6a"/>
      <ellipse id="Ellipse_11234" data-name="Ellipse 11234" cx="4.668" cy="5.074" rx="4.668" ry="5.074" transform="translate(46.231 65.997)" fill="#232d6a"/>
      <ellipse id="Ellipse_11254" data-name="Ellipse 11254" cx="2.388" cy="5.185" rx="2.388" ry="5.185" transform="translate(11.966 68.457) rotate(-31)" fill="#232d6a"/>
      <ellipse id="Ellipse_11252" data-name="Ellipse 11252" cx="1.723" cy="4.277" rx="1.723" ry="4.277" transform="translate(9.013 74.257) rotate(-30)" fill="#232d6a"/>
      <ellipse id="Ellipse_11242" data-name="Ellipse 11242" cx="3.475" cy="5.125" rx="3.475" ry="5.125" transform="matrix(0.788, -0.616, 0.616, 0.788, 27.558, 75.35)" fill="#232d6a"/>
      <ellipse id="Ellipse_11235" data-name="Ellipse 11235" cx="2.297" cy="2.878" rx="2.297" ry="2.878" transform="matrix(0.839, -0.545, 0.545, 0.839, 38.477, 76.531)" fill="#232d6a"/>
      <ellipse id="Ellipse_11239" data-name="Ellipse 11239" cx="2.698" cy="4.686" rx="2.698" ry="4.686" transform="matrix(0.809, -0.588, 0.588, 0.809, 21.744, 80.08)" fill="#232d6a"/>
      <ellipse id="Ellipse_11253" data-name="Ellipse 11253" cx="0.835" cy="3.296" rx="0.835" ry="3.296" transform="matrix(0.788, -0.616, 0.616, 0.788, 11.52, 83.005)" fill="#232d6a"/>
      <g id="_cb9f36ff" data-name="#cb9f36ff" transform="translate(7.612 2.448)">
        <ellipse id="Ellipse_11178" data-name="Ellipse 11178" cx="4.814" cy="3.023" rx="4.814" ry="3.023" transform="translate(37.554 0) rotate(1)" fill="#cb9f36"/>
        <ellipse id="Ellipse_11179" data-name="Ellipse 11179" cx="2.442" cy="1.369" rx="2.442" ry="1.369" transform="matrix(0.899, -0.438, 0.438, 0.899, 19.737, 7.974)" fill="#cb9f36"/>
        <ellipse id="Ellipse_11232" data-name="Ellipse 11232" cx="6.381" cy="6.259" rx="6.381" ry="6.259" transform="translate(39.568 23.637)" fill="#cb9f36"/>
        <ellipse id="Ellipse_11213" data-name="Ellipse 11213" cx="4.292" cy="4.672" rx="4.292" ry="4.672" transform="translate(18.191 36.282)" fill="#cb9f36"/>
        <ellipse id="Ellipse_11231" data-name="Ellipse 11231" cx="2.372" cy="2.749" rx="2.372" ry="2.749" transform="translate(61.814 41.88)" fill="#cb9f36"/>
        <ellipse id="Ellipse_11228" data-name="Ellipse 11228" cx="2.3" cy="4.468" rx="2.3" ry="4.468" transform="translate(0 51.582)" fill="#cb9f36"/>
        <ellipse id="Ellipse_11229" data-name="Ellipse 11229" cx="1.835" cy="3.231" rx="1.835" ry="3.231" transform="translate(13.766 66.99) rotate(-36)" fill="#cb9f36"/>
        <ellipse id="Ellipse_11255" data-name="Ellipse 11255" cx="1.918" cy="3.437" rx="1.918" ry="3.437" transform="matrix(0.719, -0.695, 0.695, 0.719, 8.657, 80.046)" fill="#cb9f36"/>
      </g>
    </g>
  </g>
</svg>
