<svg xmlns="http://www.w3.org/2000/svg" xmlns:xlink="http://www.w3.org/1999/xlink" width="156.764" height="108.349" viewBox="0 0 156.764 108.349">
  <defs>
    <linearGradient id="linear-gradient" x1="1" y1="1" x2="-0.039" y2="0.419" gradientUnits="objectBoundingBox">
      <stop offset="0" stop-color="#1f7c69"/>
      <stop offset="1" stop-color="#ceae75"/>
    </linearGradient>
  </defs>
  <g id="sites-logo_T2" transform="translate(-21.474 -17.703)">
    <path id="Union_7" data-name="Union 7" d="M55.819,83.533c-.159-1.993-.119-4-.462-5.979A22.632,22.632,0,0,0,52.9,70.422a27.821,27.821,0,0,0-5.308-6.449c.1-.572.05-1.238.472-1.693.512-.6,1.115-1.106,1.675-1.656a42.391,42.391,0,0,1,4.968,5.462,11.291,11.291,0,0,0-1.7,1.744,6.986,6.986,0,0,0-.124,1.453,6.986,6.986,0,0,1,.124-1.453,11.291,11.291,0,0,1,1.7-1.744,25.612,25.612,0,0,1,4.51,11.039,58.743,58.743,0,0,1,.462,6.032,1.952,1.952,0,0,1-1.564,2.09,1.721,1.721,0,0,1-.373.041A1.949,1.949,0,0,1,55.819,83.533Zm7.871.664c-.893-.973-.565-2.4-.718-3.6A29.5,29.5,0,0,0,57.85,64.606c.1-.929,0-1.874.178-2.79a5.613,5.613,0,0,1,1.5-1.44,32.987,32.987,0,0,1,6.805,14.96,22.51,22.51,0,0,1,.391,5.827,6.3,6.3,0,0,1-.953,3.234,1,1,0,0,1-.834.407A1.71,1.71,0,0,1,63.69,84.2ZM41.8,84.259c-.865-.788-.589-2.069-.731-3.106a7.788,7.788,0,0,0-1.837-4.9c.062-1.207.078-2.415.077-3.625,0,1.209-.015,2.417-.077,3.625q-2.622-2.6-5.223-5.226a31.548,31.548,0,0,1-4.551-5.869c.025-.567-.064-1.243.38-1.682.638-.7,1.347-1.329,2.029-1.983a27.318,27.318,0,0,0,3.2,4.907h0a14.666,14.666,0,0,0,2.123,2.258,1.851,1.851,0,0,0,2.094-.139v0a2.03,2.03,0,0,0,.519-1.386c-.042-.769-.671-1.288-1.152-1.817a24.442,24.442,0,0,1,2.8-2.7c1.075,1.17,2.228,2.267,3.349,3.395l0,.025a30,30,0,0,1,4.28,4.746,18.763,18.763,0,0,1,3.17,10.165c-.007,1.082.416,2.4-.481,3.254a1.959,1.959,0,0,1-3.183-.713,21.172,21.172,0,0,1-.256-3.136,14.733,14.733,0,0,0-3.662-8.968c0-.028,0-.055,0-.083,0,.028,0,.055,0,.083a2.4,2.4,0,0,0-1.971-1.058,1.706,1.706,0,0,0-1.285,2.544c.381.534.913.938,1.31,1.461a11.287,11.287,0,0,1,2.225,6.825c-.006.923.312,1.965-.256,2.788a1.915,1.915,0,0,1-1.6.824A1.815,1.815,0,0,1,41.8,84.259Zm-6.586-1.844a10.371,10.371,0,0,1-2.183-2.18,63.713,63.713,0,0,1-3.458-5.524A11.617,11.617,0,0,1,31.135,73c1.606,1.625,3.229,3.237,4.848,4.851a4.133,4.133,0,0,1,1.621,3.28,1.689,1.689,0,0,1-1.671,1.473A1.418,1.418,0,0,1,35.209,82.415Zm34.923-5.667a36.036,36.036,0,0,0-1.691-7.156c.171-1.683.053-3.374.1-5.061,0-.041,0-.083,0-.125,0,.042,0,.083,0,.125-.044,1.685.072,3.378-.1,5.061a43.8,43.8,0,0,0-8.019-13.369c-1.809-1.993-3.8-3.816-5.655-5.76a1.932,1.932,0,0,1,2.74-2.721c1.5,1.473,2.972,2.968,4.458,4.452A40.85,40.85,0,0,1,68.7,60.542a39.765,39.765,0,0,1,5.579,15.594,2.135,2.135,0,0,1-1.943,2.387c-.066.006-.13.009-.2.009A2.067,2.067,0,0,1,70.132,76.748ZM68.543,64.094c0-.541-.026-1.085-.026-1.628C68.518,63.009,68.543,63.552,68.543,64.094ZM77.7,75.721A47.961,47.961,0,0,0,74.83,64.993a20.2,20.2,0,0,0,.134-2.505,20.2,20.2,0,0,1-.134,2.505A45.832,45.832,0,0,0,68.457,54.2c.061-.682.085-1.366.084-2.05,0,.684-.023,1.368-.084,2.05-2.562-3.159-5.6-5.877-8.421-8.8a9.937,9.937,0,0,1,.2-1.815,12.856,12.856,0,0,1,1.634-1.733c1.135.969,2.135,2.08,3.206,3.118,1.327,1.338,2.683,2.647,3.981,4.014-.683.408-.532,1.261-.545,1.934.013-.673-.137-1.526.545-1.934a44.679,44.679,0,0,1,6.014,7.981,19.676,19.676,0,0,0-.146,2.629,19.676,19.676,0,0,1,.146-2.629,46.868,46.868,0,0,1,6.372,17.6,2.425,2.425,0,0,1-.1,1.564,1.908,1.908,0,0,1-1.746.96A1.818,1.818,0,0,1,77.7,75.721Zm8.87.312a1.943,1.943,0,0,1-1.708-1.713,58.7,58.7,0,0,0-2.014-8.743c.021-.22.038-.441.053-.661-.015.221-.032.441-.053.661a53.438,53.438,0,0,0-4.982-10.644c.011-.062.021-.125.03-.187-.009.063-.019.126-.03.187a49.064,49.064,0,0,0-5.648-7.564c.1-.574.035-1.252.47-1.706.523-.6,1.134-1.111,1.7-1.663a54.955,54.955,0,0,1,5.981,7.613l-.131.128.131-.128a49.444,49.444,0,0,1,3.6,6.475c-.163-.139-.326-.276-.49-.408l-.05.058.05-.058c.164.132.327.269.49.408a53.934,53.934,0,0,1,4.73,15.63,1.994,1.994,0,0,1-1.892,2.332A1.67,1.67,0,0,1,86.57,76.033ZM24.278,68.55h0a5.226,5.226,0,0,1-2.131-1.484,39.443,39.443,0,0,1-3.855-11.338,38.58,38.58,0,0,1,6.3-28.523,21.419,21.419,0,0,1,.1,2.307,21.419,21.419,0,0,0-.1-2.307,37.2,37.2,0,0,1,6.053-6.8c.159,1.733-.093,3.479.166,5.2l0,.02a2.542,2.542,0,0,0-.837,1.457,1.71,1.71,0,0,0,1.917,1.843,2.282,2.282,0,0,0,1.375-.879A30.179,30.179,0,0,1,42.45,21.21a30.8,30.8,0,0,1,6.715-2.354,14.28,14.28,0,0,0-1.349,1.511,14.452,14.452,0,0,1,1.349-1.51,33.1,33.1,0,0,1,6.977-.821h0a32.741,32.741,0,0,1,6.418.594,4.215,4.215,0,0,0-.784,1.079,7.637,7.637,0,0,0-.072,1.106,7.637,7.637,0,0,1,.072-1.106,4.215,4.215,0,0,1,.784-1.079,30.287,30.287,0,0,1,6.871,2.354,4.2,4.2,0,0,0-.827,1.133c-.1.887-.04,1.786-.173,2.671a30.009,30.009,0,0,0-6.71-2.351c0-.085,0-.17,0-.256,0,.085,0,.171,0,.256a31.262,31.262,0,0,0-6.394-.562,2,2,0,0,0-2.152,1.252,1.8,1.8,0,0,0,1.316,2.2c.428.113.865.181,1.3.256-.438-.075-.873-.143-1.3-.258a25.24,25.24,0,0,1,9.856,1.437h0a25.191,25.191,0,0,1,5.758,3.008A7.539,7.539,0,0,0,68.236,31.6a7.539,7.539,0,0,1,1.869-1.828,32.662,32.662,0,0,1,4.011,3.583c1.868,1.874,3.752,3.731,5.6,5.625-.1.073-.195.148-.29.224.1-.076.192-.151.29-.224q1.393,1.582,2.777,3.178a74.461,74.461,0,0,1,4.685,6.656c-.9,1-2.185,1.742-2.6,3.087A57.843,57.843,0,0,0,76.95,41.722c.391-.467.794-.927,1.219-1.365-.426.438-.83.9-1.221,1.366-1.519-1.617-3.12-3.155-4.678-4.734A10.5,10.5,0,0,1,72.44,35a10.5,10.5,0,0,0-.17,1.991A40.359,40.359,0,0,0,68.1,33.118c0-.016,0-.032,0-.048,0,.016,0,.032,0,.048a20.319,20.319,0,0,0-6.489-3.181,3.32,3.32,0,0,1,.293-.594,3.32,3.32,0,0,0-.293.594,20.259,20.259,0,0,0-6.287-.731c.048-.754-.089-1.571,0-2.334-.084.763.051,1.581,0,2.335a20.509,20.509,0,0,0-7.913,1.985c-.029-.758-.122-1.539-.122-2.31,0,.771.092,1.552.122,2.31v.019a20.936,20.936,0,0,0-6.356,4.853l0,.022a19.76,19.76,0,0,0-4.739,11.832,20.66,20.66,0,0,0,5.133,14.7,24.442,24.442,0,0,0-2.8,2.7,23.89,23.89,0,0,1-1.915-29.985,2.253,2.253,0,0,0,.63-1.828,1.7,1.7,0,0,0-2.051-1.329c-.921.22-1.355,1.163-1.859,1.867A27.416,27.416,0,0,0,31.863,61.5c-.684.654-1.391,1.283-2.029,1.983-.444.439-.354,1.115-.38,1.682a31.377,31.377,0,0,1-4.4-14.864A1.976,1.976,0,0,0,23.5,48.357c0-1.111,0-2.225-.022-3.336a2.294,2.294,0,0,0,1.483-.433,2.291,2.291,0,0,0,.649-1.393,31.241,31.241,0,0,1,3.215-8.968A2.349,2.349,0,0,0,29.2,32.9a1.716,1.716,0,0,0-1.512-1.53,1.787,1.787,0,0,0-1.659.848,19.747,19.747,0,0,0-1.212,2.367,19.806,19.806,0,0,1-.148-2.649,19.806,19.806,0,0,0,.148,2.649,34.655,34.655,0,0,0-2.645,8.348,1.871,1.871,0,0,0,1.3,2.085c.022,1.111.022,2.225.022,3.336a1.835,1.835,0,0,0-1.867,1.75,35.471,35.471,0,0,0,2.749,12.73q-.038.356-.061.713.024-.357.061-.713A36.137,36.137,0,0,0,31.135,73a11.617,11.617,0,0,0-1.566,1.705C28.3,72.306,26.775,69.837,24.278,68.55Zm53.91-28.213c.049-.051.1-.1.152-.154C78.289,40.234,78.238,40.286,78.189,40.337ZM41.053,36.064a23.467,23.467,0,0,1-.159-4.389A23.309,23.309,0,0,0,41.053,36.064Zm-7.794-4.351c0-.844.045-1.693.043-2.539C33.3,30.02,33.258,30.869,33.259,31.713Zm7.634-.086a2.011,2.011,0,0,1,.562-1.324,27.705,27.705,0,0,1,6.157-3.415c.777-.219,1.611-.716,1.665-1.614a1.727,1.727,0,0,0-2.171-1.855A27.839,27.839,0,0,0,41.439,26.2a6.942,6.942,0,0,1-.048-2.858,6.918,6.918,0,0,0,.048,2.858c-.89.656-2.29,1.192-2.281,2.5a1.749,1.749,0,0,0,2.3,1.608A2.021,2.021,0,0,0,40.892,31.627Zm14.9-6.044ZM47.678,23.05a3.429,3.429,0,0,1-.572.369,3.352,3.352,0,0,0,.574-.369c.118-.762-.057-1.554.056-2.312C47.622,21.5,47.8,22.288,47.678,23.05Zm7.69-3.941-.013.085.013-.085q.033-.077.071-.15Q55.4,19.032,55.368,19.109Zm37.3,54.947c-.548-.283-.606-.956-.684-1.494-.125-1-.39-1.978-.509-2.975a59.536,59.536,0,0,0-6.9-17.687c.42-1.343,1.7-2.091,2.6-3.087a60.782,60.782,0,0,1,4.476,8.4l-.005.051c0,.064-.009.128-.013.192,0-.064.008-.128.013-.192a1.963,1.963,0,0,0,1.683.623,1.718,1.718,0,0,0,1.34-2.155c-.322-.974-.868-1.852-1.222-2.81a.5.5,0,0,1,.672-.539c.7.207,1.393.429,2.108.593l0,.033c-.061,1.475-.076,2.951-.076,4.428,0-1.476.015-2.953.076-4.428a3.38,3.38,0,0,1,2.182,2.539,33.692,33.692,0,0,1,1.065,7.222c.212,2.523.5,5.041.642,7.571-.007.532.12,1.2-.339,1.594a1.2,1.2,0,0,1-1.628.055c-.523-.446-.41-1.2-.523-1.812a30.014,30.014,0,0,0-.773-3.77,2.612,2.612,0,0,0-.71-1.073c.022-.963.028-1.927.028-2.89,0,.963-.007,1.927-.028,2.89a1.968,1.968,0,0,0-2.038.146,1.844,1.844,0,0,0-.5,2.025,22.718,22.718,0,0,1,.809,5.643,1.17,1.17,0,0,1-1.188,1.068A1.031,1.031,0,0,1,92.668,74.056Zm-1.1-8.128c0-1.542-.033-3.085-.034-4.627C91.538,62.843,91.571,64.386,91.571,65.928Zm11.847,2.41c-.269-2.923-.523-5.847-.792-8.77-.117-1.225-.363-2.428-.6-3.628a1.551,1.551,0,0,1,1.18-1.775,7.01,7.01,0,0,1,3.695.822,3.41,3.41,0,0,1,1.539,3.325,37.039,37.039,0,0,1-.853,7,9.031,9.031,0,0,1-2.034,3.813,1.111,1.111,0,0,1-.831.352A1.273,1.273,0,0,1,103.418,68.338ZM51.065,57.1a24.785,24.785,0,0,1,2.8-2.685,76.717,76.717,0,0,1,5.661,5.957,5.6,5.6,0,0,0-1.5,1.44c-.175.916-.075,1.861-.177,2.79C55.975,61.778,53.428,59.509,51.065,57.1Zm-6.733,3.591A17.145,17.145,0,0,1,39.72,48.32a16.265,16.265,0,0,1,7.886-13.313,7.729,7.729,0,0,1,.084.787,7.729,7.729,0,0,0-.084-.787l0-.013A16.826,16.826,0,0,1,56.6,32.6a7.979,7.979,0,0,0-1.217,1.541,12.853,12.853,0,0,0-.074,2.214,12.7,12.7,0,0,1,.076-2.214A7.843,7.843,0,0,1,56.6,32.6a16.8,16.8,0,0,1,8.706,2.742A23.057,23.057,0,0,0,63.037,37.5a23.445,23.445,0,0,1,2.269-2.157A18.652,18.652,0,0,1,68.5,38.071c1.966,1.976,3.972,3.914,5.9,5.93-.571.552-1.181,1.068-1.7,1.663-.434.453-.369,1.132-.471,1.706-1.313-1.464-2.739-2.823-4.118-4.221-1.834-1.731-3.437-3.764-5.661-5.025h0a12.7,12.7,0,0,0-14.6,1.478v0A12.173,12.173,0,0,0,43.9,46.526a13.521,13.521,0,0,0,1.956,9.86,31.365,31.365,0,0,0,3.879,4.239c-.559.55-1.162,1.059-1.676,1.656-.423.455-.367,1.121-.47,1.691C46.51,62.874,45.4,61.8,44.332,60.694ZM47.7,37.809c0-.384.008-.768.008-1.152C47.712,37.041,47.7,37.425,47.7,37.809Zm1.35,17.178a9.976,9.976,0,0,1-1.713-8.275,8.968,8.968,0,0,1,7.17-6.643c.208.028.417.058.627.091-.21-.034-.418-.064-.627-.091a9.276,9.276,0,0,1,7.362,1.788,12.719,12.719,0,0,0-1.634,1.733,9.937,9.937,0,0,0-.2,1.815A5.63,5.63,0,0,0,55.3,43.842h0a5.575,5.575,0,0,0-3.787,2.665,5.439,5.439,0,0,0,0,5.2,12.566,12.566,0,0,0,2.349,2.707,24.785,24.785,0,0,0-2.8,2.685A23.671,23.671,0,0,1,49.054,54.987ZM54.907,43.46ZM11.062,43.5A2.651,2.651,0,0,1,10.986,42,47.8,47.8,0,0,1,13.861,31.7a1.745,1.745,0,0,0-.378-2.022,1.925,1.925,0,0,0-1.791-.373c0-.145,0-.291-.006-.436,0,.145.006.291.006.436a2.614,2.614,0,0,0-1.03,1.175c-.65,1.627-1.107,3.322-1.641,4.985a1.894,1.894,0,0,1-2.54,1.059,2.281,2.281,0,0,1-1.1-2.736A52.686,52.686,0,0,1,13.211,18s0,0,0,0a52.967,52.967,0,0,1,6.866-7.75c.094,1.773-.135,3.561.116,5.327l0,.043a49.2,49.2,0,0,0-5.891,7.714,1.722,1.722,0,0,0,.99,2.535,1.792,1.792,0,0,0,2.031-.927,43.274,43.274,0,0,1,2.72-3.871,46.035,46.035,0,0,1,9.049-8.825c.013.25.017.5.017.753,0-.251,0-.5-.017-.753A46.031,46.031,0,0,1,36.58,7.765a1.968,1.968,0,0,1,2.354.475,1.938,1.938,0,0,1,.131,2.394c-.526.782-1.718.781-2.126,1.676a1.937,1.937,0,0,0,.278,2.029c-.093.974-.141,1.954-.143,2.934,0-.98.051-1.961.143-2.934a2.073,2.073,0,0,0,1.892.305,46.371,46.371,0,0,1,4.405-1.8,1.941,1.941,0,0,1,1.071,3.731,36.639,36.639,0,0,0-7.375,3.63l0,.017a37.723,37.723,0,0,0-6.407,5.385c-.259-1.725-.009-3.471-.168-5.2q1.207-1.083,2.5-2.066A1.7,1.7,0,0,0,31.3,15.476,23.123,23.123,0,0,0,29.24,17.05a10.256,10.256,0,0,1-.164-2.022,10.256,10.256,0,0,0,.164,2.022l0,.031a42.341,42.341,0,0,0-9.021,10.556c-.36-2.173-.022-4.383-.178-6.573.154,2.19-.183,4.4.176,6.573l.007.038a41.64,41.64,0,0,0-5.477,15.346,1.92,1.92,0,0,1-1.676,1.673,1.744,1.744,0,0,1-.241.017A1.968,1.968,0,0,1,11.062,43.5ZM75.427,29.82a26.1,26.1,0,0,0-7-5l0-.029c.134-.885.075-1.784.173-2.671a4.2,4.2,0,0,1,.827-1.133,29.857,29.857,0,0,1,8.8,6.6,1.853,1.853,0,0,1-1.289,2.886,1.27,1.27,0,0,1-.156.009A2.043,2.043,0,0,1,75.427,29.82ZM.38,26.971a2.6,2.6,0,0,1-.11-2.51,50.839,50.839,0,0,1,5.065-9.1c.886-1.307,1.892-2.523,2.849-3.775.2,2-.038,4.014.18,6.014a53.177,53.177,0,0,0-4.7,8.9c-.265.653-.656,1.4-1.408,1.571a1.333,1.333,0,0,1-.251.025A2.12,2.12,0,0,1,.38,26.971Zm7.8-15.39a54.586,54.586,0,0,1,6.263-6.352,42.788,42.788,0,0,0,.173,4.82l.006.022A52.321,52.321,0,0,0,8.364,17.6C8.147,15.6,8.39,13.581,8.185,11.581Zm11.892-1.338a51.99,51.99,0,0,1,9.687-7.112,1.942,1.942,0,1,1,1.809,3.433A50.852,50.852,0,0,0,20.191,15.57C19.94,13.8,20.169,12.016,20.077,10.243ZM14.449,5.229A38.154,38.154,0,0,1,21.289.268a1.744,1.744,0,0,1,2.437.547A2.113,2.113,0,0,1,22.8,3.4a62.074,62.074,0,0,0-8.172,6.65A42.033,42.033,0,0,1,14.449,5.229Z" transform="translate(69.78 17.703)" fill="url(#linear-gradient)"/>
    <g id="_464748ff" data-name="#464748ff" transform="translate(21.474 69.814)">
      <path id="Path_122668" data-name="Path 122668" d="M222.632,277.96c.495,0,.989,0,1.484.012.026,3.274,0,6.549.012,9.823-.008.392.092.927.581.953a18.714,18.714,0,0,0,2.617,0c.388-.016.557-.4.555-.741.06-1.724-.032-3.452.046-5.176.491,0,.983,0,1.476.018.016,1.716.01,3.432.006,5.148a2.041,2.041,0,0,1-.923,1.964,8.05,8.05,0,0,1-2.783.228c-.849-.028-1.844.136-2.535-.481a2.959,2.959,0,0,1-.557-2.134C222.63,284.367,222.588,281.164,222.632,277.96Z" transform="translate(-182.337 -277.96)" fill="#464748"/>
      <path id="Path_122669" data-name="Path 122669" d="M248.848,285.069c.523-.008,1.045-.008,1.566.008.008.543.01,1.087.012,1.632-.527.026-1.055.028-1.582.016C248.838,286.172,248.838,285.622,248.848,285.069Z" transform="translate(-203.315 -283.641)" fill="#464748"/>
      <path id="Path_122670" data-name="Path 122670" d="M116.716,302.176a4.231,4.231,0,0,1,6.305-.374c.971,1.113.979,2.671.991,4.065.088.825,1.059,1.021,1.74,1,.595-.022,1.39.148,1.76-.457.443-.707.2-1.582.28-2.367a3.342,3.342,0,0,1,1.68-3.086,3.761,3.761,0,0,1,4.527.891,5.735,5.735,0,0,1,.509,4.033,2.961,2.961,0,0,1-1.73,2.233,4.019,4.019,0,0,1-4.141-.669c-.867,1.013-2.311.839-3.5.8a1.812,1.812,0,0,1-1.486-.947,2.239,2.239,0,0,1-1.712.939c-1.4.1-2.8-.036-4.189.062-.875.11-1.005,1.484-.354,1.94a5.251,5.251,0,0,0,1.928.216c.006.458.006.921,0,1.382a4.568,4.568,0,0,1-3.238-.7c-1.153-1.2-.753-3.664.959-4.129,1.52-.356,3.11.04,4.639-.234.669-.16.7-.959.7-1.514.006-1.089-.162-2.455-1.237-3.019a2.956,2.956,0,0,0-3.39.787c-.348-.282-.7-.565-1.043-.851m13.694-.04a2.113,2.113,0,0,0-1.1,1.92,3.884,3.884,0,0,0,.384,2.265,2.088,2.088,0,0,0,2.435.5,1.8,1.8,0,0,0,.955-1.538,4.069,4.069,0,0,0-.37-2.569A1.941,1.941,0,0,0,130.41,302.136Z" transform="translate(-96.616 -296.044)" fill="#464748"/>
      <path id="Path_122671" data-name="Path 122671" d="M263.136,302.273q.739-.015,1.484,0c.034,1.516,0,3.031.014,4.547a1.2,1.2,0,0,0,.507,1.133,4.079,4.079,0,0,0,1.938.27c.4-.026.873.05,1.2-.242a1.673,1.673,0,0,0,.162-.757c.028-1.656-.042-3.312.036-4.966.495,0,.991.01,1.486.042-.016,1.7,0,3.408-.008,5.112a2.491,2.491,0,0,1-.563,1.738,2.765,2.765,0,0,1-1.922.473c-.967-.02-2.042.162-2.845-.515.02,1.089.12,2.333-.633,3.23a3.457,3.457,0,0,1-2.909.853q-.009-.688,0-1.376a3.12,3.12,0,0,0,1.508-.266,1.586,1.586,0,0,0,.531-1.333C263.134,307.567,263.1,304.92,263.136,302.273Z" transform="translate(-213.102 -297.392)" fill="#464748"/>
      <path id="Path_122672" data-name="Path 122672" d="M138.472,347.4a8.8,8.8,0,0,1,1.592,0c0,.509.02,1.021-.024,1.53-.451.254-1.059.054-1.57.068Q138.476,348.195,138.472,347.4Z" transform="translate(-115.044 -333.464)" fill="#464748"/>
      <path id="Path_122673" data-name="Path 122673" d="M295.644,347.08c.523,0,1.043,0,1.566.028,0,.551,0,1.1-.026,1.65-.519,0-1.035,0-1.55-.012C295.624,348.189,295.624,347.635,295.644,347.08Z" transform="translate(-240.734 -333.24)" fill="#464748"/>
      <path id="Path_122674" data-name="Path 122674" d="M123.412,381.144c.661-.02,1.321-.022,1.982-.016.048,4.073.024,8.145.012,12.216a19.724,19.724,0,0,1-2.006-.024C123.412,389.261,123.388,385.2,123.412,381.144Z" transform="translate(-102.992 -360.469)" fill="#464748"/>
      <path id="Path_122675" data-name="Path 122675" d="M295.715,381.137c.665-.01,1.328-.008,1.992.014q.021,6.094,0,12.19c-.667.022-1.333.024-2,.01C295.7,389.28,295.685,385.208,295.715,381.137Z" transform="translate(-240.789 -360.474)" fill="#464748"/>
      <path id="Path_122676" data-name="Path 122676" d="M30.046,382.771c.617-.018,1.235-.018,1.854-.008q.018.952,0,1.908-.931.024-1.862-.008C30.036,384.031,30.036,383.4,30.046,382.771Z" transform="translate(-28.323 -361.773)" fill="#464748"/>
      <path id="Path_122677" data-name="Path 122677" d="M41.723,382.766c.619-.012,1.237-.012,1.856,0,.006.631.008,1.263,0,1.9-.619.02-1.239.02-1.86.006C41.711,384.037,41.711,383.4,41.723,382.766Z" transform="translate(-37.661 -361.774)" fill="#464748"/>
      <path id="Path_122678" data-name="Path 122678" d="M193.017,386.338q.907-.006,1.814-.008a15.853,15.853,0,0,1,.014,1.926c-.613.006-1.225,0-1.838-.01C192.987,387.609,192.989,386.973,193.017,386.338Z" transform="translate(-158.651 -364.631)" fill="#464748"/>
      <path id="Path_122679" data-name="Path 122679" d="M204.64,386.365a18.478,18.478,0,0,1,1.854-.026q.039.952.006,1.908c-.613.01-1.225.01-1.836.006C204.644,387.622,204.642,386.993,204.64,386.365Z" transform="translate(-167.965 -364.628)" fill="#464748"/>
      <path id="Path_122680" data-name="Path 122680" d="M26.805,398.573c.669-.028,1.34-.028,2.008-.006.014,1.96,0,3.922.006,5.883-.008.4.062.979.581,1.009a15.213,15.213,0,0,0,2.178-.012,1.391,1.391,0,0,0,.813-1.392,5.413,5.413,0,0,1,.643-3.164,3.157,3.157,0,0,1,2.385-1.346,4.036,4.036,0,0,1,3.464,1,4.949,4.949,0,0,1,.869,3.8,3.208,3.208,0,0,1-1.92,2.775,4.529,4.529,0,0,1-4.553-.695,2.588,2.588,0,0,1-2.092.869,17.02,17.02,0,0,1-3.228-.128c-.621-.106-.9-.695-1.1-1.217-1.616,1.131-4.353.691-5.112-1.267a4.1,4.1,0,0,1,.967-4.505c1.171-.887,2.719-.635,4.089-.669,0-.312,0-.623.006-.933m-2.911,3.192a2.278,2.278,0,0,0-.1,2.445,1.86,1.86,0,0,0,2.6.054c.611-.857.368-1.974.408-2.957-.961.064-2.11-.244-2.9.459m11.617-.38c-.8.212-1.059,1.113-1.1,1.848a2.63,2.63,0,0,0,.555,2.036,1.86,1.86,0,0,0,2.447-.212,3.5,3.5,0,0,0,.172-2.8A1.635,1.635,0,0,0,35.511,401.384Z" transform="translate(-21.474 -374.405)" fill="#464748"/>
      <path id="Path_122681" data-name="Path 122681" d="M144.722,403.23c1.654.11,3.482-.354,4.988.539,1.077.657,1.215,2.052,1.169,3.2.038.695-.22,1.7.569,2.068a8.74,8.74,0,0,0,2.687.162c.541.008.649-.621.647-1.037.036-1.522,0-3.045.016-4.567.665-.042,1.33-.056,2-.034.048,1.532-.01,3.065.028,4.6a1.084,1.084,0,0,0,1.105,1.019,22.07,22.07,0,0,0,2.387.014.58.58,0,0,0,.539-.595c.122-1.2.024-2.413.06-3.618q1-.039,2-.008c.05,1.143-.042,2.293.05,3.434.166.879,1.279.9,1.974.749.36-.058.491-.451.5-.767.062-1.141-.008-2.285.04-3.426.663-.008,1.328-.006,1.99.02.04,1.133-.048,2.271.044,3.4.158.9,1.305.947,2.006.745.461-.176.43-.753.463-1.157.026-1.46,0-2.921.01-4.383q1-.051,2-.026c.032,1.736.01,3.472.014,5.21-.008.733-.138,1.668-.9,2a5.5,5.5,0,0,1-2.559.2,1.953,1.953,0,0,1-1.3-.829c-.661,1.057-2.048.891-3.12.847a1.946,1.946,0,0,1-1.428-.845c-.687,1.077-2.076.845-3.168.875-1.019.008-2.293.138-2.943-.833-.763,1.029-2.142.8-3.258.835-1.013.032-2.255.028-2.827-.971a2.182,2.182,0,0,1-1.79.931c-1.6.072-3.212.022-4.817.022-.008-.593-.008-1.187.008-1.78,1.406-.056,2.821.07,4.223-.07.775-.088.759-.991.749-1.58-.02-.781.16-1.854-.663-2.3-1.111-.454-2.347-.15-3.51-.258C144.688,404.418,144.69,403.823,144.722,403.23Z" transform="translate(-119.374 -378.128)" fill="#464748"/>
      <path id="Path_122682" data-name="Path 122682" d="M71.02,483.786q2.135-2.514,4.275-5.026a11.853,11.853,0,0,1,1.44,1.207c-1.013,1.179-2.018,2.367-3.031,3.548,1.241.07,2.737.03,3.612,1.075.877,1.063.545,2.533.645,3.8.056.627.763.869,1.307.855.675-.03,1.554.224,2.024-.417.436-.765.178-1.68.322-2.509A3.218,3.218,0,0,1,83.5,483.6a4.888,4.888,0,0,1,3.68.084,3.47,3.47,0,0,1,1.766,3.156c.072.681-.14,1.456.286,2.052.465.547,1.255.3,1.876.374.525.014,1.422.106,1.436-.647.078-1.66,0-3.326.036-4.986.663-.028,1.327-.032,1.99-.018.042,1.666.008,3.334.022,5a2.608,2.608,0,0,1-.645,2.056c-.761.563-1.764.348-2.645.4-1.121.058-2.421.032-3.2-.913a4.485,4.485,0,0,1-4.215.865,3.637,3.637,0,0,1-1.454-.827c-.867,1.043-2.369.967-3.582.787a1.742,1.742,0,0,1-1.285-.889,2.538,2.538,0,0,1-2.287.969c-1.74.01-3.48-.016-5.22.018a2.316,2.316,0,0,1-2.1-.865,2.689,2.689,0,0,1-2.489.851c-1.043-.032-2.227.208-3.1-.509a4.174,4.174,0,0,1-1.189,3.18,5.269,5.269,0,0,1-4.3.953,3.778,3.778,0,0,1-3.007-2.281,6.51,6.51,0,0,1,.811-5.472c.609.226,1.211.466,1.812.711-.635,1.205-1.207,2.649-.657,4a2.583,2.583,0,0,0,3.724.873,2.085,2.085,0,0,0,.777-1.718c.04-1.9-.032-3.794.034-5.69.659,0,1.315,0,1.974.006.05,1.069-.028,2.142.038,3.212a1.084,1.084,0,0,0,1.075.891,15.852,15.852,0,0,0,2.2.01c.469-.1.491-.657.517-1.041.038-1.524-.018-3.049.03-4.571q.994-.036,1.99.006c.024,1.528-.018,3.056.016,4.581a1.124,1.124,0,0,0,1.237,1.027c1.74.044,3.48.038,5.22.026.457,0,1.1-.1,1.2-.643a8.262,8.262,0,0,0,.01-2.2,1.43,1.43,0,0,0-1.41-1.077c-1.147-.078-2.3.022-3.446-.056,0-.5,0-1,0-1.5M84.363,485.3c-.919.627-.877,1.952-.687,2.927.2,1.48,2.661,1.6,3.1.222a3.711,3.711,0,0,0-.11-2.6A1.714,1.714,0,0,0,84.363,485.3Z" transform="translate(-47.138 -438.554)" fill="#464748"/>
      <path id="Path_122683" data-name="Path 122683" d="M242.94,484.394c.6,0,1.205,0,1.808,0a18.066,18.066,0,0,1,.016,1.92c-.617.008-1.231.008-1.846-.008C242.9,485.665,242.9,485.029,242.94,484.394Z" transform="translate(-198.571 -443.057)" fill="#464748"/>
      <path id="Path_122684" data-name="Path 122684" d="M254.6,484.4c.619-.01,1.235-.008,1.854.02,0,.627,0,1.257-.01,1.886-.615.014-1.227.016-1.84.012C254.579,485.677,254.581,485.037,254.6,484.4Z" transform="translate(-207.911 -443.059)" fill="#464748"/>
      <path id="Path_122685" data-name="Path 122685" d="M72.9,496.4c.649.006,1.3-.03,1.948.02a5.949,5.949,0,0,1,.082,1.9c-.687.006-1.374.006-2.058-.014A18.382,18.382,0,0,1,72.9,496.4Z" transform="translate(-62.568 -452.658)" fill="#464748"/>
      <path id="Path_122686" data-name="Path 122686" d="M270.428,502.37a4.187,4.187,0,0,1,4.471-.685,3.411,3.411,0,0,1,1.858,3.2c.032,1.6.014,3.2.01,4.8a2.8,2.8,0,0,1-1.512,2.731c-1.392.577-2.939.27-4.4.338-.016-.589-.018-1.175-.02-1.762a29.692,29.692,0,0,0,3.077-.13c.741-.214.823-1.091.867-1.734a11.317,11.317,0,0,1-3.6-.28,2.847,2.847,0,0,1-1.7-2.395,4.927,4.927,0,0,1,.951-4.087M271.673,504a3.068,3.068,0,0,0,.08,2.829c.8.757,2.01.431,3,.5a10.19,10.19,0,0,0-.258-3.4A1.62,1.62,0,0,0,271.673,504Z" transform="translate(-219.757 -456.614)" fill="#464748"/>
      <path id="Path_122687" data-name="Path 122687" d="M110.59,547.874c.615-.006,1.229-.006,1.844,0,.014.631.016,1.263.012,1.9-.619.026-1.237.026-1.856.018Q110.56,548.831,110.59,547.874Z" transform="translate(-92.735 -493.826)" fill="#464748"/>
      <path id="Path_122688" data-name="Path 122688" d="M122.244,547.886a14.481,14.481,0,0,1,1.864.014c0,.627,0,1.253-.016,1.88-.609.01-1.219.012-1.828.01Q122.213,548.838,122.244,547.886Z" transform="translate(-102.058 -493.821)" fill="#464748"/>
    </g>
  </g>
</svg>
