<svg xmlns="http://www.w3.org/2000/svg" width="134.775" height="98.256" viewBox="0 0 134.775 98.256">
  <g id="sites-waqfi_Logo-01" transform="translate(-140.32 -115.46)">
    <g id="_23a8adff" data-name="#23a8adff" transform="translate(140.32 115.46)">
      <path id="Path_122599" data-name="Path 122599" d="M255.318,115.746c1.089-.569,2.389-.175,3.484.2.892.344,2.1.983,1.856,2.139-.481,1.92-2.095,3.284-3.672,4.342a8.531,8.531,0,0,1-4.27,4.056c-.836.317-1.3-.614-1.525-1.253a6.846,6.846,0,0,1-.014-5.059c.631-1.167,2.145-.831,3.209-.642C254.345,118.249,254.218,116.652,255.318,115.746Z" transform="translate(-220.032 -115.46)" fill="#23a8ad"/>
      <path id="Path_122600" data-name="Path 122600" d="M322.406,124.182c.642-.2,1.233.239,1.753.553a30.855,30.855,0,0,1,3.092,2.408,7.947,7.947,0,0,1,1.831,2.456c.8,2.322-.069,4.753-.617,7.028a19.694,19.694,0,0,1-1.814,5.017c-.317-2.175.445-4.295.639-6.439a3.258,3.258,0,0,0-1.147-2.495,2.612,2.612,0,0,1-1.4,1.578l-.025-.1c-.008-.036-.028-.108-.036-.144a2.061,2.061,0,0,1-2.414-.444,5.839,5.839,0,0,1-.569-2.722c-.053-1.525.033-3.05.119-4.572A3.738,3.738,0,0,1,322.406,124.182Z" transform="translate(-271.3 -121.723)" fill="#23a8ad"/>
      <path id="Path_122601" data-name="Path 122601" d="M271.546,148.074a4.73,4.73,0,0,1,2.811-.033,29.475,29.475,0,0,1,7.189,2.7,7.955,7.955,0,0,1,3.561,3.3,15.359,15.359,0,0,1,1.656,7.178,11.083,11.083,0,0,1-2.558,7.576,7.439,7.439,0,0,1-5.264,2.289c1.406-.781,3.039-1.361,4.011-2.722a6.394,6.394,0,0,0,.731-5.759,6.537,6.537,0,0,0-2.814-3.511,4.012,4.012,0,0,1-2.214,2.653,7.172,7.172,0,0,1-3.1.819c-1.3-.339-2.025-1.6-2.647-2.689a21.122,21.122,0,0,1-2.195-8.928C270.752,149.966,270.707,148.749,271.546,148.074Z" transform="translate(-234.488 -138.843)" fill="#23a8ad"/>
      <path id="Path_122602" data-name="Path 122602" d="M208.063,177.7a6.213,6.213,0,0,1,3.456-.2c1.028.322,1.089,1.606.969,2.5a7.728,7.728,0,0,1-2.042,4.473c-.65.592-1.445-.1-1.922-.57a6.855,6.855,0,0,1-2.136-4.434C206.361,178.5,207.255,177.938,208.063,177.7Z" transform="translate(-188.034 -160.143)" fill="#23a8ad"/>
      <path id="Path_122603" data-name="Path 122603" d="M189.848,186.2a1.9,1.9,0,0,1,1.967-.044,49.353,49.353,0,0,1,7.123,3.681,27,27,0,0,1,4.614,3.464,10.043,10.043,0,0,1,2.892,5.323c1.239,5.57-.014,11.362-2.053,16.584a41.443,41.443,0,0,1-3.5,7.017.871.871,0,0,1-1.181.264,14.334,14.334,0,0,1-2.17-1.747,30.989,30.989,0,0,0-8.05-4.45,25.265,25.265,0,0,0-4.428-1.245c-3.117-.553-6.542-.467-9.312,1.233a3.351,3.351,0,0,0-1.925,3.2c.283,1.767,1.858,2.842,3.12,3.925a10.955,10.955,0,0,1-4.82-2.506,4.157,4.157,0,0,1-1.064-3.975,13.674,13.674,0,0,1,5.217-8.439c3.7-2.581,8.442-2.864,12.792-2.478a31.915,31.915,0,0,1,5.592.844,66.868,66.868,0,0,1,8.4,3.161,13.955,13.955,0,0,0-2.517-7.295,5.7,5.7,0,0,0-1.478-1.208,4.026,4.026,0,0,1-2.706,2.506c-2.045.636-4.384,1.286-6.417.281a3.064,3.064,0,0,1-1.286-2.272,39.964,39.964,0,0,1-.306-12.456C188.614,188.381,188.687,186.9,189.848,186.2Z" transform="translate(-162.429 -166.333)" fill="#23a8ad"/>
      <path id="Path_122604" data-name="Path 122604" d="M179.691,238.774c1.2-1.014,2.889-.7,4.309-.464a41.485,41.485,0,0,1,8.47,2.781,3.836,3.836,0,0,1-2.4.72c-3.917.236-7.925-.181-11.756.858A4.019,4.019,0,0,1,179.691,238.774Z" transform="translate(-167.682 -204.01)" fill="#23a8ad"/>
      <path id="Path_122605" data-name="Path 122605" d="M176.589,322.51a9.527,9.527,0,0,1,2.106,5.42,5.2,5.2,0,0,1-1.886,4.367c-1.7,1.372-3.959,1.622-6.05,1.906a93.578,93.578,0,0,1-11.167.247,24.176,24.176,0,0,0-3.009.228c-.489.075-.978.161-1.461.258a21.633,21.633,0,0,0-3.3.958,22.879,22.879,0,0,0-11.5,9.6c1.406-4.8,3.3-9.581,6.481-13.5a18.138,18.138,0,0,1,12.167-6.814,35.767,35.767,0,0,1,3.892-.2c4.27.164,8.367,1.847,12.668,1.692.589-.039,1.378-.258,1.439-.964A12.386,12.386,0,0,0,176.589,322.51Z" transform="translate(-140.32 -264.992)" fill="#23a8ad"/>
      <path id="Path_122606" data-name="Path 122606" d="M214.808,371.418c3.995-.283,8.087.194,11.992-.878a3.841,3.841,0,0,1-1.189,3.767c-1.106,1.078-2.775.861-4.161.647a46.2,46.2,0,0,1-8.72-2.767A2.713,2.713,0,0,1,214.808,371.418Z" transform="translate(-192.615 -299.68)" fill="#23a8ad"/>
    </g>
    <g id="_e8513eff" data-name="#e8513eff" transform="translate(149.943 116.579)">
      <path id="Path_122607" data-name="Path 122607" d="M341.73,123.79a47.192,47.192,0,0,1,9.587-4.3c-2.656,2.172-5.256,4.409-7.756,6.756A7.947,7.947,0,0,0,341.73,123.79Z" transform="translate(-295.402 -119.49)" fill="#e8513e"/>
      <path id="Path_122608" data-name="Path 122608" d="M309.72,151.147q1.625-1.425,3.339-2.747a5.838,5.838,0,0,0,.569,2.722,2.061,2.061,0,0,0,2.414.445c.008.036.028.108.036.144-.053.178-.2.267-.447.267-.833.775-1.567,1.647-2.35,2.47A7.955,7.955,0,0,0,309.72,151.147Z" transform="translate(-272.284 -140.369)" fill="#e8513e"/>
      <path id="Path_122609" data-name="Path 122609" d="M273.648,191.17c.622,1.086,1.35,2.35,2.647,2.689a7.173,7.173,0,0,0,3.1-.819c-.528.608-.994,1.267-1.478,1.911q-.8,1.063-1.567,2.153a27,27,0,0,0-4.614-3.464Q272.669,192.385,273.648,191.17Z" transform="translate(-244.855 -171.258)" fill="#e8513e"/>
      <path id="Path_122610" data-name="Path 122610" d="M211.434,290.81a25.263,25.263,0,0,1,4.428,1.245c-.069.15-.208.447-.278.594-1.489,3.109-2.931,6.239-4.242,9.428a35.714,35.714,0,0,0-3.892.2q.2-.675.4-1.345C208.914,297.513,210.128,294.144,211.434,290.81Z" transform="translate(-198.425 -243.218)" fill="#e8513e"/>
      <path id="Path_122611" data-name="Path 122611" d="M194.271,365.718a24.171,24.171,0,0,1,3.009-.228q-2.713,7.938-4.764,16.076A76.862,76.862,0,0,1,194.271,365.718Z" transform="translate(-187.632 -297.152)" fill="#e8513e"/>
      <path id="Path_122612" data-name="Path 122612" d="M176.841,368.2a21.631,21.631,0,0,1,3.3-.958,77.785,77.785,0,0,0-1.883,28.313c-2.845-5.245-3.622-11.378-3.178-17.268A55.026,55.026,0,0,1,176.841,368.2Z" transform="translate(-174.96 -298.416)" fill="#e8513e"/>
    </g>
    <g id="_0e7d84ff" data-name="#0e7d84ff" transform="translate(151.685 139.22)">
      <path id="Path_122613" data-name="Path 122613" d="M289.917,202.043a17.945,17.945,0,0,0,6.506-1.053,6.394,6.394,0,0,1-.731,5.759c-.972,1.361-2.606,1.942-4.011,2.722l-.439.047a10.043,10.043,0,0,0-2.892-5.323Q289.117,203.108,289.917,202.043Z" transform="translate(-258.593 -200.99)" fill="#0e7d84"/>
      <path id="Path_122614" data-name="Path 122614" d="M523.728,245a1.711,1.711,0,1,1-.206,3.039A1.747,1.747,0,0,1,523.728,245Z" transform="translate(-427.865 -232.669)" fill="#0e7d84"/>
      <path id="Path_122615" data-name="Path 122615" d="M540.49,244.969a1.7,1.7,0,1,1-.511,2.875A1.735,1.735,0,0,1,540.49,244.969Z" transform="translate(-439.918 -232.654)" fill="#0e7d84"/>
      <path id="Path_122616" data-name="Path 122616" d="M343.486,266.8a26.753,26.753,0,0,1,6.881-.55,6.527,6.527,0,0,1,4.445,1.839A7.2,7.2,0,0,1,356.3,272.8c.011,2.086-.006,4.172.006,6.259,2.2.036,4.411-.089,6.611.089a6.671,6.671,0,0,1-1.967-5.511,7.5,7.5,0,0,1,2.747-5.856,8.6,8.6,0,0,1,7.709-1.175,5.807,5.807,0,0,1,3.931,4.353c.633,2.817.364,6.27-2.061,8.195a76.191,76.191,0,0,1,8.467.006c-1.778-1.2-2.267-3.5-2.192-5.511a7.456,7.456,0,0,1,2.784-5.875,8.9,8.9,0,0,1,6.809-1.439,5.543,5.543,0,0,1,3.967,2.408,8.532,8.532,0,0,1,1.078,4.628q0,4,0,8.012-20.368.017-40.73.005c-.014-2.678.014-5.359-.014-8.037-.039-1.495-.264-3.292-1.645-4.167-1.639-.95-3.639-.661-5.425-.408-.006,4.2,0,8.409-.006,12.612-3.973-.142-8.1.472-11.926-.894a7.063,7.063,0,0,1-4.55-4.692,13.6,13.6,0,0,1,.528-8.828c1.045-.194,2.095-.375,3.142-.556a12.835,12.835,0,0,0-.931,8.051,5.012,5.012,0,0,0,2.567,3.522c2.556,1.286,5.514,1.036,8.289,1.067.006-4.086,0-8.173,0-12.259M367.1,268.69a4.475,4.475,0,0,0-3.122,3.85,8.081,8.081,0,0,0,.556,4.445c1.239,2.572,5.325,2.77,7,.55a6.474,6.474,0,0,0,1.1-4.425,5.254,5.254,0,0,0-1.275-3.492,4.573,4.573,0,0,0-4.264-.928m18.412.1a4.713,4.713,0,0,0-2.986,4.3c-.161,1.842.278,4.006,1.958,5.05,2.047,1.267,4.564.831,6.848.911-.011-1.892.025-3.786-.017-5.681a5.437,5.437,0,0,0-1.428-3.945A4.635,4.635,0,0,0,385.514,268.792Z" transform="translate(-288.233 -248.083)" fill="#0e7d84"/>
      <path id="Path_122617" data-name="Path 122617" d="M579.232,266.534a16.422,16.422,0,0,1,8.953.769c.005,4.9,0,9.8.005,14.7a7.042,7.042,0,0,1-.886,3.6,7.644,7.644,0,0,1-5.3,3.489,22.5,22.5,0,0,1-7.928-.192c.061-.82.13-1.639.192-2.458,2.842.539,5.964,1.092,8.714-.1,1.883-.833,2.511-3.042,2.328-4.942-2.961-.047-6.239.353-8.823-1.414-2.386-1.62-2.884-4.828-2.484-7.489a7.1,7.1,0,0,1,5.225-5.961m.617,2.272a4.759,4.759,0,0,0-2.986,4.584c-.108,1.77.4,3.809,2.011,4.786,1.92,1.189,4.284.836,6.431.892,0-3.275.005-6.55,0-9.828A8.637,8.637,0,0,0,579.849,268.806Z" transform="translate(-464.806 -248.094)" fill="#0e7d84"/>
      <path id="Path_122618" data-name="Path 122618" d="M183.188,291.253c2.77-1.7,6.195-1.786,9.312-1.233-1.306,3.334-2.52,6.7-3.581,10.123-1.522-.553-3.059-1.092-4.536-1.761-1.261-1.083-2.836-2.158-3.12-3.925A3.351,3.351,0,0,1,183.188,291.253Z" transform="translate(-181.233 -265.068)" fill="#0e7d84"/>
      <path id="Path_122619" data-name="Path 122619" d="M221.46,306.858c1.311-3.189,2.753-6.32,4.242-9.428,3.489,1.783,7.087,3.781,9.487,6.967a12.385,12.385,0,0,1,.378,3.189c-.061.706-.85.925-1.439.964C229.827,308.706,225.73,307.022,221.46,306.858Z" transform="translate(-210.285 -270.639)" fill="#0e7d84"/>
      <path id="Path_122620" data-name="Path 122620" d="M470.463,368.061a7.84,7.84,0,0,1,5.734-2.75,7.719,7.719,0,0,1,6.481,2.4c2.05,2.45,2.272,5.9,1.825,8.937a7.267,7.267,0,0,1-3.936,5.6c1.742.272,3.42,1,5.217.808q-.012,1.075,0,2.156a9.919,9.919,0,0,1-4.609-.511,12.527,12.527,0,0,0-4.664-1.011,7.887,7.887,0,0,1-5.756-1.878,8.77,8.77,0,0,1-2.475-6.031,10.382,10.382,0,0,1,2.186-7.717m4.786-.456A5.883,5.883,0,0,0,471,372.694a9.713,9.713,0,0,0,1.239,6.8,5.325,5.325,0,0,0,7.781.619,7.347,7.347,0,0,0,2.047-5.45,8.122,8.122,0,0,0-1.828-5.711A5.321,5.321,0,0,0,475.25,367.6Z" transform="translate(-388.509 -319.649)" fill="#0e7d84"/>
      <path id="Path_122621" data-name="Path 122621" d="M328.95,366.246q1.317,0,2.636,0c1.211,5,2.742,9.934,3.714,14.993.431-2.595,1.267-5.095,1.95-7.628q1.033-3.679,2.067-7.364,1.392-.008,2.786,0c1.347,4.973,3.011,9.865,4.12,14.9,1.028-5.011,2.478-9.928,3.689-14.9h2.436c-1.55,5.964-3.136,11.917-4.7,17.876q-1.517.013-3.028,0c-1.345-5-3-9.926-4.084-14.993a51.413,51.413,0,0,1-1.578,6.492c-.789,2.836-1.57,5.67-2.361,8.5-.975,0-1.95,0-2.922.006Q331.295,375.191,328.95,366.246Z" transform="translate(-287.915 -320.338)" fill="#0e7d84"/>
      <path id="Path_122622" data-name="Path 122622" d="M415.158,366.25h2.778q3.271,8.942,6.545,17.882-1.388,0-2.772,0-.742-2.1-1.489-4.2h-7.537c-.5,1.4-.986,2.8-1.486,4.2-.839-.008-1.678,0-2.517.006,2.122-5.975,4.328-11.923,6.478-17.89m1.264,2.684c-.878,3.07-2.089,6.031-3.128,9.051,2.094.006,4.189,0,6.284,0C418.533,374.967,417.4,371.978,416.422,368.934Z" transform="translate(-345.496 -320.342)" fill="#0e7d84"/>
      <path id="Path_122623" data-name="Path 122623" d="M538.631,366.21c3.036.022,6.073.011,9.109.005.006.683.011,1.367.011,2.05-2.222.008-4.445,0-6.667.006q0,2.879,0,5.762c2.111.019,4.225-.033,6.339.028-.019.65-.025,1.3-.025,1.95-2.106.006-4.211,0-6.317,0V384.1q-1.238,0-2.467,0C538.629,378.136,538.592,372.171,538.631,366.21Z" transform="translate(-439.334 -320.313)" fill="#0e7d84"/>
      <path id="Path_122624" data-name="Path 122624" d="M575.96,366.24q1.354,0,2.714,0c1.386,3.031,2.906,6,4.161,9.089,1.336-3.075,2.848-6.07,4.3-9.089l2.581.006c-1.875,3.8-3.806,7.581-5.645,11.4-.114,2.156-.006,4.32-.047,6.481q-1.233,0-2.459,0-.012-2.863,0-5.723a2.309,2.309,0,0,0-.247-1.2Q578.627,371.728,575.96,366.24Z" transform="translate(-466.307 -320.334)" fill="#0e7d84"/>
    </g>
    <g id="_0e7e84ff" data-name="#0e7e84ff" transform="translate(199.403 150.804)">
      <path id="Path_122625" data-name="Path 122625" d="M464.607,242.846a1.749,1.749,0,1,1-.347,2.989A1.782,1.782,0,0,1,464.607,242.846Z" transform="translate(-432.876 -242.691)" fill="#0e7e84"/>
      <path id="Path_122626" data-name="Path 122626" d="M353.9,331.789a1.708,1.708,0,1,1,.056,3.075A1.743,1.743,0,0,1,353.9,331.789Z" transform="translate(-353.007 -306.896)" fill="#0e7e84"/>
      <path id="Path_122627" data-name="Path 122627" d="M370.658,331.748a1.7,1.7,0,1,1-.094,3.056A1.728,1.728,0,0,1,370.658,331.748Z" transform="translate(-365.054 -306.886)" fill="#0e7e84"/>
    </g>
    <g id="_e8513dff" data-name="#e8513dff" transform="translate(166.961 153.143)">
      <path id="Path_122628" data-name="Path 122628" d="M237.092,251.391c2.033,1.006,4.372.356,6.417-.281-.578.939-1.139,1.886-1.7,2.836a31.906,31.906,0,0,0-5.592-.845C236.509,252.53,236.8,251.957,237.092,251.391Z" transform="translate(-236.22 -251.11)" fill="#e8513d"/>
    </g>
  </g>
</svg>
