<svg xmlns="http://www.w3.org/2000/svg" width="229.36" height="79.011" viewBox="0 0 229.36 79.011">
  <g id="sites-Awqaf-Comp-logo" transform="translate(-3178.51 202.3)">
    <path id="Path_122714" data-name="Path 122714" d="M1291.55,117.209h4.747v-1.681h-2.956c.235-.87.931-1.384,2.143-1.79l-.87-1.158c-1.739.344-3.066,1.739-3.066,2.777Z" transform="translate(2098.998 -301.499)" fill="#002366"/>
    <path id="Path_122715" data-name="Path 122715" d="M1825.34,216.849h3.653V197.79l-3.653.516Z" transform="translate(1565.959 -380.452)" fill="#002366"/>
    <path id="Path_122716" data-name="Path 122716" d="M1278.342,131.6c-1.963,0-3.01-1.04-3.01-3.183a2.9,2.9,0,0,1,2.956-3.191c.579,0,2.549.235,2.549,3.191V131.6Zm-5.037,8.384h11.182V128.59c0-3.91-2.549-6.608-6.2-6.608a6.413,6.413,0,0,0-6.663,6.608c.172,4.629,3.708,6.312,6.718,6.312h2.495v1.8h-8.282Z" transform="translate(2103.343 -303.546)" fill="#002366"/>
    <path id="Path_122717" data-name="Path 122717" d="M1258.63,118.657h0a1.739,1.739,0,0,0,1.854-1.854,1.854,1.854,0,1,0-3.707,0,1.74,1.74,0,0,0,1.854,1.854Zm-5.094,0h0a1.739,1.739,0,0,0,1.854-1.854,1.768,1.768,0,0,0-1.854-1.854,1.721,1.721,0,0,0-1.8,1.854,1.69,1.69,0,0,0,1.8,1.854Zm2.839,11.411c-1.97,0-3.01-1.04-3.01-3.183a2.892,2.892,0,0,1,2.948-3.191c.579,0,2.55.235,2.55,3.191v3.183Zm-14.6,8.384h20.74V127.057c0-3.91-2.549-6.609-6.2-6.609a6.413,6.413,0,0,0-6.663,6.608,6.258,6.258,0,0,0,6.725,6.312h2.485v1.8h-13.436V119.353l-3.653.516Z" transform="translate(2109.848 -302.015)" fill="#002366"/>
    <path id="Path_122718" data-name="Path 122718" d="M1224.609,118.657h0a1.721,1.721,0,0,0,1.8-1.854,1.739,1.739,0,0,0-1.8-1.854,1.768,1.768,0,0,0-1.854,1.854,1.739,1.739,0,0,0,1.854,1.854Zm0,11.41c-2.025,0-3.066-1.04-3.066-3.183a2.892,2.892,0,0,1,2.948-3.191c.587,0,2.55.235,2.55,3.191v3.183Zm-16.619,8.384h22.679V127.057c0-3.91-2.55-6.609-6.2-6.609a6.4,6.4,0,0,0-6.6,6.609c.117,4.629,3.707,6.312,6.718,6.312h2.433v1.8H1211.61v-8.055l-3.651.524Z" transform="translate(2117.216 -302.015)" fill="#002366"/>
    <path id="Path_122719" data-name="Path 122719" d="M1803.316,247.663h20.624V228.38l-3.653.516v15.47h-3.707V228.38l-3.644.516v15.47h-3.019l-2.08-12.4-3.653.524,2.784,11.871h-4.809Z" transform="translate(1571.01 -387.119)" fill="#002366"/>
    <path id="Path_122720" data-name="Path 122720" d="M1218.732,156.2h0a1.854,1.854,0,1,0-1.854-1.854,1.854,1.854,0,0,0,1.854,1.854Z" transform="translate(2115.271 -310.198)" fill="#002366"/>
    <path id="Path_122721" data-name="Path 122721" d="M1218.732,162.717h0a1.854,1.854,0,1,0-1.854-1.854,1.854,1.854,0,0,0,1.854,1.854Z" transform="translate(2115.271 -311.619)" fill="#002366"/>
    <path id="Path_122722" data-name="Path 122722" d="M1197.7,156.364h0a1.74,1.74,0,0,0,1.791-1.854,1.823,1.823,0,1,0-1.791,1.854Z" transform="translate(2119.855 -310.248)" fill="#002366"/>
    <path id="Path_122723" data-name="Path 122723" d="M1200.808,162.7h0a1.885,1.885,0,1,0-1.885-1.885A1.885,1.885,0,0,0,1200.808,162.7Z" transform="translate(2119.188 -311.601)" fill="#002366"/>
    <path id="Path_122724" data-name="Path 122724" d="M1194.483,162.7h0a1.885,1.885,0,1,0-1.854-1.908,1.776,1.776,0,0,0,1.854,1.908Z" transform="translate(2120.559 -311.601)" fill="#002366"/>
    <path id="Path_122725" data-name="Path 122725" d="M1148.15,175.407c6.6,0,8.219-4.059,8.219-8.344v-8.6l-3.707.524v8.047c0,3.77-1.095,4.982-4.512,5.044Z" transform="translate(2130.251 -311.499)" fill="#002366"/>
    <path id="Path_122726" data-name="Path 122726" d="M1176.136,173.337a6.789,6.789,0,0,0,5.562-2.894h37.71a10.745,10.745,0,0,0,6.257-1.615,6.257,6.257,0,0,0,4.575,2.025,5.4,5.4,0,0,0,4.059-1.681,6.1,6.1,0,0,0,3.708,1.275h5.388v-13.94l-3.715.524V167.2h-1.674a2.26,2.26,0,0,1-2.143-2.346v-6.845l-3.707.524v5.56c0,2.205-.524,3.535-1.916,3.535-1.158,0-1.971-.7-1.971-2.26v-7.359l-3.644.524v3.824c0,3.762-1.22,4.864-5.27,4.864h-3.479v-9.58l-3.651.524V167.2H1201.8v-9.5l-3.644.524V167.2h-15.563v-1.739a6.431,6.431,0,1,0-12.857,0V167.2h-2.9V151.15l-3.644.524v18.769h7.414a5.916,5.916,0,0,0,5.532,2.894Zm0-3.183a2.6,2.6,0,0,1-2.721-2.956v-1.739c0-2.089.985-3.363,2.721-3.363s2.721,1.275,2.721,3.363V167.2a2.6,2.6,0,0,1-2.721,2.956Z" transform="translate(2126.974 -309.905)" fill="#002366"/>
    <path id="Path_122727" data-name="Path 122727" d="M1740.83,251.691h82.663V172.68H1740.83v21.835l3.644-.524v-17.6h75.311v71.651h-75.311v-7.87h-3.644Z" transform="translate(1584.378 -374.98)" fill="#cb9831"/>
    <path id="Path_122728" data-name="Path 122728" d="M1079.172,158.686l.712,1.9h2.174l-3.668-8.876h-2.2l-3.59,8.876h1.947l.712-1.9.047-.124h3.808Zm-3.371-1.478.094-.258,1.149-3.238.188-.516.18.524,1.111,3.23.086.258Z" transform="translate(2146.719 -310.028)" fill="#002366"/>
    <path id="Path_122729" data-name="Path 122729" d="M1626.59,228.92h-2.361l-1.924,7.1-1.69-7.1h-2.072l2.485,8.868h2.347l1.978-7.117,1.94,7.117h2.346l2.416-8.868h-1.932l-1.65,7.1Z" transform="translate(1611.031 -387.238)" fill="#002366"/>
    <path id="Path_122730" data-name="Path 122730" d="M1122.343,151.71l-3.6,8.876h1.956l.781-2.025h3.808l.781,2.025h2.174l-3.653-8.876Zm2.4,5.474h-2.808l1.439-4.012Z" transform="translate(2136.662 -310.028)" fill="#002366"/>
    <path id="Path_122731" data-name="Path 122731" d="M1668.577,232.647v-2.3h3.941V228.94h-5.873v8.852h1.932v-3.738h3.707v-1.408Z" transform="translate(1600.544 -387.242)" fill="#002366"/>
    <path id="Path_122732" data-name="Path 122732" d="M1112.2,159.269a4.414,4.414,0,1,0-5.967-6.492,5.919,5.919,0,0,0-1.047,3.363c0,2.485,1.275,4.52,4.114,4.52.6,0,2.245-.149,2.815-.149h2.018v-1.353a19.277,19.277,0,0,0-1.932.109Zm-2.784-.062c-1.615,0-2.26-1.384-2.26-3.128,0-1.446.47-3.183,2.26-3.183,1.564,0,2.26,1.446,2.26,3.183-.01,1.337-.383,3.127-2.271,3.127Z" transform="translate(2139.617 -309.969)" fill="#002366"/>
    <path id="Path_122733" data-name="Path 122733" d="M1560.15,246v8.868h1.7V247.7l3.34,7.164h2.733V246h-1.7v7.171l-3.34-7.171Z" transform="translate(1623.756 -390.959)" fill="#002366"/>
    <path id="Path_122734" data-name="Path 122734" d="M1575.225,246H1573.1l3.23,8.868h2.284L1581.89,246h-1.963l-2.393,7.148Z" transform="translate(1620.934 -390.959)" fill="#002366"/>
    <path id="Path_122735" data-name="Path 122735" d="M1589.277,251.07h3.871v-1.415h-3.871v-2.229h4.09V246.01h-6.022v8.861h6.139v-1.419h-4.207Z" transform="translate(1617.826 -390.962)" fill="#002366"/>
    <path id="Path_122736" data-name="Path 122736" d="M1612.537,254.868h1.971v-7.414h2.753V246h-7.476v1.455h2.752Z" transform="translate(1612.941 -390.959)" fill="#002366"/>
    <path id="Path_122737" data-name="Path 122737" d="M1625.5,246h-2.972v8.868h1.7v-7.532l2.588,7.532h1.721l2.588-7.523v7.523h1.838V246h-2.982l-2.2,6.843Z" transform="translate(1610.161 -390.959)" fill="#002366"/>
    <path id="Path_122738" data-name="Path 122738" d="M1642.177,251.07h3.864v-1.415h-3.864v-2.229h4.083V246.01h-6.013v8.861h6.139v-1.419h-4.208Z" transform="translate(1606.297 -390.962)" fill="#002366"/>
    <path id="Path_122739" data-name="Path 122739" d="M1651.81,246v8.868h1.7V247.7l3.34,7.164h2.733V246h-1.7v7.171l-3.34-7.171Z" transform="translate(1603.779 -390.959)" fill="#002366"/>
    <path id="Path_122740" data-name="Path 122740" d="M1667.689,247.455v7.414h1.97v-7.414h2.753V246h-7.484v1.455Z" transform="translate(1600.919 -390.959)" fill="#002366"/>
    <rect id="Rectangle_13959" data-name="Rectangle 13959" width="1.97" height="8.868" transform="translate(3178.51 -144.961)" fill="#002366"/>
    <path id="Path_122741" data-name="Path 122741" d="M1068.958,177.72c2.08,0,3.707-.985,3.707-2.784,0-3.128-4.982-2.26-4.982-3.91,0-.781.781-1.1,1.384-1.1a1.227,1.227,0,0,1,1.391,1.213h1.971c0-1.79-1.391-2.609-3.245-2.609s-3.535.87-3.535,2.666c0,3.128,4.982,2.143,4.982,3.91,0,.87-.634,1.275-1.615,1.275a1.415,1.415,0,0,1-1.564-1.51h-1.97C1065.479,176.673,1066.672,177.72,1068.958,177.72Z" transform="translate(2148.27 -313.694)" fill="#002366"/>
  </g>
</svg>
