<svg xmlns="http://www.w3.org/2000/svg" width="22.593" height="18.362" viewBox="0 0 22.593 18.362">
  <path id="twitter-white" d="M21.969.669A9.32,9.32,0,0,1,19.028,1.8a4.638,4.638,0,0,0-7.9,4.228A13.174,13.174,0,0,1,1.57,1.18,4.646,4.646,0,0,0,3,7.369a4.641,4.641,0,0,1-2.1-.58v.056a4.636,4.636,0,0,0,3.717,4.546,4.615,4.615,0,0,1-1.222.164,4.447,4.447,0,0,1-.869-.085A4.643,4.643,0,0,0,6.86,14.693,9.294,9.294,0,0,1,1.1,16.676,9.649,9.649,0,0,1,0,16.611a13.127,13.127,0,0,0,7.105,2.081A13.1,13.1,0,0,0,20.3,5.5c0-.2-.006-.4-.015-.6a9.5,9.5,0,0,0,2.312-2.4,9.3,9.3,0,0,1-2.663.73A4.643,4.643,0,0,0,21.969.669" transform="translate(0 -0.33)" fill="#fff"/>
</svg>
