<svg id="Vision2030" xmlns="http://www.w3.org/2000/svg" width="74.92" height="50.126" viewBox="0 0 74.92 50.126">
  <g id="Group_23108" data-name="Group 23108" transform="translate(27.288 13.789)">
    <path id="Path_409" data-name="Path 409" d="M1550.741,916.218a.384.384,0,0,0-.231-.108c.054.064-.056.012.092.075A.568.568,0,0,0,1550.741,916.218Z" transform="translate(-1539.949 -907.536)" fill="#fff" fill-rule="evenodd"/>
    <path id="Path_410" data-name="Path 410" d="M1140.15,564.977l.073-.033.022-.084C1140.152,564.922,1140.193,564.886,1140.15,564.977Z" transform="translate(-1139.606 -564.86)" fill="#fff" fill-rule="evenodd"/>
    <path id="Path_411" data-name="Path 411" d="M1117.86,720.992l.141-.142c-.093.042-.009-.034-.09.053C1117.844,720.971,1117.9,720.916,1117.86,720.992Z" transform="translate(-1117.86 -717.042)" fill="#fff" fill-rule="evenodd"/>
  </g>
  <g id="Group_23109" data-name="Group 23109" transform="translate(25.687 15.201)">
    <path id="Path_412" data-name="Path 412" d="M1053.271,708.268c-.179.1-.3.342-.446.381-.063-.047-.175-.166-.243-.23s-.171-.212-.292-.229c.079.246.15.071.168.29.17.032.084.027.172.13l.147.111c.054.028.146-.018.193-.045l.019-.012.1-.106A.668.668,0,0,0,1053.271,708.268Z" transform="translate(-1052.29 -706.104)" fill="#fff" fill-rule="evenodd"/>
    <path id="Path_413" data-name="Path 413" d="M1134.67,657.377c.078.018.07.044.07-.013a.237.237,0,0,1,.17-.068c.012-.185-.023-.123.107-.2l.026-.106c-.092.042-.043.006-.119.081-.024.024-.056.059-.085.092C1134.761,657.249,1134.715,657.27,1134.67,657.377Z" transform="translate(-1132.659 -656.154)" fill="#fff" fill-rule="evenodd"/>
    <path id="Path_414" data-name="Path 414" d="M1129.907,622.994a.272.272,0,0,0-.07-.131c-.062-.068-.034-.011-.094-.1l-.1-.035A.471.471,0,0,0,1129.907,622.994Z" transform="translate(-1127.752 -622.73)" fill="#fff" fill-rule="evenodd"/>
  </g>
  <g id="Group_23110" data-name="Group 23110" transform="translate(19.238 17.223)">
    <path id="Path_415" data-name="Path 415" d="M881,706.634a.875.875,0,0,1-.453-.036c0-.009-.013-.008-.019-.013a1.834,1.834,0,0,1-.578-.062l.057-.667.022-.286a1.225,1.225,0,0,0-.092.523c-.019.19-.091.3-.008.508l.931.1c.168,0,.1-.007.14-.066Z" transform="translate(-877.648 -705.57)" fill="#fff" fill-rule="evenodd"/>
    <path id="Path_416" data-name="Path 416" d="M788.824,1067.557l-.17-.113c-.048-.025-.116-.055-.164-.076a1.572,1.572,0,0,1-.327-.154l.03-.174c-.077.04-.071,0-.112.175.162.224.192.035.295.253a.31.31,0,0,1,.327.1Z" transform="translate(-788.08 -1058.216)" fill="#fff" fill-rule="evenodd"/>
    <path id="Path_417" data-name="Path 417" d="M1169.2,1485.957c.394-.138.1-.124.324-.3.175-.14.1-.281-.1-.337.061.122.075.064.134.192l-.278.319C1169.227,1485.882,1169.216,1485.868,1169.2,1485.957Z" transform="translate(-1159.897 -1466.286)" fill="#fff" fill-rule="evenodd"/>
    <path id="Path_418" data-name="Path 418" d="M1376.5,1133.831a.415.415,0,0,0-.083-.194.251.251,0,0,1-.062-.193c.123-.082.277-.1.348-.224a1.079,1.079,0,0,0-.419.224c.061.391.007.252.164.349Z" transform="translate(-1361.922 -1122.781)" fill="#fff" fill-rule="evenodd"/>
    <path id="Path_419" data-name="Path 419" d="M1188.75,1321.553c.256-.089.185-.063.31-.284.048-.084-.008.073.032-.079a.448.448,0,0,0-.186.162C1188.838,1321.431,1188.771,1321.448,1188.75,1321.553Z" transform="translate(-1178.969 -1306.163)" fill="#fff" fill-rule="evenodd"/>
  </g>
  <g id="Group_23111" data-name="Group 23111" transform="translate(1.404 39.137)">
    <path id="Path_420" data-name="Path 420" d="M91.75,1603.769a1.391,1.391,0,0,0,.516,0l-.006-.457a1.029,1.029,0,0,0-.506,0Z" transform="translate(-90.915 -1603.28)" fill="#fff" fill-rule="evenodd"/>
    <path id="Path_421" data-name="Path 421" d="M57.53,1603.964h.482l.013-.5H57.54Z" transform="translate(-57.53 -1603.456)" fill="#fff" fill-rule="evenodd"/>
  </g>
  <g id="Group_23112" data-name="Group 23112" transform="translate(33.536 22.006)">
    <path id="Path_422" data-name="Path 422" d="M1377.181,1393.207c-.049.041-.039-.024-.077.055-.044-.111-.088.317-.056.417,0,0,.02.054.02.058l.007.041a.067.067,0,0,0,0,.01,3.156,3.156,0,0,1,.881.047,5.7,5.7,0,0,0,.873.127c.043-.177.053-.055.079-.172a3.124,3.124,0,0,0,0-.325,2.72,2.72,0,0,0,.048-.635c-.026.035-.02.01-.041.072s-.08.8-.135.971l-1.642-.211.039-.455Z" transform="translate(-1376.959 -1380.837)" fill="#fff" fill-rule="evenodd"/>
    <path id="Path_423" data-name="Path 423" d="M1373.82,901.857c.113-.1.066-.113.148-.229a1.546,1.546,0,0,1,.336.136c.115.056.211.1.319.152l-.116.324.151-.137a.976.976,0,0,0,.057-.215c-.381-.165-.125-.114-.328-.2-.3-.127-.179.005-.368-.161a.164.164,0,0,0-.02-.017C1373.9,901.558,1373.84,901.583,1373.82,901.857Z" transform="translate(-1373.82 -901.51)" fill="#fff" fill-rule="evenodd"/>
  </g>
  <g id="Group_23113" data-name="Group 23113" transform="translate(24.895 18.038)">
    <path id="Path_424" data-name="Path 424" d="M1026.82,1247.656a4.952,4.952,0,0,0,.5.477c.082-.03.067-.035.135-.106a2.9,2.9,0,0,0,.373-.43,2.856,2.856,0,0,0-.537-.477.876.876,0,0,0-.123.114C1027.084,1247.323,1026.844,1247.542,1026.82,1247.656Z" transform="translate(-1026.649 -1234.715)" fill="#fff" fill-rule="evenodd"/>
    <path id="Path_425" data-name="Path 425" d="M1197.686,1249.747a3.256,3.256,0,0,0,.061-.732l-.725-.075a5.822,5.822,0,0,0-.061.728A3.322,3.322,0,0,0,1197.686,1249.747Z" transform="translate(-1192.629 -1236.49)" fill="#fff" fill-rule="evenodd"/>
    <path id="Path_426" data-name="Path 426" d="M1272.26,1213.981l.742.088a4.387,4.387,0,0,0,.065-.754,5.2,5.2,0,0,0-.72-.058Z" transform="translate(-1266.098 -1201.673)" fill="#fff" fill-rule="evenodd"/>
    <path id="Path_427" data-name="Path 427" d="M1019.83,739.661a.176.176,0,0,0,.079.028l.658.067a2.856,2.856,0,0,0,.055-.713l-.712-.1Z" transform="translate(-1019.83 -738.94)" fill="#fff" fill-rule="evenodd"/>
  </g>
  <g id="Group_23114" data-name="Group 23114" transform="translate(30.466 17.329)">
    <path id="Path_428" data-name="Path 428" d="M1248.061,710.083l.187,1.042,1.025-.185a2.812,2.812,0,0,0-.082-.512,1.741,1.741,0,0,0-.113-.518Z" transform="translate(-1248.061 -709.91)" fill="#fff" fill-rule="evenodd"/>
    <path id="Path_429" data-name="Path 429" d="M1326.79,1146.914a2.825,2.825,0,0,0,.345.63,2.232,2.232,0,0,0,.64-.333,5.006,5.006,0,0,0-.344-.641A5.931,5.931,0,0,0,1326.79,1146.914Z" transform="translate(-1324.868 -1135.911)" fill="#fff" fill-rule="evenodd"/>
    <path id="Path_430" data-name="Path 430" d="M1377.65,989.672a2.761,2.761,0,0,0,.65.3,1.72,1.72,0,0,0,.3-.668c-.2-.078-.429-.225-.632-.288A2.966,2.966,0,0,0,1377.65,989.672Z" transform="translate(-1374.486 -982.207)" fill="#fff" fill-rule="evenodd"/>
  </g>
  <g id="Group_23115" data-name="Group 23115" transform="translate(20.062 17.886)">
    <path id="Path_431" data-name="Path 431" d="M821.87,1125.882a7.5,7.5,0,0,0,.927.439,2.487,2.487,0,0,0,.222-.456c.04-.087.076-.159.113-.243l.079-.189a.127.127,0,0,0-.013-.074,6.278,6.278,0,0,0-.907-.409c0,.006-.012.008-.014.019l-.206.425A2.713,2.713,0,0,0,821.87,1125.882Z" transform="translate(-821.87 -1115.375)" fill="#fff" fill-rule="evenodd"/>
    <path id="Path_432" data-name="Path 432" d="M1392.38,1190.893l.354.682a.663.663,0,0,0,.145.217,5.5,5.5,0,0,0,.9-.483,2.5,2.5,0,0,0-.229-.462c-.08-.144-.167-.329-.253-.448A8.576,8.576,0,0,0,1392.38,1190.893Z" transform="translate(-1378.453 -1179.228)" fill="#fff" fill-rule="evenodd"/>
    <path id="Path_433" data-name="Path 433" d="M1190.7,733.237a2.005,2.005,0,0,0,.355.37c.018.017.039.037.061.056l.1.067a1.684,1.684,0,0,0,.487-.537,4.421,4.421,0,0,0-.517-.472A2.942,2.942,0,0,0,1190.7,733.237Z" transform="translate(-1181.696 -732.72)" fill="#fff" fill-rule="evenodd"/>
  </g>
  <g id="Group_23116" data-name="Group 23116" transform="translate(20.448 17.486)">
    <path id="Path_434" data-name="Path 434" d="M1319.92,1273.85a6.194,6.194,0,0,0,1.057.123l.122-1.023-1.051-.14Z" transform="translate(-1308.148 -1259.225)" fill="#fff" fill-rule="evenodd"/>
    <path id="Path_435" data-name="Path 435" d="M1247.825,1264.518l0-.155a.242.242,0,0,1-.081-.016c-.1-.038-.066-.034-.1-.058l-.829-.089-.136,1.044a5.636,5.636,0,0,0,1.064.1Z" transform="translate(-1236.696 -1250.826)" fill="#fff" fill-rule="evenodd"/>
    <path id="Path_436" data-name="Path 436" d="M837.67,997.263a1.735,1.735,0,0,0,.672.28c.049-.117.259-.545.275-.637a2.192,2.192,0,0,0-.673-.288A2.847,2.847,0,0,0,837.67,997.263Z" transform="translate(-837.67 -989.775)" fill="#fff" fill-rule="evenodd"/>
    <path id="Path_437" data-name="Path 437" d="M884.9,837.5a4.68,4.68,0,0,0,.317.615,2.232,2.232,0,0,0,.65-.347,3.272,3.272,0,0,0-.33-.614c-.142,0-.208.074-.323.143-.048.029-.108.061-.152.085-.028.015-.049.025-.076.043C884.916,837.466,884.95,837.438,884.9,837.5Z" transform="translate(-883.747 -834.2)" fill="#fff" fill-rule="evenodd"/>
    <path id="Path_438" data-name="Path 438" d="M1368.425,906.579c-.007.146-.129.234-.135.42a1.976,1.976,0,0,0,.64.292l.182-.33.116-.324c-.108-.05-.2-.1-.32-.152a1.539,1.539,0,0,0-.335-.136c-.083.116-.036.128-.149.229Z" transform="translate(-1355.337 -901.711)" fill="#fff" fill-rule="evenodd"/>
    <path id="Path_439" data-name="Path 439" d="M952.3,1215.767a4.77,4.77,0,0,0,.112.721,3.6,3.6,0,0,0,.724-.124,3.677,3.677,0,0,0-.127-.713Z" transform="translate(-949.503 -1203.461)" fill="#fff" fill-rule="evenodd"/>
    <path id="Path_440" data-name="Path 440" d="M1108.754,716.421l-.141.141c-.065.073-.239.22-.231.279a4.6,4.6,0,0,0,.5.484l.074-.053c.027-.02.045-.034.064-.052l.367-.409a2.428,2.428,0,0,0-.381-.392c-.116-.095-.069-.083-.154-.109C1108.8,716.357,1108.8,716.374,1108.754,716.421Z" transform="translate(-1101.773 -716.31)" fill="#fff" fill-rule="evenodd"/>
  </g>
  <g id="Group_23117" data-name="Group 23117" transform="translate(18.371 21.498)">
    <path id="Path_441" data-name="Path 441" d="M752.6,881.2a4.038,4.038,0,0,0,.507.9,9.158,9.158,0,0,0,.89-.485,5.668,5.668,0,0,0-.5-.921,2.824,2.824,0,0,0-.446.238A4.357,4.357,0,0,0,752.6,881.2Z" transform="translate(-752.6 -880.7)" fill="#fff" fill-rule="evenodd"/>
    <path id="Path_442" data-name="Path 442" d="M883.476,1209.171a7.292,7.292,0,0,0,.178,1.014l1.012-.183a4.333,4.333,0,0,0-.143-.891s-.016-.068-.017-.073a.167.167,0,0,0-.032-.068A5.471,5.471,0,0,0,883.476,1209.171Z" transform="translate(-880.279 -1200.957)" fill="#fff" fill-rule="evenodd"/>
  </g>
  <g id="Group_23118" data-name="Group 23118" transform="translate(17.719 15.17)">
    <path id="Path_443" data-name="Path 443" d="M725.87,1173.484l.586.25a3.116,3.116,0,0,0,.281.135c.125.05.174.115.322.123a5.046,5.046,0,0,0,.424-.859.773.773,0,0,0,.12-.332,8.738,8.738,0,0,0-1.215-.55l-.4.9C725.938,1173.279,725.872,1173.33,725.87,1173.484Z" transform="translate(-725.87 -1158.804)" fill="#fff" fill-rule="evenodd"/>
    <path id="Path_444" data-name="Path 444" d="M817.31,846.132a1.064,1.064,0,0,0,.221.46c.091.146.151.3.253.433a1.948,1.948,0,0,0,.486-.23c.558-.327.53-.154.077-.9-.045-.074-.07-.163-.117-.229A2.256,2.256,0,0,0,817.31,846.132Z" transform="translate(-815.078 -840.194)" fill="#fff" fill-rule="evenodd"/>
    <path id="Path_445" data-name="Path 445" d="M1460.96,980.6a5.975,5.975,0,0,0,.935.42,4.633,4.633,0,0,0,.395-.952,9.207,9.207,0,0,0-.922-.425A4.7,4.7,0,0,0,1460.96,980.6Z" transform="translate(-1443.016 -970.896)" fill="#fff" fill-rule="evenodd"/>
    <path id="Path_446" data-name="Path 446" d="M898.026,1281.023a5.654,5.654,0,0,0,.2,1.006,2.162,2.162,0,0,0,.493-.088c.07-.018.2-.04.253-.049a.572.572,0,0,0,.256-.069,4.513,4.513,0,0,0-.211-1.018c-.015,0-.4.082-.492.1A2.507,2.507,0,0,0,898.026,1281.023Z" transform="translate(-893.823 -1264.709)" fill="#fff" fill-rule="evenodd"/>
    <path id="Path_447" data-name="Path 447" d="M1146.858,1290.54c.02-.106.088-.123.155-.2a.449.449,0,0,1,.187-.163.625.625,0,0,0,.062-.113.572.572,0,0,0-.177-.171c-.131-.1-.235-.247-.37-.345-.315-.229-.154-.253-.743.375a.6.6,0,0,0-.163.2,3.555,3.555,0,0,0,.573.561c.048.037,0,0,.048.043.168.133.206.035.286-.063.057-.072.082-.068.141-.124Z" transform="translate(-1135.558 -1273.095)" fill="#fff" fill-rule="evenodd"/>
    <path id="Path_448" data-name="Path 448" d="M1440.27,868.345a3.921,3.921,0,0,0,.452.242,1.849,1.849,0,0,0,.512.19,4.265,4.265,0,0,0,.374-.953l-.444-.211a1.183,1.183,0,0,0-.465-.183Z" transform="translate(-1422.831 -861.425)" fill="#fff" fill-rule="evenodd"/>
    <path id="Path_449" data-name="Path 449" d="M992.924,1326.16a.341.341,0,0,1-.2-.2,2.279,2.279,0,0,1-.418-.37c-.068-.075-.066-.093-.2-.077-.133.223-.632.633-.622.728a2.75,2.75,0,0,0,.356.355c.071.071.338.343.415.327l.52-.55C992.861,1326.287,992.883,1326.3,992.924,1326.16Z" transform="translate(-985 -1308.323)" fill="#fff" fill-rule="evenodd"/>
    <path id="Path_450" data-name="Path 450" d="M1045.022,668.662l.113.035.041.107-.008.022c.121.017.215.156.292.228s.18.184.243.23c.144-.039.266-.281.446-.381.075-.264.49-.209.113-.533-.091-.078-.109-.117-.191-.2a1.839,1.839,0,0,0-.4-.333c-.292.327-.387.377-.684.733Z" transform="translate(-1037.2 -666.707)" fill="#fff" fill-rule="evenodd"/>
    <path id="Path_451" data-name="Path 451" d="M1311.69,693.033l.173,1.017a2.7,2.7,0,0,0,.5-.066l.366-.07c.138-.017.186-.028.135-.3-.014-.073-.038-.133-.054-.231a2.1,2.1,0,0,0-.112-.519Z" transform="translate(-1297.39 -691.116)" fill="#fff" fill-rule="evenodd"/>
    <path id="Path_452" data-name="Path 452" d="M1379.5,1125.144c-.071.129-.225.142-.349.224a.251.251,0,0,0,.063.192.414.414,0,0,1,.084.194,1.281,1.281,0,0,1,.144.232.933.933,0,0,1,.068.144.418.418,0,0,0,.105.137,4.249,4.249,0,0,0,.889-.453c0-.156-.034-.132-.093-.23-.281-.471-.231-.813-.655-.552A.772.772,0,0,1,1379.5,1125.144Z" transform="translate(-1363.208 -1112.65)" fill="#fff" fill-rule="evenodd"/>
    <path id="Path_453" data-name="Path 453" d="M791.48,1036.8l-.03.174a1.575,1.575,0,0,0,.327.154c.048.022.116.051.164.077l.17.113c.132,0,.073.053.252.075l.435-.919a4.6,4.6,0,0,0-.967-.431C791.721,1036.288,791.6,1036.558,791.48,1036.8Z" transform="translate(-789.849 -1025.919)" fill="#fff" fill-rule="evenodd"/>
    <path id="Path_454" data-name="Path 454" d="M1099.551,621.48c-.071.15-.01.119-.111.193a.725.725,0,0,0-.142.125c-.241.295-.222.084-.171.306a.475.475,0,0,0-.079.006.161.161,0,0,0-.078.036l.012.112c.052.089.2.178.3.307.047.058.3.3.361.293s.092-.083.141-.125l.056-.04c.045-.107.091-.127.167-.214.029-.033.061-.068.085-.092.076-.075.027-.039.119-.081.03-.073.073-.069.117-.161-.039-.178-.313-.272-.344-.41a.474.474,0,0,1-.267-.265c-.067-.009-.02-.03-.157-.031Z" transform="translate(-1089.863 -621.44)" fill="#fff" fill-rule="evenodd"/>
  </g>
  <g id="Group_23119" data-name="Group 23119" transform="translate(17.42 18.95)">
    <path id="Path_455" data-name="Path 455" d="M713.61,797c.107.276.493.833.648,1.172.263-.082.924-.55,1.188-.639a10.827,10.827,0,0,0-.674-1.181Z" transform="translate(-713.61 -795.86)" fill="#fff" fill-rule="evenodd"/>
    <path id="Path_456" data-name="Path 456" d="M1405.88,1033.11c.134.313.351.6.486.922a5.754,5.754,0,0,0,.937-.515,8.262,8.262,0,0,0-.511-.9Z" transform="translate(-1388.981 -1026.363)" fill="#fff" fill-rule="evenodd"/>
    <path id="Path_457" data-name="Path 457" d="M848.73,1079.226a2.775,2.775,0,0,0,.686.3l.293-.675-.673-.3A3.982,3.982,0,0,0,848.73,1079.226Z" transform="translate(-845.432 -1071.181)" fill="#fff" fill-rule="evenodd"/>
    <path id="Path_458" data-name="Path 458" d="M944.66,777.02l.723.084a3.467,3.467,0,0,0,.093-.742l-.743-.073Z" transform="translate(-939.02 -776.29)" fill="#fff" fill-rule="evenodd"/>
    <path id="Path_459" data-name="Path 459" d="M1108.82,1262.432l.523.494a4.944,4.944,0,0,0,.5-.524,2.978,2.978,0,0,0-.531-.5Z" transform="translate(-1099.172 -1250.046)" fill="#fff" fill-rule="evenodd"/>
  </g>
  <g id="Group_23120" data-name="Group 23120" transform="translate(19.363 13.7)">
    <path id="Path_460" data-name="Path 460" d="M1151.65,562.168a8.812,8.812,0,0,0,.964.923,11.159,11.159,0,0,0,.913-.953,7.894,7.894,0,0,0-.983-.928,5.681,5.681,0,0,1-.44.476C1151.962,561.838,1151.781,562,1151.65,562.168Z" transform="translate(-1142.9 -561.21)" fill="#fff" fill-rule="evenodd"/>
    <path id="Path_461" data-name="Path 461" d="M793.221,697.247l1.331.147.144-1.337-1.348-.147A10.694,10.694,0,0,0,793.221,697.247Z" transform="translate(-793.216 -692.622)" fill="#fff" fill-rule="evenodd"/>
    <path id="Path_462" data-name="Path 462" d="M1050.8,1290.65a2.647,2.647,0,0,0,.359.36,3.94,3.94,0,0,0,.391.352,2.314,2.314,0,0,0,.356-.357c.075-.084.318-.324.35-.385a3.859,3.859,0,0,0-.766-.71A7.374,7.374,0,0,0,1050.8,1290.65Z" transform="translate(-1044.512 -1272.122)" fill="#fff" fill-rule="evenodd"/>
    <path id="Path_463" data-name="Path 463" d="M1322.67,1209.1a6.343,6.343,0,0,0,1.041.1,5.762,5.762,0,0,0,.11-1.031,8.6,8.6,0,0,0-1.032-.1Z" transform="translate(-1309.746 -1192.281)" fill="#fff" fill-rule="evenodd"/>
    <path id="Path_464" data-name="Path 464" d="M1408.48,934.718c.225.055.806.416.953.413a5.356,5.356,0,0,0,.415-.953c-.143-.059-.3-.139-.442-.207a1.882,1.882,0,0,0-.494-.2,4.214,4.214,0,0,0-.217.443A2.79,2.79,0,0,0,1408.48,934.718Z" transform="translate(-1393.461 -924.676)" fill="#fff" fill-rule="evenodd"/>
    <path id="Path_465" data-name="Path 465" d="M811.61,1201.479a3.517,3.517,0,0,0,.453.223c.161.074.344.158.487.215a6.309,6.309,0,0,0,.448-.943,6.068,6.068,0,0,0-.954-.426Z" transform="translate(-811.161 -1184.943)" fill="#fff" fill-rule="evenodd"/>
    <path id="Path_466" data-name="Path 466" d="M1218.892,1327.891l-.142,1.027,1.045.129.13-1.054A9.115,9.115,0,0,0,1218.892,1327.891Z" transform="translate(-1208.363 -1309.17)" fill="#fff" fill-rule="evenodd"/>
    <path id="Path_467" data-name="Path 467" d="M1394.22,772.693a5.727,5.727,0,0,0,.182,1c.047.047.178.013.237,0s.167-.03.256-.048l.522-.1-.175-1.034Z" transform="translate(-1379.549 -767.352)" fill="#fff" fill-rule="evenodd"/>
    <path id="Path_468" data-name="Path 468" d="M844.51,911.065a7.2,7.2,0,0,1,.354.634c.24-.047.434-.253.667-.346l-.269-.47c-.056-.1-.031-.093-.11-.162C845.018,910.76,844.666,910.987,844.51,911.065Z" transform="translate(-843.258 -902.188)" fill="#fff" fill-rule="evenodd"/>
    <path id="Path_469" data-name="Path 469" d="M893.92,1155.154l.122.715a2.226,2.226,0,0,0,.72-.136,3.353,3.353,0,0,0-.136-.7Z" transform="translate(-891.462 -1140.534)" fill="#fff" fill-rule="evenodd"/>
    <path id="Path_470" data-name="Path 470" d="M1367.3,1073.62a2.178,2.178,0,0,0,.367.632l.587-.32.022-.015a6.589,6.589,0,0,0-.32-.647l-.636.334Z" transform="translate(-1353.286 -1060.77)" fill="#fff" fill-rule="evenodd"/>
    <path id="Path_471" data-name="Path 471" d="M1271.49,772.891l.113.712.725-.135-.116-.706A2.075,2.075,0,0,0,1271.49,772.891Z" transform="translate(-1259.815 -767.593)" fill="#fff" fill-rule="evenodd"/>
  </g>
  <g id="Group_23121" data-name="Group 23121" transform="translate(31.278 14.809)">
    <path id="Path_472" data-name="Path 472" d="M1396.3,1268.347a6.98,6.98,0,0,0-.146,1.335l1.291.154a7.724,7.724,0,0,0,.175-1.346A11.782,11.782,0,0,0,1396.3,1268.347Z" transform="translate(-1393.345 -1252.19)" fill="#fff" fill-rule="evenodd"/>
    <path id="Path_473" data-name="Path 473" d="M1281.32,606.886l.24,1.337,1.324-.244-.233-1.328Z" transform="translate(-1281.32 -606.65)" fill="#fff" fill-rule="evenodd"/>
  </g>
  <g id="Group_23122" data-name="Group 23122" transform="translate(18.012 13.708)">
    <path id="Path_474" data-name="Path 474" d="M1541.03,811.53l1.532.713.709-1.522c-.069-.054-1.4-.683-1.506-.71Z" transform="translate(-1521.425 -803.945)" fill="#fff" fill-rule="evenodd"/>
    <path id="Path_475" data-name="Path 475" d="M1022.08,562.539c.167.16.292.273.469.445l.482.47c.132-.111.339-.325.472-.466l.463-.508a13.176,13.176,0,0,0-.97-.919A8.1,8.1,0,0,0,1022.08,562.539Z" transform="translate(-1015.143 -561.56)" fill="#fff" fill-rule="evenodd"/>
    <path id="Path_476" data-name="Path 476" d="M737.89,991.2l.95.416.442-.967a8.459,8.459,0,0,0-.971-.408A6.527,6.527,0,0,0,737.89,991.2Z" transform="translate(-737.89 -979.776)" fill="#fff" fill-rule="evenodd"/>
    <path id="Path_477" data-name="Path 477" d="M1442.3,1087.779a4.086,4.086,0,0,0,.243.46,4.326,4.326,0,0,0,.255.451,5.673,5.673,0,0,0,.917-.5l-.42-.792a.218.218,0,0,0-.033-.055.208.208,0,0,0-.046-.053A8.832,8.832,0,0,0,1442.3,1087.779Z" transform="translate(-1425.104 -1074.457)" fill="#fff" fill-rule="evenodd"/>
    <path id="Path_478" data-name="Path 478" d="M960.935,1263.308a9.192,9.192,0,0,0,.182,1.035c.264.009.728-.147,1.033-.18l-.188-1.03C961.723,1263.115,961.228,1263.289,960.935,1263.308Z" transform="translate(-955.489 -1246.006)" fill="#fff" fill-rule="evenodd"/>
  </g>
  <g id="Group_23123" data-name="Group 23123" transform="translate(16.661 14.07)">
    <path id="Path_479" data-name="Path 479" d="M1544.66,1108.439a6.932,6.932,0,0,0,.388.737l.408.721a13.432,13.432,0,0,0,1.457-.8c-.041-.2-.64-1.124-.76-1.443a3.764,3.764,0,0,0-.775.382A6.665,6.665,0,0,0,1544.66,1108.439Z" transform="translate(-1523.614 -1094.682)" fill="#fff" fill-rule="evenodd"/>
    <path id="Path_480" data-name="Path 480" d="M811.164,1369.268a13.491,13.491,0,0,0,.326,1.652l1.632-.318-.315-1.634A16.658,16.658,0,0,0,811.164,1369.268Z" transform="translate(-808.023 -1349.62)" fill="#fff" fill-rule="evenodd"/>
    <path id="Path_481" data-name="Path 481" d="M1369.99,576.664l.289,1.648,1.63-.283c0-.016.008-.036.008-.032s.006-.018.007-.024c.011-.139.009.067,0-.05l-.281-1.545Z" transform="translate(-1353.208 -576.38)" fill="#fff" fill-rule="evenodd"/>
    <path id="Path_482" data-name="Path 482" d="M682.51,1051.859a12.774,12.774,0,0,0,1.207.55,10.046,10.046,0,0,0,.562-1.2,8.986,8.986,0,0,0-1.216-.545A9.92,9.92,0,0,0,682.51,1051.859Z" transform="translate(-682.51 -1039.083)" fill="#fff" fill-rule="evenodd"/>
    <path id="Path_483" data-name="Path 483" d="M1378.84,845.254a5.375,5.375,0,0,0,.948.439c.145-.288.309-.6.427-.915l-.089-.072c-.026-.015-.083-.036-.124-.055a2.71,2.71,0,0,0-.751-.31C1379.153,844.585,1378.877,845.07,1378.84,845.254Z" transform="translate(-1361.842 -837.799)" fill="#fff" fill-rule="evenodd"/>
    <path id="Path_484" data-name="Path 484" d="M1104.92,1340.453a5.369,5.369,0,0,0,.552.541c.036.036.057.056.091.088a.272.272,0,0,0,.123.083c.117-.109.25-.246.354-.361l.341-.381a6.159,6.159,0,0,0-.755-.714Z" transform="translate(-1094.609 -1321.077)" fill="#fff" fill-rule="evenodd"/>
    <path id="Path_485" data-name="Path 485" d="M986.667,652l.019-.108c-.063-.064-.054.041-.061-.147,0-.074.08-.313.024-.388a1.653,1.653,0,0,0-.912-.059c-.03.137.012.111-.005.269a1.709,1.709,0,0,0-.008.208c0,.153-.078.266-.033.356a1.768,1.768,0,0,0,.426.033c.238,0,.211.1.409.046C986.59,652.1,986.546,652.016,986.667,652Z" transform="translate(-978.277 -649.435)" fill="#fff" fill-rule="evenodd"/>
  </g>
  <g id="Group_23124" data-name="Group 23124" transform="translate(15.005 15.07)">
    <path id="Path_486" data-name="Path 486" d="M614.71,828.769a8.856,8.856,0,0,0,.841,1.465c.208-.092.512-.291.714-.411a5.132,5.132,0,0,0,.714-.421c-.057-.142-.752-1.356-.833-1.432C616.022,828,614.923,828.654,614.71,828.769Z" transform="translate(-614.71 -822.829)" fill="#fff" fill-rule="evenodd"/>
    <path id="Path_487" data-name="Path 487" d="M624.52,1128.369l1.513.682c.113-.234.648-1.355.677-1.514l-.171-.11c-.076-.036-.121-.058-.183-.087l-1.146-.511A12.509,12.509,0,0,0,624.52,1128.369Z" transform="translate(-624.28 -1114.393)" fill="#fff" fill-rule="evenodd"/>
    <path id="Path_488" data-name="Path 488" d="M1161.86,1380.911a9.686,9.686,0,0,0,.982.9c.113-.08.866-.9.9-.963-.144-.24-.749-.671-.957-.921A9.862,9.862,0,0,0,1161.86,1380.911Z" transform="translate(-1148.504 -1361.315)" fill="#fff" fill-rule="evenodd"/>
    <path id="Path_489" data-name="Path 489" d="M1463.33,1157.218a9.4,9.4,0,0,0,.617,1.194,3.192,3.192,0,0,0,.622-.314,2.86,2.86,0,0,0,.556-.329,9.335,9.335,0,0,0-.62-1.139A10.34,10.34,0,0,0,1463.33,1157.218Z" transform="translate(-1442.615 -1143.466)" fill="#fff" fill-rule="evenodd"/>
    <path id="Path_490" data-name="Path 490" d="M1459.08,783.123a7.376,7.376,0,0,0,1.244.568c.09-.285.518-1.03.539-1.188a6.713,6.713,0,0,0-1.218-.564Z" transform="translate(-1438.468 -777.921)" fill="#fff" fill-rule="evenodd"/>
    <path id="Path_491" data-name="Path 491" d="M895.26,618.687a11.9,11.9,0,0,0,1.356.113c.009-.224.04-.443.062-.649.013-.122.027-.2.036-.323l.022-.291c-.022-.13-.515-.118-.644-.13a4.711,4.711,0,0,0-.687-.057Z" transform="translate(-888.412 -617.348)" fill="#fff" fill-rule="evenodd"/>
    <path id="Path_492" data-name="Path 492" d="M1501.93,1033.316c.015.091.551,1.063.618,1.159a7.7,7.7,0,0,0,1.188-.623c-.1-.289-.56-.978-.612-1.162a2.513,2.513,0,0,0-.606.3C1502.343,1033.092,1502.1,1033.2,1501.93,1033.316Z" transform="translate(-1480.273 -1022.551)" fill="#fff" fill-rule="evenodd"/>
    <path id="Path_493" data-name="Path 493" d="M1292.2,1346.415l1.32.162.172-1.334-1.348-.174A10.062,10.062,0,0,0,1292.2,1346.415Z" transform="translate(-1275.652 -1327.305)" fill="#fff" fill-rule="evenodd"/>
    <path id="Path_494" data-name="Path 494" d="M1386.76,683.134l.226,1.33,1.329-.231c0-.1-.213-1.28-.236-1.305A9.742,9.742,0,0,0,1386.76,683.134Z" transform="translate(-1367.914 -681.32)" fill="#fff" fill-rule="evenodd"/>
    <path id="Path_495" data-name="Path 495" d="M915.17,1352.571a9.537,9.537,0,0,0,.247,1.295c.027.016.008.021.066.026l1.232-.264a13.037,13.037,0,0,0-.231-1.3Z" transform="translate(-907.835 -1334.388)" fill="#fff" fill-rule="evenodd"/>
    <path id="Path_496" data-name="Path 496" d="M760.213,1104.172a7.289,7.289,0,0,0,.949.4l.416-.931a5.358,5.358,0,0,0-.956-.425,2.042,2.042,0,0,0-.226.468A1.43,1.43,0,0,0,760.213,1104.172Z" transform="translate(-756.661 -1091.359)" fill="#fff" fill-rule="evenodd"/>
    <path id="Path_497" data-name="Path 497" d="M1149.27,672.008a4.766,4.766,0,0,0,.725.72,2.1,2.1,0,0,0,.368-.35,1.83,1.83,0,0,0,.352-.4,7.559,7.559,0,0,0-.75-.709A9.367,9.367,0,0,0,1149.27,672.008Z" transform="translate(-1136.221 -669.954)" fill="#fff" fill-rule="evenodd"/>
    <path id="Path_498" data-name="Path 498" d="M789.4,935.807a8.945,8.945,0,0,0,.5.884,5.882,5.882,0,0,0,.913-.5l-.491-.893A4.093,4.093,0,0,0,789.4,935.807Z" transform="translate(-785.136 -927.539)" fill="#fff" fill-rule="evenodd"/>
    <path id="Path_499" data-name="Path 499" d="M883.385,772.476a2.253,2.253,0,0,0,.651.036,6.394,6.394,0,0,0,.067-.65c.028-.278.161-.446-.245-.376a1.576,1.576,0,0,1-.387-.024,1.714,1.714,0,0,0-.18,0c-.309.008-.119.023-.221.639C882.985,772.625,883.315,772.255,883.385,772.476Z" transform="translate(-876.507 -767.696)" fill="#fff" fill-rule="evenodd"/>
  </g>
  <g id="Group_23125" data-name="Group 23125" transform="translate(16.541 11.814)">
    <path id="Path_500" data-name="Path 500" d="M791.8,590.358a11.947,11.947,0,0,0-.157,1.629l1.632.17a13.753,13.753,0,0,0,.194-1.666,8.168,8.168,0,0,0-.819-.1l-.624-.063C791.791,590.307,791.842,590.328,791.8,590.358Z" transform="translate(-788.852 -587.723)" fill="#fff" fill-rule="evenodd"/>
    <path id="Path_501" data-name="Path 501" d="M1081.244,486.042c.043-.091,0-.055.095-.117.043-.025.717-.748.768-.826a15.268,15.268,0,0,0-1.194-1.149,10.652,10.652,0,0,0-.859.886.758.758,0,0,1-.143.15.966.966,0,0,0-.07.081.541.541,0,0,0-.07.092.357.357,0,0,0,.13.151c.067.06.1.1.153.145.113.106.186.177.306.286l.6.56c.1-.042.076-.024.166-.132A.815.815,0,0,1,1081.244,486.042Z" transform="translate(-1069.953 -483.95)" fill="#fff" fill-rule="evenodd"/>
    <path id="Path_502" data-name="Path 502" d="M1381.32,1360.857l-.04.456,1.642.211c.055-.166.112-.9.135-.97s.015-.037.041-.073a2.933,2.933,0,0,1,.036-.626,14.685,14.685,0,0,0-1.664-.181Z" transform="translate(-1364.104 -1338.294)" fill="#fff" fill-rule="evenodd"/>
    <path id="Path_503" data-name="Path 503" d="M1032.76,1383.877a6.528,6.528,0,0,0,.994.9c.1-.128.306-.336.427-.46a4.258,4.258,0,0,0,.44-.5c-.033-.1-.016-.064-.094-.132a8.546,8.546,0,0,0-.874-.776,8.33,8.33,0,0,0-.677.706C1032.881,1383.714,1032.793,1383.772,1032.76,1383.877Z" transform="translate(-1024.091 -1360.966)" fill="#fff" fill-rule="evenodd"/>
    <path id="Path_504" data-name="Path 504" d="M677.63,920.672a9.026,9.026,0,0,0,.613,1.151c.14.018.411-.177.6-.281.173-.1.412-.25.592-.329a8.45,8.45,0,0,0-.657-1.183,3.832,3.832,0,0,0-.565.315C678.019,920.469,677.846,920.543,677.63,920.672Z" transform="translate(-677.63 -909.385)" fill="#fff" fill-rule="evenodd"/>
    <path id="Path_505" data-name="Path 505" d="M1502.079,905.394a.592.592,0,0,1-.139-.033c-.148-.064-.037-.012-.092-.076-.171-.059-.493-.3-.686-.267a11.644,11.644,0,0,0-.532,1.183,3.5,3.5,0,0,0,.581.28,2.125,2.125,0,0,0,.641.263,9.648,9.648,0,0,0,.532-1.2Z" transform="translate(-1480.54 -894.736)" fill="#fff" fill-rule="evenodd"/>
    <path id="Path_506" data-name="Path 506" d="M808.877,1278.883a3.671,3.671,0,0,0,.108.663,3.259,3.259,0,0,0,.155.656l1.273-.241c.017-.033.039-.021.019-.142l-.246-1.177C810.018,1278.64,809.08,1278.834,808.877,1278.883Z" transform="translate(-805.674 -1259.241)" fill="#fff" fill-rule="evenodd"/>
    <path id="Path_507" data-name="Path 507" d="M1209.559,638.143a.256.256,0,0,1-.134.144c-.057.083-.053.033-.085.139a4.043,4.043,0,0,0,.364.353c.43.39.282.49.743-.019.121-.133.279-.234.332-.393a1.177,1.177,0,0,0-.161-.177l-.563-.519a.878.878,0,0,0-.255.232A1.748,1.748,0,0,1,1209.559,638.143Z" transform="translate(-1196.36 -633.918)" fill="#fff" fill-rule="evenodd"/>
    <path id="Path_508" data-name="Path 508" d="M1325.19,765.447a9.537,9.537,0,0,0,.169,1.023l1.028-.189-.165-1Z" transform="translate(-1309.383 -758.412)" fill="#fff" fill-rule="evenodd"/>
    <path id="Path_509" data-name="Path 509" d="M955.073,712.282c.067-.087.165-.024.255-.006l.491.044c.029-.118.035-.07.054-.172a6.245,6.245,0,0,1,.078-.713c-.006,0-.016-.02-.02-.015l-.14-.124a4.962,4.962,0,0,0-.836-.068l-.116,1.033Z" transform="translate(-948.073 -705.679)" fill="#fff" fill-rule="evenodd"/>
  </g>
  <g id="Group_23126" data-name="Group 23126" transform="translate(3.893 0.899)">
    <path id="Path_510" data-name="Path 510" d="M360.53,105.639V113.5h.624l.272,0v-7.881l-.9-.015Z" transform="translate(-355.622 -103.921)" fill="#fff" fill-rule="evenodd"/>
    <path id="Path_511" data-name="Path 511" d="M1915.271,1607.935h.481l.006-4.318-.488-.008Z" transform="translate(-1872.409 -1565.364)" fill="#fff" fill-rule="evenodd"/>
    <path id="Path_512" data-name="Path 512" d="M166.84,1913.347h.609l-.007-3.449-.6,0Z" transform="translate(-166.66 -1864.177)" fill="#fff" fill-rule="evenodd"/>
    <path id="Path_513" data-name="Path 513" d="M1808.139,37.69a3.117,3.117,0,0,0,.834-.016l.012-.806a3.864,3.864,0,0,0-.841-.017Z" transform="translate(-1767.894 -36.837)" fill="#fff" fill-rule="evenodd"/>
    <path id="Path_514" data-name="Path 514" d="M2525.652,466.106l.846,0,0-.849h-.845Z" transform="translate(-2467.889 -454.802)" fill="#fff" fill-rule="evenodd"/>
    <path id="Path_515" data-name="Path 515" d="M159.46,1804.049h.5l.009-.508-.5.006Z" transform="translate(-159.46 -1760.413)" fill="#fff" fill-rule="evenodd"/>
    <path id="Path_516" data-name="Path 516" d="M194.391,1804.245h.493l.006-.505h-.5Z" transform="translate(-193.537 -1760.609)" fill="#fff" fill-rule="evenodd"/>
    <path id="Path_517" data-name="Path 517" d="M1311.681,1604.077l.5.013v-.488l-.507-.013Z" transform="translate(-1283.554 -1565.344)" fill="#fff" fill-rule="evenodd"/>
  </g>
  <g id="Group_23127" data-name="Group 23127">
    <path id="Path_518" data-name="Path 518" d="M2237.246,622.807a6.867,6.867,0,0,1,.2-2c.02-.073.055-.2.074-.267a6.139,6.139,0,0,1,1.183-2.153,5.559,5.559,0,0,1,4.029-1.9c4.366-.24,7.146,4.17,5.7,8.274a5.7,5.7,0,0,1-7.608,3.33,5.562,5.562,0,0,1-1.776-1.172A6.12,6.12,0,0,1,2237.246,622.807Zm15.99.273v-1.2c-.034-.085-.092-.89-.127-1.089-.058-.327-.138-.678-.221-1.013a9.651,9.651,0,0,0-5.914-6.487,11.154,11.154,0,0,0-6.449-.42,10.141,10.141,0,0,0-3.436,1.492c-.26.177-.5.364-.711.54a10.042,10.042,0,0,0-1.249,1.221,10.712,10.712,0,0,0-1.028,1.469,9.8,9.8,0,0,0-1.281,4.921,9.648,9.648,0,0,0,5.831,9.028,11.2,11.2,0,0,0,8.3.155,9.874,9.874,0,0,0,5.227-4.71,9.234,9.234,0,0,0,.917-2.8Z" transform="translate(-2178.316 -597.625)" fill="#fff" fill-rule="evenodd"/>
    <path id="Path_519" data-name="Path 519" d="M1599.575,629.59c.007,0,.018,0,.022.007s.018.006.024.006a.744.744,0,0,0,.083.007c.046,0,.1,0,.151,0h6.184a1.946,1.946,0,0,0,.863-.443c.275-.18.525-.35.8-.512a7.594,7.594,0,0,1,.821-.51,2.736,2.736,0,0,1-.371.4l-3.368,3.381c-.062.06-.1.1-.177.178l-.951.954c-.19.2-.973,1.011-1.13,1.121.018.228.6,2.541.653,2.721,1.873,0,5.014-.258,5.469,2a2.3,2.3,0,0,1-2.141,2.78,5.443,5.443,0,0,1-3.866-1.05,9.573,9.573,0,0,1-.993-.881,2.027,2.027,0,0,0-.305-.317l-1.457,1.364c-.246.248-1.347,1.238-1.444,1.4a9.384,9.384,0,0,0,9.427,3.109,6.023,6.023,0,0,0,4.652-4,6.085,6.085,0,0,0-.581-5.214,4.968,4.968,0,0,0-1.755-1.486l-.757-.338a7.865,7.865,0,0,0-1.72-.45c.051-.1,1.61-1.56,1.8-1.739.513-.494,1.685-1.642,2.132-2.033.131-.115.208-.191.305-.287.208-.207.4-.37.6-.579v-3.174l-12.979-.008c-.04.77-.005,2.245-.005,3.152v.238Z" transform="translate(-1559.421 -610.699)" fill="#fff" fill-rule="evenodd"/>
    <path id="Path_520" data-name="Path 520" d="M6.3,618.794l2.548,2.067a1.63,1.63,0,0,0,.4.281,5.46,5.46,0,0,0,.447-.507,5.219,5.219,0,0,1,2.856-1.988c1.634-.313,3.278.562,3.194,2.517a3.891,3.891,0,0,1-1.249,2.641,21.266,21.266,0,0,1-2.028,1.834c-.187.144-.355.3-.527.426l-1.336,1.1c-.106.093-.165.137-.277.23l-2.4,1.965c-.086.073-.165.138-.263.214L6.088,630.86a6.4,6.4,0,0,0-.058,1.7l.024,1.682c.177.058,11,.018,12.409.018.547,0,1.253-.039,1.779,0l.005-3.643c-.312-.032-5.225-.007-5.679-.007s-.932,0-1.4,0a2.217,2.217,0,0,0-1.05.392c-.279.136-1.778.9-1.937.941a8.473,8.473,0,0,1,.77-.621l5.507-4.275c1.59-1.285,3.127-2.823,3.483-4.906a6.534,6.534,0,0,0-.768-4.628,5.206,5.206,0,0,0-1.358-1.438,7.372,7.372,0,0,0-4.32-1.272,7.436,7.436,0,0,0-5.952,2.436c-.226.231-.446.487-.654.745a4.229,4.229,0,0,0-.6.809Z" transform="translate(-5.857 -599.797)" fill="#fff" fill-rule="evenodd"/>
    <path id="Path_521" data-name="Path 521" d="M1663.393,112.964c-1.192-.044-2.411.208-3.4-.6a3.028,3.028,0,0,1-.9-1.094,3.146,3.146,0,0,1,2.654-4.619c.315,0,1.747-.035,1.944.025a2.139,2.139,0,0,0-.482.244c-.049,1-.007,2.108-.007,3.122,0,.515,0,1.031,0,1.546A5.881,5.881,0,0,0,1663.393,112.964Zm.131.787-.016-.58a3.277,3.277,0,0,0,.247.279,1.705,1.705,0,0,0,1.265.341h15.165l0-7.94-.861,0c.053.48.02,6.96-.016,7.065-.184.067-11.1.024-11.139.024h-2.795c-.45,0-.915.084-1.142-.271a2.385,2.385,0,0,1-.172-1.23c0-1.86.008-3.722,0-5.583l-2.462-.007a3.953,3.953,0,0,0-1.9.569,4.071,4.071,0,0,0-.6,6.333l.26.216a3.765,3.765,0,0,0,1.73.74A14.334,14.334,0,0,0,1663.524,113.751Z" transform="translate(-1617.392 -103.266)" fill="#fff" fill-rule="evenodd"/>
    <path id="Path_522" data-name="Path 522" d="M2051.238,1606.843a1.261,1.261,0,1,1-1.019-1.461A1.237,1.237,0,0,1,2051.238,1606.843Zm-4.674,0a1.262,1.262,0,1,1-1-1.462A1.243,1.243,0,0,1,2046.564,1606.843Zm-11.819.5a2.2,2.2,0,0,1-1.259-.212,1.089,1.089,0,0,1,.042-1.873c.471-.292.674-.167,1.225-.221Zm6.976,0-1.528-.005a4.755,4.755,0,0,0-.09-1.3,1.161,1.161,0,0,0-.679-.721,15.033,15.033,0,0,0-2.676-.083c.1-.27.835-1.543.87-1.733h-.523c-.076.21-.706,1.318-.863,1.637-.11.224.075.452.171.588.818,0,1.638-.005,2.455,0a.756.756,0,0,1,.781.453,4.109,4.109,0,0,1,.059,1.144c-.151.04-4.161.048-4.451.008v-2.78a3.913,3.913,0,0,0-1.941.274,1.54,1.54,0,0,0-.815,1.391,1.459,1.459,0,0,0,.821,1.356,4.142,4.142,0,0,0,1.949.254c2.914,0,5.827.005,8.741,0a.827.827,0,0,1,.251.19,2.11,2.11,0,0,0,.273.171,1.788,1.788,0,0,0,2.062-.352l2.14-.007a1.768,1.768,0,0,0,2.024.382,1.481,1.481,0,0,0,.28-.163c.037-.028.1-.074.135-.107l.118-.108c.113-.036,2.227.038,2.452-.021l0-4.288a.8.8,0,0,0-.224-.019.483.483,0,0,0-.254.026c-.065.222.019,3.19-.021,3.81h-1.615a2.556,2.556,0,0,0,.111-.946,1.672,1.672,0,0,0-.309-.795,1.736,1.736,0,0,0-3.15.822,2.351,2.351,0,0,0,.111.911l-1.458.008a1.865,1.865,0,0,0,.131-.916,1.744,1.744,0,0,0-3.463-.025,2.331,2.331,0,0,0,.122.933l-1.5.011c-.071-.663.06-3.581-.028-3.836l-.46-.006Z" transform="translate(-1982.875 -1564.358)" fill="#fff" fill-rule="evenodd"/>
    <path id="Path_523" data-name="Path 523" d="M384.23,1607.411c-.882.119-1.812-.209-1.791-1.145.019-.854.921-1.271,1.793-1.12Zm1.948-1.859a1.77,1.77,0,0,1,2.308,0c-.007.194-.609,1.535-.736,1.869H386.9C386.789,1607.119,386.17,1605.73,386.178,1605.552Zm11.461,1.853a6.329,6.329,0,0,1-1.054,0,1.05,1.05,0,0,1-.7-.353c-.11-.141-.038-.281-.034-.491l0-1.635h-.482c-.009.569.018,1.164-.006,1.725-.05,1.186-1.78,1.011-1.848.031a15.639,15.639,0,0,1,.01-1.748l-.494-.006a12.477,12.477,0,0,1-.073,2.047c-.246.574-.988.437-1.659.447l-.01-2.49-.492-.005,0,2.481-2.507.008a2.379,2.379,0,0,1,.191-.51,11.57,11.57,0,0,0,.6-1.535,3.723,3.723,0,0,0-.732-.5,2.3,2.3,0,0,0-2.79.5,6.554,6.554,0,0,0,.4,1.029,10.129,10.129,0,0,1,.416,1.006l-1.638.011-.01-2.79a4.056,4.056,0,0,0-1.85.23,1.6,1.6,0,0,0-.9,1.182,1.476,1.476,0,0,0,.575,1.48,3.071,3.071,0,0,0,1.682.4c.072.765-.5.879-1.1.805-.193-.024-.338-.122-.532-.153l-.134.458c.659.26,1.715.367,2.1-.339a1.733,1.733,0,0,0,.169-.783H391.5a2.255,2.255,0,0,0,1.466-.233c.243-.182.2-.216.317-.282.161.134.1.213.461.406a1.558,1.558,0,0,0,1.831-.278c.012-.014.05-.067.051-.068.064-.072-.008-.016.078-.065.394.727,1.54.481,2.426.526,0-.508.04-4.145-.021-4.3-.032-.019.029-.019-.1-.035l-.365.008Z" transform="translate(-372.621 -1564.435)" fill="#fff" fill-rule="evenodd"/>
    <path id="Path_524" data-name="Path 524" d="M1246.93,113.228h.875v-5.453a1.31,1.31,0,0,0-.128-.8,3.273,3.273,0,0,1-.266-.671,6.393,6.393,0,0,1,.706.851c.367.43.975,1.259,1.361,1.732.7.854,1.37,1.778,2.046,2.593l1.352,1.711.017.017a3.6,3.6,0,0,0,.734.016c0-2.493-.032-5.172,0-7.653,0-.315.024-.248-.3-.246a2.118,2.118,0,0,0-.551.02l-.028,5.667a3.85,3.85,0,0,0,.324,1,3.7,3.7,0,0,1-.5-.578l-4.806-6.1-.835-.011Z" transform="translate(-1216.492 -102.749)" fill="#fff" fill-rule="evenodd"/>
    <path id="Path_525" data-name="Path 525" d="M863.61,104.453a3.142,3.142,0,1,1-6.029-1.465,2.905,2.905,0,0,1,.23-.567,3.027,3.027,0,0,1,3.1-1.6A3.187,3.187,0,0,1,863.61,104.453Zm-3.378-4.471a4.212,4.212,0,0,0-1.6.437,3.933,3.933,0,0,0-1.882,2.159,4.055,4.055,0,1,0,7.8,1.171A3.992,3.992,0,0,0,862,100.217,4.124,4.124,0,0,0,860.232,99.982Z" transform="translate(-835.583 -97.526)" fill="#fff" fill-rule="evenodd"/>
    <path id="Path_526" data-name="Path 526" d="M2632.152,110.13a8.315,8.315,0,0,1-1.285-.015,1.966,1.966,0,0,1-1.845-2.161,2.049,2.049,0,0,1,1.13-1.545,5.019,5.019,0,0,1,2.41-.278.529.529,0,0,1-.206.134,1.149,1.149,0,0,0-.2.11Zm-.267.855c.036-.08.068-.156.107-.241.116-.248.048-.172.161-.228.019.9.073,1.538-.706,1.827a2.888,2.888,0,0,1-1.652-.022c-.147-.048-.356-.152-.48-.177a3,3,0,0,0-.254.817,7.649,7.649,0,0,0,1.2.316,3.464,3.464,0,0,0,1.39-.1c1.569-.489,1.349-2,1.349-3.262,0-.743.042-4.424-.017-4.623a12.33,12.33,0,0,0-1.719,0,3.894,3.894,0,0,0-2,.689,2.839,2.839,0,0,0-1.053,1.619,2.648,2.648,0,0,0,.848,2.626A4.395,4.395,0,0,0,2631.885,110.984Z" transform="translate(-2564 -102.687)" fill="#fff" fill-rule="evenodd"/>
    <path id="Path_527" data-name="Path 527" d="M454.507,106.8a3.814,3.814,0,0,1-.27.32,1.143,1.143,0,0,0-.257.358,4.843,4.843,0,0,0,1.893,1.066,3.564,3.564,0,0,0,3.505-.652,2.013,2.013,0,0,0-.4-3.073c-1.533-.911-3.852-.514-3.794-2.2.029-.85.953-1.259,1.8-1.216a3.374,3.374,0,0,1,1.7.529,2.66,2.66,0,0,0,.471.3l.5-.655a3.306,3.306,0,0,0-.891-.587,3.76,3.76,0,0,0-3.6.1,1.867,1.867,0,0,0-.688.8,2.066,2.066,0,0,0-.168,1.267c.4,2.323,4,1.526,4.583,2.882a1.289,1.289,0,0,1-.118,1.22c-.692.951-2.373.739-3.373.189A9.413,9.413,0,0,1,454.507,106.8Z" transform="translate(-442.898 -98.124)" fill="#fff" fill-rule="evenodd"/>
    <path id="Path_528" data-name="Path 528" d="M0,105.6v.049l2.544,5.915c.279.673.563,1.348.856,2h.792l1.7-3.969c.285-.658.564-1.37.853-1.995.085-.184.148-.336.215-.5s.143-.333.215-.507a10.647,10.647,0,0,1,.427-.979l-.974-.014c-.05.152-.13.316-.183.444-.072.174-.114.284-.184.445l-2.2,5.289a.714.714,0,0,0-.1.52,1.981,1.981,0,0,1,.031.577L1.042,105.7c-.07-.145.011-.048-.091-.1H0Z" transform="translate(0 -103.022)" fill="#fff" fill-rule="evenodd"/>
    <path id="Path_529" data-name="Path 529" d="M1552.466,1605.362a1.675,1.675,0,0,1,1.148-.454,1.937,1.937,0,0,1,1.18.425l-.734,1.866h-.861a4.376,4.376,0,0,0-.179-.466c-.068-.166-.126-.3-.193-.46s-.136-.332-.19-.474A3.419,3.419,0,0,1,1552.466,1605.362Zm4.149,1.828-2.013.009c.022-.254.823-1.887.8-2.016a2.927,2.927,0,0,0-.749-.534,2.294,2.294,0,0,0-2.787.5,1.5,1.5,0,0,0,.186.523c.073.168.147.355.209.5a5.555,5.555,0,0,1,.4,1.024l-1.75,0-.013-2.788-.487,0v2.376c0,1.528.158,1.729-.689,1.718l-.14.445a1.07,1.07,0,0,0,1.036-.168c.285-.284.248-.635.285-1.082.2-.052,5.824-.014,6.2-.016.055-.559.005-3.056.011-4.019l0-.209c-.014-.078-.018-.059-.026-.076a1.235,1.235,0,0,0-.462-.013Z" transform="translate(-1511.754 -1564.215)" fill="#fff" fill-rule="evenodd"/>
    <path id="Path_530" data-name="Path 530" d="M1221.512,1647.08c.094.351,0,1.8.021,2.295a2.209,2.209,0,0,1-1.257-.2,1.093,1.093,0,0,1,.021-1.873A1.986,1.986,0,0,1,1221.512,1647.08Zm5.2,2.791.006-3.28-.482,0v2.785l-1.8,0c-.043-.189-.016-2.391-.016-2.779l-.492-.007v2.784l-1.908,0,0-2.786c-.876.008-1.969-.089-2.529.831a1.682,1.682,0,0,0-.15,1.37c.528,1.39,2.481,1.077,3.986,1.077C1224.447,1649.868,1225.61,1649.835,1226.717,1649.87Z" transform="translate(-1189.5 -1606.396)" fill="#fff" fill-rule="evenodd"/>
    <path id="Path_531" data-name="Path 531" d="M2886.99,112.978a2.935,2.935,0,0,0-.2.8,2.556,2.556,0,0,0,1.142.043,1.29,1.29,0,0,0,.782-.517,4.086,4.086,0,0,0,.359-2.261c0-.569-.04-5.058.014-5.189l-.87-.016c-.033,1.393,0,2.812,0,4.2,0,.675.159,2.544-.3,2.858a.729.729,0,0,1-.421.126C2887.281,113.03,2887.149,112.971,2886.99,112.978Z" transform="translate(-2816.319 -103.256)" fill="#fff" fill-rule="evenodd"/>
    <path id="Path_532" data-name="Path 532" d="M756.76,113.34a3.225,3.225,0,0,0,.9,0v-7.6a.617.617,0,0,1,.024-.258c-.221.008-.624-.039-.91-.015Z" transform="translate(-738.287 -102.88)" fill="#fff" fill-rule="evenodd"/>
    <path id="Path_533" data-name="Path 533" d="M2.248,1646.872l.011,2.315c-.526-.042-.817.044-1.244-.214a1.089,1.089,0,0,1,0-1.867C1.487,1646.81,1.667,1646.925,2.248,1646.872ZM0,1647.736v.564c.049.078.145,1.316,1.873,1.36.433.011,3.062.053,3.254-.015.08-.2.025-2.794.025-3.252l-.494,0v2.786c-.246.014-1.762.03-1.9-.013l-.006-2.771a3.986,3.986,0,0,0-1.813.212,1.657,1.657,0,0,0-.581.436,1.692,1.692,0,0,0-.279.5.644.644,0,0,1-.074.2Z" transform="translate(0 -1606.195)" fill="#fff" fill-rule="evenodd"/>
    <path id="Path_534" data-name="Path 534" d="M878.892,1910.966c.107.07.891,1.349,1.069,1.565.137-.092.925-1.422,1.1-1.574l.005,2.423.616-.01-.006-3.437-.644,0a3.365,3.365,0,0,0-.258.383c-.084.124-.165.265-.254.4-.1.161-.172.26-.255.392l-.273.4c-.169-.1-.869-1.381-1.07-1.583l-.639.015-.012,3.432.614-.008Z" transform="translate(-856.831 -1863.307)" fill="#fff" fill-rule="evenodd"/>
    <path id="Path_535" data-name="Path 535" d="M2661.016,1911.528a6.1,6.1,0,0,1,1.06-.023c.313.025.587.128.58.486,0,.334-.3.418-.617.442a3.407,3.407,0,0,1-1.024-.039c0-.005-.008-.015-.011-.022l-.011-.172c0-.079,0-.158,0-.238A1.576,1.576,0,0,1,2661.016,1911.528Zm0-1.428.024-.01.081-.018c.016,0,.072,0,.091,0,.385,0,.976-.058,1.166.183a.413.413,0,0,1-.046.568c-.23.215-.972.172-1.311.143a.389.389,0,0,1-.027-.225A3.38,3.38,0,0,1,2661.016,1910.1Zm1.607,1.1c.117-.142.2-.111.33-.321a.823.823,0,0,0,.124-.462c0-.892-.951-.887-1.508-.887a9.8,9.8,0,0,0-1.175.015l0,3.417a11.916,11.916,0,0,0,1.328.017,2.043,2.043,0,0,0,1.121-.194.689.689,0,0,0,.335-.345A.846.846,0,0,0,2662.623,1911.2Z" transform="translate(-2595.448 -1862.905)" fill="#fff" fill-rule="evenodd"/>
    <path id="Path_536" data-name="Path 536" d="M230.408,1911.023c.1.054.893,1.115.954,1.193l.945,1.2.5-.016,0-3.431-.6.01-.005,2.311a.446.446,0,0,1-.139-.145c-.044-.056-.082-.1-.12-.146-.067-.087-.147-.2-.222-.286l-.91-1.173c-.08-.1-.14-.183-.219-.284a3.13,3.13,0,0,1-.215-.286H229.8l0,3.446h.6Z" transform="translate(-224.19 -1863.347)" fill="#fff" fill-rule="evenodd"/>
    <path id="Path_537" data-name="Path 537" d="M702.11,1908.042a1.182,1.182,0,1,1-.788,1.859A1.224,1.224,0,0,1,702.11,1908.042Zm-.145,2.978h.687a1.36,1.36,0,0,1,.341-.117,1.792,1.792,0,1,0-1.626-.123l.435.179.1.025A.171.171,0,0,1,701.964,1911.02Z" transform="translate(-683.403 -1860.895)" fill="#fff" fill-rule="evenodd"/>
    <path id="Path_538" data-name="Path 538" d="M2352.744,1909.932a9.918,9.918,0,0,1,1.047.01.532.532,0,0,1,.535.553c.01.742-1,.581-1.586.581Zm1.412,1.6.022-.017c.005,0,.014-.012.02-.016l.042-.025.179-.082a.93.93,0,0,0,.484-.587,1.169,1.169,0,0,0-.243-1.1,1.555,1.555,0,0,0-1.111-.339c-.406,0-1.04-.037-1.418.007l0,3.44.61-.01.007-1.188.753,0c.117.2.248.366.413.594l.405.6.733-.016-.45-.628C2354.506,1912.042,2354.221,1911.671,2354.156,1911.536Z" transform="translate(-2294.713 -1862.748)" fill="#fff" fill-rule="evenodd"/>
    <path id="Path_539" data-name="Path 539" d="M1108.651,1909.775a1.2,1.2,0,0,1,.887-1.457,1.157,1.157,0,0,1,1.387.93,1.192,1.192,0,0,1-.881,1.456A1.157,1.157,0,0,1,1108.651,1909.775Zm.828,1.517h.587a2.02,2.02,0,0,0,1.1-.6,1.811,1.811,0,0,0,.425-1.3,1.738,1.738,0,0,0-1.785-1.652,1.781,1.781,0,0,0-1.421,2.924A2.022,2.022,0,0,0,1109.479,1911.292Z" transform="translate(-1080.936 -1861.166)" fill="#fff" fill-rule="evenodd"/>
    <path id="Path_540" data-name="Path 540" d="M1912.147,1912.4l-.013-2.322a2.365,2.365,0,0,1,1.337.167,1.172,1.172,0,0,1-.582,2.158A5.854,5.854,0,0,1,1912.147,1912.4Zm-.627.547a9.73,9.73,0,0,0,1.175.01,2.116,2.116,0,0,0,1.022-.2,1.64,1.64,0,0,0,.924-1.524,1.728,1.728,0,0,0-1.916-1.718,9.946,9.946,0,0,0-1.2.015Z" transform="translate(-1864.858 -1862.891)" fill="#fff" fill-rule="evenodd"/>
    <path id="Path_541" data-name="Path 541" d="M550.216,1910.054a2.894,2.894,0,0,1,1.246.12,1.174,1.174,0,0,1-.621,2.214h-.625v-2.333Zm-.616,2.876a10.824,10.824,0,0,0,1.211.012,1.736,1.736,0,1,0-.03-3.449c-.341,0-.86-.03-1.18.008Z" transform="translate(-536.184 -1862.87)" fill="#fff" fill-rule="evenodd"/>
    <path id="Path_542" data-name="Path 542" d="M384.841,1911.131h.5a4.123,4.123,0,0,0,.65-.2c.107-.054.437-.216.493-.344a10.447,10.447,0,0,0,.017-1.436h-1.465v.534l.875.007v.609a1.345,1.345,0,0,1-1.386.149,1.277,1.277,0,0,1,.13-2.246,1.531,1.531,0,0,1,1.357.281,3.5,3.5,0,0,0,.35-.443,1.62,1.62,0,0,0-.695-.392,1.822,1.822,0,0,0-2.156,2.655A1.774,1.774,0,0,0,384.841,1911.131Z" transform="translate(-373.917 -1861.006)" fill="#fff" fill-rule="evenodd"/>
    <path id="Path_543" data-name="Path 543" d="M20.855,1911.361a9.109,9.109,0,0,1,.7-.751c.1-.116.242-.242.354-.357a3.609,3.609,0,0,0,.335-.369c-.17-.01-.362,0-.535,0-.219,0-.22.018-.347.153-.143.153-.332.351-.49.519l-1,1.034-.01-1.706h-.6v3.449h.6l0-.985a5.792,5.792,0,0,1,.529-.523c.081.035.044,0,.11.089l1.05,1.411.75.009Z" transform="translate(-18.8 -1863.257)" fill="#fff" fill-rule="evenodd"/>
    <path id="Path_544" data-name="Path 544" d="M1595.058,1909.891c.1.1.078.143.152.3.055.12.1.214.146.329a4.282,4.282,0,0,1,.271.686h-1.133l.509-1.241C1595.044,1909.892,1595.036,1909.916,1595.058,1909.891Zm-1.778,2.673a1.594,1.594,0,0,0,.606,0l.364-.816h1.62a6.334,6.334,0,0,0,.361.812,2.349,2.349,0,0,0,.619.021,5.7,5.7,0,0,0-.36-.87l-.94-2.153a3.634,3.634,0,0,0-.194-.429l-.584-.017-1.312,3.025A4.526,4.526,0,0,0,1593.28,1912.564Z" transform="translate(-1554.387 -1862.507)" fill="#fff" fill-rule="evenodd"/>
    <path id="Path_545" data-name="Path 545" d="M2183.406,1911.248a5.723,5.723,0,0,1,.282-.678c.082-.2.179-.458.267-.646.081.06,0-.035.075.074l.037.084.5,1.163Zm-.594,1.36a7.382,7.382,0,0,0,.358-.822h1.611a3.937,3.937,0,0,1,.189.416,1.365,1.365,0,0,0,.191.414h.62c-.062-.227-.6-1.395-.753-1.747l-.759-1.717-.565.015c-.084.191-1.466,3.258-1.494,3.453Z" transform="translate(-2128.941 -1862.547)" fill="#fff" fill-rule="evenodd"/>
    <path id="Path_546" data-name="Path 546" d="M2858.995,1911.257c.013-.083.514-1.241.565-1.308a8.226,8.226,0,0,1,.577,1.318Zm-.236.548,1.6,0c.143.227.273.671.357.81a2.4,2.4,0,0,0,.65.005c-.058-.143-1.468-3.427-1.542-3.453l-.552,0c-.031.151-.444,1.033-.559,1.309-.159.384-.89,1.972-.928,2.159l.62-.014Z" transform="translate(-2788.029 -1862.566)" fill="#fff" fill-rule="evenodd"/>
    <path id="Path_547" data-name="Path 547" d="M1755.209,1913.345h.487c.153-.056.316-.05.488-.124a1.247,1.247,0,0,0,.769-1.014c.06-.341.047-1.944.032-2.365h-.6c-.045.607.01,1.3-.007,1.927-.016.6-.244,1.027-.877,1.008-.652-.018-.848-.443-.852-1.039,0-.616.028-1.292,0-1.9l-.609.018c-.026.254-.021,2.047.017,2.279C1754.23,1913.223,1754.924,1913.2,1755.209,1913.345Z" transform="translate(-1711.203 -1863.219)" fill="#fff" fill-rule="evenodd"/>
    <path id="Path_548" data-name="Path 548" d="M2491.51,1910.967a14.524,14.524,0,0,1,.563-1.356c.071.2.2.451.288.655a3.24,3.24,0,0,1,.272.7Zm-.6,1.354c.125-.208.227-.633.367-.817l1.605,0,.347.83h.64l-.371-.891c-.159-.327-1.037-2.426-1.152-2.573-.717,0-.5-.105-.733.406-.071.152-.119.28-.189.433-.27.581-.491,1.174-.76,1.736l-.378.889Z" transform="translate(-2429.501 -1862.265)" fill="#fff" fill-rule="evenodd"/>
    <path id="Path_549" data-name="Path 549" d="M1471.506,1911.524h.471c.008-.005.019-.021.023-.013a1.821,1.821,0,0,0,.64-.286.975.975,0,0,0,.083-1.36c-.567-.49-1.447-.391-1.648-.757a.407.407,0,0,1,.032-.4c.2-.274.761-.2,1.09-.042.116.058.2.133.327.188a2.146,2.146,0,0,0,.321-.451c-.964-.76-2.317-.443-2.413.414a.874.874,0,0,0,.353.906c.624.418,1.621.24,1.558.879-.041.42-.81.479-1.318.189l-.375-.246a2.984,2.984,0,0,0-.35.414C1470.566,1911.348,1471.493,1911.517,1471.506,1911.524Z" transform="translate(-1434.409 -1861.398)" fill="#fff" fill-rule="evenodd"/>
    <path id="Path_550" data-name="Path 550" d="M1286.37,1913.415l.61.011,0-1.4,1.747,0-.01-.56a14.372,14.372,0,0,1-1.707-.02,4.321,4.321,0,0,1-.022-.9h1.969l-.015-.55-2.563-.01Z" transform="translate(-1254.969 -1863.356)" fill="#fff" fill-rule="evenodd"/>
    <path id="Path_551" data-name="Path 551" d="M239.49,1647.065c.475,0,1.138-.058,1.19.764a12.537,12.537,0,0,1,0,1.532c-.192.009-2.1-.023-2.231.026a1.828,1.828,0,0,0-.018.462l2.737,0a7.285,7.285,0,0,0-.168-2.662,1.191,1.191,0,0,0-.6-.522,2.4,2.4,0,0,0-.906-.09Z" transform="translate(-232.606 -1606.38)" fill="#fff" fill-rule="evenodd"/>
    <path id="Path_552" data-name="Path 552" d="M2752.145,0h-.844a.883.883,0,0,0-.683.561,3.793,3.793,0,0,0-.061,1.188,15.024,15.024,0,0,0,1.832-.012l.011-.62a10.477,10.477,0,0,0-1.153-.025c-.049-.621.162-.5.883-.5l.014-.59Z" transform="translate(-2683.394)" fill="#fff" fill-rule="evenodd"/>
    <path id="Path_553" data-name="Path 553" d="M1102.22,1607.574l.478,0c.01-.073.046-4.032.012-4.226-.024-.138-.228-.113-.487-.088Z" transform="translate(-1075.314 -1564.106)" fill="#fff" fill-rule="evenodd"/>
    <path id="Path_554" data-name="Path 554" d="M2959.643,1603.639l-.022.048c-.037.188.006-.108-.01.055-.029.316.006,4.12.016,4.2l.474,0v-4.315l-.384-.01C2959.567,1603.616,2959.7,1603.613,2959.643,1603.639Z" transform="translate(-2887.354 -1564.47)" fill="#fff" fill-rule="evenodd"/>
    <path id="Path_555" data-name="Path 555" d="M2070.45,1913.38c.1-.006.2,0,.3,0a.636.636,0,0,0,.311-.031l.01-3.413-.615-.005Z" transform="translate(-2019.909 -1863.307)" fill="#fff" fill-rule="evenodd"/>
    <path id="Path_556" data-name="Path 556" d="M2808.791,1913.485l.609,0-.007-3.441-.6,0Z" transform="translate(-2740.225 -1863.414)" fill="#fff" fill-rule="evenodd"/>
    <path id="Path_557" data-name="Path 557" d="M1876.809,37.93l.839.013a4.028,4.028,0,0,0,.007-.848l-.829-.006Z" transform="translate(-1830.995 -36.185)" fill="#fff" fill-rule="evenodd"/>
    <path id="Path_558" data-name="Path 558" d="M2456.563,465.75l.844,0c.005-.164-.049-.772.028-.831a4.046,4.046,0,0,0-.875-.013Z" transform="translate(-2396.593 -453.542)" fill="#fff" fill-rule="evenodd"/>
    <path id="Path_559" data-name="Path 559" d="M1432.491,1803.1v.5l.5,0,.009-.12,0-.089-.01-.314Z" transform="translate(-1397.522 -1759.065)" fill="#fff" fill-rule="evenodd"/>
    <path id="Path_560" data-name="Path 560" d="M1398.051,1804.095h.5l0-.491-.5-.015Z" transform="translate(-1363.923 -1759.563)" fill="#fff" fill-rule="evenodd"/>
    <path id="Path_561" data-name="Path 561" d="M2124.67,1603.969l.5.025c.018-.224.042-.477-.072-.5a1.413,1.413,0,0,0-.428.014Z" transform="translate(-2072.805 -1564.345)" fill="#fff" fill-rule="evenodd"/>
    <path id="Path_562" data-name="Path 562" d="M2090.021,1604.225l.5.007,0-.488-.5,0Z" transform="translate(-2039.001 -1564.591)" fill="#fff" fill-rule="evenodd"/>
    <path id="Path_563" data-name="Path 563" d="M1276.98,1604.1l.5.025c.008-.1,0-.164.005-.256,0-.04,0-.312-.053-.232l-.2-.014a.972.972,0,0,0-.253.02Z" transform="translate(-1245.808 -1564.477)" fill="#fff" fill-rule="evenodd"/>
    <path id="Path_564" data-name="Path 564" d="M1504.88,1804.131l.489.005,0-.5-.49,0Z" transform="translate(-1468.145 -1759.612)" fill="#fff" fill-rule="evenodd"/>
  </g>
  <path id="Path_565" data-name="Path 565" d="M911.78,796.067c-.061-.027-.082-.066-.134-.126a.92.92,0,0,0-1.388.08,1.152,1.152,0,0,1,.634-.011c.137.046.372.156.407.3a1.536,1.536,0,0,0-1.067.121,1.049,1.049,0,0,0-.539.789c.286-.157.349-.608,1.31-.539-.328.173-.568.129-.943.652a1.462,1.462,0,0,0-.128,1.295,1.51,1.51,0,0,1,1.066-1.5,1.993,1.993,0,0,0-.542,2.122.229.229,0,0,0,.078.134,2.077,2.077,0,0,1,.495-1.585c.075-.069,0-.025.107-.069a2.437,2.437,0,0,1-.09.263,1.9,1.9,0,0,0,.388,1.875,3.282,3.282,0,0,1-.1-1.049c.043-.287.185-.657.434-.749a15.24,15.24,0,0,1,.048,3.194c-.032.312-.1.732-.115,1.018a2.1,2.1,0,0,1-.5-.333,4.507,4.507,0,0,0-3.248-.8,3.331,3.331,0,0,0-1.213.434,4.274,4.274,0,0,0,.63-.129,4.427,4.427,0,0,1,2.208.22,6.8,6.8,0,0,1,1.607.891,4.246,4.246,0,0,1,.482.386,13.8,13.8,0,0,1-1.79,1.543c-.547-.433-.936.176-.7.493.588.789,1.964-.85,2.468-1.277l.431-.389a1.1,1.1,0,0,1,.211.163,16.552,16.552,0,0,0,1.514,1.37c1.012.785,1.558-.038,1.1-.421-.226-.189-.438-.062-.6.061a10.153,10.153,0,0,1-1.677-1.412c-.076-.063-.05-.016-.112-.1.036-.1.123-.145.212-.212a7.209,7.209,0,0,1,1.83-1.083,4.421,4.421,0,0,1,2.859-.081c-.022-.1-.016-.066-.213-.156a4.3,4.3,0,0,0-4.206.493,2.333,2.333,0,0,1-.52.339,18.385,18.385,0,0,1-.1-3.937c0-.032.007-.1.01-.127s.006-.042.009-.052a.171.171,0,0,1,.036-.075c.5.238.508,1.232.3,1.77.211-.074.437-.685.476-.974a2.079,2.079,0,0,0-.193-1.179c.18.036.437.494.5.68a1.959,1.959,0,0,1,.111.483,3.455,3.455,0,0,0,.019.536,1.843,1.843,0,0,0-.274-2.037.958.958,0,0,1-.178-.216,1.24,1.24,0,0,1,.744.511,1.771,1.771,0,0,1,.311.966,1.471,1.471,0,0,0-.137-1.286,1.606,1.606,0,0,0-.962-.653,1.344,1.344,0,0,1,1.3.557c.166-.336-.632-1.236-1.58-.92a.353.353,0,0,1,.153-.183,1.009,1.009,0,0,1,.241-.117,1.3,1.3,0,0,1,.65,0,.786.786,0,0,0-.31-.252.84.84,0,0,0-.463-.1c-.519.021-.47.251-.742.408a2.053,2.053,0,0,1-.183-.4,3.176,3.176,0,0,0-.139-.452A5.375,5.375,0,0,1,911.78,796.067Z" transform="translate(-884.606 -775.798)" fill="#fff" fill-rule="evenodd"/>
  <path id="Path_566" data-name="Path 566" d="M1092.195,1448.378c.016-.089.027-.075.083-.127l.278-.319c-.059-.128-.073-.069-.134-.191l-.121-.092c-.128-.115-.83-.8-.937-.848-.08.033-.754.79-.859.9-.331.347-.352.3.186.754l.453.412c.146.131.126.194.353.242Z" transform="translate(-1063.653 -1411.483)" fill="#fff" fill-rule="evenodd"/>
  <path id="Path_567" data-name="Path 567" d="M801.065,778.333c.008.005.019,0,.022.017l.062.071a1.1,1.1,0,0,0,.19.3c.123-.049.018-.008.088-.043l.328-.151c.121-.11.332-.174.447-.269.054-.1-.441-.875-.476-.914a1.64,1.64,0,0,0-.451.224c-.124.069-.327.176-.455.256C800.884,778.027,801.05,778.2,801.065,778.333Z" transform="translate(-781.271 -758.364)" fill="#fff" fill-rule="evenodd"/>
  <path id="Path_568" data-name="Path 568" d="M882.4,706.043l-.057.667a1.831,1.831,0,0,0,.578.063l.417.021.076-.957-.549-.06c-.438-.044-.4.011-.415.119C882.426,706.054,882.462,705.986,882.4,706.043Z" transform="translate(-860.802 -688.534)" fill="#fff" fill-rule="evenodd"/>
  <path id="Path_569" data-name="Path 569" d="M1328.39,834.166l.112.7c.114.046.2.009.362-.022.12-.023.245-.054.378-.067l-.125-.723Z" transform="translate(-1295.963 -813.69)" fill="#fff" fill-rule="evenodd"/>
  <path id="Path_570" data-name="Path 570" d="M983.032,648.141c-.121.013-.078.1-.141.209-.2.052-.171-.044-.409-.046a1.779,1.779,0,0,1-.426-.033c-.045-.091.03-.2.033-.356a1.616,1.616,0,0,1,.008-.208c.017-.158-.025-.132.005-.269a1.653,1.653,0,0,1,.912.059c.056.075-.027.314-.024.388.007.188,0,.083.061.147l.061-.624a6.773,6.773,0,0,0-1.059-.1l-.1,1.03a8.356,8.356,0,0,0,1.05.1Z" transform="translate(-957.98 -631.503)" fill="#fff" fill-rule="evenodd"/>
  <path id="Path_571" data-name="Path 571" d="M884.7,702.5l-.022.286c.065-.057.028.011.05-.147.015-.108-.024-.163.415-.119l.549.06-.077.957-.416-.021c.006,0,.016,0,.02.013a.873.873,0,0,0,.452.036,4.814,4.814,0,0,0,.062-1.039l-1.013-.1Z" transform="translate(-863.084 -685.273)" fill="#fff" fill-rule="evenodd"/>
  <path id="Path_572" data-name="Path 572" d="M880.11,769.663c-.071-.221-.4.148-.313-.378.1-.616-.089-.631.221-.639a1.778,1.778,0,0,1,.179,0,1.579,1.579,0,0,0,.387.025c-.059-.046-.048-.036-.177-.048a4.34,4.34,0,0,0-.6-.049l-.11,1.045Z" transform="translate(-858.226 -749.813)" fill="#fff" fill-rule="evenodd"/>
  <path id="Path_573" data-name="Path 573" d="M964.39,715.095l.818.091a4.57,4.57,0,0,0,.089-1.065l-.189-.01.14.124c0-.005.013.01.019.015a6.318,6.318,0,0,0-.078.713c-.02.1-.025.053-.054.171l-.491-.044C964.555,715.07,964.457,715.007,964.39,715.095Z" transform="translate(-940.849 -696.678)" fill="#fff" fill-rule="evenodd"/>
  <path id="Path_574" data-name="Path 574" d="M1095.949,623.849l-.012-.112a.164.164,0,0,1,.079-.036.456.456,0,0,1,.079-.006c-.052-.222-.071-.011.171-.306a.709.709,0,0,1,.141-.125c.1-.074.04-.044.111-.193a2.84,2.84,0,0,0-.657.7c.005.007.011.009.014.02a.038.038,0,0,0,.015.019A.224.224,0,0,0,1095.949,623.849Z" transform="translate(-1069.109 -607.86)" fill="#fff" fill-rule="evenodd"/>
  <path id="Path_575" data-name="Path 575" d="M811.531,818.21l-.328.152c-.071.035.035-.005-.088.043a1.093,1.093,0,0,1-.19-.3l-.063-.071c0-.013-.015-.011-.022-.017.045.278-.028.2.245.439a.426.426,0,0,0,.13-.025l.21-.115C811.556,818.236,811.463,818.316,811.531,818.21Z" transform="translate(-791.047 -798.052)" fill="#fff" fill-rule="evenodd"/>
  <path id="Path_576" data-name="Path 576" d="M1286.419,1268.059c.011-.019.035.039.04-.108,0-.086,0-.036-.027-.106l-.192-.015c.034.024,0,.02.1.058a.248.248,0,0,0,.082.017Z" transform="translate(-1254.842 -1236.881)" fill="#fff" fill-rule="evenodd"/>
  <path id="Path_577" data-name="Path 577" d="M1042.656,1344.238c-.038-.1.018-.03-.081-.121a.385.385,0,0,0-.115-.077.27.27,0,0,0,.075.118A.264.264,0,0,0,1042.656,1344.238Z" transform="translate(-1017.013 -1311.231)" fill="#fff" fill-rule="evenodd"/>
  <path id="Path_578" data-name="Path 578" d="M1046.454,701.641l-.042-.107-.113-.035C1046.338,701.613,1046.344,701.607,1046.454,701.641Z" transform="translate(-1020.759 -684.376)" fill="#fff" fill-rule="evenodd"/>
  <path id="Path_579" data-name="Path 579" d="M1212.85,657.174a.253.253,0,0,0,.133-.144C1212.866,657.054,1212.878,657.064,1212.85,657.174Z" transform="translate(-1183.244 -640.992)" fill="#fff" fill-rule="evenodd"/>
</svg>
