<svg xmlns="http://www.w3.org/2000/svg" width="51.447" height="37.508" viewBox="0 0 51.447 37.508">
  <g id="waqfi_Logo-01" transform="translate(-140.32 -115.46)">
    <g id="_23a8adff" data-name="#23a8adff" transform="translate(140.32 115.46)">
      <path id="Path_122599" data-name="Path 122599" d="M252.459,115.569a1.711,1.711,0,0,1,1.33.076c.34.132.8.375.708.817a3.052,3.052,0,0,1-1.4,1.657,3.257,3.257,0,0,1-1.63,1.548c-.319.121-.5-.234-.582-.478a2.613,2.613,0,0,1-.005-1.931c.241-.445.819-.317,1.225-.245C252.088,116.525,252.039,115.915,252.459,115.569Z" transform="translate(-238.989 -115.46)" fill="#fff"/>
      <path id="Path_122600" data-name="Path 122600" d="M321.958,124.151c.245-.075.471.091.669.211a11.78,11.78,0,0,1,1.18.919,3.034,3.034,0,0,1,.7.937,4.811,4.811,0,0,1-.235,2.683,7.519,7.519,0,0,1-.693,1.915,10.453,10.453,0,0,1,.244-2.458,1.244,1.244,0,0,0-.438-.952,1,1,0,0,1-.534.6l-.01-.039c0-.014-.011-.041-.014-.055a.787.787,0,0,1-.922-.17,2.228,2.228,0,0,1-.217-1.039c-.02-.582.013-1.164.046-1.746A1.427,1.427,0,0,1,321.958,124.151Z" transform="translate(-302.449 -123.213)" fill="#fff"/>
      <path id="Path_122601" data-name="Path 122601" d="M271.029,147.928a1.806,1.806,0,0,1,1.073-.013,11.253,11.253,0,0,1,2.744,1.031,3.037,3.037,0,0,1,1.359,1.26,5.863,5.863,0,0,1,.632,2.74,4.231,4.231,0,0,1-.977,2.892,2.84,2.84,0,0,1-2.01.874,4.184,4.184,0,0,0,1.531-1.039,2.441,2.441,0,0,0,.279-2.2,2.5,2.5,0,0,0-1.074-1.34,1.531,1.531,0,0,1-.845,1.013,2.738,2.738,0,0,1-1.185.313c-.5-.129-.773-.612-1.011-1.027a8.062,8.062,0,0,1-.838-3.408C270.726,148.65,270.709,148.185,271.029,147.928Z" transform="translate(-256.883 -144.404)" fill="#fff"/>
      <path id="Path_122602" data-name="Path 122602" d="M207.027,177.47a2.372,2.372,0,0,1,1.319-.077c.392.123.416.613.37.953a2.95,2.95,0,0,1-.779,1.707c-.248.226-.551-.038-.734-.217a2.617,2.617,0,0,1-.815-1.692C206.377,177.778,206.719,177.562,207.027,177.47Z" transform="translate(-199.382 -170.769)" fill="#fff"/>
      <path id="Path_122603" data-name="Path 122603" d="M178.154,186.014A.726.726,0,0,1,178.9,186a18.844,18.844,0,0,1,2.719,1.405,10.307,10.307,0,0,1,1.761,1.322,3.834,3.834,0,0,1,1.1,2.032,11.018,11.018,0,0,1-.784,6.331,15.821,15.821,0,0,1-1.336,2.679.333.333,0,0,1-.451.1,5.475,5.475,0,0,1-.828-.667,11.83,11.83,0,0,0-3.073-1.7,9.643,9.643,0,0,0-1.69-.475,5.089,5.089,0,0,0-3.555.471,1.279,1.279,0,0,0-.735,1.223c.108.674.709,1.085,1.191,1.5a4.182,4.182,0,0,1-1.84-.957,1.587,1.587,0,0,1-.406-1.518,5.22,5.22,0,0,1,1.992-3.222,7.331,7.331,0,0,1,4.883-.946,12.182,12.182,0,0,1,2.135.322,25.521,25.521,0,0,1,3.206,1.207,5.327,5.327,0,0,0-.961-2.785,2.174,2.174,0,0,0-.564-.461,1.537,1.537,0,0,1-1.033.957,3.319,3.319,0,0,1-2.45.107,1.169,1.169,0,0,1-.491-.867,15.255,15.255,0,0,1-.117-4.755C177.683,186.848,177.711,186.282,178.154,186.014Z" transform="translate(-167.687 -178.431)" fill="#fff"/>
      <path id="Path_122604" data-name="Path 122604" d="M178.774,238.339a1.978,1.978,0,0,1,1.645-.177,15.835,15.835,0,0,1,3.233,1.062,1.465,1.465,0,0,1-.916.275,21.967,21.967,0,0,0-4.488.328A1.534,1.534,0,0,1,178.774,238.339Z" transform="translate(-174.189 -225.069)" fill="#fff"/>
      <path id="Path_122605" data-name="Path 122605" d="M154.165,322.51a3.637,3.637,0,0,1,.8,2.069,1.985,1.985,0,0,1-.72,1.667,4.514,4.514,0,0,1-2.31.727,35.723,35.723,0,0,1-4.263.094,9.228,9.228,0,0,0-1.148.087c-.187.029-.373.062-.558.1a8.258,8.258,0,0,0-1.259.366,8.734,8.734,0,0,0-4.391,3.663,14.568,14.568,0,0,1,2.474-5.155,6.924,6.924,0,0,1,4.645-2.6,13.634,13.634,0,0,1,1.486-.076c1.63.063,3.194.705,4.836.646.225-.015.526-.1.549-.368A4.728,4.728,0,0,0,154.165,322.51Z" transform="translate(-140.32 -300.553)" fill="#fff"/>
      <path id="Path_122606" data-name="Path 122606" d="M213.523,370.875a23.245,23.245,0,0,0,4.578-.335,1.466,1.466,0,0,1-.454,1.438,1.8,1.8,0,0,1-1.589.247,17.637,17.637,0,0,1-3.329-1.056A1.036,1.036,0,0,1,213.523,370.875Z" transform="translate(-205.051 -343.49)" fill="#fff"/>
    </g>
    <g id="_e8513eff" data-name="#e8513eff" transform="translate(143.993 115.887)">
      <path id="Path_122607" data-name="Path 122607" d="M341.73,121.132a18.015,18.015,0,0,1,3.66-1.642c-1.014.829-2.006,1.683-2.961,2.579A3.034,3.034,0,0,0,341.73,121.132Z" transform="translate(-324.045 -119.49)" fill="#fff"/>
      <path id="Path_122608" data-name="Path 122608" d="M309.72,149.449q.62-.544,1.275-1.049a2.229,2.229,0,0,0,.217,1.039.787.787,0,0,0,.922.17c0,.014.011.041.014.055-.02.068-.076.1-.171.1-.318.3-.6.629-.9.943A3.037,3.037,0,0,0,309.72,149.449Z" transform="translate(-295.429 -145.334)" fill="#fff"/>
      <path id="Path_122609" data-name="Path 122609" d="M272.469,191.17c.238.415.515.9,1.011,1.027a2.738,2.738,0,0,0,1.185-.313c-.2.232-.38.484-.564.73q-.305.406-.6.822a10.306,10.306,0,0,0-1.761-1.322Q272.095,191.634,272.469,191.17Z" transform="translate(-261.477 -183.569)" fill="#fff"/>
      <path id="Path_122610" data-name="Path 122610" d="M208.971,290.81a9.644,9.644,0,0,1,1.69.475l-.106.227c-.568,1.187-1.119,2.382-1.619,3.6a13.642,13.642,0,0,0-1.486.076q.076-.258.154-.513C208.009,293.369,208.472,292.083,208.971,290.81Z" transform="translate(-204.005 -272.642)" fill="#fff"/>
      <path id="Path_122611" data-name="Path 122611" d="M193.18,365.577a9.222,9.222,0,0,1,1.148-.087q-1.036,3.03-1.819,6.137A29.339,29.339,0,0,1,193.18,365.577Z" transform="translate(-190.645 -339.403)" fill="#fff"/>
      <path id="Path_122612" data-name="Path 122612" d="M175.678,367.606a8.26,8.26,0,0,1,1.259-.366,29.694,29.694,0,0,0-.719,10.808A11.944,11.944,0,0,1,175,371.456,21,21,0,0,1,175.678,367.606Z" transform="translate(-174.96 -340.967)" fill="#fff"/>
    </g>
    <g id="_0e7d84ff" data-name="#0e7d84ff" transform="translate(144.659 124.53)">
      <path id="Path_122613" data-name="Path 122613" d="M288.948,201.392a6.85,6.85,0,0,0,2.484-.4,2.441,2.441,0,0,1-.279,2.2,4.183,4.183,0,0,1-1.531,1.039l-.168.018a3.834,3.834,0,0,0-1.1-2.032Q288.643,201.8,288.948,201.392Z" transform="translate(-276.991 -200.99)" fill="#fff"/>
      <path id="Path_122614" data-name="Path 122614" d="M523.112,244.911a.653.653,0,1,1-.078,1.16A.667.667,0,0,1,523.112,244.911Z" transform="translate(-486.518 -240.202)" fill="#fff"/>
      <path id="Path_122615" data-name="Path 122615" d="M539.829,244.885a.65.65,0,1,1-.2,1.1A.662.662,0,0,1,539.829,244.885Z" transform="translate(-501.437 -240.184)" fill="#fff"/>
      <path id="Path_122616" data-name="Path 122616" d="M334.772,266.426a10.214,10.214,0,0,1,2.627-.21,2.492,2.492,0,0,1,1.7.7,2.748,2.748,0,0,1,.566,1.8c0,.8,0,1.593,0,2.389.841.014,1.684-.034,2.524.034a2.547,2.547,0,0,1-.751-2.1,2.864,2.864,0,0,1,1.049-2.235,3.282,3.282,0,0,1,2.943-.449,2.217,2.217,0,0,1,1.5,1.662,3.082,3.082,0,0,1-.787,3.128,29.074,29.074,0,0,1,3.232,0,2.357,2.357,0,0,1-.837-2.1A2.846,2.846,0,0,1,349.6,266.8a3.4,3.4,0,0,1,2.6-.549,2.116,2.116,0,0,1,1.514.919,3.257,3.257,0,0,1,.411,1.767q0,1.529,0,3.058-7.775.006-15.548,0c-.005-1.022.005-2.046-.005-3.068a1.836,1.836,0,0,0-.628-1.591,3.2,3.2,0,0,0-2.071-.156c0,1.6,0,3.21,0,4.814-1.516-.054-3.092.18-4.552-.341a2.7,2.7,0,0,1-1.737-1.791,5.192,5.192,0,0,1,.2-3.37c.4-.074.8-.143,1.2-.212a4.9,4.9,0,0,0-.355,3.073,1.913,1.913,0,0,0,.98,1.345,7.071,7.071,0,0,0,3.164.407c0-1.56,0-3.12,0-4.68m9.015.722a1.708,1.708,0,0,0-1.192,1.47,3.085,3.085,0,0,0,.212,1.7,1.649,1.649,0,0,0,2.673.21,2.472,2.472,0,0,0,.421-1.689,2.005,2.005,0,0,0-.487-1.333,1.746,1.746,0,0,0-1.628-.354m7.029.039a1.8,1.8,0,0,0-1.14,1.643,2.005,2.005,0,0,0,.748,1.928,5.117,5.117,0,0,0,2.614.348c0-.722.01-1.445-.006-2.169a2.076,2.076,0,0,0-.545-1.506A1.77,1.77,0,0,0,350.815,267.188Z" transform="translate(-313.68 -259.282)" fill="#fff"/>
      <path id="Path_122617" data-name="Path 122617" d="M575.924,266.335a6.268,6.268,0,0,1,3.418.294c0,1.871,0,3.74,0,5.611a2.689,2.689,0,0,1-.338,1.374,2.918,2.918,0,0,1-2.022,1.332,8.592,8.592,0,0,1-3.027-.073c.023-.313.05-.626.073-.939a5.7,5.7,0,0,0,3.327-.038,1.8,1.8,0,0,0,.889-1.887c-1.131-.018-2.382.135-3.368-.54a2.878,2.878,0,0,1-.948-2.859,2.71,2.71,0,0,1,1.995-2.276m.235.867a1.817,1.817,0,0,0-1.14,1.75,1.946,1.946,0,0,0,.768,1.827,4.73,4.73,0,0,0,2.455.34c0-1.25,0-2.5,0-3.752A3.3,3.3,0,0,0,576.16,267.2Z" transform="translate(-532.244 -259.296)" fill="#fff"/>
      <path id="Path_122618" data-name="Path 122618" d="M181.979,290.3a5.089,5.089,0,0,1,3.555-.471c-.5,1.273-.962,2.559-1.367,3.864-.581-.211-1.168-.417-1.732-.672-.481-.414-1.083-.824-1.191-1.5A1.279,1.279,0,0,1,181.979,290.3Z" transform="translate(-181.233 -280.307)" fill="#fff"/>
      <path id="Path_122619" data-name="Path 122619" d="M221.46,301.029c.5-1.217,1.051-2.413,1.619-3.6a10.057,10.057,0,0,1,3.621,2.66,4.727,4.727,0,0,1,.144,1.217c-.023.269-.325.353-.549.368C224.654,301.734,223.09,301.092,221.46,301.029Z" transform="translate(-217.194 -287.203)" fill="#fff"/>
      <path id="Path_122620" data-name="Path 122620" d="M469.087,366.348a2.992,2.992,0,0,1,2.189-1.05,2.946,2.946,0,0,1,2.474.916,4.313,4.313,0,0,1,.7,3.411,2.774,2.774,0,0,1-1.5,2.137,7.629,7.629,0,0,0,1.992.309q0,.41,0,.823a3.787,3.787,0,0,1-1.759-.2,4.782,4.782,0,0,0-1.781-.386,3.011,3.011,0,0,1-2.2-.717,3.348,3.348,0,0,1-.945-2.3,3.963,3.963,0,0,1,.835-2.946m1.827-.174a2.246,2.246,0,0,0-1.624,1.943,3.708,3.708,0,0,0,.473,2.595,2.033,2.033,0,0,0,2.97.236,2.8,2.8,0,0,0,.782-2.081,3.1,3.1,0,0,0-.7-2.18A2.031,2.031,0,0,0,470.914,366.175Z" transform="translate(-437.802 -347.868)" fill="#fff"/>
      <path id="Path_122621" data-name="Path 122621" d="M328.95,366.246h1.006c.462,1.91,1.047,3.792,1.418,5.723.164-.99.484-1.945.744-2.912q.394-1.4.789-2.811.531,0,1.064,0c.514,1.9,1.15,3.766,1.573,5.687.392-1.913.946-3.79,1.408-5.688h.93c-.592,2.277-1.2,4.549-1.793,6.824q-.579,0-1.156,0c-.513-1.91-1.144-3.789-1.559-5.723a19.623,19.623,0,0,1-.6,2.478c-.3,1.083-.6,2.164-.9,3.246-.372,0-.744,0-1.116,0Q329.845,369.66,328.95,366.246Z" transform="translate(-313.285 -348.721)" fill="#fff"/>
      <path id="Path_122622" data-name="Path 122622" d="M411.153,366.25h1.06q1.249,3.414,2.5,6.826-.53,0-1.058,0-.283-.8-.568-1.6h-2.877c-.191.534-.376,1.07-.567,1.6-.32,0-.64,0-.961,0,.81-2.281,1.652-4.551,2.473-6.829m.483,1.024c-.335,1.172-.8,2.3-1.194,3.455.8,0,1.6,0,2.4,0C412.441,369.578,412.008,368.437,411.635,367.274Z" transform="translate(-384.56 -348.725)" fill="#fff"/>
      <path id="Path_122623" data-name="Path 122623" d="M538.62,366.21c1.159.008,2.318,0,3.477,0,0,.261,0,.522,0,.783-.848,0-1.7,0-2.545,0q0,1.1,0,2.2c.806.007,1.613-.013,2.42.011-.007.248-.01.5-.01.744-.8,0-1.608,0-2.411,0v3.088h-.942C538.619,370.762,538.6,368.486,538.62,366.21Z" transform="translate(-500.715 -348.689)" fill="#fff"/>
      <path id="Path_122624" data-name="Path 122624" d="M575.96,366.24q.517,0,1.036,0c.529,1.157,1.109,2.291,1.589,3.47.51-1.174,1.087-2.317,1.641-3.47l.985,0c-.716,1.452-1.453,2.894-2.155,4.352-.043.823,0,1.649-.018,2.474q-.471,0-.939,0,0-1.093,0-2.185a.881.881,0,0,0-.094-.457Q576.978,368.335,575.96,366.24Z" transform="translate(-534.101 -348.716)" fill="#fff"/>
    </g>
    <g id="_0e7e84ff" data-name="#0e7e84ff" transform="translate(162.874 128.952)">
      <path id="Path_122625" data-name="Path 122625" d="M463.983,242.75a.668.668,0,1,1-.133,1.141A.68.68,0,0,1,463.983,242.75Z" transform="translate(-451.87 -242.691)" fill="#fff"/>
      <path id="Path_122626" data-name="Path 122626" d="M353.348,331.667a.652.652,0,1,1,.021,1.174A.665.665,0,0,1,353.348,331.667Z" transform="translate(-353.007 -322.165)" fill="#fff"/>
      <path id="Path_122627" data-name="Path 122627" d="M370.058,331.643a.649.649,0,1,1-.036,1.167A.66.66,0,0,1,370.058,331.643Z" transform="translate(-367.919 -322.152)" fill="#fff"/>
    </g>
    <g id="_e8513dff" data-name="#e8513dff" transform="translate(150.49 129.845)">
      <path id="Path_122628" data-name="Path 122628" d="M236.553,251.217a3.319,3.319,0,0,0,2.45-.107c-.221.358-.435.72-.648,1.083a12.18,12.18,0,0,0-2.135-.322C236.33,251.652,236.44,251.433,236.553,251.217Z" transform="translate(-236.22 -251.11)" fill="#fff"/>
    </g>
  </g>
</svg>
