<svg xmlns="http://www.w3.org/2000/svg" width="50" height="46" viewBox="0 0 50 46">
  <g id="whatsapp" transform="translate(-266.547 -199.08)">
    <rect id="Rectangle_13797" data-name="Rectangle 13797" width="50" height="46" rx="12" transform="translate(266.547 199.08)" fill="#ebf8f4"/>
    <g id="Group_48669" data-name="Group 48669" transform="translate(292.796 208.823)">
      <path id="Path_615" data-name="Path 615" d="M24.356,4.12A14.053,14.053,0,0,0,2.243,21.073L.25,28.353,7.7,26.4a14.035,14.035,0,0,0,6.714,1.71h.006A14.056,14.056,0,0,0,24.356,4.12ZM14.418,25.737h0a11.663,11.663,0,0,1-5.944-1.628l-.426-.253-4.42,1.159L4.8,20.706l-.278-.442a11.678,11.678,0,1,1,9.892,5.473Zm6.405-8.746c-.351-.176-2.077-1.025-2.4-1.142s-.556-.175-.79.176-.907,1.142-1.112,1.376-.409.264-.761.088a9.589,9.589,0,0,1-2.823-1.742,10.589,10.589,0,0,1-1.953-2.432c-.2-.352,0-.523.154-.716a9.93,9.93,0,0,0,.878-1.2.646.646,0,0,0-.029-.615c-.088-.176-.79-1.9-1.082-2.607-.285-.684-.574-.592-.79-.6s-.439-.012-.673-.012A1.289,1.289,0,0,0,8.507,8a3.937,3.937,0,0,0-1.229,2.929A6.829,6.829,0,0,0,8.712,14.56a15.648,15.648,0,0,0,6,5.3,20.1,20.1,0,0,0,2,.74,4.813,4.813,0,0,0,2.211.139,3.617,3.617,0,0,0,2.37-1.669,2.933,2.933,0,0,0,.2-1.669c-.088-.146-.322-.234-.673-.41Zm0,0" transform="translate(-15.5 -1)" fill="#3aa877" fill-rule="evenodd"/>
    </g>
  </g>
</svg>
