<svg xmlns="http://www.w3.org/2000/svg" width="69" height="71" viewBox="0 0 69 71">
  <g id="why-Photo1" transform="translate(96.18 46.232)">
    <rect id="base" width="69" height="71" rx="6" transform="translate(-96.18 -46.232)" fill="#c0c6cc" opacity="0"/>
    <g id="Group_56660" data-name="Group 56660" transform="translate(19200.463 4481.01)">
      <path id="Path_123207" data-name="Path 123207" d="M1169.382,555.538v-2.46a4.782,4.782,0,1,0-9.561,0v2.46a4.65,4.65,0,0,0,4.78,4.919" transform="translate(-20445 -5055)" fill="none" stroke="#00846c" stroke-linecap="round" stroke-linejoin="round" stroke-width="2"/>
      <line id="Line_338" data-name="Line 338" y2="20.499" transform="translate(-19285.18 -4480.877)" fill="none" stroke="#00846c" stroke-linecap="round" stroke-linejoin="round" stroke-width="2"/>
      <path id="Path_123208" data-name="Path 123208" d="M1159.821,585.056a5.762,5.762,0,0,1-5.464-5.467v-6.833c0-4.514,4.817-6.833,9.561-6.833" transform="translate(-20445 -5055)" fill="none" stroke="#00846c" stroke-linecap="round" stroke-linejoin="round" stroke-width="2"/>
      <path id="Path_123209" data-name="Path 123209" d="M1183.041,546.791v-1.913a4.783,4.783,0,1,0-9.562,0v2.46a4.65,4.65,0,0,0,4.781,4.92" transform="translate(-20445 -5055)" fill="none" stroke="#00846c" stroke-linecap="round" stroke-linejoin="round" stroke-width="2"/>
      <line id="Line_339" data-name="Line 339" y2="28.699" transform="translate(-19271.521 -4489.077)" fill="none" stroke="#00846c" stroke-linecap="round" stroke-linejoin="round" stroke-width="2"/>
      <path id="Path_123210" data-name="Path 123210" d="M1173.479,580.956a5.761,5.761,0,0,1-5.463-5.466V564.557c0-4.514,6.182-6.833,10.927-6.833" transform="translate(-20445 -5055)" fill="none" stroke="#00846c" stroke-linecap="round" stroke-linejoin="round" stroke-width="2"/>
      <line id="Line_340" data-name="Line 340" y2="19.132" transform="translate(-19248.301 -4479.51)" fill="none" stroke="#00846c" stroke-linecap="round" stroke-linejoin="round" stroke-width="2"/>
      <path id="Path_123211" data-name="Path 123211" d="M1196.931,563.744s1.918.942,2.735,1.332a4.728,4.728,0,0,0,2.5.847h5.463a3.644,3.644,0,0,0,3.245-4.793c-.71-2.018-2.937-7.1-2.937-7.1-1.375-3.37-2.927-4.45-6.844-4.5l-10.147,0h-3.805c-2.537,0-5.018,2.024-4.429,4.743.327,1.513,1.194,3.466,1.629,4.782a10.252,10.252,0,0,0,1.659,3.456l2.107,2a4.5,4.5,0,0,0,4.914,1.107l6.527-3.122c1.63-.775,2.618-1.311,2.618-3.049v-1.721H1192.6l-.9-2" transform="translate(-20445 -5055)" fill="none" stroke="#00846c" stroke-linecap="round" stroke-linejoin="round" stroke-width="2"/>
      <line id="Line_341" data-name="Line 341" y2="28.699" transform="translate(-19241.471 -4489.077)" fill="none" stroke="#00846c" stroke-linecap="round" stroke-linejoin="round" stroke-width="2"/>
      <line id="Line_342" data-name="Line 342" y2="29.763" transform="translate(-19256.496 -4490.141)" fill="none" stroke="#00846c" stroke-linecap="round" stroke-linejoin="round" stroke-width="2"/>
      <path id="Path_123212" data-name="Path 123212" d="M1193.967,545.425a5.574,5.574,0,0,1-5.463-5.808v-2.05a5.474,5.474,0,1,1,10.927,0v2.05A5.574,5.574,0,0,1,1193.967,545.425Z" transform="translate(-20445 -5055)" fill="none" stroke="#00846c" stroke-linecap="round" stroke-linejoin="round" stroke-width="2"/>
      <line id="Line_343" data-name="Line 343" x1="1.115" y2="0.865" transform="translate(-19242.838 -4498.141)" fill="none" stroke="#00846c" stroke-linecap="round" stroke-linejoin="round" stroke-width="2"/>
    </g>
  </g>
</svg>
