<svg xmlns="http://www.w3.org/2000/svg" width="69" height="71" viewBox="0 0 69 71">
  <g id="why-Photo2" transform="translate(96.18 46.232)">
    <rect id="base" width="69" height="71" rx="6" transform="translate(-96.18 -46.232)" fill="#c0c6cc" opacity="0"/>
    <path id="Path_126284" data-name="Path 126284" d="M574.689,495.713h16.388m-8.194-9.56v9.56m30.045,0h16.388m-8.194-9.56v9.56m0-45.065a5.237,5.237,0,0,0,5.463-5.463v-2.731a5.463,5.463,0,0,0-10.925,0v2.731A5.236,5.236,0,0,0,621.122,450.648Zm6.829,12.29H614.294v23.215h13.657Zm0,17.753c2.936-.464,5.462-1.235,5.462-5.462V462.938c0-4.873-3.356-6.828-6.828-6.828H615.66c-3.472,0-6.829,1.955-6.829,6.828v12.291c0,4.228,2.526,5,5.463,5.462m-24.583-13.656h19.12m-19.12,0-1.365,5.462h4.533c2.187,0,4.3.667,5.027,2.731l9.559,20.485m-16.388-9.56h-8.194a10.957,10.957,0,0,1-10.926-10.924V460.207m28.68,35.506-8.194-15.022h-9.56c-3,0-5.932-2.048-5.316-6.362.514-3.6,2.419-15.78,2.419-15.78a5.8,5.8,0,0,1,5.628-5.17h1.366c2.6,0,3.944,2.463,4.878,3.846s2.039,2.891,2.039,2.891l9.471,1.457s-.755,5.462-5.462,5.462h-8.2l-3.136-4.262m4.5-13.491a5.536,5.536,0,0,1-5.463-5.852v-1.952a5.476,5.476,0,1,1,10.926,0v1.952A5.535,5.535,0,0,1,591.077,449.282Z" transform="translate(-664.365 -476.401)" fill="none" stroke="#00846c" stroke-miterlimit="10" stroke-width="2"/>
  </g>
</svg>
