<svg xmlns="http://www.w3.org/2000/svg" width="69" height="71" viewBox="0 0 69 71">
  <g id="why-Photo4" transform="translate(96.18 46.232)">
    <rect id="base" width="69" height="71" rx="6" transform="translate(-96.18 -46.232)" fill="#c0c6cc" opacity="0"/>
    <g id="Group_56657" data-name="Group 56657" transform="translate(19088.344 4808.673)">
      <line id="Line_344" data-name="Line 344" x2="59.773" transform="translate(-19179.523 -4805.611)" fill="none" stroke="#00846c" stroke-linecap="round" stroke-linejoin="round" stroke-width="2"/>
      <line id="Line_345" data-name="Line 345" y2="7.801" transform="translate(-19140.543 -4799.109)" fill="none" stroke="#00846c" stroke-linecap="round" stroke-linejoin="round" stroke-width="2"/>
      <line id="Line_346" data-name="Line 346" y1="7.801" transform="translate(-19158.732 -4799.109)" fill="none" stroke="#00846c" stroke-linecap="round" stroke-linejoin="round" stroke-width="2"/>
      <line id="Line_347" data-name="Line 347" x2="31.186" transform="translate(-19165.23 -4791.309)" fill="none" stroke="#00846c" stroke-linecap="round" stroke-linejoin="round" stroke-width="2"/>
      <path id="Path_123220" data-name="Path 123220" d="M1322.651,214.775a2.6,2.6,0,0,1,2.6,2.6v36.4a2.6,2.6,0,0,1-2.6,2.6h-54.575a2.6,2.6,0,0,1-2.6-2.6v-36.4a2.6,2.6,0,0,1,2.6-2.6" transform="translate(-20445 -5055.488)" fill="none" stroke="#00846c" stroke-linecap="round" stroke-linejoin="round" stroke-width="2"/>
      <g id="Group_56652" data-name="Group 56652" transform="translate(-19169.725 -4846.905)">
        <path id="Path_123127" data-name="Path 123127" d="M1429.644,436.62h4.373v4.374" transform="translate(-1400.245 -432.998)" fill="none" stroke="#00846c" stroke-linecap="round" stroke-linejoin="round" stroke-width="2"/>
        <rect id="Rectangle_13997" data-name="Rectangle 13997" width="4.373" height="19.1" transform="translate(29.4 12.198)" fill="none" stroke="#00846c" stroke-linecap="round" stroke-linejoin="round" stroke-width="2"/>
        <rect id="Rectangle_13998" data-name="Rectangle 13998" width="4.373" height="14.919" transform="translate(13.146 16.379)" fill="none" stroke="#00846c" stroke-linecap="round" stroke-linejoin="round" stroke-width="2"/>
        <rect id="Rectangle_13999" data-name="Rectangle 13999" width="4.373" height="10.966" transform="translate(21.272 20.332)" fill="none" stroke="#00846c" stroke-linecap="round" stroke-linejoin="round" stroke-width="2"/>
        <rect id="Rectangle_14000" data-name="Rectangle 14000" width="4.373" height="8.231" transform="translate(5.022 23.067)" fill="none" stroke="#00846c" stroke-linecap="round" stroke-linejoin="round" stroke-width="2"/>
        <path id="Path_123128" data-name="Path 123128" d="M1391.277,451.136l9.769-10.727,8.126,6.67,10.313-10.321" transform="translate(-1385.712 -433.05)" fill="none" stroke="#00846c" stroke-linecap="round" stroke-linejoin="round" stroke-width="2"/>
        <path id="Path_123129" data-name="Path 123129" d="M1382.319,432.91l2.109-2.121,2.125,2.121" transform="translate(-1382.32 -430.789)" fill="none" stroke="#00846c" stroke-linecap="round" stroke-linejoin="round" stroke-width="2"/>
        <path id="Path_123130" data-name="Path 123130" d="M1445.48,481.624l2.117,2.117-2.117,2.118" transform="translate(-1406.244 -450.043)" fill="none" stroke="#00846c" stroke-linecap="round" stroke-linejoin="round" stroke-width="2"/>
        <path id="Path_123131" data-name="Path 123131" d="M1424.494,464.739h-38.767V431.458" transform="translate(-1383.612 -431.042)" fill="none" stroke="#00846c" stroke-linecap="round" stroke-linejoin="round" stroke-width="2"/>
      </g>
    </g>
  </g>
</svg>
