<svg xmlns="http://www.w3.org/2000/svg" width="69" height="71" viewBox="0 0 69 71">
  <g id="why-Photo6" transform="translate(96.179 46.232)">
    <rect id="base" width="69" height="71" rx="6" transform="translate(-96.179 -46.232)" fill="#c0c6cc" opacity="0"/>
    <g id="Group_56659" data-name="Group 56659" transform="translate(19540.049 4482.53)">
      <path id="Path_123348" data-name="Path 123348" d="M851.25,575.332l6.342-1.141-1.14-6.339,15.987,8.9-11.89,13.918-1.14-6.339-40.554,7.3" transform="translate(-20445.258 -5056.984)" fill="none" stroke="#00846c" stroke-linecap="round" stroke-linejoin="round" stroke-width="2"/>
      <path id="Path_123349" data-name="Path 123349" d="M851.986,544.894a4.7,4.7,0,0,1-4.506-4.967v-1.657a4.528,4.528,0,1,1,9.013,0v1.657A4.7,4.7,0,0,1,851.986,544.894Z" transform="translate(-20446.902 -5055)" fill="none" stroke="#00846c" stroke-linecap="round" stroke-linejoin="round" stroke-width="2"/>
      <line id="Line_467" data-name="Line 467" x1="12.824" y2="17.237" transform="translate(-19630.631 -4489.958)" fill="none" stroke="#00846c" stroke-linecap="round" stroke-linejoin="round" stroke-width="2"/>
      <line id="Line_468" data-name="Line 468" y1="13.754" x2="12.021" transform="translate(-19625.602 -4485.217)" fill="none" stroke="#00846c" stroke-linecap="round" stroke-linejoin="round" stroke-width="2"/>
      <path id="Path_123350" data-name="Path 123350" d="M836.109,581.477l10.984-10.227a2.711,2.711,0,0,0,.056-4.256l-7.888-6.168,2.922-5.553a43.94,43.94,0,0,0,5.211,3.647s6.458-1.929,9.037-2.95,2.579-5.168,2.579-5.168l-10.575,1.684s-7.034-7.292-8.577-9.142a8.212,8.212,0,0,0-8.763-2.818l-13.794,4.5s3.735,4.2,6.557,3.378,7.732-2.572,7.732-2.572l2.861,2.92s-2.673,5.541-4.128,8.461-.559,6.876,5.235,10.048l4.61,2.438-8.349,10.039" transform="translate(-20445.168 -5055.394)" fill="none" stroke="#00846c" stroke-linecap="round" stroke-linejoin="round" stroke-width="2"/>
    </g>
  </g>
</svg>
