<svg id="YearOfArabic" xmlns="http://www.w3.org/2000/svg" width="75.966" height="48.365" viewBox="0 0 75.966 48.365">
  <path id="Path_385" data-name="Path 385" d="M39.575,29.206a3.544,3.544,0,0,1,.827.072,3.6,3.6,0,0,1,2.366,1.736c-1.808,1.207-5.18,2.1-8.762,2.347-.409.029-.842.048-1.289.058,1.13-.962,2.308-1.957,3.52-2.794A6.146,6.146,0,0,1,39.575,29.206Zm-28.9-2.063v.188a13.61,13.61,0,0,0,.043,1.8,5,5,0,0,1-1.626.274,3.241,3.241,0,0,1-3.136-2.111c1.414-.034,3.049-.091,4.727-.149Zm3.939-.135a16.058,16.058,0,0,1-3.15,1.847,7.021,7.021,0,0,1-.236-1.722h.3l3.083-.106Zm12.153-.4v.212a.433.433,0,0,1-.029.164,10.279,10.279,0,0,1-4,4.545,9.575,9.575,0,0,1-5.771,1.6,5.8,5.8,0,0,1-3.905-1.611,7.349,7.349,0,0,1-.88-1.077A18.943,18.943,0,0,0,16.7,26.932ZM49,26.008v1.053c-.51.111-1.082.2-1.587.26a24.776,24.776,0,0,0-2.76.438c-.063,0-.063.029-.091.077l-.851,1.587c-.048.087-.029.111.038.106l.481-.067a26.012,26.012,0,0,1,4.107.625c.707.149,1.712.356,2.842.558-1.7.587-3.684,1.3-5.377,1.693A36.6,36.6,0,0,1,41.691,33l.346-.216a1.332,1.332,0,0,0,.481-.481A10.181,10.181,0,0,0,43.4,30a1.241,1.241,0,0,0-.308-1.217,4.16,4.16,0,0,0-1.4-1,2.977,2.977,0,0,0-2.76-.043,17.081,17.081,0,0,0-3.078,2.078c-.616.481-1.274,1.077-1.924,1.669A14.725,14.725,0,0,0,34.7,26.4C39.474,26.239,44.192,26.119,49,26.008Zm7.074-.154c.029.765.048,1.52.063,2.26v1.443a50.385,50.385,0,0,1-5.944-.875l-1.024-.2A8.257,8.257,0,0,0,49.9,25.97Zm18.867-.938a4.664,4.664,0,0,1,.414,1.351.481.481,0,0,1,0,.231,10,10,0,0,1-4.131,4.915,9.662,9.662,0,0,1-5.771,1.6,5.935,5.935,0,0,1-3.9-1.611,6.324,6.324,0,0,1-1.789-5.612h.866c1.895-.034,4.958-.077,8.267-.159,1.212-.063,3.453-.3,5.862-.616a.317.317,0,0,0,.178-.1ZM18.3,22.56l.063.029c1.606.664,3.5.481,5.03.726a4.28,4.28,0,0,1,1.924.726,4.006,4.006,0,0,1,.962,1.072l-8.426.245.038-.106A9.71,9.71,0,0,0,18.3,22.56Zm42.412-.072c1.111.043,2.246.067,3.415.087,2.005.029,3.819.038,5.5.1.38,0,.712.038,1.029.063a6.978,6.978,0,0,1,2.991.832,3.2,3.2,0,0,1,1.212,1.188.481.481,0,0,0-.115-.034,85.912,85.912,0,0,0-12.023-.51l-2.65.058A11.875,11.875,0,0,1,60.712,22.488Zm-3.448-.25c.481.067.962.115,1.443.149s.89.053,1.332.072a15.578,15.578,0,0,0-.543,1.827l-2.159.048c-.019-.654-.038-1.351-.072-2.1ZM5.8,21.853A12.023,12.023,0,0,0,4.939,25.7a12.6,12.6,0,0,1-2.962-.26,1.241,1.241,0,0,1-.87-.717A.161.161,0,0,1,1.14,24.6l.115-.115c1.289-1.241,3.256-1.736,4.559-2.631Zm27.61-.693q.087,1.924.125,3.737l-3.02.111V23.652a6.531,6.531,0,0,0,2-1.481c.159-.159.322-.327.481-.481Zm-4.607-7.584c.034.529.067,1.058.1,1.6.12,2.121.164,4.112.245,5.81,0,.375.038.745.053,1.116a2.212,2.212,0,0,1-.534-.029A2.328,2.328,0,0,1,27,20.7a4.648,4.648,0,0,1,.115-3.631A21.989,21.989,0,0,1,28.807,13.576Zm14.6-1.789a.962.962,0,0,1,.236,0,3.847,3.847,0,0,1,1.924,1.284c-.572.12-1.159.255-1.746.4a9.282,9.282,0,0,0-1.02-1.327.755.755,0,0,1,.606-.356ZM33.419,0a.06.06,0,0,0-.048.034,3.7,3.7,0,0,0-.6,1.231,7.873,7.873,0,0,0-.26,1.2,8.843,8.843,0,0,0,0,1.76c0,.409.034.822.067,1.212.188,3.049.4,6.1.577,9.2.087,1.525.135,3.044.188,4.434-.221.236-.428.481-.611.668a10.427,10.427,0,0,1-2.212,1.924c-.053-1.876-.183-4.146-.341-6.56-.231-3.568-.481-7.074-.721-10.537-.082-1.385-.154-2.756-.226-4.088,0-.1-.034-.106-.082-.048a3.65,3.65,0,0,0-.6,1.231,7.642,7.642,0,0,0-.284,1.217,8.792,8.792,0,0,0,0,1.755c0,.409.038.822.067,1.217.144,2.294.3,4.6.442,6.969-1.472,2.448-2.943,5.218-2.583,7.522a4.809,4.809,0,0,0,1.568,2.967,2.554,2.554,0,0,0,1.52.558c0,.39,0,.779.034,1.164l-1.909.048a4.328,4.328,0,0,0-.37-1.443,4.013,4.013,0,0,0-3.189-2.289c-1.332-.284-2.76-.2-4.155-.481a4.449,4.449,0,0,1-1.048-.361,3.16,3.16,0,0,1-1.337-1.385h0c-.106-.216-.221-.423-.337-.63s-.135-.183-.2,0c-.154.442-.337.962-.519,1.5-.067.188-.087.212,0,.356a10.749,10.749,0,0,1,1.289,3.963,13.751,13.751,0,0,1-1.015,1.063l-3.756.115-1.443.053a11.061,11.061,0,0,1,.962-3.015,12.317,12.317,0,0,1,1.654-2.534,17.89,17.89,0,0,1,2.886-2.659c.519-.361,1.039-.712,1.563-1.063a3.751,3.751,0,0,0,.548,2.246c1.106,1.558,3.77,1.255,5.858-.519a1.573,1.573,0,0,0,.37-.481,7.137,7.137,0,0,0,.625-2.722,43.281,43.281,0,0,0-.111-5.213c-.091-1.443-.183-3.1-.279-4.554-.072-1.356-.135-2.693-.2-4,0-.1-.034-.111-.082-.053a3.559,3.559,0,0,0-.6,1.193,7.844,7.844,0,0,0-.289,1.2,8.436,8.436,0,0,0,0,1.722c0,.4.029.8.058,1.188.091,1.621.192,3.246.279,4.857l.289,5.17a7.041,7.041,0,0,1-4.025,1.207,1.962,1.962,0,0,1-1.8-1.65c1.169-.769,2.332-1.52,3.4-2.227.115-.077.13-.087.178-.255L23.1,11.85c.053-.178.053-.221-.12-.111l-5.526,3.612a2.7,2.7,0,0,1-1.226.38,3.366,3.366,0,0,1-.842-.164,5.906,5.906,0,0,1-1.707-.808,4.877,4.877,0,0,1-2.207-3.785,12.773,12.773,0,0,1,3.578-1.255A10.7,10.7,0,0,1,17.7,9.532a5.16,5.16,0,0,1,1.611.341c.072.029.111,0,.058-.063a5.2,5.2,0,0,0-2.054-1.274,6.021,6.021,0,0,0-3.737-.087,4.328,4.328,0,0,0-2.616,1.981,4.122,4.122,0,0,0-.457,1.9,4.857,4.857,0,0,0,1.2,3.2,5.872,5.872,0,0,0,3.112,1.924A17.418,17.418,0,0,0,13.567,18.9a13.721,13.721,0,0,0-1.794,3.184,14.322,14.322,0,0,0-.962,3.52c-1.659.063-3.554.13-5.2.13a11.133,11.133,0,0,1,.587-3.77,1.443,1.443,0,0,0,.091-.481l.038-.034a3.943,3.943,0,0,0,.89-1.534,5.454,5.454,0,0,0,.308-1.876C7.454,16.515,6.3,15.774,5.834,14h0c-.029-.1,0-.135.1-.106s.5.144.659.2.265.063.173-.125A8.224,8.224,0,0,0,5.8,12.932c-.332-.327-.693-.673-.962-.962-.159-.178-.135-.106-.173.111-.082.481-.236,1.51-.24,1.515,0,.149-.029.164.149.293a.779.779,0,0,1,.25.4,18.6,18.6,0,0,0,1.044,3.025,8.96,8.96,0,0,1,.9,2.121C5.54,20.68,3.179,21.1,1.712,22.541c-.1.1-.2.2-.293.308A4.662,4.662,0,0,0,0,25.821c0,1.015,1.164,1.308,2.02,1.409a27.111,27.111,0,0,0,3.015.077,1.89,1.89,0,0,0,.063.361,6.132,6.132,0,0,0,.192.784,4.135,4.135,0,0,0,3.881,2.919,5.2,5.2,0,0,0,1.876-.4A5.771,5.771,0,0,0,13,33.852c2.256,1.775,5.771,1.587,8.839-.149A11.1,11.1,0,0,0,27.2,27.086c.048-.164.087-.327.12-.481l1.563-.048h.481c.038,2.155,0,4.213-.1,6.012,0,.265.149.2.226.048.784-1.544.962-3.328,1.015-6.093l3.092-.091c0,1.962,0,3.819-.111,5.473-.592.539-1.173,1.068-1.727,1.549a36.67,36.67,0,0,1-5.694-.447c-.322-.058-.236.091-.087.188a11.687,11.687,0,0,0,3.318,1.6,14.49,14.49,0,0,0,3.693.37,11.75,11.75,0,0,0,1.361-.053,44.919,44.919,0,0,0,10.84-.962,49.627,49.627,0,0,0,6.252-2.073,11.157,11.157,0,0,1,4.727-.837c0,1.226-.048,2.4-.115,3.477,0,.265.149.192.221.048a9.339,9.339,0,0,0,.885-3.467l.51.048c.048,0,.053,0,.072-.034l.774-1.515c.058-.111.038-.111-.067-.12-.39-.034-.784-.058-1.178-.067q.029-.755.043-1.63c0-.678.034-1.39.034-2.14l1.895-.034c-.053.442-.087.909-.106,1.414-.13,3.294.794,5.29,2.361,6.531,2.265,1.765,5.771,1.582,8.839-.149a11.138,11.138,0,0,0,5.314-6.589c.043-.135.077-.265.111-.39a5.771,5.771,0,0,0,.13-2.462,3.366,3.366,0,0,0-1.7-2.462,8.849,8.849,0,0,0-4.04-.962c-1.962-.091-4.189-.087-6.642-.13-.567,0-1.116,0-1.654-.043.173-.24.356-.481.543-.7A17.727,17.727,0,0,1,65.28,17.2c1.89-1.313,3.847-2.568,5.622-3.722.115-.077.13-.087.178-.25l.481-1.534c.053-.173.053-.221-.12-.111l-5.482,3.641a2.635,2.635,0,0,1-1.226.375,3.3,3.3,0,0,1-.837-.164,5.713,5.713,0,0,1-1.707-.8,4.886,4.886,0,0,1-2.207-3.785,12.778,12.778,0,0,1,3.544-1.231,10.931,10.931,0,0,1,2.645-.188,5.16,5.16,0,0,1,1.611.341c.072.029.111,0,.058-.063a5.237,5.237,0,0,0-2.068-1.274,6.06,6.06,0,0,0-3.737-.087,4.328,4.328,0,0,0-2.616,1.981,4.15,4.15,0,0,0-.481,1.9,4.867,4.867,0,0,0,1.2,3.208,5.863,5.863,0,0,0,3.112,1.924,17.314,17.314,0,0,0-1.207,1.395A12.087,12.087,0,0,0,60.9,20.54c-.63-.024-1.25-.058-1.866-.1a15.389,15.389,0,0,1-1.861-.231c-.063-1.106-.135-2.275-.216-3.467-.245-3.578-.481-7.084-.741-10.551-.077-1.38-.149-2.751-.226-4.083,0-.1-.034-.106-.082-.053a3.847,3.847,0,0,0-.6,1.236,7.632,7.632,0,0,0-.26,1.2,8.789,8.789,0,0,0,0,1.755c0,.409.034.822.067,1.217.188,3.044.39,6.1.6,9.3.067,1.044.111,2.082.149,3.088a4.876,4.876,0,0,1-.693-.337,3.853,3.853,0,0,1-1.6-2.635,17.053,17.053,0,0,1-.279-2.631c-.173-2.886-.394-5.886-.606-8.844-.077-1.385-.149-2.751-.226-4.083,0-.1-.034-.111-.082-.053a3.7,3.7,0,0,0-.6,1.231,7.753,7.753,0,0,0-.26,1.2,8.494,8.494,0,0,0,0,1.76c0,.409.034.822.067,1.212.159,2.563.327,5.127.481,7.805.053.837.082,1.476.139,2.063a10.48,10.48,0,0,0,.567,2.775,4.708,4.708,0,0,0,1.847,2.078,5.5,5.5,0,0,0,1.332.563c0,.409.029.813.048,1.193l.058,1.217-6.045.135c.048-.808.063-1.712.072-2.751V19.04c0-1.207-.139-2.732-.255-4.376-.221-3.174-.438-6.339-.659-9.465-.077-1.385-.154-2.751-.226-4.083,0-.1-.034-.111-.082-.053a3.65,3.65,0,0,0-.6,1.231,8.218,8.218,0,0,0-.265,1.2,9.172,9.172,0,0,0,0,1.755c0,.414.038.827.067,1.217.173,2.727.356,5.458.587,9.383.164,2.78.24,4.444.3,6.055.034.89.053,1.765.063,2.616q-7.118.164-14.264.361V22.166c0-.726-.029-1.534-.063-2.4.313-.337.625-.673.919-.962a8.055,8.055,0,0,1,2.65-1.885,32.7,32.7,0,0,1,4.953-1.577l.346-.087a4.016,4.016,0,0,1,.284,1.044c0,.067.058.091.087,0a3.549,3.549,0,0,0,.346-1.241c.914-.207,1.823-.39,2.679-.539a.25.25,0,0,0,.231-.144,9.768,9.768,0,0,0,.524-1.26.515.515,0,0,0-.067-.543c-.62-.875-2.347-2.631-3.669-2.708a.721.721,0,0,0-.144,0,1.515,1.515,0,0,0-1.063.659,3.136,3.136,0,0,0-.678,1.789,1.366,1.366,0,0,0,.231.885l.385.567c-.481.135-1,.279-1.486.423a18.426,18.426,0,0,0-4.809,2.01,16.833,16.833,0,0,0-1.818,1.6c-.053-1.02-.12-2.082-.192-3.164-.231-3.477-.481-6.983-.721-10.446-.077-1.395-.149-2.741-.226-4.1C33.453.024,33.453,0,33.419,0Z" transform="translate(0)" fill="#fff"/>
  <g id="Group_48678" data-name="Group 48678" transform="translate(0 42.988)">
    <path id="Path_386" data-name="Path 386" d="M0,89.66H.635l1.149,1.924L2.934,89.66h.64l-1.515,2.4v1.606H1.515V92.05Z" transform="translate(0 -89.528)" fill="#fff"/>
    <path id="Path_387" data-name="Path 387" d="M8.689,91.924a1.092,1.092,0,0,1,.438.375,1.3,1.3,0,0,1,.2.519,3.367,3.367,0,0,1,.043.64H7.241a1.265,1.265,0,0,0,.212.717.7.7,0,0,0,.6.269.789.789,0,0,0,.611-.255.9.9,0,0,0,.178-.341h.481A.933.933,0,0,1,9.2,94.2a1.149,1.149,0,0,1-.24.322,1.135,1.135,0,0,1-.548.3,1.662,1.662,0,0,1-.4.043,1.226,1.226,0,0,1-.919-.4,1.553,1.553,0,0,1-.375-1.111,1.674,1.674,0,0,1,.38-1.14,1.246,1.246,0,0,1,.991-.438A1.347,1.347,0,0,1,8.689,91.924Zm.173,1.145a1.284,1.284,0,0,0-.139-.51.7.7,0,0,0-.664-.351.741.741,0,0,0-.563.24.919.919,0,0,0-.24.62Z" transform="translate(-3.485 -90.628)" fill="#fff"/>
    <path id="Path_388" data-name="Path 388" d="M14.8,92.985a.269.269,0,0,0,.226-.144.481.481,0,0,0,.034-.188.409.409,0,0,0-.178-.365.962.962,0,0,0-.51-.111.654.654,0,0,0-.548.207.731.731,0,0,0-.115.341h-.481a.837.837,0,0,1,.351-.75,1.4,1.4,0,0,1,.779-.216,1.606,1.606,0,0,1,.837.2.668.668,0,0,1,.317.611V94.25a.212.212,0,0,0,.029.12.154.154,0,0,0,.135.048h.159v.341a.56.56,0,0,0-.173.043h-.164a.394.394,0,0,1-.366-.178.611.611,0,0,1-.087-.269,1.274,1.274,0,0,1-.433.341,1.318,1.318,0,0,1-.616.144.894.894,0,0,1-.664-.25.813.813,0,0,1-.26-.616.8.8,0,0,1,.255-.63A1.193,1.193,0,0,1,14,93.081Zm-1.034,1.323a.582.582,0,0,0,.37.125,1.11,1.11,0,0,0,.481-.12.673.673,0,0,0,.409-.649v-.394a1.043,1.043,0,0,1-.231.1,2.027,2.027,0,0,1-.279.053l-.3.038a1.222,1.222,0,0,0-.4.111.438.438,0,0,0-.226.409.409.409,0,0,0,.173.332Z" transform="translate(-6.783 -90.617)" fill="#fff"/>
    <path id="Path_389" data-name="Path 389" d="M19.77,91.816h.481V92.3a1.139,1.139,0,0,1,.284-.356.707.707,0,0,1,.515-.212h.159v.519h-.164a.7.7,0,0,0-.567.24.822.822,0,0,0-.2.548v1.707h-.481Z" transform="translate(-10.262 -90.602)" fill="#fff"/>
    <path id="Path_390" data-name="Path 390" d="M28.49,92.114a1.467,1.467,0,0,1,.385,1.106,1.924,1.924,0,0,1-.337,1.164,1.236,1.236,0,0,1-1.058.481,1.188,1.188,0,0,1-.962-.409,1.6,1.6,0,0,1-.351-1.092,1.77,1.77,0,0,1,.4-1.193,1.241,1.241,0,0,1,1-.433A1.308,1.308,0,0,1,28.49,92.114Zm-.3,1.924a1.837,1.837,0,0,0,.178-.818,1.491,1.491,0,0,0-.13-.668.726.726,0,0,0-.707-.385.688.688,0,0,0-.644.341,1.611,1.611,0,0,0-.2.827,1.385,1.385,0,0,0,.2.774.707.707,0,0,0,.64.313.673.673,0,0,0,.664-.37Z" transform="translate(-13.582 -90.607)" fill="#fff"/>
    <path id="Path_391" data-name="Path 391" d="M32.875,89.783a.741.741,0,0,1,.659-.25h.216v.447h-.178c-.149,0-.24.039-.269.115a2.313,2.313,0,0,0-.043.592h.481v.39H33.26V93.6h-.481V91.077H32.37v-.39h.409v-.452a.87.87,0,0,1,.1-.452Z" transform="translate(-16.802 -89.459)" fill="#fff"/>
    <path id="Path_392" data-name="Path 392" d="M39.486,89.66H40.1l1.443,4h-.582l-.418-1.2H38.962l-.428,1.207H38Zm.919,2.361-.616-1.77-.64,1.77Z" transform="translate(-19.725 -89.528)" fill="#fff"/>
    <path id="Path_393" data-name="Path 393" d="M46.18,91.817h.481V92.3a1.111,1.111,0,0,1,.279-.356.717.717,0,0,1,.515-.212h.159v.519H47.44a.707.707,0,0,0-.572.24.842.842,0,0,0-.2.548v1.707H46.19Z" transform="translate(-23.971 -90.603)" fill="#fff"/>
    <path id="Path_394" data-name="Path 394" d="M51.285,92.985a.26.26,0,0,0,.226-.144.481.481,0,0,0-.144-.553.961.961,0,0,0-.51-.111.64.64,0,0,0-.543.207.678.678,0,0,0-.12.341h-.481a.837.837,0,0,1,.351-.75,1.443,1.443,0,0,1,.779-.216,1.606,1.606,0,0,1,.837.2.669.669,0,0,1,.317.611V94.25a.178.178,0,0,0,.034.12c0,.034.063.048.13.048h.164v.341a1.806,1.806,0,0,1-.178.043h-.164a.4.4,0,0,1-.365-.178.769.769,0,0,1-.087-.269,1.255,1.255,0,0,1-.428.341,1.341,1.341,0,0,1-.62.144.909.909,0,0,1-.664-.25.813.813,0,0,1-.26-.616.8.8,0,0,1,.255-.63,1.193,1.193,0,0,1,.664-.274Zm-1.034,1.323a.582.582,0,0,0,.37.125,1.082,1.082,0,0,0,.481-.12.673.673,0,0,0,.409-.649v-.394a.875.875,0,0,1-.231.1,2.027,2.027,0,0,1-.279.053l-.293.038a1.255,1.255,0,0,0-.4.111.438.438,0,0,0-.226.409.409.409,0,0,0,.173.332Z" transform="translate(-25.724 -90.617)" fill="#fff"/>
    <path id="Path_395" data-name="Path 395" d="M56.15,89.63h.481v1.443a1.183,1.183,0,0,1,.409-.3,1.106,1.106,0,0,1,.481-.111,1.149,1.149,0,0,1,.89.375,1.6,1.6,0,0,1,.337,1.106,1.871,1.871,0,0,1-.337,1.149,1.082,1.082,0,0,1-.933.481.962.962,0,0,1-.563-.159,1.361,1.361,0,0,1-.293-.3v.346h-.452ZM58.026,93a1.539,1.539,0,0,0,.2-.837,1.323,1.323,0,0,0-.2-.76.649.649,0,0,0-.582-.3.822.822,0,0,0-.592.245,1.116,1.116,0,0,0-.25.818,1.847,1.847,0,0,0,.1.668.721.721,0,0,0,.726.481.659.659,0,0,0,.6-.317Z" transform="translate(-29.146 -89.512)" fill="#fff"/>
    <path id="Path_396" data-name="Path 396" d="M62.58,89.66h.481v.553H62.58Zm0,1.1h.481v2.886H62.58Z" transform="translate(-32.484 -89.528)" fill="#fff"/>
    <path id="Path_397" data-name="Path 397" d="M66.767,91.98a1.125,1.125,0,0,1,.37.846h-.481a.909.909,0,0,0-.2-.447.63.63,0,0,0-.481-.178.688.688,0,0,0-.678.433,1.741,1.741,0,0,0-.135.731,1.376,1.376,0,0,0,.188.741.721.721,0,0,0,1.068.111,1,1,0,0,0,.245-.51h.481a1.255,1.255,0,0,1-.4.851,1.274,1.274,0,0,1-.837.269,1.125,1.125,0,0,1-.914-.418,1.611,1.611,0,0,1-.337-1.048,1.746,1.746,0,0,1,.37-1.193,1.2,1.2,0,0,1,.962-.428,1.255,1.255,0,0,1,.779.24Z" transform="translate(-33.56 -90.607)" fill="#fff"/>
    <path id="Path_398" data-name="Path 398" d="M76.576,89.806a1.443,1.443,0,0,1,.481.914h-.529a1,1,0,0,0-1.092-.842,1.169,1.169,0,0,0-.962.418,2.3,2.3,0,0,0-.038,2.4,1.121,1.121,0,0,0,.962.438,1.01,1.01,0,0,0,.895-.481,1.683,1.683,0,0,0,.245-.635h.529a1.813,1.813,0,0,1-.481,1.058,1.621,1.621,0,0,1-1.27.515,1.654,1.654,0,0,1-1.159-.423,2.2,2.2,0,0,1-.616-1.726A2.236,2.236,0,0,1,74.022,90a1.683,1.683,0,0,1,1.38-.616A1.626,1.626,0,0,1,76.576,89.806Z" transform="translate(-38.169 -89.386)" fill="#fff"/>
    <path id="Path_399" data-name="Path 399" d="M83.49,92.985a.255.255,0,0,0,.226-.144.481.481,0,0,0-.144-.553.933.933,0,0,0-.51-.111.64.64,0,0,0-.543.207.678.678,0,0,0-.115.341h-.481a.832.832,0,0,1,.346-.75,1.443,1.443,0,0,1,.779-.216,1.582,1.582,0,0,1,.837.2.668.668,0,0,1,.317.611V94.25a.212.212,0,0,0,.034.12c0,.034.063.048.13.048h.164v.341a.56.56,0,0,0-.173.043h-.164a.4.4,0,0,1-.37-.178.688.688,0,0,1-.082-.269,1.275,1.275,0,0,1-.433.341,1.342,1.342,0,0,1-.62.144.909.909,0,0,1-.664-.25.827.827,0,0,1-.255-.616.8.8,0,0,1,.25-.63,1.221,1.221,0,0,1,.668-.274Zm-1.029,1.323a.572.572,0,0,0,.366.125,1.082,1.082,0,0,0,.481-.12.673.673,0,0,0,.409-.649v-.394a.875.875,0,0,1-.231.1,1.961,1.961,0,0,1-.274.053l-.3.039a1.182,1.182,0,0,0-.4.111.433.433,0,0,0-.231.409A.4.4,0,0,0,82.461,94.307Z" transform="translate(-42.443 -90.616)" fill="#fff"/>
    <path id="Path_400" data-name="Path 400" d="M88.47,89.66h.481v4.011H88.47Z" transform="translate(-45.923 -89.528)" fill="#fff"/>
    <path id="Path_401" data-name="Path 401" d="M90.93,89.66h.481v4.011H90.93Z" transform="translate(-47.2 -89.528)" fill="#fff"/>
    <path id="Path_402" data-name="Path 402" d="M93.37,89.66h.481v.553H93.37Zm0,1.1h.481v2.886H93.37Z" transform="translate(-48.466 -89.528)" fill="#fff"/>
    <path id="Path_403" data-name="Path 403" d="M97.231,91.973a1.356,1.356,0,0,1,.284.274V91.9h.452V94.55a1.924,1.924,0,0,1-.164.875,1.164,1.164,0,0,1-1.149.582,1.409,1.409,0,0,1-.789-.212.822.822,0,0,1-.361-.659h.481a.558.558,0,0,0,.139.3A.895.895,0,0,0,97.38,95.2a2.2,2.2,0,0,0,.1-.837.962.962,0,0,1-.351.332,1.193,1.193,0,0,1-.548.111,1.178,1.178,0,0,1-.827-.337,1.491,1.491,0,0,1-.332-1.135,1.674,1.674,0,0,1,.356-1.145,1.1,1.1,0,0,1,.88-.394A1.034,1.034,0,0,1,97.231,91.973Zm.063.524a.712.712,0,0,0-.567-.26.7.7,0,0,0-.707.481,1.924,1.924,0,0,0-.1.683,1.2,1.2,0,0,0,.2.75.644.644,0,0,0,.534.255.755.755,0,0,0,.741-.481,1.5,1.5,0,0,0,.12-.63A1.241,1.241,0,0,0,97.293,92.5Z" transform="translate(-49.523 -90.638)" fill="#fff"/>
    <path id="Path_404" data-name="Path 404" d="M102.2,91.816h.481V92.3a1.14,1.14,0,0,1,.284-.356.707.707,0,0,1,.515-.212h.159v.519h-.163a.7.7,0,0,0-.568.24.818.818,0,0,0-.2.548v1.707h-.481Z" transform="translate(-53.049 -90.602)" fill="#fff"/>
    <path id="Path_405" data-name="Path 405" d="M107.305,92.985a.269.269,0,0,0,.226-.144.481.481,0,0,0,.034-.188.409.409,0,0,0-.178-.365.962.962,0,0,0-.51-.111.635.635,0,0,0-.543.207.678.678,0,0,0-.12.341h-.481a.837.837,0,0,1,.351-.75,1.4,1.4,0,0,1,.779-.216,1.606,1.606,0,0,1,.837.2.669.669,0,0,1,.317.611V94.25a.211.211,0,0,0,.029.12.154.154,0,0,0,.135.048h.159v.341a.56.56,0,0,0-.173.043H108a.394.394,0,0,1-.366-.178.611.611,0,0,1-.087-.269,1.275,1.275,0,0,1-.433.341,1.308,1.308,0,0,1-.616.144.909.909,0,0,1-.664-.25.813.813,0,0,1-.26-.616.8.8,0,0,1,.255-.63,1.193,1.193,0,0,1,.664-.274Zm-1.044,1.323a.582.582,0,0,0,.37.125,1.11,1.11,0,0,0,.481-.12.673.673,0,0,0,.409-.649v-.394a1.043,1.043,0,0,1-.231.1,2.028,2.028,0,0,1-.279.053l-.3.038a1.26,1.26,0,0,0-.4.111.438.438,0,0,0-.226.409.409.409,0,0,0,.173.332Z" transform="translate(-54.803 -90.617)" fill="#fff"/>
    <path id="Path_406" data-name="Path 406" d="M112.17,91.846h.481v.39a1.231,1.231,0,0,1,.322-.313,1.058,1.058,0,0,1,.582-.164,1.1,1.1,0,0,1,.846.385,1.548,1.548,0,0,1,.346,1.082,1.674,1.674,0,0,1-.481,1.366,1.13,1.13,0,0,1-.741.26,1,1,0,0,1-.553-.144,1.314,1.314,0,0,1-.293-.284v1.491H112.2Zm1.842,2.289a1.4,1.4,0,0,0,.226-.861,1.621,1.621,0,0,0-.1-.6.741.741,0,0,0-1.4.029,2.025,2.025,0,0,0-.1.693,1.476,1.476,0,0,0,.1.577.745.745,0,0,0,1.274.164Z" transform="translate(-58.225 -90.618)" fill="#fff"/>
    <path id="Path_407" data-name="Path 407" d="M118.59,89.63h.481v1.491a1.443,1.443,0,0,1,.317-.308,1.024,1.024,0,0,1,.592-.159.875.875,0,0,1,.861.447,1.505,1.505,0,0,1,.12.673v1.88h-.5V91.809a.962.962,0,0,0-.082-.481.51.51,0,0,0-.481-.24.832.832,0,0,0-.553.207,1.015,1.015,0,0,0-.25.794v1.568h-.481Z" transform="translate(-61.558 -89.512)" fill="#fff"/>
    <path id="Path_408" data-name="Path 408" d="M126.436,91.91h.539c-.067.188-.221.616-.457,1.284q-.269.75-.447,1.226a8.282,8.282,0,0,1-.6,1.361.678.678,0,0,1-.6.245h-.159L124.574,96v-.447l.183.043h.1a.37.37,0,0,0,.2-.043.48.48,0,0,0,.106-.111s.043-.091.1-.226.1-.231.12-.3L124.31,91.91h.553l.784,2.4Z" transform="translate(-64.527 -90.696)" fill="#fff"/>
  </g>
  <text id="_2021" data-name="2021" transform="translate(64.491 43.546)" fill="#fff" font-size="4" font-family="ArialMT, Arial"><tspan x="0" y="0">2021</tspan></text>
</svg>
