<svg xmlns="http://www.w3.org/2000/svg" width="23.277" height="16.294" viewBox="0 0 23.277 16.294">
  <path id="youtube-white" d="M63.584,3.238a2.922,2.922,0,0,0-2.058-2.06C59.711.694,52.433.694,52.433.694s-7.278,0-9.1.484a2.923,2.923,0,0,0-2.056,2.06,30.3,30.3,0,0,0-.486,5.6,30.254,30.254,0,0,0,.486,5.6A2.913,2.913,0,0,0,43.334,16.5c1.821.486,9.1.486,9.1.486s7.278,0,9.093-.486a2.915,2.915,0,0,0,2.058-2.058,30.381,30.381,0,0,0,.484-5.6,30.43,30.43,0,0,0-.484-5.6M50.105,12.333V5.349l6.047,3.495Z" transform="translate(-40.792 -0.694)" fill="#fff"/>
</svg>
