<svg xmlns="http://www.w3.org/2000/svg" width="64.83" height="64.863" viewBox="0 0 64.83 64.863">
  <g id="icon1" transform="translate(19178.79 4524.241)">
    <line id="Line_360" data-name="Line 360" x2="2.731" transform="translate(-19134.082 -4508.209)" fill="none" stroke="#00ab7a" stroke-linecap="round" stroke-linejoin="round" stroke-width="2"/>
    <line id="Line_361" data-name="Line 361" x2="2.732" transform="translate(-19140.912 -4508.209)" fill="none" stroke="#00ab7a" stroke-linecap="round" stroke-linejoin="round" stroke-width="2"/>
    <line id="Line_362" data-name="Line 362" x2="2.732" transform="translate(-19147.74 -4508.209)" fill="none" stroke="#00ab7a" stroke-linecap="round" stroke-linejoin="round" stroke-width="2"/>
    <path id="Path_123227" data-name="Path 123227" d="M1325.942,582.323v-1.367c0-3.746-6.159-5.466-9.561-5.466s-9.561,1.688-9.561,5.434v1.4" transform="translate(-20445 -5055)" fill="none" stroke="#00ab7a" stroke-linecap="round" stroke-linejoin="round" stroke-width="2"/>
    <path id="Path_123228" data-name="Path 123228" d="M1316.381,575.49a5.6,5.6,0,0,0,5.464-5.857V567.68a5.477,5.477,0,1,0-10.927,0v1.953A5.6,5.6,0,0,0,1316.381,575.49Z" transform="translate(-20445 -5055)" fill="none" stroke="#00ab7a" stroke-linecap="round" stroke-linejoin="round" stroke-width="2"/>
    <path id="Path_123229" data-name="Path 123229" d="M1306.82,594.622v-1.367c0-3.745-6.159-5.466-9.561-5.466s-9.561,1.688-9.561,5.434v1.4" transform="translate(-20445 -5055)" fill="none" stroke="#00ab7a" stroke-linecap="round" stroke-linejoin="round" stroke-width="2"/>
    <path id="Path_123230" data-name="Path 123230" d="M1297.259,587.789a5.6,5.6,0,0,0,5.463-5.857v-1.953a5.477,5.477,0,1,0-10.927,0v1.953A5.6,5.6,0,0,0,1297.259,587.789Z" transform="translate(-20445 -5055)" fill="none" stroke="#00ab7a" stroke-linecap="round" stroke-linejoin="round" stroke-width="2"/>
    <path id="Path_123231" data-name="Path 123231" d="M1286.332,586.422c0-3.745-6.159-5.466-9.561-5.466s-9.561,1.688-9.561,5.434v1.4" transform="translate(-20445 -5055)" fill="none" stroke="#00ab7a" stroke-linecap="round" stroke-linejoin="round" stroke-width="2"/>
    <path id="Path_123232" data-name="Path 123232" d="M1276.771,580.956a5.6,5.6,0,0,0,5.463-5.856v-1.954a5.477,5.477,0,1,0-10.927,0V575.1A5.6,5.6,0,0,0,1276.771,580.956Z" transform="translate(-20445 -5055)" fill="none" stroke="#00ab7a" stroke-linecap="round" stroke-linejoin="round" stroke-width="2"/>
    <path id="Path_123233" data-name="Path 123233" d="M1324.576,561.824h2.732a2.733,2.733,0,0,0,2.732-2.733v-24.6a2.729,2.729,0,0,0-2.728-2.73h-42.349a2.73,2.73,0,0,0-2.729,2.73v24.594a2.74,2.74,0,0,0,2.739,2.741h4.091v8.2a1.366,1.366,0,0,0,2.394.9l8.533-9.1h8.2" transform="translate(-20445 -5055)" fill="none" stroke="#00ab7a" stroke-linecap="round" stroke-linejoin="round" stroke-width="2"/>
  </g>
</svg>
