<svg xmlns="http://www.w3.org/2000/svg" width="74.92" height="80.726" viewBox="0 0 74.92 80.726">
  <g id="logo2" transform="translate(22520.225 -43.154)">
    <g id="Group_56117" data-name="Group 56117" transform="translate(-22519.225 71.437)">
      <path id="Path_124415" data-name="Path 124415" d="M-22496,107.234l29.508-11.942V72.4l-20.832,9.952-8.676-5.846Z" transform="translate(22531.918 -56.126)" fill="none" stroke="#00ab7a" stroke-linecap="round" stroke-linejoin="round" stroke-width="2"/>
      <path id="Path_124416" data-name="Path 124416" d="M-22486.484,76.257l-6.32,7.309-21.16-10.742V93.657l27.672,13.347" transform="translate(22522.104 -55.896)" fill="none" stroke="#00ab7a" stroke-linecap="round" stroke-linejoin="round" stroke-width="2"/>
      <path id="Path_124417" data-name="Path 124417" d="M-22510.436,77.061l-8.789-4.692,8.789-6.7,26.691,13.347,28.32-13.347,9.117,6.7-7.568,3.8" transform="translate(22519.225 -59.808)" fill="none" stroke="#00ab7a" stroke-linecap="round" stroke-linejoin="round" stroke-width="2"/>
      <path id="Path_124418" data-name="Path 124418" d="M-22483.947,61.923l9.547,5.28" transform="translate(22537.977 -61.534)" fill="none" stroke="#00ab7a" stroke-linecap="round" stroke-width="2"/>
      <path id="Path_124419" data-name="Path 124419" d="M-22513.389,67.543l10-5.643" transform="translate(22522.418 -61.879)" fill="none" stroke="#00ab7a" stroke-linecap="round" stroke-width="2"/>
    </g>
    <path id="Path_122809" data-name="Path 122809" d="M247.626,44.287l-.119-.087a32.524,32.524,0,0,0-7.762-3.855,10.281,10.281,0,0,1-4.907-3.144c-1.164-1.508-1.707-3.553-1.707-6.436V17.83c0-2.883.542-4.928,1.707-6.436a10.281,10.281,0,0,1,4.907-3.144A32.493,32.493,0,0,0,247.507,4.4l.119-.087.119.087a33.171,33.171,0,0,0,7.747,3.856,10.28,10.28,0,0,1,4.908,3.143c1.165,1.508,1.707,3.553,1.707,6.436V30.765c0,2.882-.542,4.927-1.707,6.436a10.283,10.283,0,0,1-4.908,3.144,34.2,34.2,0,0,0-7.747,3.855Zm0-39.481a33.416,33.416,0,0,1-7.742,3.821c-4.12,1.528-6.352,3.447-6.352,9.2V30.765c0,5.755,2.232,7.675,6.352,9.2a33.449,33.449,0,0,1,7.742,3.821,35.1,35.1,0,0,1,7.726-3.821c4.12-1.528,6.353-3.448,6.353-9.2V17.83c0-5.755-2.233-7.674-6.353-9.2A33.587,33.587,0,0,1,247.626,4.806Z" transform="translate(-22730.383 40.086)" fill="none" stroke="#00ab7a" stroke-width="2"/>
    <g id="Group_56116" data-name="Group 56116" transform="translate(-22495.246 51.43)">
      <path id="Path_124420" data-name="Path 124420" d="M263.436,47.5a.526.526,0,0,0-.237-.047v0a.535.535,0,0,0-.14.023l-.029.012a.533.533,0,0,0-.087.039l0,0h0a.491.491,0,0,0-.055.042.233.233,0,0,0-.028.015s-.008.012-.012.016a.175.175,0,0,0-.023.018l0,.008a.5.5,0,0,0-.092.118.989.989,0,0,1-.556.08,5.745,5.745,0,0,1-1.832-.487q-.329-.136-.685-.305c0,.013-.446.447-.567.587a1.184,1.184,0,0,0-.294.5l.209.1a8.068,8.068,0,0,0,3.25.95,2.528,2.528,0,0,0,.578-.062,1.256,1.256,0,0,0,.9-.666.7.7,0,0,0-.3-.946" transform="translate(-243.273 -24.866)" fill="#00ab7a"/>
      <path id="Path_124421" data-name="Path 124421" d="M246.733,47.032q-.354.17-.685.305a5.742,5.742,0,0,1-1.831.487.988.988,0,0,1-.556-.08.523.523,0,0,0-.093-.118l0-.008a.254.254,0,0,0-.023-.018c-.005,0-.008-.012-.013-.016a.274.274,0,0,0-.027-.015c-.019-.014-.037-.032-.055-.043h0a.452.452,0,0,0-.087-.038l-.029-.012a.531.531,0,0,0-.14-.023v0a.526.526,0,0,0-.237.047.7.7,0,0,0-.3.945,1.253,1.253,0,0,0,.9.667,2.523,2.523,0,0,0,.578.062,8.074,8.074,0,0,0,3.249-.95l.209-.1a1.192,1.192,0,0,0-.293-.5c-.121-.14-.563-.574-.568-.587" transform="translate(-238.157 -24.866)" fill="#00ab7a"/>
      <path id="Path_124422" data-name="Path 124422" d="M261.06,35.7l-.027-.01-.415-.132a4.866,4.866,0,0,0-1.46-.2c-.177,0-.359.006-.542.018a9.445,9.445,0,0,0-3.093.778A19.575,19.575,0,0,0,251.5,38.7c-1.047.791-2,1.552-2.9,2.22-.895-.668-1.849-1.428-2.9-2.22a19.592,19.592,0,0,0-4.024-2.537,9.453,9.453,0,0,0-3.093-.778c-.183-.012-.365-.018-.543-.018a4.871,4.871,0,0,0-1.46.2l-.415.132-.027.01a.029.029,0,0,0,.014.056,12.289,12.289,0,0,1,4.049,1.1,17.225,17.225,0,0,1,3.024,1.758,18.968,18.968,0,0,1,1.654,1.23q1.3,1.075,2.483,1.95c-.078.052-.157.106-.233.156q-.97.628-1.824,1.075c-.688-.745-.572-1.226-.572-1.226a.462.462,0,0,0-.51-.071c-.414.334,0,.839.535,1.367.043.043.3.3.3.3a5.994,5.994,0,0,1,.544.621.834.834,0,0,1,.053.09,1.148,1.148,0,0,1-.018,1.265c.34.388.538.215.538.215.385-.233.321-.84,0-1.421a27.586,27.586,0,0,0,2.414-1.5,27.677,27.677,0,0,0,2.414,1.5c-.318.581-.381,1.188,0,1.421,0,0,.2.173.539-.215a1.147,1.147,0,0,1-.019-1.265.824.824,0,0,1,.054-.09,5.931,5.931,0,0,1,.544-.621s.261-.257.3-.3c.53-.529.949-1.033.535-1.367a.462.462,0,0,0-.51.071s.116.481-.572,1.226c-.568-.3-1.177-.657-1.823-1.075-.077-.05-.156-.1-.233-.156q1.183-.875,2.482-1.95a19.2,19.2,0,0,1,1.654-1.23A17.244,17.244,0,0,1,257,36.859a12.3,12.3,0,0,1,4.05-1.1.029.029,0,0,0,.013-.056" transform="translate(-236.126 -21.188)" fill="#00ab7a"/>
      <path id="Path_124423" data-name="Path 124423" d="M253.917,17.6a.032.032,0,0,1,.006-.064h0a5.471,5.471,0,0,1,3.562,1.189.036.036,0,0,0,.057-.04,4.026,4.026,0,0,0-3.815-2.32c-.118,0-.236.008-.353.018a.032.032,0,0,1-.025-.058,3.379,3.379,0,0,1,1.742-.589.032.032,0,0,0,.017-.06,3.031,3.031,0,0,0-1.529-.4,2.934,2.934,0,0,0-1.567.451l-.053-.023a3.452,3.452,0,0,0-.351-.938c-.01-.019-.03-.054-.048-.083a.036.036,0,0,0-.031-.017.035.035,0,0,0-.031.017l-.049.083a3.494,3.494,0,0,0-.35.938l-.053.023a2.938,2.938,0,0,0-1.569-.451,3.023,3.023,0,0,0-1.527.4.032.032,0,0,0,.015.06,3.375,3.375,0,0,1,1.742.589.032.032,0,0,1-.024.058c-.116-.01-.234-.016-.353-.018a4.026,4.026,0,0,0-3.815,2.32.036.036,0,0,0,.057.04,5.469,5.469,0,0,1,3.562-1.189h0a.032.032,0,0,1,.008.064,4.629,4.629,0,0,0-3.731,3.206.037.037,0,0,0,.061.035,7.449,7.449,0,0,1,2.93-1.7.035.035,0,0,1,.034.059,5.5,5.5,0,0,0-1.874,3.994c0,.057,0,.114,0,.17,0,.034.055.049.069.02a7.36,7.36,0,0,1,2.059-2.475.036.036,0,0,1,.057.041,6.634,6.634,0,0,0-.408,2.231,6.865,6.865,0,0,0,.251,1.905.035.035,0,0,0,.068,0,8.485,8.485,0,0,1,1.578-3.4c.022-.03.075-.008.065.027a5.493,5.493,0,0,0-.136,3.561.037.037,0,0,0,.071-.01,14.329,14.329,0,0,1,1.291-3.348,14.328,14.328,0,0,1,1.29,3.348.037.037,0,0,0,.071.01,5.488,5.488,0,0,0-.136-3.561.037.037,0,0,1,.065-.027,8.448,8.448,0,0,1,1.578,3.4.036.036,0,0,0,.069,0,6.811,6.811,0,0,0,.25-1.905,6.635,6.635,0,0,0-.407-2.231.036.036,0,0,1,.057-.041,7.393,7.393,0,0,1,2.06,2.475c.014.029.068.014.068-.02,0-.057,0-.114,0-.17a5.49,5.49,0,0,0-1.874-3.994.035.035,0,0,1,.034-.059,7.447,7.447,0,0,1,2.93,1.7.037.037,0,0,0,.062-.035,4.633,4.633,0,0,0-3.732-3.206" transform="translate(-239.054 -14.658)" fill="#00ab7a"/>
      <path id="Path_124424" data-name="Path 124424" d="M253.938,22.256h0s-.894,7.537-.894,10.624.894,3.261.894,3.261.894-.174.894-3.261-.894-10.624-.894-10.624" transform="translate(-241.458 -17.054)" fill="#00ab7a"/>
    </g>
  </g>
</svg>
