<svg xmlns="http://www.w3.org/2000/svg" width="88.461" height="68.785" viewBox="0 0 88.461 68.785">
  <g id="logo5" transform="translate(19930.766 4204.241)">
    <path id="Path_124539" data-name="Path 124539" d="M1346.049,576.719h4.086a4.086,4.086,0,0,0,4.086-4.087V535.842a4.082,4.082,0,0,0-4.08-4.083h-64.826a4.082,4.082,0,0,0-4.081,4.083V572.62a4.1,4.1,0,0,0,4.1,4.1h7.613v12.261a2.042,2.042,0,0,0,3.58,1.346l12.761-13.607h36.765" transform="translate(-21211 -4735)" fill="none" stroke="#00ab7a" stroke-linecap="round" stroke-linejoin="round" stroke-width="2"/>
    <path id="Path_124540" data-name="Path 124540" d="M1337.612,531.759h3.37a4.082,4.082,0,0,1,4.081,4.083v36.779a4.1,4.1,0,0,1-4.1,4.1h-15.09v12.261a2.043,2.043,0,0,1-3.58,1.346l-12.76-13.607h-9.821" transform="translate(-21188.367 -4727.523)" fill="none" stroke="#00ab7a" stroke-linecap="round" stroke-linejoin="round" stroke-width="2"/>
    <line id="Line_479" data-name="Line 479" x2="4.084" transform="translate(-19885.375 -4180.762)" fill="none" stroke="#00ab7a" stroke-linecap="round" stroke-linejoin="round" stroke-width="2"/>
    <line id="Line_480" data-name="Line 480" x2="4.085" transform="translate(-19895.59 -4180.762)" fill="none" stroke="#00ab7a" stroke-linecap="round" stroke-linejoin="round" stroke-width="2"/>
    <line id="Line_481" data-name="Line 481" x2="4.085" transform="translate(-19905.801 -4180.762)" fill="none" stroke="#00ab7a" stroke-linecap="round" stroke-linejoin="round" stroke-width="2"/>
  </g>
</svg>
