<svg xmlns="http://www.w3.org/2000/svg" width="69.171" height="76.668" viewBox="0 0 69.171 76.668">
  <g id="logo7" transform="translate(20209.266 4741.64)">
    <line id="Line_393" data-name="Line 393" x2="11.875" transform="translate(-20196.393 -4691.427)" fill="none" stroke="#00ab7a" stroke-linecap="round" stroke-linejoin="round" stroke-width="2"/>
    <line id="Line_394" data-name="Line 394" x2="5.089" transform="translate(-20196.393 -4681.245)" fill="none" stroke="#00ab7a" stroke-linecap="round" stroke-linejoin="round" stroke-width="2"/>
    <line id="Line_395" data-name="Line 395" x2="5.089" transform="translate(-20184.518 -4701.608)" fill="none" stroke="#00ab7a" stroke-linecap="round" stroke-linejoin="round" stroke-width="2"/>
    <line id="Line_396" data-name="Line 396" x2="5.089" transform="translate(-20196.393 -4701.608)" fill="none" stroke="#00ab7a" stroke-linecap="round" stroke-linejoin="round" stroke-width="2"/>
    <line id="Line_397" data-name="Line 397" x2="25.447" transform="translate(-20196.393 -4711.791)" fill="none" stroke="#00ab7a" stroke-linecap="round" stroke-linejoin="round" stroke-width="2"/>
    <path id="Path_123270" data-name="Path 123270" d="M242.341,331.849H252.52a1.7,1.7,0,0,0,1.7-1.7V319.97" transform="translate(-20443.822 -5053.822)" fill="none" stroke="#00ab7a" stroke-linecap="round" stroke-linejoin="round" stroke-width="2"/>
    <path id="Path_123271" data-name="Path 123271" d="M292.714,382.789v2.845a3.393,3.393,0,0,1-3.393,3.394H239.749a2.983,2.983,0,0,1-3.015-2.951V333.544a3.6,3.6,0,0,1,1.122-3.017l15.805-15.218a3.393,3.393,0,0,1,2.353-.949H289.7a2.983,2.983,0,0,1,3.015,2.951v2.534" transform="translate(-20445 -5055)" fill="none" stroke="#00ab7a" stroke-linecap="round" stroke-linejoin="round" stroke-width="2"/>
    <g id="Group_56320" data-name="Group 56320" transform="translate(-20168.41 -4729.394)">
      <path id="Path_123244" data-name="Path 123244" d="M34.824,546.232a4.762,4.762,0,0,0,4.967-4.97v-2.484a4.762,4.762,0,0,0-4.967-4.969,4.762,4.762,0,0,0-4.966,4.969v2.484A4.762,4.762,0,0,0,34.824,546.232Z" transform="translate(-18.684 -533.809)" fill="none" stroke="#00ab7a" stroke-linecap="round" stroke-linejoin="round" stroke-width="2"/>
      <rect id="Rectangle_14007" data-name="Rectangle 14007" width="11.175" height="9.938" transform="translate(0 36.025)" fill="none" stroke="#00ab7a" stroke-linecap="round" stroke-linejoin="round" stroke-width="2"/>
      <line id="Line_368" data-name="Line 368" y2="6.211" transform="translate(9.935 45.963)" fill="none" stroke="#00ab7a" stroke-linecap="round" stroke-linejoin="round" stroke-width="2"/>
      <line id="Line_369" data-name="Line 369" y2="17.392" transform="translate(16.141 34.783)" fill="none" stroke="#00ab7a" stroke-linecap="round" stroke-linejoin="round" stroke-width="2"/>
      <line id="Line_370" data-name="Line 370" y2="12.423" transform="translate(9.935 23.602)" fill="none" stroke="#00ab7a" stroke-linecap="round" stroke-linejoin="round" stroke-width="2"/>
      <line id="Line_371" data-name="Line 371" y1="28.572" transform="translate(22.35 23.602)" fill="none" stroke="#00ab7a" stroke-linecap="round" stroke-linejoin="round" stroke-width="2"/>
      <path id="Path_123245" data-name="Path 123245" d="M40.411,571.451a5.238,5.238,0,0,0,4.967-4.97v-8.7c0-4.1-6.861-6.211-11.175-6.211s-11.175,2.108-11.175,6.211v13.666" transform="translate(-18.062 -535.425)" fill="none" stroke="#00ab7a" stroke-linecap="round" stroke-linejoin="round" stroke-width="2"/>
    </g>
  </g>
</svg>
