<svg xmlns="http://www.w3.org/2000/svg" width="76.428" height="79.852" viewBox="0 0 76.428 79.852">
  <g id="logo3" transform="translate(19179.122 4743.043)">
    <line id="Line_355" data-name="Line 355" x2="5.074" transform="translate(-19135.832 -4725.12)" fill="none" stroke="#00ab7a" stroke-linecap="round" stroke-linejoin="round" stroke-width="2"/>
    <path id="Path_123222" data-name="Path 123222" d="M1311.518,354.43v5.8l-5.8-1.934-5.8,1.934v-5.8" transform="translate(-20438.168 -5046.425)" fill="none" stroke="#00ab7a" stroke-linecap="round" stroke-linejoin="round" stroke-width="2"/>
    <path id="Path_123223" data-name="Path 123223" d="M1309.365,336.639l1.588,3.056,3.054,1.589-1.037,3.285,1.037,3.285-3.054,1.588-1.588,3.057-3.284-1.037L1302.8,352.5l-1.588-3.056-3.054-1.589,1.037-3.286-1.037-3.284,3.054-1.589,1.588-3.056,3.283,1.037Z" transform="translate(-20438.533 -5050.104)" fill="none" stroke="#00ab7a" stroke-linecap="round" stroke-linejoin="round" stroke-width="2"/>
    <line id="Line_356" data-name="Line 356" x2="16.915" transform="translate(-19159.516 -4725.12)" fill="none" stroke="#00ab7a" stroke-linecap="round" stroke-linejoin="round" stroke-width="2"/>
    <line id="Line_357" data-name="Line 357" x2="13.533" transform="translate(-19159.516 -4713.273)" fill="none" stroke="#00ab7a" stroke-linecap="round" stroke-linejoin="round" stroke-width="2"/>
    <line id="Line_358" data-name="Line 358" x2="11.841" transform="translate(-19159.516 -4701.424)" fill="none" stroke="#00ab7a" stroke-linecap="round" stroke-linejoin="round" stroke-width="2"/>
    <line id="Line_359" data-name="Line 359" x2="10.15" transform="translate(-19159.516 -4689.578)" fill="none" stroke="#00ab7a" stroke-linecap="round" stroke-linejoin="round" stroke-width="2"/>
    <path id="Path_123224" data-name="Path 123224" d="M1306.126,384.039a6.766,6.766,0,1,0,13.533,0V319.726a6.766,6.766,0,1,1,13.532,0v1.693a1.691,1.691,0,0,1-1.691,1.692h-5.075" transform="translate(-20436.885 -5055)" fill="none" stroke="#00ab7a" stroke-linecap="round" stroke-linejoin="round" stroke-width="2"/>
    <path id="Path_123225" data-name="Path 123225" d="M1314.241,372.44v-1.692a1.692,1.692,0,0,0-1.691-1.693h-43.98a1.692,1.692,0,0,0-1.692,1.693v1.692a6.788,6.788,0,0,0,6.766,6.77h47.363" transform="translate(-20445 -5043.401)" fill="none" stroke="#00ab7a" stroke-linecap="round" stroke-linejoin="round" stroke-width="2"/>
    <path id="Path_123226" data-name="Path 123226" d="M1333.091,312.957h-52.438a6.768,6.768,0,0,0-6.766,6.769v54.158" transform="translate(-20443.551 -5055)" fill="none" stroke="#00ab7a" stroke-linecap="round" stroke-linejoin="round" stroke-width="2"/>
  </g>
</svg>
