<svg xmlns="http://www.w3.org/2000/svg" width="101.856" height="81.001" viewBox="0 0 101.856 81.001">
  <g id="logo6" transform="translate(19893 4360)">
    <path id="Subtraction_2" data-name="Subtraction 2" d="M1688-3926h-64v-78h64v.916a19.1,19.1,0,0,0-2,1.464v-.38h-60v74h60v-43.38a19.165,19.165,0,0,0,2,1.464V-3926Z" transform="translate(-21517 -353)" fill="#00ab7a"/>
    <line id="Line_471" data-name="Line 471" x1="6.501" transform="translate(-19883.844 -4341.477)" fill="none" stroke="#00ab7a" stroke-linecap="round" stroke-linejoin="round" stroke-width="2"/>
    <path id="Path_124425" data-name="Path 124425" d="M1299.919,354.43v4.921l4.919-1.641,4.918,1.641V354.43" transform="translate(-21183.764 -4645.605)" fill="none" stroke="#00ab7a" stroke-linecap="round" stroke-linejoin="round" stroke-width="2"/>
    <path id="Path_124426" data-name="Path 124426" d="M1302.094,336.639l-1.347,2.591-2.59,1.348.879,2.786-.879,2.786,2.59,1.347,1.347,2.592,2.785-.879,2.784.879,1.347-2.591,2.59-1.348-.879-2.787.879-2.785-2.59-1.348-1.347-2.591-2.785.879Z" transform="translate(-21183.803 -4646.022)" fill="none" stroke="#00ab7a" stroke-linecap="round" stroke-linejoin="round" stroke-width="2"/>
    <line id="Line_472" data-name="Line 472" x1="28.996" transform="translate(-19870.4 -4341.477)" fill="none" stroke="#00ab7a" stroke-linecap="round" stroke-linejoin="round" stroke-width="2"/>
    <line id="Line_473" data-name="Line 473" x1="27.507" transform="translate(-19868.906 -4326.3)" fill="none" stroke="#00ab7a" stroke-linecap="round" stroke-linejoin="round" stroke-width="2"/>
    <line id="Line_474" data-name="Line 474" x1="21.32" transform="translate(-19862.723 -4311.12)" fill="none" stroke="#00ab7a" stroke-linecap="round" stroke-linejoin="round" stroke-width="2"/>
    <line id="Line_475" data-name="Line 475" x1="16.684" transform="translate(-19858.084 -4295.943)" fill="none" stroke="#00ab7a" stroke-linecap="round" stroke-linejoin="round" stroke-width="2"/>
    <g id="Ellipse_11174" data-name="Ellipse 11174" transform="translate(-19839 -4360)" fill="none" stroke="#00ab7a" stroke-width="2">
      <ellipse cx="20" cy="20.5" rx="20" ry="20.5" stroke="none"/>
      <ellipse cx="20" cy="20.5" rx="19" ry="19.5" fill="none"/>
    </g>
    <line id="Line_476" data-name="Line 476" x2="17.006" y2="27.829" transform="translate(-19809.004 -4323.297)" fill="none" stroke="#00ab7a" stroke-width="2"/>
    <text id="_" data-name="?" transform="translate(-19819 -4329)" fill="#00ab7a" font-size="27" font-family="SegoeUI, Segoe UI"><tspan x="-6.051" y="0">?</tspan></text>
  </g>
</svg>
