<svg xmlns="http://www.w3.org/2000/svg" width="66.533" height="79.89" viewBox="0 0 66.533 79.89">
  <g id="logo4" transform="translate(19956 4221)">
    <g id="Group_56118" data-name="Group 56118" transform="translate(-19952.256 -4210.621)">
      <line id="Line_298" data-name="Line 298" x1="0.213" y1="0.213" transform="translate(48.265 48.093)" fill="none" stroke="#00ab7a" stroke-linecap="round" stroke-linejoin="round" stroke-width="2"/>
      <line id="Line_299" data-name="Line 299" x1="0.213" y1="0.213" transform="translate(45.221 45.049)" fill="none" stroke="#00ab7a" stroke-linecap="round" stroke-linejoin="round" stroke-width="2"/>
      <line id="Line_300" data-name="Line 300" x1="0.68" y1="0.681" transform="translate(56.046 34.473)" fill="none" stroke="#00ab7a" stroke-linecap="round" stroke-linejoin="round" stroke-width="2"/>
      <line id="Line_301" data-name="Line 301" x1="0.681" y1="0.681" transform="translate(59.718 38.147)" fill="none" stroke="#00ab7a" stroke-linecap="round" stroke-linejoin="round" stroke-width="2"/>
      <line id="Line_302" data-name="Line 302" y1="0.681" x2="0.681" transform="translate(59.718 34.473)" fill="none" stroke="#00ab7a" stroke-linecap="round" stroke-linejoin="round" stroke-width="2"/>
      <line id="Line_303" data-name="Line 303" y1="0.681" x2="0.68" transform="translate(56.046 38.147)" fill="none" stroke="#00ab7a" stroke-linecap="round" stroke-linejoin="round" stroke-width="2"/>
      <line id="Line_304" data-name="Line 304" x2="16.075" transform="translate(30.128 56.037)" fill="none" stroke="#00ab7a" stroke-linecap="round" stroke-linejoin="round" stroke-width="2"/>
      <line id="Line_305" data-name="Line 305" x2="29.582" transform="translate(23.896 62.273)" fill="none" stroke="#00ab7a" stroke-linecap="round" stroke-linejoin="round" stroke-width="2"/>
      <line id="Line_306" data-name="Line 306" x2="61.788" transform="translate(0 68.51)" fill="none" stroke="#00ab7a" stroke-linecap="round" stroke-linejoin="round" stroke-width="2"/>
      <line id="Line_307" data-name="Line 307" x2="14.759" y2="14.766" transform="translate(40.653 6.38)" fill="none" stroke="#00ab7a" stroke-linecap="round" stroke-linejoin="round" stroke-width="2"/>
      <line id="Line_308" data-name="Line 308" y1="22.608" x2="22.598" transform="translate(21.91 21.996)" fill="none" stroke="#00ab7a" stroke-linecap="round" stroke-linejoin="round" stroke-width="2"/>
      <line id="Line_309" data-name="Line 309" x2="9.627" y2="9.633" transform="translate(1.204 51.141)" fill="none" stroke="#00ab7a" stroke-linecap="round" stroke-linejoin="round" stroke-width="2"/>
      <line id="Line_310" data-name="Line 310" x2="14.759" y2="14.766" transform="translate(6.536 40.514)" fill="none" stroke="#00ab7a" stroke-linecap="round" stroke-linejoin="round" stroke-width="2"/>
      <path id="Path_123140" data-name="Path 123140" d="M865.778,437.786a6.126,6.126,0,0,1,1.8,4.356" transform="translate(-810.071 -431.7)" fill="none" stroke="#00ab7a" stroke-linecap="round" stroke-linejoin="round" stroke-width="2"/>
      <path id="Path_123141" data-name="Path 123141" d="M829.252,469.622l-5.407,5.41a11.513,11.513,0,0,0-3.3,6.9l-1.408,13.032,12.778-1.769a11.5,11.5,0,0,0,6.557-3.262l39.4-39.418a10.439,10.439,0,0,0-14.758-14.766l-7.38,7.383" transform="translate(-819.135 -432.691)" fill="none" stroke="#00ab7a" stroke-linecap="round" stroke-linejoin="round" stroke-width="2"/>
      <line id="Line_469" data-name="Line 469" x1="0.213" y2="0.213" transform="translate(48.379 45.049)" fill="none" stroke="#00ab7a" stroke-linecap="round" stroke-linejoin="round" stroke-width="2"/>
      <line id="Line_470" data-name="Line 470" x1="0.213" y2="0.213" transform="translate(45.335 48.093)" fill="none" stroke="#00ab7a" stroke-linecap="round" stroke-linejoin="round" stroke-width="2"/>
    </g>
    <g id="Group_56119" data-name="Group 56119" transform="translate(-19956 -4221)">
      <g id="Union_15" data-name="Union 15" transform="translate(0 0)" fill="none">
        <path d="M6.279,31.734a18.05,18.05,0,1,1,23.545,0L18.05,46.028Z" stroke="none"/>
        <path d="M 18.04984664916992 42.88159561157227 L 28.38863754272461 30.32762718200684 L 28.51837730407715 30.21587753295898 C 32.06531524658203 27.16073608398438 34.0995979309082 22.72636604309082 34.0995979309082 18.04979705810547 C 34.0995979309082 13.76268672943115 32.43013763427734 9.732216835021973 29.39875793457031 6.700836658477783 C 26.36737632751465 3.669456958770752 22.33690643310547 1.999996900558472 18.04979705810547 1.999996900558472 C 13.76268672943115 1.999996900558472 9.732216835021973 3.669456958770752 6.700837135314941 6.700836658477783 C 3.669456958770752 9.732216835021973 1.999997019767761 13.76268672943115 1.999997019767761 18.04979705810547 C 1.999997019767761 22.7275276184082 4.03512716293335 27.16263771057129 7.583567142486572 30.2179069519043 L 7.713497161865234 30.32978630065918 L 18.04984664916992 42.88159561157227 M 18.04979705810547 46.02771759033203 L 6.278596878051758 31.73351669311523 C 2.434216976165771 28.42342758178711 -2.941894535979372e-06 23.52091598510742 -2.941894535979372e-06 18.04979705810547 C -2.941894535979372e-06 8.081067085266113 8.081067085266113 -3.112182639597449e-06 18.04979705810547 -3.112182639597449e-06 C 28.0185375213623 -3.112182639597449e-06 36.0995979309082 8.081067085266113 36.0995979309082 18.04979705810547 C 36.0995979309082 23.51969718933105 33.66652679443359 28.42117691040039 29.82362747192383 31.73123741149902 L 18.04979705810547 46.02771759033203 Z" stroke="none" fill="#00ab7a"/>
      </g>
      <g id="Ellipse_11173" data-name="Ellipse 11173" transform="translate(9.826 9.599)" fill="none" stroke="#00ab7a" stroke-width="2">
        <circle cx="8.5" cy="8.5" r="8.5" stroke="none"/>
        <circle cx="8.5" cy="8.5" r="7.5" fill="none"/>
      </g>
    </g>
  </g>
</svg>
