<svg xmlns="http://www.w3.org/2000/svg" width="70.419" height="69.386" viewBox="0 0 70.419 69.386">
  <g id="logo8" transform="translate(20169.656 4741.64)">
    <line id="Line_397" data-name="Line 397" x1="21.126" transform="translate(-20140.094 -4713.496)" fill="none" stroke="#00ab7a" stroke-linecap="round" stroke-linejoin="round" stroke-width="2"/>
    <line id="Line_1170" data-name="Line 1170" x1="21.126" transform="translate(-20140.094 -4702.575)" fill="none" stroke="#00ab7a" stroke-linecap="round" stroke-linejoin="round" stroke-width="2"/>
    <line id="Line_1171" data-name="Line 1171" x1="6.93" transform="translate(-20125.896 -4691.655)" fill="none" stroke="#00ab7a" stroke-linecap="round" stroke-linejoin="round" stroke-width="2"/>
    <path id="Path_123270" data-name="Path 123270" d="M253.058,330.69h-9.186a1.531,1.531,0,0,1-1.531-1.531V319.97" transform="translate(-20359.418 -5054.484)" fill="none" stroke="#00ab7a" stroke-linecap="round" stroke-linejoin="round" stroke-width="2"/>
    <path id="Path_123271" data-name="Path 123271" d="M255.1,381.746h29.431a2.692,2.692,0,0,0,2.721-2.663v-47.41a3.251,3.251,0,0,0-1.012-2.722l-14.264-13.734a3.062,3.062,0,0,0-2.124-.856h-30.4a2.692,2.692,0,0,0-2.721,2.663v20.385" transform="translate(-20387.492 -5055)" fill="none" stroke="#00ab7a" stroke-linecap="round" stroke-linejoin="round" stroke-width="2"/>
    <g id="Group_56323" data-name="Group 56323" transform="translate(-20168.656 -4710.223)">
      <rect id="Rectangle_14136" data-name="Rectangle 14136" width="11.932" height="10.446" transform="translate(23.864 19.4)" fill="none" stroke="#00ab7a" stroke-linecap="round" stroke-linejoin="round" stroke-width="2"/>
      <rect id="Rectangle_14137" data-name="Rectangle 14137" width="11.932" height="17.908" transform="translate(11.933 11.939)" fill="none" stroke="#00ab7a" stroke-linecap="round" stroke-linejoin="round" stroke-width="2"/>
      <rect id="Rectangle_14138" data-name="Rectangle 14138" width="11.932" height="29.847" transform="translate(0)" fill="none" stroke="#00ab7a" stroke-linecap="round" stroke-linejoin="round" stroke-width="2"/>
    </g>
    <circle id="Ellipse_11258" data-name="Ellipse 11258" cx="2.73" cy="2.73" r="2.73" transform="translate(-20113.338 -4716.226)" fill="none" stroke="#00ab7a" stroke-linecap="round" stroke-linejoin="round" stroke-width="2"/>
    <circle id="Ellipse_11259" data-name="Ellipse 11259" cx="2.73" cy="2.73" r="2.73" transform="translate(-20113.338 -4705.305)" fill="none" stroke="#00ab7a" stroke-linecap="round" stroke-linejoin="round" stroke-width="2"/>
    <circle id="Ellipse_11260" data-name="Ellipse 11260" cx="2.73" cy="2.73" r="2.73" transform="translate(-20113.338 -4694.385)" fill="none" stroke="#00ab7a" stroke-linecap="round" stroke-linejoin="round" stroke-width="2"/>
  </g>
</svg>
