<svg xmlns="http://www.w3.org/2000/svg" width="82.28" height="78.816" viewBox="0 0 82.28 78.816">
  <g id="serv1" transform="translate(20209.266 4741.64)">
    <line id="Line_393" data-name="Line 393" x2="12.217" transform="translate(-20196.051 -4690.011)" fill="none" stroke="#00ab7a" stroke-linecap="round" stroke-linejoin="round" stroke-width="2"/>
    <line id="Line_394" data-name="Line 394" x2="5.236" transform="translate(-20196.051 -4679.536)" fill="none" stroke="#00ab7a" stroke-linecap="round" stroke-linejoin="round" stroke-width="2"/>
    <line id="Line_395" data-name="Line 395" x2="5.236" transform="translate(-20183.834 -4700.485)" fill="none" stroke="#00ab7a" stroke-linecap="round" stroke-linejoin="round" stroke-width="2"/>
    <line id="Line_396" data-name="Line 396" x2="5.236" transform="translate(-20196.051 -4700.485)" fill="none" stroke="#00ab7a" stroke-linecap="round" stroke-linejoin="round" stroke-width="2"/>
    <line id="Line_397" data-name="Line 397" x2="26.179" transform="translate(-20196.051 -4710.96)" fill="none" stroke="#00ab7a" stroke-linecap="round" stroke-linejoin="round" stroke-width="2"/>
    <line id="Line_398" data-name="Line 398" x1="8.04" y1="8.069" transform="translate(-20140.631 -4727.729)" fill="none" stroke="#00ab7a" stroke-linecap="round" stroke-linejoin="round" stroke-width="2"/>
    <path id="Path_123268" data-name="Path 123268" d="M265.061,351.986l-5.9,13.83,13.937-5.762" transform="translate(-20439.508 -5045.788)" fill="none" stroke="#00ab7a" stroke-linecap="round" stroke-linejoin="round" stroke-width="2"/>
    <path id="Path_123269" data-name="Path 123269" d="M307.275,322.32l1.793,1.8a4.442,4.442,0,0,1,0,6.268l-37.125,37.247-3.106-3.115-4.935-4.953,37.126-37.247A4.405,4.405,0,0,1,307.275,322.32Z" transform="translate(-20438.348 -5053.369)" fill="none" stroke="#00ab7a" stroke-linecap="round" stroke-linejoin="round" stroke-width="2"/>
    <path id="Path_123270" data-name="Path 123270" d="M242.341,332.19h10.472a1.745,1.745,0,0,0,1.745-1.745V319.97" transform="translate(-20443.627 -5053.626)" fill="none" stroke="#00ab7a" stroke-linecap="round" stroke-linejoin="round" stroke-width="2"/>
    <path id="Path_123271" data-name="Path 123271" d="M294.325,363.243v24.441a3.49,3.49,0,0,1-3.491,3.492h-51a3.069,3.069,0,0,1-3.1-3.036V334.1a3.706,3.706,0,0,1,1.154-3.1l16.26-15.656a3.491,3.491,0,0,1,2.421-.976h34.654a3.069,3.069,0,0,1,3.1,3.036v9.184" transform="translate(-20445 -5055)" fill="none" stroke="#00ab7a" stroke-linecap="round" stroke-linejoin="round" stroke-width="2"/>
  </g>
</svg>
