<svg xmlns="http://www.w3.org/2000/svg" xmlns:xlink="http://www.w3.org/1999/xlink" width="143.486" height="143.486" viewBox="0 0 143.486 143.486">
  <defs>
    <filter id="base" x="0" y="0" width="143.486" height="143.486" filterUnits="userSpaceOnUse">
      <feOffset dy="2" input="SourceAlpha"/>
      <feGaussianBlur stdDeviation="4" result="blur"/>
      <feFlood flood-color="#888" flood-opacity="0.122"/>
      <feComposite operator="in" in2="blur"/>
      <feComposite in="SourceGraphic"/>
    </filter>
  </defs>
  <g id="ulIcon4" transform="translate(-1448.257 -1421.788)">
    <rect id="base-2" data-name="base" width="138.814" height="138.814" rx="69.407" transform="translate(1450.593 1422.124)" fill="#7e8c76"/>
    <g transform="matrix(1, 0, 0, 1, 1448.26, 1421.79)" filter="url(#base)">
      <rect id="base-3" data-name="base" width="119.486" height="119.486" rx="59.743" transform="translate(12 10)" fill="#fff"/>
    </g>
    <path id="ClipboardListMirrored" d="M256.109,7.975V63.8h47.848V7.975H288.008a7.762,7.762,0,0,0-.623-3.1A8.035,8.035,0,0,0,283.133.623a8.021,8.021,0,0,0-6.2,0,8.035,8.035,0,0,0-4.252,4.252,7.764,7.764,0,0,0-.623,3.1H256.109Zm35.886,7.975H268.071V11.963h7.975V7.975a3.865,3.865,0,0,1,.311-1.558A4.061,4.061,0,0,1,278.475,4.3a4.049,4.049,0,0,1,3.115,0,4.061,4.061,0,0,1,2.118,2.118,3.865,3.865,0,0,1,.311,1.558v3.988h7.975V15.95Zm-31.9-3.988h3.987v7.975h31.9V11.963h3.987V59.814H260.1V11.963Zm27.911,15.95H264.084V31.9h23.924Zm0,11.963H264.084v3.988h23.924Zm0,11.963H264.084v3.988h23.924Zm7.975-23.925h-3.987V31.9h3.987Zm0,11.963h-3.987v3.988h3.987Zm0,11.963h-3.987v3.988h3.987Z" transform="translate(1239.967 1459.63)" fill="#7e8c76"/>
  </g>
</svg>
