<svg xmlns="http://www.w3.org/2000/svg" xmlns:xlink="http://www.w3.org/1999/xlink" width="143.486" height="143.486" viewBox="0 0 143.486 143.486">
  <defs>
    <filter id="base" x="0" y="0" width="143.486" height="143.486" filterUnits="userSpaceOnUse">
      <feOffset dy="2" input="SourceAlpha"/>
      <feGaussianBlur stdDeviation="4" result="blur"/>
      <feFlood flood-color="#888" flood-opacity="0.122"/>
      <feComposite operator="in" in2="blur"/>
      <feComposite in="SourceGraphic"/>
    </filter>
  </defs>
  <g id="ulIcon1" transform="translate(-1448.257 -1421.788)">
    <rect id="base-2" data-name="base" width="138.814" height="138.814" rx="69.407" transform="translate(1450.593 1422.124)" fill="#b4ddc0"/>
    <g transform="matrix(1, 0, 0, 1, 1448.26, 1421.79)" filter="url(#base)">
      <rect id="base-3" data-name="base" width="119.486" height="119.486" rx="59.743" transform="translate(12 10)" fill="#fff"/>
    </g>
    <g id="Page-1" transform="translate(1490 1462)">
      <g id="Icon-Set">
        <path id="globe" d="M255.742,715.679a65.918,65.918,0,0,0-11.514-2.664,72.207,72.207,0,0,0,.941-10.14h15.009a26.032,26.032,0,0,1-4.436,12.8Zm-15.3,10.744a61.007,61.007,0,0,0,3.056-9.713,62.39,62.39,0,0,1,9.666,2.2,26.289,26.289,0,0,1-12.722,7.509Zm-4.618.735c-.6.043-1.206.092-1.821.092s-1.215-.049-1.821-.092a55.994,55.994,0,0,1-3.844-10.944c1.864-.163,3.752-.259,5.664-.259s3.8.1,5.666.259a56.12,56.12,0,0,1-3.846,10.944Zm-20.981-8.244a62.39,62.39,0,0,1,9.666-2.2,61.007,61.007,0,0,0,3.056,9.713,26.3,26.3,0,0,1-12.722-7.509Zm-2.582-3.234a26.032,26.032,0,0,1-4.436-12.8h15.009a72.207,72.207,0,0,0,.941,10.14,65.918,65.918,0,0,0-11.514,2.664Zm0-29.359a65.753,65.753,0,0,0,11.514,2.664,72.207,72.207,0,0,0-.941,10.14H207.821a26.032,26.032,0,0,1,4.436-12.8Zm15.3-10.744a61.007,61.007,0,0,0-3.056,9.713,62.166,62.166,0,0,1-9.666-2.2,26.3,26.3,0,0,1,12.722-7.509Zm4.618-.735c.606-.041,1.206-.092,1.821-.092s1.217.051,1.821.092a56.162,56.162,0,0,1,3.846,10.944c-1.866.163-3.754.259-5.666.259s-3.8-.1-5.664-.259a56.036,56.036,0,0,1,3.844-10.944Zm9.234,28.033a65.752,65.752,0,0,1-.966,9.667c-2.111-.184-4.258-.292-6.448-.292s-4.337.109-6.446.292a65.249,65.249,0,0,1-.966-9.667Zm-14.826-3.75a65.249,65.249,0,0,1,.966-9.667c2.109.184,4.256.292,6.446.292s4.337-.109,6.446-.292a65.5,65.5,0,0,1,.967,9.667Zm26.572-16.039a62.166,62.166,0,0,1-9.666,2.2,61.007,61.007,0,0,0-3.056-9.713,26.289,26.289,0,0,1,12.722,7.509Zm2.582,3.234a26.032,26.032,0,0,1,4.436,12.8H245.169a72.207,72.207,0,0,0-.941-10.14,65.753,65.753,0,0,0,11.514-2.664ZM234,671a30,30,0,1,0,30,30,30,30,0,0,0-30-30Z" transform="translate(-204 -671)" fill="#00846c" fill-rule="evenodd"/>
      </g>
    </g>
  </g>
</svg>
