<svg xmlns="http://www.w3.org/2000/svg" xmlns:xlink="http://www.w3.org/1999/xlink" width="143.486" height="143.486" viewBox="0 0 143.486 143.486">
  <defs>
    <filter id="base" x="0" y="0" width="143.486" height="143.486" filterUnits="userSpaceOnUse">
      <feOffset dy="2" input="SourceAlpha"/>
      <feGaussianBlur stdDeviation="4" result="blur"/>
      <feFlood flood-color="#888" flood-opacity="0.122"/>
      <feComposite operator="in" in2="blur"/>
      <feComposite in="SourceGraphic"/>
    </filter>
  </defs>
  <g id="ulIcon3" transform="translate(-1448.257 -1421.788)">
    <rect id="base-2" data-name="base" width="138.814" height="138.814" rx="69.407" transform="translate(1450.593 1422.124)" fill="#d6bd81"/>
    <g transform="matrix(1, 0, 0, 1, 1448.26, 1421.79)" filter="url(#base)">
      <rect id="base-3" data-name="base" width="119.486" height="119.486" rx="59.743" transform="translate(12 10)" fill="#fff"/>
    </g>
    <g id="Group_56059" data-name="Group 56059" transform="translate(21701.859 6202.823)">
      <line id="Line_393" data-name="Line 393" x2="9.122" transform="translate(-20199.145 -4702.837)" fill="none" stroke="#d6bd81" stroke-linecap="round" stroke-linejoin="round" stroke-width="3.5"/>
      <line id="Line_394" data-name="Line 394" x2="3.909" transform="translate(-20199.145 -4695.016)" fill="none" stroke="#d6bd81" stroke-linecap="round" stroke-linejoin="round" stroke-width="3.5"/>
      <line id="Line_395" data-name="Line 395" x2="3.909" transform="translate(-20190.023 -4710.658)" fill="none" stroke="#d6bd81" stroke-linecap="round" stroke-linejoin="round" stroke-width="3.5"/>
      <line id="Line_396" data-name="Line 396" x2="3.909" transform="translate(-20199.145 -4710.658)" fill="none" stroke="#d6bd81" stroke-linecap="round" stroke-linejoin="round" stroke-width="3.5"/>
      <line id="Line_397" data-name="Line 397" x2="19.547" transform="translate(-20199.145 -4718.479)" fill="none" stroke="#d6bd81" stroke-linecap="round" stroke-linejoin="round" stroke-width="3.5"/>
      <line id="Line_398" data-name="Line 398" x1="6.003" y1="6.025" transform="translate(-20157.766 -4731)" fill="none" stroke="#d6bd81" stroke-linecap="round" stroke-linejoin="round" stroke-width="3.5"/>
      <path id="Path_123268" data-name="Path 123268" d="M263.568,351.986l-4.4,10.326,10.406-4.3" transform="translate(-20446.582 -5057.654)" fill="none" stroke="#d6bd81" stroke-linecap="round" stroke-linejoin="round" stroke-width="3.5"/>
      <path id="Path_123269" data-name="Path 123269" d="M296.287,321.991l1.338,1.344a3.317,3.317,0,0,1,0,4.68l-27.72,27.811-2.319-2.326-3.684-3.7,27.721-27.811A3.289,3.289,0,0,1,296.287,321.991Z" transform="translate(-20446.916 -5055.47)" fill="none" stroke="#d6bd81" stroke-linecap="round" stroke-linejoin="round" stroke-width="3.5"/>
      <path id="Path_123270" data-name="Path 123270" d="M242.341,329.095h7.819a1.3,1.3,0,0,0,1.3-1.3V319.97" transform="translate(-20445.395 -5055.396)" fill="none" stroke="#d6bd81" stroke-linecap="round" stroke-linejoin="round" stroke-width="3.5"/>
      <path id="Path_123271" data-name="Path 123271" d="M279.735,350.859v18.249a2.606,2.606,0,0,1-2.606,2.607H239.05a2.292,2.292,0,0,1-2.316-2.267V329.1a2.767,2.767,0,0,1,.862-2.317l12.141-11.69a2.606,2.606,0,0,1,1.808-.729h25.875a2.292,2.292,0,0,1,2.316,2.267v6.858" transform="translate(-20445 -5055)" fill="none" stroke="#d6bd81" stroke-linecap="round" stroke-linejoin="round" stroke-width="3.5"/>
    </g>
  </g>
</svg>
