<svg xmlns="http://www.w3.org/2000/svg" xmlns:xlink="http://www.w3.org/1999/xlink" width="143.486" height="143.486" viewBox="0 0 143.486 143.486">
  <defs>
    <filter id="base" x="0" y="0" width="143.486" height="143.486" filterUnits="userSpaceOnUse">
      <feOffset dy="2" input="SourceAlpha"/>
      <feGaussianBlur stdDeviation="4" result="blur"/>
      <feFlood flood-color="#888" flood-opacity="0.122"/>
      <feComposite operator="in" in2="blur"/>
      <feComposite in="SourceGraphic"/>
    </filter>
  </defs>
  <g id="ulIcon5" transform="translate(-1448.257 -1421.788)">
    <rect id="base-2" data-name="base" width="138.814" height="138.814" rx="69.407" transform="translate(1450.593 1422.124)" fill="#4cc0ad"/>
    <g transform="matrix(1, 0, 0, 1, 1448.26, 1421.79)" filter="url(#base)">
      <rect id="base-3" data-name="base" width="119.486" height="119.486" rx="59.743" transform="translate(12 10)" fill="#fff"/>
    </g>
    <g id="success" transform="translate(1491.711 1461.742)">
      <path id="Path_126873" data-name="Path 126873" d="M29.382,0A29.382,29.382,0,1,0,58.764,29.382,29.415,29.415,0,0,0,29.382,0Zm0,56.5A27.122,27.122,0,1,1,56.5,29.382,27.153,27.153,0,0,1,29.382,56.5Z" fill="none" stroke="#4cc0ad" stroke-width="3.5"/>
      <path id="Path_126874" data-name="Path 126874" d="M41.667,15.38,24.3,34.919l-10.463-8.37a1.13,1.13,0,0,0-1.411,1.765l11.3,9.041a1.131,1.131,0,0,0,1.552-.132L43.357,16.88a1.13,1.13,0,0,0-1.691-1.5Z" transform="translate(1.561 1.951)" fill="none" stroke="#4cc0ad" stroke-width="3.5"/>
    </g>
  </g>
</svg>
