<svg xmlns="http://www.w3.org/2000/svg" width="262" height="332.935" viewBox="0 0 262 332.935">
  <path id="base" d="M198.558,59.929C166.244,47.932,139.651,33.663,131,21h-.011C122.338,33.663,95.75,47.932,63.442,59.929,25.365,74.076,0,95.11,0,151.8v71.334c0,56.69,25.365,77.724,63.442,91.87,32.309,12,58.9,26.267,67.547,38.929.011,0,.011,0,.011,0,8.651-12.662,35.244-26.931,67.559-38.929C236.629,300.86,262,279.826,262,223.136V151.8c0-56.691-25.371-77.726-63.442-91.872" transform="translate(0 -21)" fill="#cbddd6"/>
</svg>
