<svg xmlns="http://www.w3.org/2000/svg" width="588" height="437" viewBox="0 0 588 437">
  <g id="conditionsImg" transform="translate(-240 -1117)">
    <rect id="Rectangle_11319" data-name="Rectangle 11319" width="588" height="437" transform="translate(240 1117)" fill="#f1f3f5" opacity="0"/>
    <ellipse id="Ellipse_11299" data-name="Ellipse 11299" cx="204.503" cy="118.673" rx="204.503" ry="118.673" transform="translate(316 1297.576) rotate(-0.162)" fill="#e6f1e9"/>
    <g id="Group_56819" data-name="Group 56819" transform="translate(14554.95 -3553.807)">
      <g id="Group_56885" data-name="Group 56885" transform="translate(-14123.216 4728.977)">
        <g id="Group_56828" data-name="Group 56828" transform="translate(0 0)">
          <rect id="Rectangle_14270" data-name="Rectangle 14270" width="202.101" height="276.377" rx="22" fill="#d6bd81"/>
          <rect id="Rectangle_14271" data-name="Rectangle 14271" width="184.878" height="261.304" rx="16" transform="translate(8.612 7.458)" fill="#fffdf8"/>
          <path id="Path_126814" data-name="Path 126814" d="M1361.5,634.977v9.414a9.41,9.41,0,0,0,9.406,9.414h50.523a9.41,9.41,0,0,0,9.406-9.414v-9.414Z" transform="translate(-1298.667 -634.977)" fill="#c48145"/>
          <rect id="Rectangle_14293" data-name="Rectangle 14293" width="19.979" height="3.806" rx="1.903" transform="translate(87.577 5.731)" fill="#fff"/>
        </g>
        <g id="Group_56829" data-name="Group 56829" transform="translate(30.073 216.831)">
          <rect id="Rectangle_14272" data-name="Rectangle 14272" width="22.873" height="2.315" fill="#4cc0ad"/>
          <rect id="Rectangle_14273" data-name="Rectangle 14273" width="22.873" height="2.315" transform="translate(28.171)" fill="#4cc0ad"/>
          <rect id="Rectangle_14274" data-name="Rectangle 14274" width="31.723" height="2.315" transform="translate(0 5.138)" fill="#4cc0ad"/>
        </g>
        <g id="Group_56842" data-name="Group 56842" transform="translate(20.837 40.445)">
          <g id="Group_56834" data-name="Group 56834" transform="translate(120.724)">
            <g id="Group_56832" data-name="Group 56832" transform="translate(0 5.733)">
              <path id="Path_126820" data-name="Path 126820" d="M1742.625,982.067h-33.437V948.63h33.437Zm-31.862-1.575h30.287V950.205h-30.287Z" transform="translate(-1709.188 -948.63)" fill="#b4ddc0"/>
            </g>
            <g id="Group_56833" data-name="Group 56833" transform="translate(4.869)">
              <path id="Path_126821" data-name="Path 126821" d="M1743.34,955.8a2.361,2.361,0,0,1-1.82-.857L1731.2,942.457a2.362,2.362,0,1,1,3.641-3.01l8.183,9.9,14.8-24.846a2.362,2.362,0,1,1,4.059,2.418l-16.519,27.725a2.362,2.362,0,0,1-1.848,1.146C1743.461,955.793,1743.4,955.8,1743.34,955.8Z" transform="translate(-1730.66 -923.346)" fill="#00846c"/>
            </g>
          </g>
          <g id="Group_56841" data-name="Group 56841" transform="translate(0 10.288)">
            <g id="Group_56838" data-name="Group 56838" transform="translate(20.638 0.381)">
              <g id="Group_56835" data-name="Group 56835">
                <rect id="Rectangle_14276" data-name="Rectangle 14276" width="74.282" height="3.262" fill="#b4ddc0"/>
              </g>
              <g id="Group_56836" data-name="Group 56836" transform="translate(0 14.571)">
                <rect id="Rectangle_14277" data-name="Rectangle 14277" width="68.457" height="3.262" fill="#b4ddc0"/>
              </g>
              <g id="Group_56837" data-name="Group 56837" transform="translate(0 7.285)">
                <rect id="Rectangle_14278" data-name="Rectangle 14278" width="20.249" height="3.262" transform="translate(54.033)" fill="#b4ddc0"/>
                <rect id="Rectangle_14279" data-name="Rectangle 14279" width="48.422" height="3.262" fill="#b4ddc0"/>
              </g>
            </g>
            <g id="Group_56840" data-name="Group 56840">
              <g id="Group_56839" data-name="Group 56839">
                <path id="Path_126822" data-name="Path 126822" d="M1180.79,972.014l-3.323.923-.686-2.638,4.958-1.583h2.268v18.595h-3.218Z" transform="translate(-1176.781 -968.717)" fill="#b4ddc0"/>
              </g>
              <path id="Path_126823" data-name="Path 126823" d="M1218.021,1041.538a1.174,1.174,0,1,1,1.174,1.174A1.175,1.175,0,0,1,1218.021,1041.538Z" transform="translate(-1208.67 -1024.117)" fill="#b4ddc0"/>
            </g>
          </g>
        </g>
        <g id="Group_56854" data-name="Group 56854" transform="translate(20.694 90.395)">
          <g id="Group_56845" data-name="Group 56845" transform="translate(121.126)">
            <g id="Group_56843" data-name="Group 56843" transform="translate(0 5.733)">
              <path id="Path_126824" data-name="Path 126824" d="M1743.767,1202.351H1710.33v-33.437h33.437Zm-31.862-1.575h30.288v-30.288H1711.9Z" transform="translate(-1710.33 -1168.914)" fill="#b4ddc0"/>
            </g>
            <g id="Group_56844" data-name="Group 56844" transform="translate(4.869)">
              <path id="Path_126825" data-name="Path 126825" d="M1744.483,1176.079a2.363,2.363,0,0,1-1.821-.857l-10.318-12.482a2.362,2.362,0,0,1,3.642-3.01l8.183,9.9,14.8-24.846a2.362,2.362,0,1,1,4.059,2.418l-16.518,27.724a2.362,2.362,0,0,1-1.849,1.146C1744.6,1176.077,1744.543,1176.079,1744.483,1176.079Z" transform="translate(-1731.802 -1143.629)" fill="#00846c"/>
            </g>
          </g>
          <g id="Group_56853" data-name="Group 56853" transform="translate(0 10.288)">
            <g id="Group_56847" data-name="Group 56847">
              <g id="Group_56846" data-name="Group 56846">
                <path id="Path_126826" data-name="Path 126826" d="M1176.15,1205.054l6.312-5.369c2.514-2.121,3.431-3.3,3.431-4.95a2.749,2.749,0,0,0-2.959-2.855c-1.676,0-2.829.917-4.243,2.75l-2.279-1.781c1.755-2.462,3.483-3.85,6.757-3.85,3.588,0,6.05,2.2,6.05,5.526,0,2.881-1.545,4.427-4.767,7.1l-3.771,3.143h8.721v2.829H1176.15Z" transform="translate(-1176.15 -1189)" fill="#b4ddc0"/>
              </g>
              <path id="Path_126827" data-name="Path 126827" d="M1244.211,1261.886a1.166,1.166,0,1,1,1.166,1.166A1.166,1.166,0,0,1,1244.211,1261.886Z" transform="translate(-1228.778 -1244.457)" fill="#b4ddc0"/>
            </g>
            <g id="Group_56852" data-name="Group 56852" transform="translate(21.395 0.381)">
              <g id="Group_56851" data-name="Group 56851">
                <g id="Group_56848" data-name="Group 56848">
                  <rect id="Rectangle_14280" data-name="Rectangle 14280" width="78.057" height="3.262" fill="#b4ddc0"/>
                </g>
                <g id="Group_56849" data-name="Group 56849" transform="translate(0 14.571)">
                  <rect id="Rectangle_14281" data-name="Rectangle 14281" width="71.937" height="3.262" fill="#b4ddc0"/>
                </g>
                <g id="Group_56850" data-name="Group 56850" transform="translate(0 7.286)">
                  <rect id="Rectangle_14282" data-name="Rectangle 14282" width="21.278" height="3.262" transform="translate(56.779)" fill="#b4ddc0"/>
                  <rect id="Rectangle_14283" data-name="Rectangle 14283" width="50.883" height="3.262" fill="#b4ddc0"/>
                </g>
              </g>
            </g>
          </g>
        </g>
        <g id="Group_56865" data-name="Group 56865" transform="translate(20.461 140.713)">
          <g id="Group_56857" data-name="Group 56857" transform="translate(121.358)">
            <g id="Group_56855" data-name="Group 56855" transform="translate(0 5.733)">
              <path id="Path_126828" data-name="Path 126828" d="M1743.767,1424.26H1710.33v-33.437h33.437Zm-31.862-1.575h30.288V1392.4H1711.9Z" transform="translate(-1710.33 -1390.823)" fill="#b4ddc0"/>
            </g>
            <g id="Group_56856" data-name="Group 56856" transform="translate(4.869)">
              <path id="Path_126829" data-name="Path 126829" d="M1744.483,1397.989a2.362,2.362,0,0,1-1.821-.857l-10.318-12.482a2.362,2.362,0,0,1,3.642-3.01l8.183,9.9,14.8-24.846a2.362,2.362,0,1,1,4.059,2.418l-16.518,27.725a2.362,2.362,0,0,1-1.849,1.146C1744.6,1397.987,1744.543,1397.989,1744.483,1397.989Z" transform="translate(-1731.802 -1365.54)" fill="#00846c"/>
            </g>
          </g>
          <g id="Group_56864" data-name="Group 56864" transform="translate(14.05 26.427)">
            <path id="Path_126831" data-name="Path 126831" d="M1237.09,1483.225a1.141,1.141,0,1,1,1.141,1.141A1.141,1.141,0,0,1,1237.09,1483.225Z" transform="translate(-1237.09 -1482.084)" fill="#aec3ff"/>
          </g>
          <g id="Group_56888" data-name="Group 56888" transform="translate(0 10.461)">
            <g id="Group_56862" data-name="Group 56862" transform="translate(21.628 0.207)">
              <g id="Group_56861" data-name="Group 56861">
                <g id="Group_56858" data-name="Group 56858">
                  <rect id="Rectangle_14284" data-name="Rectangle 14284" width="78.057" height="3.262" fill="#b4ddc0"/>
                </g>
                <g id="Group_56859" data-name="Group 56859" transform="translate(0 14.571)">
                  <rect id="Rectangle_14285" data-name="Rectangle 14285" width="71.937" height="3.262" fill="#b4ddc0"/>
                </g>
                <g id="Group_56860" data-name="Group 56860" transform="translate(0 7.285)">
                  <rect id="Rectangle_14286" data-name="Rectangle 14286" width="21.278" height="3.262" transform="translate(56.779)" fill="#b4ddc0"/>
                  <rect id="Rectangle_14287" data-name="Rectangle 14287" width="50.883" height="3.262" fill="#b4ddc0"/>
                </g>
              </g>
            </g>
            <path id="Path_126830" data-name="Path 126830" d="M1175.126,1426.771l2.2-2.05a5.85,5.85,0,0,0,4.715,2.358,2.816,2.816,0,0,0,3.1-2.768c0-1.768-1.615-2.768-4.126-2.768h-1.461l-.513-1.973,4.844-5.151h-7.765v-2.742h11.866v2.358l-5,5.126c2.844.41,5.279,1.871,5.279,5.1,0,3.306-2.563,5.664-6.279,5.664A8.5,8.5,0,0,1,1175.126,1426.771Z" transform="translate(-1175.126 -1411.676)" fill="#b4ddc0"/>
          </g>
        </g>
        <g id="Group_56870" data-name="Group 56870" transform="translate(94.5 189.883)">
          <g id="Group_56866" data-name="Group 56866" transform="translate(6.246 21.851)">
            <path id="Path_126832" data-name="Path 126832" d="M1543.105,1647.143a14.225,14.225,0,0,1-13.894-11.325.971.971,0,0,1,1.9-.389,12.242,12.242,0,0,0,23.957.115.971.971,0,1,1,1.9.408A14.25,14.25,0,0,1,1543.105,1647.143Z" transform="translate(-1529.191 -1634.652)" fill="#4cc0ad"/>
          </g>
          <g id="Group_56867" data-name="Group 56867" transform="translate(6.219 5.978)">
            <path id="Path_126833" data-name="Path 126833" d="M1530.046,1577.277a.971.971,0,0,1-.955-1.156,14.185,14.185,0,0,1,27.678-.752.972.972,0,0,1-1.885.473,12.243,12.243,0,0,0-23.887.649A.972.972,0,0,1,1530.046,1577.277Z" transform="translate(-1529.073 -1564.65)" fill="#4cc0ad"/>
          </g>
          <g id="Group_56868" data-name="Group 56868" transform="translate(0 0)">
            <path id="Path_126834" data-name="Path 126834" d="M1521.8,1578.605a20.16,20.16,0,1,1,20.16-20.16A20.183,20.183,0,0,1,1521.8,1578.605Zm0-37.559a17.4,17.4,0,1,0,17.4,17.4A17.418,17.418,0,0,0,1521.8,1541.047Z" transform="translate(-1501.645 -1538.285)" fill="#4cc0ad"/>
          </g>
          <g id="Group_56869" data-name="Group 56869" transform="translate(14.283 17.635)">
            <rect id="Rectangle_14288" data-name="Rectangle 14288" width="7.985" height="1.278" transform="translate(1.884)" fill="#4cc0ad"/>
            <rect id="Rectangle_14289" data-name="Rectangle 14289" width="7.985" height="1.278" transform="translate(1.884 5.23)" fill="#4cc0ad"/>
            <rect id="Rectangle_14290" data-name="Rectangle 14290" width="11.753" height="1.278" transform="translate(0 2.525)" fill="#4cc0ad"/>
          </g>
        </g>
      </g>
      <g id="Group_56886" data-name="Group 56886" transform="translate(-14204.769 4824.544)">
        <g id="Group_56873" data-name="Group 56873" transform="translate(23.819 -20.441)">
          <path id="Path_126848" data-name="Path 126848" d="M923.112,1338.907l-57.518,54.154c-1.128,1.062-2.549,1.4-3.159.752l-1.942-2.063c-.61-.648-.187-2.047.941-3.108l57.518-54.154c1.127-1.061,2.549-1.4,3.159-.751l1.942,2.062C924.662,1336.448,924.239,1337.846,923.112,1338.907Z" transform="translate(-860.214 -1260.224)" fill="#00846c"/>
          <path id="Path_126849" data-name="Path 126849" d="M890.834,1447.258l-25.24,23.764c-1.128,1.062-2.549,1.4-3.159.751l-1.942-2.062c-.61-.648-.187-2.047.941-3.108l25.24-23.764Z" transform="translate(-860.214 -1338.185)" fill="#00ab7a"/>
          <path id="Path_126850" data-name="Path 126850" d="M1028.112,1137.171a45.083,45.083,0,1,0,74.723-45.306c-.231-.23-.468-.458-.708-.682a45.085,45.085,0,0,0-74.015,45.988ZM1041,1095.563a41.526,41.526,0,1,1,1.789,58.7A41.475,41.475,0,0,1,1041,1095.563Z" transform="translate(-978.434 -1078.934)" fill="#00846c"/>
          <g id="Group_56872" data-name="Group 56872" transform="translate(51.281 3.559)" opacity="0.5">
            <path id="Path_126851" data-name="Path 126851" d="M1110.293,1161.284a41.526,41.526,0,1,1-1.79-58.694A41.355,41.355,0,0,1,1110.293,1161.284Z" transform="translate(-1038.528 -1091.311)" fill="#cbddd6"/>
          </g>
        </g>
      </g>
      <g id="Group_56887" data-name="Group 56887" transform="translate(-14064.581 4982.453)">
        <path id="Path_126856" data-name="Path 126856" d="M1343.475,1782.036a8.794,8.794,0,0,0,.07,1.129,9.256,9.256,0,0,0,9.193,8.134h130.275a9.264,9.264,0,0,0,0-18.528H1352.738A9.263,9.263,0,0,0,1343.475,1782.036Z" transform="translate(-1343.475 -1768.252)" fill="#e39650"/>
        <path id="Path_126857" data-name="Path 126857" d="M1382.449,1755.683h44.667a1.426,1.426,0,0,0,1.422-1.422h0a1.426,1.426,0,0,0-1.422-1.422h-44.667a1.426,1.426,0,0,0-1.422,1.422h0A1.426,1.426,0,0,0,1382.449,1755.683Z" transform="translate(-1372.512 -1752.84)" fill="#e39650"/>
        <rect id="Rectangle_14291" data-name="Rectangle 14291" width="4.842" height="1.677" transform="translate(17.245 4.52) rotate(180)" fill="#c48145"/>
        <path id="Path_126858" data-name="Path 126858" d="M1348.432,1833.172a9.277,9.277,0,0,0,8.139,4.832h27.595v-4.832Z" transform="translate(-1347.308 -1814.957)" fill="#c48145"/>
        <path id="Path_126859" data-name="Path 126859" d="M1568.334,1779.322v5.427a6.546,6.546,0,0,1-6.548,6.55h-135.7a6.546,6.546,0,0,1-6.548-6.55v-5.427a6.548,6.548,0,0,1,6.548-6.55h135.7A6.548,6.548,0,0,1,1568.334,1779.322Z" transform="translate(-1402.287 -1768.252)" fill="#00ab7a"/>
        <path id="Path_126860" data-name="Path 126860" d="M1568.884,1833.172a6.547,6.547,0,0,1-6.32,4.832h-135.7a6.547,6.547,0,0,1-6.32-4.832Z" transform="translate(-1403.065 -1814.957)" fill="#00846c"/>
        <g id="Group_56876" data-name="Group 56876" transform="translate(152.569 4.519)">
          <path id="Path_126861" data-name="Path 126861" d="M2016.323,1782.069a10.3,10.3,0,0,0,2.694,7.153l.11.113a6.574,6.574,0,0,0,4.649,2.03c2.747,0,9.556-4.145,13.776-6.9,2.1-1.372,3.563-2.4,3.563-2.4s-1.46-1.026-3.563-2.4c-4.22-2.755-11.029-6.9-13.776-6.9a6.152,6.152,0,0,0-2.28.441,7.464,7.464,0,0,0-3.141,2.479,10.226,10.226,0,0,0-1.887,4.534.486.486,0,0,0-.007.06A11.473,11.473,0,0,0,2016.323,1782.069Z" transform="translate(-2016.323 -1772.771)" fill="#b4ddc0"/>
          <path id="Path_126862" data-name="Path 126862" d="M2016.323,1807.693a10.3,10.3,0,0,0,2.694,7.153l20.886-7.185-23.443-1.751A11.475,11.475,0,0,0,2016.323,1807.693Z" transform="translate(-2016.323 -1798.395)" fill="#c8ecd3"/>
          <path id="Path_126863" data-name="Path 126863" d="M2025.285,1777.2l20.836,5.69-17.695-8.169A7.466,7.466,0,0,0,2025.285,1777.2Z" transform="translate(-2023.253 -1774.277)" fill="#c8ecd3"/>
          <path id="Path_126864" data-name="Path 126864" d="M2103.953,1805.6a2.572,2.572,0,0,0,1.36,2.4c2.1-1.372,3.563-2.4,3.563-2.4s-1.46-1.026-3.563-2.4A2.566,2.566,0,0,0,2103.953,1805.6Z" transform="translate(-2084.083 -1796.299)" fill="#c48145"/>
        </g>
      </g>
    </g>
  </g>
</svg>
