<svg xmlns="http://www.w3.org/2000/svg" width="23.08" height="20.772" viewBox="0 0 23.08 20.772">
  <path id="document-file-pdf" d="M16.617,10.693V8.385L12,3H3.541A1.543,1.543,0,0,0,2,4.544V22.228a1.539,1.539,0,0,0,1.536,1.544H15.081a1.538,1.538,0,0,0,1.536-1.531V20.695h6.149a2.31,2.31,0,0,0,2.313-2.307V13a2.3,2.3,0,0,0-2.313-2.308Zm-.769,10v1.544a.767.767,0,0,1-.769.764H3.539a.771.771,0,0,1-.769-.765V4.535a.771.771,0,0,1,.766-.765h7.7V7.611a1.534,1.534,0,0,0,1.537,1.543h3.079v1.539H9.7A2.31,2.31,0,0,0,7.385,13v5.386A2.3,2.3,0,0,0,9.7,20.695ZM12,4.154V7.609a.774.774,0,0,0,.767.776h2.849Zm7.693,11.155V13.771h3.077V13H18.925v5.385h.769V16.079H22v-.769Zm-10-.769v3.847h.769V16.079H12A1.539,1.539,0,1,0,12,13h-2.3Zm.769-.769v1.539H12a.769.769,0,0,0,0-1.539ZM14.309,13v5.385h2.3a1.537,1.537,0,0,0,1.543-1.543v-2.3A1.541,1.541,0,0,0,16.614,13Zm.769.769v3.847h1.539a.767.767,0,0,0,.769-.769V14.54a.767.767,0,0,0-.769-.769Z" transform="translate(-2 -3)" fill="#9f2626" fill-rule="evenodd"/>
</svg>
