<svg xmlns="http://www.w3.org/2000/svg" xmlns:xlink="http://www.w3.org/1999/xlink" width="588" height="437" viewBox="0 0 588 437">
  <defs>
    <linearGradient id="linear-gradient" x1="0.913" y1="0.521" x2="-0.244" y2="0.349" gradientUnits="objectBoundingBox">
      <stop offset="0.056" stop-color="#92a3b0"/>
      <stop offset="1" stop-color="#fff"/>
    </linearGradient>
    <linearGradient id="linear-gradient-2" x1="0.914" y1="0.52" x2="-0.229" y2="0.351" xlink:href="#linear-gradient"/>
    <linearGradient id="linear-gradient-3" x1="0.915" y1="0.518" x2="-0.215" y2="0.353" xlink:href="#linear-gradient"/>
    <linearGradient id="linear-gradient-4" x1="0.915" y1="0.517" x2="-0.2" y2="0.355" xlink:href="#linear-gradient"/>
    <linearGradient id="linear-gradient-5" x1="0.916" y1="0.516" x2="-0.185" y2="0.357" xlink:href="#linear-gradient"/>
    <linearGradient id="linear-gradient-6" x1="0.917" y1="0.515" x2="-0.17" y2="0.359" xlink:href="#linear-gradient"/>
  </defs>
  <g id="PrivacyPolicyImg" transform="translate(-240 -1117)">
    <rect id="Rectangle_11319" data-name="Rectangle 11319" width="588" height="437" transform="translate(240 1117)" fill="#f1f3f5" opacity="0"/>
    <ellipse id="Ellipse_11299" data-name="Ellipse 11299" cx="204.503" cy="118.673" rx="204.503" ry="118.673" transform="translate(315.999 1300.576) rotate(-0.162)" fill="#e6f1e9"/>
    <g id="Group_56818" data-name="Group 56818" transform="translate(356 1166.997)">
      <g id="Group_56781" data-name="Group 56781" transform="translate(18.003 0)">
        <g id="Group_56780" data-name="Group 56780">
          <path id="Path_126627" data-name="Path 126627" d="M478.924,362.752l148.591-85.789c5.868-3.388,5.131-9.3-1.644-13.217L541.543,215.06c-6.776-3.913-17.025-4.337-22.893-.949L370.06,299.9c-5.868,3.388-5.133,9.3,1.643,13.216L456.031,361.8C462.808,365.715,473.056,366.139,478.924,362.752Z" transform="translate(-359.534 -61.337)" fill="#92b4d1" opacity="0.2"/>
          <path id="Path_126628" data-name="Path 126628" d="M478.947,358.462l148.591-85.788c2.614-1.51,3.918-3.521,3.959-5.634,0-.068,0-7.294,0-7.362-.047-2.568-1.944,1.891-5.6-.221L541.566,210.77c-6.775-3.913-17.025-4.337-22.893-.949L370.083,295.61c-1.959,1.131-3.38-3.669-3.887-2.144-.17.509-.061,7.243-.073,7.771-.056,2.63,1.843,5.419,5.6,7.589l84.328,48.687C462.831,361.425,473.079,361.849,478.947,358.462Z" transform="translate(-359.557 -62.748)" fill="#dac496"/>
          <path id="Path_126629" data-name="Path 126629" d="M478.924,353.026l148.591-85.787c5.868-3.389,5.131-9.306-1.644-13.217l-84.328-48.687c-6.776-3.911-17.025-4.337-22.893-.949L370.06,290.174c-5.868,3.388-5.133,9.3,1.643,13.217l84.328,48.686C462.808,355.989,473.056,356.415,478.924,353.026Z" transform="translate(-359.534 -64.537)" fill="#dac496"/>
          <path id="Path_126630" data-name="Path 126630" d="M503.775,323.119c-5.868,3.389-16.117,2.964-22.893-.949v-7.225c6.775,3.913,17.025,4.338,22.893.95Z" transform="translate(-384.385 -27.405)" fill="#f5e5c4" opacity="0.5"/>
          <path id="Path_126631" data-name="Path 126631" d="M366.1,338.429l148.59-85.788c2.837-1.639,4.116-3.869,3.93-6.177a2.954,2.954,0,0,1,.031.405c0,.068,0,7.294,0,7.362-.041,2.113-1.345,4.124-3.961,5.634L366.1,345.652Z" transform="translate(-246.71 -49.939)" fill="#d6bd81"/>
          <path id="Path_126632" data-name="Path 126632" d="M371.687,287.627l84.329,48.687c6.774,3.913,17.024,4.337,22.891.949L627.5,251.474c2.433-1.4,3.715-3.247,3.915-5.2.306,2.4-.976,4.729-3.915,6.427L478.908,338.489c-5.868,3.389-16.117,2.964-22.891-.949l-84.329-48.686c-3.965-2.29-5.844-5.263-5.559-8.017C366.431,283.225,368.308,285.676,371.687,287.627Z" transform="translate(-359.518 -50.001)" fill="#fff"/>
          <path id="Path_126633" data-name="Path 126633" d="M440.1,304.242l52.883-30.531c1.059-.613.926-1.68-.3-2.386l-19.855-11.463a4.591,4.591,0,0,0-4.131-.171l-52.883,30.532c-1.059.611-.926,1.679.3,2.384l19.855,11.463A4.587,4.587,0,0,0,440.1,304.242Z" transform="translate(-286.887 -45.722)" fill="#fff" opacity="0.3"/>
          <path id="Path_126634" data-name="Path 126634" d="M492.686,272.579l-19.855-11.463a4.591,4.591,0,0,0-4.131-.171l-52.883,30.532a1.6,1.6,0,0,0-.489.429,1.106,1.106,0,0,1,.489-1.683L468.7,259.691a4.591,4.591,0,0,1,4.131.171l19.855,11.463c.973.561,1.243,1.349.785,1.956A2.314,2.314,0,0,0,492.686,272.579Z" transform="translate(-286.886 -45.722)" fill="#a8cff0"/>
          <path id="Path_126635" data-name="Path 126635" d="M549.439,212.835l-9.113,5.262a4.623,4.623,0,0,1-4.184.008,1.275,1.275,0,0,1,.013-2.416l9.113-5.262a4.627,4.627,0,0,1,4.184-.008A1.275,1.275,0,0,1,549.439,212.835Zm-15.6,9.01-4.317,2.492a4.627,4.627,0,0,1-4.184.008,1.275,1.275,0,0,1,.013-2.416l4.317-2.492a4.623,4.623,0,0,1,4.184-.008A1.275,1.275,0,0,1,533.835,221.845Zm-10.808,6.239-4.317,2.493a4.623,4.623,0,0,1-4.184.007,1.275,1.275,0,0,1,.013-2.415l4.317-2.492a4.623,4.623,0,0,1,4.184-.008A1.274,1.274,0,0,1,523.027,228.083Zm-10.806,6.24-4.318,2.493a4.623,4.623,0,0,1-4.184.007,1.275,1.275,0,0,1,.013-2.415l4.317-2.493a4.63,4.63,0,0,1,4.185-.007A1.275,1.275,0,0,1,512.22,234.323Zm-10.808,6.24-4.317,2.493a4.623,4.623,0,0,1-4.184.007,1.274,1.274,0,0,1,.012-2.415l4.318-2.493a4.623,4.623,0,0,1,4.184-.007A1.275,1.275,0,0,1,501.413,240.563ZM490.6,246.8l-4.317,2.493a4.623,4.623,0,0,1-4.184.007,1.274,1.274,0,0,1,.013-2.415l4.317-2.493a4.623,4.623,0,0,1,4.184-.007A1.274,1.274,0,0,1,490.6,246.8Zm-10.808,6.24-4.317,2.492a4.623,4.623,0,0,1-4.184.008,1.274,1.274,0,0,1,.013-2.415l4.317-2.493a4.627,4.627,0,0,1,4.184-.008A1.275,1.275,0,0,1,479.8,253.043Zm-10.806,6.24-4.318,2.492a4.623,4.623,0,0,1-4.184.008,1.276,1.276,0,0,1,.013-2.416l4.317-2.492a4.627,4.627,0,0,1,4.184-.008A1.275,1.275,0,0,1,468.991,259.282Zm-10.808,6.24-4.317,2.492a4.626,4.626,0,0,1-4.185.008,1.276,1.276,0,0,1,.013-2.416l4.318-2.492a4.627,4.627,0,0,1,4.184-.008A1.276,1.276,0,0,1,458.183,265.522Zm-10.808,6.24-4.317,2.492a4.623,4.623,0,0,1-4.184.008,1.275,1.275,0,0,1,.013-2.416l4.317-2.492a4.623,4.623,0,0,1,4.184-.008A1.276,1.276,0,0,1,447.375,271.762ZM436.567,278l-4.317,2.492a4.627,4.627,0,0,1-4.184.008,1.275,1.275,0,0,1,.013-2.416l4.317-2.492a4.623,4.623,0,0,1,4.184-.008A1.275,1.275,0,0,1,436.567,278Zm-10.808,6.24-4.317,2.492a4.623,4.623,0,0,1-4.184.007,1.274,1.274,0,0,1,.013-2.415l4.317-2.492a4.623,4.623,0,0,1,4.184-.008A1.275,1.275,0,0,1,425.76,284.242Zm-11.032,6.369L410.41,293.1a4.623,4.623,0,0,1-4.184.008,1.275,1.275,0,0,1,.013-2.415l4.317-2.493a4.623,4.623,0,0,1,4.184-.007A1.274,1.274,0,0,1,414.727,290.611Zm144.433-71.83-3.737,2.158a5.261,5.261,0,0,1-4.762.008l-3.715-2.144c-1.31-.756-1.3-1.988.016-2.75L550.7,213.9a5.265,5.265,0,0,1,4.762-.009l3.713,2.145C560.485,216.789,560.478,218.02,559.16,218.781Zm-19.307,8.406-3.713-2.144c-1.312-.758-1.305-1.988.015-2.75l3.737-2.157a5.265,5.265,0,0,1,4.762-.009l3.714,2.145c1.312.756,1.305,1.987-.015,2.748l-3.737,2.158A5.26,5.26,0,0,1,539.853,227.187Zm-2.309,4.074-3.737,2.158a5.261,5.261,0,0,1-4.762.008l-3.713-2.144c-1.31-.758-1.3-1.988.015-2.75l3.737-2.157a5.265,5.265,0,0,1,4.762-.009l3.715,2.145C538.87,229.269,538.864,230.5,537.544,231.261Zm-10.807,6.24L523,239.659a5.262,5.262,0,0,1-4.761.008l-3.715-2.144c-1.31-.758-1.3-1.988.015-2.75l3.737-2.158a5.265,5.265,0,0,1,4.762-.008l3.715,2.144C528.063,235.509,528.056,236.739,526.738,237.5Zm-23.006,3.513,3.737-2.158a5.262,5.262,0,0,1,4.761-.008l3.715,2.144c1.31.758,1.3,1.988-.015,2.75l-3.737,2.158a5.265,5.265,0,0,1-4.762.008l-3.715-2.144C502.406,243.006,502.412,241.775,503.732,241.013Zm-10.808,6.24,3.737-2.158a5.26,5.26,0,0,1,4.762-.008l3.713,2.144c1.312.758,1.3,1.988-.015,2.75l-3.737,2.157a5.265,5.265,0,0,1-4.762.009L492.908,250C491.6,249.245,491.6,248.015,492.924,247.253Zm-10.808,6.24,3.737-2.158a5.261,5.261,0,0,1,4.762-.008l3.713,2.144c1.312.758,1.305,1.988-.015,2.75l-3.737,2.157a5.265,5.265,0,0,1-4.762.009l-3.713-2.145C480.79,255.485,480.8,254.255,482.116,253.493Zm-10.808,6.24,3.737-2.158a5.261,5.261,0,0,1,4.762-.008l3.715,2.144c1.31.756,1.3,1.988-.016,2.75l-3.737,2.157a5.265,5.265,0,0,1-4.762.009l-3.713-2.145C469.983,261.725,469.99,260.495,471.309,259.733ZM460.5,265.971l3.737-2.157a5.261,5.261,0,0,1,4.762-.008l3.715,2.144c1.31.756,1.3,1.988-.015,2.748l-3.737,2.158a5.265,5.265,0,0,1-4.762.009l-3.715-2.145C459.176,267.965,459.182,266.733,460.5,265.971Zm-10.807,6.24,3.737-2.157a5.265,5.265,0,0,1,4.762-.009l3.713,2.145c1.31.756,1.3,1.987-.015,2.748l-3.737,2.158a5.261,5.261,0,0,1-4.762.008l-3.715-2.144C448.368,274.2,448.375,272.973,449.694,272.211Zm1.39,8.967-3.737,2.158a5.26,5.26,0,0,1-4.762.008l-3.713-2.144c-1.312-.756-1.305-1.988.015-2.75l3.737-2.157a5.265,5.265,0,0,1,4.762-.009l3.713,2.145C452.411,279.186,452.4,280.417,451.085,281.178Zm-23.006,3.513,3.737-2.157a5.265,5.265,0,0,1,4.762-.009l3.715,2.145c1.31.756,1.3,1.987-.016,2.749l-3.737,2.158a5.26,5.26,0,0,1-4.762.008l-3.713-2.144C426.754,286.683,426.76,285.453,428.079,284.691Zm-15.829,9.14,8.534-4.928a5.261,5.261,0,0,1,4.762-.008l3.715,2.144c1.31.758,1.3,1.988-.016,2.75l-8.534,4.927a5.26,5.26,0,0,1-4.762.008l-3.713-2.144C410.923,295.823,410.93,294.591,412.25,293.831Zm156.92-69.27-8.534,4.927a5.265,5.265,0,0,1-4.762.009l-3.715-2.145c-1.311-.756-1.3-1.987.015-2.748l8.535-4.928a5.258,5.258,0,0,1,4.761-.008l3.715,2.144C570.5,222.569,570.488,223.8,569.17,224.561Zm-15.6,9.01-3.737,2.157a5.261,5.261,0,0,1-4.762.008l-3.715-2.144c-1.31-.756-1.3-1.987.016-2.748l3.737-2.158a5.265,5.265,0,0,1,4.762-.009l3.713,2.145C554.891,231.577,554.884,232.808,553.566,233.571Zm-14.545,8.4a5.261,5.261,0,0,1-4.762.008l-3.713-2.144c-1.312-.756-1.305-1.988.015-2.748l3.737-2.158a5.265,5.265,0,0,1,4.762-.009l3.713,2.145c1.312.756,1.305,1.987-.015,2.748Zm-10.808,6.24a5.261,5.261,0,0,1-4.762.008l-3.713-2.144c-1.31-.758-1.3-1.988.015-2.75l3.737-2.157a5.265,5.265,0,0,1,4.762-.009l3.715,2.145c1.31.756,1.3,1.987-.016,2.748Zm-10.769-.812,3.715,2.145c1.31.756,1.3,1.987-.015,2.748l-3.739,2.158a5.258,5.258,0,0,1-4.761.008l-3.715-2.144c-1.31-.758-1.3-1.988.015-2.75l3.737-2.157A5.265,5.265,0,0,1,517.444,247.4ZM506.409,253.5l4.171,2.408a1.311,1.311,0,0,1-.013,2.484l-4.2,2.424a4.758,4.758,0,0,1-4.3.007l-4.172-2.408a1.311,1.311,0,0,1,.015-2.484l4.2-2.423A4.757,4.757,0,0,1,506.409,253.5Zm-10.808,6.24,4.17,2.408a1.311,1.311,0,0,1-.013,2.484l-4.2,2.423a4.754,4.754,0,0,1-4.3.008l-4.171-2.408a1.311,1.311,0,0,1,.013-2.484l4.2-2.423A4.754,4.754,0,0,1,495.6,259.744Zm-10.808,6.24,4.171,2.407a1.312,1.312,0,0,1-.013,2.485l-4.2,2.423a4.754,4.754,0,0,1-4.3.008l-4.171-2.408a1.311,1.311,0,0,1,.013-2.484l4.2-2.423A4.754,4.754,0,0,1,484.793,265.983Zm-10.808,6.24,4.171,2.407a1.312,1.312,0,0,1-.013,2.485l-4.2,2.423a4.754,4.754,0,0,1-4.3.008l-4.171-2.408a1.311,1.311,0,0,1,.013-2.484l4.2-2.424A4.758,4.758,0,0,1,473.985,272.223Zm-10.808,6.239,4.172,2.408a1.312,1.312,0,0,1-.013,2.485l-4.2,2.423a4.757,4.757,0,0,1-4.3.008l-4.171-2.408a1.311,1.311,0,0,1,.013-2.484l4.2-2.424A4.758,4.758,0,0,1,463.177,278.462Zm-15.15,13.564-4.172-2.408a1.312,1.312,0,0,1,.015-2.485l4.2-2.423a4.758,4.758,0,0,1,4.3-.008l4.171,2.408a1.312,1.312,0,0,1-.013,2.485l-4.2,2.423A4.758,4.758,0,0,1,448.028,292.026Zm-10.808,6.24-4.171-2.408a1.312,1.312,0,0,1,.013-2.485l4.2-2.423a4.758,4.758,0,0,1,4.3-.008l4.171,2.408a1.312,1.312,0,0,1-.013,2.485l-4.2,2.423A4.758,4.758,0,0,1,437.22,298.266Zm-15.19,1.477,4.2-2.423a4.754,4.754,0,0,1,4.3-.008l4.171,2.408a1.311,1.311,0,0,1-.013,2.484l-4.2,2.423a4.754,4.754,0,0,1-4.3.008l-4.171-2.408A1.311,1.311,0,0,1,422.03,299.743Zm157.38-69.534-13.551,7.823a4.754,4.754,0,0,1-4.3.008l-4.172-2.408a1.311,1.311,0,0,1,.015-2.484l13.55-7.824a4.758,4.758,0,0,1,4.3-.008l4.172,2.408A1.312,1.312,0,0,1,579.41,230.208Zm-20.162,11.64-4.2,2.423a4.754,4.754,0,0,1-4.3.008l-4.171-2.408a1.312,1.312,0,0,1,.013-2.485l4.2-2.423a4.758,4.758,0,0,1,4.3-.008l4.171,2.408A1.312,1.312,0,0,1,559.249,241.848Zm-10.808,6.24-4.2,2.423a4.758,4.758,0,0,1-4.3.008l-4.171-2.408a1.312,1.312,0,0,1,.013-2.485l4.2-2.423a4.758,4.758,0,0,1,4.3-.008l4.171,2.408A1.312,1.312,0,0,1,548.441,248.088Zm-10.808,6.24-4.2,2.423a4.758,4.758,0,0,1-4.3.008l-4.171-2.408a1.312,1.312,0,0,1,.013-2.485l4.2-2.423a4.758,4.758,0,0,1,4.3-.008l4.172,2.408A1.312,1.312,0,0,1,537.633,254.328ZM518.326,263l-4.172-2.408a1.312,1.312,0,0,1,.013-2.485l4.2-2.423a4.757,4.757,0,0,1,4.3-.008l4.171,2.408a1.311,1.311,0,0,1-.013,2.484l-4.2,2.424A4.758,4.758,0,0,1,518.326,263Zm-10.808,6.239-4.171-2.408a1.311,1.311,0,0,1,.013-2.484l4.2-2.423a4.754,4.754,0,0,1,4.3-.008l4.171,2.408a1.311,1.311,0,0,1-.013,2.484l-4.2,2.424A4.758,4.758,0,0,1,507.518,269.237Zm-10.808,6.24-4.171-2.408a1.311,1.311,0,0,1,.013-2.484l4.2-2.423a4.754,4.754,0,0,1,4.3-.008l4.171,2.408a1.311,1.311,0,0,1-.013,2.484l-4.2,2.423A4.754,4.754,0,0,1,496.711,275.477Zm-10.808,6.24-4.171-2.408a1.311,1.311,0,0,1,.013-2.484l4.2-2.423a4.754,4.754,0,0,1,4.3-.008l4.171,2.408a1.311,1.311,0,0,1-.013,2.484l-4.2,2.423A4.754,4.754,0,0,1,485.9,281.717Zm-10.808,6.24-4.171-2.408a1.311,1.311,0,0,1,.013-2.484l4.2-2.424a4.754,4.754,0,0,1,4.3-.007l4.172,2.407a1.312,1.312,0,0,1-.015,2.485l-4.2,2.423A4.757,4.757,0,0,1,475.095,287.957Zm-10.806,6.24-4.172-2.408a1.312,1.312,0,0,1,.015-2.485l4.2-2.423a4.758,4.758,0,0,1,4.3-.008l4.171,2.408a1.312,1.312,0,0,1-.013,2.485l-4.2,2.423A4.754,4.754,0,0,1,464.289,294.2Zm-2.307,3.809-4.2,2.423a4.758,4.758,0,0,1-4.3.008l-4.171-2.408a1.312,1.312,0,0,1,.013-2.485l4.2-2.423a4.758,4.758,0,0,1,4.3-.008l4.171,2.408A1.312,1.312,0,0,1,461.981,298.005Zm-29.941,7.516,10.672-6.161a4.758,4.758,0,0,1,4.3-.008l4.171,2.408a1.312,1.312,0,0,1-.013,2.485L440.5,310.407a4.758,4.758,0,0,1-4.3.008l-4.171-2.408A1.312,1.312,0,0,1,432.041,305.521Zm157.338-69.235-19.226,11.1a5.375,5.375,0,0,1-4.862.009l-3.615-2.087c-1.338-.773-1.332-2.029.015-2.807l19.227-11.1a5.375,5.375,0,0,1,4.862-.009l3.615,2.087C590.733,234.253,590.725,235.509,589.378,236.286Zm-26.4,15.24-3.638,2.1a5.375,5.375,0,0,1-4.862.009l-3.615-2.087c-1.338-.774-1.332-2.029.016-2.807l3.638-2.1a5.372,5.372,0,0,1,4.86-.009L563,248.719C564.335,249.493,564.328,250.749,562.982,251.526Zm-10.808,6.24-3.638,2.1a5.374,5.374,0,0,1-4.862.009l-3.615-2.087c-1.337-.774-1.33-2.029.016-2.807l3.638-2.1a5.366,5.366,0,0,1,4.862-.009l3.614,2.087C553.527,255.731,553.521,256.988,552.174,257.766Zm-10.808,6.24-3.638,2.1a5.375,5.375,0,0,1-4.862.009l-3.614-2.088c-1.338-.772-1.332-2.029.015-2.806l3.638-2.1a5.371,5.371,0,0,1,4.862-.008l3.615,2.087C542.721,261.971,542.713,263.228,541.366,264.006Zm-10.808,6.24-3.638,2.1a5.372,5.372,0,0,1-4.86.009l-3.615-2.088c-1.338-.772-1.332-2.029.015-2.807l3.638-2.1a5.37,5.37,0,0,1,4.862-.008l3.615,2.087C531.913,268.211,531.906,269.468,530.559,270.246Zm-10.806,6.24-3.638,2.1a5.371,5.371,0,0,1-4.862.008l-3.615-2.087c-1.338-.772-1.332-2.029.016-2.807l3.636-2.1a5.37,5.37,0,0,1,4.862-.008l3.615,2.087C521.105,274.451,521.1,275.708,519.752,276.486Zm-10.808,6.24-3.638,2.1a5.37,5.37,0,0,1-4.862.008l-3.615-2.087c-1.338-.772-1.33-2.029.016-2.807l3.638-2.1a5.372,5.372,0,0,1,4.86-.009l3.615,2.088C510.3,280.691,510.291,281.948,508.944,282.725Zm-10.808,6.24-3.637,2.1a5.37,5.37,0,0,1-4.862.008l-3.614-2.087c-1.338-.772-1.332-2.029.015-2.807l3.638-2.1a5.375,5.375,0,0,1,4.862-.009l3.615,2.088C499.49,286.931,499.483,288.187,498.137,288.965ZM487.329,295.2l-3.638,2.1a5.376,5.376,0,0,1-4.86.008l-3.615-2.087c-1.338-.773-1.332-2.029.015-2.807l3.638-2.1a5.375,5.375,0,0,1,4.862-.009l3.615,2.087C488.683,293.17,488.676,294.426,487.329,295.2Zm-10.806,6.24-3.638,2.1a5.375,5.375,0,0,1-4.862.009l-3.615-2.087c-1.338-.773-1.332-2.029.015-2.807l3.638-2.1a5.375,5.375,0,0,1,4.862-.009l3.615,2.087C477.875,299.41,477.869,300.666,476.522,301.444Zm-10.808,6.24-3.638,2.1a5.375,5.375,0,0,1-4.862.009l-3.615-2.087c-1.338-.773-1.332-2.029.016-2.807l3.638-2.1a5.372,5.372,0,0,1,4.86-.009l3.615,2.087C467.068,305.65,467.061,306.906,465.715,307.684Zm-23.147,3.594,3.638-2.1a5.375,5.375,0,0,1,4.862-.009l3.615,2.087c1.338.773,1.332,2.029-.016,2.807l-3.636,2.1a5.375,5.375,0,0,1-4.862.009l-3.615-2.087C441.215,313.311,441.222,312.055,442.568,311.277ZM582.494,242.05l8.434-4.87a5.375,5.375,0,0,1,4.862-.009l3.614,2.088c1.338.772,1.332,2.029-.015,2.807l-8.434,4.87a5.375,5.375,0,0,1-4.862.008l-3.615-2.087C581.139,244.085,581.147,242.828,582.494,242.05Zm-10.808,6.24,3.638-2.1a5.375,5.375,0,0,1,4.862-.009l3.615,2.087c1.337.774,1.33,2.029-.016,2.807l-3.638,2.1a5.375,5.375,0,0,1-4.862.009l-3.614-2.087C570.333,250.323,570.34,249.067,571.686,248.29Zm-10.808,6.24,3.638-2.1a5.374,5.374,0,0,1,4.862-.009l3.615,2.087c1.338.774,1.332,2.029-.016,2.807l-3.638,2.1a5.372,5.372,0,0,1-4.86.009l-3.615-2.087C559.525,256.563,559.532,255.307,560.878,254.53Zm-75.652,43.678,68.482-39.538a5.371,5.371,0,0,1,4.862-.009l3.615,2.087c1.338.773,1.332,2.029-.015,2.807l-68.483,39.538a5.37,5.37,0,0,1-4.862.009l-3.615-2.087C483.872,300.241,483.879,298.985,485.226,298.207Zm-10.808,6.24,3.638-2.1a5.375,5.375,0,0,1,4.862-.009l3.614,2.087c1.338.773,1.332,2.029-.015,2.807l-3.638,2.1a5.375,5.375,0,0,1-4.862.009l-3.615-2.087C473.066,306.481,473.072,305.225,474.418,304.447Zm-10.808,6.24,3.638-2.1a5.375,5.375,0,0,1,4.862-.009l3.615,2.087c1.338.773,1.332,2.029-.016,2.807l-3.638,2.1a5.372,5.372,0,0,1-4.86.009l-3.615-2.087C462.258,312.721,462.264,311.465,463.611,310.687Zm-11.032,6.369,3.638-2.1a5.371,5.371,0,0,1,4.862-.008l3.615,2.087c1.338.772,1.332,2.029-.016,2.807l-3.638,2.1a5.372,5.372,0,0,1-4.86.009l-3.615-2.088C451.225,319.091,451.232,317.834,452.578,317.056Z" transform="translate(-380.65 -61.962)" fill="#bfa463"/>
          <path id="Path_126636" data-name="Path 126636" d="M549.439,212.078l-9.113,5.262a4.623,4.623,0,0,1-4.184.007,1.274,1.274,0,0,1,.013-2.415l9.113-5.262a4.623,4.623,0,0,1,4.184-.008A1.275,1.275,0,0,1,549.439,212.078Zm-15.6,9.008-4.317,2.493a4.623,4.623,0,0,1-4.184.007,1.274,1.274,0,0,1,.013-2.415l4.317-2.493a4.623,4.623,0,0,1,4.184-.007A1.274,1.274,0,0,1,533.835,221.086Zm-10.808,6.24-4.317,2.492a4.623,4.623,0,0,1-4.184.008,1.275,1.275,0,0,1,.013-2.415l4.317-2.493a4.627,4.627,0,0,1,4.184-.008A1.275,1.275,0,0,1,523.027,227.326Zm-10.806,6.24-4.318,2.492a4.623,4.623,0,0,1-4.184.008,1.276,1.276,0,0,1,.013-2.416l4.317-2.492a4.63,4.63,0,0,1,4.185-.008A1.276,1.276,0,0,1,512.22,233.566Zm-10.808,6.24L497.1,242.3a4.623,4.623,0,0,1-4.184.008,1.275,1.275,0,0,1,.012-2.416l4.318-2.492a4.627,4.627,0,0,1,4.184-.008A1.276,1.276,0,0,1,501.413,239.806Zm-10.808,6.24-4.317,2.492a4.623,4.623,0,0,1-4.184.008,1.275,1.275,0,0,1,.013-2.416l4.317-2.492a4.623,4.623,0,0,1,4.184-.008A1.275,1.275,0,0,1,490.6,246.046Zm-10.808,6.24-4.317,2.492a4.627,4.627,0,0,1-4.184.008,1.275,1.275,0,0,1,.013-2.416l4.317-2.492a4.623,4.623,0,0,1,4.184-.008A1.275,1.275,0,0,1,479.8,252.286Zm-10.806,6.24-4.318,2.492a4.623,4.623,0,0,1-4.184.007,1.275,1.275,0,0,1,.013-2.415l4.317-2.492a4.623,4.623,0,0,1,4.184-.008A1.275,1.275,0,0,1,468.991,258.526Zm-10.808,6.239-4.317,2.493a4.626,4.626,0,0,1-4.185.007,1.275,1.275,0,0,1,.013-2.415l4.318-2.492a4.623,4.623,0,0,1,4.184-.008A1.275,1.275,0,0,1,458.183,264.764ZM447.375,271l-4.317,2.493a4.623,4.623,0,0,1-4.184.007,1.274,1.274,0,0,1,.013-2.415L443.2,268.6a4.623,4.623,0,0,1,4.184-.007A1.275,1.275,0,0,1,447.375,271Zm-10.808,6.24-4.317,2.492a4.619,4.619,0,0,1-4.184.008,1.274,1.274,0,0,1,.013-2.415l4.317-2.493a4.623,4.623,0,0,1,4.184-.007A1.274,1.274,0,0,1,436.567,277.244Zm-10.808,6.24-4.317,2.492a4.623,4.623,0,0,1-4.184.008,1.275,1.275,0,0,1,.013-2.416l4.317-2.492a4.627,4.627,0,0,1,4.184-.008A1.275,1.275,0,0,1,425.76,283.484Zm-11.032,6.37-4.317,2.492a4.627,4.627,0,0,1-4.184.008,1.276,1.276,0,0,1,.013-2.416l4.317-2.492a4.623,4.623,0,0,1,4.184-.008A1.275,1.275,0,0,1,414.727,289.854Zm144.433-71.83-3.737,2.157a5.261,5.261,0,0,1-4.762.009l-3.715-2.144c-1.31-.758-1.3-1.988.016-2.75l3.737-2.158a5.261,5.261,0,0,1,4.762-.008l3.713,2.144C560.485,216.032,560.478,217.263,559.16,218.024Zm-19.307,8.406-3.713-2.145c-1.312-.756-1.305-1.987.015-2.748l3.737-2.158a5.26,5.26,0,0,1,4.762-.008l3.714,2.144c1.312.758,1.305,1.988-.015,2.75l-3.737,2.157A5.265,5.265,0,0,1,539.853,226.43Zm-2.309,4.074-3.737,2.157a5.265,5.265,0,0,1-4.762.009l-3.713-2.145c-1.31-.756-1.3-1.987.015-2.748l3.737-2.158a5.26,5.26,0,0,1,4.762-.008l3.715,2.144C538.87,228.512,538.864,229.742,537.544,230.5Zm-10.807,6.24L523,238.9a5.262,5.262,0,0,1-4.761.009l-3.715-2.145c-1.31-.756-1.3-1.987.015-2.749l3.737-2.158a5.261,5.261,0,0,1,4.762-.008l3.715,2.144C528.063,234.75,528.056,235.982,526.738,236.744Zm-23.006,3.513,3.737-2.158a5.258,5.258,0,0,1,4.761-.008l3.715,2.144c1.31.756,1.3,1.988-.015,2.75l-3.737,2.157a5.265,5.265,0,0,1-4.762.009l-3.715-2.145C502.406,242.249,502.412,241.018,503.732,240.257ZM492.924,246.5l3.737-2.157a5.265,5.265,0,0,1,4.762-.009l3.713,2.145c1.312.756,1.3,1.987-.015,2.748l-3.737,2.158a5.261,5.261,0,0,1-4.762.008l-3.715-2.144C491.6,248.489,491.6,247.257,492.924,246.5Zm-10.808,6.24,3.737-2.157a5.265,5.265,0,0,1,4.762-.009l3.713,2.145c1.312.756,1.305,1.987-.015,2.748l-3.737,2.158a5.261,5.261,0,0,1-4.762.008l-3.713-2.144C480.79,254.728,480.8,253.5,482.116,252.735Zm-10.808,6.24,3.737-2.157a5.265,5.265,0,0,1,4.762-.009l3.715,2.145c1.31.756,1.3,1.987-.016,2.748l-3.737,2.158a5.261,5.261,0,0,1-4.762.008l-3.713-2.144C469.983,260.967,469.99,259.736,471.309,258.975Zm-10.808,6.24,3.737-2.157a5.26,5.26,0,0,1,4.762-.009l3.715,2.145c1.31.756,1.3,1.987-.015,2.748l-3.737,2.158a5.261,5.261,0,0,1-4.762.008l-3.715-2.144C459.176,267.207,459.182,265.976,460.5,265.215Zm-10.807,6.24,3.737-2.158a5.265,5.265,0,0,1,4.762-.008l3.713,2.144c1.31.758,1.3,1.988-.015,2.75l-3.737,2.158a5.269,5.269,0,0,1-4.762.008l-3.715-2.144C448.368,273.447,448.375,272.216,449.694,271.455Zm1.39,8.967-3.737,2.157a5.265,5.265,0,0,1-4.762.009l-3.713-2.145c-1.312-.756-1.305-1.987.015-2.748l3.737-2.158a5.261,5.261,0,0,1,4.762-.008l3.713,2.144C452.411,278.429,452.4,279.66,451.085,280.422Zm-23.006,3.513,3.737-2.158a5.261,5.261,0,0,1,4.762-.008l3.715,2.144c1.31.758,1.3,1.988-.016,2.75l-3.737,2.157a5.265,5.265,0,0,1-4.762.009l-3.713-2.145C426.754,285.926,426.76,284.7,428.079,283.934Zm-15.829,9.138,8.534-4.927a5.265,5.265,0,0,1,4.762-.009l3.715,2.145c1.31.756,1.3,1.987-.016,2.748l-8.534,4.928a5.265,5.265,0,0,1-4.762.008l-3.713-2.144C410.923,295.065,410.93,293.834,412.25,293.073ZM569.17,223.8l-8.534,4.927a5.261,5.261,0,0,1-4.762.008L552.16,226.6c-1.311-.758-1.3-1.988.015-2.75l8.535-4.927a5.258,5.258,0,0,1,4.761-.008l3.715,2.144C570.5,221.811,570.488,223.041,569.17,223.8Zm-15.6,9.008-3.737,2.158a5.26,5.26,0,0,1-4.762.008l-3.715-2.144c-1.31-.758-1.3-1.988.016-2.75l3.737-2.157a5.265,5.265,0,0,1,4.762-.009l3.713,2.145C554.891,230.82,554.884,232.051,553.566,232.813Zm-14.545,8.4a5.261,5.261,0,0,1-4.762.009l-3.713-2.144c-1.312-.758-1.305-1.988.015-2.75l3.737-2.157a5.257,5.257,0,0,1,4.762-.009l3.713,2.144c1.312.758,1.305,1.988-.015,2.75Zm-10.808,6.24a5.265,5.265,0,0,1-4.762.009l-3.713-2.145c-1.31-.756-1.3-1.987.015-2.748l3.737-2.158a5.261,5.261,0,0,1,4.762-.008l3.715,2.144c1.31.758,1.3,1.988-.016,2.75Zm-10.769-.811,3.715,2.144c1.31.758,1.3,1.988-.015,2.75l-3.739,2.157a5.262,5.262,0,0,1-4.761.009l-3.715-2.145c-1.31-.756-1.3-1.987.015-2.748l3.737-2.158A5.261,5.261,0,0,1,517.444,246.639Zm-11.035,6.107,4.171,2.408a1.312,1.312,0,0,1-.013,2.485l-4.2,2.423a4.758,4.758,0,0,1-4.3.008l-4.172-2.408a1.312,1.312,0,0,1,.015-2.485l4.2-2.423A4.761,4.761,0,0,1,506.409,252.746Zm-10.808,6.24,4.17,2.408a1.312,1.312,0,0,1-.013,2.485l-4.2,2.423a4.758,4.758,0,0,1-4.3.008l-4.171-2.408a1.312,1.312,0,0,1,.013-2.485l4.2-2.423A4.758,4.758,0,0,1,495.6,258.985Zm-10.808,6.24,4.171,2.408a1.312,1.312,0,0,1-.013,2.485l-4.2,2.423a4.758,4.758,0,0,1-4.3.008l-4.171-2.408a1.312,1.312,0,0,1,.013-2.485l4.2-2.423A4.758,4.758,0,0,1,484.793,265.225Zm-10.808,6.24,4.171,2.408a1.311,1.311,0,0,1-.013,2.484l-4.2,2.424a4.758,4.758,0,0,1-4.3.008l-4.171-2.408a1.312,1.312,0,0,1,.013-2.485l4.2-2.423A4.754,4.754,0,0,1,473.985,271.465Zm-10.808,6.24,4.172,2.408a1.311,1.311,0,0,1-.013,2.484l-4.2,2.424a4.761,4.761,0,0,1-4.3.007l-4.171-2.407a1.312,1.312,0,0,1,.013-2.485l4.2-2.423A4.754,4.754,0,0,1,463.177,277.705Zm-15.15,13.563-4.172-2.408a1.311,1.311,0,0,1,.015-2.484l4.2-2.423a4.754,4.754,0,0,1,4.3-.008l4.171,2.408a1.311,1.311,0,0,1-.013,2.484l-4.2,2.423A4.754,4.754,0,0,1,448.028,291.268Zm-10.808,6.24-4.171-2.408a1.311,1.311,0,0,1,.013-2.484l4.2-2.423a4.754,4.754,0,0,1,4.3-.008l4.171,2.408a1.311,1.311,0,0,1-.013,2.484l-4.2,2.423A4.754,4.754,0,0,1,437.22,297.508Zm-15.19,1.477,4.2-2.423a4.758,4.758,0,0,1,4.3-.008l4.171,2.408a1.312,1.312,0,0,1-.013,2.485l-4.2,2.423a4.758,4.758,0,0,1-4.3.008l-4.171-2.408A1.312,1.312,0,0,1,422.03,298.984ZM579.41,229.45l-13.551,7.824a4.754,4.754,0,0,1-4.3.007l-4.172-2.407a1.312,1.312,0,0,1,.015-2.485l13.55-7.823a4.754,4.754,0,0,1,4.3-.008l4.172,2.408A1.311,1.311,0,0,1,579.41,229.45Zm-20.162,11.64-4.2,2.424a4.758,4.758,0,0,1-4.3.007l-4.171-2.408a1.311,1.311,0,0,1,.013-2.484l4.2-2.423a4.754,4.754,0,0,1,4.3-.008l4.171,2.408A1.311,1.311,0,0,1,559.249,241.09Zm-10.808,6.24-4.2,2.423a4.754,4.754,0,0,1-4.3.008l-4.171-2.408a1.311,1.311,0,0,1,.013-2.484l4.2-2.423a4.754,4.754,0,0,1,4.3-.008l4.171,2.408A1.311,1.311,0,0,1,548.441,247.33Zm-10.808,6.24-4.2,2.423a4.754,4.754,0,0,1-4.3.008l-4.171-2.408a1.311,1.311,0,0,1,.013-2.484l4.2-2.424a4.758,4.758,0,0,1,4.3-.007l4.172,2.408A1.311,1.311,0,0,1,537.633,253.569Zm-19.307,8.671-4.172-2.408a1.311,1.311,0,0,1,.013-2.484l4.2-2.424a4.761,4.761,0,0,1,4.3-.007l4.171,2.407a1.312,1.312,0,0,1-.013,2.485l-4.2,2.423A4.754,4.754,0,0,1,518.326,262.24Zm-10.808,6.24-4.171-2.408a1.311,1.311,0,0,1,.013-2.484l4.2-2.424a4.758,4.758,0,0,1,4.3-.008l4.171,2.408a1.312,1.312,0,0,1-.013,2.485l-4.2,2.423A4.754,4.754,0,0,1,507.518,268.48Zm-10.808,6.24-4.171-2.408a1.312,1.312,0,0,1,.013-2.485l4.2-2.423a4.758,4.758,0,0,1,4.3-.008l4.171,2.408a1.312,1.312,0,0,1-.013,2.485l-4.2,2.423A4.758,4.758,0,0,1,496.711,274.72ZM485.9,280.96l-4.171-2.408a1.312,1.312,0,0,1,.013-2.485l4.2-2.423a4.758,4.758,0,0,1,4.3-.008l4.171,2.408a1.312,1.312,0,0,1-.013,2.485l-4.2,2.423A4.758,4.758,0,0,1,485.9,280.96Zm-10.808,6.24-4.171-2.408a1.312,1.312,0,0,1,.013-2.485l4.2-2.423a4.754,4.754,0,0,1,4.3-.008l4.172,2.408a1.311,1.311,0,0,1-.015,2.484l-4.2,2.424A4.761,4.761,0,0,1,475.095,287.2Zm-10.806,6.24-4.172-2.408a1.312,1.312,0,0,1,.015-2.485l4.2-2.423a4.754,4.754,0,0,1,4.3-.008l4.171,2.408a1.311,1.311,0,0,1-.013,2.484l-4.2,2.424A4.762,4.762,0,0,1,464.289,293.44Zm-2.307,3.808-4.2,2.424a4.758,4.758,0,0,1-4.3.007l-4.171-2.407a1.312,1.312,0,0,1,.013-2.485l4.2-2.423a4.754,4.754,0,0,1,4.3-.008l4.171,2.408A1.311,1.311,0,0,1,461.981,297.247Zm-29.941,7.517,10.672-6.161a4.754,4.754,0,0,1,4.3-.008L451.187,301a1.311,1.311,0,0,1-.013,2.484L440.5,309.649a4.754,4.754,0,0,1-4.3.008l-4.171-2.408A1.311,1.311,0,0,1,432.041,304.764Zm157.338-69.235-19.226,11.1a5.375,5.375,0,0,1-4.862.009l-3.615-2.088c-1.338-.772-1.332-2.028.015-2.806l19.227-11.1a5.37,5.37,0,0,1,4.862-.008l3.615,2.087C590.733,233.494,590.725,234.752,589.378,235.529Zm-26.4,15.24-3.638,2.1a5.375,5.375,0,0,1-4.862.009l-3.615-2.088c-1.338-.772-1.332-2.029.016-2.807l3.638-2.1a5.367,5.367,0,0,1,4.86-.008L563,247.962C564.335,248.734,564.328,249.992,562.982,250.769Zm-10.808,6.24-3.638,2.1a5.37,5.37,0,0,1-4.862.008l-3.615-2.087c-1.337-.772-1.33-2.03.016-2.807l3.638-2.1a5.375,5.375,0,0,1,4.862-.009l3.614,2.088C553.527,254.974,553.521,256.232,552.174,257.009Zm-10.808,6.24-3.638,2.1a5.37,5.37,0,0,1-4.862.008l-3.614-2.087c-1.338-.772-1.332-2.029.015-2.807l3.638-2.1a5.375,5.375,0,0,1,4.862-.009l3.615,2.088C542.721,261.214,542.713,262.47,541.366,263.249Zm-10.808,6.239-3.638,2.1a5.368,5.368,0,0,1-4.86.009l-3.615-2.087c-1.338-.774-1.332-2.029.015-2.807l3.638-2.1a5.375,5.375,0,0,1,4.862-.009l3.615,2.088C531.913,267.454,531.906,268.71,530.559,269.488Zm-10.806,6.24-3.638,2.1a5.375,5.375,0,0,1-4.862.009l-3.615-2.087c-1.338-.773-1.332-2.029.016-2.807l3.636-2.1a5.375,5.375,0,0,1,4.862-.009l3.615,2.087C521.105,273.694,521.1,274.95,519.752,275.727Zm-10.808,6.24-3.638,2.1a5.374,5.374,0,0,1-4.862.009l-3.615-2.087c-1.338-.774-1.33-2.029.016-2.807l3.638-2.1a5.372,5.372,0,0,1,4.86-.009l3.615,2.087C510.3,279.934,510.291,281.19,508.944,281.967Zm-10.808,6.24-3.637,2.1a5.375,5.375,0,0,1-4.862.009l-3.614-2.087c-1.338-.774-1.332-2.029.015-2.807l3.638-2.1a5.379,5.379,0,0,1,4.862-.008l3.615,2.087C499.49,286.174,499.483,287.43,498.137,288.207Zm-10.808,6.24-3.638,2.1a5.372,5.372,0,0,1-4.86.009l-3.615-2.088c-1.338-.772-1.332-2.028.015-2.806l3.638-2.1a5.371,5.371,0,0,1,4.862-.008l3.615,2.087C488.683,292.412,488.676,293.669,487.329,294.447Zm-10.806,6.24-3.638,2.1a5.375,5.375,0,0,1-4.862.009l-3.615-2.088c-1.338-.772-1.332-2.029.015-2.806l3.638-2.1a5.371,5.371,0,0,1,4.862-.008l3.615,2.087C477.875,298.652,477.869,299.909,476.522,300.687Zm-10.808,6.24-3.638,2.1a5.37,5.37,0,0,1-4.862.008l-3.615-2.087c-1.338-.772-1.332-2.029.016-2.807l3.638-2.1a5.368,5.368,0,0,1,4.86-.008l3.615,2.087C467.068,304.892,467.061,306.149,465.715,306.927Zm-23.147,3.592,3.638-2.1a5.371,5.371,0,0,1,4.862-.008l3.615,2.087c1.338.772,1.332,2.029-.016,2.807l-3.636,2.1a5.375,5.375,0,0,1-4.862.009l-3.615-2.088C441.215,312.554,441.222,311.3,442.568,310.519Zm139.926-69.226,8.434-4.87a5.375,5.375,0,0,1,4.862-.009L599.4,238.5c1.338.774,1.332,2.029-.015,2.807l-8.434,4.87a5.374,5.374,0,0,1-4.862.009l-3.615-2.088C581.139,243.327,581.147,242.071,582.494,241.293Zm-10.808,6.238,3.638-2.1a5.37,5.37,0,0,1,4.862-.008l3.615,2.087c1.337.772,1.33,2.029-.016,2.807l-3.638,2.1a5.375,5.375,0,0,1-4.862.009l-3.614-2.088C570.333,249.566,570.34,248.31,571.686,247.532Zm-10.808,6.24,3.638-2.1a5.37,5.37,0,0,1,4.862-.008l3.615,2.087c1.338.772,1.332,2.029-.016,2.807l-3.638,2.1a5.368,5.368,0,0,1-4.86.008l-3.615-2.087C559.525,255.806,559.532,254.549,560.878,253.772Zm-75.652,43.679,68.482-39.539a5.375,5.375,0,0,1,4.862-.009l3.615,2.088c1.338.772,1.332,2.03-.015,2.807l-68.483,39.538a5.375,5.375,0,0,1-4.862.009l-3.615-2.088C483.872,299.484,483.879,298.228,485.226,297.451Zm-10.808,6.24,3.638-2.1a5.371,5.371,0,0,1,4.862-.008l3.614,2.087c1.338.772,1.332,2.029-.015,2.807l-3.638,2.1a5.375,5.375,0,0,1-4.862.009L474.4,306.5C473.066,305.724,473.072,304.467,474.418,303.69Zm-10.808,6.239,3.638-2.1a5.37,5.37,0,0,1,4.862-.008l3.615,2.087c1.338.772,1.332,2.029-.016,2.807l-3.638,2.1a5.372,5.372,0,0,1-4.86.009l-3.615-2.088C462.258,311.964,462.264,310.706,463.611,309.929Zm-11.032,6.37,3.638-2.1a5.374,5.374,0,0,1,4.862-.009l3.615,2.087c1.338.774,1.332,2.029-.016,2.807l-3.638,2.1a5.372,5.372,0,0,1-4.86.009l-3.615-2.087C451.225,318.333,451.232,317.077,452.578,316.3Z" transform="translate(-380.65 -62.211)" fill="#f6e5bc"/>
          <g id="Group_56779" data-name="Group 56779">
            <path id="Path_126637" data-name="Path 126637" d="M455.784,322.716,598.951,240.01c5.543-3.2,10.037-11.785,10.037-19.175V108.522c0-7.389-4.494-10.787-10.037-7.586L455.784,183.643c-5.542,3.2-10.036,11.785-10.036,19.175V315.13C445.748,322.52,450.241,325.917,455.784,322.716Z" transform="translate(-442.904 -98.22)" fill="#dac496"/>
            <path id="Path_126638" data-name="Path 126638" d="M453.1,315.343l141.64-81.815c4.46-2.835,7.219-8.5,7.219-14.3V106.376a1.78,1.78,0,0,0-2.679-1.532l-.315.183L457.208,186.922c-5.31,3.061-7.219,8.5-7.219,14.3V313.811a1.921,1.921,0,0,0,2.872,1.667Z" transform="translate(-441.508 -96.619)" fill="#1c614e"/>
            <path id="Path_126639" data-name="Path 126639" d="M457.208,186.92l141.753-81.893.315-.183a1.78,1.78,0,0,1,2.679,1.532V219.234c0,5.8-2.759,11.46-7.219,14.3L453.1,315.343l-.235.134a1.921,1.921,0,0,1-2.872-1.667V201.217C449.989,195.421,451.9,189.983,457.208,186.92Zm-6.092,126.891a.8.8,0,0,0,.8.795.769.769,0,0,0,.389-.108l141.869-81.945c4.028-2.561,6.656-7.8,6.656-13.32V106.376a.655.655,0,0,0-.655-.651.644.644,0,0,0-.327.092L457.773,187.9c-5.5,3.171-6.657,8.994-6.657,13.32Z" transform="translate(-441.508 -96.619)" fill="#022652"/>
            <path id="Path_126640" data-name="Path 126640" d="M458.638,182.506,601.8,99.8a6.782,6.782,0,0,1,5.873-.863c.21.081,3.008,1.568,3.206,1.677l.009.005c-1.71-.829-3.879-.675-6.244.691L461.482,184.017c-5.542,3.2-10.036,11.785-10.036,19.175V315.5c0,4.612,1.75,7.667,4.414,8.536a1.669,1.669,0,0,1-.88-.3c-.126-.073-3.163-1.788-3.285-1.871-1.906-1.336-3.093-4.079-3.093-7.877V201.681C448.6,194.29,453.1,185.706,458.638,182.506Z" transform="translate(-448.602 -98.594)" fill="#d6bd81"/>
            <path id="Path_126641" data-name="Path 126641" d="M448.6,182.506,591.769,99.8a6.782,6.782,0,0,1,5.873-.863c.21.081,3.008,1.568,3.206,1.677l.009.005c-1.71-.829-3.879-.675-6.244.691L451.446,184.017Z" transform="translate(-438.566 -98.594)" fill="#ebd5a7"/>
            <path id="Path_126642" data-name="Path 126642" d="M459.15,183.458l143.167-82.705c2.273-1.313,4.362-1.5,6.044-.773a7.412,7.412,0,0,0-4.84,1.134L460.354,183.819c-5.543,3.2-10.036,11.786-10.036,19.177V315.307c0,4.361,1.57,7.314,3.991,8.36-3.1-.49-5.2-3.672-5.2-8.72V202.635C449.114,195.244,453.607,186.658,459.15,183.458Z" transform="translate(-446.751 -98.277)" fill="#fff" style="mix-blend-mode: screen;isolation: isolate"/>
          </g>
        </g>
      </g>
      <path id="Path_126643" data-name="Path 126643" d="M337.881,183.857,457.563,115.85c.306,15.931.029,65.853.118,82.166.145,26.412,4.1,47.216,34.588,71.083,9.7,7.594,52.508,30.914,87.242,49.165,14.092,7.405,15.162,10.53,22.288,16.565,6.9,5.849,17.5,11.286,20.595,13.092l-118.89,68.746c-2.222-1.317-13.787-7.12-21.383-13.552-7.126-6.037-8.2-12.473-22.288-19.879-34.735-18.253-94.245-54.8-104.81-61.14C341.471,313.965,338,308.844,338,287.461,338,271.058,338.195,199.495,337.881,183.857Z" transform="translate(-294.948 -92.916)" fill="#001a46" opacity="0.1"/>
      <path id="Path_126644" data-name="Path 126644" d="M339.183,184.219l119.682-68.007c.306,7.621.029,70.815.118,87.128.145,26.412,4.1,33.941,34.588,57.808,9.7,7.594,52.508,30.914,87.242,49.165,14.092,7.405,16.366,16.855,23.492,22.89,6.906,5.849,14.562,7.449,17.66,9.254l-118.89,68.747c-2.222-1.318-10.853-3.283-18.448-9.717-7.126-6.035-9.4-15.485-23.492-22.889-34.735-18.253-77.54-41.573-87.242-49.167-30.492-23.867-34.444-31.4-34.588-57.808C339.216,255.222,339.5,191.545,339.183,184.219Z" transform="translate(-296.25 -92.797)" fill="#fff"/>
      <g id="Group_56789" data-name="Group 56789" transform="translate(51.511 49.565)">
        <path id="Path_126689" data-name="Path 126689" d="M485.884,265.02q1.88,1.011,3.7,1.983l-84.211,48.76q-1.9-1-3.757-1.995Z" transform="translate(-298.345 -93.398)" fill="#b4ddc0"/>
        <path id="Path_126690" data-name="Path 126690" d="M491.856,261.847q1.858,1.007,3.684,1.992L411.249,312.6l-3.747-2Z" transform="translate(-312.134 -94.442)" fill="#b4ddc0"/>
        <path id="Path_126691" data-name="Path 126691" d="M503.751,255.453q1.822,1.007,3.654,2.013l-84.47,48.768q-1.886-1.025-3.721-2.024Z" transform="translate(-339.562 -96.546)" fill="#b4ddc0"/>
        <path id="Path_126692" data-name="Path 126692" d="M497.814,258.659q1.84,1,3.67,2l-84.377,48.763q-1.89-1.015-3.736-2.012Z" transform="translate(-325.875 -95.491)" fill="#b4ddc0"/>
        <path id="Path_126693" data-name="Path 126693" d="M509.668,252.226q1.8,1.009,3.631,2.029L428.73,303.029q-1.886-1.033-3.7-2.036Z" transform="translate(-353.182 -97.608)" fill="#b4ddc0"/>
        <path id="Path_126694" data-name="Path 126694" d="M443.133,264.157c1.3.69,4.181,2.027,5.344,2.641l-65.554,37.7c-1.094-.722-3.887-2.108-5.135-2.806Z" transform="translate(-225.579 -93.682)" fill="#4cc0ad"/>
        <path id="Path_126695" data-name="Path 126695" d="M472.808,267.8l1.659.872c.706.371,1.364.75,2,1.131L374.809,328.415q-1.348-1.24-2.909-2.475Z" transform="translate(-245.739 -92.483)" fill="#b4ddc0"/>
        <path id="Path_126696" data-name="Path 126696" d="M487.394,241.642c1.182.675,4.137,2.242,5.357,2.933l-68.5,39.257c-1.253-.7-4.244-2.265-5.444-2.936Z" transform="translate(-324.373 -101.09)" fill="#4cc0ad"/>
        <path id="Path_126697" data-name="Path 126697" d="M462.692,279.915c.724.936,1.483,1.867,2.294,2.788L362.728,341.793c-.548-.4-1.09-.819-1.621-1.268a15.909,15.909,0,0,1-1.273-1.215Z" transform="translate(-218.224 -88.497)" fill="#b4ddc0"/>
        <path id="Path_126698" data-name="Path 126698" d="M540.671,163.02,438.756,219.137c0-1.762,0-4.828.007-6.522l101.917-56.727v1.94C540.677,159.576,540.674,161.311,540.671,163.02Z" transform="translate(-438.756 -129.307)" fill="#4cc0ad"/>
        <path id="Path_126798" data-name="Path 126798" d="M525.474,163.02l-40.533,22.67c0-1.762,0-4.828.007-6.522l40.534-23.28v1.94C525.479,159.576,525.477,161.311,525.474,163.02Z" transform="translate(-423.559 -155.888)" fill="#b4ddc0"/>
        <path id="Path_126799" data-name="Path 126799" d="M530.781,163.02,468.812,197.7c0-1.762,0-4.828.007-6.522l61.971-35.286v1.94C530.787,159.576,530.784,161.311,530.781,163.02Z" transform="translate(-428.866 -142.094)" fill="#b4ddc0"/>
        <path id="Path_126699" data-name="Path 126699" d="M569.88,168.777,468.822,225.668q0-1.244,0-2.5c0-.564,0-1.1,0-1.657L569.884,164.7Q569.882,166.782,569.88,168.777Z" transform="translate(-467.974 -126.408)" fill="#b4ddc0"/>
        <path id="Path_126700" data-name="Path 126700" d="M469.442,271.192a31.96,31.96,0,0,1,2.788,2.5l-102.76,59.3c-.742-.908-1.542-1.833-2.4-2.766Z" transform="translate(-235.083 -91.367)" fill="#b4ddc0"/>
        <path id="Path_126701" data-name="Path 126701" d="M466.374,275.36c.758.936,1.478,1.885,2.194,2.845L365.549,337.695c-.4-.526-.805-1.07-1.227-1.637-.308-.413-.625-.837-.945-1.264Z" transform="translate(-226.517 -89.996)" fill="#b4ddc0"/>
        <path id="Path_126702" data-name="Path 126702" d="M565.8,207.429c.584,1.014,1.221,2.02,1.9,3.025L464.156,269.247a33.333,33.333,0,0,1-1.942-3.069Z" transform="translate(-457.007 -112.348)" fill="#b4ddc0"/>
        <path id="Path_126703" data-name="Path 126703" d="M568.236,202.267c.415,1.127.877,2.23,1.382,3.32L466.163,264.263a30.3,30.3,0,0,1-1.134-3.527Z" transform="translate(-462.667 -114.046)" fill="#b4ddc0"/>
        <path id="Path_126704" data-name="Path 126704" d="M550.234,194.936c.246,1.24.522,4.686.843,5.861l-83.659,47.18c-.179-1.253-.318-4.794-.419-6.172Z" transform="translate(-446.742 -116.459)" fill="#4cc0ad"/>
        <path id="Path_126705" data-name="Path 126705" d="M569.894,171.21c0,1.421,0,2.784,0,4.081L468.828,232.262q0-2.043.005-4.159Z" transform="translate(-467.992 -124.265)" fill="#b4ddc0"/>
        <path id="Path_126706" data-name="Path 126706" d="M569.894,177.724c0,1.52.005,2.893.009,4.08L468.82,238.859q0-2,0-4.161Z" transform="translate(-467.991 -122.122)" fill="#b4ddc0"/>
        <path id="Path_126707" data-name="Path 126707" d="M569.815,184.218c.028,1.382.074,2.717.134,4.015L468.686,245.46c0-1.26,0-2.651-.005-4.16Z" transform="translate(-467.851 -119.985)" fill="#b4ddc0"/>
        <path id="Path_126708" data-name="Path 126708" d="M542.977,228.431q1.467,1.172,3.016,2.39l-101.8,58.1c-1.312-.832-2.439-1.574-3.4-2.231Z" transform="translate(-406.839 -105.437)" fill="#b4ddc0"/>
        <path id="Path_126709" data-name="Path 126709" d="M537.106,232.183c.982.679,2.1,1.421,3.325,2.212L439.223,292.216q-1.892-1.124-3.555-2.136Z" transform="translate(-394.458 -104.203)" fill="#b4ddc0"/>
        <path id="Path_126710" data-name="Path 126710" d="M531.24,235.658q1.658,1.023,3.483,2.12L433.79,295.5q-1.882-1.08-3.62-2.095Z" transform="translate(-381.443 -103.059)" fill="#b4ddc0"/>
        <path id="Path_126711" data-name="Path 126711" d="M562.117,212.141c.73.926,1.491,1.854,2.314,2.792L461.194,273.617q-1.36-1.407-2.507-2.747Z" transform="translate(-449.051 -110.797)" fill="#b4ddc0"/>
        <path id="Path_126712" data-name="Path 126712" d="M523.465,219.535c.9.823,3.163,3.1,4.141,3.949l-73.091,41.58c-1.039-.852-3.353-3.115-4.3-3.917Z" transform="translate(-400.964 -108.364)" fill="#4cc0ad"/>
        <path id="Path_126713" data-name="Path 126713" d="M548.02,224.577q1.421,1.192,2.941,2.432L448.632,285.357c-1.054-.831-2.077-1.64-3.058-2.425Z" transform="translate(-418.153 -106.705)" fill="#b4ddc0"/>
        <g id="Group_56788" data-name="Group 56788" transform="translate(159.106 151.255)">
          <path id="Path_126714" data-name="Path 126714" d="M421.874,252.875a5.038,5.038,0,0,0,4.557-.008c1.263-.73,1.269-1.907.015-2.631a5.038,5.038,0,0,0-4.557.008C420.626,250.974,420.619,252.151,421.874,252.875Z" transform="translate(-420.937 -249.695)" fill="#4cc0ad"/>
          <path id="Path_126715" data-name="Path 126715" d="M416.165,256.021a5.041,5.041,0,0,0,4.559-.008c1.263-.73,1.268-1.907.013-2.632a5.038,5.038,0,0,0-4.557.008C414.917,254.118,414.911,255.3,416.165,256.021Z" transform="translate(-407.643 -248.66)" fill="#4cc0ad"/>
          <ellipse id="Ellipse_11301" data-name="Ellipse 11301" cx="1.861" cy="3.223" rx="1.861" ry="3.223" transform="translate(15.183 12.101) rotate(-90.31)" fill="#4cc0ad"/>
          <path id="Path_126716" data-name="Path 126716" d="M404.749,262.314a5.034,5.034,0,0,0,4.557-.009c1.263-.728,1.269-1.906.015-2.63a5.034,5.034,0,0,0-4.557.008C403.5,260.41,403.494,261.589,404.749,262.314Z" transform="translate(-381.052 -246.59)" fill="#4cc0ad"/>
          <path id="Path_126717" data-name="Path 126717" d="M399.04,265.46a5.037,5.037,0,0,0,4.559-.009c1.263-.728,1.268-1.907.013-2.632a5.034,5.034,0,0,0-4.557.009C397.792,263.556,397.786,264.735,399.04,265.46Z" transform="translate(-367.758 -245.555)" fill="#4cc0ad"/>
        </g>
      </g>
      <g id="Group_56799" data-name="Group 56799" transform="translate(86.601 -11.391)">
        <g id="Group_56790" data-name="Group 56790" transform="translate(4 21.775)">
          <path id="Path_126718" data-name="Path 126718" d="M534.886,286.462s-49-1.42-67.389-10.613-27.579-36.065-27.579-49.5-2.121-45.965-2.121-45.965,23.336-7.072,46.672-26.872c13.608-11.548,38.893-49.5,38.893-49.5V224.935C523.362,250.392,534.886,286.462,534.886,286.462Z" transform="translate(-437.797 -104.012)" opacity="0.1" fill="url(#linear-gradient)" style="mix-blend-mode: multiply;isolation: isolate"/>
          <path id="Path_126719" data-name="Path 126719" d="M533.046,285.782s-47.917-1.7-65.908-10.793c-18.36-9.358-27.259-35.81-27.259-48.991s-2.082-46.229-2.082-46.229,22.893-6.127,45.788-25.552c13.351-11.329,38.155-48.561,38.155-48.561V225.421C521.74,250.394,533.046,285.782,533.046,285.782Z" transform="translate(-435.957 -103.331)" opacity="0.143" fill="url(#linear-gradient-2)" style="mix-blend-mode: multiply;isolation: isolate"/>
          <path id="Path_126720" data-name="Path 126720" d="M531.2,285.1s-46.859-1.918-64.426-10.972c-18.368-9.466-26.941-35.556-26.941-48.482s-2.041-46.494-2.041-46.494,22.451-5.183,44.9-24.233c13.092-11.109,37.418-47.624,37.418-47.624v118.61C520.118,250.4,531.2,285.1,531.2,285.1Z" transform="translate(-434.116 -102.651)" opacity="0.186" fill="url(#linear-gradient-3)" style="mix-blend-mode: multiply;isolation: isolate"/>
          <path id="Path_126721" data-name="Path 126721" d="M529.363,284.421s-45.784-2.172-62.943-11.152c-18.358-9.606-26.623-35.3-26.623-47.973s-2-46.758-2-46.758,22.008-4.239,44.016-22.913c12.836-10.89,36.681-46.685,36.681-46.685V226.392C518.494,250.4,529.363,284.421,529.363,284.421Z" transform="translate(-432.274 -101.97)" opacity="0.229" fill="url(#linear-gradient-4)" style="mix-blend-mode: multiply;isolation: isolate"/>
          <path id="Path_126722" data-name="Path 126722" d="M527.523,283.74s-44.707-2.43-61.463-11.331c-18.345-9.749-26.3-35.048-26.3-47.464s-1.96-47.023-1.96-47.023,21.567-3.294,43.132-21.592c12.577-10.672,35.944-45.747,35.944-45.747v116.3C516.873,250.4,527.523,283.74,527.523,283.74Z" transform="translate(-430.434 -101.29)" opacity="0.271" fill="url(#linear-gradient-5)" style="mix-blend-mode: multiply;isolation: isolate"/>
          <path id="Path_126723" data-name="Path 126723" d="M525.682,283.059s-43.631-2.69-59.981-11.511c-18.334-9.893-25.985-34.793-25.985-46.955s-1.919-47.287-1.919-47.287,21.123-2.349,42.247-20.273c12.319-10.453,35.206-44.808,35.206-44.808V227.364C515.25,250.409,525.682,283.059,525.682,283.059Z" transform="translate(-428.593 -100.609)" opacity="0.314" fill="url(#linear-gradient-6)" style="mix-blend-mode: multiply;isolation: isolate"/>
        </g>
        <path id="Path_126740" data-name="Path 126740" d="M402.944,189.444c20.417-11.551,40.379-31.256,57.11-56.363l.226-.129c16.731,5.786,36.693,2.441,57.111-9.583l.779-.459-1.1,38.15c-3.875,59.135-24.044,84.874-56.507,139.854l-.791.456c-32.462-17.5-52.633-19.945-56.507-74.607l-1.1-36.877Z" transform="translate(-349.583 -92.359)" fill="#b4ddc0"/>
        <path id="Path_126741" data-name="Path 126741" d="M403.079,184.016c20.418-11.551,40.379-31.255,57.111-56.361l.226-.131c16.729,5.788,36.691,2.441,57.11-9.583l.781-.459,11.3,8.9-.563.33c-20.417,12.025-40.379,15.369-57.11,9.583l-.226.129c-16.731,25.107-36.691,44.812-57.111,56.363l-.779.441,1.1,36.877c2.529,35.678,12,49.109,27.3,59-19.115-11.289-35.977-27.675-38.819-67.778l-1.1-36.876Z" transform="translate(-361.235 -95.706)" fill="#b4ddc0"/>
        <path id="Path_126742" data-name="Path 126742" d="M437.972,180.628l.781-.443c20.418-11.551,40.379-31.255,57.111-56.361l.226-.131,11.515,8.775-.226.129c-16.731,25.106-36.691,44.812-57.111,56.363l-.779.441Z" transform="translate(-396.909 -91.876)" fill="#ccefd6"/>
        <path id="Path_126743" data-name="Path 126743" d="M467.868,167.685l1.1,36.877c2.529,35.678,12,49.109,27.3,59-19.115-11.289-35.977-27.675-38.819-67.778l-1.1-36.876Z" transform="translate(-415.288 -70.159)" fill="#83b591"/>
        <path id="Path_126744" data-name="Path 126744" d="M459.5,268.185c25.2-41.8,37.875-62.829,40.932-108.708l.7-24.083c-16.179,7.315-31.691,9.648-45.665,6.866-13.971,18.916-29.483,34.494-45.664,45.863l.7,23.28c3.057,42.353,15.733,48.745,40.937,61.45q1.979,1,4.03,2.039Z" transform="translate(-344.875 -84.66)" fill="#1c614e"/>
        <path id="Path_126745" data-name="Path 126745" d="M432.519,271.03c1.319.668,2.661,1.343,4.03,2.039q2.059-3.417,4.037-6.7c25.2-41.8,37.876-62.831,40.933-108.71l.616-21.33c.715-.306,1.427-.608,2.144-.931l-.7,24.083c-3.057,45.879-15.732,66.908-40.932,108.708l-4.037,6.706q-2.054-1.043-4.03-2.039c-10.284-5.183-18.478-9.318-24.788-15.271C415.8,262.592,423.32,266.394,432.519,271.03Z" transform="translate(-328.03 -84.66)" fill="#0b261f"/>
        <path id="Path_126746" data-name="Path 126746" d="M403.416,188.819c20.418-11.553,40.381-31.256,57.111-56.363l.226-.131c16.731,5.788,36.691,2.441,57.11-9.583l.745.789c-20.381,11.973-40.3,15.3-57.006,9.522l-.226.131c-16.731,25.107-36.693,44.812-57.11,56.363l-.781.441,1.1,36.877c2.1,29.607,8.98,43.893,20,53.553-11.52-9.671-18.7-23.921-20.853-54.28l-1.1-36.877Z" transform="translate(-350.784 -92.462)" fill="#fff"/>
        <g id="Group_56791" data-name="Group 56791" transform="translate(160.659 57.02)">
          <path id="Path_126747" data-name="Path 126747" d="M417.093,179.227a.809.809,0,0,0,.808-.808q0-1.666-.076-3.269a.808.808,0,1,0-1.613.074q.07,1.567.073,3.194A.809.809,0,0,0,417.093,179.227Zm-.482-8.064a.715.715,0,0,0,.1-.007.807.807,0,0,0,.7-.9q-.206-1.664-.5-3.243a.808.808,0,0,0-1.589.3q.284,1.533.485,3.146A.807.807,0,0,0,416.611,171.164Zm-1.6-7.909a.79.79,0,0,0,.226-.032.807.807,0,0,0,.55-1c-.31-1.064-.66-2.116-1.035-3.123a.809.809,0,0,0-1.516.566c.364.97.7,1.984,1,3.01A.813.813,0,0,0,415.007,163.255Zm-3-7.487a.809.809,0,0,0,.713-1.188c-.521-.976-1.09-1.933-1.693-2.842a.809.809,0,0,0-1.348.894c.576.867,1.117,1.777,1.613,2.708A.808.808,0,0,0,412.005,155.768Zm-4.654-6.573a.8.8,0,0,0,.551-.218.809.809,0,0,0,.039-1.143,27.96,27.96,0,0,0-2.414-2.289.808.808,0,0,0-1.039,1.238,26.142,26.142,0,0,1,2.271,2.157A.81.81,0,0,0,407.351,149.195Zm-6.321-4.981a.809.809,0,0,0,.4-1.513,27.262,27.262,0,0,0-3-1.449.809.809,0,0,0-.613,1.5,24.992,24.992,0,0,1,2.818,1.361A.8.8,0,0,0,401.03,144.214Zm-7.532-2.821a.808.808,0,0,0,.167-1.6,30.7,30.7,0,0,0-3.28-.509.836.836,0,0,0-.883.723.8.8,0,0,0,.723.886,29.19,29.19,0,0,1,3.106.482A.848.848,0,0,0,393.5,141.393Z" transform="translate(-389.497 -139.282)" fill="#b4ddc0"/>
        </g>
        <g id="Group_56792" data-name="Group 56792" transform="translate(155.144 134.509)">
          <path id="Path_126748" data-name="Path 126748" d="M395.755,225.379a.811.811,0,0,0,.595-.262q1.1-1.2,2.168-2.425a.808.808,0,1,0-1.217-1.064q-1.06,1.217-2.142,2.394a.81.81,0,0,0,.05,1.143A.8.8,0,0,0,395.755,225.379Zm5.261-6.13a.805.805,0,0,0,.63-.3q1.016-1.266,2-2.562a.809.809,0,0,0-1.285-.983q-.977,1.283-1.979,2.533a.808.808,0,0,0,.629,1.314Zm4.853-6.462a.81.81,0,0,0,.663-.343q.931-1.329,1.838-2.684a.809.809,0,0,0-1.345-.9q-.892,1.339-1.817,2.653a.809.809,0,0,0,.2,1.125A.8.8,0,0,0,405.868,212.787Zm4.444-6.751a.81.81,0,0,0,.689-.383q.854-1.385,1.672-2.79a.809.809,0,1,0-1.4-.813q-.805,1.387-1.649,2.755a.807.807,0,0,0,.687,1.232Zm4.03-7.007a.811.811,0,0,0,.713-.428q.764-1.436,1.5-2.886a.808.808,0,1,0-1.444-.728q-.723,1.433-1.482,2.852a.811.811,0,0,0,.715,1.19Zm3.594-7.243a.805.805,0,0,0,.734-.47q.681-1.482,1.321-2.975a.809.809,0,0,0-1.487-.637q-.63,1.474-1.3,2.937a.807.807,0,0,0,.734,1.145Z" transform="translate(-394.946 -187.215)" fill="#b4ddc0"/>
        </g>
        <g id="Group_56793" data-name="Group 56793" transform="translate(122.534 74.368)">
          <path id="Path_126749" data-name="Path 126749" d="M409.757,250.4c22.633-13.069,41.047-44.831,41.047-70.8,0-12.7-4.337-22.2-12.217-26.754-7.946-4.588-18.472-3.565-29.638,2.881a66.3,66.3,0,0,0-10.982,8.041l1.077,1.2a64.689,64.689,0,0,1,10.713-7.846c10.642-6.145,20.593-7.168,28.021-2.881,7.356,4.249,11.409,13.253,11.409,25.354,0,25.459-18.051,56.592-40.238,69.4Z" transform="translate(-397.967 -150.014)" fill="#c48145"/>
        </g>
        <path id="Path_126750" data-name="Path 126750" d="M422.922,213.991c.063,1.33.976,1.911,2.04,1.3a4.179,4.179,0,0,0,1.811-3.519c-.065-1.329-.977-1.909-2.04-1.295A4.174,4.174,0,0,0,422.922,213.991Z" transform="translate(-291.744 -38.514)" fill="#c48145"/>
        <g id="Group_56794" data-name="Group 56794" transform="translate(120.92 83.855)">
          <path id="Path_126751" data-name="Path 126751" d="M427.4,162.442l6.252-1.563a.808.808,0,0,0-.391-1.568l-3.282.821,1.17-3.159a.809.809,0,1,0-1.516-.563Z" transform="translate(-427.402 -155.882)" fill="#c48145"/>
        </g>
        <g id="Group_56798" data-name="Group 56798" transform="translate(96.616 85.443)">
          <g id="Group_56795" data-name="Group 56795" transform="translate(0)">
            <path id="Path_126752" data-name="Path 126752" d="M456.6,183.183c-.443-16.2-12.217-22.638-26.662-14.3-7.435,4.292-14.165,11.69-19.012,20.135l-5.328-1.34c6.07-11.011,14.732-20.722,24.34-26.27,18.178-10.494,32.986-2.2,33.208,18.473l-4.263,3.872Z" transform="translate(-396.717 -156.864)" fill="#d6bd81"/>
            <path id="Path_126753" data-name="Path 126753" d="M408.538,223.2c3.941.361,8.507-.739,13.387-3.558,13.682-7.9,24.979-26.295,26.513-42.418l6.52-3.287c-.011.118,2.179.563,2.168.681-1.887,20.067-18.166,42.663-35.2,52.5-6.185,3.573-10.372,5.45-15.337,4.923-.209-.023-2.022-.538-2.228-.568Z" transform="translate(-388.709 -146.336)" fill="#d6bd81"/>
            <path id="Path_126754" data-name="Path 126754" d="M448.1,180.292c-3.233,6.935-5.169,14.278-5.169,21.028,0,9.68,3.945,16.037,10.073,18.118l-4.127,8.174c-7.589-2.611-12.459-10.523-12.459-22.531,0-8.382,2.375-17.507,6.386-26.12Z" transform="translate(-436.422 -143.238)" fill="#d6bd81"/>
          </g>
          <path id="Path_126755" data-name="Path 126755" d="M421.689,199.616a22.747,22.747,0,0,0,4.683-5.607c.773-1.3.747-2.7-.006-3.141a5.982,5.982,0,0,1-2.391-2.666c-.821.226-1.838-.076-1.838-1.2a4.45,4.45,0,0,1,1.185-3.03c.2-4.915,1.879-9.963,7.53-13.226,1.976-1.141,3.466-1.5,4.577-1.29.259.048,2.5.639,2.718.749,1.532.761.123,2.407.236,5.071.679-.15,1.185.512,1.185,1.662a5.431,5.431,0,0,1-1.838,3.324,26.751,26.751,0,0,1-2.389,5.425c-.753,1.309-.781,2.747-.007,3.149a6.167,6.167,0,0,0,4.682.2,3.52,3.52,0,0,1,1.956-.079c.165.047,2.178.569,2.328.643,1.051.522-.149,1.289-.149,3.072v5.067a3.416,3.416,0,0,1-1.549,2.672L420.89,214.78c-.377.218-2.509-.54-2.777-.642a1.016,1.016,0,0,1-.559-1.044v-5.067A12.068,12.068,0,0,1,421.689,199.616Z" transform="translate(-397.639 -149.134)" fill="#d6bd81"/>
          <g id="Group_56796" data-name="Group 56796" transform="translate(1.46 0.417)">
            <path id="Path_126756" data-name="Path 126756" d="M455.693,183.441c-.443-16.2-12.217-22.638-26.662-14.3-7.435,4.294-14.165,11.692-19.012,20.137l-5.328-1.34c6.071-11.011,14.733-20.722,24.34-26.27,18.177-10.494,32.986-2.2,33.208,18.473Z" transform="translate(-395.814 -157.122)" fill="#fff"/>
            <path id="Path_126757" data-name="Path 126757" d="M408.976,223.457c3.941.361,8.507-.739,13.387-3.558,13.682-7.9,24.979-26.295,26.513-42.418l6.52-3.287c-1.752,20.151-15.9,43.286-33.033,53.178-6.446,3.722-12.466,5.071-17.565,4.355Z" transform="translate(-389.147 -146.594)" fill="#fff"/>
            <path id="Path_126758" data-name="Path 126758" d="M447.2,180.55c-3.233,6.935-5.168,14.278-5.168,21.028,0,9.682,3.945,16.037,10.073,18.118l-4.127,8.174c-7.589-2.611-12.459-10.523-12.459-22.531,0-8.382,2.375-17.505,6.386-26.12Z" transform="translate(-435.519 -143.496)" fill="#fff"/>
          </g>
          <path id="Path_126759" data-name="Path 126759" d="M421.144,199.874a22.747,22.747,0,0,0,4.683-5.607c.773-1.3.747-2.7-.006-3.141a5.981,5.981,0,0,1-2.391-2.666c-.821.226-1.838-.076-1.838-1.2a4.447,4.447,0,0,1,1.185-3.03c.2-4.915,1.879-9.963,7.53-13.226s7.33-.152,7.53,4.53c.679-.15,1.185.512,1.185,1.662a5.431,5.431,0,0,1-1.838,3.324,26.7,26.7,0,0,1-2.389,5.425c-.753,1.309-.781,2.747-.006,3.149a6.167,6.167,0,0,0,4.682.2c2.373-.718,4.135.715,4.135,3.636V198a3.416,3.416,0,0,1-1.549,2.672l-23.5,13.567c-.855.495-1.549.1-1.549-.883v-5.067A12.068,12.068,0,0,1,421.144,199.874Z" transform="translate(-395.635 -148.975)" fill="#fff"/>
          <g id="Group_56797" data-name="Group 56797" transform="translate(2.294 0.626)">
            <path id="Path_126760" data-name="Path 126760" d="M455.177,183.57c-.443-16.2-12.217-22.638-26.662-14.3-7.435,4.294-14.165,11.692-19.012,20.137l-5.328-1.34c6.07-11.011,14.732-20.722,24.34-26.271,18.178-10.494,32.986-2.2,33.208,18.473Z" transform="translate(-395.298 -157.251)" fill="#c48145"/>
            <path id="Path_126761" data-name="Path 126761" d="M408.46,223.586c3.941.361,8.507-.739,13.387-3.558,13.682-7.9,24.979-26.295,26.513-42.417l6.52-3.287c-1.752,20.151-15.9,43.286-33.033,53.178-6.446,3.721-12.466,5.071-17.565,4.355Z" transform="translate(-388.631 -146.723)" fill="#c48145"/>
            <path id="Path_126762" data-name="Path 126762" d="M446.685,180.679c-3.233,6.935-5.168,14.278-5.168,21.028,0,9.682,3.945,16.037,10.073,18.118L447.462,228c-7.589-2.611-12.46-10.523-12.46-22.531,0-8.382,2.375-17.505,6.386-26.12Z" transform="translate(-435.003 -143.625)" fill="#c48145"/>
          </g>
          <path id="Path_126763" data-name="Path 126763" d="M420.628,200a22.75,22.75,0,0,0,4.683-5.607c.773-1.3.747-2.7-.006-3.141a5.981,5.981,0,0,1-2.391-2.666c-.821.226-1.838-.076-1.838-1.2a4.448,4.448,0,0,1,1.185-3.03c.2-4.915,1.879-9.963,7.53-13.226s7.33-.152,7.53,4.53c.679-.15,1.185.512,1.185,1.662a5.431,5.431,0,0,1-1.838,3.324,26.712,26.712,0,0,1-2.389,5.425c-.753,1.31-.781,2.747-.006,3.149a6.167,6.167,0,0,0,4.682.2c2.373-.718,4.135.715,4.135,3.636v5.067a3.414,3.414,0,0,1-1.549,2.672l-23.5,13.567c-.855.495-1.549.1-1.549-.883v-5.067A12.068,12.068,0,0,1,420.628,200Z" transform="translate(-394.285 -148.896)" fill="#c48145"/>
        </g>
      </g>
      <g id="Group_56802" data-name="Group 56802" transform="translate(11.054 131.273)">
        <path id="Path_126764" data-name="Path 126764" d="M534.42,255.11,587.9,224.187c3.049-1.76,5.52-6.482,5.52-10.547V200.968c0-4.065-2.471-5.933-5.52-4.173L534.42,227.718c-3.049,1.761-5.52,6.482-5.52,10.547v12.672C528.9,255,531.371,256.87,534.42,255.11Z" transform="translate(-526.299 -194.807)" fill="#4cc0ad"/>
        <path id="Path_126765" data-name="Path 126765" d="M532.862,248.357,585.5,217.924a9.385,9.385,0,0,0,3.971-7.862v-9.083a.978.978,0,0,0-1.474-.842l-.173.1-52.7,30.476c-2.921,1.683-3.971,4.674-3.971,7.862v8.938a1.056,1.056,0,0,0,1.58.916Z" transform="translate(-525.452 -193.353)" fill="#00846c"/>
        <path id="Path_126766" data-name="Path 126766" d="M531.8,247.706l.128-.073L584.565,217.2a9.387,9.387,0,0,0,3.97-7.862v-9.083a.986.986,0,0,0-.035-.249.976.976,0,0,1,.918.971v9.083a9.385,9.385,0,0,1-3.971,7.862L532.81,248.355l-.129.073a1.055,1.055,0,0,1-1.527-.6A1.03,1.03,0,0,0,531.8,247.706Z" transform="translate(-525.4 -193.351)" fill="#001a46"/>
        <path id="Path_126767" data-name="Path 126767" d="M535.935,226.755l53.478-30.923a3.73,3.73,0,0,1,3.229-.475c.116.044,2.69,1.358,2.8,1.417l.005,0a3.613,3.613,0,0,0-3.434.378l-53.477,30.924c-3.049,1.76-5.52,6.481-5.52,10.545V251.3c0,2.537.963,4.217,2.427,4.695a.913.913,0,0,1-.483-.164c-.07-.04-2.775-1.478-2.843-1.525-1.048-.735-1.7-2.243-1.7-4.333V237.3C530.416,233.236,532.887,228.515,535.935,226.755Z" transform="translate(-530.414 -195.169)" fill="#0c8b76"/>
        <path id="Path_126768" data-name="Path 126768" d="M530.416,226.755l53.478-30.923a3.73,3.73,0,0,1,3.229-.475c.116.044,2.69,1.358,2.8,1.417l.005,0a3.614,3.614,0,0,0-3.434.378l-53.477,30.924Z" transform="translate(-524.896 -195.169)" fill="#4cc0ad"/>
        <path id="Path_126769" data-name="Path 126769" d="M536.207,227.62,589.685,196.7a3.666,3.666,0,0,1,3.324-.425,4.072,4.072,0,0,0-2.662.625L536.869,227.82c-3.048,1.76-5.519,6.481-5.519,10.545v12.672c0,2.4.864,4.023,2.195,4.6-1.7-.271-2.856-2.02-2.856-4.8V238.167C530.688,234.1,533.159,229.38,536.207,227.62Z" transform="translate(-528.352 -194.841)" fill="#fff" opacity="0.7"/>
        <g id="Group_56800" data-name="Group 56800" transform="translate(13.823 16.144)">
          <path id="Path_126770" data-name="Path 126770" d="M569.451,223.751a7.335,7.335,0,0,1-3.327,5.74c-1.838,1.061-3.329.212-3.329-1.9a7.332,7.332,0,0,1,3.329-5.74C567.961,220.793,569.451,221.642,569.451,223.751Z" transform="translate(-562.796 -201.453)" fill="#0b261f"/>
          <path id="Path_126771" data-name="Path 126771" d="M563.214,220.127a7.331,7.331,0,0,1-3.327,5.74c-1.838,1.061-3.328.212-3.328-1.9a7.334,7.334,0,0,1,3.328-5.74C561.725,217.169,563.214,218.019,563.214,220.127Z" transform="translate(-547.975 -202.815)" fill="#0b261f"/>
          <path id="Path_126772" data-name="Path 126772" d="M556.975,216.5a7.328,7.328,0,0,1-3.327,5.739c-1.838,1.062-3.328.212-3.328-1.9a7.332,7.332,0,0,1,3.328-5.739C555.487,213.546,556.975,214.395,556.975,216.5Z" transform="translate(-533.154 -204.177)" fill="#0b261f"/>
          <path id="Path_126773" data-name="Path 126773" d="M550.738,212.88a7.334,7.334,0,0,1-3.328,5.74c-1.838,1.061-3.328.212-3.328-1.9a7.332,7.332,0,0,1,3.328-5.74C549.248,209.922,550.738,210.771,550.738,212.88Z" transform="translate(-518.331 -205.54)" fill="#0b261f"/>
          <path id="Path_126774" data-name="Path 126774" d="M544.5,209.256A7.333,7.333,0,0,1,541.17,215c-1.838,1.061-3.327.212-3.327-1.9a7.333,7.333,0,0,1,3.327-5.74C543.008,206.3,544.5,207.148,544.5,209.256Z" transform="translate(-503.509 -206.902)" fill="#0b261f"/>
        </g>
        <g id="Group_56801" data-name="Group 56801" transform="translate(14.854 16.213)">
          <path id="Path_126775" data-name="Path 126775" d="M568.7,223.8a7.334,7.334,0,0,1-3.328,5.74c-1.838,1.061-3.327.212-3.327-1.9a7.331,7.331,0,0,1,3.327-5.74C567.212,220.843,568.7,221.692,568.7,223.8Z" transform="translate(-562.047 -201.503)" fill="#b4ddc0"/>
          <path id="Path_126776" data-name="Path 126776" d="M562.465,220.177a7.332,7.332,0,0,1-3.329,5.74c-1.837,1.061-3.327.212-3.327-1.9a7.337,7.337,0,0,1,3.327-5.74C560.974,217.219,562.465,218.069,562.465,220.177Z" transform="translate(-547.226 -202.865)" fill="#b4ddc0"/>
          <path id="Path_126777" data-name="Path 126777" d="M556.227,216.554a7.332,7.332,0,0,1-3.329,5.739c-1.837,1.061-3.327.212-3.327-1.9a7.334,7.334,0,0,1,3.327-5.739C554.736,213.6,556.227,214.445,556.227,216.554Z" transform="translate(-532.405 -204.227)" fill="#b4ddc0"/>
          <path id="Path_126778" data-name="Path 126778" d="M549.988,212.93a7.337,7.337,0,0,1-3.327,5.74c-1.838,1.061-3.328.211-3.328-1.9a7.332,7.332,0,0,1,3.328-5.74C548.5,209.972,549.988,210.821,549.988,212.93Z" transform="translate(-517.583 -205.59)" fill="#b4ddc0"/>
          <path id="Path_126779" data-name="Path 126779" d="M543.75,209.306a7.334,7.334,0,0,1-3.327,5.74c-1.838,1.061-3.328.212-3.328-1.9a7.335,7.335,0,0,1,3.328-5.74C542.26,206.348,543.75,207.2,543.75,209.306Z" transform="translate(-502.762 -206.952)" fill="#b4ddc0"/>
        </g>
      </g>
      <g id="Group_56811" data-name="Group 56811" transform="translate(2 199.061)">
        <path id="Path_126787" data-name="Path 126787" d="M558.381,333.527l42.241-24.313c4.4-2.537,3.844-6.971-1.232-9.9h0c-5.075-2.931-21.865-2.947-26.26-.41l-37.449,21.611c-6.748,3.982-.068,9.446,5.552,12.3h0C546.309,335.746,553.986,336.064,558.381,333.527Z" transform="translate(-532.842 -224.654)" fill="#92b4d1" opacity="0.2"/>
        <path id="Path_126788" data-name="Path 126788" d="M533.253,292.674,594.326,269.9v45.3c.2,1.471-.581,2.9-2.385,3.945l-41.3,23.918c-3.577,2.065-9.826,1.807-13.958-.578h0c-2.185-1.262-3.339-2.866-3.412-4.4l-.021.008Z" transform="translate(-524.176 -234.864)" fill="#b4ddc0"/>
        <path id="Path_126789" data-name="Path 126789" d="M550.627,299.27l41.3-23.918c3.579-2.065,3.129-5.673-1-8.059h0c-4.131-2.385-10.38-2.643-13.958-.578l-41.3,23.918c-3.578,2.065-3.129,5.673,1,8.059h0C540.8,301.076,547.049,301.335,550.627,299.27Z" transform="translate(-524.159 -236.584)" fill="#a2d5b1"/>
        <path id="Path_126790" data-name="Path 126790" d="M536.66,296.406c4.132,2.384,10.38,2.645,13.958.579l41.3-23.918a4.27,4.27,0,0,0,2.391-3.192c.172,1.45-.61,2.861-2.391,3.888l-41.3,23.918c-3.577,2.065-9.826,1.807-13.958-.578-2.406-1.39-3.553-3.194-3.392-4.867C533.441,293.7,534.585,295.207,536.66,296.406Z" transform="translate(-524.149 -234.872)" fill="#fff"/>
        <g id="Group_56810" data-name="Group 56810" transform="translate(18.498 0)">
          <path id="Path_126791" data-name="Path 126791" d="M556.622,246.771h0a17.3,17.3,0,0,1,25.938,14.992v18.764h0c0,.014,0,.026,0,.026,0,1.84-2.543,3.32-5.679,3.32s-5.68-1.48-5.68-3.306c0-.022.005-.043.005-.065h-.061V264.184a7.332,7.332,0,0,0-10.984-6.357h0a18.286,18.286,0,0,0-9.175,15.854V298.7h-.061c-.062,1.8-2.576,3.24-5.673,3.24-3.118,0-5.646-1.463-5.676-3.275h0v-22.4A34.039,34.039,0,0,1,556.622,246.771Z" transform="translate(-539.575 -244.436)" fill="#00ab7a"/>
          <g id="Group_56808" data-name="Group 56808" transform="translate(7.427 10.469)">
            <path id="Path_126792" data-name="Path 126792" d="M567.367,252.574a10.71,10.71,0,0,1,1.059-.53,19.932,19.932,0,0,0-8.8,16.5V297.9a6.892,6.892,0,0,1-2.218.812V269.8A19.93,19.93,0,0,1,567.367,252.574Z" transform="translate(-557.413 -252.044)" fill="#25cc9c"/>
          </g>
          <g id="Group_56809" data-name="Group 56809" transform="translate(28.387 7.989)">
            <path id="Path_126793" data-name="Path 126793" d="M543.53,250.242a9.3,9.3,0,0,1,9.295,9.294v19.6l.059,2.034c.043.171-3.18-.092-3.256-.391l-.059-2.034v-19.6A9.312,9.312,0,0,0,543,250.258C543.177,250.249,543.353,250.242,543.53,250.242Z" transform="translate(-543.001 -250.242)" fill="#00846c"/>
          </g>
          <path id="Path_126794" data-name="Path 126794" d="M549.44,247.874a17.962,17.962,0,0,0-8.446,2.119,31.922,31.922,0,0,1,3.13-2.063,15.123,15.123,0,0,1,7.635-2.075,15.409,15.409,0,0,1,15.375,15.375v.041A18.567,18.567,0,0,0,549.44,247.874Z" transform="translate(-526.102 -243.902)" fill="#25cc9c"/>
          <path id="Path_126795" data-name="Path 126795" d="M570.665,272.388l0,21.957a7.043,7.043,0,0,1-2.841-.988,1.864,1.864,0,0,1-.2-.769l0-22.4C567.628,260.506,570.665,262.518,570.665,272.388Z" transform="translate(-566.282 -237.129)" fill="#00846c"/>
        </g>
        <path id="Path_126796" data-name="Path 126796" d="M547.628,298.669a12.343,12.343,0,0,1,5.6-9.659c3.093-1.785,5.6-.355,5.6,3.194A12.184,12.184,0,0,1,556,299.419V310.66l-5.537,3.2V302.615C548.77,302.486,547.628,301.062,547.628,298.669Z" transform="translate(-508.426 -227.967)" fill="#00846c"/>
        <path id="Path_126797" data-name="Path 126797" d="M552.2,310.228V298.986a12.183,12.183,0,0,0,2.832-7.215,4,4,0,0,0-1.469-3.48c1.471.31,2.435,1.694,2.435,3.894a12.183,12.183,0,0,1-2.832,7.215v11.241l-5.537,3.2v-.973Z" transform="translate(-505.594 -227.949)" fill="#001a46"/>
      </g>
    </g>
  </g>
</svg>
