<svg xmlns="http://www.w3.org/2000/svg" xmlns:xlink="http://www.w3.org/1999/xlink" width="588" height="437" viewBox="0 0 588 437">
  <defs>
    <clipPath id="clip-path">
      <rect id="Rectangle_14102" data-name="Rectangle 14102" width="221" height="298.501" transform="translate(0 0)" fill="none" stroke="#96a78c" stroke-width="1"/>
    </clipPath>
    <linearGradient id="linear-gradient" x1="0.913" y1="0.521" x2="-0.244" y2="0.349" gradientUnits="objectBoundingBox">
      <stop offset="0.056" stop-color="#92a3b0"/>
      <stop offset="1" stop-color="#fff"/>
    </linearGradient>
    <linearGradient id="linear-gradient-2" x1="0.914" y1="0.52" x2="-0.229" y2="0.351" xlink:href="#linear-gradient"/>
    <linearGradient id="linear-gradient-3" x1="0.915" y1="0.518" x2="-0.215" y2="0.353" xlink:href="#linear-gradient"/>
    <linearGradient id="linear-gradient-4" x1="0.915" y1="0.517" x2="-0.2" y2="0.355" xlink:href="#linear-gradient"/>
    <linearGradient id="linear-gradient-5" x1="0.916" y1="0.516" x2="-0.185" y2="0.357" xlink:href="#linear-gradient"/>
    <linearGradient id="linear-gradient-6" x1="0.917" y1="0.515" x2="-0.17" y2="0.359" xlink:href="#linear-gradient"/>
  </defs>
  <g id="PrivacyPolicyImg2" transform="translate(-240 -1117)">
    <rect id="Rectangle_11319" data-name="Rectangle 11319" width="588" height="437" transform="translate(240 1117)" fill="#f1f3f5" opacity="0"/>
    <g id="ArtShape" transform="translate(469.426 1175.938) rotate(90)" opacity="0.5">
      <g id="Pattern01" transform="translate(298.501 7.425) rotate(90)" clip-path="url(#clip-path)">
        <g id="Group_56264" data-name="Group 56264" transform="translate(0 0.726)">
          <line id="Line_1025" data-name="Line 1025" x2="216.173" transform="translate(0 152.408)" fill="none" stroke="#96a78c" stroke-linecap="round" stroke-miterlimit="10" stroke-width="1.319"/>
          <line id="Line_1026" data-name="Line 1026" x2="105.965" transform="translate(110.213 200.709)" fill="none" stroke="#96a78c" stroke-linecap="round" stroke-miterlimit="10" stroke-width="1.319"/>
          <line id="Line_1027" data-name="Line 1027" x2="27.196" transform="translate(188.977 184.621)" fill="none" stroke="#96a78c" stroke-linecap="round" stroke-miterlimit="10" stroke-width="3.958"/>
          <path id="Path_124842" data-name="Path 124842" d="M0,8.044H216.173M83.748,0H188.977" transform="translate(0 184.621)" fill="none" stroke="#96a78c" stroke-linecap="round" stroke-miterlimit="10" stroke-width="1.319"/>
          <line id="Line_1028" data-name="Line 1028" x2="216.173" transform="translate(0 176.473)" fill="none" stroke="#96a78c" stroke-linecap="round" stroke-miterlimit="10" stroke-width="1.319"/>
          <line id="Line_1029" data-name="Line 1029" x2="80.527" transform="translate(62.586 168.595)" fill="none" stroke="#96a78c" stroke-linecap="round" stroke-miterlimit="10" stroke-width="1.319"/>
          <line id="Line_1030" data-name="Line 1030" x2="31.69" transform="translate(30.896 168.595)" fill="none" stroke="#96a78c" stroke-linecap="round" stroke-miterlimit="10" stroke-width="3.958"/>
          <line id="Line_1031" data-name="Line 1031" x2="30.896" transform="translate(0 168.595)" fill="none" stroke="#96a78c" stroke-linecap="round" stroke-miterlimit="10" stroke-width="1.319"/>
          <path id="Path_124843" data-name="Path 124843" d="M46.416,0h65.549M36.97,8.029H192.647M0,24.2H216.173" transform="translate(0 136.482)" fill="none" stroke="#96a78c" stroke-linecap="round" stroke-miterlimit="10" stroke-width="1.319"/>
          <line id="Line_1032" data-name="Line 1032" x2="104.21" transform="translate(111.964 136.482)" fill="none" stroke="#96a78c" stroke-linecap="round" stroke-miterlimit="10" stroke-width="3.958"/>
          <path id="Path_124844" data-name="Path 124844" d="M0,8.276H160.156M0,0H216.173" transform="translate(0 120.322)" fill="none" stroke="#96a78c" stroke-linecap="round" stroke-miterlimit="10" stroke-width="1.319"/>
          <line id="Line_1033" data-name="Line 1033" x2="110.843" transform="translate(62.586 112.397)" fill="none" stroke="#96a78c" stroke-linecap="round" stroke-miterlimit="10" stroke-width="1.319"/>
          <path id="Path_124845" data-name="Path 124845" d="M0,8.118H62.659M0,0H216.173" transform="translate(0 104.279)" fill="none" stroke="#96a78c" stroke-linecap="round" stroke-miterlimit="10" stroke-width="1.319"/>
          <path id="Path_124846" data-name="Path 124846" d="M0,0H141.5M35.358,16.057H214.565" transform="translate(1.612 80.283)" fill="none" stroke="#96a78c" stroke-linecap="round" stroke-miterlimit="10" stroke-width="1.319"/>
          <path id="Path_124847" data-name="Path 124847" d="M88.491,8.276H204.123M0,0H200.988" transform="translate(7.593 64.172)" fill="none" stroke="#96a78c" stroke-linecap="round" stroke-miterlimit="10" stroke-width="1.319"/>
          <line id="Line_1034" data-name="Line 1034" x2="91.626" transform="translate(4.457 72.447)" fill="none" stroke="#96a78c" stroke-linecap="round" stroke-miterlimit="10" stroke-width="3.958"/>
          <line id="Line_1035" data-name="Line 1035" x2="77.597" transform="translate(126.149 56.198)" fill="none" stroke="#96a78c" stroke-linecap="round" stroke-miterlimit="10" stroke-width="1.319"/>
          <path id="Path_124848" data-name="Path 124848" d="M84.32,0h99.209M0,8.028H84.37" transform="translate(12.428 48.17)" fill="none" stroke="#96a78c" stroke-linecap="round" stroke-miterlimit="10" stroke-width="1.319"/>
          <line id="Line_1036" data-name="Line 1036" x2="154.383" transform="translate(30.896 40.142)" fill="none" stroke="#96a78c" stroke-linecap="round" stroke-miterlimit="10" stroke-width="1.319"/>
          <line id="Line_1037" data-name="Line 1037" x2="22.486" transform="translate(96.873 8.021)" fill="none" stroke="#96a78c" stroke-linecap="round" stroke-miterlimit="10" stroke-width="3.958"/>
          <line id="Line_1038" data-name="Line 1038" x2="48.739" transform="translate(83.746 16.127)" fill="none" stroke="#96a78c" stroke-linecap="round" stroke-miterlimit="10" stroke-width="1.319"/>
          <line id="Line_1039" data-name="Line 1039" x2="82.412" transform="translate(66.91 24.233)" fill="none" stroke="#96a78c" stroke-linecap="round" stroke-miterlimit="10" stroke-width="1.319"/>
          <line id="Line_1040" data-name="Line 1040" x2="87.007" transform="translate(46.364 32.085)" fill="none" stroke="#96a78c" stroke-linecap="round" stroke-miterlimit="10" stroke-width="1.319"/>
          <line id="Line_1041" data-name="Line 1041" x2="4.751" transform="translate(105.711 0)" fill="none" stroke="#96a78c" stroke-linecap="round" stroke-miterlimit="10" stroke-width="3.958"/>
          <line id="Line_1042" data-name="Line 1042" x2="214.801" transform="translate(0.687 208.737)" fill="none" stroke="#96a78c" stroke-linecap="round" stroke-miterlimit="10" stroke-width="1.319"/>
          <line id="Line_1043" data-name="Line 1043" x2="160.587" transform="translate(51.13 224.856)" fill="none" stroke="#96a78c" stroke-linecap="round" stroke-miterlimit="10" stroke-width="1.319"/>
          <path id="Path_124849" data-name="Path 124849" d="M5.973,16.242h201M0,0H130.814" transform="translate(1.615 216.58)" fill="none" stroke="#96a78c" stroke-linecap="round" stroke-miterlimit="10" stroke-width="1.319"/>
          <path id="Path_124850" data-name="Path 124850" d="M66.67,8.029H107M0,0H130.685" transform="translate(12.428 240.851)" fill="none" stroke="#96a78c" stroke-linecap="round" stroke-miterlimit="10" stroke-width="1.319"/>
          <line id="Line_1044" data-name="Line 1044" x2="154.366" transform="translate(30.916 256.942)" fill="none" stroke="#96a78c" stroke-linecap="round" stroke-miterlimit="10" stroke-width="1.319"/>
          <line id="Line_1045" data-name="Line 1045" x2="50.638" transform="translate(46.364 264.936)" fill="none" stroke="#96a78c" stroke-linecap="round" stroke-miterlimit="10" stroke-width="1.319"/>
          <line id="Line_1046" data-name="Line 1046" x2="82.463" transform="translate(66.859 272.964)" fill="none" stroke="#96a78c" stroke-linecap="round" stroke-miterlimit="10" stroke-width="1.319"/>
          <line id="Line_1047" data-name="Line 1047" x2="22.548" transform="translate(96.816 289.028)" fill="none" stroke="#96a78c" stroke-linecap="round" stroke-miterlimit="10" stroke-width="1.319"/>
          <line id="Line_1048" data-name="Line 1048" x2="48.873" transform="translate(83.653 280.753)" fill="none" stroke="#96a78c" stroke-linecap="round" stroke-miterlimit="10" stroke-width="1.319"/>
          <line id="Line_1049" data-name="Line 1049" x2="110.462" transform="translate(0 200.709)" fill="none" stroke="#96a78c" stroke-linecap="round" stroke-miterlimit="10" stroke-width="3.958"/>
          <line id="Line_1050" data-name="Line 1050" x2="55.741" transform="translate(28.168 184.652)" fill="none" stroke="#96a78c" stroke-linecap="round" stroke-miterlimit="10" stroke-width="3.958"/>
          <line id="Line_1051" data-name="Line 1051" x2="28.185" transform="translate(0 184.652)" fill="none" stroke="#96a78c" stroke-linecap="round" stroke-miterlimit="10" stroke-width="1.319"/>
          <path id="Path_124851" data-name="Path 124851" d="M0,0H37.22M192.393,0h23.783M142.86,24.085h73.314" transform="translate(0 144.51)" fill="none" stroke="#96a78c" stroke-linecap="round" stroke-miterlimit="10" stroke-width="3.958"/>
          <path id="Path_124852" data-name="Path 124852" d="M109.472,56.329h67.843M0,0H67.843" transform="translate(18.369 152.408)" fill="none" stroke="#96a78c" stroke-linecap="round" stroke-miterlimit="10" stroke-width="3.958"/>
          <line id="Line_1052" data-name="Line 1052" x2="46.414" transform="translate(0.001 136.482)" fill="none" stroke="#96a78c" stroke-linecap="round" stroke-miterlimit="10" stroke-width="3.958"/>
          <line id="Line_1053" data-name="Line 1053" x2="56.24" transform="translate(159.936 128.598)" fill="none" stroke="#96a78c" stroke-linecap="round" stroke-miterlimit="10" stroke-width="3.958"/>
          <line id="Line_1054" data-name="Line 1054" x2="42.998" transform="translate(173.176 112.397)" fill="none" stroke="#96a78c" stroke-linecap="round" stroke-miterlimit="10" stroke-width="3.958"/>
          <path id="Path_124853" data-name="Path 124853" d="M46.169,0H71.534M0,0H46.169" transform="translate(143.028 80.214)" fill="none" stroke="#96a78c" stroke-linecap="round" stroke-miterlimit="10" stroke-width="3.958"/>
          <line id="Line_1055" data-name="Line 1055" x2="60.453" transform="translate(155.035 88.363)" fill="none" stroke="#96a78c" stroke-linecap="round" stroke-miterlimit="10" stroke-width="1.319"/>
          <line id="Line_1056" data-name="Line 1056" x2="42.108" transform="translate(112.927 88.363)" fill="none" stroke="#96a78c" stroke-linecap="round" stroke-miterlimit="10" stroke-width="3.958"/>
          <line id="Line_1057" data-name="Line 1057" x2="112.24" transform="translate(0.687 88.363)" fill="none" stroke="#96a78c" stroke-linecap="round" stroke-miterlimit="10" stroke-width="1.319"/>
          <line id="Line_1058" data-name="Line 1058" x2="37.01" transform="translate(0 96.34)" fill="none" stroke="#96a78c" stroke-linecap="round" stroke-miterlimit="10" stroke-width="3.958"/>
          <line id="Line_1059" data-name="Line 1059" x2="76.778" transform="translate(20.225 48.17)" fill="none" stroke="#96a78c" stroke-linecap="round" stroke-miterlimit="10" stroke-width="3.958"/>
          <line id="Line_1060" data-name="Line 1060" x2="69.455" transform="translate(132.43 216.581)" fill="none" stroke="#96a78c" stroke-linecap="round" stroke-miterlimit="10" stroke-width="3.958"/>
          <line id="Line_1061" data-name="Line 1061" x2="12.682" transform="translate(201.884 216.581)" fill="none" stroke="#96a78c" stroke-linecap="round" stroke-miterlimit="10" stroke-width="1.319"/>
          <line id="Line_1062" data-name="Line 1062" x2="46.863" transform="translate(4.457 224.856)" fill="none" stroke="#96a78c" stroke-linecap="round" stroke-miterlimit="10" stroke-width="3.958"/>
          <line id="Line_1063" data-name="Line 1063" x2="46.863" transform="translate(62.668 240.851)" fill="none" stroke="#96a78c" stroke-linecap="round" stroke-miterlimit="10" stroke-width="3.958"/>
          <line id="Line_1064" data-name="Line 1064" x2="60.886" transform="translate(142.86 240.851)" fill="none" stroke="#96a78c" stroke-linecap="round" stroke-miterlimit="10" stroke-width="3.958"/>
          <line id="Line_1065" data-name="Line 1065" x2="76.778" transform="translate(119.175 248.879)" fill="none" stroke="#96a78c" stroke-linecap="round" stroke-miterlimit="10" stroke-width="3.958"/>
          <line id="Line_1066" data-name="Line 1066" x2="58.966" transform="translate(20.225 248.879)" fill="none" stroke="#96a78c" stroke-linecap="round" stroke-miterlimit="10" stroke-width="3.958"/>
          <line id="Line_1067" data-name="Line 1067" x2="4.751" transform="translate(105.711 297.049)" fill="none" stroke="#96a78c" stroke-linecap="round" stroke-miterlimit="10" stroke-width="3.958"/>
          <line id="Line_1068" data-name="Line 1068" x2="73.07" transform="translate(96.749 264.936)" fill="none" stroke="#96a78c" stroke-linecap="round" stroke-miterlimit="10" stroke-width="3.958"/>
          <path id="Path_124854" data-name="Path 124854" d="M0,72.166H71.142M88.783,0h36.662" transform="translate(44.37 32.113)" fill="none" stroke="#96a78c" stroke-linecap="round" stroke-miterlimit="10" stroke-width="3.958"/>
          <line id="Line_1069" data-name="Line 1069" x2="29.858" transform="translate(96.545 56.198)" fill="none" stroke="#96a78c" stroke-linecap="round" stroke-miterlimit="10" stroke-width="3.958"/>
        </g>
      </g>
    </g>
    <g id="Group_56818" data-name="Group 56818" transform="translate(343 1164.802)">
      <g id="Group_56781" data-name="Group 56781" transform="translate(20.637 0)">
        <g id="Group_56780" data-name="Group 56780">
          <path id="Path_126627" data-name="Path 126627" d="M497.49,387.588l173.043-99.906c6.833-3.945,5.976-10.836-1.915-15.392l-98.2-56.7c-7.891-4.557-19.827-5.05-26.66-1.105L370.712,314.393c-6.833,3.945-5.977,10.836,1.913,15.391l98.2,56.7C478.722,391.039,490.656,391.533,497.49,387.588Z" transform="translate(-358.454 -36.573)" fill="#92b4d1" opacity="0.2"/>
          <path id="Path_126628" data-name="Path 126628" d="M497.516,383.3l173.043-99.906c3.044-1.758,4.563-4.1,4.611-6.561,0-.079,0-8.494,0-8.573-.054-2.99-2.264,2.2-6.525-.257l-98.2-56.7c-7.89-4.557-19.827-5.05-26.66-1.105L370.739,310.1c-2.281,1.317-3.936-4.273-4.527-2.5-.2.593-.071,8.435-.085,9.05-.065,3.063,2.147,6.31,6.525,8.838l98.2,56.7C478.749,386.749,490.683,387.243,497.516,383.3Z" transform="translate(-358.481 -38.923)" fill="#d6bd81"/>
          <path id="Path_126629" data-name="Path 126629" d="M497.49,377.862l173.043-99.9c6.833-3.947,5.976-10.837-1.915-15.392l-98.2-56.7c-7.891-4.555-19.827-5.05-26.66-1.105L370.712,304.667c-6.833,3.945-5.977,10.836,1.913,15.392l98.2,56.7C478.722,381.313,490.656,381.808,497.49,377.862Z" transform="translate(-358.454 -41.9)" fill="#d6bd81"/>
          <path id="Path_126630" data-name="Path 126630" d="M507.542,324.464c-6.833,3.947-18.77,3.451-26.66-1.105v-8.414c7.89,4.557,19.827,5.052,26.66,1.107Z" transform="translate(-368.506 19.911)" fill="#f5e5c4" opacity="0.5"/>
          <path id="Path_126631" data-name="Path 126631" d="M366.1,353.562l173.041-99.906c3.3-1.908,4.793-4.506,4.577-7.194a3.445,3.445,0,0,1,.036.472c0,.079,0,8.494,0,8.573-.048,2.461-1.566,4.8-4.612,6.561L366.1,361.974Z" transform="translate(-227.064 -17.6)" fill="#d6bd81"/>
          <path id="Path_126632" data-name="Path 126632" d="M372.607,294.432l98.206,56.7c7.889,4.557,19.825,5.05,26.658,1.1L670.514,252.33c2.834-1.636,4.326-3.781,4.56-6.055.356,2.791-1.136,5.507-4.56,7.485l-173.043,99.9c-6.833,3.947-18.77,3.451-26.658-1.105l-98.206-56.7c-4.617-2.667-6.805-6.129-6.474-9.336C366.485,289.305,368.671,292.159,372.607,294.432Z" transform="translate(-358.435 -17.702)" fill="#fff"/>
          <path id="Path_126633" data-name="Path 126633" d="M444.214,311.641,505.8,276.086c1.234-.714,1.079-1.956-.345-2.778l-23.122-13.349a5.347,5.347,0,0,0-4.81-.2l-61.585,35.556c-1.234.712-1.079,1.955.345,2.777L439.4,311.441A5.342,5.342,0,0,0,444.214,311.641Z" transform="translate(-265.788 -10.58)" fill="#fff" opacity="0.3"/>
          <path id="Path_126634" data-name="Path 126634" d="M505.451,274.768l-23.122-13.349a5.347,5.347,0,0,0-4.81-.2l-61.585,35.556a1.863,1.863,0,0,0-.57.5,1.288,1.288,0,0,1,.57-1.959l61.585-35.556a5.347,5.347,0,0,1,4.81.2l23.122,13.349c1.133.653,1.447,1.571.915,2.278A2.7,2.7,0,0,0,505.451,274.768Z" transform="translate(-265.785 -10.58)" fill="#a8cff0"/>
          <path id="Path_126635" data-name="Path 126635" d="M573.147,213.314l-10.613,6.128a5.384,5.384,0,0,1-4.872.009c-1.342-.775-1.334-2.034.016-2.814l10.613-6.128a5.389,5.389,0,0,1,4.872-.009C574.5,211.276,574.5,212.534,573.147,213.314Zm-18.172,10.492-5.027,2.9a5.389,5.389,0,0,1-4.872.009c-1.342-.775-1.334-2.034.016-2.814l5.027-2.9a5.384,5.384,0,0,1,4.872-.009C556.332,221.766,556.325,223.026,554.975,223.806Zm-12.586,7.265-5.027,2.9a5.384,5.384,0,0,1-4.872.008c-1.34-.774-1.334-2.034.016-2.812l5.027-2.9a5.384,5.384,0,0,1,4.872-.009C543.746,229.033,543.74,230.293,542.389,231.072ZM529.8,238.338l-5.029,2.9a5.384,5.384,0,0,1-4.872.008c-1.34-.774-1.334-2.034.016-2.812l5.027-2.9a5.392,5.392,0,0,1,4.874-.008C531.16,236.3,531.154,237.56,529.8,238.338ZM517.218,245.6l-5.027,2.9a5.384,5.384,0,0,1-4.872.008c-1.342-.774-1.336-2.034.014-2.812l5.029-2.9a5.384,5.384,0,0,1,4.872-.008C518.574,243.566,518.567,244.826,517.218,245.6Zm-12.586,7.267-5.027,2.9a5.384,5.384,0,0,1-4.872.008c-1.342-.774-1.334-2.034.016-2.812l5.027-2.9a5.384,5.384,0,0,1,4.872-.008C505.989,250.833,505.981,252.093,504.631,252.872Zm-12.586,7.267-5.027,2.9a5.384,5.384,0,0,1-4.872.009c-1.342-.774-1.334-2.034.016-2.812l5.027-2.9a5.389,5.389,0,0,1,4.872-.009C493.4,258.1,493.395,259.36,492.045,260.138ZM479.46,267.4l-5.029,2.9a5.384,5.384,0,0,1-4.872.009c-1.34-.774-1.334-2.034.016-2.814l5.027-2.9a5.389,5.389,0,0,1,4.872-.009C480.816,265.366,480.81,266.625,479.46,267.4Zm-12.586,7.267-5.027,2.9a5.387,5.387,0,0,1-4.874.009c-1.34-.774-1.334-2.034.015-2.814l5.029-2.9a5.388,5.388,0,0,1,4.872-.009C468.23,272.633,468.224,273.891,466.874,274.672Zm-12.586,7.267-5.027,2.9a5.384,5.384,0,0,1-4.872.009c-1.342-.775-1.336-2.034.015-2.814l5.027-2.9a5.384,5.384,0,0,1,4.872-.009C455.644,279.9,455.637,281.158,454.288,281.938ZM441.7,289.2l-5.027,2.9a5.388,5.388,0,0,1-4.872.009c-1.342-.775-1.334-2.034.015-2.814l5.027-2.9a5.384,5.384,0,0,1,4.872-.009C443.059,287.165,443.051,288.425,441.7,289.2Zm-12.586,7.267-5.027,2.9a5.384,5.384,0,0,1-4.872.008c-1.342-.774-1.334-2.034.016-2.812l5.027-2.9a5.384,5.384,0,0,1,4.872-.009C430.473,294.432,430.465,295.692,429.115,296.472Zm-12.848,7.417-5.027,2.9a5.384,5.384,0,0,1-4.872.009c-1.34-.774-1.334-2.034.015-2.812l5.027-2.9a5.384,5.384,0,0,1,4.872-.008C417.625,301.85,417.619,303.11,416.267,303.888Zm168.2-83.65-4.352,2.514a6.126,6.126,0,0,1-5.546.009l-4.326-2.5c-1.526-.881-1.518-2.315.018-3.2l4.352-2.512a6.131,6.131,0,0,1,5.546-.011l4.324,2.5C586.01,217.919,586,219.352,584.467,220.239Zm-22.484,9.789-4.324-2.5c-1.528-.882-1.52-2.315.017-3.2l4.352-2.512a6.131,6.131,0,0,1,5.545-.011l4.325,2.5c1.527.881,1.52,2.314-.017,3.2l-4.352,2.514A6.126,6.126,0,0,1,561.983,230.028Zm-2.688,4.744-4.352,2.514a6.127,6.127,0,0,1-5.546.009l-4.324-2.5c-1.526-.882-1.518-2.315.017-3.2l4.352-2.512a6.131,6.131,0,0,1,5.545-.011l4.326,2.5C560.839,232.452,560.832,233.885,559.295,234.772Zm-12.585,7.267-4.354,2.514a6.128,6.128,0,0,1-5.544.009l-4.326-2.5c-1.526-.882-1.518-2.315.017-3.2l4.352-2.514a6.131,6.131,0,0,1,5.545-.009l4.326,2.5C548.253,239.719,548.245,241.152,546.71,242.039Zm-26.791,4.091,4.352-2.514a6.128,6.128,0,0,1,5.544-.009l4.326,2.5c1.526.882,1.518,2.315-.017,3.2l-4.352,2.514a6.131,6.131,0,0,1-5.546.009l-4.326-2.5C518.374,248.45,518.382,247.016,519.919,246.13ZM507.332,253.4l4.352-2.513a6.126,6.126,0,0,1,5.546-.009l4.324,2.5c1.528.882,1.518,2.315-.017,3.2l-4.352,2.512a6.131,6.131,0,0,1-5.546.011l-4.326-2.5C505.788,255.716,505.8,254.283,507.332,253.4Zm-12.586,7.267,4.352-2.513a6.127,6.127,0,0,1,5.546-.009l4.324,2.5c1.528.882,1.52,2.315-.017,3.2l-4.352,2.512a6.131,6.131,0,0,1-5.546.011l-4.324-2.5C493.2,262.983,493.209,261.55,494.746,260.663ZM482.16,267.93l4.352-2.514a6.126,6.126,0,0,1,5.546-.009l4.326,2.5c1.526.881,1.518,2.315-.018,3.2l-4.352,2.512a6.131,6.131,0,0,1-5.546.011l-4.324-2.5C480.617,270.25,480.624,268.816,482.16,267.93Zm-12.586,7.265,4.352-2.512a6.126,6.126,0,0,1,5.546-.009l4.326,2.5c1.526.881,1.518,2.315-.017,3.2l-4.352,2.514a6.131,6.131,0,0,1-5.546.011l-4.326-2.5C468.03,277.516,468.038,276.082,469.573,275.195Zm-12.585,7.267,4.352-2.512a6.131,6.131,0,0,1,5.546-.011l4.324,2.5c1.526.881,1.518,2.314-.017,3.2l-4.352,2.514a6.126,6.126,0,0,1-5.546.009l-4.326-2.5C455.444,284.783,455.452,283.348,456.989,282.461Zm1.619,10.443-4.352,2.514a6.126,6.126,0,0,1-5.546.009l-4.324-2.5c-1.528-.881-1.52-2.315.017-3.2l4.352-2.512a6.131,6.131,0,0,1,5.546-.011l4.324,2.5C460.152,290.584,460.144,292.017,458.608,292.9Zm-26.792,4.091,4.352-2.512a6.131,6.131,0,0,1,5.546-.011l4.326,2.5c1.526.881,1.518,2.314-.019,3.2l-4.352,2.513a6.126,6.126,0,0,1-5.546.009l-4.324-2.5C430.273,299.315,430.281,297.882,431.816,296.995Zm-18.434,10.644,9.938-5.739a6.127,6.127,0,0,1,5.546-.009l4.326,2.5c1.526.882,1.518,2.315-.019,3.2l-9.938,5.738a6.126,6.126,0,0,1-5.546.009l-4.324-2.5C411.838,309.959,411.846,308.524,413.382,307.639ZM596.125,226.97l-9.938,5.738a6.131,6.131,0,0,1-5.546.011l-4.326-2.5c-1.526-.881-1.518-2.314.017-3.2l9.94-5.739a6.123,6.123,0,0,1,5.544-.009l4.326,2.5C597.668,224.65,597.66,226.083,596.125,226.97Zm-18.172,10.492-4.352,2.512a6.126,6.126,0,0,1-5.545.009l-4.326-2.5c-1.526-.881-1.518-2.314.018-3.2l4.352-2.514a6.131,6.131,0,0,1,5.546-.011l4.324,2.5C579.5,235.141,579.488,236.574,577.953,237.462Zm-16.939,9.779a6.126,6.126,0,0,1-5.545.009l-4.324-2.5c-1.528-.881-1.52-2.315.017-3.2l4.352-2.514a6.131,6.131,0,0,1,5.546-.011l4.325,2.5c1.528.881,1.52,2.314-.017,3.2Zm-12.586,7.267a6.127,6.127,0,0,1-5.546.009l-4.324-2.5c-1.526-.882-1.518-2.315.017-3.2l4.352-2.512a6.131,6.131,0,0,1,5.546-.011l4.326,2.5c1.526.881,1.518,2.314-.019,3.2Zm-12.541-.946,4.326,2.5c1.526.881,1.518,2.314-.017,3.2l-4.354,2.514a6.123,6.123,0,0,1-5.544.009l-4.326-2.5c-1.526-.882-1.518-2.315.017-3.2l4.352-2.512A6.131,6.131,0,0,1,535.887,253.562Zm-12.851,7.113,4.857,2.8c1.379.8,1.373,2.091-.016,2.893l-4.888,2.823a5.541,5.541,0,0,1-5.012.008l-4.858-2.8c-1.379-.8-1.371-2.091.017-2.893l4.886-2.822A5.54,5.54,0,0,1,523.036,260.675Zm-12.586,7.267,4.857,2.8c1.379.8,1.373,2.091-.016,2.893l-4.888,2.822a5.536,5.536,0,0,1-5.012.009l-4.857-2.8c-1.381-.8-1.373-2.091.016-2.893l4.888-2.822A5.536,5.536,0,0,1,510.449,267.942Zm-12.586,7.267,4.857,2.8c1.381.8,1.373,2.093-.016,2.894l-4.888,2.822a5.537,5.537,0,0,1-5.012.009l-4.857-2.8c-1.381-.8-1.373-2.091.015-2.893l4.888-2.822A5.536,5.536,0,0,1,497.863,275.209Zm-12.586,7.267,4.857,2.8c1.381.8,1.373,2.093-.016,2.894l-4.888,2.822a5.537,5.537,0,0,1-5.012.009l-4.857-2.8c-1.379-.8-1.373-2.091.016-2.893l4.888-2.823A5.541,5.541,0,0,1,485.277,282.475ZM472.69,289.74l4.858,2.8c1.379.8,1.373,2.093-.016,2.894l-4.888,2.822a5.539,5.539,0,0,1-5.013.009l-4.857-2.8c-1.379-.8-1.373-2.093.016-2.893l4.888-2.823A5.541,5.541,0,0,1,472.69,289.74Zm-17.643,15.8-4.858-2.8c-1.379-.8-1.371-2.093.017-2.894l4.888-2.822a5.541,5.541,0,0,1,5.012-.009l4.857,2.8c1.379.8,1.373,2.092-.015,2.894l-4.888,2.822A5.541,5.541,0,0,1,455.048,305.537ZM442.461,312.8,437.6,310c-1.381-.8-1.373-2.093.016-2.894l4.888-2.822a5.541,5.541,0,0,1,5.012-.009l4.857,2.8c1.379.8,1.373,2.093-.016,2.894l-4.888,2.822A5.541,5.541,0,0,1,442.461,312.8Zm-17.689,1.72,4.888-2.822a5.537,5.537,0,0,1,5.012-.009l4.857,2.8c1.381.8,1.373,2.091-.015,2.893l-4.888,2.822a5.537,5.537,0,0,1-5.012.009l-4.857-2.8C423.376,316.62,423.384,315.325,424.772,314.523ZM608.05,233.546l-15.781,9.11a5.536,5.536,0,0,1-5.012.009l-4.858-2.8c-1.379-.8-1.371-2.093.017-2.893l15.779-9.112a5.541,5.541,0,0,1,5.012-.009l4.858,2.8C609.445,231.449,609.439,232.745,608.05,233.546ZM584.571,247.1l-4.888,2.822a5.536,5.536,0,0,1-5.012.009l-4.857-2.8c-1.381-.8-1.373-2.093.016-2.894l4.888-2.822a5.541,5.541,0,0,1,5.012-.009l4.857,2.8C585.966,245,585.959,246.3,584.571,247.1Zm-12.586,7.267L567.1,257.19a5.541,5.541,0,0,1-5.012.009l-4.857-2.8c-1.379-.8-1.373-2.093.015-2.894l4.888-2.822a5.541,5.541,0,0,1,5.012-.009l4.857,2.8C573.381,252.271,573.373,253.566,571.985,254.368ZM559.4,261.635l-4.888,2.822a5.541,5.541,0,0,1-5.012.009l-4.857-2.8c-1.379-.8-1.373-2.093.016-2.894l4.888-2.822a5.541,5.541,0,0,1,5.012-.009l4.858,2.8C560.795,259.538,560.787,260.833,559.4,261.635Zm-22.484,10.1-4.858-2.8c-1.379-.8-1.373-2.093.016-2.894l4.888-2.822a5.54,5.54,0,0,1,5.013-.009l4.857,2.8c1.379.8,1.373,2.093-.016,2.893l-4.888,2.823A5.541,5.541,0,0,1,536.914,271.732ZM524.328,279l-4.857-2.8c-1.381-.8-1.373-2.091.016-2.893l4.888-2.822a5.536,5.536,0,0,1,5.012-.009l4.857,2.8c1.379.8,1.373,2.091-.016,2.893l-4.888,2.823A5.541,5.541,0,0,1,524.328,279Zm-12.586,7.267-4.857-2.8c-1.381-.8-1.373-2.091.016-2.893l4.888-2.822a5.536,5.536,0,0,1,5.012-.009l4.857,2.8c1.381.8,1.373,2.091-.016,2.893l-4.888,2.822A5.536,5.536,0,0,1,511.742,286.264Zm-12.586,7.267-4.857-2.8c-1.379-.8-1.373-2.091.015-2.893l4.888-2.822a5.536,5.536,0,0,1,5.012-.009l4.857,2.8c1.381.8,1.373,2.091-.015,2.893l-4.888,2.822A5.536,5.536,0,0,1,499.156,293.531ZM486.569,300.8l-4.857-2.8c-1.379-.8-1.373-2.091.016-2.893l4.888-2.823a5.536,5.536,0,0,1,5.012-.008l4.858,2.8c1.379.8,1.371,2.093-.017,2.894l-4.886,2.822A5.54,5.54,0,0,1,486.569,300.8Zm-12.585,7.267-4.858-2.8c-1.379-.8-1.371-2.093.017-2.894l4.888-2.822a5.541,5.541,0,0,1,5.012-.009l4.857,2.8c1.379.8,1.373,2.093-.015,2.894L479,308.055A5.536,5.536,0,0,1,473.984,308.064ZM471.3,312.5l-4.888,2.822a5.541,5.541,0,0,1-5.012.009l-4.857-2.8c-1.381-.8-1.373-2.093.016-2.894l4.888-2.822a5.541,5.541,0,0,1,5.012-.009l4.857,2.8C472.692,310.4,472.686,311.7,471.3,312.5Zm-34.868,8.753,12.428-7.175a5.541,5.541,0,0,1,5.012-.009l4.857,2.8c1.381.8,1.373,2.093-.015,2.894l-12.428,7.175a5.541,5.541,0,0,1-5.012.009l-4.857-2.8C435.034,323.35,435.042,322.054,436.43,321.253Zm183.229-80.628-22.39,12.927a6.259,6.259,0,0,1-5.662.011l-4.21-2.43c-1.558-.9-1.551-2.363.017-3.269l22.391-12.927a6.259,6.259,0,0,1,5.662-.011l4.21,2.43C621.236,238.256,621.226,239.719,619.658,240.624Zm-30.74,17.748-4.236,2.445a6.259,6.259,0,0,1-5.662.011l-4.21-2.43c-1.559-.9-1.551-2.363.018-3.269l4.236-2.445a6.255,6.255,0,0,1,5.66-.011l4.21,2.43C590.494,256,590.487,257.467,588.919,258.372Zm-12.586,7.267-4.236,2.445a6.259,6.259,0,0,1-5.662.011l-4.21-2.43c-1.557-.9-1.549-2.363.018-3.269l4.236-2.445a6.249,6.249,0,0,1,5.662-.011l4.208,2.43C577.908,263.269,577.9,264.733,576.332,265.639Zm-12.586,7.267-4.236,2.445a6.259,6.259,0,0,1-5.662.011l-4.208-2.432c-1.559-.9-1.551-2.363.017-3.267l4.236-2.447a6.254,6.254,0,0,1,5.662-.009l4.21,2.43C565.323,270.536,565.314,272,563.746,272.906Zm-12.586,7.267-4.236,2.445a6.256,6.256,0,0,1-5.66.011l-4.21-2.432c-1.559-.9-1.551-2.363.017-3.269l4.236-2.445a6.254,6.254,0,0,1,5.662-.009l4.21,2.43C552.737,277.8,552.729,279.267,551.16,280.172Zm-12.585,7.267-4.236,2.445a6.254,6.254,0,0,1-5.662.009l-4.21-2.43c-1.559-.9-1.551-2.363.018-3.269l4.235-2.445a6.254,6.254,0,0,1,5.662-.009l4.21,2.43C540.151,285.069,540.143,286.534,538.575,287.439Zm-12.586,7.267-4.236,2.445a6.254,6.254,0,0,1-5.662.009l-4.21-2.43c-1.559-.9-1.549-2.363.019-3.269l4.236-2.445a6.256,6.256,0,0,1,5.66-.011l4.21,2.431C527.564,292.336,527.557,293.8,525.989,294.706ZM513.4,301.972l-4.236,2.445a6.254,6.254,0,0,1-5.662.009L499.3,302c-1.559-.9-1.551-2.363.017-3.269l4.236-2.445a6.259,6.259,0,0,1,5.662-.011l4.21,2.431C514.978,299.6,514.97,301.065,513.4,301.972Zm-12.586,7.265-4.236,2.447a6.26,6.26,0,0,1-5.66.009l-4.21-2.43c-1.559-.9-1.551-2.363.017-3.269l4.236-2.445a6.259,6.259,0,0,1,5.662-.011l4.21,2.43C502.393,306.869,502.386,308.332,500.816,309.237ZM488.231,316.5,484,318.95a6.259,6.259,0,0,1-5.662.011l-4.21-2.43c-1.559-.9-1.551-2.363.017-3.269l4.236-2.445a6.259,6.259,0,0,1,5.662-.011l4.21,2.43C489.807,314.136,489.8,315.6,488.231,316.5Zm-12.586,7.267-4.236,2.445a6.259,6.259,0,0,1-5.662.011l-4.21-2.43c-1.559-.9-1.551-2.363.018-3.269l4.236-2.445a6.256,6.256,0,0,1,5.66-.011l4.21,2.43C477.221,321.4,477.213,322.865,475.645,323.771Zm-26.956,4.185,4.236-2.445a6.259,6.259,0,0,1,5.662-.011l4.21,2.43c1.559.9,1.551,2.363-.018,3.269l-4.235,2.445a6.259,6.259,0,0,1-5.662.011l-4.21-2.43C447.114,330.324,447.122,328.861,448.69,327.956Zm162.952-80.619,9.822-5.671a6.259,6.259,0,0,1,5.662-.011l4.208,2.432c1.559.9,1.551,2.363-.017,3.269l-9.822,5.671a6.259,6.259,0,0,1-5.662.009l-4.21-2.43C610.064,249.706,610.073,248.242,611.641,247.337ZM599.055,254.6l4.236-2.445a6.259,6.259,0,0,1,5.662-.011l4.21,2.43c1.557.9,1.549,2.363-.019,3.269l-4.236,2.445a6.259,6.259,0,0,1-5.662.011l-4.208-2.43C597.479,256.971,597.487,255.509,599.055,254.6Zm-12.586,7.267,4.236-2.445a6.259,6.259,0,0,1,5.662-.011l4.21,2.43c1.559.9,1.551,2.363-.019,3.269l-4.236,2.445a6.256,6.256,0,0,1-5.66.011l-4.21-2.43C584.893,264.238,584.9,262.776,586.469,261.87Zm-88.1,50.865,79.751-46.044a6.254,6.254,0,0,1,5.662-.011l4.21,2.43c1.559.9,1.551,2.363-.017,3.269l-79.752,46.044a6.254,6.254,0,0,1-5.662.011l-4.21-2.43C496.791,315.1,496.8,313.641,498.368,312.735ZM485.781,320l4.236-2.445a6.259,6.259,0,0,1,5.662-.011l4.208,2.43c1.559.9,1.551,2.363-.017,3.269l-4.236,2.445a6.259,6.259,0,0,1-5.662.011l-4.21-2.43C484.206,322.37,484.214,320.907,485.781,320ZM473.2,327.269l4.236-2.445a6.259,6.259,0,0,1,5.662-.011l4.21,2.43c1.559.9,1.551,2.363-.019,3.269l-4.236,2.445a6.256,6.256,0,0,1-5.66.011l-4.21-2.43C471.619,329.637,471.627,328.174,473.2,327.269Zm-12.848,7.417,4.236-2.445a6.254,6.254,0,0,1,5.662-.009l4.21,2.43c1.558.9,1.551,2.363-.019,3.269l-4.236,2.445a6.256,6.256,0,0,1-5.66.011l-4.21-2.431C458.772,337.055,458.779,335.591,460.347,334.686Z" transform="translate(-376.583 -37.614)" fill="#bfa463"/>
          <path id="Path_126636" data-name="Path 126636" d="M573.147,212.557l-10.613,6.128a5.384,5.384,0,0,1-4.872.008c-1.342-.774-1.334-2.034.016-2.812l10.613-6.128a5.384,5.384,0,0,1,4.872-.009C574.5,210.517,574.5,211.777,573.147,212.557Zm-18.172,10.491-5.027,2.9a5.384,5.384,0,0,1-4.872.008c-1.342-.774-1.334-2.034.016-2.812l5.027-2.9a5.384,5.384,0,0,1,4.872-.008C556.332,221.01,556.325,222.27,554.975,223.048Zm-12.586,7.267-5.027,2.9a5.384,5.384,0,0,1-4.872.009c-1.34-.774-1.334-2.034.016-2.812l5.027-2.9a5.389,5.389,0,0,1,4.872-.009C543.746,228.276,543.74,229.536,542.389,230.315ZM529.8,237.581l-5.029,2.9a5.384,5.384,0,0,1-4.872.009c-1.34-.774-1.334-2.034.016-2.814l5.027-2.9a5.392,5.392,0,0,1,4.874-.009C531.16,235.543,531.154,236.8,529.8,237.581Zm-12.586,7.267-5.027,2.9a5.384,5.384,0,0,1-4.872.009c-1.342-.774-1.336-2.034.014-2.814l5.029-2.9a5.389,5.389,0,0,1,4.872-.009C518.574,242.81,518.567,244.068,517.218,244.848Zm-12.586,7.267-5.027,2.9a5.384,5.384,0,0,1-4.872.009c-1.342-.775-1.334-2.034.016-2.814l5.027-2.9a5.384,5.384,0,0,1,4.872-.009C505.989,250.075,505.981,251.335,504.631,252.115Zm-12.586,7.267-5.027,2.9a5.389,5.389,0,0,1-4.872.009c-1.342-.775-1.334-2.034.016-2.814l5.027-2.9a5.384,5.384,0,0,1,4.872-.009C493.4,257.341,493.395,258.6,492.045,259.381Zm-12.585,7.267-5.029,2.9a5.384,5.384,0,0,1-4.872.008c-1.34-.774-1.334-2.034.016-2.812l5.027-2.9a5.384,5.384,0,0,1,4.872-.009C480.816,264.608,480.81,265.868,479.46,266.648Zm-12.586,7.265-5.027,2.9a5.387,5.387,0,0,1-4.874.008c-1.34-.774-1.334-2.034.015-2.812l5.029-2.9a5.384,5.384,0,0,1,4.872-.009C468.23,271.875,468.224,273.135,466.874,273.913Zm-12.586,7.267-5.027,2.9a5.384,5.384,0,0,1-4.872.008c-1.342-.774-1.336-2.034.015-2.812l5.027-2.9a5.384,5.384,0,0,1,4.872-.008C455.644,279.141,455.637,280.4,454.288,281.18ZM441.7,288.447l-5.027,2.9a5.379,5.379,0,0,1-4.872.009c-1.342-.774-1.334-2.034.015-2.812l5.027-2.9a5.384,5.384,0,0,1,4.872-.008C443.059,286.408,443.051,287.668,441.7,288.447Zm-12.586,7.267-5.027,2.9a5.384,5.384,0,0,1-4.872.009c-1.342-.774-1.334-2.034.016-2.814l5.027-2.9a5.388,5.388,0,0,1,4.872-.009C430.473,293.675,430.465,294.935,429.115,295.713Zm-12.848,7.418-5.027,2.9a5.389,5.389,0,0,1-4.872.009c-1.34-.775-1.334-2.034.015-2.814l5.027-2.9a5.384,5.384,0,0,1,4.872-.009C417.625,301.092,417.619,302.351,416.267,303.132Zm168.2-83.65-4.352,2.512a6.127,6.127,0,0,1-5.546.011l-4.326-2.5c-1.526-.882-1.518-2.315.018-3.2l4.352-2.514a6.126,6.126,0,0,1,5.546-.009l4.324,2.5C586.01,217.162,586,218.6,584.467,219.482Zm-22.484,9.79-4.324-2.5c-1.528-.881-1.52-2.314.017-3.2l4.352-2.514a6.126,6.126,0,0,1,5.545-.009l4.325,2.5c1.527.882,1.52,2.315-.017,3.2l-4.352,2.512A6.131,6.131,0,0,1,561.983,229.272Zm-2.688,4.744-4.352,2.512a6.131,6.131,0,0,1-5.546.011l-4.324-2.5c-1.526-.881-1.518-2.314.017-3.2l4.352-2.514a6.126,6.126,0,0,1,5.545-.009l4.326,2.5C560.839,231.7,560.832,233.129,559.295,234.015Zm-12.585,7.267-4.354,2.512a6.128,6.128,0,0,1-5.544.011l-4.326-2.5c-1.526-.881-1.518-2.314.017-3.2l4.352-2.514a6.126,6.126,0,0,1,5.545-.009l4.326,2.5C548.253,238.96,548.245,240.4,546.71,241.282Zm-26.791,4.091,4.352-2.514a6.123,6.123,0,0,1,5.544-.009l4.326,2.5c1.526.881,1.518,2.315-.017,3.2l-4.352,2.512a6.131,6.131,0,0,1-5.546.011l-4.326-2.5C518.374,247.693,518.382,246.26,519.919,245.373Zm-12.586,7.265,4.352-2.512a6.131,6.131,0,0,1,5.546-.011l4.324,2.5c1.528.881,1.518,2.314-.017,3.2l-4.352,2.514a6.126,6.126,0,0,1-5.546.009l-4.326-2.5C505.788,254.96,505.8,253.525,507.332,252.638ZM494.746,259.9l4.352-2.512a6.131,6.131,0,0,1,5.546-.011l4.324,2.5c1.528.881,1.52,2.314-.017,3.2l-4.352,2.514a6.126,6.126,0,0,1-5.546.009l-4.324-2.5C493.2,262.226,493.209,260.791,494.746,259.9Zm-12.586,7.267,4.352-2.512a6.131,6.131,0,0,1,5.546-.011l4.326,2.5c1.526.881,1.518,2.314-.018,3.2l-4.352,2.514a6.126,6.126,0,0,1-5.546.009l-4.324-2.5C480.617,269.491,480.624,268.058,482.16,267.171Zm-12.586,7.267,4.352-2.512a6.126,6.126,0,0,1,5.546-.011l4.326,2.5c1.526.881,1.518,2.314-.017,3.2l-4.352,2.514a6.126,6.126,0,0,1-5.546.009l-4.326-2.5C468.03,276.758,468.038,275.325,469.573,274.438ZM456.989,281.7l4.352-2.514a6.131,6.131,0,0,1,5.546-.009l4.324,2.5c1.526.882,1.518,2.315-.017,3.2l-4.352,2.514a6.136,6.136,0,0,1-5.546.009l-4.326-2.5C455.444,284.025,455.452,282.591,456.989,281.7Zm1.619,10.443-4.352,2.512a6.131,6.131,0,0,1-5.546.011l-4.324-2.5c-1.528-.881-1.52-2.314.017-3.2l4.352-2.514a6.126,6.126,0,0,1,5.546-.009l4.324,2.5C460.152,289.827,460.144,291.26,458.608,292.147Zm-26.792,4.091,4.352-2.514a6.126,6.126,0,0,1,5.546-.009l4.326,2.5c1.526.882,1.518,2.315-.019,3.2l-4.352,2.512a6.131,6.131,0,0,1-5.546.011l-4.324-2.5C430.273,298.558,430.281,297.125,431.816,296.238ZM413.382,306.88l9.938-5.737a6.131,6.131,0,0,1,5.546-.011l4.326,2.5c1.526.881,1.518,2.314-.019,3.2l-9.938,5.739a6.131,6.131,0,0,1-5.546.009l-4.324-2.5C411.838,309.2,411.846,307.767,413.382,306.88Zm182.743-80.667-9.938,5.737a6.126,6.126,0,0,1-5.546.009l-4.326-2.5c-1.526-.882-1.518-2.315.017-3.2l9.94-5.737a6.123,6.123,0,0,1,5.544-.009l4.326,2.5C597.668,223.892,597.66,225.325,596.125,226.213ZM577.953,236.7l-4.352,2.514a6.126,6.126,0,0,1-5.545.009l-4.326-2.5c-1.526-.882-1.518-2.315.018-3.2l4.352-2.512a6.131,6.131,0,0,1,5.546-.011l4.324,2.5C579.5,234.384,579.488,235.817,577.953,236.7Zm-16.939,9.779a6.126,6.126,0,0,1-5.545.011l-4.324-2.5c-1.528-.882-1.52-2.315.017-3.2l4.352-2.512a6.122,6.122,0,0,1,5.546-.011l4.325,2.5c1.528.882,1.52,2.315-.017,3.2Zm-12.586,7.267a6.131,6.131,0,0,1-5.546.011l-4.324-2.5c-1.526-.881-1.518-2.314.017-3.2l4.352-2.514a6.127,6.127,0,0,1,5.546-.009l4.326,2.5c1.526.882,1.518,2.315-.019,3.2Zm-12.541-.944,4.326,2.5c1.526.882,1.518,2.315-.017,3.2l-4.354,2.512a6.128,6.128,0,0,1-5.544.011l-4.326-2.5c-1.526-.881-1.518-2.314.017-3.2l4.352-2.514A6.127,6.127,0,0,1,535.887,252.8Zm-12.851,7.112,4.857,2.8c1.379.8,1.373,2.092-.016,2.894l-4.888,2.822a5.541,5.541,0,0,1-5.012.009l-4.858-2.8c-1.379-.8-1.371-2.092.017-2.894l4.886-2.822A5.544,5.544,0,0,1,523.036,259.917Zm-12.586,7.267,4.857,2.8c1.379.8,1.373,2.093-.016,2.894L510.4,275.7a5.541,5.541,0,0,1-5.012.009l-4.857-2.8c-1.381-.8-1.373-2.093.016-2.894l4.888-2.822A5.541,5.541,0,0,1,510.449,267.184Zm-12.586,7.267,4.857,2.8c1.381.8,1.373,2.093-.016,2.894l-4.888,2.822a5.541,5.541,0,0,1-5.012.009l-4.857-2.8c-1.381-.8-1.373-2.093.015-2.894l4.888-2.822A5.541,5.541,0,0,1,497.863,274.45Zm-12.586,7.267,4.857,2.8c1.381.8,1.373,2.093-.016,2.893l-4.888,2.823a5.541,5.541,0,0,1-5.012.009l-4.857-2.8c-1.379-.8-1.373-2.092.016-2.894l4.888-2.822A5.536,5.536,0,0,1,485.277,281.717Zm-12.586,7.267,4.858,2.8c1.379.8,1.373,2.091-.016,2.893l-4.888,2.823a5.544,5.544,0,0,1-5.013.008l-4.857-2.8c-1.379-.8-1.373-2.093.016-2.894l4.888-2.822A5.536,5.536,0,0,1,472.69,288.984Zm-17.643,15.795-4.858-2.8c-1.379-.8-1.371-2.091.017-2.893l4.888-2.822a5.536,5.536,0,0,1,5.012-.009l4.857,2.8c1.379.8,1.373,2.091-.015,2.893l-4.888,2.822A5.536,5.536,0,0,1,455.048,304.778Zm-12.586,7.267-4.857-2.8c-1.381-.8-1.373-2.091.016-2.893l4.888-2.822a5.536,5.536,0,0,1,5.012-.009l4.857,2.8c1.379.8,1.373,2.091-.016,2.893l-4.888,2.822A5.536,5.536,0,0,1,442.461,312.045Zm-17.689,1.72,4.888-2.822a5.541,5.541,0,0,1,5.012-.009l4.857,2.8c1.381.8,1.373,2.093-.015,2.894l-4.888,2.822a5.541,5.541,0,0,1-5.012.009l-4.857-2.8C423.376,315.862,423.384,314.566,424.772,313.765ZM608.05,232.788,592.27,241.9a5.536,5.536,0,0,1-5.012.008l-4.858-2.8c-1.379-.8-1.371-2.093.017-2.894L598.2,227.1a5.536,5.536,0,0,1,5.012-.009l4.858,2.8C609.445,230.691,609.439,231.986,608.05,232.788Zm-23.479,13.555-4.888,2.823a5.541,5.541,0,0,1-5.012.008l-4.857-2.8c-1.381-.8-1.373-2.091.016-2.893l4.888-2.822a5.536,5.536,0,0,1,5.012-.009l4.857,2.8C585.966,244.246,585.959,245.541,584.571,246.343Zm-12.586,7.267-4.888,2.822a5.536,5.536,0,0,1-5.012.009l-4.857-2.8c-1.379-.8-1.373-2.091.015-2.893l4.888-2.822a5.536,5.536,0,0,1,5.012-.009l4.857,2.8C573.381,251.513,573.373,252.808,571.985,253.61ZM559.4,260.876l-4.888,2.822a5.536,5.536,0,0,1-5.012.009l-4.857-2.8c-1.379-.8-1.373-2.091.016-2.893l4.888-2.823a5.541,5.541,0,0,1,5.012-.008l4.858,2.8C560.795,258.779,560.787,260.075,559.4,260.876Zm-22.484,10.1-4.858-2.8c-1.379-.8-1.373-2.093.016-2.893l4.888-2.823a5.544,5.544,0,0,1,5.013-.008l4.857,2.8c1.379.8,1.373,2.093-.016,2.894l-4.888,2.822A5.536,5.536,0,0,1,536.914,270.974Zm-12.586,7.267-4.857-2.8c-1.381-.8-1.373-2.093.016-2.893l4.888-2.823a5.541,5.541,0,0,1,5.012-.009l4.857,2.8c1.379.8,1.373,2.092-.016,2.894l-4.888,2.822A5.536,5.536,0,0,1,524.328,278.241Zm-12.586,7.267-4.857-2.8c-1.381-.8-1.373-2.093.016-2.894l4.888-2.822a5.541,5.541,0,0,1,5.012-.009l4.857,2.8c1.381.8,1.373,2.093-.016,2.894l-4.888,2.822A5.541,5.541,0,0,1,511.742,285.507Zm-12.586,7.267-4.857-2.8c-1.379-.8-1.373-2.093.015-2.894l4.888-2.822a5.541,5.541,0,0,1,5.012-.009l4.857,2.8c1.381.8,1.373,2.093-.015,2.894l-4.888,2.822A5.541,5.541,0,0,1,499.156,292.774Zm-12.586,7.267-4.857-2.8c-1.379-.8-1.373-2.092.016-2.894l4.888-2.822a5.536,5.536,0,0,1,5.012-.009l4.858,2.8c1.379.8,1.371,2.093-.017,2.893l-4.886,2.823A5.544,5.544,0,0,1,486.569,300.041Zm-12.585,7.267-4.858-2.8c-1.379-.8-1.371-2.092.017-2.894l4.888-2.822a5.536,5.536,0,0,1,5.012-.009l4.857,2.8c1.379.8,1.373,2.093-.015,2.893L479,307.3A5.546,5.546,0,0,1,473.984,307.307Zm-2.687,4.434-4.888,2.823a5.541,5.541,0,0,1-5.012.008l-4.857-2.8c-1.381-.8-1.373-2.093.016-2.894l4.888-2.822a5.536,5.536,0,0,1,5.012-.009l4.857,2.8C472.692,309.645,472.686,310.94,471.3,311.742ZM436.43,320.5l12.428-7.175a5.536,5.536,0,0,1,5.012-.009l4.857,2.8c1.381.8,1.373,2.091-.015,2.893l-12.428,7.175a5.536,5.536,0,0,1-5.012.009l-4.857-2.8C435.034,322.593,435.042,321.3,436.43,320.5Zm183.229-80.628-22.39,12.927a6.259,6.259,0,0,1-5.662.011l-4.21-2.431c-1.558-.9-1.551-2.362.017-3.267l22.391-12.928a6.254,6.254,0,0,1,5.662-.009l4.21,2.43C621.236,237.5,621.226,238.962,619.658,239.867Zm-30.74,17.748-4.236,2.445a6.259,6.259,0,0,1-5.662.011l-4.21-2.432c-1.559-.9-1.551-2.363.018-3.269l4.236-2.445a6.25,6.25,0,0,1,5.66-.009l4.21,2.43C590.494,255.246,590.487,256.71,588.919,257.615Zm-12.586,7.267-4.236,2.445a6.254,6.254,0,0,1-5.662.009l-4.21-2.43c-1.557-.9-1.549-2.363.018-3.269l4.236-2.445a6.259,6.259,0,0,1,5.662-.011l4.208,2.432C577.908,262.512,577.9,263.977,576.332,264.882Zm-12.586,7.267-4.236,2.445a6.254,6.254,0,0,1-5.662.009l-4.208-2.43c-1.559-.9-1.551-2.363.017-3.269l4.236-2.445a6.259,6.259,0,0,1,5.662-.011l4.21,2.432C565.323,269.779,565.314,271.242,563.746,272.149Zm-12.586,7.265-4.236,2.445a6.251,6.251,0,0,1-5.66.011l-4.21-2.43c-1.559-.9-1.551-2.363.017-3.269l4.236-2.445a6.259,6.259,0,0,1,5.662-.011l4.21,2.432C552.737,277.046,552.729,278.508,551.16,279.414Zm-12.585,7.267-4.236,2.445a6.259,6.259,0,0,1-5.662.011l-4.21-2.43c-1.559-.9-1.551-2.363.018-3.269l4.235-2.445a6.259,6.259,0,0,1,5.662-.011l4.21,2.43C540.151,284.313,540.143,285.775,538.575,286.681Zm-12.586,7.267-4.236,2.445a6.259,6.259,0,0,1-5.662.011l-4.21-2.43c-1.559-.9-1.549-2.363.019-3.269l4.236-2.445a6.256,6.256,0,0,1,5.66-.011l4.21,2.43C527.564,291.579,527.557,293.042,525.989,293.947ZM513.4,301.214l-4.236,2.445a6.259,6.259,0,0,1-5.662.011l-4.208-2.43c-1.559-.9-1.551-2.363.017-3.269l4.236-2.447a6.264,6.264,0,0,1,5.662-.009l4.21,2.43C514.978,298.846,514.97,300.309,513.4,301.214Zm-12.586,7.267-4.236,2.445a6.256,6.256,0,0,1-5.66.011l-4.21-2.432c-1.559-.9-1.551-2.362.017-3.267l4.236-2.447a6.254,6.254,0,0,1,5.662-.009l4.21,2.43C502.393,306.111,502.386,307.575,500.816,308.481Zm-12.585,7.267L484,318.193a6.259,6.259,0,0,1-5.662.011l-4.21-2.431c-1.559-.9-1.551-2.363.017-3.267l4.236-2.447a6.255,6.255,0,0,1,5.662-.009l4.21,2.43C489.807,313.378,489.8,314.842,488.231,315.747Zm-12.586,7.267-4.236,2.445a6.254,6.254,0,0,1-5.662.009l-4.21-2.43c-1.559-.9-1.551-2.363.018-3.269l4.236-2.445a6.251,6.251,0,0,1,5.66-.009l4.21,2.43C477.221,320.644,477.213,322.109,475.645,323.014ZM448.69,327.2l4.236-2.445a6.254,6.254,0,0,1,5.662-.009l4.21,2.43c1.559.9,1.551,2.363-.018,3.269l-4.235,2.445a6.259,6.259,0,0,1-5.662.011l-4.21-2.432C447.114,329.567,447.122,328.1,448.69,327.2ZM611.641,246.58l9.822-5.671a6.259,6.259,0,0,1,5.662-.011l4.208,2.43c1.559.9,1.551,2.363-.017,3.269l-9.822,5.671a6.259,6.259,0,0,1-5.662.011l-4.21-2.432C610.064,248.948,610.073,247.485,611.641,246.58Zm-12.586,7.265,4.236-2.445a6.254,6.254,0,0,1,5.662-.009l4.21,2.43c1.557.9,1.549,2.363-.019,3.269l-4.236,2.445a6.259,6.259,0,0,1-5.662.011l-4.208-2.432C597.479,256.215,597.487,254.752,599.055,253.845Zm-12.586,7.267,4.236-2.445a6.254,6.254,0,0,1,5.662-.009l4.21,2.43c1.559.9,1.551,2.363-.019,3.269l-4.236,2.445a6.251,6.251,0,0,1-5.66.009l-4.21-2.43C584.893,263.481,584.9,262.017,586.469,261.112Zm-88.1,50.867,79.751-46.046a6.259,6.259,0,0,1,5.662-.011l4.21,2.431c1.559.9,1.551,2.363-.017,3.269l-79.752,46.044a6.259,6.259,0,0,1-5.662.011l-4.21-2.432C496.791,314.347,496.8,312.884,498.368,311.979Zm-12.586,7.267,4.236-2.447a6.254,6.254,0,0,1,5.662-.009l4.208,2.43c1.559.9,1.551,2.363-.017,3.269l-4.236,2.446a6.259,6.259,0,0,1-5.662.011l-4.21-2.432C484.206,321.613,484.214,320.149,485.781,319.245ZM473.2,326.51l4.236-2.445a6.254,6.254,0,0,1,5.662-.009l4.21,2.43c1.559.9,1.551,2.363-.019,3.269l-4.236,2.445a6.256,6.256,0,0,1-5.66.011l-4.21-2.432C471.619,328.88,471.627,327.416,473.2,326.51Zm-12.848,7.418,4.236-2.445a6.259,6.259,0,0,1,5.662-.011l4.21,2.43c1.558.9,1.551,2.363-.019,3.269l-4.236,2.445a6.256,6.256,0,0,1-5.66.011l-4.21-2.43C458.772,336.3,458.779,334.834,460.347,333.929Z" transform="translate(-376.583 -38.029)" fill="#f6e5bc"/>
          <g id="Group_56779" data-name="Group 56779">
            <path id="Path_126637" data-name="Path 126637" d="M457.435,359.41l166.727-96.316c6.456-3.725,11.689-13.724,11.689-22.331V109.969c0-8.605-5.233-12.562-11.689-8.835L457.435,197.451c-6.454,3.725-11.687,13.724-11.687,22.331V350.576C445.748,359.181,450.981,363.137,457.435,359.41Z" transform="translate(-442.436 -97.971)" fill="#d6bd81"/>
            <path id="Path_126638" data-name="Path 126638" d="M453.608,350.023l164.948-95.278c5.194-3.3,8.407-9.9,8.407-16.648V106.669a2.073,2.073,0,0,0-3.12-1.785c-.161.094-.288.169-.367.214L458.4,200.469c-6.183,3.564-8.407,9.9-8.407,16.648V348.238a2.237,2.237,0,0,0,3.345,1.941Z" transform="translate(-440.113 -95.306)" fill="#1c614e"/>
            <path id="Path_126639" data-name="Path 126639" d="M458.4,200.467,623.476,105.1l.367-.214a2.073,2.073,0,0,1,3.12,1.785V238.1c0,6.75-3.213,13.346-8.407,16.648L453.608,350.023l-.274.156a2.237,2.237,0,0,1-3.345-1.941V217.116C449.989,210.367,452.213,204.033,458.4,200.467ZM451.3,348.238a.93.93,0,0,0,.929.926.9.9,0,0,0,.453-.125L617.9,253.609c4.691-2.982,7.751-9.082,7.751-15.512V106.669a.762.762,0,0,0-.763-.758.75.75,0,0,0-.381.107L459.054,201.6c-6.408,3.693-7.753,10.474-7.753,15.512Z" transform="translate(-440.113 -95.306)" fill="#022652"/>
            <path id="Path_126640" data-name="Path 126640" d="M460.289,196.314,627.016,100c2.554-1.475,4.917-1.747,6.84-1,.245.094,3.5,1.826,3.733,1.953l.011.006c-1.992-.966-4.518-.786-7.271.8L463.6,198.074c-6.454,3.725-11.687,13.724-11.687,22.331V351.2c0,5.371,2.038,8.929,5.14,9.941a1.944,1.944,0,0,1-1.025-.348c-.147-.085-3.684-2.082-3.826-2.179-2.219-1.556-3.6-4.75-3.6-9.173V218.645C448.6,210.038,453.835,200.041,460.289,196.314Z" transform="translate(-448.602 -98.594)" fill="#d6bd81"/>
            <path id="Path_126641" data-name="Path 126641" d="M448.6,196.314,615.328,100c2.554-1.475,4.917-1.747,6.839-1,.245.094,3.5,1.826,3.733,1.953l.011.006c-1.992-.966-4.518-.786-7.271.8L451.914,198.074Z" transform="translate(-436.915 -98.594)" fill="#ebd5a7"/>
            <path id="Path_126642" data-name="Path 126642" d="M460.8,197.264l166.727-96.315c2.647-1.529,5.08-1.747,7.039-.9a8.632,8.632,0,0,0-5.637,1.32L462.2,197.685c-6.456,3.727-11.687,13.725-11.687,22.332V350.81c0,5.078,1.828,8.517,4.648,9.735-3.606-.571-6.05-4.276-6.05-10.155V219.6C449.114,210.99,454.347,200.991,460.8,197.264Z" transform="translate(-446.362 -98.066)" fill="#fff" style="mix-blend-mode: screen;isolation: isolate"/>
          </g>
        </g>
      </g>
      <path id="Path_126643" data-name="Path 126643" d="M337.881,195.048l139.376-79.2c.356,18.553.034,76.689.138,95.686.169,30.758,4.77,54.985,40.28,82.78,11.3,8.844,61.148,36,101.6,57.256,16.411,8.624,17.657,12.263,25.956,19.291,8.041,6.812,20.376,13.143,23.984,15.247L530.76,466.169c-2.588-1.534-16.056-8.291-24.9-15.782-8.3-7.03-9.545-14.526-25.956-23.15-40.45-21.257-109.754-63.818-122.057-71.2-15.784-9.469-19.822-15.433-19.822-40.334C338.023,296.6,338.246,213.259,337.881,195.048Z" transform="translate(-288.212 -89.142)" fill="#001a46" opacity="0.1"/>
      <path id="Path_126644" data-name="Path 126644" d="M339.183,195.41l139.376-79.2c.356,8.875.034,82.469.138,101.466.169,30.758,4.77,39.526,40.28,67.321,11.3,8.844,61.148,36,101.6,57.256,16.411,8.624,19.059,19.629,27.358,26.657,8.042,6.812,16.959,8.675,20.566,10.777l-138.454,80.06c-2.588-1.535-12.639-3.823-21.484-11.316-8.3-7.028-10.947-18.033-27.358-26.655-40.45-21.257-90.3-48.414-101.6-57.257-35.51-27.794-40.111-36.562-40.28-67.321C339.222,278.1,339.548,203.941,339.183,195.41Z" transform="translate(-289.514 -88.944)" fill="#fff"/>
      <g id="Group_56789" data-name="Group 56789" transform="translate(59.658 57.721)">
        <path id="Path_126689" data-name="Path 126689" d="M499.752,265.02q2.189,1.177,4.3,2.309l-98.069,56.784q-2.208-1.17-4.375-2.323Z" transform="translate(-281.352 -65.156)" fill="#d7f1de"/>
        <path id="Path_126690" data-name="Path 126690" d="M505.738,261.847q2.164,1.172,4.29,2.32l-98.163,56.785q-2.2-1.177-4.363-2.334Z" transform="translate(-296.44 -66.894)" fill="#d7f1de"/>
        <path id="Path_126691" data-name="Path 126691" d="M517.662,255.453q2.122,1.172,4.255,2.345l-98.37,56.793q-2.2-1.193-4.334-2.357Z" transform="translate(-326.455 -70.397)" fill="#d7f1de"/>
        <path id="Path_126692" data-name="Path 126692" d="M511.709,258.659q2.143,1.17,4.273,2.331l-98.262,56.787q-2.2-1.182-4.351-2.343Z" transform="translate(-311.477 -68.641)" fill="#d7f1de"/>
        <path id="Path_126693" data-name="Path 126693" d="M523.6,252.226q2.094,1.175,4.229,2.363l-98.485,56.8q-2.2-1.2-4.314-2.371Z" transform="translate(-341.359 -72.164)" fill="#d7f1de"/>
        <path id="Path_126694" data-name="Path 126694" d="M453.886,264.157c1.517.8,4.869,2.36,6.223,3.075l-76.341,43.906c-1.274-.84-4.527-2.455-5.981-3.267Z" transform="translate(-200.532 -65.629)" fill="#00846c"/>
        <path id="Path_126695" data-name="Path 126695" d="M489.413,267.8l1.932,1.015c.822.432,1.588.873,2.325,1.317L375.288,338.39q-1.57-1.444-3.388-2.882Z" transform="translate(-224.978 -63.634)" fill="#d7f1de"/>
        <path id="Path_126696" data-name="Path 126696" d="M498.68,241.642c1.376.786,4.818,2.611,6.239,3.416L425.15,290.775c-1.46-.809-4.942-2.637-6.34-3.419Z" transform="translate(-308.833 -77.961)" fill="#00846c"/>
        <path id="Path_126697" data-name="Path 126697" d="M479.618,279.915c.843,1.09,1.727,2.175,2.671,3.247L363.2,351.975c-.638-.464-1.269-.953-1.888-1.477a18.531,18.531,0,0,1-1.483-1.415Z" transform="translate(-194.922 -56.998)" fill="#d7f1de"/>
        <path id="Path_126698" data-name="Path 126698" d="M557.442,164.193,438.756,229.545c0-2.052,0-5.623.008-7.595l118.688-66.062v2.26C557.448,160.183,557.445,162.2,557.442,164.193Z" transform="translate(-438.756 -124.933)" fill="#00846c"/>
        <path id="Path_126798" data-name="Path 126798" d="M532.144,164.193l-47.2,26.4c0-2.052,0-5.623.008-7.595l47.2-27.111v2.26C532.15,160.183,532.147,162.2,532.144,164.193Z" transform="translate(-413.458 -155.888)" fill="#d7f1de"/>
        <path id="Path_126799" data-name="Path 126799" d="M540.979,164.193l-72.167,40.382c0-2.052,0-5.623.008-7.595l72.168-41.093v2.26C540.985,160.183,540.982,162.2,540.979,164.193Z" transform="translate(-422.293 -139.824)" fill="#d7f1de"/>
        <path id="Path_126699" data-name="Path 126699" d="M586.51,169.447,468.822,235.7q0-1.449,0-2.91c0-.656,0-1.282,0-1.93L586.514,164.7Q586.512,167.125,586.51,169.447Z" transform="translate(-467.834 -120.107)" fill="#d7f1de"/>
        <path id="Path_126700" data-name="Path 126700" d="M486.288,271.192a37.218,37.218,0,0,1,3.247,2.913l-119.67,69.053c-.864-1.057-1.8-2.134-2.8-3.221Z" transform="translate(-213.365 -61.776)" fill="#d7f1de"/>
        <path id="Path_126701" data-name="Path 126701" d="M483.323,275.36c.882,1.09,1.721,2.195,2.555,3.314L365.906,347.952c-.466-.613-.938-1.246-1.429-1.907-.359-.481-.727-.975-1.1-1.472Z" transform="translate(-203.996 -59.493)" fill="#d7f1de"/>
        <path id="Path_126702" data-name="Path 126702" d="M582.842,207.429c.68,1.181,1.422,2.353,2.215,3.523L464.475,279.419a38.824,38.824,0,0,1-2.261-3.574Z" transform="translate(-456.15 -96.702)" fill="#d7f1de"/>
        <path id="Path_126703" data-name="Path 126703" d="M585.219,202.267c.483,1.312,1.021,2.6,1.61,3.866l-120.48,68.332a35.279,35.279,0,0,1-1.32-4.108Z" transform="translate(-462.278 -99.529)" fill="#d7f1de"/>
        <path id="Path_126704" data-name="Path 126704" d="M563.93,194.936c.286,1.444.608,5.457.981,6.826l-97.426,54.944c-.209-1.46-.37-5.583-.488-7.188Z" transform="translate(-443.409 -103.545)" fill="#00846c"/>
        <path id="Path_126705" data-name="Path 126705" d="M586.525,171.21c0,1.655,0,3.242,0,4.753l-117.7,66.346q0-2.38.006-4.843Z" transform="translate(-467.854 -116.54)" fill="#d7f1de"/>
        <path id="Path_126706" data-name="Path 126706" d="M586.526,177.724c0,1.771.006,3.369.011,4.752L468.82,248.919q0-2.331,0-4.846Z" transform="translate(-467.854 -112.972)" fill="#d7f1de"/>
        <path id="Path_126707" data-name="Path 126707" d="M586.457,184.218c.033,1.61.087,3.164.156,4.676L468.687,255.538c0-1.467,0-3.088-.006-4.844Z" transform="translate(-467.715 -109.415)" fill="#d7f1de"/>
        <path id="Path_126708" data-name="Path 126708" d="M559.791,228.431q1.709,1.365,3.512,2.783L444.753,298.88c-1.528-.969-2.84-1.833-3.954-2.6Z" transform="translate(-401.251 -85.198)" fill="#d7f1de"/>
        <path id="Path_126709" data-name="Path 126709" d="M553.8,232.183c1.144.791,2.445,1.655,3.872,2.576L439.808,302.095q-2.2-1.309-4.14-2.487Z" transform="translate(-387.677 -83.143)" fill="#d7f1de"/>
        <path id="Path_126710" data-name="Path 126710" d="M547.872,235.658q1.931,1.191,4.057,2.469L434.386,305.344q-2.192-1.258-4.216-2.439Z" transform="translate(-373.425 -81.239)" fill="#d7f1de"/>
        <path id="Path_126711" data-name="Path 126711" d="M579.137,212.141c.85,1.079,1.737,2.159,2.695,3.252L461.606,283.734q-1.583-1.639-2.919-3.2Z" transform="translate(-447.466 -94.121)" fill="#d7f1de"/>
        <path id="Path_126712" data-name="Path 126712" d="M535.519,219.535c1.053.958,3.684,3.606,4.823,4.6l-85.118,48.423c-1.21-.992-3.9-3.628-5.01-4.561Z" transform="translate(-392.859 -90.071)" fill="#00846c"/>
        <path id="Path_126713" data-name="Path 126713" d="M564.878,224.577q1.655,1.388,3.425,2.832L449.135,295.359c-1.227-.967-2.419-1.91-3.561-2.825Z" transform="translate(-413.641 -87.309)" fill="#d7f1de"/>
        <g id="Group_56788" data-name="Group 56788" transform="translate(185.288 176.145)">
          <path id="Path_126714" data-name="Path 126714" d="M422.028,253.4a5.867,5.867,0,0,0,5.307-.009c1.47-.85,1.478-2.221.017-3.065a5.867,5.867,0,0,0-5.307.009C420.575,251.184,420.567,252.555,422.028,253.4Z" transform="translate(-420.937 -249.695)" fill="#00846c"/>
          <path id="Path_126715" data-name="Path 126715" d="M416.32,256.545a5.87,5.87,0,0,0,5.309-.009c1.47-.85,1.477-2.221.016-3.065a5.868,5.868,0,0,0-5.307.009C414.866,254.328,414.858,255.7,416.32,256.545Z" transform="translate(-406.394 -247.972)" fill="#00846c"/>
          <ellipse id="Ellipse_11301" data-name="Ellipse 11301" cx="2.167" cy="3.753" rx="2.167" ry="3.753" transform="translate(17.682 14.092) rotate(-90.31)" fill="#00846c"/>
          <path id="Path_126716" data-name="Path 126716" d="M404.9,262.837a5.862,5.862,0,0,0,5.307-.011c1.47-.848,1.478-2.219.017-3.063a5.863,5.863,0,0,0-5.307.009C403.45,260.621,403.442,261.993,404.9,262.837Z" transform="translate(-377.307 -244.526)" fill="#00846c"/>
          <path id="Path_126717" data-name="Path 126717" d="M399.195,265.983a5.866,5.866,0,0,0,5.309-.011c1.47-.848,1.476-2.221.015-3.065a5.863,5.863,0,0,0-5.307.011C397.741,263.767,397.733,265.14,399.195,265.983Z" transform="translate(-362.764 -242.803)" fill="#00846c"/>
        </g>
      </g>
      <g id="Group_56799" data-name="Group 56799" transform="translate(105.181 12.092)">
        <g id="Group_56790" data-name="Group 56790" transform="translate(0 0)">
          <path id="Path_126718" data-name="Path 126718" d="M550.862,316.486s-57.066-1.654-78.478-12.359-32.117-42-32.117-57.646-2.471-53.529-2.471-53.529,27.176-8.235,54.352-31.294c15.848-13.448,45.294-57.646,45.294-57.646V244.833C537.443,274.48,550.862,316.486,550.862,316.486Z" transform="translate(-437.797 -104.012)" opacity="0.1" fill="url(#linear-gradient)" style="mix-blend-mode: multiply;isolation: isolate"/>
          <path id="Path_126719" data-name="Path 126719" d="M548.72,315.423s-55.8-1.976-76.754-12.569c-21.382-10.9-31.745-41.7-31.745-57.053s-2.424-53.837-2.424-53.837,26.661-7.135,53.323-29.757c15.548-13.193,44.434-56.553,44.434-56.553V245.129C535.553,274.212,548.72,315.423,548.72,315.423Z" transform="translate(-435.654 -102.949)" opacity="0.143" fill="url(#linear-gradient-2)" style="mix-blend-mode: multiply;isolation: isolate"/>
          <path id="Path_126720" data-name="Path 126720" d="M546.575,314.36s-54.57-2.233-75.027-12.778c-21.39-11.024-31.374-41.406-31.374-56.46s-2.377-54.145-2.377-54.145,26.145-6.036,52.292-28.22c15.247-12.937,43.576-55.461,43.576-55.461V245.425C533.664,273.947,546.575,314.36,546.575,314.36Z" transform="translate(-433.51 -101.886)" opacity="0.186" fill="url(#linear-gradient-3)" style="mix-blend-mode: multiply;isolation: isolate"/>
          <path id="Path_126721" data-name="Path 126721" d="M544.431,313.3s-53.318-2.53-73.3-12.987c-21.378-11.187-31-41.112-31-55.867s-2.329-54.453-2.329-54.453,25.63-4.936,51.259-26.684C504,150.625,531.773,108.94,531.773,108.94V245.72C531.773,273.68,544.431,313.3,544.431,313.3Z" transform="translate(-431.365 -100.823)" opacity="0.229" fill="url(#linear-gradient-4)" style="mix-blend-mode: multiply;isolation: isolate"/>
          <path id="Path_126722" data-name="Path 126722" d="M542.288,312.234s-52.064-2.83-71.577-13.2c-21.364-11.353-30.632-40.815-30.632-55.274S437.8,189,437.8,189s25.116-3.836,50.23-25.145c14.647-12.429,41.859-53.275,41.859-53.275V246.015C529.886,273.414,542.288,312.234,542.288,312.234Z" transform="translate(-429.222 -99.76)" opacity="0.271" fill="url(#linear-gradient-5)" style="mix-blend-mode: multiply;isolation: isolate"/>
          <path id="Path_126723" data-name="Path 126723" d="M540.144,311.171s-50.811-3.133-69.851-13.405c-21.351-11.521-30.261-40.519-30.261-54.681s-2.235-55.069-2.235-55.069,24.6-2.736,49.2-23.609c14.346-12.173,41-52.181,41-52.181V246.311C528,273.148,540.144,311.171,540.144,311.171Z" transform="translate(-427.078 -98.697)" opacity="0.314" fill="url(#linear-gradient-6)" style="mix-blend-mode: multiply;isolation: isolate"/>
        </g>
        <path id="Path_126740" data-name="Path 126740" d="M403.072,200.392c23.776-13.452,47.024-36.4,66.507-65.638l.264-.151c19.484,6.738,42.731,2.843,66.509-11.16l.907-.535-1.282,44.427c-4.513,68.866-28,98.84-65.805,162.868l-.921.531c-37.8-20.374-61.294-23.227-65.805-86.884l-1.284-42.946Z" transform="translate(-345.589 -112.69)" fill="#b4ddc0"/>
        <path id="Path_126741" data-name="Path 126741" d="M403.207,194.964c23.778-13.452,47.024-36.4,66.509-65.636l.264-.152c19.482,6.74,42.729,2.843,66.507-11.161l.909-.535,13.156,10.37-.655.384c-23.776,14-47.024,17.9-66.507,11.16l-.264.151c-19.484,29.238-42.729,52.186-66.509,65.638l-.907.514,1.284,42.946c2.945,41.549,13.977,57.19,31.795,68.712-22.261-13.147-41.9-32.23-45.207-78.931L402.3,195.48Z" transform="translate(-359.136 -117.481)" fill="#b4ddc0"/>
        <path id="Path_126742" data-name="Path 126742" d="M437.972,190l.909-.516c23.778-13.452,47.024-36.4,66.509-65.636l.263-.153,13.41,10.219-.263.151c-19.484,29.238-42.729,52.186-66.509,65.638l-.907.514Z" transform="translate(-394.81 -111.998)" fill="#ccefd6"/>
        <path id="Path_126743" data-name="Path 126743" d="M469.763,169.128l1.284,42.946c2.945,41.549,13.977,57.19,31.795,68.712-22.261-13.147-41.9-32.229-45.207-78.931l-1.284-42.944Z" transform="translate(-413.189 -80.912)" fill="#83b591"/>
        <path id="Path_126744" data-name="Path 126744" d="M467.674,290.037c29.347-48.678,44.107-73.168,47.667-126.6l.811-28.046c-18.842,8.519-36.906,11.236-53.18,8C446.7,165.419,428.639,183.56,409.8,196.8l.811,27.111c3.56,49.322,18.322,56.766,47.673,71.562q2.3,1.163,4.694,2.374Z" transform="translate(-338.851 -101.67)" fill="#226b5e"/>
        <path id="Path_126745" data-name="Path 126745" d="M436.258,293.35c1.536.777,3.1,1.564,4.694,2.374q2.4-3.979,4.7-7.807c29.347-48.68,44.109-73.17,47.669-126.6l.717-24.84c.832-.356,1.662-.708,2.5-1.084l-.811,28.046c-3.56,53.428-18.32,77.918-47.667,126.6l-4.7,7.809q-2.392-1.214-4.694-2.374c-11.976-6.036-21.519-10.852-28.867-17.784C416.785,283.523,425.545,287.951,436.258,293.35Z" transform="translate(-319.233 -101.67)" fill="#0b261f"/>
        <path id="Path_126746" data-name="Path 126746" d="M403.544,199.693c23.778-13.454,47.025-36.4,66.509-65.638l.264-.153c19.484,6.74,42.729,2.843,66.507-11.16l.868.919c-23.735,13.943-46.937,17.818-66.387,11.089l-.263.152c-19.484,29.238-42.731,52.186-66.508,65.638l-.909.514L404.909,244c2.444,34.479,10.458,51.116,23.294,62.365-13.416-11.262-21.779-27.858-24.285-63.213l-1.284-42.946Z" transform="translate(-346.91 -112.837)" fill="#fff"/>
        <g id="Group_56791" data-name="Group 56791" transform="translate(182.439 41.045)">
          <path id="Path_126747" data-name="Path 126747" d="M421.634,185.8a.942.942,0,0,0,.941-.941q0-1.94-.089-3.807a.94.94,0,1,0-1.879.087q.082,1.824.085,3.72A.942.942,0,0,0,421.634,185.8Zm-.561-9.391a.835.835,0,0,0,.119-.008.939.939,0,0,0,.817-1.049q-.24-1.937-.582-3.777a.941.941,0,0,0-1.851.344q.331,1.785.565,3.664A.94.94,0,0,0,421.073,176.41Zm-1.868-9.21a.921.921,0,0,0,.264-.038.94.94,0,0,0,.64-1.167c-.362-1.239-.768-2.464-1.2-3.637a.942.942,0,0,0-1.766.659c.424,1.13.815,2.31,1.162,3.506A.946.946,0,0,0,419.205,167.2Zm-3.5-8.719a.942.942,0,0,0,.83-1.384c-.606-1.137-1.269-2.252-1.971-3.31a.942.942,0,0,0-1.57,1.041c.67,1.009,1.3,2.069,1.879,3.153A.941.941,0,0,0,415.709,158.481Zm-5.42-7.655a.929.929,0,0,0,.642-.254.943.943,0,0,0,.045-1.331,32.559,32.559,0,0,0-2.811-2.666.941.941,0,0,0-1.21,1.442,30.447,30.447,0,0,1,2.645,2.511A.943.943,0,0,0,410.289,150.826Zm-7.361-5.8a.942.942,0,0,0,.463-1.762,31.755,31.755,0,0,0-3.492-1.687.942.942,0,0,0-.714,1.743,29.109,29.109,0,0,1,3.281,1.585A.929.929,0,0,0,402.928,145.026Zm-8.771-3.285a.941.941,0,0,0,.194-1.862,35.749,35.749,0,0,0-3.82-.593.974.974,0,0,0-1.028.842.937.937,0,0,0,.842,1.032,33.99,33.99,0,0,1,3.617.561A.988.988,0,0,0,394.156,141.74Z" transform="translate(-389.497 -139.282)" fill="#b4ddc0"/>
        </g>
        <g id="Group_56792" data-name="Group 56792" transform="translate(176.016 131.286)">
          <path id="Path_126748" data-name="Path 126748" d="M395.888,231.66a.945.945,0,0,0,.693-.3q1.277-1.392,2.525-2.824a.941.941,0,1,0-1.418-1.239q-1.234,1.418-2.495,2.788a.943.943,0,0,0,.058,1.331A.932.932,0,0,0,395.888,231.66Zm6.126-7.139a.938.938,0,0,0,.734-.352q1.183-1.474,2.335-2.984a.942.942,0,0,0-1.5-1.145q-1.138,1.494-2.3,2.95a.941.941,0,0,0,.732,1.531ZM407.666,217a.943.943,0,0,0,.772-.4q1.084-1.548,2.141-3.125a.942.942,0,0,0-1.566-1.047q-1.039,1.559-2.116,3.089a.942.942,0,0,0,.23,1.31A.929.929,0,0,0,407.666,217Zm5.175-7.862a.943.943,0,0,0,.8-.446q.994-1.613,1.947-3.249a.942.942,0,1,0-1.628-.947q-.938,1.615-1.92,3.208a.94.94,0,0,0,.8,1.435Zm4.693-8.16a.945.945,0,0,0,.83-.5q.89-1.672,1.745-3.361a.941.941,0,1,0-1.681-.847q-.842,1.669-1.726,3.321a.945.945,0,0,0,.832,1.386Zm4.185-8.434a.938.938,0,0,0,.855-.548q.794-1.725,1.538-3.464a.942.942,0,1,0-1.732-.742q-.734,1.717-1.516,3.421a.939.939,0,0,0,.855,1.333Z" transform="translate(-394.946 -187.215)" fill="#b4ddc0"/>
        </g>
        <g id="Group_56793" data-name="Group 56793" transform="translate(138.039 61.248)">
          <path id="Path_126749" data-name="Path 126749" d="M411.7,266.917c26.357-15.22,47.8-52.208,47.8-82.455,0-14.794-5.051-25.859-14.227-31.156-9.253-5.343-21.511-4.151-34.515,3.355a77.21,77.21,0,0,0-12.789,9.364l1.254,1.4a75.333,75.333,0,0,1,12.476-9.137c12.394-7.156,23.982-8.348,32.632-3.355,8.566,4.948,13.286,15.434,13.286,29.526,0,29.648-21.022,65.9-46.86,80.825Z" transform="translate(-397.967 -150.014)" fill="#d6bd81"/>
        </g>
        <path id="Path_126750" data-name="Path 126750" d="M422.923,214.611c.073,1.549,1.137,2.225,2.376,1.51a4.867,4.867,0,0,0,2.109-4.1c-.075-1.548-1.137-2.223-2.376-1.508A4.86,4.86,0,0,0,422.923,214.611Z" transform="translate(-274.817 -35.615)" fill="#c9b074"/>
        <g id="Group_56794" data-name="Group 56794" transform="translate(136.16 72.296)">
          <path id="Path_126751" data-name="Path 126751" d="M427.4,163.522l7.28-1.821a.941.941,0,0,0-.456-1.826l-3.822.956,1.363-3.679A.942.942,0,1,0,430,156.5Z" transform="translate(-427.402 -155.882)" fill="#d6bd81"/>
        </g>
        <g id="Group_56798" data-name="Group 56798" transform="translate(107.856 74.145)">
          <g id="Group_56795" data-name="Group 56795" transform="translate(0)">
            <path id="Path_126752" data-name="Path 126752" d="M464.989,187.514c-.516-18.864-14.228-26.363-31.049-16.65-8.658,5-16.5,13.614-22.14,23.449l-6.205-1.561c7.069-12.823,17.157-24.132,28.346-30.593,21.169-12.22,38.414-2.56,38.672,21.513l-4.965,4.509Z" transform="translate(-395.256 -156.864)" fill="#a79262"/>
            <path id="Path_126753" data-name="Path 126753" d="M409.226,231.306c4.59.42,9.907-.86,15.59-4.144,15.933-9.2,29.089-30.622,30.876-49.4l7.593-3.827c-.013.137,2.538.655,2.525.793-2.2,23.37-21.156,49.684-40.993,61.136-7.2,4.161-12.079,6.346-17.861,5.733-.243-.026-2.355-.627-2.594-.661Z" transform="translate(-386.133 -141.794)" fill="#a79262"/>
            <path id="Path_126754" data-name="Path 126754" d="M450.026,180.511c-3.765,8.077-6.019,16.628-6.019,24.488,0,11.273,4.594,18.676,11.731,21.1l-4.807,9.519c-8.837-3.041-14.51-12.254-14.51-26.239,0-9.762,2.766-20.387,7.437-30.418Z" transform="translate(-436.422 -137.36)" fill="#a79262"/>
          </g>
          <path id="Path_126755" data-name="Path 126755" d="M422.369,204.589a26.491,26.491,0,0,0,5.454-6.529c.9-1.51.87-3.148-.007-3.658a6.966,6.966,0,0,1-2.784-3.1c-.956.264-2.141-.088-2.141-1.4a5.183,5.183,0,0,1,1.38-3.528c.233-5.723,2.188-11.6,8.769-15.4,2.3-1.329,4.036-1.749,5.33-1.5.3.056,2.911.744,3.165.872,1.785.887.143,2.8.275,5.906.791-.175,1.38.6,1.38,1.935a6.324,6.324,0,0,1-2.141,3.871,31.155,31.155,0,0,1-2.783,6.318c-.877,1.525-.909,3.2-.008,3.667a7.182,7.182,0,0,0,5.452.232,4.1,4.1,0,0,1,2.278-.092c.192.055,2.536.663,2.711.749,1.224.608-.173,1.5-.173,3.577v5.9a3.979,3.979,0,0,1-1.8,3.112l-25.284,16.735c-.439.254-2.922-.629-3.235-.747a1.183,1.183,0,0,1-.651-1.216v-5.9A14.054,14.054,0,0,1,422.369,204.589Z" transform="translate(-394.362 -145.8)" fill="#a79262"/>
          <g id="Group_56796" data-name="Group 56796" transform="translate(1.7 0.486)">
            <path id="Path_126756" data-name="Path 126756" d="M464.086,187.772c-.516-18.864-14.227-26.363-31.049-16.652-8.658,5-16.5,13.616-22.14,23.451l-6.205-1.561c7.07-12.823,17.157-24.132,28.346-30.594,21.169-12.22,38.414-2.56,38.672,21.513Z" transform="translate(-394.353 -157.122)" fill="#fff"/>
            <path id="Path_126757" data-name="Path 126757" d="M409.664,231.564c4.59.42,9.907-.86,15.59-4.144,15.933-9.2,29.089-30.622,30.876-49.4l7.593-3.827c-2.041,23.468-18.514,50.409-38.469,61.929-7.506,4.334-14.517,5.906-20.455,5.072Z" transform="translate(-386.571 -142.052)" fill="#fff"/>
            <path id="Path_126758" data-name="Path 126758" d="M449.123,180.769c-3.765,8.077-6.019,16.628-6.019,24.488,0,11.275,4.594,18.676,11.731,21.1l-4.806,9.519c-8.837-3.041-14.51-12.254-14.51-26.239,0-9.762,2.766-20.386,7.436-30.418Z" transform="translate(-435.519 -137.618)" fill="#fff"/>
          </g>
          <path id="Path_126759" data-name="Path 126759" d="M421.825,204.847a26.491,26.491,0,0,0,5.454-6.529c.9-1.51.87-3.148-.008-3.658a6.966,6.966,0,0,1-2.784-3.1c-.956.264-2.141-.088-2.141-1.4a5.179,5.179,0,0,1,1.38-3.528c.233-5.723,2.188-11.6,8.77-15.4s8.536-.177,8.77,5.275c.791-.175,1.38.6,1.38,1.935a6.324,6.324,0,0,1-2.141,3.871,31.1,31.1,0,0,1-2.783,6.318c-.877,1.525-.909,3.2-.007,3.667a7.182,7.182,0,0,0,5.452.232c2.764-.836,4.816.832,4.816,4.234v5.9a3.978,3.978,0,0,1-1.8,3.112l-27.367,15.8c-1,.576-1.8.115-1.8-1.028v-5.9A14.054,14.054,0,0,1,421.825,204.847Z" transform="translate(-392.118 -145.572)" fill="#fff"/>
          <g id="Group_56797" data-name="Group 56797" transform="translate(2.672 0.729)">
            <path id="Path_126760" data-name="Path 126760" d="M463.57,187.9c-.516-18.864-14.227-26.363-31.049-16.652-8.658,5-16.5,13.616-22.14,23.451l-6.205-1.561c7.069-12.823,17.157-24.132,28.346-30.594,21.169-12.22,38.414-2.56,38.672,21.513Z" transform="translate(-393.837 -157.251)" fill="#d6bd81"/>
            <path id="Path_126761" data-name="Path 126761" d="M409.148,231.693c4.59.42,9.907-.86,15.59-4.144,15.933-9.2,29.089-30.622,30.876-49.4l7.593-3.827c-2.041,23.468-18.514,50.409-38.469,61.929-7.506,4.334-14.517,5.906-20.455,5.072Z" transform="translate(-386.055 -142.181)" fill="#d6bd81"/>
            <path id="Path_126762" data-name="Path 126762" d="M448.607,180.9c-3.765,8.077-6.019,16.628-6.019,24.488,0,11.275,4.594,18.676,11.731,21.1L449.513,236C440.675,232.964,435,223.75,435,209.765c0-9.762,2.766-20.386,7.437-30.418Z" transform="translate(-435.003 -137.747)" fill="#d6bd81"/>
          </g>
          <path id="Path_126763" data-name="Path 126763" d="M421.309,204.976a26.494,26.494,0,0,0,5.454-6.529c.9-1.51.87-3.148-.007-3.658a6.965,6.965,0,0,1-2.785-3.1c-.956.264-2.141-.088-2.141-1.4a5.18,5.18,0,0,1,1.38-3.528c.233-5.723,2.188-11.6,8.77-15.4s8.536-.177,8.77,5.275c.791-.175,1.38.6,1.38,1.935a6.325,6.325,0,0,1-2.14,3.871,31.108,31.108,0,0,1-2.783,6.318c-.877,1.525-.909,3.2-.008,3.668a7.182,7.182,0,0,0,5.452.232c2.764-.836,4.816.832,4.816,4.234v5.9a3.975,3.975,0,0,1-1.8,3.112L418.3,221.7c-1,.576-1.8.115-1.8-1.028v-5.9A14.054,14.054,0,0,1,421.309,204.976Z" transform="translate(-390.631 -145.458)" fill="#d6bd81"/>
        </g>
      </g>
      <g id="Group_56802" data-name="Group 56802" transform="translate(12.545 152.875)">
        <path id="Path_126764" data-name="Path 126764" d="M535.329,264.815,597.606,228.8c3.551-2.049,6.429-7.549,6.429-12.282V201.764c0-4.733-2.878-6.909-6.429-4.86l-62.277,36.011c-3.551,2.051-6.429,7.549-6.429,12.282v14.758C528.9,264.689,531.778,266.865,535.329,264.815Z" transform="translate(-525.873 -194.589)" fill="#00ab7a"/>
        <path id="Path_126765" data-name="Path 126765" d="M533.143,256.314l61.3-35.441a10.929,10.929,0,0,0,4.624-9.156V201.14a1.139,1.139,0,0,0-1.716-.981l-.2.117-61.371,35.491c-3.4,1.96-4.624,5.443-4.624,9.156v10.409a1.23,1.23,0,0,0,1.84,1.067Z" transform="translate(-524.516 -192.259)" fill="#006b58"/>
        <path id="Path_126766" data-name="Path 126766" d="M531.9,255.555l.149-.085,61.3-35.441a10.932,10.932,0,0,0,4.623-9.156V200.3a1.148,1.148,0,0,0-.04-.29,1.136,1.136,0,0,1,1.069,1.131v10.577a10.929,10.929,0,0,1-4.625,9.156l-61.3,35.441-.151.085a1.228,1.228,0,0,1-1.778-.7A1.2,1.2,0,0,0,531.9,255.555Z" transform="translate(-524.455 -192.256)" fill="#0f3329"/>
        <path id="Path_126767" data-name="Path 126767" d="M536.843,231.953l62.278-36.011a4.343,4.343,0,0,1,3.761-.553c.135.051,3.133,1.581,3.259,1.65l.006,0a4.208,4.208,0,0,0-4,.441L539.872,233.5c-3.551,2.049-6.429,7.547-6.429,12.28v14.758c0,2.955,1.122,4.911,2.827,5.467a1.064,1.064,0,0,1-.562-.191c-.082-.047-3.232-1.721-3.311-1.775-1.221-.856-1.981-2.612-1.981-5.046V244.233C530.416,239.5,533.294,234,536.843,231.953Z" transform="translate(-530.416 -195.169)" fill="#0c8b76"/>
        <path id="Path_126768" data-name="Path 126768" d="M530.416,231.953l62.278-36.011a4.344,4.344,0,0,1,3.761-.553c.135.051,3.133,1.581,3.259,1.65l.006,0a4.208,4.208,0,0,0-4,.441L533.445,233.5Z" transform="translate(-523.989 -195.169)" fill="#00ab7a"/>
        <path id="Path_126769" data-name="Path 126769" d="M537.115,232.817l62.278-36.011a4.27,4.27,0,0,1,3.871-.5,4.742,4.742,0,0,0-3.1.727l-62.278,36.011c-3.549,2.049-6.427,7.547-6.427,12.281v14.758c0,2.793,1.006,4.685,2.556,5.355-1.982-.316-3.326-2.352-3.326-5.586V245.1C530.688,240.365,533.566,234.866,537.115,232.817Z" transform="translate(-527.969 -194.644)" fill="#fff" opacity="0.7"/>
        <g id="Group_56800" data-name="Group 56800" transform="translate(16.096 18.8)">
          <path id="Path_126770" data-name="Path 126770" d="M570.547,224.139a8.542,8.542,0,0,1-3.874,6.685c-2.141,1.235-3.876.247-3.876-2.21a8.539,8.539,0,0,1,3.876-6.685C568.811,220.694,570.547,221.682,570.547,224.139Z" transform="translate(-562.796 -198.171)" fill="#0f3329"/>
          <path id="Path_126771" data-name="Path 126771" d="M564.309,220.515a8.537,8.537,0,0,1-3.875,6.685c-2.141,1.235-3.876.247-3.876-2.21a8.541,8.541,0,0,1,3.876-6.685C562.575,217.07,564.309,218.06,564.309,220.515Z" transform="translate(-546.562 -200.354)" fill="#0f3329"/>
          <path id="Path_126772" data-name="Path 126772" d="M558.071,216.892a8.534,8.534,0,0,1-3.875,6.683c-2.141,1.237-3.876.247-3.876-2.21a8.539,8.539,0,0,1,3.876-6.683C556.337,213.447,558.071,214.435,558.071,216.892Z" transform="translate(-530.329 -202.536)" fill="#0f3329"/>
          <path id="Path_126773" data-name="Path 126773" d="M551.833,213.268a8.541,8.541,0,0,1-3.876,6.685c-2.141,1.235-3.876.247-3.876-2.21a8.539,8.539,0,0,1,3.876-6.685C550.1,209.823,551.833,210.811,551.833,213.268Z" transform="translate(-514.094 -204.719)" fill="#0f3329"/>
          <path id="Path_126774" data-name="Path 126774" d="M545.594,209.644a8.539,8.539,0,0,1-3.876,6.685c-2.141,1.235-3.874.247-3.874-2.21a8.54,8.54,0,0,1,3.874-6.685C543.858,206.2,545.594,207.189,545.594,209.644Z" transform="translate(-497.859 -206.902)" fill="#0f3329"/>
        </g>
        <g id="Group_56801" data-name="Group 56801" transform="translate(17.296 18.88)">
          <path id="Path_126775" data-name="Path 126775" d="M569.8,224.189a8.541,8.541,0,0,1-3.876,6.685c-2.141,1.235-3.875.247-3.875-2.21a8.537,8.537,0,0,1,3.875-6.685C568.062,220.744,569.8,221.732,569.8,224.189Z" transform="translate(-562.047 -198.221)" fill="#b4ddc0"/>
          <path id="Path_126776" data-name="Path 126776" d="M563.56,220.565a8.539,8.539,0,0,1-3.876,6.685c-2.139,1.235-3.874.247-3.874-2.21a8.544,8.544,0,0,1,3.874-6.685C561.824,217.12,563.56,218.11,563.56,220.565Z" transform="translate(-545.813 -200.404)" fill="#b4ddc0"/>
          <path id="Path_126777" data-name="Path 126777" d="M557.322,216.942a8.539,8.539,0,0,1-3.876,6.683c-2.139,1.235-3.875.247-3.875-2.21a8.541,8.541,0,0,1,3.875-6.683C555.586,213.5,557.322,214.485,557.322,216.942Z" transform="translate(-529.58 -202.586)" fill="#b4ddc0"/>
          <path id="Path_126778" data-name="Path 126778" d="M551.084,213.318A8.544,8.544,0,0,1,547.209,220c-2.141,1.235-3.876.245-3.876-2.21a8.539,8.539,0,0,1,3.876-6.685C549.348,209.873,551.084,210.861,551.084,213.318Z" transform="translate(-513.346 -204.769)" fill="#b4ddc0"/>
          <path id="Path_126779" data-name="Path 126779" d="M544.846,209.694a8.541,8.541,0,0,1-3.875,6.685c-2.141,1.235-3.876.247-3.876-2.21a8.542,8.542,0,0,1,3.876-6.685C543.11,206.249,544.846,207.239,544.846,209.694Z" transform="translate(-497.112 -206.952)" fill="#b4ddc0"/>
        </g>
      </g>
      <g id="Group_56811" data-name="Group 56811" transform="translate(2 231.818)">
        <path id="Path_126787" data-name="Path 126787" d="M562.584,339.529l49.192-28.314c5.12-2.955,4.477-8.118-1.434-11.529h0c-5.91-3.413-25.464-3.432-30.582-.478l-43.612,25.167c-7.858,4.637-.079,11,6.465,14.325h0C548.525,342.113,557.466,342.483,562.584,339.529Z" transform="translate(-532.842 -212.74)" fill="#92b4d1" opacity="0.2"/>
        <path id="Path_126788" data-name="Path 126788" d="M533.253,296.422,604.376,269.9v52.655l0,.095c.231,1.713-.676,3.383-2.777,4.594l-48.1,27.854c-4.166,2.405-11.443,2.1-16.255-.673h0c-2.545-1.469-3.889-3.338-3.974-5.128l-.024.01Z" transform="translate(-522.682 -229.099)" fill="#cce5ca"/>
        <path id="Path_126789" data-name="Path 126789" d="M553.486,304.856,601.582,277c4.168-2.405,3.644-6.607-1.167-9.385h0c-4.81-2.777-12.089-3.078-16.255-.673l-48.1,27.854c-4.166,2.405-3.644,6.607,1.167,9.385h0C542.043,306.96,549.32,307.261,553.486,304.856Z" transform="translate(-522.663 -231.855)" fill="#c9dbbe"/>
        <path id="Path_126790" data-name="Path 126790" d="M537.22,300.772c4.812,2.777,12.089,3.08,16.255.675l48.1-27.854a4.972,4.972,0,0,0,2.785-3.717c.2,1.689-.71,3.331-2.785,4.528l-48.1,27.854c-4.166,2.405-11.443,2.1-16.255-.673-2.8-1.618-4.137-3.719-3.95-5.668C533.472,297.623,534.8,299.376,537.22,300.772Z" transform="translate(-522.651 -229.112)" fill="#fff"/>
        <g id="Group_56810" data-name="Group 56810" transform="translate(21.542 0)">
          <path id="Path_126791" data-name="Path 126791" d="M559.427,247.155h0a20.149,20.149,0,0,1,30.207,17.459v21.851h0c0,.016,0,.03,0,.03,0,2.142-2.961,3.866-6.613,3.866s-6.615-1.724-6.615-3.85c0-.026.006-.05.006-.075h-.071v-19a8.538,8.538,0,0,0-12.792-7.4h0a21.3,21.3,0,0,0-10.685,18.462v29.136h-.07c-.072,2.091-3,3.774-6.607,3.774-3.631,0-6.575-1.7-6.61-3.814h0V281.5A39.641,39.641,0,0,1,559.427,247.155Z" transform="translate(-539.575 -244.436)" fill="#00846c"/>
          <g id="Group_56808" data-name="Group 56808" transform="translate(8.65 12.191)">
            <path id="Path_126792" data-name="Path 126792" d="M569,252.661a12.476,12.476,0,0,1,1.234-.617A23.212,23.212,0,0,0,560,271.258l0,34.191a8.025,8.025,0,0,1-2.583.945V272.718A23.209,23.209,0,0,1,569,252.661Z" transform="translate(-557.413 -252.044)" fill="#4cc0ad"/>
          </g>
          <g id="Group_56809" data-name="Group 56809" transform="translate(33.059 9.304)">
            <path id="Path_126793" data-name="Path 126793" d="M543.617,250.242a10.836,10.836,0,0,1,10.824,10.824v22.822l.069,2.368c.05.2-3.7-.107-3.791-.455l-.069-2.368V260.611a10.845,10.845,0,0,0-7.65-10.35C543.206,250.25,543.411,250.242,543.617,250.242Z" transform="translate(-543.001 -250.242)" fill="#016e5a"/>
          </g>
          <path id="Path_126794" data-name="Path 126794" d="M550.829,248.206a20.918,20.918,0,0,0-9.835,2.468,37.166,37.166,0,0,1,3.645-2.4,17.612,17.612,0,0,1,8.892-2.416,17.945,17.945,0,0,1,17.905,17.9v.048A21.622,21.622,0,0,0,550.829,248.206Z" transform="translate(-523.651 -243.581)" fill="#4cc0ad"/>
          <path id="Path_126795" data-name="Path 126795" d="M571.164,273.789l0,25.57a8.2,8.2,0,0,1-3.309-1.151,2.17,2.17,0,0,1-.228-.9l0-26.083C567.628,259.953,571.164,262.3,571.164,273.789Z" transform="translate(-566.061 -232.728)" fill="#076857"/>
        </g>
        <path id="Path_126796" data-name="Path 126796" d="M547.628,300.385a14.375,14.375,0,0,1,6.522-11.249c3.6-2.078,6.522-.413,6.522,3.719a14.188,14.188,0,0,1-3.3,8.4V314.35l-6.448,3.724V304.981C548.958,304.83,547.628,303.172,547.628,300.385Z" transform="translate(-501.974 -218.049)" fill="#126e5d"/>
        <path id="Path_126797" data-name="Path 126797" d="M552.951,313.837V300.746a14.188,14.188,0,0,0,3.3-8.4,4.656,4.656,0,0,0-1.711-4.052c1.713.361,2.836,1.973,2.836,4.535a14.188,14.188,0,0,1-3.3,8.4V314.32l-6.448,3.724v-1.133Z" transform="translate(-498.677 -218.019)" fill="#001a46"/>
      </g>
    </g>
  </g>
</svg>
