<svg xmlns="http://www.w3.org/2000/svg" width="346" height="597.438" viewBox="0 0 346 597.438">
  <g id="related-items" transform="translate(-1336 -329.868)">
    <path id="base" d="M262.218,51.411C219.543,35.567,184.424,16.723,173,0h-.014c-11.425,16.723-46.536,35.567-89.2,51.411C33.5,70.092,0,97.87,0,172.738v215.7C0,463.3,33.5,491.082,83.782,509.762c42.667,15.845,77.779,34.688,89.2,51.411.014,0,.014,0,.014,0,11.425-16.722,46.544-35.566,89.219-51.411C312.494,491.082,346,463.3,346,388.438v-215.7c0-74.867-33.505-102.645-83.782-121.327" transform="translate(1336 348)" fill="#00846c"/>
    <path id="base-2" data-name="base" d="M83.782,509.762c42.667,15.845,77.779,34.688,89.2,51.411.014,0,.014,0,.014,0,11.425-16.722,46.544-35.566,89.219-51.411" transform="translate(1336 363.705)" fill="none" stroke="#d6bd81" stroke-width="1.5"/>
    <path id="base-3" data-name="base" d="M0,51.41C42.667,35.565,77.779,16.722,89.2,0c.014,0,.014,0,.014,0,11.425,16.722,46.544,35.565,89.219,51.41" transform="translate(1419.782 332.295)" fill="none" stroke="#d6bd81" stroke-width="1.5"/>
  </g>
</svg>
