<svg xmlns="http://www.w3.org/2000/svg" width="20.5" height="20.5" viewBox="0 0 20.5 20.5">
  <g id="uploadIcon" transform="translate(-1579.25 -1690.25)">
    <circle id="Ellipse_11154" data-name="Ellipse 11154" cx="9.5" cy="9.5" r="9.5" transform="translate(1580 1691)" fill="#fff" stroke="#1c614e" stroke-width="1.5"/>
    <path id="Path_122744" data-name="Path 122744" d="M-3.418-2.584H-5.161q-.007-.376-.007-.458a3.049,3.049,0,0,1,.28-1.395,4.252,4.252,0,0,1,1.121-1.23,8.393,8.393,0,0,0,1-.9A1.2,1.2,0,0,0-2.509-7.3a1.244,1.244,0,0,0-.448-.96,1.745,1.745,0,0,0-1.207-.4,1.828,1.828,0,0,0-1.224.417,2.219,2.219,0,0,0-.677,1.271l-1.764-.219A2.927,2.927,0,0,1-6.785-9.27a3.7,3.7,0,0,1,2.54-.854,3.829,3.829,0,0,1,2.632.865A2.618,2.618,0,0,1-.636-7.246a2.214,2.214,0,0,1-.359,1.2A7.878,7.878,0,0,1-2.529-4.5a2.93,2.93,0,0,0-.755.813A2.728,2.728,0,0,0-3.418-2.584ZM-5.161,0V-1.921H-3.24V0Z" transform="translate(1593.828 1705.123)" fill="#1c614e"/>
  </g>
</svg>
