<svg id="browsing" xmlns="http://www.w3.org/2000/svg" width="31.584" height="31.584" viewBox="0 0 31.584 31.584">
  <g id="book-album" transform="translate(-414 -101)" fill="none" fill-rule="evenodd">
    <path d="M417.948,101A3.948,3.948,0,0,0,414,104.948v20.727c0,2.18,1.861,3.27,3.948,3.948l10.857,2.961V103.961c-4.947-1.327-10.857-2.961-10.857-2.961Zm23.688,0s-5.713,1.573-10.905,2.961h.048v28.623c5.544-1.479,10.857-2.961,10.857-2.961,2.026-.524,3.948-1.768,3.948-3.948V104.948A3.948,3.948,0,0,0,441.636,101Z" stroke="none"/>
    <path d="M 441.8149719238281 102.5064849853516 C 440.8085327148438 102.7831573486328 436.5059814453125 103.9642486572266 432.2789916992188 105.0991058349609 L 432.2789916992188 130.6288604736328 C 437.0248718261719 129.3509521484375 441.1861572265625 128.1911926269531 441.2330932617188 128.1781005859375 L 441.2603759765625 128.1707763671875 C 442.1331176757812 127.9450302124023 442.8844909667969 127.5812606811523 443.3760681152344 127.146484375 C 443.8590393066406 126.7193145751953 444.083984375 126.2517318725586 444.083984375 125.6749954223633 L 444.083984375 104.947998046875 C 444.083984375 103.6584014892578 443.0815124511719 102.5984954833984 441.8149719238281 102.5064849853516 M 417.7682800292969 102.5065307617188 C 416.5020751953125 102.5988922119141 415.5 103.6586456298828 415.5 104.947998046875 L 415.5 125.6749954223633 C 415.5 126.241813659668 415.7078857421875 126.6748657226562 416.1739807128906 127.0791244506836 C 416.6530456542969 127.4946060180664 417.3742370605469 127.8566436767578 418.3780212402344 128.1854705810547 L 427.3049926757812 130.6201019287109 L 427.3049926757812 105.1109771728516 C 423.2170104980469 104.0092010498047 418.79345703125 102.7895812988281 417.7682800292969 102.5065307617188 M 417.947998046875 101 C 417.947998046875 101 423.858154296875 102.6344757080078 428.8049926757812 103.9609985351562 L 428.8049926757812 132.583984375 L 417.947998046875 129.6229858398438 C 415.8605346679688 128.9449157714844 414 127.8552703857422 414 125.6749954223633 L 414 104.947998046875 C 414 102.7677154541016 415.7677001953125 101 417.947998046875 101 Z M 441.635986328125 101 C 443.8162841796875 101 445.583984375 102.7677154541016 445.583984375 104.947998046875 L 445.583984375 125.6749954223633 C 445.583984375 127.8552703857422 443.6622924804688 129.098876953125 441.635986328125 129.6229858398438 C 441.635986328125 129.6229858398438 436.322998046875 131.1044921875 430.7789916992188 132.583984375 L 430.7789916992188 103.9609985351562 L 430.7306518554688 103.9609985351562 C 435.9232177734375 102.5732727050781 441.635986328125 101 441.635986328125 101 Z" stroke="none" fill="#00846c"/>
  </g>
</svg>
