<svg xmlns="http://www.w3.org/2000/svg" width="68.061" height="61.897" viewBox="0 0 68.061 61.897">
  <g id="channelMail" transform="translate(-1475.242 -1647.421)">
    <path id="Path_124569" data-name="Path 124569" d="M1541.17,1683.716v-33.61a1.993,1.993,0,0,0-.383-1.074,2.448,2.448,0,0,0-1.054-.611h-61.995a2.14,2.14,0,0,0-1.123.37,1.474,1.474,0,0,0-.369.979v46.318a2.549,2.549,0,0,0,.368,1.474,1.758,1.758,0,0,0,1.28.4h24.9" fill="none" stroke="#00ab7a" stroke-linecap="round" stroke-linejoin="round" stroke-width="2"/>
    <path id="Path_124570" data-name="Path 124570" d="M1540.523,1653.439l-33.344,20.724-31.58-20.724" transform="translate(0.647)" fill="none" stroke="#00ab7a" stroke-width="2"/>
    <path id="Path_124571" data-name="Path 124571" d="M1549.374,1697.963h-26.336" transform="translate(-7.07 -0.463)" fill="none" stroke="#00ab7a" stroke-linecap="round" stroke-width="2"/>
    <path id="Path_124572" data-name="Path 124572" d="M1524.562,1681.773l-12.21,11.5,12.21,10.906" transform="translate(2.233 3.727)" fill="none" stroke="#00ab7a" stroke-linecap="round" stroke-width="2"/>
  </g>
</svg>
