<svg xmlns="http://www.w3.org/2000/svg" width="69.089" height="69.089" viewBox="0 0 69.089 69.089">
  <g id="channelTwetter" transform="translate(-1441.823 -1638.5)">
    <path id="twitter-with-circle" d="M33.945.4A33.545,33.545,0,1,0,67.489,33.945,33.544,33.544,0,0,0,33.945.4Z" transform="translate(1442.423 1639.1)" fill="none" stroke="#00ab7a" stroke-width="2"/>
    <path id="twitter" d="M30.622,54.99c.022.3.022.606.022.91,0,9.247-7.038,19.9-19.9,19.9A19.767,19.767,0,0,1,0,72.662a14.472,14.472,0,0,0,1.689.087,14.009,14.009,0,0,0,8.684-2.988,7.007,7.007,0,0,1-6.54-4.851,8.822,8.822,0,0,0,1.321.108,7.4,7.4,0,0,0,1.841-.238,7,7,0,0,1-5.609-6.865v-.087a7.045,7.045,0,0,0,3.162.888A7.005,7.005,0,0,1,2.382,49.36,19.883,19.883,0,0,0,16.8,56.679a7.9,7.9,0,0,1-.173-1.6,7,7,0,0,1,12.106-4.786A13.772,13.772,0,0,0,33.177,48.6,6.976,6.976,0,0,1,30.1,52.457a14.023,14.023,0,0,0,4.028-1.083,15.036,15.036,0,0,1-3.508,3.616Z" transform="translate(1459.303 1611.103)" fill="none" stroke="#00ab7a" stroke-linecap="round" stroke-linejoin="round" stroke-width="2"/>
  </g>
</svg>
