<svg xmlns="http://www.w3.org/2000/svg" width="69.034" height="69.032" viewBox="0 0 69.034 69.032">
  <g id="chatbubbles" transform="translate(1 1)">
    <path id="Path_124573" data-name="Path 124573" d="M121.618,91.925a2.951,2.951,0,0,0-.532-1.966,5.428,5.428,0,0,0-.338-.5,26.1,26.1,0,0,1-4.447-14.55C116.252,60.053,128.788,48,144.289,48c13.519,0,24.8,9.2,27.441,21.415a25.893,25.893,0,0,1,.6,5.511,27.334,27.334,0,0,1-27.554,27.248,33.185,33.185,0,0,1-7.606-1.241c-1.821-.5-3.626-1.16-4.093-1.337a4.261,4.261,0,0,0-1.5-.274,4.19,4.19,0,0,0-1.627.322l-9.136,3.239a2.178,2.178,0,0,1-.628.161,1.289,1.289,0,0,1-1.289-1.289,2.07,2.07,0,0,1,.081-.435Z" transform="translate(-116.3 -48)" fill="none" stroke="#00ab7a" stroke-linecap="round" stroke-miterlimit="10" stroke-width="2"/>
    <path id="Path_124574" data-name="Path 124574" d="M83.052,232a23.562,23.562,0,0,1-1.03,24.6c-.372.562-.582,1-.517,1.289s1.922,9.969,1.922,9.969a1.289,1.289,0,0,1-.437,1.237,1.316,1.316,0,0,1-.831.287,1.17,1.17,0,0,1-.469-.1l-9.057-3.545a2.53,2.53,0,0,0-1.934.032,27.294,27.294,0,0,1-9.8,1.934A25.655,25.655,0,0,1,48,264.244" transform="translate(-18.995 -202.351)" fill="none" stroke="#00ab7a" stroke-linecap="round" stroke-miterlimit="10" stroke-width="2"/>
    <line id="Line_482" data-name="Line 482" x1="4" transform="translate(36.059 27.522)" fill="none" stroke="#00ab7a" stroke-linecap="round" stroke-width="2"/>
    <line id="Line_483" data-name="Line 483" x1="4" transform="translate(26.013 27.522)" fill="none" stroke="#00ab7a" stroke-linecap="round" stroke-width="2"/>
    <line id="Line_484" data-name="Line 484" x1="4" transform="translate(15.968 27.522)" fill="none" stroke="#00ab7a" stroke-linecap="round" stroke-width="2"/>
  </g>
</svg>
