<svg xmlns="http://www.w3.org/2000/svg" width="16" height="16" viewBox="0 0 16 16">
  <path id="fax" d="M6,2h6.172L13,2.828V5h2V2.414a1,1,0,0,0-.293-.707L13.293.293A1,1,0,0,0,12.587,0H5A1,1,0,0,0,4,1V5H6ZM2,4H1A1,1,0,0,0,0,5V15a1,1,0,0,0,1,1H2a1,1,0,0,0,1-1V5A1,1,0,0,0,2,4ZM15,6H4v9a1,1,0,0,0,1,1H15a1,1,0,0,0,1-1V7A1,1,0,0,0,15,6ZM9,13.5a.5.5,0,0,1-.5.5h-1a.5.5,0,0,1-.5-.5v-1a.5.5,0,0,1,.5-.5h1a.5.5,0,0,1,.5.5Zm0-4a.5.5,0,0,1-.5.5h-1A.5.5,0,0,1,7,9.5v-1A.5.5,0,0,1,7.5,8h1a.5.5,0,0,1,.5.5Zm4,4a.5.5,0,0,1-.5.5h-1a.5.5,0,0,1-.5-.5v-1a.5.5,0,0,1,.5-.5h1a.5.5,0,0,1,.5.5Zm0-4a.5.5,0,0,1-.5.5h-1a.5.5,0,0,1-.5-.5v-1a.5.5,0,0,1,.5-.5h1a.5.5,0,0,1,.5.5Z" fill="#96a78c"/>
</svg>
